<svg xmlns="http://www.w3.org/2000/svg" viewBox="0 0 800 600"><path d="M100.56 55.82c7.5 1.2 21 1.5 44.4 1.5h12.9v-15c0-12.6-.9-16.5-.9-18.9 0-2.1 1.2-3.3 3.3-3.3 6 0 24.9 6.6 24.9 12 0 2.4-2.7 5.4-7.2 9.3v15.9h24.3c5.4-6 10.8-11.4 15.3-14.7 2.4-1.8 5.1-1.8 7.2-.3 3.6 2.7 10.8 9.3 13.2 12.3 1.8 2.1 2.1 5.1-.3 6.9-3 2.4-7.8 4.2-11.7 4.2h-78.9c5.1 2.7 9.9 6 9.9 8.4 0 2.1-2.4 4.2-6 6.6v33.9c26.1-4.2 53.7-9.6 77.4-15.3l1.5 3.9c-27.9 12-66.6 24.6-98.7 33.3-1.5 4.8-3.6 7.8-6 7.8-4.5 0-10.2-16.2-10.5-21.6-.3-2.1.6-2.7 3-3l14.1-2.1v-33.3c0-11.4-.6-15.9-.9-18.6-14.1.3-21.9 1.2-27.3 2.1-1.8.3-2.7 0-3.6-1.5-1.2-2.1-2.1-6.3-2.1-8.7 0-1.5.9-2.1 2.7-1.8zm.6 167.4c7.5 1.2 23.4 1.5 61.5 1.5h62.1v-27h-32.7c-29.4 0-41.4.9-48.3 2.1-1.8.3-2.7 0-3.6-1.5-1.2-2.1-2.1-6.3-2.1-8.7 0-1.5.9-2.1 2.7-1.8 7.5 1.2 21.9 1.5 51.3 1.5h32.7v-6c0-12.9-.6-17.1-.9-19.8h-48.3c-34.5 0-47.4.9-54.3 2.1-1.8.3-2.7 0-3.6-1.5-1.2-2.1-2.1-6.3-2.1-8.7 0-1.5.9-2.1 2.7-1.8 7.5 1.2 22.8 1.5 57.3 1.5h144c5.4-6 10.8-11.4 15.3-14.7 2.4-1.8 5.1-1.8 7.2-.3 3.6 2.7 10.8 9.3 13.2 12.3 1.8 2.1 2.1 5.1-.3 6.9-3 2.4-7.8 4.2-11.7 4.2h-102.9c5.7 2.7 10.8 6.3 10.8 9 0 2.4-2.4 4.5-6.6 6.9v9.9h51.6c5.4-6 10.8-11.4 15.3-14.7 2.4-1.8 5.1-1.8 7.2-.3 3.6 2.7 10.8 9.3 13.2 12.3 1.8 2.1 2.1 5.1-.3 6.9-3 2.4-7.8 4.2-11.7 4.2h-75.3v27h84.6c6.3-6.9 13.5-14.1 17.7-17.4 2.7-2.1 5.7-2.1 8.7 0 3.9 2.7 11.7 9.9 15 13.8 2.1 2.4 2.1 5.7 0 7.5-2.7 2.4-8.1 4.5-12.9 4.5h-195c-38.1 0-51.6.9-58.5 2.1-1.8.3-2.7 0-3.6-1.5-1.2-2.1-2.1-6.3-2.1-8.7 0-1.5.9-2.1 2.7-1.8zm142.5-150.3v-21.6c0-14.1-.9-17.7-.9-20.1 0-2.1.9-3 3-3 4.5 0 16.5 5.4 21.3 10.2h61.8c3.3-3.9 6.9-7.8 9.9-10.2 1.8-1.5 4.2-1.5 6.3 0 3.3 2.4 9 7.5 12 10.8 2.1 2.4 1.5 5.4-.6 6.9-1.2.9-2.7 1.8-4.5 2.4v69c0 9-21.3 24.9-28.8 24.9-3 0-4.8-1.5-4.8-5.4 0-5.4-.6-5.7-24.3-14.7l.6-3.3c13.8 1.5 24 2.4 29.7 2.4 5.4 0 8.4-2.4 8.4-9.9v-6.3h-74.7c-7.2 18-23.4 33-59.7 44.7l-2.1-4.5c42.6-24.6 47.4-43.2 47.4-72.3zm89.1 23.7v-20.7h-70.2c0 7.2-.6 14.1-2.1 20.7h72.3zm0-29.1v-20.7h-66c-.9 1.5-2.4 2.7-4.2 4.5v16.2h70.2zm95.1-13.8c7.5 1.2 21 1.5 44.7 1.5h15.6v-13.2c0-12.6-.9-16.5-.9-18.9 0-2.1 1.2-3.3 3.3-3.3 6 0 24.9 6.6 24.9 12 0 2.4-2.7 5.4-7.2 9.3v14.1h25.2c5.4-6 10.8-11.4 15.3-14.7 2.4-1.8 5.1-1.8 7.2-.3 3.6 2.7 10.8 9.3 13.2 12.3 1.8 2.1 2.1 5.1-.3 6.9-3 2.4-7.8 4.2-11.7 4.2h-89.1c4.5 2.4 8.1 5.4 8.1 7.5 0 2.1-2.4 4.2-6 6.6v18.9c0 10.2 2.1 12.3 24 12.3 36.6 0 36.6-3.3 41.1-3.3 3 0 6.9 4.2 9 8.7 1.8 3.9 2.1 7.2-1.8 8.4-4.8 1.5-16.8 2.7-51.3 2.7-32.4 0-40.2-5.7-40.2-24.6v-20.4c0-9.3-.3-13.8-.6-16.5-9.6.3-15.3 1.2-19.5 1.8-1.8.3-2.7 0-3.6-1.5-1.2-2.1-2.1-6.3-2.1-8.7 0-1.5.9-2.1 2.7-1.8zm1.8 169.5c7.5 1.2 23.4 1.5 61.8 1.5h63.6v-27.3h-37.5c-30.3 0-42.6.9-49.5 2.1-1.8.3-2.7 0-3.6-1.5-1.2-2.1-2.1-6.3-2.1-8.7 0-1.5.9-2.1 2.7-1.8 7.5 1.2 22.2 1.5 52.5 1.5h37.5v-5.7c0-13.8-.9-17.7-.9-20.4h-51c-34.5 0-47.4.9-54.3 2.1-1.8.3-2.7 0-3.6-1.5-1.2-2.1-2.1-6.3-2.1-8.7 0-1.5.9-2.1 2.7-1.8 7.5 1.2 22.8 1.5 57.3 1.5h145.2c5.4-6 10.8-11.4 15.3-14.7 2.4-1.8 5.1-1.8 7.2-.3 3.6 2.7 10.8 9.3 13.2 12.3 1.8 2.1 2.1 5.1-.3 6.9-3 2.4-7.8 4.2-11.7 4.2h-102.9c6.3 2.7 12.3 6.6 12.3 9.6 0 2.4-2.4 4.5-6.6 6.9v9.6h55.8c5.4-6 10.8-11.4 15.3-14.7 2.4-1.8 5.1-1.8 7.2-.3 3.6 2.7 10.8 9.3 13.2 12.3 1.8 2.1 2.1 5.1-.3 6.9-3 2.4-7.8 4.2-11.7 4.2h-79.5v27.3h86.1c6.3-6.9 13.5-14.1 17.7-17.4 2.7-2.1 5.7-2.1 8.7 0 3.9 2.7 11.7 9.9 15 13.8 2.1 2.4 2.1 5.7 0 7.5-2.7 2.4-8.1 4.5-12.9 4.5h-198c-38.4 0-51.9.9-58.8 2.1-1.8.3-2.7 0-3.6-1.5-1.2-2.1-2.1-6.3-2.1-8.7 0-1.5.9-2.1 2.7-1.8zm210.3-103.5c10.2 0 14.4-1.5 17.4-9.3 5.1-13.2 8.7-37.5 9-63.9h-65.4c-.9 1.5-2.4 2.7-4.2 4.5 0 40.8-12.3 75-72.3 96.6l-2.7-5.1c48.9-29.7 56.1-56.4 56.1-94.2 0-11.4-1.2-14.4-1.2-16.5 0-2.1.9-3.3 3.3-3.3 4.5 0 16.2 4.8 21 9.6h61.5c3.3-3.9 6.9-7.8 9.9-10.2 1.8-1.5 4.2-1.5 6.3 0 3.3 2.4 9 7.5 12 10.8 2.1 2.4 1.5 5.4-.6 6.9-1.5.9-3 1.8-4.8 2.7-.6 22.2-3.9 49.5-8.7 64.5-2.4 7.5-3.9 10.2-10.8 15.9-9.3 7.5-23.7 14.7-30 14.7-3.9 0-6.3-1.8-6.3-6.9 0-6-2.7-7.8-22.5-15.6l.9-3.9c11.1 1.5 24.3 2.7 32.1 2.7zm-41.1-36.9c18.9 0 34.8 3.6 39.3 7.2 5.7 4.5 6.6 12.9 4.8 17.1-1.5 3.6-6 4.5-10.5.3-7.2-6.9-19.8-14.7-34.5-20.7l.9-3.9zm8.1-25.5c18-.6 34.8 2.1 39.6 5.1 6 3.6 8.1 12 6.6 16.8-1.2 3.9-5.7 4.5-9.9 1.2-8.7-7.2-22.2-14.4-36.9-18.9l.6-4.2zm-508.2 276.4c7.5 1.2 21 1.5 45 1.5h14.4v-12.3c0-13.2-.9-17.1-.9-19.8 0-2.1 1.2-3.3 3.6-3.3 6.3 0 25.8 6.9 25.8 12.6 0 2.4-2.7 5.4-7.5 9.6v13.2h26.7c5.4-6 10.8-11.4 15.3-14.7 2.4-1.8 5.1-1.8 7.2-.3 3.6 2.7 10.8 9.3 13.2 12.3 1.8 2.1 2.1 5.1-.3 6.9-3 2.4-7.8 4.2-11.7 4.2h-89.7c4.5 2.4 8.1 5.4 8.1 7.5 0 2.1-2.4 4.2-6 6.6v23.4c0 10.2 2.1 12.3 27 12.3 45.3 0 45-3.3 49.8-3.3 3 0 6.9 4.2 9 8.7 1.8 3.9 2.1 7.2-1.8 8.4-4.8 1.5-17.4 2.7-60 2.7-35.4 0-43.2-5.7-43.2-24.6v-24.9c0-9.3-.6-13.8-.6-16.5-9.9.3-15.9.9-20.4 1.8-1.8.3-2.7 0-3.6-1.5-1.2-2.1-2.1-6.3-2.1-8.7 0-1.5.9-2.1 2.7-1.8zm.9 169.5c7.5 1.2 23.4 1.5 61.8 1.5h63.6v-27.3h-37.5c-30.3 0-42.6.9-49.5 2.1-1.8.3-2.7 0-3.6-1.5-1.2-2.1-2.1-6.3-2.1-8.7 0-1.5.9-2.1 2.7-1.8 7.5 1.2 22.2 1.5 52.5 1.5h37.5v-5.7c0-13.8-.9-17.7-.9-20.4h-50.1c-34.5 0-47.4.9-54.3 2.1-1.8.3-2.7 0-3.6-1.5-1.2-2.1-2.1-6.3-2.1-8.7 0-1.5.9-2.1 2.7-1.8 7.5 1.2 22.8 1.5 57.3 1.5h142.5c6-6.6 12.3-12.9 16.5-16.2 2.4-1.8 5.4-1.8 7.5-.3 4.5 3.3 12 10.5 14.4 13.5 2.1 2.4 2.1 5.4-.3 7.2-3 2.1-7.8 4.2-12.6 4.2h-102.9c6.3 2.7 12.3 6.6 12.3 9.6 0 2.4-2.4 4.5-6.6 6.9v9.6h55.8c5.4-6 10.8-11.4 15.3-14.7 2.4-1.8 5.1-1.8 7.2-.3 3.6 2.7 10.8 9.3 13.2 12.3 1.8 2.1 2.1 5.1-.3 6.9-3 2.4-7.8 4.2-11.7 4.2h-79.5v27.3h86.1c6.3-6.9 13.5-14.1 17.7-17.4 2.7-2.1 5.7-2.1 8.7 0 3.9 2.7 11.7 9.9 15 13.8 2.1 2.4 2.1 5.7 0 7.5-2.7 2.4-8.1 4.5-12.9 4.5h-198c-38.4 0-51.9.9-58.8 2.1-1.8.3-2.7 0-3.6-1.5-1.2-2.1-2.1-6.3-2.1-8.7 0-1.5.9-2.1 2.7-1.8zm171.9-198.9c.9-3.3 1.5-3.9 4.8-3.6 6.9.6 22.5 4.8 22.5 9.3 0 2.7-4.5 5.4-9.6 6.9a54.7 54.7 0 0 1-4.5 8.1h54c3.9-4.5 7.8-8.7 10.8-11.1 2.4-2.1 5.4-2.1 7.8-.3 3.6 2.7 10.5 9.3 12.9 12.3 2.1 2.4 1.5 5.7-.9 7.5-2.1 1.5-4.8 2.7-8.1 3.9-15 44.4-48.3 77.7-120 93l-1.8-5.1c59.7-23.7 88.2-53.1 100.5-91.8h-60.9c-2.4 3-4.8 5.7-7.5 8.4 17.1 1.8 32.4 5.7 36.9 9.6 5.4 4.5 7.5 13.2 5.7 17.4-1.5 3.9-6.3 4.5-10.5.6-8.4-7.8-21.6-16.8-36.3-23.4-6 5.7-12.9 10.8-21 15.6 17.4 3 32.1 8.1 36.3 12.3 5.1 4.8 6.3 14.7 3.9 18.9-1.8 3.3-6.6 4.2-10.5-.3-8.1-9.6-20.1-19.2-36-27.6-6.9 3.6-14.7 6.9-23.1 9.6l-2.1-4.5c33.9-21.6 51-45 56.7-65.7zm156.9 30.6c7.5 1.2 21 1.5 44.1 1.5h14.4v-14.4c0-12.6-.9-16.5-.9-18.9 0-2.1 1.2-3.3 3.3-3.3 6 0 24.9 6.6 24.9 12 0 2.4-2.7 5.4-7.2 9.3v15.3h21.9c5.4-6 10.8-11.4 15.3-14.7 2.4-1.8 5.1-1.8 7.2-.3 3.6 2.7 10.8 9.3 13.2 12.3 1.8 2.1 2.1 5.1-.3 6.9-3 2.4-7.8 4.2-11.7 4.2h-83.7c3.3 2.1 6 4.5 6 6.3 0 2.1-2.4 4.2-6 6.6v22.2c0 10.2 2.1 12.3 27 12.3 39.3 0 39.6-3.3 44.4-3.3 3 0 6.9 4.2 9 8.7 1.8 3.9 2.1 7.2-1.8 8.4-4.8 1.5-18 2.7-54.6 2.7-35.4 0-43.2-5.7-43.2-24.6v-23.7c0-8.1-.3-12.3-.6-15.3-8.4.6-13.8 1.2-17.7 1.8-1.8.3-2.7 0-3.6-1.5-1.2-2.1-2.1-6.3-2.1-8.7 0-1.5.9-2.1 2.7-1.8zm1.2 168.3c7.5 1.2 23.4 1.5 61.8 1.5h63.6v-27.3h-37.5c-30.3 0-42.6.9-49.5 2.1-1.8.3-2.7 0-3.6-1.5-1.2-2.1-2.1-6.3-2.1-8.7 0-1.5.9-2.1 2.7-1.8 7.5 1.2 22.2 1.5 52.5 1.5h37.5v-5.7c0-13.8-.9-17.7-.9-20.4h-51c-34.5 0-47.4.9-54.3 2.1-1.8.3-2.7 0-3.6-1.5-1.2-2.1-2.1-6.3-2.1-8.7 0-1.5.9-2.1 2.7-1.8 7.5 1.2 22.8 1.5 57.3 1.5h145.2c5.4-6 10.8-11.4 15.3-14.7 2.4-1.8 5.1-1.8 7.2-.3 3.6 2.7 10.8 9.3 13.2 12.3 1.8 2.1 2.1 5.1-.3 6.9-3 2.4-7.8 4.2-11.7 4.2h-102.9c6.3 2.7 12.3 6.6 12.3 9.6 0 2.4-2.4 4.5-6.6 6.9v9.6h55.8c5.4-6 10.8-11.4 15.3-14.7 2.4-1.8 5.1-1.8 7.2-.3 3.6 2.7 10.8 9.3 13.2 12.3 1.8 2.1 2.1 5.1-.3 6.9-3 2.4-7.8 4.2-11.7 4.2h-79.5v27.3h86.1c6.3-6.9 13.5-14.1 17.7-17.4 2.7-2.1 5.7-2.1 8.7 0 3.9 2.7 11.7 9.9 15 13.8 2.1 2.4 2.1 5.7 0 7.5-2.7 2.4-8.1 4.5-12.9 4.5h-198c-38.4 0-51.9.9-58.8 2.1-1.8.3-2.7 0-3.6-1.5-1.2-2.1-2.1-6.3-2.1-8.7 0-1.5.9-2.1 2.7-1.8zm144-150.9v-21.6c0-13.5-.9-17.1-.9-19.5 0-2.1.9-3 3-3 4.2 0 16.5 5.4 21 10.2h63c3.3-3.9 6.9-7.8 9.9-10.2 1.8-1.5 4.2-1.5 6.3 0 3.3 2.4 9 7.5 12 10.8 2.1 2.4 1.5 5.4-.6 6.9-1.2.9-2.7 1.8-4.5 2.4v66.9c0 9-21 25.5-28.8 25.5-3 0-4.8-1.5-4.8-5.4 0-6-.6-6.6-24.3-15.9l.9-3.3c13.5 1.5 23.7 2.4 29.7 2.4 5.4 0 8.4-2.4 8.4-10.2v-5.1h-74.7c-5.1 17.7-17.4 33.6-47.4 45.9l-2.7-4.5c32.7-25.5 34.5-42 34.5-72.3zm17.4 22.5h72.9v-19.8h-71.7c0 6.6-.3 13.5-1.2 19.8zm72.9-28.2v-19.8h-67.8c-.9 1.2-2.1 2.7-3.9 4.2v15.6h71.7zM383.86 575.6c0-.1.38-.18.4-.1.3.9.76 1.67 1.97 1.67 1.15 0 2.03-.67 2.03-1.65 0-1.25-1.48-1.86-3.1-1.37-.14.04-.3-.53-.14-.56 1.85-.31 2.64-1.04 2.64-1.84 0-.69-.59-1.05-1.3-1.05-.77 0-1.48.45-1.98 1.22-.13.11-.5-.17-.43-.34a3.28 3.28 0 0 1 2.85-1.66c1.1 0 2 .6 2 1.55 0 .76-.6 1.42-1.49 1.8 1.3.05 2.16.76 2.16 1.93 0 1.5-1.48 2.56-3.48 2.56a3.9 3.9 0 0 1-1.9-.42 7.87 7.87 0 0 1-.23-1.74zm7.16-1.77c0-2.4 1.32-3.95 3.21-3.95 1.86 0 3.16 1.44 3.16 3.85 0 2.43-1.35 4.03-3.26 4.03-1.83 0-3.11-1.51-3.11-3.93zm3.17 3.36c1.24 0 1.89-1.17 1.89-3.45 0-2.26-.65-3.3-1.9-3.3-1.23 0-1.88 1.04-1.88 3.3 0 2.28.65 3.45 1.89 3.45zm4.94-3.36c0-2.4 1.32-3.95 3.22-3.95 1.86 0 3.15 1.44 3.15 3.85 0 2.43-1.35 4.03-3.25 4.03-1.84 0-3.12-1.51-3.12-3.93zm3.17 3.36c1.24 0 1.9-1.17 1.9-3.45 0-2.26-.66-3.3-1.9-3.3-1.23 0-1.89 1.04-1.89 3.3 0 2.28.66 3.45 1.9 3.45zm4.6 2.57c.6 0 .75-.08.75-1.23v-4.62c0-.8-.2-.97-.73-1.04-.07-.01-.09-.07-.09-.18 0-.1.02-.14.09-.15.57-.1 1.1-.28 1.54-.6.07-.03.24.02.24.1v.75a2.84 2.84 0 0 1 2.01-.84c1.49 0 2.7.92 2.7 2.64 0 1.9-1.52 3.2-3.23 3.2-.64 0-1.1-.2-1.48-.46v1.2c0 1.15.1 1.23.93 1.23.1 0 .12.06.12.2s-.02.22-.12.22c-.13 0-.63-.04-1.4-.04-.72 0-1.19.04-1.33.04-.08 0-.1-.08-.1-.22s.02-.2.1-.2zm3.45-2.45c.99 0 1.9-.73 1.9-2.32 0-1.49-.8-2.43-1.91-2.43-.6 0-1.2.31-1.64.79v2.67c.27.79.88 1.3 1.65 1.3zm5.6-6.45c.04-.12.33-.07.33.04v1.22h2.05c.18 0-.03.53-.22.53h-1.83v3.3c0 .82.42 1.11.92 1.11.27 0 .64-.1.93-.24.11-.05.27.21.17.3-.4.35-1.2.67-1.75.67-.73 0-1.3-.56-1.3-1.56v-3.58h-.77c-.1 0-.16-.3-.06-.34a2.6 2.6 0 0 0 1.53-1.45z" style="fill:#fff"/></svg>