<svg xmlns="http://www.w3.org/2000/svg" viewBox="0 0 800 600"><path d="M129.4 309.6c4 .6 12.5.8 32.8.8h43.2c12.2-23.8 21-47.8 25.4-67.2.5-2.1 1.1-2.4 3.7-1.9 4.2.8 14.4 4.5 14.4 7.2 0 1.8-2.7 3.4-5.9 4.5-8.3 20.3-19.2 40.8-32.5 57.4h40c3.7-4 7.4-7.5 10.2-9.8 1.4-1.1 3-1.1 4.6 0 2.7 1.9 6.7 5.6 8.8 8 1.1 1.3 1.1 3 0 4-1.4 1.3-4.3 2.4-6.9 2.4h-105c-20.3 0-27.5.5-31.2 1.1-1 .2-1.4 0-1.9-.8-.6-1.1-1.1-3.5-1.1-4.8-.1-.7.4-1.1 1.4-.9zm6.5-80.3c4 .6 12.3.8 31.2.8h27.7v-12.2c0-7.7-.5-9.8-.5-11.2 0-1.1.6-1.9 1.9-1.9 3.5 0 14.4 3.8 14.4 6.9 0 1.4-1.6 3.4-4.3 5.6v12.8h37.4c3.7-4.2 7.2-7.7 10.1-9.9 1.4-1.1 3-1.1 4.6 0 2.7 1.9 6.7 5.6 8.8 8 1.1 1.3 1.1 3 0 4-1.4 1.3-4.3 2.4-6.9 2.4H167c-18.9 0-25.9.5-29.6 1.1-1 .2-1.4 0-1.9-.8-.6-1.1-1.1-3.5-1.1-4.6.1-.9.6-1.2 1.5-1zm42.9 71c-4.8-18.1-13-37.8-23.4-55l2.4-1.8c15.4 14.1 27.8 33.1 30.2 41.3 2.1 7 1.6 17.1-2.6 19.5-2.1 1.3-5.5.3-6.6-4zm-.5 235.8h-16.8v1.4c0 3-5.4 4.8-8.5 4.8-1.6 0-2.1-.6-2.1-2.1v-39.5c0-8.8-.5-10.7-.5-12 0-1.1.6-1.8 1.8-1.8 2.4 0 9.1 2.7 11.8 5.4h24.3c1.6-3.5 3-7.2 4-10.1h-30.1c-20.3 0-27.5.5-31.2 1.1-1 .2-1.4 0-1.9-.8-.6-1.1-1.1-3.4-1.1-4.6 0-.8.5-1.1 1.4-1 4 .6 12.5.8 32.8.8h90.6c3.2-3.5 6.6-6.9 8.8-8.6 1.3-1 2.9-1 4-.2 2.4 1.8 6.4 5.6 7.7 7.2 1.1 1.3 1.1 2.9-.2 3.8-1.6 1.1-4.2 2.2-6.7 2.2h-64.6c2.4 1.1 4.3 2.4 4.3 3.4 0 1.3-1.9 1.6-4.2 1.9-2.2 1.8-5 3.4-8.2 4.8h43.7c2.1-2.4 4.2-4.6 5.8-5.9 1.3-1.1 2.9-1.1 4.2-.2 1.9 1.4 5.6 5 6.9 6.6 1.1 1.3.8 3-.5 4-.6.5-1.4 1-2.4 1.3v33c0 4.2-5 11-8.2 11-2.1 0-4.3-3-5.4-5.9h-50.6c2.7 1.4 5.1 3 5 4.5-.2 1.3-2.7 1.8-5.4 1.9-1.4 1.4-2.9 2.9-4.3 4.2h44.6c2.1-2.4 4.2-4.6 5.8-5.9 1.3-1.1 2.9-1.1 4.2-.2 1.9 1.4 5.6 5 6.9 6.6 1.1 1.3.8 3-.5 4s-3 1.6-5.1 2.2c-7.4 6.2-15.2 11.4-23.5 15.7 18.2 4.3 38.7 5.4 60 5l.3 1.6c-5 3.4-5.3 4.5-5.3 7.2s-2.1 3.7-7.5 3.4c-21.1-1.1-41.4-4.8-59-12.2-22.1 8.6-47.5 12-75.8 12.6l-.3-2.4c22.2-2.4 45.9-7.2 66.1-14.9-7.8-4-14.9-9-21.1-14.7-12.2 8.2-27 14.7-43 18.6l-.6-2.2c20.5-8.5 39.1-21.5 49.6-35zm62.4-30.5v-8.8h-76.5c-.6.8-1.6 1.8-2.7 2.9v5.9h79.2zm0 13V510h-79.2v8.6h79.2zm-2.2 13.2c1.8 0 2.2-.8 2.2-3v-5.9h-79.2v9h77zm-36 33.8c9-4.2 16.8-9 23-14.6h-48.3c-.5.3-.8.6-1.1.8 7.8 6 16.8 10.4 26.4 13.8zM518.8 13.2c1.8-1 2.4-1 3.5.2 1.9 1.9 7 8.8 5.9 10.7-1 1.6-5.1.3-7.2-.5-5.8 2.1-12.5 3.8-19.7 5.3 3.2 1.6 6.2 3.5 6.2 5.1 0 1.3-1.4 2.4-3.7 3.8v16.5h8.2c3.2-3.5 6.6-6.9 8.8-8.6 1.3-1 2.9-1 4-.2 2.4 1.8 6.4 5.6 7.7 7.2 1.1 1.3 1.1 2.9-.2 3.8-1.6 1.1-4.2 2.2-6.7 2.2h-21.8V69c11 3.2 20.5 7.8 23.2 11 3.2 3.7 3.7 10.9 1 13.3-1.8 1.4-4.5 1.4-6.4-1.3-4-5.9-10.2-13.3-17.8-19.5v52.6c0 3-5.3 4.6-8.3 4.6-1.6 0-2.1-.6-2.1-2.1V80.2c-7.5 15.2-18.2 27-30.7 36.2l-1.8-1.9c14.1-16.6 24.6-36 28.6-55.7h-2.4c-11.7 0-17.6.5-21.3 1.1-1 .2-1.4 0-1.9-.8-.6-1.1-1.1-3.4-1.1-4.6 0-.8.5-1.1 1.4-1 4 .6 11.2.8 22.9.8h6.2V41.5c0-6.4-.2-9.4-.3-11.2-9 1.4-18.6 2.2-28 2.4l-.2-2.6c20.7-4 39.7-9.9 54-16.9zm40.8 20.1c0-13.1-.2-16-.5-19-.2-1.8.5-2.6 2.1-2.6 3.5 0 14.1 4.3 14.1 7 0 1.8-2.4 3.4-4.5 4.6 0 8.6-.2 16.6-.5 24.3 2.1 36.5 20.6 59.7 41.4 72.8l-.3 1.8c-5.8.5-7.2 1.1-9 3.2-2.1 2.4-4.6 2.2-8.8-1.9-8.8-8.8-20.6-24.8-25.3-55.5-4.5 28.8-17 48.8-51.5 61.6l-1.3-2.7c38.6-21.9 44.1-50.7 44.1-93.6zm-27.9 31.4c6.2-5.6 9.1-13.3 10.1-25.4l2.4-.2c1.9 8.8 2.4 16.3 1.6 22.6-.8 5.9-3.2 10.2-7 13-2.7 1.9-6.7 2.2-8.5-.3-2.1-3-1.4-7 1.4-9.7zm61.8-25c.5-2.2 1-2.6 2.6-2.2 2.9.5 12.3 4.2 12.3 6.7 0 1.4-2.2 2.2-5 2.9-5 8.8-12.8 19-22.7 26.2l-1.6-1.4c7.5-11.4 12.3-22.7 14.4-32.2zm-92.2 251.1c.8-1.9 1.3-2.2 3.5-1.8 3.4.8 11.4 4.3 11.4 6.6 0 1.8-2.6 2.9-5.4 3.7-10.9 17.8-28.3 32.6-49.4 39.4l-1.1-2.4c19-12.4 34.3-29.4 41-45.5zm12.4 42.2c-12.5 0-17.6.5-21 1.1-1 .2-1.4 0-1.9-.8-.6-1.1-1-3.2-1-4.6 0-.8.5-1.1 1.4-1 4 .6 10.7.8 25.4.8H565c2.1-2.4 4.2-4.6 5.8-5.9 1.3-1.1 2.9-1.1 4.2-.2 1.9 1.4 5.6 5 6.9 6.6 1.1 1.3.8 3-.5 4-.6.5-1.6 1-2.6 1.4-.2 14.4-.8 27.8-1.8 34.7-.8 5.3-1.8 7-5.1 10.2-6.2 5.9-16.2 11.8-20.8 11.8-2.4 0-3.4-1.3-3.4-4 0-2.9-.3-4.2-1.9-5.6-2.1-1.8-5.4-3.8-10.4-6.6l.6-1.9c9 1.6 15.7 2.4 20.2 2.4s8.5-1.8 9.4-7.8c1.1-7.2 1.8-20.2 1.8-34.7h-43.7c3 1.4 5.8 3.4 5.8 5 0 1.8-2.9 3-5.4 4-7.5 26.1-24.8 42.4-59 50.6l-1-2.4c30.5-13.9 45.2-32.9 49.6-57.1zm42.7-48.3h-26.6c-12 0-17 .3-20.6 1-1 .2-1.4 0-1.9-.8-.6-1.1-1-3.4-1-4.5 0-.8.5-1.1 1.4-1 4 .6 10.1.8 22.1.8h21.4c1.8-2.1 4-4.5 5.6-5.8 1-.8 2.4-.8 3.5 0 1.8 1.3 4.8 4.2 6.4 5.9 1.1 1.3.8 2.9-.3 3.7-1.1.8-2.4 1.3-4 1.8 8.5 19.7 24.6 30.1 50.2 35.8v2.1c-5.4 1.9-6.2 2.6-7.2 5.4-1.1 3.5-4 4.2-10.6 1.3-19.2-8.4-32.2-24.4-38.4-45.7zm92.9 285.6c.4.1 1.1.1 2.8.1h7.3c.3-.4.6-.7.9-.9.1-.1.3-.1.4 0 .2.2.6.5.8.7.1.1.1.3 0 .4-.1.1-.4.2-.6.2h-8.8c-1.7 0-2.4 0-2.7.1-.1 0-.1 0-.2-.1s-.1-.3-.1-.4c0-.1.1-.1.2-.1zm1.2-6.3c.4.1 1.1.1 2.5.1h5.3c.3-.3.6-.7.9-.9.1-.1.3-.1.4 0 .2.2.6.5.8.7.1.1.1.3 0 .3-.1.1-.4.2-.6.2H653c-1.5 0-2 0-2.4.1-.1 0-.1 0-.2-.1s-.1-.3-.1-.4h.2zm12.5 2.4c.3.1 1.1.1 2.9.1h2.8v-4.2c0-.1.1-.2.2-.2.3 0 1.3.3 1.3.6 0 .1-.2.3-.4.5v3.2h3.7c.3-.4.7-.7 1-.9.1-.1.3-.1.4 0 .2.2.6.5.8.7.1.1.1.3 0 .4-.1.1-.4.2-.6.2h-5.3v5.2c0 .3-.6.4-.9.4-.2 0-.2-.1-.2-.2v-5.4h-2.8c-1.8 0-2.4 0-2.7.1-.1 0-.1 0-.2-.1s-.1-.3-.1-.4h.1zm15.1-3.6c.2 0 .9.3 1.1.5h8.2c.2-.2.4-.5.6-.6.1-.1.2-.1.4 0s.5.4.7.6c.1.1.1.3 0 .3-.1.1-.2.1-.3.2v7.2c0 .4-.5 1.2-.8 1.2-.2 0-.4-.4-.5-.8H679v.3c0 .3-.5.4-.8.4-.1 0-.2-.1-.2-.2v-9.1h.1zm1.2 6.8-.1-.3c1.9-1.1 2.3-2.2 2.3-3.7v-2h-2.3c-.1.1-.1.2-.2.2v7.2h8.6c.2 0 .2-.1.2-.3v-7.1H685c.3.1.5.3.5.4 0 .1-.1.2-.3.3v2.8c0 .7.1.9.9.9s.9-.2 1.1-.2c.2 0 .3.2.5.5.1.2.1.3-.1.4-.2.1-.7.1-1.5.1-1.3 0-1.7-.4-1.7-1.6v-3.6h-1.9c.3.1.5.3.5.4 0 .1-.1.2-.3.3v1.3c-.3 1.9-.9 3.1-3.4 4zm15.3-7.4c.3 0 1.2.3 1.2.5 0 .1-.1.3-.4.4v.5h3.6v-1.4c0-.1.1-.2.2-.2.3 0 1.2.3 1.2.5 0 .1-.1.3-.4.4v.5h1.8c.3-.3.6-.7.9-.8.1-.1.3-.1.4 0 .2.2.6.5.8.7.1.1.1.3 0 .3-.1.1-.4.2-.5.2h-3.3v1.3c0 .2-.5.4-.7.4-.1 0-.2-.1-.2-.2v-1.5h-3.6v1.3c0 .2-.5.4-.7.4-.1 0-.2-.1-.2-.2v-1.5h-.8c-1.8 0-2.4 0-2.7.1-.1 0-.1 0-.2-.1s-.1-.3-.1-.4c0-.1 0-.1.1-.1.3 0 1 .1 2.8.1h.8V562c-.1.2-.1.2 0 .2zm-2.7 4.2c.3.1 1 .1 2.5.1h6.6l.5-.5c.1-.1.2-.1.3 0 .2.1.5.4.6.6.1.1.1.3 0 .3-.1.1-.2.1-.3.2 0 1.1-.1 2-.2 2.5s-.1.6-.4.9c-.5.5-1.5 1-1.9 1-.2 0-.3-.1-.3-.3 0-.3 0-.4-.2-.5-.2-.2-.4-.3-.8-.5l.1-.2c.7.1 1.3.2 1.6.2.4 0 .8-.2.9-.7.1-.5.2-1.4.2-2.5h-4.4c.2.1.4.3.4.4s-.1.2-.3.3v4.6c0 .3-.5.4-.8.4-.1 0-.2-.1-.2-.2V567h-1.5c-1.5 0-2.1 0-2.4.1-.1 0-.1 0-.2-.1s-.1-.3-.1-.4c.2-.2.2-.3.3-.2zm16.2-4.2c0-.1.1-.2.3-.2.3 0 1.2.4 1.2.6 0 .2-.3.3-.6.3-.1.2-.2.4-.4.6h6.6c.3-.3.6-.7.9-.9.1-.1.3-.1.4 0 .2.2.6.5.8.7.1.1.1.3 0 .3-.1.1-.4.2-.6.2h-8.4c-.8 1-1.8 1.8-3.3 2.4l-.1-.2c1.6-.9 2.7-2.4 3.2-3.8zm-1.8 4.8c.3.1 1 .1 2.4.1h5.5c.2-.2.4-.5.6-.6.1-.1.2-.1.4 0s.5.4.7.6c.1.1.1.3 0 .3-.1.1-.2.1-.3.2 0 1.4.1 2.9 1 3.5l.8-2.3.2.1c-.1.9-.2 1.8-.3 2.2 0 .3 0 .5.3.6.2.1.2.2.2.3 0 .2-.3.4-.6.4-.8 0-1.8-.6-2.2-1.8-.3-.9-.4-2-.4-3.2h-5.8c-1.4 0-2 0-2.3.1-.1 0-.1 0-.2-.1s-.1-.3-.1-.4h.1zm1.5-1.7c.3.1 1 .1 2.3.1h4.3c.3-.3.6-.7.8-.8.1-.1.3-.1.4 0 .2.1.5.5.7.6.1.1.1.3 0 .4-.1.1-.4.2-.6.2h-5.6c-1.3 0-1.9 0-2.2.1-.1 0-.1 0-.2-.1s-.1-.3-.1-.4c0-.1.1-.1.2-.1zm-53.6 14.1h-1.3c-.1 0-.1-.5 0-.5.8 0 1.8-.4 2.4-1 .1-.1.3 0 .3.1v5.6c0 1.3.3 1.6 1.5 1.6.1 0 .1.1.1.2 0 .2 0 .3-.1.3h-4.2c-.1 0-.1-.1-.1-.3 0-.1 0-.2.1-.2 1.3 0 1.5-.3 1.5-1.6v-4c.1-.2 0-.2-.2-.2zm4.4 3.5c0-2.5 2-4.7 4.9-5 .1 0 .3.5.1.5-2.3.5-3.6 1.8-3.9 3.6.5-.7 1.4-1.2 2.4-1.2 1.2 0 2.4.7 2.4 2.2 0 1.7-1.5 2.8-3.1 2.8-1.5 0-2.8-.9-2.8-2.9zm3 2.3c1 0 1.8-.7 1.8-1.8s-.8-1.7-1.7-1.7c-.7 0-1.5.4-2 1.3.1 1.4.8 2.2 1.9 2.2zm4.4-3.3c0-2.4 1.3-4 3.2-4 1.9 0 3.2 1.4 3.2 3.9 0 2.4-1.4 4-3.3 4-1.8 0-3.1-1.5-3.1-3.9zm3.2 3.4c1.2 0 1.9-1.2 1.9-3.4 0-2.3-.7-3.3-1.9-3.3s-1.9 1-1.9 3.3c0 2.2.7 3.4 1.9 3.4zm4.7 2.5c.6 0 .8-.1.8-1.2V582c0-.8-.2-1-.7-1-.1 0-.1-.1-.1-.2s0-.1.1-.2c.6-.1 1.1-.3 1.6-.6.1 0 .2 0 .2.1v.7c.6-.5 1.2-.8 2-.8 1.5 0 2.7.9 2.7 2.6 0 1.9-1.5 3.2-3.2 3.2-.6 0-1.1-.2-1.5-.5v1.2c0 1.1.1 1.2.9 1.2.1 0 .1.1.1.2s0 .2-.1.2H674c-.1 0-.1-.1-.1-.2-.1 0-.1-.1 0-.1zm3.4-2.4c1 0 1.9-.7 1.9-2.3 0-1.5-.8-2.4-1.9-2.4-.6 0-1.2.3-1.7.8v2.7c.4.7 1 1.2 1.7 1.2zm5.7-6.5c0-.1.3-.1.3 0v1.2h2.1c.2 0 0 .5-.2.5h-1.8v3.3c0 .8.4 1.1.9 1.1.3 0 .6-.1.9-.2.1-.1.3.2.2.3-.4.3-1.2.7-1.8.7-.7 0-1.3-.6-1.3-1.6v-3.6h-.8c-.1 0-.2-.3-.1-.3.8-.2 1.3-.7 1.6-1.4zm3 8.4 3-9.5h.7l-3 9.5h-.7zm4.6-4.1 4.8-5.2c.1-.1.5 0 .5.2v4.7h1.6c.2 0 0 .8-.1.8h-1.5v.1c0 1.3.2 1.5 1.2 1.5.1 0 .1.1.1.2 0 .2 0 .3-.1.3h-3.4c-.1 0-.1-.1-.1-.3 0-.1 0-.2.1-.2 1.1 0 1.2-.2 1.2-1.5v-.1h-4.2c-.1-.1-.2-.4-.1-.5zm4.3-.4v-3.4l-3.2 3.4h3.2zm3.8-.9c0-2.4 1.3-4 3.2-4 1.9 0 3.2 1.4 3.2 3.9 0 2.4-1.4 4-3.3 4-1.8 0-3.1-1.5-3.1-3.9zm3.2 3.4c1.2 0 1.9-1.2 1.9-3.4 0-2.3-.7-3.3-1.9-3.3s-1.9 1-1.9 3.3c0 2.2.7 3.4 1.9 3.4zm4.7 2.5c.6 0 .8-.1.8-1.2V582c0-.8-.2-1-.7-1-.1 0-.1-.1-.1-.2s0-.1.1-.2c.6-.1 1.1-.3 1.6-.6.1 0 .2 0 .2.1v.7c.6-.5 1.2-.8 2-.8 1.5 0 2.7.9 2.7 2.6 0 1.9-1.5 3.2-3.2 3.2-.6 0-1.1-.2-1.5-.5v1.2c0 1.1.1 1.2.9 1.2.1 0 .1.1.1.2s0 .2-.1.2h-2.7c-.1 0-.1-.1-.1-.2-.1 0-.1-.1 0-.1zm3.4-2.4c1 0 1.9-.7 1.9-2.3 0-1.5-.8-2.4-1.9-2.4-.6 0-1.2.3-1.7.8v2.7c.3.7 1 1.2 1.7 1.2zm5.7-6.5c0-.1.3-.1.3 0v1.2h2.1c.2 0 0 .5-.2.5H716v3.3c0 .8.4 1.1.9 1.1.3 0 .6-.1.9-.2.1-.1.3.2.2.3-.4.3-1.2.7-1.8.7-.7 0-1.3-.6-1.3-1.6v-3.6h-.8c-.1 0-.2-.3-.1-.3.8-.2 1.4-.7 1.7-1.4zM82.2 404.5c1.9 0 2.7-.1 3.2-3.6l1.7-12.7c.3-2.5-.2-2.8-1.9-2.8-.3 0-.3-.2-.3-.7 0-.5.1-.6.3-.6s1.7.1 3 .1 1.8-.1 2.1-.1c.6 0 .3.7.8 1.9l7.1 16.1 7.1-16.2c.5-1.1-.1-1.7.8-1.7.4 0 .9.1 2.3.1 1.7 0 2.8-.1 3-.1.2 0 .3.2.3.6 0 .5 0 .7-.4.7-1.6 0-2.1.2-1.8 2.8l1.5 13.3c.3 2.7 1.2 3 3 3 .2 0 .3.2.3.7 0 .5-.1.7-.3.7-.3 0-1.2-.1-3.4-.1-3.1 0-4.7.1-5.1.1-.2 0-.3-.2-.3-.7 0-.5.1-.7.3-.7 2.4 0 2.7-.2 2.3-3.2l-1.5-13.5-8.2 18.2c-.1.2-.3.3-.8.3s-.6-.1-.8-.3L88.9 388l-1.7 13.1c-.4 3.1-.2 3.3 2.7 3.3.3 0 .3.1.3.6s-.1.7-.3.7c-.3 0-1.8-.1-4.3-.1-2.1 0-3 .1-3.4.1-.2 0-.3-.2-.3-.7 0-.4 0-.5.3-.5zm35.3-1.9c0-3.4 5-4.5 10.8-5.4v-1.1c0-2.5-.8-3.9-3.1-3.9-1.6 0-4.2.6-4.2 1.9 0 .5.5.6.5 1.1 0 .8-1.4 1.1-2.4 1.1s-1.2-.3-1.2-1c0-2.7 5.3-4.6 8.8-4.6 3.3 0 4.5 1.7 4.5 4.3 0 1.7-.1 2.9-.1 7.8 0 1.3.4 1.6.9 1.6.4 0 1-.2 1.4-.3.2-.1.6.5.3.8-.7.6-2.5 1.4-3.5 1.4s-1.9-.8-1.9-2.3c-1.6 1.6-3.9 2.3-5.9 2.3-2.8-.1-4.9-1.5-4.9-3.7zm6.4 1.8c1.5 0 3.1-.7 4.3-2.2v-3.8c-4.7.8-7.7 1.5-7.7 3.5 0 1.5 1.7 2.5 3.4 2.5zm14.4 5.1c.4 0 .6.4 1.3.4.9 0 2.5-.3 4.2-3.8l.3-.7-5.9-10.4c-1.4-2.5-1.8-2.8-3.1-2.8-.2 0-.3-.2-.3-.6 0-.4.1-.5.3-.5.4 0 1.7.1 3.8.1 2 0 3.3-.1 3.5-.1s.4.2.4.5c0 .5-.1.6-.4.6-2.2 0-2.5.4-1 3l4.1 7.1 3.3-7.1c1.3-2.8.9-3-1.3-3-.2 0-.3-.2-.3-.6 0-.4.1-.5.3-.5.3 0 1.6.1 3 .1 1.5 0 2.7-.1 3-.1.3 0 .3.2.3.5 0 .5-.1.6-.3.6-1.3 0-1.7.2-3 3l-5.9 12.3c-2.2 4.6-5.4 5.5-7.3 5.5-.6 0-.8-.3-.8-.8.4-1.1 1.2-2.7 1.8-2.7zm32.5-16c1.7-.9 3.5-1.2 5-1.2 4.1 0 6.6 2.4 6.6 5.8 0 4.5-3.8 7.9-8.9 7.9-1.7 0-4.1-.4-5.4-1.2-.3-.2-.6-3.8-.6-4.4 0-.3 1-.4 1-.2 1 2.4 2.5 4.1 5.5 4.1s5.2-1.7 5.2-5.2c0-2.4-1.3-4.6-4.9-4.6-1.3 0-3.1.3-4.9 1.2-.2.1-.6-.2-.6-.4v-10.9c0-.3.1-.4.4-.4h12c.5 0 0 2.6-.5 2.6h-9.9v6.9zm19.3-5.8c.1-.3.9-.2.9.1v3.3h5.6c.5 0-.1 1.4-.6 1.4h-5v8.6c0 2.2 1.1 3 2.5 3 .7 0 1.7-.3 2.5-.6.3-.2.7.6.5.8-1.1 1-3.3 1.8-4.8 1.8-2 0-3.6-1.5-3.6-4.2v-9.3H186c-.3 0-.4-.8-.2-.9 2.1-.7 3.6-2.2 4.3-4zm8.9 17c1.8 0 2.1-.3 2.1-3.4V387c0-2.2-.6-2.5-2-2.8-.2 0-.3-.2-.3-.5s0-.4.3-.4c1.5-.3 3-.8 4.2-1.6.2-.1.6 0 .6.3v11.1c2.4-1.5 4.7-2.4 6.9-2.4 3 0 4.9 1.7 4.9 4.8 0 1.7-.1 2.8-.1 5.8 0 3.1.3 3.4 2 3.4.2 0 .3.2.3.5 0 .5-.1.6-.3.6-.3 0-1.5-.1-3.5-.1-2.1 0-3.3.1-3.6.1-.2 0-.3-.2-.3-.6 0-.3.1-.5.3-.5 1.8 0 2.2-.3 2.2-3.4v-4.6c0-2.5-.9-4-3.5-4-1.7 0-3.7.6-5.3 1.7v6.9c0 3.1.4 3.4 2.2 3.4.2 0 .3.2.3.5 0 .5-.1.6-.3.6-.3 0-1.6-.1-3.6-.1s-3.2.1-3.5.1c-.3 0-.3-.2-.3-.6-.1-.4 0-.5.3-.5zm24.3 2.7c0-1.6-1.9-.8-1.9-2.8 0-1.2 1.1-2 2.2-2 1.4 0 2.4 1.1 2.4 2.5 0 2.2-1.9 4.9-3.7 6.4l-.7-.7c1.1-1.2 1.7-2.6 1.7-3.4zm18.8-3.2c2.6-4.6 11.2-9.2 11.2-14.3 0-2.4-1.7-4.1-4.1-4.1-2.5 0-4.7 1.5-6.2 4.1-.3.4-1.6-.3-1.3-.8 1.4-3.2 4.9-5.6 8.8-5.6 3.2 0 6.1 1.7 6.1 5.5 0 6.3-8.4 9.9-11.7 14.1h6.1c3.9 0 4.6-.8 5.9-3.8.1-.3 1.2 0 1.2.3-.2 1.7-.6 3.7-1 5.4-.1.5-.4.6-1 .6h-13.5c-.3.1-.6-1.1-.5-1.4zm20.4-9.4c0-7 3.6-11.2 8.8-11.2 5.1 0 8.6 4 8.6 11 0 7.1-3.7 11.5-8.9 11.5-5 0-8.5-4.2-8.5-11.3zm8.6 9.7c3.4 0 5.2-3.2 5.2-9.9 0-6.6-1.8-9.5-5.2-9.5-3.4 0-5.2 2.9-5.2 9.5.1 6.7 1.9 9.9 5.2 9.9zm13.3-.3c2.6-4.6 11.2-9.2 11.2-14.3 0-2.4-1.7-4.1-4.1-4.1-2.5 0-4.7 1.5-6.2 4.1-.3.4-1.6-.3-1.3-.8 1.4-3.2 4.9-5.6 8.8-5.6 3.2 0 6.1 1.7 6.1 5.5 0 6.3-8.4 9.9-11.7 14.1h6.1c3.9 0 4.6-.8 5.9-3.8.1-.3 1.2 0 1.2.3-.2 1.7-.6 3.7-1 5.4-.1.5-.4.6-1 .6h-13.5c-.3.1-.7-1.1-.5-1.4zm20 0c2.6-4.6 11.2-9.2 11.2-14.3 0-2.4-1.7-4.1-4.1-4.1-2.5 0-4.7 1.5-6.2 4.1-.3.4-1.6-.3-1.3-.8 1.4-3.2 4.9-5.6 8.8-5.6 3.2 0 6.1 1.7 6.1 5.5 0 6.3-8.4 9.9-11.7 14.1h6.1c3.9 0 4.6-.8 5.9-3.8.1-.3 1.2 0 1.2.3-.2 1.7-.6 3.7-1 5.4-.1.5-.4.6-1 .6h-13.5c-.3.1-.7-1.1-.5-1.4zm60.3-212.9c3.1 0 5.2 1 6 1 .6 0 .9-.2 1.2-.2.3 0 .4.1.4.5.2 1.2.3 3.8.3 5.1 0 .3-.9.5-1 .2-1.6-3.9-4.1-5.2-7.1-5.2-3.4 0-4.6 1.7-4.6 3.5 0 5.6 13.4 3.6 13.4 11.4 0 4-3.4 6.3-8.7 6.3-3.3 0-6.7-.9-7.6-1.9-.4-.4-.7-3.8-.7-5.3 0-.4.9-.5 1.1-.2 1.3 3.6 3.3 5.9 7.6 5.9 3.5 0 5.4-1.7 5.4-3.9 0-5.9-13.3-4.3-13.3-11.5-.2-3.5 2.9-5.7 7.6-5.7zm20.3 7.1c4.4 0 6.5 2.9 6.5 5.8 0 .6-.2.9-3.5.9h-8.4v.6c0 4.1 2.4 6.3 6.1 6.3 2.1 0 3.9-.7 5.4-1.9.2-.2.8.4.6.7-1 1.4-3.7 3.1-7.3 3.1-4.7 0-7.9-2.7-7.9-7.3 0-5.1 4-8.2 8.5-8.2zm3.2 4.8c0-1.9-1.4-3.4-3.6-3.4-2 0-4.2 1.1-4.8 4.2h7c1.2 0 1.4-.1 1.4-.8zm6.3 16.1c1.6 0 2.1-.2 2.1-3.3v-12.2c0-2.2-.6-2.6-2-2.8-.2 0-.2-.2-.2-.5s0-.4.2-.4c1.6-.3 3-.8 4.2-1.6.2-.1.6 0 .6.3v2c1.5-1.4 3.3-2.3 5.5-2.3 4.1 0 7.4 2.5 7.4 6.8 0 5.1-4.1 8.7-8.8 8.7-1.7 0-3-.5-4.1-1.3v3.3c0 3.1.3 3.3 2.5 3.3.3 0 .3.2.3.5 0 .4-.1.6-.3.6-.3 0-1.7-.1-3.8-.1-2 0-3.3.1-3.6.1-.2 0-.3-.2-.3-.6 0-.4.1-.5.3-.5zm9.4-6.7c2.7 0 5.2-2 5.2-6.3 0-3.6-2.2-6.2-5.2-6.2-1.6 0-3.3.8-4.5 2.1v6.9c.8 2.2 2.4 3.5 4.5 3.5zm15.6-17.1c.1-.3.9-.2.9.1v3.3h5.6c.5 0-.1 1.4-.6 1.4h-5v8.6c0 2.2 1.1 3 2.5 3 .7 0 1.7-.3 2.5-.6.3-.2.7.6.5.8-1.1 1-3.3 1.8-4.8 1.8-2 0-3.6-1.5-3.6-4.2v-9.3h-2.1c-.3 0-.4-.8-.2-.9 2.1-.8 3.7-2.2 4.3-4zm17.4 2.9c4.4 0 6.5 2.9 6.5 5.8 0 .6-.2.9-3.5.9h-8.4v.6c0 4.1 2.4 6.3 6.1 6.3 2.1 0 3.9-.7 5.4-1.9.2-.2.8.4.6.7-1 1.4-3.7 3.1-7.3 3.1-4.7 0-7.9-2.7-7.9-7.3-.1-5.1 4-8.2 8.5-8.2zm3.2 4.8c0-1.9-1.4-3.4-3.6-3.4-2 0-4.2 1.1-4.8 4.2h7c1.1 0 1.4-.1 1.4-.8zm6.4 9.2c1.8 0 2.1-.3 2.1-3.4v-5.3c0-2.2-.6-2.5-2-2.8-.2 0-.3-.2-.3-.5s0-.4.3-.4c1.5-.3 3-.8 4.2-1.6.2-.1.6 0 .6.3v2c2.3-1.4 4.6-2.2 6.6-2.2 2.2 0 3.8 1.1 4.3 2.5 2.5-1.7 5-2.5 7-2.5 3.1 0 5 1.7 5 4.8 0 1.7-.1 3.1-.1 5.8 0 3.1.3 3.4 2 3.4.3 0 .3.2.3.5 0 .5-.1.6-.3.6s-1.5-.1-3.5-.1c-2.1 0-3.3.1-3.6.1-.2 0-.3-.2-.3-.6 0-.3.1-.5.3-.5 1.7 0 2.2-.3 2.2-3.4v-4.6c0-2.5-.9-4-3.5-4-1.6 0-3.5.6-5.2 1.6v7c0 3.1.4 3.4 2 3.4.3 0 .3.2.3.5 0 .5-.1.6-.3.6-.3 0-1.5-.1-3.5-.1-2.1 0-3.1.1-3.4.1-.2 0-.3-.2-.3-.6 0-.3.1-.5.3-.5 1.6 0 2-.3 2-3.4v-4.7c0-2.4-1-3.9-3.5-3.9-1.5 0-3.4.6-5 1.5v7.1c0 3.1.5 3.4 2.2 3.4.2 0 .3.2.3.5 0 .4-.1.6-.3.6-.3 0-1.6-.1-3.6-.1h-3.5c-.2 0-.3-.2-.3-.6.2-.3.2-.5.5-.5zm32.3-21.3c1.5-.3 3-.8 4.2-1.6.2-.1.6 0 .6.3v10.9c1.5-1.4 3.3-2.2 5.5-2.2 4 0 7.1 2.5 7.1 7 0 5.1-4 8.4-8.5 8.4-1.9 0-3.2-.6-4.3-1.3l-2.1 1.3c-.3.2-.8-.1-.7-.3.2-1.1.2-2.2.2-4.8v-13.9c0-2.2-.6-2.5-2-2.8-.2 0-.3-.2-.3-.5 0-.4.1-.5.3-.5zm9.4 21.5c2.6 0 5-1.9 5-6.1 0-4-2.2-6.4-5.1-6.4-1.7 0-3.2.8-4.4 2.1v7.4c.8 1.9 2.5 3 4.5 3zm19.9-14.2c4.4 0 6.5 2.9 6.5 5.8 0 .6-.2.9-3.5.9h-8.4v.6c0 4.1 2.4 6.3 6.1 6.3 2.1 0 3.9-.7 5.4-1.9.2-.2.8.4.6.7-1 1.4-3.7 3.1-7.3 3.1-4.7 0-7.9-2.7-7.9-7.3 0-5.1 4.1-8.2 8.5-8.2zm3.2 4.8c0-1.9-1.4-3.4-3.6-3.4-2 0-4.2 1.1-4.8 4.2h7c1.2 0 1.4-.1 1.4-.8zm6.7 9.3c1.7 0 2.1-.3 2.1-3.4v-5.3c0-2.2-.6-2.5-2-2.8-.2 0-.3-.2-.3-.5s0-.4.3-.4c1.5-.3 3-.8 4.1-1.6.2-.1.6 0 .6.3v2.8c1.1-1.9 2.8-3.1 4.2-3.1 1.1 0 2.4.7 2.4 1.6 0 .9-1 2.2-1.9 2.2s-.9-1.6-1.9-1.6c-.8 0-1.9 1.1-2.7 3.1v5.4c0 3.1.5 3.4 2.4 3.4.2 0 .3.2.3.5 0 .5-.1.6-.3.6-.3 0-1.7-.1-3.8-.1-2 0-3.2.1-3.5.1-.2 0-.3-.2-.3-.6-.1-.5 0-.6.3-.6zm25.1-.5c2.6-4.6 11.2-9.2 11.2-14.3 0-2.4-1.7-4.1-4.1-4.1-2.5 0-4.7 1.5-6.2 4.1-.3.4-1.6-.3-1.3-.8 1.4-3.2 4.9-5.6 8.8-5.6 3.2 0 6.1 1.7 6.1 5.5 0 6.3-8.4 9.9-11.7 14.1h6.1c3.9 0 4.6-.8 5.9-3.8.1-.3 1.2 0 1.2.3-.2 1.7-.6 3.7-1 5.4-.1.5-.4.6-1 .6h-13.5c-.3.1-.7-1.2-.5-1.4zm20.6-4c0-.3 1-.5 1.1-.3.8 2.4 2.1 4.5 5.4 4.5 3.2 0 5.5-2 5.5-4.9 0-3.8-4-5.5-8.5-4.2-.4.1-.8-1.4-.4-1.5 5.1-.8 7.2-3 7.2-5.4 0-1.9-1.6-2.8-3.5-2.8-2.1 0-4.1 1.2-5.4 3.3-.3.3-1.4-.5-1.2-.9 1.3-2.5 4.3-4.5 7.8-4.5 3 0 5.5 1.6 5.5 4.2 0 2.2-1.7 4.2-4.2 5.3 3.6 0 6 2.1 6 5.6 0 4.3-4 7.3-9.5 7.3-2 0-4-.4-5.2-1.1-.3-.1-.6-4-.6-4.6zm19 4.5c1.7 0 2.1-.3 2.1-3.4v-5.3c0-2.2-.6-2.5-2-2.8-.2 0-.3-.2-.3-.5s0-.4.3-.4c1.5-.3 3-.8 4.1-1.6.2-.1.6 0 .6.3v2.8c1.1-1.9 2.8-3.1 4.2-3.1 1.1 0 2.4.7 2.4 1.6 0 .9-1 2.2-1.9 2.2s-.9-1.6-1.9-1.6c-.8 0-1.9 1.1-2.7 3.1v5.4c0 3.1.5 3.4 2.4 3.4.2 0 .3.2.3.5 0 .5-.1.6-.3.6-.3 0-1.7-.1-3.8-.1-2 0-3.2.1-3.5.1-.2 0-.3-.2-.3-.6 0-.5.1-.6.3-.6zm31.2-.7c.2 0 .3.1.3.5 0 .3 0 .5-.3.5l-4.4 1c-.4.1-.7-.1-.7-.5v-1.9c-1.4 1.6-3.1 2.3-5.3 2.3-4.4 0-7.4-2.7-7.4-7 0-5.2 4-8.5 8.6-8.5 1.7 0 3.1.5 4.1 1.1v-4.7c0-2.2-.6-2.5-2-2.8-.2 0-.3-.2-.3-.5s0-.4.3-.4c1.5-.3 3-.8 4.2-1.6.2-.1.6 0 .6.3v19.8c0 2.5.6 2.7 2.3 2.4zm-9.4.4c1.8 0 3.3-.9 4.3-2.4v-7.3c-1-1.7-2.7-2.7-4.6-2.7-2.6 0-5 1.9-5 6.2 0 3.9 2.3 6.2 5.3 6.2zm15.1 2.9c0-1.6-1.9-.8-1.9-2.8 0-1.2 1.1-2 2.2-2 1.4 0 2.4 1.1 2.4 2.5 0 2.2-1.9 4.9-3.7 6.4l-.7-.7c1.1-1.2 1.7-2.6 1.7-3.4zm18.9-3.1c2.6-4.6 11.2-9.2 11.2-14.3 0-2.4-1.7-4.1-4.1-4.1-2.5 0-4.7 1.5-6.2 4.1-.3.4-1.6-.3-1.3-.8 1.4-3.2 4.9-5.6 8.8-5.6 3.2 0 6.1 1.7 6.1 5.5 0 6.3-8.4 9.9-11.7 14.1h6.1c3.9 0 4.6-.8 5.9-3.8.1-.3 1.2 0 1.2.3-.2 1.7-.6 3.7-1 5.4-.1.5-.4.6-1 .6H639c-.3.1-.7-1.2-.5-1.4zm20.3-9.4c0-7 3.6-11.2 8.8-11.2 5.1 0 8.6 4 8.6 11 0 7.1-3.7 11.5-8.9 11.5-5-.1-8.5-4.2-8.5-11.3zm8.7 9.7c3.4 0 5.2-3.2 5.2-9.9 0-6.6-1.8-9.5-5.2-9.5-3.4 0-5.2 2.9-5.2 9.5s1.8 9.9 5.2 9.9zm13.2-.3c2.6-4.6 11.2-9.2 11.2-14.3 0-2.4-1.7-4.1-4.1-4.1-2.5 0-4.7 1.5-6.2 4.1-.3.4-1.6-.3-1.3-.8 1.4-3.2 4.9-5.6 8.8-5.6 3.2 0 6.1 1.7 6.1 5.5 0 6.3-8.4 9.9-11.7 14.1h6.1c3.9 0 4.6-.8 5.9-3.8.1-.3 1.2 0 1.2.3-.2 1.7-.6 3.7-1 5.4-.1.5-.4.6-1 .6h-13.5c-.3.1-.6-1.2-.5-1.4zm20 0c2.6-4.6 11.2-9.2 11.2-14.3 0-2.4-1.7-4.1-4.1-4.1-2.5 0-4.7 1.5-6.2 4.1-.3.4-1.6-.3-1.3-.8 1.4-3.2 4.9-5.6 8.8-5.6 3.2 0 6.1 1.7 6.1 5.5 0 6.3-8.4 9.9-11.7 14.1h6.1c3.9 0 4.6-.8 5.9-3.8.1-.3 1.2 0 1.2.3-.2 1.7-.6 3.7-1 5.4-.1.5-.4.6-1 .6h-13.5c-.3.1-.6-1.2-.5-1.4z" style="fill:#fff"/></svg>