<svg xmlns="http://www.w3.org/2000/svg" viewBox="0 0 800 600"><path d="M377.4 108h-22.9c-24.2 0-32.8.6-37.2 1.3-1.1.2-1.7 0-2.3-1-.8-1.3-1.3-4-1.3-5.6 0-1 .6-1.3 1.7-1.2 4.8.8 14.9 1 39.1 1h39.8c0-8.6-.6-10.6-.6-12.3 0-1.3.6-1.9 2.1-1.9 3.6 0 14.9 4 14.9 7.1 0 1.5-1.5 3.3-4.2 5.6v1.5h56.2c3.8-4.2 7.8-8.3 10.5-10.4 1.5-1.2 3.4-1.2 4.8-.2 2.9 2.1 7.6 6.7 9.1 8.6 1.3 1.5 1.3 3.5-.2 4.6-1.9 1.3-5 2.7-8 2.7h-62.7c21.7 14.8 47.1 23.8 73.4 27.5v2.5c-7.1 2.7-8.2 3.3-9 6.7-.8 3.8-3.6 4-9.7 2.5-18.5-4.6-44.2-20.4-63.1-39.2h-1.3v41.3c0 3.1-6.3 5-9.9 5-1.7 0-2.3-.8-2.3-2.5v-41.7c-22.9 20-48.6 32.4-82.1 40.3l-1.1-3.6c25.9-9.6 51-24.2 66.3-38.6zm-60.6-70.3c5.1 1.5 9.9 3.6 13.9 5.8 5-9.8 8.8-20 10.5-28.8.4-1.5 1.1-2.1 2.9-1.7 3.8.8 13.2 4.4 13.2 7.3 0 1.7-3.4 2.9-5.9 3.6-4.4 7.3-10.1 14.6-16.8 21.7 2.7 1.9 4.6 3.6 5.5 5 1.9 2.9 2.3 7.1 1.7 10.6 6.3-9.2 11.8-18.4 15.4-26.5.8-1.7 1.5-2.1 2.9-1.5 2.9 1.2 11.1 5.6 11.1 8.3 0 1.7-2.7 2.3-5.3 2.7-3.8 5.2-8 10.6-12.4 15.6 9.1 5.2 16.4 11.9 17.9 15.4 2.1 4.8 1 11.5-2.5 13.8-1.7 1.2-4.6.6-5.5-2.3l-1.1-3.6c-11.1 2.9-24.8 5.8-35.6 7.7-1.1 2.5-2.5 4.2-3.8 4.2-2.7 0-5.3-9.8-5.3-12.3 0-1.2.4-1.5 1.9-1.5h7.1c4-4.6 7.8-9.4 11.4-14.2-1.1 0-2.3-.8-3.2-2.7-4-8.6-11.2-18.4-18.9-24.4l.9-2.2zm44 41.9c-2.5-6.3-5.5-12.5-9.5-17.7-6.1 6.7-12.8 13.1-19.8 18.8 9.7-.2 19.9-.5 29.3-1.1zM377 26.4c2.5 0 9 2.9 12 5.6h3.4c2.1-6.5 3.2-13.6 3.2-19.4 0-1.5.6-1.9 2.1-1.9 3.2 0 14.5 2.5 14.5 5 0 1.7-2.5 2.9-4.8 3.6-1.9 4.2-5.9 8.8-10.5 12.7h15.6c1.7-2.1 4-4.6 5.5-5.8 1-.8 2.3-1 3.6 0 1.9 1.3 4.8 4 6.7 6.1 1.3 1.5 1 3.3-.4 4.2-.6.4-1.3.8-2.1 1.2V40c4.6 1.5 8.8 3.3 12.4 5 5.7-10.4 10.1-21.3 12-30.1.4-1.7 1.1-2.3 2.9-1.9 3.6.8 13.2 4.2 13.2 7.3 0 1.7-3.6 3.3-5.9 3.8-5 8.1-11.1 15.7-18.3 23 3 1.7 5.5 3.6 6.7 5.2 1.9 2.5 2.5 6.5 1.9 9.8 6.3-8.6 11.8-17.7 15.4-25.9.8-1.7 1.7-1.9 3.2-1.3 3 1.2 12 6.5 11.4 9.2-.4 1.7-2.9 2.5-5.9 2.9-3.6 4.8-7.8 9.8-12.4 14.4 9.5 4.2 17.3 10.4 18.9 13.4 2.3 4.6 1.7 11.5-1.3 13.8-1.9 1.5-4.4 1-5.5-1.7l-1.7-4c-11.1 2.9-24.2 5.6-34.7 7.3-1.1 2.5-2.5 4.2-3.8 4.2-2.7 0-5.3-9.8-5.3-12.3 0-1.2.4-1.5 1.9-1.5h4.4c3.8-4.2 7.8-8.6 11.6-13.4-1.3 0-2.7-.8-3.6-2.7-4-8.1-10.1-15.6-17.3-21.3v34.2c0 4.8-4.6 12.7-7.6 12.7-2.3 0-5.1-3.5-6.7-6.5h-24.6v1c0 3.3-5.7 5.4-9.1 5.4-1.7 0-2.3-.6-2.3-2.3V41c0-9-.6-11.3-.6-12.7 0-1.3.6-1.9 1.9-1.9zm37.3 28.2V37.3h-25l-2.3 2.5v14.8h27.3zM411.1 78c.4-.2.6-.2 1-.2 1.7 0 2.3-.8 2.3-3.3V59.8h-27.3V78h24zm60 1.4c-2.9-5.8-6.7-11.3-11.1-15.7-6.1 6.3-13 12.1-19.2 16.9 9.8-.3 20.6-.6 30.3-1.2zM240.9 346c.2-.7.3-.7.8-.7 1.2.1 4.1 1.2 4.1 2 0 .5-.9 1-1.8 1.2-.8 1.9-1.8 3.7-3 5.5h8.4c1-1.1 2-2.1 2.6-2.6.4-.3.9-.3 1.2 0 .7.5 1.9 1.7 2.3 2.2.3.4.3.9 0 1.2-.5.3-1.2.7-2 .7h-9.7c.9.5 1.7 1.1 1.7 1.5 0 .4-.4.7-1.1 1.2v21.3c0 1-1.7 1.5-2.6 1.5-.5 0-.6-.2-.6-.7v-21.1c0-2.4-.1-3.2-.1-3.6h-.9c-2.2 3.1-5 5.9-8.1 8l-.5-.6c4.7-5.5 7.7-11.3 9.3-17zm20.1-.2c.2-.6.3-.7.9-.6 1.2.2 4.1 1.2 4.1 2 0 .5-.9 1-1.7 1.2-.9 1.9-1.9 3.8-3.2 5.7h9.6c1-1.1 2-2.1 2.6-2.6.4-.3.9-.3 1.2 0 .7.5 1.9 1.7 2.3 2.2.3.4.3.9 0 1.2-.5.3-1.2.7-2 .7h-6c1 .5 2.1 1.2 2.1 1.6 0 .4-.4.8-1.1 1.2v18c0 1.7-3.8 4.8-5.1 4.8-.6 0-1-.3-1-1 0-1.3-.1-1.4-4.4-3.3l.2-.6c2.6.3 4.4.5 5.5.5 1 0 1.5-.4 1.5-1.9V359c0-2.4-.1-3-.1-3.5h-6.1c-2.5 3.3-5.6 6.4-9.4 9l-.5-.6c5-5.8 8.7-12 10.6-18.1zm20.3 14c1.2.2 3.4.2 7.8.2h4.3v-.4c0-1.8-.1-2.3-.1-2.7h-5.7v.3c0 .8-1.5 1.3-2.3 1.3-.4 0-.6-.1-.6-.6V350c0-2.3-.1-2.8-.1-3.2 0-.3.1-.5.5-.5.7 0 2.4.8 3.2 1.5h13.1c.5-.6 1.1-1.2 1.6-1.6.3-.2.7-.2 1 0 .5.4 1.4 1.2 1.9 1.7.3.4.2.8-.1 1.1-.2.1-.5.3-.8.4v5.9c0 1.2-1.1 3-1.9 3-.6 0-1.3-.8-1.7-1.5h-5.8c.9.4 1.7 1 1.7 1.3 0 .3-.3.6-.9 1v.8h6.8c.9-1 1.7-1.8 2.4-2.4.4-.3.8-.3 1.1 0 .6.4 1.7 1.5 2.1 2 .3.3.3.8 0 1.1-.5.4-1.2.7-1.9.7h-17.7c-4.3 0-6.2.1-7.3.3-.3 0-.4 0-.6-.2-.2-.3-.3-1-.3-1.4-.1-.1 0-.2.3-.2zm6.2 12.5c.2-.4.4-.5.7-.4 1.1.3 3 1.3 3 1.9 0 .4-.6.6-1.5.7-1.6 2.1-4.9 4.3-8.5 5.2l-.2-.5c2.7-2 5.3-4.7 6.5-6.9zm-2.3-9.7c.6 0 2.4.8 3.1 1.5H301c.5-.6 1.1-1.2 1.6-1.6.3-.2.7-.2 1 0 .5.4 1.4 1.2 1.9 1.7.3.4.2.8-.1 1.1-.2.1-.5.3-.8.4v3c0 1.1-1.1 2.9-1.8 2.9-.6 0-1.3-.8-1.7-1.5h-5.5c1 .4 1.8 1 1.8 1.4 0 .3-.4.6-1 1v4.3c0 1.4-3 4.2-4 4.2-.5 0-.8-.3-.8-.9 0-1.1 0-1.1-3.1-2.6l.1-.5c1.7.2 3 .3 3.7.3.8 0 1.2-.3 1.2-1.6V373c0-1.9-.1-2.4-.1-2.8h-5.7v.3c0 .8-1.4 1.3-2.3 1.3-.4 0-.6-.1-.6-.6v-5.1c0-2.1-.1-2.7-.1-3s.2-.5.5-.5zm16.7-10.8v-2.5h-13.6l-.7.7v1.8h14.3zm-.6 3.9c.4 0 .6-.2.6-.8v-1.8h-14.3v2.6h13.7zm-.1 13.2c.4 0 .5-.2.5-.7v-2.7h-13.4l-.6.7v2.8h13.5zm-2.6 3.6c3.6.5 5.9 1.3 6.6 2.1.8.8 1 2.6.5 3.3-.3.5-1.1.6-1.7-.1-1.4-1.7-3.3-3.3-5.7-4.7l.3-.6zm22.8-3.1c.4-.5.6-.5 1-.3.9.4 2.8 2 2.8 2.8 0 .5-.9.7-1.9.6-4.8 4.2-10.7 7.1-20 7.9l-.1-.8c8.3-2.1 14.3-5.7 18.2-10.2zm-1.9-12.1c.3-.5.5-.6 1-.4.8.3 3 1.7 3 2.4 0 .5-.8.7-1.7.8-3.3 3.8-8.4 7.2-15.3 8.5l-.2-.7c6.1-2.8 10.5-6.6 13.2-10.6zm-2.1-11.4c.2-.5.4-.6.9-.5 1 .3 3.2 1.6 3.2 2.3 0 .5-.8.8-1.7.9-2.5 3.6-6.2 6.7-12.1 8.6l-.4-.7c5-3.2 8.3-6.9 10.1-10.6zm30.9-.4c.6-.3.8-.2 1 0 .8.8 2.2 2.4 1.9 3-.2.4-1.2.3-2.2 0-1.8.6-3.9 1.2-6.1 1.6 1 .5 1.9 1.1 1.9 1.6 0 .3-.4.7-1.1 1.2v5.4h3.2c1-1.1 2-2.1 2.6-2.6.4-.3.9-.3 1.2 0 .7.5 1.9 1.7 2.3 2.2.3.4.3.9 0 1.2-.5.3-1.2.7-2 .7h-7.2v2.8c3.5 1 6.2 2.4 6.9 3.3 1 1.2 1.1 3.4.4 4.1-.5.5-1.3.5-1.9-.3-1.3-1.9-3.2-4-5.4-5.9v16c0 1-1.7 1.4-2.6 1.4-.5 0-.6-.2-.6-.6V365c-2.4 5.1-6.1 9-10.8 11.9l-.5-.6c5-5.1 8.4-10.8 9.9-16.5h-2c-3.8 0-5.6.1-6.7.3-.3 0-.4 0-.6-.2-.2-.3-.3-1-.3-1.4 0-.2.1-.3.4-.3 1.2.2 3.4.2 7.2.2h3.4V354c0-2 0-2.9-.1-3.4-3 .4-6.4.7-9.7.7v-.7c6.8-1.1 12.9-2.8 17.5-5.1zm6.2 3.1c.8 0 2.8.9 3.6 1.7h8.2c.6-.7 1.2-1.4 1.7-1.8.4-.3.9-.3 1.2 0 .6.4 1.7 1.5 2 2 .3.4.2.9-.1 1.2-.2.1-.5.3-.8.4v23c0 1.5-1.4 4-2.3 4-.8 0-1.7-1.4-2-2.5h-8.8v1.4c0 1-1.7 1.6-2.6 1.6-.5 0-.6-.2-.6-.7v-25.6c0-3.1-.1-3.7-.1-4.1.1-.4.3-.6.6-.6zm11.9 26.6c.6 0 .8-.3.8-1.1v-22.5h-9c-.2.2-.5.5-.8.9v22.7h9zm17.7-17.2c0-4.8-.2-8.2-.6-10.7-.1-.5.1-.8.5-.8.9 0 3 .9 3.9 1.7h23.9c.6-.7 1.2-1.4 1.7-1.8.4-.3.9-.3 1.2 0 .6.4 1.7 1.5 2 2 .3.4.2.9-.1 1.2-.2.2-.5.3-.8.4-.4 6.4-.3 12.1.1 15.7.5 4.2 1.6 7.5 3.2 9.8l1.7-6.5.9.2c-.3 2.6-.6 5.9-.5 7 0 1.1.1 1.6.8 2.1.3.3.4.6.4.9 0 .7-.9 1.2-2 1.2-3.1 0-6.5-6-7.5-12.6-.6-4.4-.8-10.1-.4-18.3H388c-.2.3-.4.5-.7.7.1 2 .2 5.2.2 8.2 0 9.5-1.9 16.2-9.4 22.5l-.7-.7c5.2-6.9 6.7-12.8 6.7-22.2zm14.3 5.7c-3-3.1-6.2-6-9.2-8.5l.6-.8c3.4 2 7 4.6 10.2 7.2 2-2.7 3.8-5.6 5.2-8.3.3-.7.5-.8 1.1-.6.9.2 3.3 1.4 3.3 2.2 0 .5-1 .8-1.9 1-1.6 2.6-3.4 5.2-5.4 7.6 3 2.6 5.4 4.9 6.4 6.2 1.6 2 2.3 5.2 1.6 6-.4.5-1.4.3-2.1-.7-2-2.8-4.8-6-7.8-9.3-4 4.4-8.7 8.2-13.8 11l-.6-.7c4.5-3.5 8.8-7.9 12.4-12.3zm28.2-8c3.2.2 5.9 1 6.7 1.9.9 1 1.1 3 .4 3.8-.5.6-1.5.5-2.1-.4-1-1.5-3-3.4-5.2-4.7l.2-.6zm3.6 22.7c.5-1.4.7-3.5.4-4.8-.3-1.5-1.1-2.4-2.6-3.5l.4-.7 2.8 1c.7.2 1 .2 1.2-.5.4-1.1 6.3-17.5 6.3-17.5l1 .3c-1.7 6-3.6 13.3-5 18.8-.5 2-.5 3.3-.1 4.9.2.9.1 2-.5 2.7-.7.9-1.8 1.4-2.8 1.3-.9-.2-1.5-1.2-1.1-2zm-.7-32.4c3.5.4 6.2 1.5 6.9 2.4.8 1 1 2.8.1 3.6-.5.5-1.5.5-2.1-.5-1-1.6-3-3.5-5.1-4.9l.2-.6zm9.7 12.6c1.2.2 3.5.2 8.3.2h5v-3.4h-3c-4 0-5.9.1-7 .3-.3 0-.4 0-.6-.2-.2-.3-.3-1-.3-1.4 0-.2.1-.3.4-.3 1.2.2 3.4.2 7.4.2h3v-3H448c-4.5 0-6.4.1-7.5.3-.3 0-.4 0-.6-.2-.2-.3-.3-1-.3-1.4 0-.2.1-.3.4-.3 1.2.2 3.5.2 8 .2h4.5v-.5c0-2.4-.1-3.1-.1-3.5 0-.3.2-.5.5-.5 1 0 4 1.1 4 2 0 .4-.4.9-1.2 1.6v.9h7.9c.9-1 1.7-1.8 2.4-2.4.4-.3.8-.3 1.1 0 .6.4 1.7 1.5 2.1 2 .3.3.3.8 0 1.1-.5.4-1.2.7-1.9.7h-11.6v3.2h5.8c.9-1 1.7-1.8 2.4-2.4.4-.3.8-.3 1.1 0 .6.4 1.7 1.5 2.1 2 .3.3.3.8 0 1.1-.5.4-1.2.7-1.9.7h-9.5v3.4h9.1c1-1.1 2-2.1 2.6-2.6.4-.3.9-.3 1.2 0 .7.5 1.9 1.7 2.3 2.2.3.4.3.9 0 1.2-.5.3-1.2.7-2 .7h-21.3c-4.8 0-6.7.1-7.8.3-.3 0-.4 0-.6-.2-.2-.3-.3-1-.3-1.4-.2-.5 0-.6.3-.6zm4.1 3.1c.8 0 2.9.9 3.6 1.7h14.8c.6-.7 1.2-1.4 1.7-1.8.4-.3.9-.3 1.2 0 .6.4 1.7 1.5 2 2 .3.4.2.9-.1 1.2-.2.2-.5.3-.8.4v11.3c0 1.6-3.4 4.5-4.7 4.5-.5 0-.8-.3-.8-1 0-1.2-.1-1.2-3.7-2.9l.1-.6c2 .2 3.6.4 4.5.4.9 0 1.3-.4 1.3-1.7v-1.8H446v6.1c0 1-1.7 1.5-2.6 1.5-.5 0-.6-.2-.6-.6V366c0-2.8-.1-3.4-.1-3.8 0-.3.2-.5.6-.5zm19.2 6v-2.9h-15.7c-.2.2-.4.5-.8.8v2.1h16.5zm0 4.3v-3h-16.4v3h16.4zm13.2-6.8c1.2.2 3.7.2 9.9.2h9.9V354c0-2.8-.1-3.6-.1-4.1h-7.8c-5.5 0-7.5.1-8.6.3-.3 0-.4 0-.6-.2-.2-.3-.3-1-.3-1.4 0-.2.1-.3.4-.3 1.2.2 3.6.2 9.1.2h22.2c1-1.1 2.1-2.3 2.8-2.8.4-.3.9-.3 1.4 0 .6.4 1.9 1.6 2.4 2.2.3.4.3.9 0 1.2-.4.4-1.3.7-2 .7h-16.1c1 .5 1.9 1.1 1.9 1.6 0 .4-.4.8-1.1 1.2v12.8h13.3c1.1-1.2 2.2-2.3 3-3 .4-.3.9-.3 1.4 0 .8.6 2 1.7 2.6 2.4.3.4.3.9 0 1.2-.4.4-1.3.7-2 .7h-18.3v12.7c0 1.1-1.8 1.5-2.8 1.5-.5 0-.7-.2-.7-.7v-13.5h-9.9c-6.1 0-8.3.1-9.4.3-.3 0-.4 0-.6-.2-.2-.3-.3-1.1-.3-1.4-.1-.1.1-.2.3-.2zm5.7-12.8c3.9 2.2 7.1 5.1 7.7 6.5.7 1.5.8 4.2-.4 4.9-.6.4-1.4.2-1.8-.8-1.4-3.3-3.5-6.8-6-10.2l.5-.4zm27.6.4c.1-.6.3-.7.8-.6 1 .2 4.1 1.3 4.1 2.2 0 .5-.9.9-1.6 1.1-1.6 3.3-4.4 6.6-7.9 9.2l-.6-.5c2.6-4.1 4.5-8.3 5.2-11.4zm26 14.2c.4-.6.6-.6 1.1-.4.9.4 3.2 1.8 3.2 2.6 0 .6-1.4.7-2.1.7-2.9 3.2-7.9 6.9-12.9 8.9l-.4-.6c4.5-3.3 8.7-7.6 11.1-11.2zm-5.7-7.1 1.3-7c.3-1.6.4-2.6.6-4 0-.4.3-.6.7-.5.9.1 2.7 1.2 3.4 2 8.3-1 18.7-2.9 23.9-4.5.5-.1.7-.1 1.1.2.6.5 1.8 2.1 2 2.8.2.6 0 .9-.5.9-.6 0-1.2-.1-2-.5-6.6 1.2-16.1 2.1-24.5 2-.2.3-.7.6-1.1.9l-1.8 9.9h13.2v-3.9c0-2.7-.1-3.4-.1-3.8 0-.3.2-.6.6-.6 1 0 4.2 1.2 4.2 2.1 0 .4-.5.9-1.2 1.5v4.6h10.8c1-1.1 2.1-2.3 2.8-2.8.4-.3.9-.3 1.4 0 .6.4 1.9 1.6 2.4 2.2.3.4.3.9 0 1.2-.4.4-1.3.7-2 .7h-15.3v12.3c0 1.8-3.8 4.9-5.2 4.9-.6 0-1-.3-1-1.1 0-1.4-.1-1.5-4.4-3.5l.1-.6c2.6.3 4.4.5 5.4.5s1.6-.5 1.6-2v-10.6h-11.8c-2.3 0-1.6 1-2.3 1.4-.6.3-2.3-.3-3-.9-.3-.3-.3-.6-.1-1.1.2-.5.5-1.3.8-2.7zm35.2 17.5c-2-2.7-5.9-6.4-10.1-9.4l.3-.7c5.4 1.6 10.1 4.3 11.4 5.8 1.4 1.6 1.5 4.4.5 5.1-.7.4-1.4.2-2.1-.8zm-431.1 62c.1-.5.2-.5.6-.5.9.1 3.1.9 3.1 1.5 0 .4-.7.7-1.3.9-.6 1.4-1.4 2.8-2.3 4.1h6.3c.7-.8 1.5-1.5 2-1.9.3-.2.6-.2.9 0 .5.4 1.4 1.3 1.7 1.6.3.3.3.6 0 .9-.4.3-.9.5-1.5.5h-7.3c.7.4 1.3.8 1.3 1.1 0 .3-.3.5-.9.9v16c0 .8-1.3 1.1-2 1.1-.4 0-.5-.1-.5-.5v-15.8c0-1.8-.1-2.4-.1-2.7h-.6c-1.7 2.3-3.8 4.4-6.1 6l-.4-.5c3.6-4.1 5.9-8.4 7.1-12.7zm15.2-.2c.1-.5.3-.5.6-.5.9.1 3.1.9 3.1 1.5 0 .4-.7.8-1.3.9-.6 1.4-1.4 2.8-2.4 4.2h7.2c.7-.8 1.5-1.5 2-1.9.3-.2.6-.2.9 0 .5.4 1.4 1.3 1.7 1.6.3.3.3.6 0 .9-.4.3-.9.5-1.5.5h-4.5c.8.4 1.6.9 1.6 1.2 0 .3-.3.6-.8.9V462c0 1.3-2.8 3.6-3.9 3.6-.4 0-.7-.3-.7-.8 0-1-.1-1.1-3.3-2.5l.1-.5c1.9.3 3.3.4 4.2.4.7 0 1.2-.3 1.2-1.4v-11.7c0-1.8-.1-2.3-.1-2.6H148c-1.9 2.5-4.2 4.8-7.1 6.7l-.4-.5c3.9-4.3 6.7-8.9 8.1-13.5zm15.4 10.5c.9.1 2.6.2 5.9.2h3.3v-.3c0-1.3-.1-1.7-.1-2h-4.3v.3c0 .6-1.1 1-1.8 1-.3 0-.4-.1-.4-.4v-5.9c0-1.7-.1-2.1-.1-2.4 0-.3.1-.4.4-.4.5 0 1.8.6 2.4 1.1h9.9c.4-.5.8-.9 1.2-1.2.2-.2.5-.2.8 0 .4.3 1.1.9 1.4 1.3.3.3.2.6-.1.8l-.6.3v4.4c0 .9-.9 2.3-1.4 2.3-.5 0-1-.6-1.3-1.2h-4.4c.6.3 1.3.7 1.3 1 0 .3-.3.5-.7.7v.6h5.1c.6-.7 1.3-1.4 1.8-1.8.3-.2.6-.2.9 0 .4.3 1.3 1.1 1.6 1.5.2.3.3.6 0 .8-.4.3-.9.5-1.4.5H170c-3.3 0-4.7.1-5.5.3-.2 0-.3 0-.4-.2-.1-.3-.3-.8-.3-1-.2-.2-.1-.3.2-.3zm4.6 9.4c.2-.3.3-.4.5-.3.8.3 2.2 1 2.2 1.4 0 .3-.4.5-1.1.5-1.2 1.6-3.7 3.2-6.4 3.9l-.2-.4c2.2-1.5 4.1-3.5 5-5.1zm-1.7-7.3c.5 0 1.8.6 2.4 1.1h9.6c.4-.5.8-.9 1.2-1.2.2-.2.5-.2.8 0 .4.3 1.1.9 1.4 1.3.3.3.2.6-.1.8l-.6.3v2.3c0 .8-.8 2.2-1.4 2.2-.4 0-1-.6-1.3-1.1h-4.2c.7.3 1.4.8 1.4 1.1 0 .2-.3.5-.8.8v3.2c0 1.1-2.2 3.1-3.1 3.1-.4 0-.6-.2-.6-.7 0-.8 0-.8-2.3-1.9l.1-.4c1.3.1 2.2.2 2.8.2.6 0 .9-.3.9-1.2v-2.1c0-1.4-.1-1.8-.1-2.1h-4.3v.3c0 .6-1.1 1-1.7 1-.3 0-.4-.1-.4-.4v-3.9c0-1.6-.1-2-.1-2.3s.2-.4.4-.4zm12.6-8.1v-1.9h-10.3l-.5.5v1.3h10.8zm-.4 2.9c.3 0 .4-.1.4-.6v-1.4h-10.8v1.9h10.4zm-.1 9.9c.3 0 .4-.1.4-.5v-2.1h-10.1l-.5.5v2.1H179zm-2 2.7c2.7.4 4.4 1 5 1.6.6.6.8 1.9.4 2.4-.3.4-.8.4-1.3-.1-1-1.3-2.5-2.5-4.3-3.5l.2-.4zm17.3-2.3c.3-.4.4-.4.8-.2.6.3 2.1 1.5 2.1 2.1 0 .4-.7.5-1.4.5-3.6 3.1-8.1 5.3-15.1 5.9l-.1-.6c6.2-1.6 10.7-4.3 13.7-7.7zm-1.5-9c.3-.4.4-.5.8-.3.6.2 2.2 1.3 2.2 1.8 0 .4-.6.5-1.3.6-2.5 2.8-6.3 5.4-11.6 6.4l-.1-.5c4.6-2.2 7.9-5 10-8zm-1.6-8.6c.2-.4.3-.5.7-.4.7.2 2.4 1.2 2.4 1.7 0 .4-.6.6-1.3.7-1.9 2.7-4.7 5-9.1 6.4l-.3-.5c3.8-2.4 6.3-5.2 7.6-7.9zm23.4-.3c.4-.2.6-.2.8 0 .6.6 1.7 1.8 1.4 2.2-.2.3-.9.3-1.7 0-1.4.5-2.9.9-4.6 1.2.8.4 1.4.8 1.4 1.2 0 .3-.3.5-.9.9v4h2.4c.7-.8 1.5-1.5 2-1.9.3-.2.6-.2.9 0 .5.4 1.4 1.3 1.7 1.6.3.3.3.6 0 .9-.4.3-.9.5-1.5.5H211v2.1c2.6.7 4.7 1.8 5.2 2.4.8.9.8 2.5.3 3.1-.4.4-1 .4-1.4-.3-1-1.4-2.4-3-4.1-4.4v12c0 .7-1.3 1.1-1.9 1.1-.4 0-.5-.1-.5-.5v-11.7c-1.8 3.9-4.6 6.7-8.2 8.9l-.4-.4c3.8-3.9 6.4-8.1 7.5-12.4H206c-2.9 0-4.2.1-5.1.3-.2 0-.3 0-.4-.2-.1-.3-.3-.8-.3-1 0-.2.1-.3.3-.2.9.1 2.6.2 5.4.2h2.6v-3.2c0-1.5 0-2.2-.1-2.6-2.3.3-4.8.5-7.3.5v-.5c5.4-.8 10-2.1 13.5-3.8zm4.7 2.4c.6 0 2.1.6 2.7 1.3h6.2c.5-.5.9-1 1.3-1.3.3-.3.6-.3.9 0 .4.3 1.3 1.1 1.5 1.5.3.3.2.7-.1.9-.1.1-.4.2-.6.3v17.2c0 1.1-1 3-1.7 3-.6 0-1.3-1.1-1.5-1.9h-6.6v1.1c0 .8-1.3 1.2-2 1.2-.4 0-.5-.1-.5-.5V445c0-2.3-.1-2.8-.1-3.1.1-.4.2-.5.5-.5zm9 19.9c.4 0 .6-.2.6-.8v-16.9h-6.8c-.1.2-.4.4-.6.6v17h6.8zm12.8-13.1c0-3.6-.1-6.2-.5-8-.1-.4.1-.6.4-.6.6 0 2.2.6 2.8 1.3h19.4c.5-.5.9-1 1.3-1.3.3-.3.6-.3.9 0 .4.3 1.3 1.1 1.5 1.5.3.3.2.7-.1.9-.2.1-.5.3-.8.4-.3 4.9-.3 9.3 0 11.9.4 3.1 1.1 5.6 2.2 7.2l1.2-4.8.7.1c-.3 1.9-.4 4.4-.4 5.3 0 .8.1 1.2.5 1.6.3.2.3.4.3.7 0 .5-.6.9-1.4.9-2.2 0-4.6-4.4-5.3-9.3-.5-3.3-.6-7.8-.3-14H244c-.1.2-.3.4-.5.5.1 1.5.1 3.9.1 6.2 0 7.1-1 12.3-6.7 17l-.5-.5c3.9-5.4 4.7-9.9 4.7-17zm2.4 13.1c2.8 0 5.9-.1 9-.2v-4.8h-4v1c0 .6-1.1 1-1.7 1-.3 0-.4-.1-.4-.4v-6.4c0-1.7-.1-2.1-.1-2.4s.1-.4.4-.4c.5 0 1.8.5 2.4 1.1h3.6v-1.2c0-1.5-.1-2-.1-2.3-2.6.1-5.3.2-7.9.1v-.6c5.9-.5 12.1-1.4 15.9-2.7.3-.1.5-.1.6.1.4.5 1 1.4 1.1 1.8.1.4-.1.5-.3.5s-.7-.1-1.2-.3c-1.9.4-4.1.7-6.6.9.7.3 1.3.7 1.3 1 0 .3-.3.5-.7.8v1.8h3.5c.4-.5.8-.9 1.2-1.2.2-.2.5-.2.8 0 .4.3 1.1.9 1.4 1.3.3.3.2.6-.1.8-.1.1-.3.2-.5.3v4.2c0 .9-.9 2.2-1.4 2.2-.4 0-.9-.5-1.2-1.1h-3.7v4.7c1.9-.1 3.7-.2 5.5-.3-.5-.9-1.2-1.8-1.9-2.7l.4-.4c2.2 1.2 4.5 3.1 4.9 4.1.4 1 .3 2.4-.4 2.8-.5.3-1.1.1-1.4-.6-.3-.8-.7-1.7-1.2-2.5-4.7.9-10.5 1.8-15.2 2.3-.3.6-.6 1-.9 1-.6 0-1.4-2.4-1.4-3.1-.2-.1-.1-.2.3-.2zm9-6v-4.5H249c-.1.2-.3.4-.5.6v3.9h4zm5.8 0c.3 0 .4-.1.4-.5v-3.9h-4.1v4.5h3.7zm15.4-8.6c2.4.1 4.5.7 5.1 1.4.7.8.8 2.2.3 2.8-.4.4-1.2.4-1.6-.3-.8-1.2-2.2-2.6-3.9-3.5l.1-.4zm2.9 16.8c.4-1 .5-2.6.3-3.6-.2-1.1-.8-1.8-2-2.6l.3-.5 2.1.7c.5.2.7.1.9-.4.3-.8 4.8-13.1 4.8-13.1l.7.2c-1.3 4.5-2.7 10-3.7 14.1-.4 1.5-.4 2.5-.1 3.7.1.7.1 1.5-.4 2-.5.6-1.4 1.1-2.1 1-.6-.1-1-.8-.8-1.5zm-.6-24c2.6.3 4.7 1.1 5.2 1.7.6.8.7 2.1.1 2.7-.4.4-1.1.4-1.6-.4-.8-1.2-2.2-2.6-3.8-3.6l.1-.4zm7 9.7c.9.1 2.7.2 6.3.2h3.9v-2.7H291c-3.1 0-4.4.1-5.3.3-.2 0-.3 0-.4-.2-.1-.3-.3-.8-.3-1 0-.2.1-.3.3-.2.9.1 2.6.2 5.6.2h2.2v-2.6h-3.4c-3.4 0-4.9.1-5.7.3-.2 0-.3 0-.4-.2-.1-.3-.3-.8-.3-1 0-.2.1-.3.3-.2.9.1 2.6.2 6 .2h3.4v-.5c0-1.8-.1-2.3-.1-2.6 0-.3.1-.4.4-.4.8 0 3.1.8 3.1 1.5 0 .3-.3.7-.9 1.2v.8h6c.6-.7 1.3-1.4 1.8-1.8.3-.2.6-.2.9 0 .4.3 1.3 1.1 1.6 1.5.2.3.3.6 0 .8-.4.3-.9.5-1.4.5h-8.8v2.6h4.4c.6-.7 1.3-1.4 1.8-1.8.3-.2.6-.2.9 0 .4.3 1.3 1.1 1.6 1.5.2.3.3.6 0 .8-.4.3-.9.5-1.4.5h-7.3v2.7h6.9c.7-.8 1.5-1.5 2-1.9.3-.2.6-.2.9 0 .5.4 1.4 1.3 1.7 1.6.3.3.3.6 0 .9-.4.3-.9.5-1.5.5h-16.3c-3.6 0-5.1.1-5.9.3-.2 0-.3 0-.4-.2-.1-.3-.3-.8-.3-1 0-.6.1-.6.3-.6zm3.2 2.4c.6 0 2.2.6 2.7 1.3h11.3c.5-.5.9-1 1.3-1.3.3-.3.6-.3.9 0 .4.3 1.3 1.1 1.5 1.5.3.3.2.7-.1.9-.2.1-.4.3-.6.3v8c0 1.2-2.6 3.3-3.5 3.3-.4 0-.6-.2-.6-.7 0-.9-.1-.9-2.8-2.2l.1-.4c1.5.2 2.7.3 3.4.3.6 0 1-.3 1-1.3v-2.6h-12.6v5.7c0 .7-1.3 1.1-1.9 1.1-.4 0-.5-.1-.5-.5v-10.2c0-2.1-.1-2.5-.1-2.8.1-.2.2-.4.5-.4zm7.2 6.1v-1.9c0-1-.1-1.5-.1-1.8h-4.5c-.1.2-.3.4-.6.6v3.1h5.2zm2.8-3c0 .2-.2.4-.6.6v2.3h5.3V454h-5.5c.4.2.8.5.8.7zm14.7-.9c.6.1 1.5.1 3.3.1 2.2-3.5 3.8-7.3 4.5-9.9.1-.4.2-.5.6-.4.8.1 3.1 1 3.1 1.6 0 .4-.7.6-1.2.7-1.5 2.9-3.7 5.8-6 8h10.7v-8.6c0-2.1-.1-2.7-.1-3.1h-5.9c-4.1 0-5.7.1-6.5.3-.2 0-.3 0-.4-.2-.1-.3-.3-.8-.3-1 0-.2.1-.3.3-.2.9.1 2.7.2 6.9.2h16.8c.8-.8 1.6-1.7 2.1-2.1.3-.3.7-.3 1 0 .5.3 1.4 1.2 1.8 1.7.3.3.3.7 0 .9-.3.3-1 .5-1.5.5h-12.2c.8.4 1.4.8 1.4 1.2 0 .3-.3.6-.8.9v9.7h10.1c.8-.9 1.7-1.7 2.3-2.2.3-.3.7-.3 1 0 .6.4 1.5 1.3 2 1.8.3.3.3.7 0 .9-.3.3-1 .5-1.5.5h-13.9v9.5c0 .8-1.4 1.2-2.1 1.2-.4 0-.5-.1-.5-.5V455h-7.5c-4.6 0-6.3.1-7.1.3-.2 0-.3 0-.4-.2-.1-.3-.3-.8-.3-1-.1-.2.1-.3.3-.3zm26-1.3c-1.1-2.6-3-5.5-5.1-8.2l.4-.4c3.1 1.7 5.8 4.3 6.3 5.4s.6 3.1-.3 3.7c-.4.3-1 .2-1.3-.5zm22.6 4.5h-4.3c-4.6 0-6.2.1-7 .3-.2 0-.3 0-.4-.2-.1-.3-.3-.8-.3-1 0-.2.1-.3.3-.2.9.1 2.8.2 7.4.2h7.5c0-1.6-.1-2-.1-2.3 0-.3.1-.4.4-.4.7 0 2.8.8 2.8 1.3 0 .3-.3.6-.8 1v.3h10.6c.7-.8 1.5-1.5 2-1.9.3-.2.6-.2.9 0 .5.4 1.4 1.3 1.7 1.6.3.3.3.6 0 .9-.4.3-.9.5-1.5.5h-11.8c4.1 2.8 8.9 4.5 13.9 5.1v.5c-1.3.5-1.5.6-1.7 1.3-.1.7-.7.8-1.8.5-3.5-.9-8.4-3.8-11.9-7.3h-.4v7.7c0 .6-1.2.9-1.9.9-.3 0-.4-.1-.4-.5v-7.8c-4.3 3.7-9.2 6.1-15.5 7.6l-.2-.7c4.9-2 9.6-4.7 12.5-7.4zm-11.4-13.2c1 .3 1.9.7 2.6 1.1.9-1.8 1.7-3.7 2-5.4.1-.3.2-.4.5-.3.7.1 2.5.8 2.5 1.4 0 .3-.6.5-1.1.7-.8 1.4-1.9 2.7-3.2 4.1.5.4.9.7 1 .9.4.5.4 1.3.3 2 1.2-1.7 2.2-3.5 2.9-5 .1-.3.3-.4.5-.3.5.2 2.1 1 2.1 1.5 0 .3-.5.4-1 .5-.7 1-1.5 2-2.3 2.9 1.7 1 3.1 2.2 3.4 2.9.4.9.2 2.2-.5 2.6-.3.2-.9.1-1-.4l-.2-.7c-2.1.5-4.7 1.1-6.7 1.4-.2.5-.5.8-.7.8-.5 0-1-1.8-1-2.3 0-.2.1-.3.4-.3h1.3c.8-.9 1.5-1.8 2.2-2.7-.2 0-.4-.1-.6-.5-.8-1.6-2.1-3.5-3.6-4.6l.2-.3zm8.3 7.8c-.5-1.2-1-2.3-1.8-3.3-1.2 1.3-2.4 2.4-3.7 3.5 1.8 0 3.7 0 5.5-.2zm3-9.9c.5 0 1.7.5 2.3 1h.6c.4-1.2.6-2.6.6-3.6 0-.3.1-.4.4-.4.6 0 2.7.5 2.7.9 0 .3-.5.5-.9.7-.4.8-1.1 1.7-2 2.4h3c.3-.4.8-.9 1-1.1.2-.1.4-.2.7 0 .4.3.9.8 1.3 1.2.3.3.2.6-.1.8-.1.1-.3.1-.4.2v.4c.9.3 1.7.6 2.3.9 1.1-1.9 1.9-4 2.3-5.7.1-.3.2-.4.5-.4.7.1 2.5.8 2.5 1.4 0 .3-.7.6-1.1.7-.9 1.5-2.1 3-3.5 4.3.6.3 1 .7 1.3 1 .4.5.5 1.2.4 1.8 1.2-1.6 2.2-3.3 2.9-4.9.1-.3.3-.4.6-.3.6.2 2.3 1.2 2.2 1.7-.1.3-.5.5-1.1.5-.7.9-1.5 1.8-2.3 2.7 1.8.8 3.3 1.9 3.6 2.5.4.9.3 2.2-.3 2.6-.4.3-.8.2-1-.3l-.3-.8c-2.1.5-4.6 1-6.6 1.4-.2.5-.5.8-.7.8-.5 0-1-1.8-1-2.3 0-.2.1-.3.4-.3h.8c.7-.8 1.5-1.6 2.2-2.5-.3 0-.5-.1-.7-.5-.8-1.5-1.9-2.9-3.3-4v6.4c0 .9-.9 2.4-1.4 2.4-.4 0-1-.6-1.3-1.2h-4.6v.2c0 .6-1.1 1-1.7 1-.3 0-.4-.1-.4-.4v-8.7c0-1.7-.1-2.1-.1-2.4s0-.1.2-.1zm7.1 5.3v-3.2h-4.7l-.4.5v2.8h5.1zm-.6 4.4h.2c.3 0 .4-.1.4-.6V448h-5.1v3.4h4.5zm11.3.2c-.5-1.1-1.3-2.1-2.1-3-1.2 1.2-2.4 2.3-3.6 3.2 1.8 0 3.9-.1 5.7-.2zm16.2 11c0-.7-.2-.8-.7-.8-1.1 0-1.9-.8-1.9-1.8 0-1.2 1-2.1 2.2-2.1 1.3 0 2.7 1 2.7 3.2 0 2.3-1.6 4.9-4.6 6.1l-.3-.5c1.6-1.1 2.6-2.6 2.6-4.1zm29.8-17.2c.8 0 3.1.8 3.1 1.5 0 .3-.3.7-.9 1.2v13.7h9.9v-19.2c0-2.4-.1-2.9-.1-3.2 0-.3.1-.4.4-.4.8 0 3.3.9 3.3 1.6 0 .3-.4.8-1 1.3v19.9h10v-12.9c0-2.3-.1-2.8-.1-3.1 0-.3.1-.4.4-.4.8 0 3.2.8 3.2 1.5 0 .3-.3.7-.9 1.2v15.8c0 .7-1.3 1-2.1 1-.4 0-.5-.1-.5-.5v-1.7h-22.4v1.1c0 .7-1.3 1-2.1 1-.4 0-.5-.1-.5-.5v-15.6c0-2.3-.1-2.7-.1-3.1 0-.1.1-.2.4-.2zm36.5-4.9c.6 0 2.1.6 2.7 1.2h4.8c.5-.5.9-1 1.3-1.3.3-.3.6-.3.9 0 .4.3 1.3 1.1 1.5 1.5.3.3.2.7-.1.9-.2.1-.4.3-.7.4v13.4c0 1-1 2.6-1.6 2.6-.5 0-1.1-.8-1.4-1.5h-5.3v2.2c0 .7-1.3 1.2-1.9 1.2-.4 0-.5-.1-.5-.5V444c0-2.2-.1-2.7-.1-3 0-.4.1-.5.4-.5zm8 8.3v-6.2h-5.3c-.1.2-.4.4-.6.6v5.5h5.9zm-.5 7.7c.4 0 .5-.2.5-.7v-6h-5.9v6.7h5.4zm7-5.5v-6.4c0-3.3-.2-4-.2-4.3 0-.3.1-.4.4-.4.6 0 2.1.7 2.8 1.3h7c.5-.5.9-1 1.3-1.3.3-.3.6-.3.9 0 .4.3 1.3 1.1 1.5 1.5.3.3.2.7-.1.9-.1.1-.4.2-.6.3V462c0 1.3-2.7 3.5-3.8 3.5-.4 0-.7-.2-.7-.8 0-1-.1-1-3.2-2.4l.1-.4c1.9.2 3.2.3 4 .3.7 0 1.1-.3 1.1-1.4v-5.5h-8.6c-1 4.8-4 7.8-11 10.5l-.3-.5c7.3-4.6 9.4-7.9 9.4-14.3zm10.7 3.1v-5.5h-8.2v2.4c0 1.1-.1 2.1-.2 3.1h8.4zm0-6.5v-5.5h-7.6l-.6.6v4.8h8.2zm18.2.8h-4.3c-2.3 0-3.3.1-4.1.3-.2 0-.3 0-.4-.2-.1-.3-.2-.7-.2-1 0-.2.1-.3.3-.2.9.1 2.2.2 4.4.2h4.1c.5-.5 1.1-1.2 1.5-1.5.3-.2.6-.3.9 0 .5.4 1.4 1.2 1.8 1.6.3.3.2.7-.1.9-.2.2-.6.4-1.1.6-2.2 6.8-6.4 11.3-12.3 14.3l-.3-.4c5.3-4.7 8.6-9.6 9.8-14.6zm8.5-2.6-.1 16.2c0 1.3-2.8 3.6-3.9 3.6-.4 0-.7-.3-.7-.8 0-1-.1-1.1-3.3-2.6l.1-.4c1.9.2 3.2.3 4.1.3.7 0 1.2-.4 1.2-1.5v-18.4c0-2.3-.1-2.8-.1-3.1 0-.3.1-.4.4-.4.8 0 3.3.9 3.3 1.6 0 .3-.4.8-1.1 1.3v.7c.9 3.2 2.2 6.1 3.8 8.6 2.7-2.2 5.1-4.8 6.6-7.5.2-.4.4-.5.8-.3.9.4 2.8 1.6 2.8 2.2 0 .4-.9.5-1.5.5-1.8 1.9-4.9 4.2-8.1 5.8 2.8 3.9 6.6 6.8 11.2 8.9v.5c-1.5.3-1.7.4-2.1 1-.5.8-1.2.8-2.6-.2-4.2-2.8-8.9-8.7-10.8-16zm18.6.9c2.4.1 4.3.7 4.9 1.3.8.8.8 2.3.2 2.8-.4.4-1 .4-1.4-.3-.8-1.2-2.2-2.5-3.9-3.5l.2-.3zm2.5 16.6c.4-1 .5-2.2.3-3.2-.3-1.1-.8-1.8-2-2.7l.3-.5 2.1.7c.5.2.8.1.9-.4.3-.8 4.6-13.7 4.6-13.7l.7.2c-1.3 4.7-2.7 10.4-3.6 14.6-.3 1.3-.4 2.3-.2 3.5.1.6 0 1.4-.4 1.9-.5.7-1.3 1-2 .9-.6 0-1-.7-.7-1.3zm-.8-23.9c2.6.3 4.6 1 5 1.6.6.8.7 2.2.2 2.8-.4.4-1.1.4-1.6-.4-.8-1.2-2.2-2.5-3.8-3.6l.2-.4zm8.4.3c.5 0 1.9.6 2.4 1.1h4c.4-.5.8-.9 1.2-1.2.2-.2.5-.2.8 0 .4.3 1.1.9 1.4 1.3.3.3.2.6-.1.8-.2.1-.4.3-.6.3v5.9c0 .9-.8 2.4-1.4 2.4-.5 0-1-.7-1.3-1.3h-4.5v15.5c0 .7-1.1 1.1-1.8 1.1-.3 0-.4-.1-.4-.4V443c0-2.2-.1-2.6-.1-2.9 0-.3.1-.4.4-.4zm7 4.7v-2.6h-4.5l-.5.5v2.1h5zm-.5 3.6c.3 0 .4-.1.4-.6v-2.1h-5v2.7h4.6zm-3.3 12.2c.9.1 2.5.2 5 .2h.9v-3.3c-2.2 0-3.4.1-4.2.3-.2 0-.3 0-.4-.2-.1-.3-.3-.7-.3-1 0-.2.1-.3.3-.2.9.1 2.4.2 4.6.2V455c0-1.3-.1-1.7-.1-2h-.4c-2.4 0-3.7.1-4.5.3-.2 0-.3 0-.4-.2-.1-.3-.3-.7-.3-1 0-.2.1-.3.3-.2.9.1 2.5.2 4.9.2h5.3c.4-.5.9-1 1.3-1.3.2-.2.5-.2.7 0 .3.2.9.8 1.2 1.2.1.2.2.5-.1.6-.3.2-1 .5-1.4.5H551c.6.3 1.1.6 1.1.9 0 .2-.3.4-.6.7v1.5h1.8c.4-.5.9-1 1.3-1.3.2-.2.5-.2.7 0 .3.2.9.8 1.2 1.2.1.2.2.5-.1.6-.3.2-1 .5-1.4.5h-3.5v3.3h2.7c.6-.7 1.2-1.3 1.6-1.6.3-.2.6-.2.8 0 .4.3 1.1 1 1.4 1.4.2.3.2.6-.1.8-.3.3-.9.5-1.3.5h-8c-2.6 0-3.9.1-4.7.3-.2 0-.3 0-.4-.2-.1-.3-.3-.7-.3-1-.1-.4 0-.5.3-.5zm8.2-20.5c.5 0 1.8.6 2.4 1.1h4.2c.4-.5.8-.9 1.2-1.2.2-.2.5-.2.8 0 .4.3 1.1.9 1.4 1.3.3.3.2.6-.1.8l-.6.3v20.3c0 1.2-2.4 3.2-3.3 3.2-.4 0-.6-.2-.6-.7 0-.9 0-.9-2.7-2.1l.1-.4c1.5.1 2.6.3 3.3.3.6 0 1-.3 1-1.3V449h-5.2v.2c0 .6-1.1 1-1.7 1-.3 0-.4-.1-.4-.4v-7.4c0-1.7-.1-2.1-.1-2.3s0-.4.3-.4zm7.1 4.7v-2.6H554l-.4.4v2.2h5.2zm0 3.6v-2.7h-5.2v2.7h5.2zm10.3-7.1c.5 0 2 .6 2.6 1.2h2.7c.4-.5.8-.9 1.2-1.2.2-.2.5-.2.8 0 .4.3 1.1.9 1.4 1.3.3.3.2.6-.1.8-.1.1-.3.2-.5.3v15.1c0 .9-.9 2.6-1.5 2.6-.5 0-1.1-.8-1.3-1.4h-3.2v2.2c0 .7-1.2 1.1-1.9 1.1-.3 0-.4-.1-.4-.5v-18.1c0-2.2-.1-2.6-.1-2.9-.1-.4 0-.5.3-.5zm5.9 9.1v-6.8h-3.3c-.1.2-.3.4-.5.6v6.3h3.8zm-.5 8.5c.4 0 .5-.2.5-.7V451h-3.8v7.5h3.3zm9.6-5.9c-3.3 0-4.8.1-5.6.3-.2 0-.3 0-.4-.2-.1-.3-.3-.8-.3-1 0-.2.1-.3.3-.2.9.1 2.6.2 6 .2h.2c.2-.9.4-1.8.4-2.8-3.1 0-4.5.1-5.3.3-.2 0-.3 0-.4-.2-.1-.3-.3-.8-.3-1 0-.2.1-.3.3-.2.9.1 2.6.2 5.8.2h6.8c1.2-1.9 2.1-3.6 2.6-5.2.1-.3.2-.4.5-.3.8.2 2.4.9 2.4 1.3s-.6.5-1.2.6c-.9 1.2-2.1 2.5-3.5 3.6h2.6c.6-.7 1.2-1.3 1.6-1.6.3-.2.6-.2.8 0 .4.3 1.1 1 1.4 1.4.2.3.2.6-.1.8-.3.3-.9.5-1.3.5H587c.5.3.9.6.9.9 0 .3-.4.5-.9.7-.1.4-.1.8-.3 1.3h9c.6-.7 1.3-1.4 1.8-1.8.3-.2.6-.2.9 0 .4.3 1.3 1.1 1.6 1.5.2.3.3.6 0 .8-.4.3-.9.5-1.4.5h-12.1c-.3.9-.6 1.8-1 2.7h8.1c.4-.5.8-.9 1.2-1.2.2-.2.5-.2.8 0 .4.3 1.1.9 1.4 1.3.3.3.2.6-.1.8-.3.2-.6.3-.9.4-1.3 1.9-2.8 3.4-4.6 4.6 2.6 1 5.6 1.5 9 1.6l.1.4c-1.1.5-1.3.8-1.4 1.4-.1.7-.9.8-2.2.5-2.7-.6-5-1.5-7.1-2.8-2.8 1.5-6.3 2.6-10.7 3.2l-.1-.5c3.6-.9 6.8-2.2 9.3-3.7-1.4-1.1-2.7-2.4-3.7-3.9-2.2 3.4-5.6 6.2-10.5 7.8l-.2-.5c5.4-3.7 8.8-7.5 10.2-12.5zm11.8-13.6c.3-.1.4-.1.6.1.5.5 1 1.4 1.2 1.9.1.3-.1.5-.3.5-.3 0-.7-.1-1-.3-5.2 1-11.5 1.7-17.9 1.5v-.6c5.8-.3 12.7-1.2 17.4-3.1zm-15.2 4.2c1.7.5 2.9 1.3 3.2 1.9.5.8.1 1.9-.5 2.2-.5.3-.9.1-1.1-.5-.3-.9-.9-2.1-1.9-3.3l.3-.3zm8.8 17.1c1.6-1.2 3-2.5 3.9-4H585v.1c1.3 1.6 2.8 2.9 4.5 3.9zm-2.6-17.3c1.6.6 2.8 1.5 3 2.1.4.9-.1 1.8-.6 2.1-.5.3-1 0-1.2-.6-.2-.9-.7-2.2-1.5-3.4l.3-.2zm19.5-3.3c.5 0 2 .6 2.6 1.2h2.9c.4-.5.8-.9 1.2-1.2.2-.2.5-.2.8 0 .4.3 1.1.9 1.4 1.3.3.3.2.6-.1.8-.1.1-.4.2-.5.3-1 1.9-2.1 3.6-3.1 4.7 1.9 1.7 2.9 3.7 3.2 5 .3 1.4 0 2.3-.8 3.3-.7.9-1.9 1.5-2.7 1.5-.5 0-.6-.3-.6-.8 0-.4-.1-.7-.3-.9-.4-.4-.9-.6-1.6-1l.1-.4c1.2.2 2.1.3 2.7.3.7 0 1-.4 1-1.4 0-1.5-.8-3.6-2.2-5.5.8-1.5 1.3-3.3 1.6-5h-3c-.1.2-.3.4-.5.6v22c0 .7-1.2 1.1-1.9 1.1-.4 0-.5-.1-.5-.5v-22c0-2.3-.1-2.7-.1-3.1 0-.2.1-.3.4-.3zm12.6 12.2c-1.7 0-2.6.1-3.2.2-.2 0-.3 0-.4-.2-.1-.3-.3-.8-.3-1 0-.2.1-.3.3-.2.9.1 2.6.2 6 .2h10.9c.7-.8 1.5-1.5 2-1.9.3-.2.6-.2.9 0 .5.4 1.4 1.3 1.7 1.6.3.3.3.6 0 .9-.4.3-.9.5-1.5.5h-14.5c.6.3 1.2.7 1.2 1 0 .4-.8.5-1.4.6l-.2.3H632c.4-.5.8-.9 1.2-1.2.2-.2.5-.2.8 0 .4.3 1.1.9 1.4 1.3.3.3.2.6-.1.8-.2.1-.4.3-.6.3-.1 2.7-.3 4.8-.5 6-.2 1-.4 1.4-1.1 2.1-1.4 1.3-3.3 2.3-4.2 2.3-.6 0-.7-.3-.7-.8s0-.8-.4-1.2c-.4-.3-.9-.6-1.7-1l.1-.4c1.6.3 2.8.4 3.7.4 1.1 0 1.8-.4 2-1.5.3-1.2.5-3.5.5-6h-1.9c.5.3 1 .7 1 .9 0 .3-.6.5-1.3.6-2.8 4.2-7.1 7.5-13.5 9l-.2-.5c5.4-2.3 9.8-6.1 11.7-10h-3.3c.5.3.8.7.8.9 0 .4-.6.4-1.2.5-3.2 3.7-7.5 6.3-13.2 7.7l-.2-.5c5.1-2.1 9.4-5.3 11.5-8.6h-3.1c-2.2 2.4-4.8 4-8.3 5.4l-.2-.5c3.7-2.5 6.5-5.3 8-8zm-1.5-12.3c.5 0 2 .6 2.6 1.2h9.8c.4-.5.8-.9 1.2-1.2.2-.2.5-.2.8 0 .4.3 1.1.9 1.4 1.3.3.3.2.6-.1.8-.1.1-.3.2-.5.3v5.5c0 .9-.9 2.5-1.5 2.5-.5 0-1.1-.7-1.4-1.4h-10.3v.1c0 .7-1.2 1.1-1.9 1.1-.3 0-.4-.1-.4-.5v-6.7c0-1.8-.1-2.2-.1-2.6.1-.3.2-.4.4-.4zm12.9 4.5v-2.4h-10.3l-.5.5v1.8h10.8zm-.5 3.4c.4 0 .5-.2.5-.7V445h-10.8v2.4h10.3zm21.1 3.9h-2.7c-4.5 0-6.2.1-7 .3-.2 0-.3 0-.4-.2-.1-.3-.3-.8-.3-1 0-.2.1-.3.3-.2.9.1 2.8.2 7.3.2h7.3V442c0-1.9-.1-2.4-.1-2.7s.1-.4.4-.4c.8 0 3.2.9 3.2 1.5 0 .3-.3.7-.9 1.2v8.9h10c.8-.8 1.6-1.7 2.1-2.1.3-.3.7-.3 1 0 .5.3 1.4 1.2 1.8 1.7.3.3.3.7 0 .9-.3.3-1 .5-1.5.5h-10.4c.7.3 1.2.8 1.2 1s-.3.6-.8.9v6.5c0 2 .3 2.3 3.8 2.3 4.6 0 5-.2 5.3-1 .3-.8.5-2.6.6-4.7h.5c.2 1.8.5 4 .7 4.7.1.4.2.5.5.6.4.1.5.3.5.6 0 .4-.5 1-1.4 1.4-.9.4-2 .6-7 .6-5.1 0-6.1-1-6.1-4.1v-6.6c0-1.5-.1-2.1-.1-2.4H653c.7.3 1.3.8 1.3 1.1 0 .3-.4.6-1 .9-.5 7.1-5.1 10.2-13.2 12l-.2-.6c7.4-2.4 11.1-6.2 11.1-13.3zm-6.5-10.4c3.4 1.2 6.2 3 6.8 3.9.8 1.3.7 2.9 0 3.4-.4.3-1.2.1-1.6-.6-1.1-1.9-3.2-4.3-5.5-6.3l.3-.4zm21.9.1c.2-.4.4-.5.8-.4.8.3 2.8 1.5 2.7 2.1-.1.4-.7.5-1.3.5-1.8 1.9-4.4 4.1-7.1 5.4l-.4-.5c2.5-2.4 4.5-5.2 5.3-7.1zm-399.6 87.4c.1-.3.1-.3.3-.3.5 0 1.6.5 1.6.8 0 .2-.3.4-.7.5-.3.7-.7 1.4-1.1 2.1h3.2c.4-.4.7-.8 1-1 .1-.1.3-.1.5 0 .3.2.7.6.9.8.1.1.1.3 0 .4-.2.1-.5.3-.8.3H268c.3.2.6.4.6.6 0 .1-.2.3-.4.4v8c0 .4-.6.6-1 .6-.2 0-.2-.1-.2-.3v-7.9c0-.9 0-1.2-.1-1.4h-.3c-.8 1.2-1.9 2.2-3.1 3l-.2-.2c1.8-2.1 2.9-4.3 3.5-6.4zm7.6-.1c.1-.2.1-.3.3-.2.5.1 1.6.5 1.6.8 0 .2-.3.4-.6.5-.3.7-.7 1.4-1.2 2.1h3.6c.4-.4.7-.8 1-1 .1-.1.3-.1.5 0 .3.2.7.6.9.8.1.1.1.3 0 .4-.2.1-.5.3-.8.3h-2.3c.4.2.8.4.8.6 0 .1-.2.3-.4.4v6.7c0 .6-1.4 1.8-1.9 1.8-.2 0-.4-.1-.4-.4 0-.5 0-.5-1.7-1.2l.1-.2c1 .1 1.7.2 2.1.2.4 0 .6-.2.6-.7v-5.9c0-.9-.1-1.1-.1-1.3h-2.3c-.9 1.2-2.1 2.4-3.5 3.4l-.2-.2c1.8-2.3 3.2-4.6 3.9-6.9zm7.7 5.3c.5.1 1.3.1 2.9.1h1.6v-.1c0-.7-.1-.9-.1-1h-2.1v.1c0 .3-.6.5-.9.5-.2 0-.2-.1-.2-.2v-3c0-.8-.1-1-.1-1.2 0-.1.1-.2.2-.2.3 0 .9.3 1.2.6h4.9c.2-.2.4-.5.6-.6.1-.1.3-.1.4 0 .2.1.5.5.7.6.1.1.1.3 0 .4-.1.1-.2.1-.3.2v2.2c0 .5-.4 1.1-.7 1.1-.2 0-.5-.3-.6-.6h-2.2c.3.1.6.4.6.5 0 .1-.1.2-.3.4v.3h2.6c.3-.4.6-.7.9-.9.1-.1.3-.1.4 0 .2.2.6.6.8.7.1.1.1.3 0 .4-.2.1-.5.3-.7.3H285c-1.6 0-2.3.1-2.8.1-.1 0-.2 0-.2-.1-.1-.1-.1-.4-.1-.5 0-.1.1-.1.2-.1zm2.3 4.7c.1-.2.1-.2.3-.2.4.1 1.1.5 1.1.7 0 .1-.2.2-.6.3-.6.8-1.9 1.6-3.2 2l-.1-.2c1.1-.8 2.1-1.8 2.5-2.6zm-.8-3.7c.2 0 .9.3 1.2.6h4.8c.2-.2.4-.5.6-.6.1-.1.3-.1.4 0 .2.1.5.5.7.6.1.1.1.3 0 .4-.1.1-.2.1-.3.2v1.1c0 .4-.4 1.1-.7 1.1-.2 0-.5-.3-.6-.6h-2.1c.4.2.7.4.7.5 0 .1-.1.2-.4.4v1.6c0 .5-1.1 1.6-1.5 1.6-.2 0-.3-.1-.3-.3 0-.4 0-.4-1.2-1l.1-.2c.6.1 1.1.1 1.4.1s.5-.1.5-.6v-1c0-.7-.1-.9-.1-1.1h-2.1v.1c0 .3-.5.5-.9.5-.2 0-.2-.1-.2-.2V536c0-.8-.1-1-.1-1.1s0-.2.1-.2zm6.3-4v-.9h-5.1l-.3.3v.7h5.4zm-.2 1.4c.2 0 .2-.1.2-.3v-.7h-5.4v1h5.2zm-.1 5c.1 0 .2-.1.2-.3v-1h-5.1l-.2.3v1h5.1zm-1 1.3c1.3.2 2.2.5 2.5.8.3.3.4 1 .2 1.2-.1.2-.4.2-.6 0-.5-.6-1.3-1.2-2.2-1.8l.1-.2zm8.7-1.1c.2-.2.2-.2.4-.1.3.2 1.1.8 1.1 1 0 .2-.3.3-.7.2-1.8 1.6-4 2.6-7.5 3l-.1-.3c3-.8 5.3-2.1 6.8-3.8zm-.8-4.6c.1-.2.2-.2.4-.2.3.1 1.1.6 1.1.9 0 .2-.3.3-.6.3-1.3 1.4-3.2 2.7-5.8 3.2l-.1-.3c2.3-.9 4-2.4 5-3.9zm-.7-4.2c.1-.2.2-.2.3-.2.4.1 1.2.6 1.2.8 0 .2-.3.3-.6.3-1 1.4-2.4 2.5-4.6 3.2l-.1-.3c1.8-1.1 3.1-2.5 3.8-3.8zm11.6-.2c.2-.1.3-.1.4 0 .3.3.8.9.7 1.1-.1.1-.5.1-.8 0-.7.2-1.5.4-2.3.6.4.2.7.4.7.6 0 .1-.2.3-.4.4v2h1.2c.4-.4.7-.8 1-1 .1-.1.3-.1.5 0 .3.2.7.6.9.8.1.1.1.3 0 .4-.2.1-.5.3-.8.3h-2.7v1c1.3.4 2.3.9 2.6 1.2.4.5.4 1.3.2 1.5-.2.2-.5.2-.7-.1-.5-.7-1.2-1.5-2.1-2.2v6c0 .4-.6.5-1 .5-.2 0-.2-.1-.2-.2v-5.9c-.9 1.9-2.3 3.4-4.1 4.5l-.2-.2c1.9-1.9 3.2-4.1 3.7-6.2h-.7c-1.4 0-2.1.1-2.5.1-.1 0-.2 0-.2-.1-.1-.1-.1-.4-.1-.5 0-.1.1-.1.2-.1.5.1 1.3.1 2.7.1h1.3V530c-1.2.2-2.4.3-3.7.3v-.3c2.4-.2 4.7-.8 6.4-1.7zm2.4 1.2c.3 0 1 .3 1.4.6h3.1c.2-.3.5-.5.6-.7.1-.1.3-.1.5 0 .2.2.6.6.8.7.1.1.1.3-.1.5-.1.1-.2.1-.3.2v8.6c0 .6-.5 1.5-.9 1.5-.3 0-.6-.5-.8-1h-3.3v.5c0 .4-.6.6-1 .6-.2 0-.2-.1-.2-.3v-9.6c0-1.2-.1-1.4-.1-1.5.1 0 .1-.1.3-.1zm4.5 10c.2 0 .3-.1.3-.4v-8.4h-3.4l-.3.3v8.5h3.4zm6.6-6.5c0-1.8-.1-3.1-.2-4 0-.2 0-.3.2-.3.3 0 1.2.3 1.5.6h9c.2-.3.5-.5.6-.7.1-.1.3-.1.5 0 .2.2.6.6.8.7.1.1.1.3-.1.5-.1.1-.2.1-.3.2-.2 2.4-.1 4.5 0 5.9.2 1.6.6 2.8 1.2 3.7l.6-2.4.3.1c-.1 1-.2 2.2-.2 2.6 0 .4.1.6.3.8.1.1.2.2.2.3 0 .3-.3.5-.8.5-1.2 0-2.5-2.3-2.8-4.7-.2-1.6-.3-3.8-.2-6.9h-9.3l-.3.3c0 .7.1 1.9.1 3.1 0 3.5-.7 6.1-3.6 8.4l-.3-.3c2.3-2.7 2.8-4.9 2.8-8.4zm5.4 2.1c-1.1-1.2-2.3-2.2-3.5-3.2l.2-.3c1.3.7 2.6 1.7 3.9 2.7.8-1 1.4-2.1 2-3.1.1-.3.2-.3.4-.2.3.1 1.3.5 1.3.8 0 .2-.4.3-.7.4-.6 1-1.3 1.9-2.1 2.9 1.2 1 2.1 1.9 2.4 2.3.6.8.9 1.9.6 2.3-.2.2-.5.1-.8-.3-.8-1.1-1.8-2.3-3-3.5-1.5 1.6-3.3 3.1-5.2 4.1l-.2-.3c1.8-1.3 3.4-2.9 4.7-4.6zm10.7-3c1.2.1 2.2.4 2.5.7.3.4.4 1.1.1 1.4-.2.2-.6.2-.8-.1-.4-.6-1.1-1.3-2-1.8l.2-.2zm1.3 8.5c.2-.5.3-1.3.1-1.8-.1-.6-.4-.9-1-1.3l.1-.3 1 .4c.3.1.4.1.5-.2.2-.4 2.4-6.6 2.4-6.6l.4.1c-.6 2.2-1.4 5-1.9 7-.2.7-.2 1.2-.1 1.9.1.3 0 .7-.2 1-.3.3-.7.5-1 .5-.2 0-.4-.3-.3-.7zm-.2-12.1c1.3.2 2.3.6 2.6.9.3.4.4 1.1.1 1.4-.2.2-.6.2-.8-.2-.4-.6-1.1-1.3-1.9-1.9v-.2zm3.6 4.7c.4.1 1.3.1 3.1.1h1.9V532h-1.1c-1.5 0-2.2.1-2.6.1-.1 0-.2 0-.2-.1-.1-.1-.1-.4-.1-.5 0-.1.1-.1.2-.1.5.1 1.3.1 2.8.1h1.1v-1.2h-1.7c-1.7 0-2.4.1-2.8.1-.1 0-.2 0-.2-.1-.1-.1-.1-.4-.1-.5 0-.1.1-.1.2-.1.5.1 1.3.1 3 .1h1.7v-.2c0-.9-.1-1.2-.1-1.3 0-.1.1-.2.2-.2.4 0 1.5.4 1.5.7 0 .1-.1.3-.5.6v.3h3c.3-.4.6-.7.9-.9.1-.1.3-.1.4 0 .2.2.6.6.8.7.1.1.1.3 0 .4-.2.1-.5.3-.7.3H348v1.2h2.2c.3-.4.6-.7.9-.9.1-.1.3-.1.4 0 .2.2.6.6.8.7.1.1.1.3 0 .4-.2.1-.5.3-.7.3H348v1.3h3.4c.4-.4.7-.8 1-1 .1-.1.3-.1.4 0 .3.2.7.6.9.8.1.1.1.3 0 .4-.2.1-.5.3-.8.3h-8.1c-1.8 0-2.5.1-3 .1-.1 0-.2 0-.2-.1-.1-.1-.1-.4-.1-.5h.2zm1.6 1.2c.3 0 1.1.3 1.4.6h5.6c.2-.3.5-.5.6-.7.1-.1.3-.1.5 0 .2.2.6.6.8.7.1.1.1.3-.1.5-.1.1-.2.1-.3.2v4.2c0 .6-1.3 1.7-1.8 1.7-.2 0-.3-.1-.3-.4 0-.4 0-.5-1.4-1.1l.1-.2c.8.1 1.3.1 1.7.1.3 0 .5-.1.5-.6v-.7h-6.2v2.3c0 .4-.6.6-1 .6-.2 0-.2-.1-.2-.2V536c0-1-.1-1.3-.1-1.4 0-.1.1-.2.2-.2zm7.3 2.2v-1.1h-5.9l-.3.3v.8h6.2zm0 1.7v-1.1h-6.2v1.1h6.2zm5-2.6c.5.1 1.4.1 3.7.1h3.7v-4.3c0-1.1 0-1.4-.1-1.5H360c-2.1 0-2.8.1-3.3.1-.1 0-.2 0-.2-.1-.1-.1-.1-.4-.1-.5 0-.1.1-.1.2-.1.5.1 1.4.1 3.4.1h8.4c.4-.4.8-.8 1.1-1 .2-.1.3-.1.5 0 .2.2.7.6.9.8.1.1.1.3 0 .5-.2.1-.5.3-.8.3H364c.4.2.7.4.7.6 0 .1-.2.3-.4.4v4.8h5c.4-.5.8-.9 1.2-1.1.2-.1.3-.1.5 0 .3.2.8.6 1 .9.1.1.1.3 0 .5-.2.1-.5.3-.8.3h-6.9v4.8c0 .4-.7.6-1.1.6-.2 0-.3-.1-.3-.3v-5.1h-3.7c-2.3 0-3.1.1-3.5.1-.1 0-.2 0-.2-.1-.1-.1-.1-.4-.1-.5 0-.3.1-.3.2-.3zm2.1-4.8c1.5.8 2.7 1.9 2.9 2.4.3.6.3 1.6-.1 1.9-.2.1-.5.1-.7-.3-.5-1.2-1.3-2.6-2.3-3.8l.2-.2zm10.4.1c.1-.2.1-.3.3-.2.4.1 1.6.5 1.6.8 0 .2-.3.3-.6.4-.6 1.2-1.7 2.5-3 3.4l-.2-.2c1-1.4 1.7-3 1.9-4.2zm9.8 5.4c.1-.2.2-.2.4-.1.3.1 1.2.7 1.2 1 0 .2-.5.3-.8.3-1.1 1.2-3 2.6-4.9 3.3l-.1-.2c1.8-1.4 3.3-3 4.2-4.3zm-2.1-2.7.5-2.6c.1-.6.2-1 .2-1.5 0-.2.1-.2.3-.2.3 0 1 .4 1.3.7 3.2-.4 7.1-1.1 9-1.7.2-.1.3-.1.4.1.2.2.7.8.8 1.1.1.2 0 .3-.2.3s-.5-.1-.8-.2c-2.5.5-6.1.8-9.3.8-.1.1-.3.2-.4.3l-.7 3.7h5V533c0-1-.1-1.3-.1-1.4 0-.1.1-.2.2-.2.4 0 1.6.5 1.6.8 0 .1-.2.3-.5.6v1.7h4.1c.4-.4.8-.8 1.1-1 .2-.1.3-.1.5 0 .2.2.7.6.9.8.1.1.1.3 0 .5-.2.1-.5.3-.8.3h-5.8v4.6c0 .7-1.4 1.9-2 1.9-.2 0-.4-.1-.4-.4 0-.5 0-.6-1.7-1.3l.1-.2c1 .1 1.7.2 2.1.2.4 0 .6-.2.6-.7v-4h-4.4c-.9 0-.6.4-.9.5-.2.1-.9-.1-1.1-.3-.1-.1-.1-.2 0-.4.2-.5.3-.8.4-1.3zm13.3 6.6c-.8-1-2.2-2.4-3.8-3.5l.1-.3c2 .6 3.8 1.6 4.3 2.2.5.6.6 1.6.2 1.9-.3.1-.5 0-.8-.3zm7.7-.2c0-.4-.1-.4-.4-.4-.5 0-.9-.4-.9-.9 0-.6.5-1 1.1-1 .7 0 1.4.5 1.4 1.6 0 1.2-.8 2.5-2.3 3l-.2-.3c.8-.5 1.3-1.2 1.3-2zm15.3-8.6c.4 0 1.6.4 1.6.8 0 .1-.2.3-.5.6v6.8h4.9v-9.6c0-1.2-.1-1.4-.1-1.6 0-.1.1-.2.2-.2.4 0 1.6.4 1.6.8 0 .2-.2.4-.5.6v10h5v-6.4c0-1.2-.1-1.4-.1-1.5 0-.1.1-.2.2-.2.4 0 1.6.4 1.6.8 0 .1-.2.3-.5.6v7.9c0 .3-.7.5-1 .5-.2 0-.3-.1-.3-.3v-.8H413v.6c0 .3-.7.5-1 .5-.2 0-.2-.1-.2-.3v-7.8c0-1.1-.1-1.3-.1-1.5.2-.2.3-.3.4-.3zm18.2-2.5c.3 0 1 .3 1.4.6h2.4c.2-.3.5-.5.6-.7.1-.1.3-.1.5 0 .2.2.6.6.8.7.1.1.1.3-.1.5-.1.1-.2.1-.4.2v6.7c0 .5-.5 1.3-.8 1.3-.3 0-.6-.4-.7-.7h-2.7v1.1c0 .4-.6.6-1 .6-.2 0-.2-.1-.2-.3v-8.3c0-1.1-.1-1.3-.1-1.5.1-.1.2-.2.3-.2zm4 4.2v-3.1h-2.7l-.3.3v2.8h3zm-.2 3.9c.2 0 .3-.1.3-.3v-3h-3v3.4h2.7zm3.5-2.8v-3.2c0-1.7-.1-2-.1-2.1 0-.1.1-.2.2-.2.3 0 1.1.3 1.4.6h3.5c.2-.3.5-.5.6-.7.1-.1.3-.1.5 0 .2.2.6.6.8.7.1.1.1.3-.1.5-.1.1-.2.1-.3.2v9.7c0 .6-1.4 1.8-1.9 1.8-.2 0-.3-.1-.3-.4 0-.5-.1-.5-1.6-1.2l.1-.2c.9.1 1.6.2 2 .2.4 0 .6-.2.6-.7v-2.8h-4.3c-.5 2.4-2 3.9-5.5 5.3l-.1-.3c3.4-2.3 4.5-4 4.5-7.2zm5.3 1.6v-2.8h-4.1v1.2c0 .5 0 1.1-.1 1.5h4.2zm0-3.3v-2.7h-3.8l-.3.3v2.4h4.1zm9.1.4h-2.2c-1.1 0-1.6.1-2.1.1-.1 0-.2 0-.2-.1-.1-.1-.1-.4-.1-.5 0-.1.1-.1.2-.1.5.1 1.1.1 2.2.1h2.1c.2-.3.6-.6.7-.8.1-.1.3-.1.5 0 .3.2.7.6.9.8.1.1.1.3 0 .5-.1.1-.3.2-.5.3-1.1 3.4-3.2 5.7-6.1 7.2l-.2-.2c2.6-2.3 4.2-4.8 4.8-7.3zm4.3-1.3v8.1c0 .7-1.4 1.8-1.9 1.8-.2 0-.3-.1-.3-.4 0-.5-.1-.6-1.6-1.3l.1-.2c1 .1 1.6.2 2 .2.4 0 .6-.2.6-.7V530c0-1.2-.1-1.4-.1-1.5 0-.1.1-.2.2-.2.4 0 1.6.4 1.6.8 0 .2-.2.4-.5.6v.4c.4 1.6 1.1 3 1.9 4.3 1.4-1.1 2.5-2.4 3.3-3.8.1-.2.2-.2.4-.1.5.2 1.4.8 1.4 1.1 0 .2-.4.3-.8.3-.9 1-2.4 2.1-4.1 2.9 1.4 1.9 3.3 3.4 5.6 4.4v.3c-.7.1-.8.2-1 .5-.2.4-.6.4-1.3-.1-2.2-1.6-4.5-4.5-5.5-8.2zm9.3.4c1.2.1 2.2.4 2.5.7.4.4.4 1.1.1 1.4-.2.2-.6.2-.8-.1-.4-.6-1.1-1.3-2-1.8l.2-.2zm.7 5.2 1 .4c.3.1.4.1.5-.2.2-.4 2.4-6.6 2.4-6.6l.4.1c-.6 2.2-1.4 5-1.9 7-.2.7-.2 1.2-.1 1.9.1.3 0 .7-.2 1-.3.3-.7.5-1 .5-.3-.1-.5-.4-.4-.7.2-.5.3-1.2.1-1.7-.1-.6-.4-.9-1-1.3l.2-.4zm.4-8.7c1.3.1 2.3.5 2.6.9.3.4.4 1.1.1 1.4-.2.2-.6.2-.8-.2-.4-.6-1.1-1.3-1.9-1.8v-.3zm4.2 2.5c.4 0 1.5.4 1.5.7 0 .1-.1.3-.4.6v8.8c0 .3-.6.5-.9.5-.2 0-.2-.1-.2-.2v-8.7c0-1.1-.1-1.3-.1-1.5-.1-.2 0-.2.1-.2zm0-2.7.1-.2c1.4.3 2.4.7 2.6 1.1.3.4.3 1.2-.1 1.5-.2.1-.5.1-.7-.2-.3-.8-1.1-1.6-1.9-2.2zm1.6 9.7c.5.1 1.2.1 2.5.1h.2v-2.6c-1 0-1.5.1-1.9.1-.1 0-.2 0-.2-.1-.1-.1-.1-.4-.1-.5 0-.1.1-.1.2-.1.4.1 1.1.1 2.1.1v-1.2c0-.8 0-1-.1-1.2-1.1 0-1.7.1-2.2.1-.1 0-.2 0-.2-.1-.1-.1-.1-.4-.1-.5 0-.1.1-.1.2-.1.5.1 1.2.1 2.4.1h1.7c.3-.4.6-.7.9-.9.1-.1.3-.1.4 0 .2.2.6.6.8.7.1.1.1.3 0 .4-.2.1-.5.3-.7.3H476c.3.1.6.4.6.5 0 .1-.1.3-.4.4v1.5h.6l.8-.8c.1-.1.3-.1.4 0 .2.2.6.5.7.7.1.1.1.3 0 .4-.2.1-.5.2-.7.2h-1.8v2.6h.8c.3-.4.6-.7.9-.9.1-.1.3-.1.4 0 .2.2.6.6.8.7.1.1.1.3 0 .4-.2.1-.5.3-.7.3H475c-1.2 0-1.9.1-2.3.1-.1 0-.2 0-.2-.1-.1-.1-.1-.4-.1-.5 0 0 0-.1.1-.1zm2.5-8.7c.5.1 1.1.1 2.3.1h2.1c.2-.3.5-.5.6-.7.1-.1.3-.1.5 0 .2.2.6.6.8.7.1.1.1.3-.1.5-.1.1-.2.1-.3.2v9.6c0 .6-1.4 1.8-1.9 1.8-.2 0-.3-.1-.3-.4 0-.5 0-.6-1.6-1.3l.1-.2c1 .1 1.6.2 2 .2.4 0 .6-.2.6-.7V530h-2.4c-1.2 0-1.7.1-2.1.1-.1 0-.2 0-.2-.1-.1-.1-.1-.4-.1-.5-.1-.1-.1-.1 0-.1zm10-.1c.3 0 1 .3 1.3.6h1.4c.2-.2.4-.5.6-.6.1-.1.3-.1.4 0 .2.1.5.5.7.6.1.1.1.3 0 .4-.1.1-.2.1-.3.1v7.5c0 .5-.5 1.3-.7 1.3-.3 0-.5-.4-.7-.7h-1.6v1.1c0 .3-.6.5-.9.5-.2 0-.2-.1-.2-.2v-9c0-1.1-.1-1.3-.1-1.5 0-.1 0-.1.1-.1zm3 4.5v-3.4h-1.6l-.3.3v3.1h1.9zm-.3 4.3c.2 0 .2-.1.2-.3v-3.4H486v3.8h1.7zm4.8-3c-1.7 0-2.4.1-2.8.1-.1 0-.2 0-.2-.1-.1-.1-.1-.4-.1-.5 0-.1.1-.1.2-.1.5.1 1.3.1 3 .1h.1c.1-.5.2-.9.2-1.4-1.6 0-2.3.1-2.7.1-.1 0-.2 0-.2-.1-.1-.1-.1-.4-.1-.5 0-.1.1-.1.2-.1.5.1 1.3.1 2.9.1h3.4c.6-.9 1-1.8 1.3-2.6.1-.2.1-.2.2-.2.4.1 1.2.5 1.2.6 0 .2-.3.3-.6.3-.5.6-1.1 1.3-1.7 1.8h1.3l.8-.8c.1-.1.3-.1.4 0 .2.2.6.5.7.7.1.1.1.3 0 .4-.2.1-.5.2-.7.2H494c.3.1.5.3.5.4 0 .1-.2.3-.5.3 0 .2-.1.4-.1.6h4.5c.3-.4.6-.7.9-.9.1-.1.3-.1.4 0 .2.2.6.6.8.7.1.1.1.3 0 .4-.2.1-.5.3-.7.3h-6c-.1.5-.3.9-.5 1.3h4c.2-.2.4-.5.6-.6.1-.1.3-.1.4 0 .2.1.5.5.7.6.1.1.1.3 0 .4s-.3.2-.5.2c-.6.9-1.4 1.7-2.3 2.3 1.3.5 2.8.8 4.5.8v.2c-.6.3-.7.4-.7.7-.1.4-.4.4-1.1.2-1.4-.3-2.5-.8-3.6-1.4-1.4.8-3.2 1.3-5.4 1.6l-.1-.3c1.8-.5 3.4-1.1 4.7-1.9-.7-.5-1.3-1.2-1.9-1.9-1.1 1.7-2.8 3.1-5.3 3.9l-.1-.3c2.9-1.2 4.6-3.1 5.3-5.6zm6-6.8c.1-.1.2-.1.3.1.2.3.5.7.6.9.1.2 0 .3-.2.3-.1 0-.3-.1-.5-.1-2.6.5-5.8.8-9 .7v-.3c2.9-.2 6.4-.6 8.8-1.6zm-7.6 2.1c.8.3 1.4.6 1.6.9.2.4.1.9-.2 1.1-.2.1-.5.1-.6-.2-.1-.5-.5-1.1-.9-1.7l.1-.1zm4.3 8.5c.8-.6 1.5-1.2 1.9-2H493v.1c.6.8 1.4 1.5 2.2 1.9zm-1.2-8.6c.8.3 1.4.8 1.5 1.1.2.4 0 .9-.3 1.1-.2.1-.5 0-.6-.3-.1-.5-.3-1.1-.7-1.7l.1-.2zm9.7-1.5c.3 0 1.1.3 1.4.6h2.1c.3-.3.5-.5.7-.6.1-.1.3-.1.4 0l.7.7c.1.1.1.3 0 .4-.1 0-.2.1-.3.1-.6 1.2-1.2 2.2-1.9 3.1 1.5 1.4 2.1 2.6 2.2 3.6.1.8-.1 1.3-.6 1.8s-1.2.8-1.7.8c-.3 0-.4-.1-.4-.3 0-.3-.1-.5-.3-.6-.2-.2-.5-.4-1-.6l.1-.2c.9.1 1.5.2 2 .2s.7-.3.7-.9c0-1.1-.5-2.2-1.7-3.7.6-1 1-2.2 1.3-3.2h-2.2l-.3.3V541c0 .4-.6.6-1 .6-.2 0-.2-.1-.2-.2v-10.7c0-1.2-.1-1.4-.1-1.6-.1-.2 0-.3.1-.3zm13.1.2c.2-.1.3-.1.4 0 .2.2.5.4.7.6.1.1.1.3 0 .4l-.2.2v9.3c0 .6-.5 1.7-.9 1.7-.3 0-.6-.7-.8-1.2h-4.7v.6c0 .4-.6.6-1 .6-.2 0-.2-.1-.2-.2v-10.2c0-1.2-.1-1.4-.1-1.5 0-.1.1-.2.2-.2.3 0 1 .3 1.3.6h4.5c.4-.4.6-.5.8-.7zm-.3 5.3v-4.2h-4.9l-.2.2v4h5.1zm-.3 5.2c.2 0 .3-.1.3-.4v-4.3h-5.1v4.7h4.8zm9.8-5h-1.4c-2.3 0-3.1.1-3.5.1-.1 0-.2 0-.2-.1-.1-.1-.1-.4-.1-.5 0-.1.1-.1.2-.1.5.1 1.4.1 3.7.1h3.7v-4.3c0-1-.1-1.2-.1-1.3 0-.1.1-.2.2-.2.4 0 1.6.4 1.6.8 0 .1-.2.3-.5.6v4.5h5c.4-.4.8-.8 1.1-1 .2-.1.3-.1.5 0 .2.2.7.6.9.8.1.1.1.3 0 .5-.2.1-.5.3-.8.3h-5.2c.3.2.6.4.6.5 0 .1-.2.3-.4.5v3.2c0 1 .1 1.2 1.9 1.2 2.3 0 2.5-.1 2.6-.5.1-.4.3-1.3.3-2.3h.3c.1.9.3 2 .4 2.4.1.2.1.3.3.3.2.1.3.2.3.3 0 .2-.3.5-.7.7-.5.2-1 .3-3.5.3-2.6 0-3-.5-3-2V536c0-.8 0-1-.1-1.2h-2.9c.4.2.7.4.7.6s-.2.3-.5.5c-.3 3.5-2.5 5.1-6.6 6l-.1-.3c3.4-1.6 5.3-3.5 5.3-7.1zm-3.3-5.2c1.7.6 3.1 1.5 3.4 2 .4.6.4 1.4 0 1.7-.2.2-.6.1-.8-.3-.5-.9-1.6-2.2-2.8-3.1l.2-.3zm11 .1c.1-.2.2-.3.4-.2.4.1 1.4.7 1.4 1.1 0 .2-.4.2-.7.3-.9 1-2.2 2-3.5 2.7l-.2-.2c1.2-1.4 2.2-2.8 2.6-3.7zm-303.2 20.7c.1-.3.1-.3.3-.3.4 0 1.6.4 1.6.7 0 .2-.3.3-.6.4-.3 1.1-.9 2.2-1.6 3.3.4.2.7.4.7.6 0 .1-.1.3-.4.4v7.5c0 .4-.6.5-1 .5-.2 0-.2-.1-.2-.2v-7.5c-.7.8-1.4 1.5-2.3 2.2l-.2-.2c1.8-2.3 3.2-5.2 3.7-7.4zm4 0c.1-.3.1-.3.3-.3.4.1 1.6.4 1.6.8 0 .2-.3.4-.7.5l-.6 1.2h6l.8-.8c.1-.1.3-.1.5 0 .3.2.7.6.9.9.1.2.1.3-.1.4-.1.1-.4.1-.6.2-.5.8-1.1 1.5-1.7 2.2l-.2-.1c.3-.8.6-1.5.7-2.2h-6.6c-.7 1.2-1.6 2.4-3 3.5l-.2-.2c1.5-2.1 2.4-4.2 2.9-6.1zm-.4 6c.1-.3.1-.3.3-.3.4 0 1.5.5 1.5.7 0 .2-.3.3-.6.4-.7 1.6-1.6 3-3.3 4.4l-.2-.2c1.1-1.5 2-3.3 2.3-5zm.4 5.2c.9.1 1.6.2 2 .2.4 0 .6-.2.6-.7v-5.4c0-.9-.1-1.1-.1-1.3 0-.1.1-.2.2-.2.4 0 1.5.4 1.5.7 0 .1-.2.3-.4.5v6.2c0 .7-1.4 1.8-1.9 1.8-.2 0-.4-.1-.4-.4 0-.5 0-.6-1.6-1.3l.1-.1zm5.3-5.4c1.7 1.2 3 2.6 3.3 3.4s.1 1.7-.4 1.9c-.3.1-.5-.1-.7-.5-.5-1.4-1.4-3.1-2.5-4.5l.3-.3zm14 6.7c-2.2-.4-3.5-1.1-4.4-2.6-.7 1.5-1.9 2.4-4 3.2l-.1-.2c2.1-1.5 3.1-2.9 3.3-5 0-.2.1-.2.3-.2.4 0 1.5.3 1.5.6 0 .1-.3.3-.5.4-.1.2-.1.5-.2.7.8 1.3 1.8 1.9 3.4 2.2v-3c0-.8 0-1.1-.1-1.3h-3.7c-2.3 0-3.1.1-3.5.1-.1 0-.2 0-.2-.1-.1-.1-.1-.4-.1-.5 0-.1.1-.1.2-.1.5.1 1.4.1 3.7.1h10c.4-.4.8-.8 1.1-1 .2-.1.3-.1.5 0 .2.2.7.6.9.8.1.1.1.3 0 .5-.2.1-.5.3-.8.3H254c.4.2.7.4.7.6 0 .1-.1.3-.4.4v1h3.6c.4-.4.7-.8 1-1 .1-.1.3-.1.5 0 .3.2.7.6.9.8.1.1.1.3 0 .4-.2.1-.5.3-.8.3h-5.1v2c2.2.2 5.1.1 7.7-.3l.1.2c-.4.3-.5.5-.5.8 0 .4-.3.5-.9.5-2.7-.2-5.2-.3-7-.6zm-5.3-12.4c.3 0 1.1.3 1.4.6h7.4c.2-.3.5-.5.6-.7.1-.1.3-.1.5 0 .2.2.6.6.8.7.1.1.1.3-.1.5-.1.1-.2.1-.3.2v3.2c0 .5-.5 1.3-.8 1.3-.3 0-.6-.4-.7-.7h-7.7v.1c0 .4-.6.6-1 .6-.2 0-.2-.1-.2-.3v-4c0-1-.1-1.2-.1-1.4 0 0 .1-.1.2-.1zm9.1 2.6v-1.5h-7.7c-.1.1-.1.2-.3.3v1.2h8zm-.4 2.1c0-.1 0-.1 0 0 .3 0 .4-.1.4-.4v-1.2h-8v1.5h7.6zm8.9-3.4c.3 0 1.2.4 1.5.7h2.4c.4-.7.7-1.5.8-2.2 0-.2.1-.2.3-.2.5.1 1.7.4 1.7.7 0 .2-.3.3-.6.4-.3.5-1 1-1.6 1.4h5.6c.2-.3.6-.6.7-.8.1-.1.3-.1.5 0 .3.2.7.6.9.8.1.1.1.4 0 .5-.1.1-.2.1-.4.2v8.8c0 .6-.5 1.5-.9 1.5-.3 0-.6-.5-.8-1h-8.9v.4c0 .4-.6.6-1 .6-.2 0-.2-.1-.2-.3v-9.7c0-1.2-.1-1.4-.1-1.6-.1-.1 0-.2.1-.2zm10.4 3.7v-2.5h-9l-.3.3v2.3h9.3zm0 3.1v-2.5h-9.3v2.5h9.3zm-.3 3.4c.2 0 .3-.1.3-.4v-2.5h-9.3v2.9h9zm5.9-6.8c.5.1 1 .1 2 .1h.2c.2-.3.5-.5.6-.7.1-.1.3-.1.5 0 .2.2.6.6.8.7.1.1.1.3-.1.5-.1.1-.2.1-.4.2v4.8c1.1-.4 2.2-.8 3.1-1.2l.1.2c-1.2 1-3 2-4.6 2.8-.1.3-.2.6-.3.6-.3 0-.7-1-.8-1.4 0-.1 0-.2.2-.3l1-.3v-5.5h-.4c-1 0-1.4.1-1.8.1-.1 0-.2 0-.2-.1-.1-.1-.1-.4-.1-.5h.2zm1.1-4.5.1-.2c1.4.4 2.4 1 2.8 1.4.3.4.3 1.2 0 1.5-.2.2-.6.2-.8-.2-.5-.7-1.2-1.7-2.1-2.5zm3.9 4.1c.5.1 1.3.1 3.1.1h2.1v-2.1H291c-1.5 0-2.2.1-2.6.1-.1 0-.2 0-.2-.1-.1-.1-.1-.4-.1-.5 0-.1.1-.1.2-.1.5.1 1.3.1 2.8.1h1.2v-.7c0-.9-.1-1.1-.1-1.3 0-.1.1-.2.2-.2.4 0 1.5.4 1.5.7 0 .1-.1.3-.5.6v.9h2.1c.3-.4.6-.7.9-.9.1-.1.3-.1.4 0 .2.2.6.6.8.7.1.1.1.3 0 .4-.2.1-.5.3-.7.3h-3.5v2.1h2.9c.4-.4.7-.8 1-1 .1-.1.3-.1.5 0 .3.2.7.6.9.8.1.1.1.3 0 .4-.2.1-.5.3-.8.3h-7.7c-1.8 0-2.5.1-2.9.1-.1 0-.2 0-.2-.1-.1-.1-.1-.4-.1-.5-.1-.1-.1-.2.1-.1zm.8 2.5c.5.1 1.3.1 3 .1h3.9v-.4c0-.8-.1-1.1-.1-1.2 0-.1.1-.2.2-.2.4 0 1.5.4 1.5.7 0 .1-.2.3-.5.6v.5h.7l.8-.8c.1-.1.3-.1.4 0 .2.2.6.5.7.7.1.1.1.3 0 .4-.2.1-.5.2-.7.2h-1.9v3.8c0 .6-1.4 1.8-2 1.8-.2 0-.4-.1-.4-.4 0-.5 0-.5-1.7-1.3l.1-.2c1 .1 1.7.2 2.2.2.4 0 .6-.2.6-.7v-3.2h-3.9c-1.7 0-2.4.1-2.8.1-.1 0-.2 0-.2-.1-.1-.1-.1-.4-.1-.5 0 0 .1-.1.2-.1zm1.3 1.4c1.4.1 2.5.5 2.8.8.4.4.4 1.1.2 1.4-.2.2-.5.2-.7-.1-.6-.7-1.4-1.4-2.3-1.9v-.2zm11.5 2.8c.5.1 1.4.1 3.7.1h9.7c.4-.5.8-.8 1.2-1.1.2-.1.3-.1.5 0 .3.2.8.6 1 .9.1.1.1.3 0 .5-.2.1-.5.3-.8.3h-11.6c-2.3 0-3.1.1-3.5.1-.1 0-.2 0-.2-.1-.1-.1-.1-.4-.1-.5-.1-.2 0-.3.1-.2zm1.3-9.6c.4.1 1.3.1 3.3.1h7.4c.4-.5.8-.8 1.2-1.1.2-.1.3-.1.5 0 .3.2.8.6 1 .9.1.1.1.3 0 .5-.2.1-.5.3-.8.3h-9.3c-2 0-2.7.1-3.2.1-.1 0-.2 0-.2-.1-.1-.1-.1-.4-.1-.5 0-.2.1-.2.2-.2zm1.6 4.6c.5.1 1.3.1 2.9.1h4.9c.4-.4.8-.8 1.1-1 .2-.1.3-.1.5 0 .2.2.7.6.9.8.1.1.1.3 0 .5-.2.1-.5.3-.8.3h-6.6c-1.6 0-2.3.1-2.7.1-.1 0-.2 0-.2-.1-.1-.1-.1-.4-.1-.5-.1-.2 0-.2.1-.2zm15.3-5.3c.5.1 1.4.1 3.7.1h10c.4-.5.8-.9 1.1-1.1.2-.1.3-.1.5 0 .3.2.8.6 1 .9.1.1.1.3 0 .5-.2.1-.5.3-.8.3h-7.2c.4.2.8.4.8.6s-.3.3-.6.3c-.5.7-1.1 1.3-1.8 1.8h5.3c.2-.3.6-.6.7-.8.1-.1.3-.1.5 0 .3.2.7.6.9.8.1.1.1.3 0 .5-.1.1-.2.1-.4.2v6.7c0 .6-.5 1.6-.9 1.6-.3 0-.7-.6-.8-1.1h-8.1v.5c0 .4-.7.6-1 .6-.2 0-.3-.1-.3-.3v-7.7c0-1.1-.1-1.4-.1-1.5 0-.1.1-.2.2-.2.3 0 1.1.3 1.4.6h2.1c.6-.9 1.1-1.9 1.3-2.7h-3.7c-2.3 0-3.1.1-3.5.1-.1 0-.2 0-.2-.1-.1-.1-.1-.4-.1-.5-.2-.1-.1-.1 0-.1zm12.3 6.9v-3.1H323l-.3.3v2.8h8.5zm-.3 3.8c.2 0 .3-.1.3-.4v-2.9h-8.6v3.3h8.3zm8.3-5v-.6c0-.9-.1-1.2-.1-1.4 0-.1.1-.2.2-.2.3 0 1 .3 1.3.6h9.6c.2-.2.4-.5.6-.6.1-.1.3-.1.4 0 .2.1.5.5.7.6.1.1.1.3 0 .4-.1.1-.2.1-.3.1v.9c0 .4-.4 1-.7 1-.2 0-.5-.2-.6-.5h-9.9v.5h.1c.3 0 .9.3 1.2.6h9c.2-.2.4-.5.6-.6.1-.1.3-.1.4 0 .2.1.5.5.7.6.1.1.1.3 0 .4-.1.1-.2.1-.3.1v2.8c0 .6-1.2 1.6-1.6 1.6-.2 0-.3-.1-.3-.3 0-.4 0-.5-1.2-1l.1-.2c.7.1 1.2.1 1.5.1.3 0 .5-.1.5-.6v-.5h-2.6v1.8c0 .3-.5.5-.9.5-.1 0-.2-.1-.2-.2v-2.1h-2.3v1.8c0 .3-.5.5-.9.5-.1 0-.2-.1-.2-.2v-2.1h-2.5v2.1c0 .3-.6.5-.9.5-.2 0-.2-.1-.2-.2v-4.6c-.3 1.8-1.2 3.4-3.1 4.7l-.2-.2c1.6-2.1 2.1-4 2.1-6.1zm.6-6.6c.1-.2.1-.3.3-.2.5.1 1.4.5 1.4.7 0 .2-.3.3-.6.3-.1.2-.3.3-.4.5h3.2c.3-.4.6-.7.9-.9.1-.1.3-.1.4 0 .2.2.6.6.8.7.1.1.1.3 0 .4-.2.1-.5.3-.7.3h-3c.6.1.9.4 1 .6.2.4.1.9-.2 1-.2.1-.5 0-.5-.3-.2-.5-.5-.9-1-1.3H340c-.7.7-1.6 1.4-2.6 1.9l-.1-.2c1.2-1.1 2.1-2.5 2.5-3.5zm-1.4 3.5c.5.1 1.4.1 3.4.1h8.8c.3-.4.6-.7.9-.9.1-.1.3-.1.4 0 .2.2.6.6.8.7.1.1.1.3 0 .4-.2.1-.5.3-.7.3h-10.2c-2.1 0-2.8.1-3.3.1-.1 0-.2 0-.2-.1-.1-.1-.1-.4-.1-.5 0-.1.1-.1.2-.1zm11.9 3.1c.1 0 .2-.1.2-.3v-.8h-9.9c-.1.1-.1.2-.2.3v.8h9.9zm-6.4 3.5v-.4c0-.6 0-.9-.1-1h-2.2l-.2.2v1.2h2.5zm1.3-1c0 .1-.1.2-.3.3v.6h2.3v-.4c0-.6 0-.9-.1-1h-2.5c.4.2.6.4.6.5zm1.9-9.1c.1-.2.1-.3.3-.2.5.1 1.4.5 1.4.7 0 .2-.3.3-.6.3-.1.2-.3.3-.4.5h3.6c.3-.4.6-.7.9-.9.1-.1.3-.1.4 0 .2.2.6.6.8.7.1.1.1.3 0 .4-.2.1-.5.3-.7.3h-3.5c.6.2.9.4 1 .6.2.4 0 .8-.2 1-.2.1-.5 0-.5-.2-.2-.5-.5-.9-.9-1.3h-1.3c-.6.6-1.4 1.2-2.3 1.5l-.1-.2c1-1 1.7-2.3 2.1-3.2zm1.5 9.1c0 .1-.1.2-.3.3v.6h2.6v-1.4h-2.8c.2.2.5.4.5.5zm8.4-7c.3 0 1.2.3 1.5.7h4.6v-1.1c0-1.3-.1-1.5-.1-1.7 0-.1.1-.2.2-.2.4 0 1.7.5 1.7.8 0 .1-.2.4-.5.6v1.6h4.6c.2-.3.6-.6.7-.8.1-.1.3-.1.5 0 .3.2.7.6.9.8.1.1.1.4 0 .5-.1.1-.2.1-.4.2v3.9c0 .5-.6 1.5-.9 1.5-.3 0-.6-.5-.8-.9h-4.6v4.6c0 .4-.7.6-1.1.6-.2 0-.3-.1-.3-.3V558h-4.9v.3c0 .4-.7.6-1 .6-.2 0-.3-.1-.3-.3v-4.8c0-1.1-.1-1.4-.1-1.5.1-.1.1-.2.3-.2zm6 5.4v-4.2h-4.6c-.1.1-.2.2-.3.4v3.8h4.9zm6 0c.2 0 .3-.1.3-.4v-3.8h-5v4.2h4.7zm11.3-.8h-2.4c-2.3 0-3.1.1-3.5.1-.1 0-.2 0-.2-.1-.1-.1-.1-.4-.1-.5 0-.1.1-.1.2-.1.5.1 1.4.1 3.7.1h3.6v-4h-3c-2.1 0-2.8.1-3.3.1-.1 0-.2 0-.2-.1-.1-.1-.1-.4-.1-.5 0-.1.1-.1.2-.1.4.1 1.4.1 3.4.1h3v-.1c0-1.2-.1-1.5-.1-1.6 0-.1.1-.2.2-.2.4 0 1.6.4 1.6.8 0 .1-.2.3-.5.6v.6h4.1c.4-.4.8-.8 1.1-1 .2-.1.3-.1.5 0 .2.2.7.6.9.8.1.1.1.3 0 .5-.2.1-.5.3-.8.3h-5.8v4h1.4c.9-1.2 1.6-2.4 1.9-3.5.1-.2.1-.2.3-.2.4.1 1.4.5 1.4.7 0 .1-.2.3-.5.3-.6.8-1.5 1.9-2.6 2.6h3c.4-.5.8-.9 1.1-1.1.2-.1.3-.1.5 0 .3.2.8.6 1 .9.1.1.1.3 0 .5-.2.1-.5.3-.8.3h-6c2 2.3 4.3 3.5 7.1 4.1v.2c-.8.3-.8.4-.9.7-.1.4-.5.4-1.2.1-2.3-.9-4.3-2.9-5.6-5.1h-.1v5.9c0 .4-.7.6-1 .6-.2 0-.2-.1-.2-.3v-5.5c-2.1 2.6-4.7 4.1-7.7 5l-.1-.3c2.9-1.7 5.1-3.4 6.5-5.6zm-3.4-4.1c1.2.6 2.2 1.4 2.5 1.8.3.5.1 1.2-.2 1.5-.3.2-.6.1-.7-.3-.3-.9-.9-1.9-1.7-2.8l.1-.2zm19.9 9.1c0-.4-.1-.4-.4-.4-.5 0-.9-.4-.9-.9 0-.6.5-1 1.1-1 .7 0 1.4.5 1.4 1.6 0 1.2-.8 2.5-2.3 3l-.2-.3c.8-.5 1.3-1.2 1.3-2zm15.8-11.3h.3c.1.3.1.6.1.9h5.1v-.4c0-.8-.1-.8-.1-1 0-.1.1-.2.2-.2.4 0 1.5.4 1.5.7 0 .2-.2.4-.4.5v.4h5.3l.7-.7c.1-.1.3-.1.4 0 .3.2.6.6.8.8.1.1.1.3-.1.4-.1.1-.3.1-.5.2l-1 .9.1.1c.1.1.1.2 0 .3-.1.1-.5.2-.7.2h-2.6v1h1.5c.2-.3.5-.5.6-.6.1-.1.3-.1.4 0 .1.1.5.4.6.6.1.1.1.2 0 .3-.1.1-.5.2-.7.2h-2.3v1h3.1c.3-.4.6-.7.9-.9.1-.1.3-.1.4 0 .2.2.6.6.8.7.1.1.1.3 0 .4-.2.1-.5.3-.7.3h-4.7c1.5 1 3.5 1.6 5.8 1.7v.2c-.5.2-.6.3-.6.6-.1.3-.3.3-.9.3-.9-.1-2.1-.6-3.1-1.2l.2.2c.1.1.1.2 0 .3-.1.1-.5.2-.7.2h-3.2c.2.1.3.3.3.4 0 .1-.3.2-.6.1-.7.4-1.4.7-2.3 1 .3.1.5.3.5.4s-.1.2-.3.3v.6c1.6-.1 3.2-.3 4.8-.4-.7-.4-1.4-1-2-1.6l.2-.2c.5.4 1.1.7 1.7 1 .8-.5 1.5-1.1 2-1.6.1-.1.1-.1.3 0 .3.2.9.6.8.8 0 .1-.3.2-.5.1-.6.4-1.4.7-2.2.9.4.2.8.3 1.3.5 1.2.4 2.6.5 4.2.5v.2c-.5.2-.6.3-.6.6s-.3.4-.8.3c-1.2-.1-2.5-.5-3.8-1.2-2.6.5-5.7 1-8.2 1.3-.1.3-.2.4-.4.4-.3 0-.5-.9-.5-1.2 0-.1 0-.1.2-.2.8 0 1.6-.1 2.5-.1v-1.1c-1.3.4-2.8.6-4.4.7v-.3c2.5-.4 5.1-1.3 6.6-2.2-1.4 0-2 .1-2.4.1-.1 0-.2 0-.2-.1-.1-.1-.1-.3-.1-.4-1.3.5-2.8.8-4.2 1l-.1-.3c2.3-.6 4.5-1.5 5.7-2.6h-1.5c-2.3 0-3.1.1-3.5.1-.1 0-.2 0-.2-.1-.1-.1-.1-.4-.1-.5 0-.1.1-.1.2-.1.5.1 1.4.1 3.7.1h1.3v-1c-1.6 0-2.3.1-2.7.1-.1 0-.2 0-.2-.1-.1-.1-.1-.4-.1-.5 0-.1.1-.1.2-.1.4.1 1.3.1 2.9.1v-1c-1.7 0-2.4.1-2.9.1-.1 0-.2 0-.2-.1-.1-.1-.1-.4-.1-.5 0-.1.1-.1.2-.1.4.1 1.3.1 3 .1v-.1c0-.7-.1-.9-.1-1.1H413c0 .1 0 .2-.1.3-.2.7-.7 1.2-1.2 1.3-.3.1-.6-.1-.7-.3-.1-.4.1-.8.5-1 .7-.3 1-.9 1.1-1.7zm4.8 7.9h1.1v-.5c0-.7-.1-.7-.1-.9 0-.1.1-.1.2-.1.3 0 1.3.4 1.3.6 0 .2-.2.3-.4.4v.5h1.7c.2-.3.5-.5.6-.6 0 0 .1 0 .1-.1-.5-.3-.9-.7-1.3-1.1H417c.3.2.6.4.5.5 0 .1-.3.2-.6.2-.5.4-1.1.7-1.8 1 .4.1 1.2.1 2.3.1zm-.1-6c0 .1-.1.3-.3.5v.3h3.6v-.1c0-.7-.1-1-.1-1.1h-3.8c.3.1.6.2.6.4zm3.3 2.2v-1H417v1h3.6zm0 1.6v-1H417v1h3.6zm1.4-3.8c0 .1-.1.3-.3.5v.3h1.8c.2-.3.5-.5.6-.6.1-.1.3-.1.4 0 .1.1.2.1.3.3l.3-.8h-3.6c.2 0 .5.1.5.3zm13.3 5.7h-2.6c-2.3 0-3.1.1-3.5.1-.1 0-.2 0-.2-.1-.1-.1-.1-.4-.1-.5 0-.1.1-.1.2-.1.5.1 1.4.1 3.7.1h3.9v-.4c0-.6 0-.7-.1-.8h-3v.2c0 .3-.6.5-.9.5-.2 0-.2-.1-.2-.2v-2.1c0-.8-.1-1.1-.1-1.2 0-.1.1-.2.2-.2.3 0 .9.3 1.2.6h6.7c.2-.2.4-.5.6-.6.1-.1.3-.1.4 0 .2.1.5.5.7.6.1.1.1.3 0 .4-.1 0-.1.1-.2.1v1.3c0 .5-.5 1.2-.8 1.2-.3 0-.5-.4-.7-.7h-3c.3.1.6.3.6.5 0 .1-.2.3-.4.4v.4h5.5c.4-.4.7-.8 1-1 .1-.1.3-.1.5 0 .3.2.7.6.9.8.1.1.1.3 0 .4-.2.1-.5.3-.8.3h-1.5c.3.2.8.7.8.9 0 .2-.3.2-.6.1-.8.4-1.9.8-3 1 1.3.8 3 1.3 4.9 1.6v.2c-.6.2-.7.3-.8.6-.1.4-.4.4-.9.3-1.1-.3-2.1-.8-3.1-1.4-2.7.6-6 1.1-8.7 1.5-.1.3-.3.4-.4.4-.3 0-.6-1-.6-1.3 0-.1 0-.1.2-.2.8-.1 1.7-.1 2.6-.2v-.1c0-.9 0-1.4-.1-1.6-1.4.5-3 .7-4.8.8v-.3c2.6-.5 4.8-1.2 6.5-2.3zm-5.7-4.6c.6-.4 1.1-1.2 1.1-2.1h.3c.1.3.1.7.2 1h2.8c-.5-.7-1.2-1.4-1.9-1.8l.1-.2c1.2.2 2.2.6 2.4.8.3.3.3.9.2 1.2h1.8v-1.1c0-.8-.1-1-.1-1.2 0-.1.1-.2.2-.2.4 0 1.5.4 1.5.7 0 .1-.2.3-.5.6v1.2h1.5c.6-.7 1.2-1.4 1.5-2 .1-.1.1-.2.3-.1.4.1 1.2.6 1.2.9 0 .2-.3.2-.7.2-.4.3-1 .7-1.7 1h3.2l.8-.8c.1-.1.3-.1.4 0 .3.2.8.6 1 .9.1.1.1.3-.1.4-.1.1-.3.1-.5.2l-1.4 1.6-.3-.1.4-1.6h-12.2c0 .3 0 .6-.1.8-.2.7-.7 1.2-1.3 1.3-.4.1-.6-.1-.7-.4.1-.6.2-1 .6-1.2zm10.9 2.3c.2 0 .3-.1.3-.3v-1.1h-7l-.3.3v1.1h7zm-5.4 4.4c0 .1-.1.3-.4.4v1c1.8-.1 3.6-.3 5.3-.5-1-.8-1.8-1.7-2.4-2.9h-1.3c.3.3.5.6.5.8-.1.2-.4.1-.7.1-.5.3-1.1.5-1.7.7.4 0 .7.2.7.4zm5-.3c1.1-.6 1.9-1.2 2.6-1.8h-4.5c.5.7 1.1 1.3 1.9 1.8zm7.1-6.1c1.2.1 2.2.3 2.5.7.4.4.5 1.1.2 1.4-.2.2-.5.2-.8-.1-.4-.5-1.1-1.2-2-1.7l.1-.3zm.7 5.4 1 .3c.3.1.4 0 .5-.2.2-.4 2.4-6.8 2.4-6.8l.4.1c-.6 2.3-1.4 5.2-1.9 7.3-.2.7-.2 1.2-.1 1.8.1.3 0 .6-.2.9-.3.3-.7.5-1 .5-.3-.1-.5-.4-.4-.7.2-.5.3-1.1.1-1.6-.1-.6-.4-.9-1-1.3l.2-.3zm.3-8.9c1.3.1 2.3.5 2.6.8.3.4.4 1 .1 1.4-.2.2-.6.2-.9-.2-.4-.6-1.1-1.3-1.9-1.8l.1-.2zm6.3 6.9c.1-.2.2-.3.4-.2.4.1 1.3.5 1.3.8 0 .2-.3.3-.6.3-.9 1.2-2.3 2.2-4 2.8l-.1-.3c1.3-.9 2.4-2.1 3-3.4zm-2.7-2c.3.1 1 .1 2 .1v-2.9c0-.8-.1-1.1-.1-1.2 0-.1.1-.2.2-.2.4 0 1.4.4 1.4.7 0 .1-.1.3-.4.5v3.1h2.3v-4c0-.9-.1-1.1-.1-1.2 0-.1.1-.2.2-.2.4 0 1.5.4 1.5.7 0 .1-.2.3-.4.5v1.4h2.1c.4-.4.7-.8 1-1 .1-.1.3-.1.5 0 .3.2.7.6.9.8.1.1.1.3 0 .4-.2.1-.5.3-.8.3h-3.6v2.3h3c.4-.4.8-.8 1.1-1 .2-.1.3-.1.5 0 .2.2.7.6.9.8.1.1.1.3 0 .5-.2.1-.5.3-.8.3H458c.4.2.8.4.8.6 0 .1-.2.3-.4.4v3.2c0 .4-.6.5-1 .5-.2 0-.2-.1-.2-.2V557c0-.9-.1-1.1-.1-1.3h-2.3c-1.8 0-2.6.1-3 .1-.1 0-.2 0-.2-.1-.1-.1-.1-.4-.1-.5.1-.1.1-.1.3-.1zm9.5 2.1c.1-.2.1-.3.4-.2.5.1 1.4.5 1.4.8 0 .2-.3.3-.6.4-1.6 3-4.8 4.7-10.4 4.9v-.3c5.1-.8 8-2.4 9.2-5.6zm9.1-2.6h-2.2c-1.1 0-1.6.1-2.1.1-.1 0-.2 0-.2-.1-.1-.1-.1-.4-.1-.5 0-.1.1-.1.2-.1.5.1 1.1.1 2.2.1h2.1c.2-.3.6-.6.7-.8.1-.1.3-.1.5 0 .3.2.7.6.9.8.1.1.1.3 0 .5-.1.1-.3.2-.5.3-1.1 3.4-3.2 5.7-6.1 7.2l-.2-.2c2.6-2.3 4.2-4.8 4.8-7.3zm4.3-1.3v8.1c0 .7-1.4 1.8-1.9 1.8-.2 0-.3-.1-.3-.4 0-.5-.1-.6-1.6-1.3l.1-.2c1 .1 1.6.2 2 .2.4 0 .6-.2.6-.7v-9.2c0-1.2-.1-1.4-.1-1.5 0-.1.1-.2.2-.2.4 0 1.6.4 1.6.8 0 .2-.2.4-.5.6v.4c.4 1.6 1.1 3 1.9 4.3 1.4-1.1 2.5-2.4 3.3-3.8.1-.2.2-.2.4-.1.5.2 1.4.8 1.4 1.1 0 .2-.4.3-.8.3-.9 1-2.4 2.1-4.1 2.9 1.4 1.9 3.3 3.4 5.6 4.4v.3c-.7.1-.8.2-1 .5-.2.4-.6.4-1.3-.1-2.3-1.6-4.6-4.5-5.5-8.2zm13.9 8.4c0-.4-.1-.4-.4-.4-.5 0-.9-.4-.9-.9 0-.6.5-1 1.1-1 .7 0 1.4.5 1.4 1.6 0 1.2-.8 2.5-2.3 3l-.2-.3c.8-.5 1.3-1.2 1.3-2zm20.4.9c-2.1-.3-3.5-.8-4.5-2.5-.4 1-1 2-2.2 2.9l-.2-.2c1.5-2 1.7-3.7 1.7-6 0-.2.1-.2.2-.2.3 0 1.3.3 1.3.6 0 .1-.2.3-.4.4 0 .6-.1 1.2-.2 1.9.4.7.9 1.2 1.5 1.6v-4.2c0-.8 0-1-.1-1.2h-1c-1.3 0-2 .1-2.4.1-.1 0-.2 0-.2-.1-.1-.1-.1-.4-.1-.5 0-.1.1-.1.2-.1.5.1 1.3.1 2.6.1h.8v-2.4h-.3c-1.2 0-1.9.1-2.3.1-.1 0-.2 0-.2-.1-.1-.1-.1-.4-.1-.5 0-.1.1-.1.2-.1.5.1 1.2.1 2.4.1h.3v-1c0-.8-.1-1.1-.1-1.2 0-.1.1-.2.2-.2.3 0 1.4.4 1.4.7 0 .1-.1.3-.4.5v1.2h.6c.3-.4.6-.7.9-.9.1-.1.3-.1.4 0 .2.2.6.6.8.7.1.1.1.3 0 .4-.2.1-.5.3-.7.3H507v2.4h1.1c.3-.4.6-.7.9-.9.1-.1.3-.1.4 0 .2.2.6.6.8.7.1.1.1.3 0 .4-.2.1-.5.3-.7.3H507c.3.2.6.4.6.5 0 .1-.1.3-.4.4v1.6h.9l.7-.7c.1-.1.2-.1.4 0s.5.4.6.6c.1.1.1.3 0 .4-.2.1-.4.2-.6.2h-2v2.8c.5.1 1.1.2 1.8.3 2.6.3 7 .1 9.9-.3l.1.2c-.4.3-.5.5-.5.8 0 .4-.3.5-1 .5-2.6 0-5.8-.1-8.5-.4zm.9-3.7c.3-.1.6-.2 1-.3v-5.2c0-.9-.1-1.1-.1-1.2 0-.1.1-.2.2-.2.2 0 .9.3 1.2.6h1.4v-1c0-.8 0-1.3-.1-1.7 0-.1 0-.2.2-.2.4 0 1.3.4 1.3.6 0 .2-.2.4-.4.5 0 .6 0 1.2.1 1.7h2l.8-.8c.1-.1.3-.1.4 0 .2.2.6.5.7.7.1.1.1.3 0 .4-.2.1-.5.2-.7.2h-3.2c.1 1.6.4 2.8.8 3.7.5-.9.8-1.8 1.1-2.8.1-.2.1-.3.2-.2.3.1 1.3.4 1.3.6 0 .1-.2.3-.6.4-.4 1.1-.8 2.1-1.5 3 .4.7.9 1.2 1.4 1.5l.7-2.4h.3c-.1.9-.1 1.7-.1 2.1 0 .5.1.6.3.8.1.1.2.2.2.3 0 .3-.5.5-.9.5-.7 0-1.8-.7-2.6-2-1 1.1-2.2 2-3.9 2.6l-.1-.2c1.5-1 2.6-2.1 3.5-3.3-.6-1.3-1-2.9-1.2-4.8h-1.4l-.2.2v4.9c.7-.3 1.4-.5 2-.8l.1.2c-.9.7-2.2 1.5-3.4 2.1-.1.3-.1.5-.3.5-.2 0-.6-.8-.6-1.1-.1.2-.1.2.1.1zm5.3-9c.9.1 1.7.4 1.9.7.3.3.3 1 0 1.2-.2.1-.5 0-.6-.2-.3-.5-.8-1-1.4-1.5l.1-.2zm10.8.3c.1-.1.3-.1.4 0l.7.7c.1.1.1.3 0 .4-.1.1-.2.1-.4.2-.6 1.2-1.2 2.4-1.9 3.2 1.4 1.1 2 2.2 2.2 3.2.1.7 0 1.3-.5 1.8s-1.1.8-1.5.8c-.3 0-.4-.1-.4-.4s-.1-.4-.2-.5c-.2-.2-.5-.4-1-.6l.1-.2c.8.2 1.4.2 1.8.2.4 0 .6-.2.6-.8 0-1-.5-2.2-1.8-3.3.6-1.1 1-2.3 1.2-3.5h-2l-.3.3v11c0 .4-.6.6-1 .6-.2 0-.2-.1-.2-.3v-11c0-1.2-.1-1.4-.1-1.6 0-.1.1-.2.2-.2.3 0 1.1.3 1.4.6h1.9c.4-.2.6-.4.8-.6zm1.5.8c.5.1 1.3.1 2.9.1h4.5c.4-.4.8-.8 1.1-1 .2-.1.3-.1.5 0 .2.2.7.6.9.8.1.1.1.3 0 .5-.2.1-.5.3-.8.3h-3.9c.3.1.7.3.7.4 0 .2-.3.3-.5.3-.3.6-.8 1.3-1.5 1.8h3.3c.2-.2.4-.5.6-.6.1-.1.3-.1.4 0 .2.1.5.5.7.6.1.1.1.3 0 .4-.1.1-.1.1-.2.1v6.8c0 .5-.5 1.5-.8 1.5-.3 0-.6-.5-.7-1h-5v.4c0 .3-.6.6-1 .6-.2 0-.2-.1-.2-.3v-7.6c0-1.1-.1-1.3-.1-1.4 0-.1.1-.2.2-.2.3 0 1 .3 1.3.6h1.2c.4-.8.7-1.9.8-2.6h-1.4c-1.6 0-2.3.1-2.7.1-.1 0-.2 0-.2-.1-.1-.1-.1-.4-.1-.5-.1 0-.1 0 0 0zm7.4 6.8v-3.1h-5.1l-.3.3v2.8h5.4zm-.3 3.8c.2 0 .3-.1.3-.4v-3h-5.4v3.3h5.1zm6.4-6.2v-2.2c0-1.7-.1-2-.1-2.2 0-.1.1-.2.2-.2.4 0 1.2.4 1.5.7h5v-.5c0-.9-.1-1-.1-1.2 0-.1.1-.2.2-.2.4 0 1.5.4 1.5.7 0 .2-.2.4-.5.5v.6h4c.4-.4.8-.8 1.1-1 .2-.1.3-.1.5 0 .2.2.7.6.9.8.1.1.1.3 0 .5-.2.1-.5.3-.8.3h-12l-.3.3v3.3c0 3.2-.5 5.2-3.1 7.5l-.3-.2c2-2.6 2.3-4.5 2.3-7.5zm6.7 5.7c-1.1-.7-2-1.5-2.8-2.6-.8 0-1.2.1-1.5.1-.1 0-.2 0-.2-.1-.1-.1-.1-.4-.1-.5 0-.1.1-.1.2-.1.5.1 1.2.1 2.9.1h5.4c.2-.3.5-.5.6-.7.1-.1.3-.1.5 0 .2.2.6.6.8.7.1.1.1.3-.1.5-.1.1-.3.2-.5.3-.8 1-1.8 1.7-2.8 2.4 1.5.5 3.4.7 5.5.7v.3c-.6.3-.7.4-.7.6-.1.5-.4.5-1 .4-1.7-.2-3.5-.6-5.1-1.4-2 .9-4.4 1.3-7.3 1.5l-.1-.4c2.3-.5 4.5-1 6.3-1.8zm-5-7.3c.4.1 1.1.1 2.5.1 0-.9-.1-1.1-.1-1.3 0-.1.1-.2.2-.2.3 0 1.4.4 1.4.7 0 .1-.1.3-.4.5v.2h4.1c0-.9-.1-1.1-.1-1.2 0-.1.1-.2.2-.2.4 0 1.5.4 1.5.7 0 .1-.1.3-.4.5v.2h.9c.4-.4.7-.8 1-1 .1-.1.3-.1.5 0 .3.2.7.6.9.8.1.1.1.3 0 .4-.2.1-.5.3-.8.3h-2.4v2.4c0 .3-.6.5-1 .5-.2 0-.2-.1-.2-.2v-.5h-4.1v.3c0 .3-.6.4-.9.4-.2 0-.2-.1-.2-.2v-2.6c-1.4 0-2 .1-2.4.1-.1 0-.2 0-.2-.1-.1-.1-.1-.4-.1-.5 0-.1 0-.1.1-.1zm6 6.8c1.1-.6 2.1-1.3 2.7-2.2h-5.8c.7.9 1.8 1.7 3.1 2.2zm1.9-4.6v-1.6h-4.1v1.6h4.1zm8.2-5.8c.3 0 1.1.3 1.4.6h2c.3-.3.5-.5.7-.6.1-.1.3-.1.4 0l.7.7c.1.1.1.3 0 .4-.1.1-.2.1-.3.2-.6 1.3-1.3 2.4-2 3.2 1.4 1.1 2.1 2.2 2.2 3.2.1.7 0 1.2-.5 1.7s-1.1.8-1.5.8c-.3 0-.4-.1-.4-.4 0-.3-.1-.4-.2-.5-.2-.2-.5-.4-1-.6l.1-.2c.8.2 1.4.2 1.8.2.5 0 .6-.2.6-.8 0-1-.5-2.2-1.7-3.3.6-1.1 1.1-2.4 1.3-3.5h-2.1l-.3.3v11c0 .4-.6.6-1 .6-.2 0-.2-.1-.2-.3v-11c0-1.2-.1-1.4-.1-1.6-.1 0 0-.1.1-.1zm13.1 0c.2-.1.3-.1.4 0 .3.3.8 1 .7 1.2-.1.2-.6.1-.8 0-.9.2-1.9.4-3.1.5.4.2.8.4.8.6 0 .1-.2.3-.5.4v3h2c.4-.5.8-.9 1.1-1.1.2-.1.3-.1.5 0 .3.2.8.6 1 .9.1.1.1.3 0 .5-.2.1-.5.3-.8.3h-3.9v6.1c0 .4-.7.6-1 .6-.2 0-.2-.1-.2-.3v-6.4h-1.3c-1.6 0-2.3.1-2.7.1-.1 0-.2 0-.2-.1-.1-.1-.1-.4-.1-.5 0-.1.1-.1.2-.1.5.1 1.3.1 2.9.1h1.3v-2.5c0-.9 0-1.2-.1-1.4-1.3.1-2.7.2-3.9.2v-.3c2.7-.4 5.9-1 7.7-1.8zm-183.8-62.7c0-.1.4-.2.4-.1.3.9.8 1.7 2 1.7s2-.7 2-1.8c0-1.4-1.5-2-3.1-1.5-.1 0-.3-.5-.1-.6 1.9-.3 2.7-1.1 2.7-2 0-.7-.6-1.1-1.3-1.1-.8 0-1.5.4-2 1.2-.1.1-.5-.2-.4-.3.5-.9 1.6-1.7 2.9-1.7 1.1 0 2 .6 2 1.6 0 .8-.6 1.5-1.5 2 1.3 0 2.2.8 2.2 2.1 0 1.6-1.5 2.7-3.5 2.7-.7 0-1.5-.2-1.9-.4-.3-.1-.4-1.5-.4-1.8zm7-.8c0-2.6 2-5 4.9-5.3.1 0 .3.5.1.5-2.3.5-3.6 2-3.9 3.9.5-.7 1.4-1.2 2.4-1.2 1.2 0 2.4.7 2.4 2.2 0 1.8-1.5 2.9-3.1 2.9-1.4 0-2.8-1-2.8-3zm3.1 2.4c1 0 1.8-.8 1.8-2 0-1.1-.8-1.7-1.7-1.7-.7 0-1.5.4-2 1.3.1 1.5.7 2.4 1.9 2.4zm4 2.6c.6 0 .8-.1.8-1.2V486c0-.8-.2-1-.7-1-.1 0-.1-.1-.1-.2s0-.1.1-.2c.6-.1 1.1-.3 1.6-.6.1 0 .2 0 .2.1v.7c.6-.5 1.2-.8 2-.8 1.5 0 2.7.9 2.7 2.5 0 1.9-1.5 3.2-3.2 3.2-.6 0-1.1-.2-1.5-.5v1.2c0 1.2.1 1.2.9 1.2.1 0 .1.1.1.2s0 .2-.1.2h-2.7c-.1 0-.1-.1-.1-.2v-.1zm3.5-2.4c1 0 1.9-.7 1.9-2.3 0-1.3-.8-2.3-1.9-2.3-.6 0-1.2.3-1.7.8v2.5c.3.7.9 1.3 1.7 1.3zm5.8-6.4c0-.1.3-.1.3 0v1.2h2.1c.2 0 0 .5-.2.5h-1.8v3.2c0 .8.4 1.1.9 1.1.3 0 .6-.1.9-.2.1-.1.3.2.2.3-.4.3-1.2.7-1.8.7-.7 0-1.3-.6-1.3-1.6v-3.4h-.8c-.1 0-.2-.3-.1-.3.7-.3 1.3-.8 1.6-1.5zM390 580.1h-1.3c-.1 0-.1-.5 0-.5.8 0 1.8-.4 2.4-1 .1-.1.3 0 .3.1v6c0 1.3.3 1.6 1.5 1.6.1 0 .1.1.1.2 0 .2 0 .3-.1.3h-4.2c-.1 0-.1-.1-.1-.3 0-.1 0-.2.1-.2 1.3 0 1.5-.3 1.5-1.6v-4.4c0-.2 0-.2-.2-.2zm4.3 4.7c0-1.1.7-1.8 1.8-2.3-.9-.4-1.6-.9-1.6-1.8 0-1.3 1.2-2.1 3-2.1 1.7 0 2.7.7 2.7 1.7s-1 1.6-2.1 1.9c1.2.4 2.3 1 2.3 2.3 0 1.4-1.4 2.4-3.3 2.4-1.4 0-2.8-.7-2.8-2.1zm3.1 1.6c1.2 0 1.9-.7 1.9-1.5 0-1.1-1.3-1.6-2.5-2-.9.4-1.3 1-1.3 1.9 0 .9.7 1.6 1.9 1.6zm.1-4.4c1-.2 1.7-.8 1.7-1.5 0-.8-.7-1.4-1.8-1.4s-1.8.6-1.8 1.4c0 .8.9 1.2 1.9 1.5zm4.2 6.9c.6 0 .8-.1.8-1.2v-4.5c0-.8-.2-1-.7-1-.1 0-.1-.1-.1-.2s0-.1.1-.2c.6-.1 1.1-.3 1.6-.6.1 0 .2 0 .2.1v.7c.6-.5 1.2-.8 2-.8 1.5 0 2.7.9 2.7 2.5 0 1.9-1.5 3.2-3.2 3.2-.6 0-1.1-.2-1.5-.5v1.2c0 1.1.1 1.2.9 1.2.1 0 .1.1.1.2s0 .2-.1.2h-2.7c-.1 0-.1-.1-.1-.2-.1 0 0-.1 0-.1zm3.5-2.4c1 0 1.9-.7 1.9-2.3 0-1.3-.8-2.3-1.9-2.3-.6 0-1.2.3-1.7.8v2.5c.3.8.9 1.3 1.7 1.3zm5.8-6.3c0-.1.3-.1.3 0v1.2h2.1c.2 0 0 .5-.2.5h-1.8v3.2c0 .8.4 1.1.9 1.1.3 0 .6-.1.9-.2.1-.1.3.2.2.3-.4.3-1.2.7-1.8.7-.7 0-1.3-.6-1.3-1.6V582h-.8c-.1 0-.2-.3-.1-.3.7-.3 1.3-.9 1.6-1.5zm-23.7-178.7 4.8-5.2c.1-.1.5 0 .5.2v4.7h1.6c.2 0 0 .8-.1.8h-1.5v.6c0 1.3.2 1.5 1.2 1.5.1 0 .1.1.1.2 0 .2 0 .3-.1.3h-3.4c-.1 0-.1-.1-.1-.3 0-.1 0-.2.1-.2 1.1 0 1.2-.2 1.2-1.5v-.6h-4.2c-.1-.1-.2-.5-.1-.5zm4.3-.4v-3.4l-3.1 3.4h3.1zm3.5 1.3c0-1.1.7-1.8 1.8-2.3-.9-.4-1.6-.9-1.6-1.8 0-1.3 1.2-2.1 3-2.1 1.6 0 2.7.7 2.7 1.7s-1 1.6-2.1 1.9c1.2.4 2.3 1 2.3 2.3 0 1.4-1.4 2.4-3.3 2.4-1.5 0-2.8-.7-2.8-2.1zm3.1 1.6c1.2 0 1.9-.7 1.9-1.5 0-1.1-1.3-1.6-2.5-2-.9.4-1.3 1-1.3 1.9 0 .9.7 1.6 1.9 1.6zm.1-4.4c1-.2 1.6-.8 1.6-1.5 0-.8-.7-1.4-1.8-1.4s-1.7.6-1.7 1.4c0 .9.9 1.2 1.9 1.5zm4.2 6.9c.6 0 .8-.1.8-1.2v-4.5c0-.8-.2-1-.7-1-.1 0-.1-.1-.1-.2s0-.1.1-.2c.6-.1 1.1-.3 1.5-.6.1 0 .2 0 .2.1v.7c.6-.5 1.2-.8 2-.8 1.5 0 2.7.9 2.7 2.5 0 1.9-1.5 3.2-3.2 3.2-.6 0-1.1-.2-1.5-.5v1.2c0 1.1.1 1.2.9 1.2.1 0 .1.1.1.2s0 .2-.1.2h-2.7c-.1 0-.1-.1-.1-.2 0 0 0-.1.1-.1zm3.4-2.4c1 0 1.9-.7 1.9-2.3 0-1.3-.8-2.3-1.9-2.3-.6 0-1.2.3-1.6.8v2.5c.2.8.9 1.3 1.6 1.3zm5.7-6.3c0-.1.3-.1.3 0v1.2h2c.2 0 0 .5-.2.5H412v3.2c0 .8.4 1.1.9 1.1.3 0 .6-.1.9-.2.1-.1.3.2.2.3-.4.3-1.2.7-1.8.7-.7 0-1.3-.6-1.3-1.6v-3.4h-.8c-.1 0-.2-.3-.1-.3.8-.3 1.4-.9 1.6-1.5zM386.5 170h-1.3c-.1 0-.1-.5 0-.5.8 0 1.8-.4 2.4-1 .1-.1.3 0 .3.1v6c0 1.3.3 1.6 1.5 1.6.1 0 .1.1.1.2 0 .2 0 .3-.1.3h-4c-.1 0-.1-.1-.1-.3 0-.1 0-.2.1-.2 1.3 0 1.5-.3 1.5-1.6v-4.4c-.1-.2-.2-.2-.4-.2zm10.3 1.5c0 2.5-1.5 4.9-4.7 5.5-.1 0-.3-.5-.1-.5 2.1-.7 3.3-1.9 3.6-3.8-.5.7-1.4 1.1-2.4 1.1-1.3 0-2.4-.8-2.4-2.3 0-1.7 1.5-2.8 3.2-2.8 1.4-.1 2.8.6 2.8 2.8zm-3.1 1.4c.7 0 1.5-.3 2-1.2 0-1.6-.7-2.5-1.9-2.5-1.1 0-1.8.7-1.8 1.9-.1 1.2.8 1.8 1.7 1.8zm4.5 3.3c1-1.7 4.1-3.4 4.1-5.3 0-.9-.6-1.5-1.5-1.5s-1.7.5-2.3 1.5c-.1.2-.6-.1-.5-.3.5-1.2 1.8-2.1 3.2-2.1 1.2 0 2.2.6 2.2 2 0 2.3-3.1 3.6-4.3 5.2h2.2c1.4 0 1.7-.3 2.2-1.4 0-.1.4 0 .4.1-.1.6-.2 1.4-.4 2 0 .2-.1.2-.3.2h-4.9c0 .1-.2-.3-.1-.4zm7.1 2.7c.6 0 .8-.1.8-1.2v-4.5c0-.8-.2-1-.7-1-.1 0-.1-.1-.1-.2s0-.1.1-.2c.6-.1 1.1-.3 1.5-.6.1 0 .2 0 .2.1v.7c.6-.5 1.2-.8 2-.8 1.5 0 2.7.9 2.7 2.5 0 1.9-1.5 3.2-3.2 3.2-.6 0-1.1-.2-1.5-.5v1.2c0 1.1.1 1.2.9 1.2.1 0 .1.1.1.2s0 .2-.1.2h-2.7c-.1 0-.1-.1-.1-.2s0-.1.1-.1zm3.4-2.5c1 0 1.9-.7 1.9-2.3 0-1.3-.8-2.3-1.9-2.3-.6 0-1.2.3-1.6.8v2.5c.3.8.9 1.3 1.6 1.3zm5.7-6.3c0-.1.3-.1.3 0v1.2h2c.2 0 0 .5-.2.5h-1.8v3.2c0 .8.4 1.1.9 1.1.3 0 .6-.1.9-.2.1-.1.3.2.2.3-.4.3-1.2.7-1.8.7-.7 0-1.3-.6-1.3-1.6v-3.4h-.6c-.1 0-.2-.3-.1-.3.7-.3 1.3-.8 1.5-1.5zm-184.9 44.1c.4-1.3.6-1.4 1.6-1.3 2.5.2 8.4 2.4 8.4 4 0 1-1.8 1.9-3.6 2.5-1.6 3.7-3.6 7.5-6 11h16.9c1.9-2.1 3.9-4.1 5.3-5.2.8-.6 1.7-.6 2.4-.1 1.4 1.1 3.8 3.4 4.6 4.3.7.8.7 1.7-.1 2.3-1 .7-2.5 1.3-4 1.3h-19.5c1.8 1 3.5 2.1 3.5 3 0 .8-.9 1.4-2.3 2.3V281c0 2-3.4 3-5.3 3-1 0-1.2-.4-1.2-1.3v-42.2c0-4.8-.2-6.4-.3-7.3h-1.7c-4.5 6.2-10.1 11.8-16.3 16l-1-1.2c9.3-10.9 15.4-22.4 18.6-33.8zm40.5-.4c.4-1.2.7-1.4 1.7-1.2 2.4.4 8.4 2.4 8.4 4 0 1.1-1.8 2-3.5 2.5-1.7 3.8-3.8 7.6-6.4 11.3h19.3c1.9-2.1 3.9-4.1 5.3-5.2.8-.6 1.7-.6 2.4-.1 1.4 1.1 3.8 3.4 4.6 4.3.7.8.7 1.7-.1 2.3-1 .7-2.5 1.3-4 1.3h-12.1c2.1 1 4.2 2.3 4.2 3.3 0 .8-.9 1.5-2.2 2.3v35.9c0 3.5-7.6 9.5-10.4 9.5-1.2 0-1.9-.7-1.9-2 0-2.7-.2-2.9-8.9-6.6l.4-1.2c5.2.7 8.9 1 11.1 1 1.9 0 3.1-.9 3.1-3.8v-31.2c0-4.8-.3-6-.3-7h-12.3c-5 6.6-11.2 12.9-18.9 18l-1-1.2c10.3-11.6 17.7-24.1 21.5-36.2zm39 28c2.4.4 6.9.5 15.6.5h8.7v-.8c0-3.6-.3-4.6-.3-5.4h-11.4v.7c0 1.6-3 2.7-4.7 2.7-.9 0-1.2-.3-1.2-1.2v-15.8c0-4.5-.3-5.6-.3-6.3 0-.7.3-1 1-1 1.3 0 4.9 1.5 6.4 3h26.3c1.1-1.2 2.2-2.5 3.2-3.3.6-.5 1.3-.5 2 0 1.1.8 2.9 2.4 3.8 3.5.7.8.5 1.6-.2 2.1-.5.3-1.1.6-1.6.9v11.8c0 2.4-2.3 6-3.8 6-1.2 0-2.7-1.6-3.4-3.1h-11.7c1.7.8 3.4 1.9 3.4 2.7 0 .7-.7 1.2-1.8 1.9v1.5h13.6c1.7-1.9 3.5-3.6 4.9-4.7.8-.6 1.6-.6 2.3-.1 1.2.9 3.5 3 4.2 3.9.6.7.7 1.6-.1 2.2-1 .8-2.5 1.3-3.7 1.3h-35.6c-8.7 0-12.5.3-14.7.7-.6.1-.9 0-1.2-.5-.4-.7-.7-2-.7-2.8.2-.3.5-.5 1-.4zm12.4 25c.5-.9.8-1.1 1.4-.9 2.2.7 6 2.7 6 3.7 0 .8-1.2 1.2-3 1.3-3.3 4.2-9.9 8.5-17.2 10.5l-.5-1c5.8-3.9 10.9-9.3 13.3-13.6zm-4.5-19.4c1.2 0 4.9 1.5 6.3 3h25.5c1.1-1.2 2.2-2.5 3.2-3.3.6-.5 1.3-.5 2 0 1.1.8 2.9 2.4 3.8 3.5.7.8.5 1.6-.2 2.1-.5.3-1.1.6-1.6.9v6c0 2.2-2.2 5.9-3.6 5.9-1.2 0-2.6-1.5-3.4-3h-11.1c1.9.9 3.6 2 3.6 2.9 0 .6-.8 1.2-2 2v8.5c0 2.9-6 8.4-8.2 8.4-1 0-1.5-.6-1.5-1.8 0-2.1-.1-2.2-6.2-5.2l.3-1c3.4.4 6 .6 7.5.6s2.4-.7 2.4-3.3v-5.5c0-3.8-.3-4.9-.3-5.7H322v.7c0 1.6-2.9 2.7-4.6 2.7-.9 0-1.2-.3-1.2-1.2v-10.3c0-4.2-.3-5.4-.3-6s.3-.9 1-.9zm33.6-21.6v-5H323l-1.3 1.4v3.6h28.8zm-1.2 7.8c.9 0 1.2-.4 1.2-1.5v-3.6h-28.8v5.2h27.6zm-.1 26.3c.8 0 1.1-.4 1.1-1.4V253h-27l-1.2 1.3v5.6h27.1zm-5.3 7.2c7.2 1 11.8 2.6 13.3 4.2s2 5.2 1.1 6.5c-.7 1-2.2 1.2-3.4-.2-2.8-3.4-6.7-6.6-11.5-9.4l.5-1.1zm46-6.1c.9-1 1.2-1.1 2.1-.6 1.7.9 5.7 4 5.7 5.6 0 1.1-1.8 1.3-3.7 1.2-9.6 8.4-21.5 14.1-40.2 15.8l-.3-1.5c16.4-4.4 28.4-11.6 36.4-20.5zm-3.9-24.2c.7-1 1.1-1.2 2-.9 1.5.6 6 3.5 6 4.8 0 1-1.6 1.4-3.4 1.5-6.7 7.6-16.9 14.4-30.8 17l-.4-1.4c12.2-5.4 21-13 26.6-21zm-4.2-22.8c.5-1 .9-1.2 1.8-1 1.9.6 6.4 3.3 6.4 4.5 0 1.1-1.5 1.5-3.4 1.8-5.1 7.3-12.6 13.4-24.4 17.2l-.8-1.4c10.1-6.4 16.7-13.8 20.4-21.1zm60.3-.9c1.2-.6 1.5-.5 2.1.1 1.6 1.6 4.5 4.9 3.8 6-.5.8-2.4.7-4.4.1-3.6 1.2-7.8 2.3-12.3 3.2 2 1 3.8 2.2 3.8 3.2 0 .7-.9 1.4-2.3 2.3v10.8h6.4c1.9-2.1 3.9-4.1 5.3-5.2.8-.6 1.7-.6 2.4-.1 1.4 1.1 3.8 3.4 4.6 4.3.7.8.7 1.7-.1 2.3-1 .7-2.5 1.3-4 1.3h-14.6v5.6c7 1.9 12.5 4.8 13.9 6.5 2 2.4 2.2 6.7.9 8.2-1 1.1-2.7 1-3.8-.7-2.7-3.8-6.5-8.1-10.9-11.7v32.1c0 1.9-3.4 2.9-5.2 2.9-1 0-1.2-.4-1.2-1.2v-31.2c-4.9 10.3-12.4 18-21.8 23.8l-1.1-1.2c10.2-10.3 17-21.7 20-33h-3.9c-7.7 0-11.3.3-13.5.7-.6.1-.9 0-1.2-.5-.4-.7-.7-2-.7-2.8 0-.5.3-.7.9-.6 2.4.4 6.8.5 14.5.5h6.8v-8.4c0-3.9-.1-5.9-.2-6.8-6.1.9-12.9 1.4-19.6 1.4l-.1-1.4c14-2.5 26.3-5.9 35.5-10.5zm12.6 6.4c1.5 0 5.6 1.7 7.3 3.4h16.6c1.2-1.4 2.5-2.8 3.5-3.6.8-.7 1.7-.7 2.5-.1 1.2.9 3.4 3 4.1 3.9.7.8.5 1.8-.3 2.4-.4.3-1 .6-1.5.9v46c0 3-2.8 8.1-4.6 8.1-1.5 0-3.4-2.9-4.1-5.1h-17.7v2.9c0 2-3.4 3.2-5.3 3.2-1 0-1.2-.4-1.2-1.3v-51.3c0-6.2-.3-7.4-.3-8.3-.1-.8.3-1.1 1-1.1zm24 53.1c1.2 0 1.5-.6 1.5-2.1v-45H462c-.4.5-1 1.1-1.6 1.7v45.4h18.3zm33.7-34.5c0-9.6-.4-16.4-1.2-21.4-.2-1.1.2-1.6 1.1-1.6 1.8 0 6.1 1.7 7.9 3.4h48.2c1.2-1.4 2.5-2.8 3.5-3.6.8-.7 1.7-.7 2.5-.1 1.2.9 3.4 3 4.1 3.9.7.8.5 1.8-.3 2.4-.5.4-1.1.7-1.6.9-.9 12.9-.6 24.2.2 31.4 1 8.4 3.2 15.1 6.5 19.6l3.4-13.1 1.8.4c-.7 5.2-1.2 11.7-1.1 14 .1 2.1.3 3.2 1.5 4.2.7.6.9 1.2.9 1.8 0 1.3-1.8 2.5-4.1 2.5-6.2 0-13.2-12-15.1-25.2-1.2-8.7-1.6-20.3-.9-36.6h-49.3c-.4.6-.9 1.1-1.3 1.4.2 3.9.4 10.4.4 16.4 0 18.9-3.7 32.4-19 45l-1.3-1.3c10.1-13.8 13.2-25.5 13.2-44.4zm28.8 11.4c-6-6.1-12.5-12-18.5-17.1l1.2-1.5c6.8 3.9 14.1 9.2 20.5 14.3 4.1-5.5 7.7-11.1 10.5-16.6.7-1.3 1-1.5 2.3-1.2 1.7.5 6.7 2.9 6.7 4.4 0 1.1-2 1.6-3.8 1.9-3.2 5.2-6.8 10.4-10.9 15.3 6.1 5.2 10.9 9.9 13 12.5 3.2 4 4.7 10.4 3.2 12-.9 1-2.8.7-4.3-1.4-4.1-5.7-9.7-12.1-15.7-18.5-8.1 8.7-17.5 16.4-27.8 22.1l-1.2-1.4c8.8-7.2 17.5-15.9 24.8-24.8zm-147.4 46.4c0 2.5-1.5 4.9-4.8 5.5-.1 0-.3-.5-.1-.5 2.1-.7 3.3-1.9 3.6-3.8-.5.7-1.5 1.1-2.4 1.1-1.3 0-2.5-.8-2.5-2.3 0-1.7 1.5-2.8 3.2-2.8 1.6-.1 3 .7 3 2.8zm-3.2 1.4c.7 0 1.5-.3 2-1.2 0-1.6-.7-2.5-1.9-2.5-1.1 0-1.8.7-1.8 1.9s.8 1.8 1.7 1.8zm4.5 1c0-2.6 2-5 4.9-5.3.1 0 .3.5.1.5-2.3.5-3.6 2-3.9 3.9.5-.7 1.4-1.2 2.4-1.2 1.2 0 2.4.7 2.4 2.2 0 1.8-1.5 2.9-3.1 2.9-1.4 0-2.8-1-2.8-3zm3.1 2.4c1 0 1.8-.8 1.8-2 0-1.1-.8-1.7-1.7-1.7-.7 0-1.5.4-2 1.3 0 1.5.7 2.4 1.9 2.4zm4 2.6c.6 0 .8-.1.8-1.2v-4.5c0-.8-.2-1-.7-1-.1 0-.1-.1-.1-.2s0-.1.1-.2c.6-.1 1.1-.3 1.6-.6.1 0 .2 0 .2.1v.7c.6-.5 1.2-.8 2-.8 1.5 0 2.7.9 2.7 2.5 0 1.9-1.5 3.2-3.2 3.2-.6 0-1.1-.2-1.5-.5v1.2c0 1.1.1 1.2.9 1.2.1 0 .1.1.1.2s0 .2-.1.2h-2.7c-.1 0-.1-.1-.1-.2-.1 0 0-.1 0-.1zm3.5-2.4c1 0 1.9-.7 1.9-2.3 0-1.3-.8-2.3-1.9-2.3-.6 0-1.2.3-1.7.8v2.5c.3.8.9 1.3 1.7 1.3zm5.8-6.3c0-.1.3-.1.3 0v1.2h2.1c.2 0 0 .5-.2.5h-1.8v3.2c0 .8.4 1.1.9 1.1.3 0 .6-.1.9-.2.1-.1.3.2.2.3-.4.3-1.2.7-1.8.7-.7 0-1.3-.6-1.3-1.6v-3.4h-.8c-.1 0-.2-.3-.1-.3.7-.3 1.3-.9 1.6-1.5z" style="fill:#fff"/></svg>