<svg xmlns="http://www.w3.org/2000/svg" viewBox="0 0 800 600"><style>.st0{fill:#fff}.st2{fill:#4c4c4c}</style><path class="st0" d="M43.52 80.62c2.5.4 7.8.5 20.4.5h54.1c2.3-2.5 4.6-4.7 6.4-6.1.9-.7 1.9-.7 2.9 0 1.7 1.2 4.2 3.5 5.5 5 .7.8.7 1.9 0 2.5-.9.8-2.7 1.5-4.3 1.5h-64.6c-12.6 0-17.1.3-19.4.7-.6.1-.9 0-1.2-.5-.4-.7-.7-2.2-.7-3 0-.5.3-.7.9-.6zm7.3-53.1c2.5.4 7.5.5 18.5.5h41.2c2.3-2.5 4.6-4.7 6.4-6.1.9-.7 1.9-.7 2.9 0 1.7 1.2 4.2 3.5 5.5 5 .7.8.7 1.9 0 2.5-.9.8-2.7 1.5-4.3 1.5h-51.7c-11 0-15.2.3-17.5.7-.6.1-.9 0-1.2-.5-.4-.7-.7-2.2-.7-3 0-.5.3-.7.9-.6zm8.8 25.4c2.5.4 7.2.5 16.2.5h27c2.1-2.3 4.5-4.7 5.9-5.8.9-.7 1.9-.7 2.9 0 1.3.9 3.9 3.3 5 4.6.7.8.7 1.9 0 2.5-.9.8-2.7 1.5-4.3 1.5h-36.5c-9 0-12.9.3-15.2.7-.6.1-.9 0-1.2-.5-.4-.7-.7-2.1-.7-2.9 0-.5.3-.7.9-.6z"/><path class="st2" d="M179.26 68.82h-10.4c-12.2 0-16.7.3-19 .7-.6.1-.9 0-1.2-.5-.4-.7-.7-1.9-.7-2.7 0-.5.3-.7.9-.6 2.5.4 7.8.5 20 .5h14.2c2.4-1.8 4.4-3.9 6.2-6.2.6-.8.8-.9 1.5-.7 1.4.6 3.6 1.9 4.7 3.1 3.9-2 7.4-4.4 9.7-7.3-4.8.1-7.7.3-9.7.7-.6.1-.9 0-1.2-.5-.4-.7-.7-1.6-.7-2.4 0-.5.3-.7.9-.6 2.5.4 6.7.5 12.6.5 0-3-.2-3.9-.2-4.6 0-.5.2-.8.8-.8 1.4 0 6 1.6 6 2.8 0 .6-.5 1.3-1.5 2.2v.4h6.5c1.2-1.4 2.4-2.6 3.3-3.3.6-.5 1.3-.5 2 0 .8.6 2 1.6 2.8 2.6.4.5.4 1.2-.2 1.7-.7.6-2.5 1.3-3.5 1.3h-10.9v1.5c4.8.3 9.2 1.1 10.7 2 1.9 1.2 2.2 4.2 1.5 5.2-.5.7-1.6.9-2.7-.1-2.5-2.3-5.9-4.3-9.5-5.8v4.8c0 1.3-2.5 2.3-4.1 2.3-.8 0-1-.3-1-1.1v-5.1c-3 2.6-6.6 4.1-10.8 5-.2.6-2 .9-3.4.9l-1.7 1.5h33.6c1.7-2 3.4-3.8 4.5-4.6.8-.6 1.61-.6 2.3-.1 1.2.9 3.11 2.8 3.9 3.8.61.7.61 1.6-.2 2.2-.89.7-2.6 1.3-3.7 1.3h-31.3c11.1 4 24.3 5.5 38.2 5l.2.9c-2 1.2-2.3 1.6-2.3 2.9 0 1.2-1 1.6-3 1.6-5.1 0-11.5-.9-18.1-2.6 1.1 1.1 2.4 2.6 2.1 3.3-.2.5-1.1.4-2.4.2-3.5 1.1-10 1.5-14.9 1.5l-.2-1c4.9-1.3 10-3 12.7-4.7a78.1 78.1 0 0 1-17.1-7.1h-7.6c-10.8 7.7-24.5 10.9-42.5 11.5l-.2-1.5c14-2 25.5-4.9 34.1-10zm-27.1-28.6 1.4-.2c.4 1.4.7 2.8.9 4.2h2.8v-17.3c0-3.8-.2-4.8-.2-5.5 0-.5.2-.8.8-.8 1.1 0 4.4 1.5 5.7 2.9 2.7-1.1 5.3-2.7 7.1-4.2.6-.5 1-.4 1.4-.1 1 .8 3.7 4 3.3 4.9-.3.6-1.5.5-2.8.1-2.5.7-5.6 1-8.8 1.1-.3.4-.7.9-1.3 1.5v3.3h5.6c.8-.9 1.9-1.9 2.7-2.5.4-.3 1.1-.4 1.6 0 .7.5 1.9 1.7 2.4 2.4.4.5.3 1.2-.2 1.6-.7.5-1.9.9-2.9.9h-9.2v4.6h5.6c.8-.9 1.9-1.9 2.7-2.5.4-.3 1.1-.4 1.6 0 .7.5 1.9 1.7 2.4 2.4.4.5.3 1.2-.2 1.6-.7.5-1.9.9-2.9.9h-9.2v4.7h14.7v-17.9c0-3.7-.2-4.7-.2-5.3 0-.5.2-.8.7-.8 1.1 0 4.2 1.4 5.4 2.7h16.5c.9-1.1 2.1-2.4 2.9-3 .5-.4 1.2-.5 1.9 0 1 .7 2.5 2.1 3.5 3.2.7.8.5 1.7-.2 2.2-.4.3-.8.5-1.3.7v18.2h15.2v-4.8h-5.8c-4.4 0-4.9.4-5.5.4-.7 0-1.2-2-1.2-2.7 0-.3.1-.5.5-.5s1.8.4 6.2.4h5.8v-4.7h-5.8c-4.4 0-4.9.4-5.5.4-.7 0-1.2-2-1.2-2.7 0-.3.1-.5.5-.5s1.8.4 6.2.4h5.8v-4.8l-5.8.1c-4.4 0-4.8.5-5.4.5-.7 0-1.3-2-1.3-2.8 0-.3.1-.5.5-.5s1.8.4 6.2.4h4.6c.9-1.1 2.1-2.4 2.9-3 .5-.4 1.2-.5 1.9 0 1 .7 2.5 2.1 3.5 3.2.7.8.5 1.6-.2 2.1-.5.3-1 .6-1.6.8v18.3h2.2c1.1-1.2 2.1-2.2 3-2.9.8-.7 1.6-.7 2.4-.1 1.3.9 3 2.4 3.9 3.4.6.7.6 1.5 0 2s-1.6.9-2.6 1.2l-6.8 8.7-1-.5 2.1-9.2h-75.3c.1 1.8 0 3.4-.4 4.9-.9 3.6-3.8 6.2-6.6 5.6-2.3-.5-2.5-4.3-.3-6 3.3-2.6 4.7-6.2 4.7-11.1zm30.2 43.2c5-2.5 7.1-5.3 7.4-10.1.1-1.4-.1-1.7-.1-2.2 0-.4.3-.7.8-.7 1.9 0 7 1.9 7 3.1 0 .6-.9 1.2-2.1 1.8-.6 3.1-1.6 5.6-3.6 7.6 15.5.1 30.8 1.2 34.6 2.5 4.4 1.5 5.3 4.1 5 5.5-.2 1-1.6 1.1-2.9.7-10.8-2.9-24.8-5.4-38.4-7.2-1.5 1.1-3.4 2.1-5.7 3-7.5 2.8-21.6 4.6-33.8 4.6l-.1-1.4c12.2-1.1 25.5-4 31.9-7.2zm-13.4-28.3c-4.7.1-7.5.4-9.5.7-.6.1-.9 0-1.2-.5-.4-.7-.7-1.6-.7-2.4 0-.5.3-.7.9-.6 2.5.4 6.7.5 12.7.5 0-3.1-.2-4-.2-4.6 0-.5.2-.8.8-.8 1.4 0 5.9 1.5 5.9 2.8 0 .6-.5 1.2-1.5 2.1v.5h5.8c1.2-1.4 2.4-2.6 3.3-3.3.6-.5 1.3-.5 2 0 .8.6 2 1.6 2.8 2.6.4.5.4 1.2-.2 1.7-.7.6-2.5 1.3-3.5 1.3h-10.2v1.5c3.5.1 6.8.7 8.1 1.5 1.5.9 2.1 3.6 1.3 4.7-.5.7-1.5.6-2.4-.2-1.6-1.5-4.1-3.2-7-4.7v4.8c0 1.3-2.4 2.3-4 2.3-.8 0-1-.3-1-1v-5.3a42.4 42.4 0 0 1-17.6 6l-.3-1.1c5.1-1.6 11.3-4.7 15.7-8.5zm-1.3 24.2c3.4.2 9.5-.6 13.8-3l.7.9c-2.4 2.6-6.4 4.9-9.7 5.9-3.2 1-6.9 1.2-7.7 0-1.1-1.7.6-3.9 2.9-3.8zm33.6-35.1v-18.9h-18.3c-.2.3-.5.6-.8 1v17.9h19.1zm-17.4-15.9c.3 0 1.1.2 4.1.2h6.2c.8-.9 2.3-2.2 2.9-2.2.7 0 3 2.1 3 2.8 0 .6-1.4 1.4-2.2 1.4h-8.9c-3.8 0-3.9.3-4.5.3s-1-1.5-1-2.1c0-.3.2-.4.4-.4zm2.1 3.7c.7 0 2.5.9 3.4 1.7h4.4c.8-.9 1.8-2 2.4-2 .7 0 2.8 2.3 2.8 2.8 0 .4-.4.7-.9 1.1v4.1c0 1.2-1.6 2.8-2.5 2.8-.6 0-1.3-.8-1.7-1.7h-5v.2c0 1-1.7 1.5-2.8 1.5-.5 0-.7-.2-.7-.7v-6.9c0-1.3-.1-1.9-.1-2.3s.2-.6.7-.6zm7.7 6.9c.6 0 .8-.2.8-.9v-2.4h-5l-.6.6v2.7h4.8z"/><path class="st0" d="M260.2 54.62c0-20.1 15.7-35.2 35.8-35.2 20.2 0 35.8 15.1 35.8 35.2s-15.6 35.3-35.8 35.3-35.8-15.2-35.8-35.3zm35.8 30.2c17 0 30-13 30-30.2s-13-30.1-30-30.1-30 12.9-30 30.1c0 17.2 13 30.2 30 30.2zM43.52 264.53c2.5.4 7.8.5 20.4.5h54.1c2.3-2.5 4.6-4.7 6.4-6.1.9-.7 1.9-.7 2.9 0 1.7 1.2 4.2 3.5 5.5 5 .7.8.7 1.9 0 2.5-.9.8-2.7 1.5-4.3 1.5h-64.6c-12.6 0-17.1.3-19.4.7-.6.1-.9 0-1.2-.5-.4-.7-.7-2.2-.7-3 0-.5.3-.7.9-.6zm7.3-53.1c2.5.4 7.5.5 18.5.5h41.2c2.3-2.5 4.6-4.7 6.4-6.1.9-.7 1.9-.7 2.9 0 1.7 1.2 4.2 3.5 5.5 5 .7.8.7 1.9 0 2.5-.9.8-2.7 1.5-4.3 1.5h-51.7c-11 0-15.2.3-17.5.7-.6.1-.9 0-1.2-.5-.4-.7-.7-2.2-.7-3 0-.5.3-.7.9-.6zm8.8 25.4c2.5.4 7.2.5 16.2.5h27c2.1-2.3 4.5-4.7 5.9-5.8.9-.7 1.9-.7 2.9 0 1.3.9 3.9 3.3 5 4.6.7.8.7 1.9 0 2.5-.9.8-2.7 1.5-4.3 1.5h-36.5c-9 0-12.9.3-15.2.7-.6.1-.9 0-1.2-.5-.4-.7-.7-2.1-.7-2.9 0-.5.3-.7.9-.6z"/><path class="st2" d="M152.51 230.32v-6.9c0-15.4-.6-16.6-.6-17.9 0-.8.4-1.2 1.3-1.2 1.5 0 5.1 1.7 6.7 3.1h23.2a27 27 0 0 1 3.3-3.4c.6-.5 1.4-.5 2.1 0 1.1.8 3 2.5 4 3.6.7.8.5 1.8-.2 2.3-.6.4-1.3.8-2.2 1.1-.7 19.3.1 38 5.2 46.61 1 1.7 2.2 3.1 3.5 4.4v-24.7c0-4.3-.3-5.4-.3-6 0-.6.3-.9.9-.9 1.1 0 4.3 1.4 5.7 2.7h17.9a21 21 0 0 1 2.9-3c.5-.4 1.2-.5 1.9 0 1 .7 2.5 2.1 3.5 3.2.7.8.5 1.7-.2 2.2-.4.3-.9.5-1.4.8v20.1c0 2.8-5.8 8.1-7.9 8.1-.9 0-1.5-.5-1.5-1.8 0-1.8 0-1.9-5.9-4.7l.3-1c3.1.4 5.6.6 7.1.6 1.6 0 2.4-.7 2.4-3.2v-2.3h-20v8.8c0 1.4-2 2.3-3.6 2.5 5.2 3.9 12.4 5.1 20.5 5.1 7.1 0 8.9-.8 9.7-3.2 1.2-3.6 2.2-7.6 2.9-10.9l1.6.2c-.2 4-.2 7.5-.1 9.9.1 1.7.7 2.3 1.7 2.6.9.3 1.2 1 1.2 1.5 0 1.5-2.6 3.3-4.6 4.2-1.7.8-5.6 1.6-12.7 1.6-12.5 0-24.3-3.3-30.3-14-5.6-10.1-6.8-28.4-6.1-50.2h-24.4l-1.6 1.9v20.9c0 20.1-3.2 31.1-13.7 42.5l-1.3-1c8.2-15.4 9.1-25 9.1-44.2zm4.6 35.6c3.7-.5 7.9-1.1 12-1.8v-13.2h-3.4v2.6c0 1.2-1.9 2.1-3.4 2.1-.6 0-.8-.2-.8-.8v-22c0-3.1-.2-4-.2-4.6 0-.4.2-.6.6-.6.9 0 3.5 1.2 4.6 2.3h2.6v-3.9c0-3-.1-4.2-.2-4.8-3 .4-6.3.6-9.5.6l-.2-1.4c7.4-1.7 14.2-4.5 18.3-7.2.6-.4.9-.4 1.4 0 1.4 1.1 4.1 4 3.8 5.1-.2.7-1.4.7-3.2.4-2.2.8-4.9 1.5-7.8 2 1.4.6 2.9 1.6 2.9 2.3 0 .4-.4.8-1.1 1.2v5.7h2c.8-.9 1.8-1.9 2.5-2.4.5-.4 1.2-.5 1.9 0 .8.6 2.1 1.9 2.7 2.7.4.5.3 1.3-.3 1.7-.4.2-.7.5-1.1.7v15.9c0 1.9-1.6 5.3-3 5.3-.8 0-1.7-1.5-2.2-2.9h-2.5v12.5l6.7-1.4c-1.1-1.8-2.2-3.6-3.3-5.2l1.1-1c5.1 2.9 9.4 7.1 10.3 9.3 1.2 3 .3 6.2-1 6.9-1 .6-2.4 0-3-1.5-.7-1.9-1.8-4.2-3.1-6.6-6 2.6-13.5 5.2-19.9 7.1-.5 1.5-1.1 2.5-1.9 2.5-1.4 0-3.1-5-3.2-6.6-.1-.7.2-.9.9-1zm12-17.6v-15.8h-2.9l-.5.6v15.2h3.4zm7.7 0c.2-.1.2-.4.2-.7v-15.1h-3.5v15.8h3.3zm20.1-44.2c1.1 0 4.3 1.4 5.7 2.7h23.6a21 21 0 0 1 2.9-3c.5-.4 1.2-.5 1.9 0 1 .7 2.5 2.1 3.5 3.2.7.8.5 1.7-.2 2.2-.4.3-.9.5-1.4.8v14.5c0 2.1-2.3 5.2-3.9 5.2-1 0-2-1.1-2.6-2.3h-24.7c-.2 1.5-2.8 2.4-4.3 2.4-.8 0-1.1-.3-1.1-1.1v-17.9c0-4.1-.3-5.2-.3-5.8 0-.6.3-.9.9-.9zm14.9 11.6v-1.8c0-2.5-.1-3.7-.2-4.5h-8.8l-1.1 1.2v5.1h10.1zm0 9.1v-6.5h-10.1v6.5h10.1zm12.4 16.5v-5.6h-18.9l-1.1 1.2v4.4h20zm0 8.2v-5.6h-20v5.6h20zm-6.1-38.3c0 .5-.4 1-1.1 1.5v3h10.4v-6.3h-11.1c1 .6 1.8 1.2 1.8 1.8zm8.4 13.6c.7 0 .9-.3.9-1.1v-5.4h-10.4v6.5h9.5z"/><path class="st0" d="M259.7 238.53c0-20.1 15.7-35.2 35.8-35.2 20.2 0 35.8 15.1 35.8 35.2s-15.6 35.3-35.8 35.3-35.8-15.2-35.8-35.3zm35.8 30.2c17 0 30-13 30-30.2s-13-30.1-30-30.1-30 12.9-30 30.1c0 17.2 13 30.2 30 30.2z"/><path class="st2" d="M86.53 130.67c.7-.7 1-.9 1.8-.6 1.7.6 5.3 2.6 5.3 3.7 0 .7-1.1 1.1-3.1 1.2l-.2.2c11.6 7.9 26.4 12.3 44.3 13.3l.1 1.1c-2.7 1.3-3.1 1.8-3.4 3.1-.2 1.6-1.5 1.9-4.8 1.3-2.9-.5-6-1.2-9.2-2.2.1.5-.2 1-.6 1.3-.4.2-.8.5-1.2.7v10.1c0 .9-.5 2-1.2 2.9 1.4-.9 2.7-1.8 3.9-2.7.9-.7 1.1-.8 1.7-.5 1.3.8 4.2 3.4 4.1 4.4-.1.8-1.3.9-3.1.7-4.5 2.5-11.3 4.6-18.4 5.6 8.2 2.3 17.4 3.2 28.7 3.3l.1 1c-2.7 1.5-3 2.1-3.2 3.5-.2 1.6-1.8 1.8-5.4 1.5-13.5-1.1-27.3-5.2-40.8-16.5h-16.9v9.1c8.5-.6 17.5-1.3 25.3-2.2l.4 1.4c-10 2.7-23.5 5.2-34 6.9-.6 1.5-1.3 2.5-2.1 2.5-1.5.1-3.4-5.6-3.5-7.1 0-.7.3-.9 1-.9l7-.3v-21.1c0-1.8 0-3.1-.1-4-5.7 1.7-11.9 3-18.3 3.7l-.3-1.6c20.8-5.1 36.7-13.4 46.1-22.8zm-30.6-12.8c.5-1 .7-1.2 1.5-1 1.8.4 6 2.2 6 3.3 0 .7-1 1.3-2.9 1.6l-1.2 1.8h7v-7.6c0-4-.3-5.2-.3-5.9 0-.6.3-1 1.1-1 1.8 0 7.5 2 7.5 3.7 0 .7-.8 1.6-2.2 2.8v.6h7.7c1.7-1.9 3.4-3.6 4.5-4.4.8-.6 1.6-.6 2.3-.1 1.2.9 3.1 2.8 3.9 3.8.6.7.6 1.5-.2 2.1-.9.7-2.6 1.3-3.7 1.3h-14.5v4.7h6c.9-1.1 2.1-2.4 2.9-3 .5-.4 1.2-.5 1.9 0 1 .7 2.5 2.1 3.5 3.2.7.8.5 1.7-.2 2.2s-1.6.9-2.6 1.2c-8.4 9.3-21.5 16.4-39.9 18.7l-.3-1.5c7.2-1.9 13.5-4.4 18.9-7.2-.4-.1-.8-.3-1.1-.6-2.4-2.4-5.2-4.6-9-6.5-2.5 1.8-5.4 3.4-8.7 4.7l-.61-1.1c6.5-5.6 10.5-10.9 12.7-15.8zm7.3 13.5c1.2 1.1 1.9 3.3 1.3 4.7 5.3-3 9.5-6.4 12.7-9.8h-20.2c-.9.9-1.9 1.8-3 2.6 4.6.4 7.9 1.4 9.2 2.5zm2.9 19.3h42.5l1.2-1.4c-7.5-2.9-15.2-6.9-21.6-12.3-3.2 2.6-7.1 5.2-11.6 7.5 1.2.1 2.8.2 5.7.2h6.3c1.2-1.3 2.3-2.3 3.1-2.9.6-.5 1-.5 1.6-.1.9.6 2.2 1.6 3.1 2.5.6.6.6 1.3 0 1.8-.9.7-2.1 1.2-3.6 1.2h-10c-3.7 0-4.5.1-6.1.4-.9.2-1.2.1-1.5-.5-.2-.4-.4-1.1-.5-1.7-3.1 1.5-6.6 3-10.2 4.3.6.3 1.1.6 1.6 1zm43.7 6.8v-4.1h-43.8c-.3.2-.6.5-1 .7v3.4h44.8zm-.8 6.9c.6 0 .8-.3.8-1.1v-3.2h-44.8v4.3h44zm-10.1 8.7c4.4-1.2 8.5-2.7 12.2-4.6-.7-.2-1.3-.7-1.8-1.4h-22.9c4.1 2.5 8.2 4.5 12.5 6zm-5.1-57.8c2.5.4 6.3.5 13.7.5h12.3a27 27 0 0 1 3.3-3.4c.6-.5 1.4-.5 2.1 0 1.1.8 3 2.5 4 3.6.7.8.5 1.8-.2 2.3-.9.6-2 1.1-3.3 1.4-2.3 3.5-5.1 6.5-8.6 9.1 3.9 1.7 6.9 3.3 8.2 4.4 3.2 2.7 4.3 6.6 3.5 8.3-.5 1-2.2 1.3-4.1-.4-3.1-2.7-7.6-5.9-12.8-9a51.5 51.5 0 0 1-15.8 5.2l-.5-1.4c4.7-1.9 8.8-3.9 12.3-6.1-4.2-2.3-8.6-4.4-12.9-6.2l.6-1.4c5.6 1 11.5 2.7 16.5 4.6 3-2.4 5.5-5.1 7.5-8.2h-12.1c-7.4 0-10.4.3-12.7.7-.6.1-.9 0-1.2-.5-.4-.7-.7-2.1-.7-2.9 0-.5.3-.7.9-.6z"/><path class="st0" d="M147.41 172.58c2.5.4 7.8.5 20.4.5h54.1c2.3-2.5 4.6-4.7 6.4-6.1.9-.7 1.9-.7 2.9 0 1.7 1.2 4.2 3.5 5.5 5 .7.8.7 1.9 0 2.5-.9.8-2.7 1.5-4.3 1.5h-64.6c-12.6 0-17.1.3-19.4.7-.6.1-.9 0-1.2-.5-.4-.7-.7-2.2-.7-3 0-.5.3-.7.9-.6zm7.3-53.1c2.5.4 7.5.5 18.5.5h41.2c2.3-2.5 4.6-4.7 6.4-6.1.9-.7 1.9-.7 2.9 0 1.7 1.2 4.2 3.5 5.5 5 .7.8.7 1.9 0 2.5-.9.8-2.7 1.5-4.3 1.5h-51.7c-11 0-15.2.3-17.5.7-.6.1-.9 0-1.2-.5-.4-.7-.7-2.2-.7-3 0-.5.3-.7.9-.6zm8.8 25.4c2.5.4 7.2.5 16.2.5h27c2.1-2.3 4.5-4.7 5.9-5.8.9-.7 1.9-.7 2.9 0 1.3.9 3.9 3.3 5 4.6.7.8.7 1.9 0 2.5-.9.8-2.7 1.5-4.3 1.5h-36.5c-9 0-12.9.3-15.2.7-.6.1-.9 0-1.2-.5-.4-.7-.7-2.1-.7-2.9 0-.5.3-.7.9-.6z"/><path class="st2" d="M249.8 133.77c1.9.3 5.1.4 10.2.5v-15.6c0-4.4-.3-5.6-.3-6.3 0-.7.3-1 1-1 1.2 0 4.7 1.5 6.3 3h22.8c1.2-1.4 2.6-2.9 3.5-3.6.6-.5 1.4-.5 2 0 .8.6 2.5 2.2 3.3 3.2.4.5.5 1.3-.2 1.8-.8.6-2.7 1.3-3.9 1.3h-27.3l-1.2 1.3v2.7h22c1.2-1.3 2.4-2.4 3.3-3.1.5-.4 1.2-.4 1.7 0 .8.6 2.2 1.8 3 2.8.4.5.4 1.2-.3 1.7-.8.6-2.7 1.2-3.9 1.2H266v4h22c1.2-1.3 2.4-2.4 3.3-3.1.5-.4 1.1-.4 1.6 0 .8.6 2.2 1.8 3 2.8.4.5.5 1.2-.2 1.7-.8.6-2.7 1.2-3.9 1.2H266v4h25.8c1.2-1.4 2.6-2.9 3.5-3.6.6-.5 1.4-.5 2 0 .8.6 2.5 2.2 3.3 3.2.4.5.5 1.3-.2 1.8-.8.6-2.7 1.3-3.9 1.3H271c1.2.7 2.1 1.5 2.1 2 0 .7-1 .9-2.3 1-1.9 1.3-4.2 2.5-7 3.5 8.1-.2 16.7-.6 24.6-1.1-1.6-1.3-3.4-2.6-5.1-3.8l.4-.9c5.4.8 10.9 2.6 12.3 4.1 1.8 2 2 5.2.5 6.3-.8.6-2.1.5-3.1-.7-.8-1-1.9-2.2-3.2-3.4a410 410 0 0 1-32 4.5c-.6 1.3-1.3 2.1-2 2.1-1.3 0-2.7-5-2.7-6.3 0-.5.2-.7.9-.7h5.8c2.4-2.3 4.4-4.6 5.6-6.6h-.6c-8.3 0-12.1.3-14.4.7-.6.1-.9 0-1.2-.5-.4-.7-.7-2-.7-2.8 0-.5.3-.7.9-.6zm-.1 37.3c2.6.2 7.9-.2 20.8-1.3l18.2-1.6v-5.7l-12 1c-10.5.9-14.7 1.6-16.9 2.2-.6.1-.9.1-1.3-.4-.4-.7-.8-2-.9-2.8 0-.5.2-.8.8-.7 2.6.2 7.5-.2 18.1-1.1l12.2-1.1v-.1c0-2.6-.1-4-.2-4.9-9.8.8-19.6 1.2-27.9 1.1l-.1-1.9c22.9-1.7 48.9-5.2 64.9-10.5.9-.3 1.3-.3 1.9.3 1.1 1.1 4.4 4.9 3.6 6.2-.5.8-2.7.3-4.6-.4-8.9 1.9-20.5 3.5-32.2 4.7 1.4.7 2.5 1.6 2.5 2.3 0 .6-.7 1.2-1.7 1.9v.8l26.1-2.3c1.1-1.4 2.4-3 3.2-3.8.6-.5 1.4-.6 2-.2.9.6 2.7 2 3.6 2.9.4.5.6 1.3-.1 1.9-.7.6-2.5 1.5-3.7 1.6l-31.1 2.7v5.7l36.5-3.2c1.5-1.9 3.1-3.8 4.1-4.7.7-.7 1.5-.8 2.3-.3 1.3.8 3.3 2.5 4.2 3.4.7.7.7 1.6 0 2.2-.8.8-2.5 1.5-3.6 1.6l-3.1.3c.3 2.6.6 5.1.8 6.1.2.9.5 1.2 1.3 1.4 1 .3 1.6.8 1.6 1.5 0 1.3-2 3-3.9 3.9-2.1 1-4.4 1.4-10.6 1.7-6 .3-14.4.3-21.6 0-10.8-.5-14.2-2.7-14.2-10.1v-.4l-17.9 1.6c-12.9 1.1-17.5 1.8-19.7 2.4-.6.1-.9.1-1.3-.4-.4-.7-.8-2-.9-2.8 0-.5.2-.8.8-.7zm53.2 4.9c6.2.3 16.8.3 22.2 0 4.9-.3 6.5-1 7.2-2.9.4-1.2 1-3.4 1.6-6.1l-39 3.5v.6c0 3.7 1 4.6 8 4.9zm24.2-66.1c.7-.5 1.2-.6 1.8-.1 1.4 1.2 4.4 4.5 3.7 5.6-.4.6-1.7.5-3.3.1a86.3 86.3 0 0 1-29.1 7.1l-.2-1.4c11.9-3 20.8-6.8 27.1-11.3zm8.3 20.7c1-.5 1.3-.6 1.9-.1 1.4 1.2 4 4.6 3.4 5.8-.3.6-1.9.3-3.3-.1-9.2 3.3-23.7 5.3-36.8 4.9l-.1-1.4c13.9-1.7 25.4-4.4 34.9-9.1zm-4.4-10.5c.9-.6 1.3-.7 2-.1 1.4 1.2 4.2 4.4 3.6 5.4-.3.5-1.6.6-3.2.2-8.8 3.5-19.5 5.6-30.7 5.8l-.2-1.4c12.1-2.3 22.1-5.7 28.5-9.9z"/><path class="st0" d="M147.41 356.48c2.5.4 7.8.5 20.4.5h54.1c2.3-2.5 4.6-4.7 6.4-6.1.9-.7 1.9-.7 2.9 0 1.7 1.2 4.2 3.5 5.5 5 .7.8.7 1.9 0 2.5-.9.8-2.7 1.5-4.3 1.5h-64.6c-12.6 0-17.1.3-19.4.7-.6.1-.9 0-1.2-.5-.4-.7-.7-2.2-.7-3 0-.5.3-.7.9-.6zm7.3-53.1c2.5.4 7.5.5 18.5.5h41.2c2.3-2.5 4.6-4.7 6.4-6.1.9-.7 1.9-.7 2.9 0 1.7 1.2 4.2 3.5 5.5 5 .7.8.7 1.9 0 2.5-.9.8-2.7 1.5-4.3 1.5h-51.7c-11 0-15.2.3-17.5.7-.6.1-.9 0-1.2-.5-.4-.7-.7-2.2-.7-3 0-.5.3-.7.9-.6zm8.8 25.4c2.5.4 7.2.5 16.2.5h27c2.1-2.3 4.5-4.7 5.9-5.8.9-.7 1.9-.7 2.9 0 1.3.9 3.9 3.3 5 4.6.7.8.7 1.9 0 2.5-.9.8-2.7 1.5-4.3 1.5h-36.5c-9 0-12.9.3-15.2.7-.6.1-.9 0-1.2-.5-.4-.7-.7-2.1-.7-2.9 0-.5.3-.7.9-.6z"/><path class="st2" d="M48.22 342.28c.1-1.1.4-1.4 1.3-1.3 1.8.1 6.8 1.5 6.8 2.9 0 .7-.8 1.4-2.5 2-2.2 7-5.5 13.4-11.9 19.2l-1.1-.9c4.6-8.2 6.8-14.8 7.4-21.9zm-6-32.4c2.4.8 4.6 1.7 6.5 2.6 3.7-5.7 6.3-11.7 7.8-17.4.3-1.1.7-1.2 1.4-1.1 1.6.2 7.1 2.2 7.1 3.6 0 .9-1.3 1.4-3 1.8a47.6 47.6 0 0 1-11.6 14.1c2.3 1.3 3.9 2.5 4.6 3.5.9 1.4 1.2 3.2 1 4.6 4.7-5.9 8.7-12 11.2-17.5.5-1.1.7-1.2 1.6-1 1.9.4 6.5 2.5 6.5 3.7 0 .9-1.2 1.3-3.2 1.6-5.8 8.3-13 16.3-20.6 22.1 5.8-.5 11.8-1.2 17.4-1.9-1.2-2.6-2.7-5.2-4.5-7.9l.9-.9c5.3 3.4 9.8 8.2 10.6 10.3.2.4.3.9.4 1.4 2.6-.6 5.1-1.3 7.6-2-.1-3-.3-3.9-.3-4.5v-.3c-2.4.8-5 1.4-7.7 1.8l-.4-1.2c6.9-3 12.6-6.8 15.9-10.7.5-.6.8-.7 1.4-.4 1.6.8 5.1 3 4.9 4.1-.1.7-1.2.9-2.9.9a37.4 37.4 0 0 1-9.7 5c1.8.3 5 1.9 6.1 3.2 3.6-1.1 7.1-2.3 10.3-3.6v-6.5c0-3.2-.2-4.5-.3-5.2h-1.6c-6.7 0-10.2.3-12.5.7-.6.1-.9 0-1.2-.5-.4-.7-.7-2-.7-2.8 0-.5.3-.7.9-.6 2.5.4 6.8.5 13.5.5h13.9c1.2-1.4 2.6-2.9 3.5-3.6.6-.5 1.4-.5 2 0 .8.6 2.5 2.2 3.3 3.2.4.5.5 1.3-.2 1.8-.8.6-2.7 1.3-3.9 1.3h-12.6c1.6.8 3 1.7 3 2.5 0 .6-.6 1.2-1.7 1.8v5.2c5.8-2.6 10.7-5.3 14.4-8.1.8-.6 1-.7 1.6-.4 1.6.8 4.8 3.2 4.7 4.2-.1.8-1.3.9-3.4.8-6.4 3.8-14.2 7.1-22.6 9.8h16.1a27 27 0 0 1 3.3-3.4c.6-.5 1.4-.5 2.1 0 1.1.8 3 2.5 4 3.6.7.8.5 1.7-.2 2.2-.4.3-.9.6-1.5.8v18.8c0 2.4-2.6 6.1-4.3 6.1-1.1 0-2.2-1.4-2.8-2.9h-28.7v.8c0 1.7-2.8 2.7-4.6 2.7-.8 0-1.1-.3-1.1-1.1v-23.2c-2.5.5-5 .9-7.4 1.2-.1 1.9-.7 3.5-1.7 4-1.1.5-2.3 0-2.9-1.7-.6-1.8-1.3-3.5-2.1-5.3-2.2.8-4.6 1.5-7.1 2.2 1.8.8 3.4 2 3.4 2.8 0 .6-.7 1.3-2 2.1v27.6c0 1.7-3 2.7-4.8 2.7-.8 0-1.1-.3-1.1-1.2v-27.7c0-2.6-.1-4.1-.2-5-3.6 1-7.1 1.8-10.4 2.6-.6 1.5-1.3 2.4-2.1 2.4-1.4 0-3-5.4-3.1-7 0-.6.2-.8 1-.9l4.4-.3c2-2.1 4-4.2 5.9-6.5-.7 0-1.4-.6-2-1.6-2.6-4.5-5.7-8.1-10.2-11.7l.7-1.1zm25.7 30.3c5.3 3.3 9.6 7.7 10.5 10.4.8 2.5.5 6.5-1.4 7.7-1.2.7-2.6.2-3.1-1.6-1.5-5.3-3.7-10.5-7-15.6l1-.9zm27.2 15c.7-.6.9-.7 1.7-.3 1.8.9 5.1 3.5 4.9 4.6-.1.7-1.3 1-3.9.9-5.1 3.1-14.8 6.2-24.5 7l-.3-1.5c9.5-3 17.7-6.9 22.1-10.7zm-13.8-58.2 1.6-.2c.5 1.5.8 3 1 4.5h17.1v-1.3c0-3.9-.3-5.1-.3-5.9 0-.6.3-1 1.1-1 1.9 0 7.7 2.1 7.7 3.8 0 .7-.8 1.7-2.2 2.9v1.5h17c1.2-1.4 2.9-2.8 3.7-3.4.6-.5 1.6-.5 2.2 0 1.2 1 2.7 2.7 3.5 3.8.7.9.4 1.8-.3 2.2-.7.4-1.7.7-2.6 1l-5.8 8-1.4-.6 1.5-8.2h-41c0 1.9-.3 3.7-.8 5.2-1.2 3.4-4.3 5.5-6.5 5-2.7-.6-2.5-4.4-.2-6 3-2.1 4.7-6.7 4.7-11.3zm38.3 38.3v-4.7h-27.7c-.7.2-1.5.4-2.3.5v4.2h30zm0 7.4v-4.7h-30v4.7h30zm-1.1 7.6c.8 0 1.1-.4 1.1-1.5v-3.4h-30v4.9h28.9zm-10.7 5.6c9.4.3 18.3 2.4 20.7 3.9 3.1 1.9 4.3 5.3 3.9 6.7-.4 1.3-2 1.3-3.7.2-4.6-3-13.5-7-21.2-9.5l.3-1.3zm152.38-22.8c0-6.7-.5-8.3-.5-9.3v-.3c-2.6 1.4-5.5 2.7-8.6 3.8l-.7-1.5c7.3-4.2 12.7-9.1 16.3-14.2-7.7 0-11.3.3-13.6.7-.6.1-.9 0-1.2-.5-.4-.7-.7-2-.7-2.8 0-.5.3-.7.9-.6 2.5.4 7 .5 14.9.5h5.5v-6.4h-2.9c-7 0-10.6.3-12.9.7-.6.1-.9 0-1.2-.5-.4-.7-.7-2-.7-2.8 0-.5.3-.7.9-.6 2.5.4 6.9.5 13.9.5h2.9c0-4.2-.3-5.2-.3-6 0-.6.3-.9 1-.9 1.6 0 6.9 1.8 6.9 3.3 0 .6-.7 1.4-1.8 2.4v1.2h8.2c1.2-1.4 2.6-2.9 3.5-3.6.6-.5 1.4-.5 2 0 .8.6 2.5 2.2 3.3 3.2.4.5.5 1.3-.2 1.8-.8.6-2.7 1.3-3.9 1.3h-12.9v6.4h11.8c1.2-1.4 2.6-2.9 3.5-3.6.6-.5 1.4-.5 2 0 .8.6 2.5 2.2 3.3 3.2.4.5.5 1.3-.2 1.8-.8.6-2.7 1.3-3.9 1.3h-16.5v1c5.7.7 11.6 2.6 13.1 3.9 2.2 1.8 2.9 4.8 2.2 6.3-.6 1.3-2.1 1.3-3.3.1-3-2.8-7.2-6-12-8.5v8.5c0 1.5-2.9 2.5-4.7 2.5-.8 0-1.1-.3-1.1-1.2v-11.3c-3.2 4.2-7 7.3-11.4 9.8 1.7.3 5.2 2.1 6.6 3.7h57.7c1.7-1.9 3.4-3.6 4.5-4.4l.3-.2c-3.2-.9-6.8-2.3-10.4-4.4-6.2 3.4-13.9 5.5-23.6 6.1l-.3-1.7c8.4-1.8 15-4.1 20.1-6.9-3-2.3-5.7-5.2-7.7-8.7-2.6 3.3-6.1 6.2-11.1 8.9l-.8-1.2c6.9-6.6 10.1-12.9 11.4-19.6.2-1 .5-1.2 1.3-1.1 1.6.2 6.5 1.9 6.5 3.1 0 .9-1.1 1.5-2.5 2l-1.1 2.3h20.2c1.2-1.4 2.6-2.8 3.5-3.5.6-.5 1.4-.5 2 0 .8.6 2.5 2.2 3.3 3.2.4.5.5 1.3-.2 1.8-.8.6-2.7 1.3-3.9 1.3h-4.1c1.3.7 2.4 1.6 2.4 2.2 0 .8-1.2 1.3-3 1.4-2.3 2.8-4.9 5.4-7.9 7.6 4.9 1.6 10.7 2.6 17.4 3.1l.1 1.1c-2.7 1.1-3.2 1.7-3.4 2.9-.3 1.5-1.9 1.6-5.5.8a32 32 0 0 1 3.2 3.2c.6.7.6 1.6-.2 2.2-.9.7-2.6 1.3-3.7 1.3h-64.5c-.3.5-.8 1-1.3 1.6v3.3c0 13.9-1.4 23.5-16 33.7l-1.2-1.4c10.3-11.8 11-20.7 11-33.3zm3.7 28.2c2.5.4 7.6.5 18.9.5h15.5v-4.5h-10.8c-9.8 0-13.9.3-16.2.7-.6.1-.9 0-1.2-.5-.4-.7-.7-2-.7-2.8 0-.5.3-.7.9-.6 2.5.4 7.4.5 17.2.5h10.8v-4.6h-20c-.1 1.5-2.7 2.5-4.4 2.5-.8 0-1.1-.3-1.1-1.1v-13.7c0-3.9-.3-5-.3-5.7 0-.6.3-.9.9-.9 1.2 0 4.4 1.4 5.8 2.7h43.9c.9-1.1 2.1-2.4 2.9-3 .5-.4 1.2-.5 1.9 0 1 .7 2.5 2.1 3.5 3.2.7.8.5 1.7-.2 2.2-.4.3-.8.5-1.3.7v10.2c0 2-2.4 5-4 5-.9 0-1.9-1-2.5-2.1h-19.5v4.6h22.5c1.2-1.4 2.6-2.9 3.5-3.6.6-.5 1.4-.5 2 0 .8.6 2.5 2.2 3.3 3.2.4.5.5 1.3-.2 1.8-.8.6-2.7 1.3-3.9 1.3h-27.2v4.5h26.8c1.7-1.9 3.4-3.6 4.5-4.4.8-.6 1.6-.6 2.3-.1 1.2.9 3.1 2.8 3.9 3.8.6.7.6 1.6-.2 2.2-.9.7-2.6 1.3-3.7 1.3h-54.7c-11.3 0-15.6.3-17.9.7-.6.1-.9 0-1.2-.5-.4-.7-.7-2.1-.7-2.9 0-.5.3-.7.9-.6zm34.4-20.8c0-2-.1-3.3-.2-4.1h-18.7c-.3.4-.6.8-1.1 1.3v2.8h20zm0 6.9v-4.3h-20v4.3h20zm26-6.9v-4.1h-20.1c.6.4 1 .9 1 1.3 0 .5-.5 1-1.3 1.6v1.2h20.4zm-.9 6.9c.7 0 .9-.3.9-1.1v-3.2h-20.4v4.3h19.5zm-3.8-34.8c3.7-2.6 6.3-5.7 8.1-9.2h-17.3c-.1.2-.2.4-.3.5 2.3 3.8 5.5 6.6 9.5 8.7zm35.24-227.06c2.5.4 7.8.5 20.6.5h21.1v-10c0-2.9-.1-4.4-.2-5.3h-15.8c1.8.7 3.6 1.8 3.6 2.5 0 .6-.9 1.2-2.9 1.4l-1.4 1.5c5 .2 9.4 1.3 10.8 2.4 2.1 1.7 2.5 4.5 1.9 5.6-.6 1.1-2.1 1.2-3.6-.2-2.7-2.5-6.4-4.7-10.7-6.4-3.9 3.4-9 6-15.6 8l-.5-1.1c6.7-4.2 11.7-8.5 14.5-13.6l.1-.1c-9.4.1-13.1.3-15.2.7-.6.1-.9 0-1.2-.5-.4-.7-.7-2-.7-2.8 0-.5.3-.7.9-.6 2.5.4 7.6.5 19.2.5h49.9c.9-1.1 1.9-2.1 2.7-2.9-.6-.6-1.2-1.6-1.6-2.5h-9.4v.6c0 1.6-2.7 2.6-4.3 2.6-.8 0-1.1-.3-1.1-1.1v-9.2c0-3.6-.3-4.7-.3-5.3 0-.6.3-.9.9-.9 1.2 0 4.4 1.4 5.7 2.7h8.6c.9-1.1 2.1-2.4 2.9-3 .5-.4 1.2-.5 1.9 0 1 .7 2.5 2.1 3.5 3.2.7.8.5 1.7-.2 2.2-.4.3-.9.5-1.4.8v4.8c0 1-.5 2.2-1.2 3.3l.1.1c1.2.9 3.1 2.8 3.9 3.8.6.7.6 1.6-.2 2.2-.9.7-2.6 1.3-3.7 1.3h-14c1.8.7 3.5 1.8 3.5 2.5 0 .6-.9 1.2-3 1.4l-1.3 1.4c5 .3 9.4 1.4 10.8 2.5 2.1 1.7 2.5 4.6 1.9 5.7-.6 1.1-2.1 1.2-3.6-.2-2.6-2.5-6.4-4.7-10.7-6.5-3.7 3.3-8.4 5.9-15.1 7.8l-.5-1.1c6.9-4.2 11.3-8.5 13.8-13.4l.1-.1h-15.7c1.1.7 2 1.5 2 2.1 0 .7-.7 1.3-1.9 2.1v11.1h31.4c1.8-2 3.6-3.8 5.1-4.9.8-.6 1.7-.6 2.4-.1 1.2.9 3.5 3.1 4.4 4.1.6.7.7 1.7-.1 2.3-1 .8-2.6 1.4-3.9 1.4h-66.6c-12.8 0-17.3.3-19.6.7-.6.1-.9 0-1.2-.5-.4-.7-.7-2.1-.7-2.9 0-.5.3-.7.9-.6zm7.5-60.4 1.4-.1c.4 1.6.6 3.3.7 4.8h32.3c0-2.6-.2-3.8-.3-4.6h-11.3c-10 0-14.1.3-16.4.7-.6.1-.9 0-1.2-.5-.4-.7-.7-2-.7-2.8 0-.5.3-.7.9-.6 2.5.4 7.4.5 17.4.5h36.7c1.8-2 3.6-3.9 5.1-5 .8-.6 1.7-.6 2.4-.1 1.2.9 3.6 3.1 4.4 4.1.6.7.7 1.7-.1 2.3-1 .8-2.6 1.4-3.9 1.4h-27.7c1.4.7 2.5 1.6 2.5 2.3 0 .6-.7 1.2-1.8 1.9v.4h33c1.1-1.4 2.6-3 3.5-3.8.8-.7 1.6-.7 2.5-.1 1.2.8 3.2 2.7 4.2 4 .6.8.4 1.8-.5 2.3-.5.3-1.3.6-2.3.8l-6.6 8.1-1.2-.6 1.4-8h-34v13.6c0 1.8-3 2.8-4.8 2.8-.9 0-1.2-.3-1.2-1.2v-15.2h-32.4c-.1 1.2-.3 2.3-.6 3.2-1 3-2.9 4.8-5.3 5.4-2 .5-3.7-.3-4.1-2-.5-2 .7-3.8 2.5-4.9 3.7-2.3 5-4.8 5.5-9.1zm1.1 24.2c1.2 0 4.4 1.4 5.7 2.7h8.2c.9-1.1 2.1-2.4 2.9-3 .5-.4 1.2-.5 1.9 0 1 .7 2.5 2.1 3.5 3.2.7.8.5 1.7-.2 2.2-.4.3-.8.5-1.3.7v4.9c0 2.1-2.3 5.5-3.9 5.5-1 0-2.1-1.5-2.7-2.9h-9.3v.6c0 1.6-2.7 2.6-4.3 2.6-.8 0-1.1-.3-1.1-1.1v-9.2c0-3.6-.3-4.7-.3-5.3 0-.6.3-.9.9-.9zm3.2-5.4c2.5.4 6.6.5 12.1.5h4.4c1.2-1.5 2.6-3.1 3.5-3.8.6-.5 1.4-.5 2 0 .8.6 2.5 2.2 3.3 3.2.4.5.5 1.3-.2 1.8-.8.6-2.7 1.3-3.9 1.3h-9.1c-5.5 0-8.8.3-11.1.7-.6.1-.9 0-1.2-.5-.4-.7-.7-1.8-.7-2.6 0-.5.3-.7.9-.6zm.9-7.2c2.5.4 6.6.5 12 .5h3.6c1.2-1.5 2.6-3.1 3.5-3.8.6-.5 1.4-.5 2 0 .8.6 2.5 2.2 3.3 3.2.4.5.5 1.3-.2 1.8-.8.6-2.7 1.3-3.9 1.3h-8.3c-5.4 0-8.7.3-11 .7-.6.1-.9 0-1.2-.5-.4-.7-.7-1.8-.7-2.6 0-.5.3-.7.9-.6zm10.3 23.5c.7 0 .9-.3.9-1.2v-4.6h-9.5l-1 1.1v4.7h9.6zm12.1-10.9c1.2 0 4.4 1.4 5.7 2.7h8.1c.9-1.1 2.1-2.4 2.9-3 .5-.4 1.2-.5 1.9 0 1 .7 2.5 2.1 3.5 3.2.7.8.5 1.7-.2 2.2-.4.3-.8.5-1.3.7v4.9c0 2.1-2.3 5.5-3.9 5.5-1 0-2.1-1.5-2.7-2.9h-9.2v.4c0 1.6-2.7 2.6-4.3 2.6-.8 0-1.1-.3-1.1-1.1v-9c0-3.6-.3-4.7-.3-5.3 0-.6.3-.9.9-.9zm14.3 10.9c.7 0 .9-.3.9-1.2v-4.6h-9.4l-1 1.1v4.7h9.5zm4.3-23.5c2.5.4 6.6.5 12 .5h4.3c1.2-1.5 2.6-3.1 3.5-3.8.6-.5 1.4-.5 2 0 .8.6 2.5 2.2 3.3 3.2.4.5.5 1.3-.2 1.8-.8.6-2.7 1.3-3.9 1.3h-9c-5.4 0-8.7.3-11 .7-.6.1-.9 0-1.2-.5-.4-.7-.7-1.8-.7-2.6 0-.5.3-.7.9-.6zm0 7.2c2.5.4 6.7.5 12.2.5h5.1c1.2-1.5 2.6-3.1 3.5-3.8.6-.5 1.4-.5 2 0 .8.6 2.5 2.2 3.3 3.2.4.5.5 1.3-.2 1.8-.8.6-2.7 1.3-3.9 1.3h-9.8c-5.5 0-8.9.3-11.2.7-.6.1-.9 0-1.2-.5-.4-.7-.7-1.8-.7-2.6 0-.5.3-.7.9-.6zm22.5 16.3c.8 0 1-.3 1-1.2v-4.6h-9.7l-1 1.1v4.7h9.7z"/><path class="st0" d="M471.88 38.82v-7.7c0-7.5-.4-9.6-.4-10.1 0-.9.4-1.2 1.2-1.2 2.3 0 8.8 2.4 8.8 4 0 .9-1.2 2-2.6 3.2v14.2c0 24.9-.7 35.9-19.8 50.8l-1.3-1.3c13.8-17 14.1-26.5 14.1-51.9zm31.1-14.5c2.1 0 8.5 2.2 8.5 4 0 .8-.9 1.8-2.4 3.1v49.5c0 1.9-3.6 2.9-5.6 2.9-1 0-1.3-.4-1.3-1.4v-48.5c0-6.3-.3-7.6-.3-8.5 0-.7.4-1.1 1.1-1.1zm31.7-5.5c2.1 0 8.6 2.3 8.6 4.1 0 .9-.9 1.9-2.4 3.2v61.5c0 2.1-3.7 3.1-5.7 3.1-1.1 0-1.4-.4-1.4-1.4v-60.3c0-6.8-.3-8.1-.3-9 0-.8.4-1.2 1.2-1.2z"/><path class="st2" d="M607.22 38.72c.7-.7 1-.9 1.8-.6 1.7.6 5.3 2.6 5.3 3.7 0 .7-1.1 1.1-3.1 1.2l-.2.2c11.6 7.9 26.4 12.3 44.3 13.3l.1 1.1c-2.7 1.3-3.1 1.8-3.4 3.1-.2 1.6-1.5 1.9-4.8 1.3-2.9-.5-6-1.2-9.2-2.2.1.5-.2 1-.6 1.3-.4.2-.8.5-1.2.7v10.1c0 .9-.5 2-1.2 2.9 1.4-.9 2.7-1.8 3.9-2.7.9-.7 1.1-.8 1.7-.5 1.3.8 4.2 3.4 4.1 4.4-.1.8-1.3.9-3.1.7-4.5 2.5-11.3 4.6-18.4 5.6 8.2 2.3 17.4 3.2 28.7 3.3l.1 1c-2.7 1.5-3 2.1-3.2 3.5-.2 1.6-1.8 1.8-5.4 1.5-13.5-1.1-27.3-5.2-40.8-16.5h-16.9v9.1c8.5-.6 17.5-1.3 25.3-2.2l.4 1.4c-10 2.7-23.5 5.2-34 6.9-.6 1.5-1.3 2.5-2.1 2.5-1.5.1-3.4-5.6-3.5-7.1 0-.7.3-.9 1-.9l7-.3v-21.1c0-1.8 0-3.1-.1-4-5.7 1.7-11.9 3-18.3 3.7l-.3-1.6c20.8-5.1 36.7-13.4 46.1-22.8zm-30.6-12.8c.5-1 .7-1.2 1.5-1 1.8.4 6 2.2 6 3.3 0 .7-1 1.3-2.9 1.6l-1.2 1.8h7v-7.6c0-4-.3-5.2-.3-5.9 0-.6.3-1 1.1-1 1.8 0 7.5 2 7.5 3.7 0 .7-.8 1.6-2.2 2.8v.6h7.7c1.7-1.9 3.4-3.6 4.5-4.4.8-.6 1.6-.6 2.3-.1 1.2.9 3.1 2.8 3.9 3.8.6.7.6 1.5-.2 2.1-.9.7-2.6 1.3-3.7 1.3h-14.5v4.7h6c.9-1.1 2.1-2.4 2.9-3 .5-.4 1.2-.5 1.9 0 1 .7 2.5 2.1 3.5 3.2.7.8.5 1.7-.2 2.2s-1.6.9-2.6 1.2c-8.4 9.3-21.5 16.4-39.9 18.7l-.3-1.5c7.2-1.9 13.5-4.4 18.9-7.2-.4-.1-.8-.3-1.1-.6-2.4-2.4-5.2-4.6-9-6.5a39.8 39.8 0 0 1-8.7 4.7l-.6-1.1c6.5-5.6 10.5-10.9 12.7-15.8zm7.3 13.5c1.2 1.1 1.9 3.3 1.3 4.7 5.3-3 9.5-6.4 12.7-9.8h-20.2c-.9.9-1.9 1.8-3 2.6 4.6.4 7.9 1.4 9.2 2.5zm2.9 19.3h42.5l1.2-1.4c-7.5-2.9-15.2-6.9-21.6-12.3-3.2 2.6-7.1 5.2-11.6 7.5 1.2.1 2.8.2 5.7.2h6.3c1.2-1.3 2.3-2.3 3.1-2.9.6-.5 1-.5 1.6-.1.9.6 2.2 1.6 3.1 2.5.6.6.6 1.3 0 1.8-.9.7-2.1 1.2-3.6 1.2h-10c-3.7 0-4.5.1-6.1.4-.9.2-1.2.1-1.5-.5-.2-.4-.4-1.1-.5-1.7-3.1 1.5-6.6 3-10.2 4.3.6.3 1.1.6 1.6 1zm43.7 6.8v-4.1h-43.8c-.3.2-.6.5-1 .7v3.4h44.8zm-.8 6.9c.6 0 .8-.3.8-1.1v-3.2h-44.8v4.3h44zm-10.1 8.7c4.4-1.2 8.5-2.7 12.2-4.6-.7-.2-1.3-.7-1.8-1.4h-22.9c4.1 2.5 8.2 4.5 12.5 6zm-5.1-57.8c2.5.4 6.3.5 13.7.5h12.3a27 27 0 0 1 3.3-3.4c.6-.5 1.4-.5 2.1 0 1.1.8 3 2.5 4 3.6.7.8.5 1.8-.2 2.3-.9.6-2 1.1-3.3 1.4-2.3 3.5-5.1 6.5-8.6 9.1 3.9 1.7 6.9 3.3 8.2 4.4 3.2 2.7 4.3 6.6 3.5 8.3-.5 1-2.2 1.3-4.1-.4-3.1-2.7-7.6-5.9-12.8-9a51.5 51.5 0 0 1-15.8 5.2l-.5-1.4c4.7-1.9 8.8-3.9 12.3-6.1-4.2-2.3-8.6-4.4-12.9-6.2l.6-1.4c5.6 1 11.5 2.7 16.5 4.6 3-2.4 5.5-5.1 7.5-8.2h-12.1c-7.4 0-10.4.3-12.7.7-.6.1-.9 0-1.2-.5-.4-.7-.7-2.1-.7-2.9 0-.5.3-.7.9-.6z"/><path class="st0" d="M678.65 24.62c1.9 0 6.7 2 8.4 3.9h50.9c1.3-1.5 3.1-3.4 4.1-4.2.7-.6 1.7-.7 2.61-.1a30 30 0 0 1 4.9 4.4c.7.8.5 2-.2 2.6-.5.4-1.2.8-2 1.2v46.1c0 3.3-3.4 9.2-5.8 9.2-1.7 0-3.3-3.5-3.9-6.1h-52.6v2.7c0 2.2-3.8 3.4-5.8 3.4-1.1 0-1.4-.4-1.4-1.4v-51.5c0-6.8-.3-8.1-.3-9 0-.8.4-1.2 1.1-1.2zm59.7 54.1c1.3 0 1.7-.6 1.7-2.4v-44.9h-53.1c-.5.6-1.1 1.2-1.9 1.9v45.4h53.3z"/><path class="st2" d="M397.12 272.83c-12.3-1.6-20.9-4.8-25.5-12.8-3.3 5.1-6.3 8.6-10.6 12.2-.2 1.6-.6 2.8-1.3 3-.7.2-1.3-.1-2.3-1.2-1.1-1.2-2.5-3.3-3.1-5.2-.3-.9-.2-1.4.5-1.7 4.8-1.9 8.6-4 11.9-6.8v-17.2h-.8c-5.4 0-7.7.3-10 .7-.6.1-.9 0-1.2-.5-.4-.7-.6-1.9-.6-2.8 0-.5.3-.7.89-.6 2.4.4 5.2.5 10.2.5 1.3-1.5 2.6-2.9 3.6-3.7.8-.7 1.8-.7 2.6-.1 1.2.9 3.5 3.1 4.3 4.1.7.8.5 1.9-.3 2.5-.6.4-1.3.8-2.2 1.1v13.4c2 3.2 4.7 5.4 8.3 6.9 11.4-4.1 14.3-8.3 14.8-15.2h-.4c-10.3 0-14.4.3-16.7.7-.6.1-.9 0-1.2-.5-.4-.7-.7-1.9-.7-2.7 0-.5.3-.7.9-.6 2.5.4 7.4.5 17.7.5h12.4v-2.7c0-2.2-.2-2.5-.2-3.3 0-.5.2-.9.9-.9 1.7 0 6.4 1.9 6.4 3.2 0 .6-.7 1.1-1.4 1.5v2.2h22.1c1.7-2 3.4-3.8 4.5-4.6.8-.6 1.6-.6 2.3-.1 1.2.9 3.1 2.8 3.9 3.8.6.7.6 1.6-.2 2.2-.9.7-2.6 1.3-3.7 1.3h-41c1.1.5 1.9 1.1 1.9 1.6 0 .6-.8 1.2-2.1 1.8l-.3 1.3h26.1c.9-1.1 2.1-2.4 2.9-3 .5-.4 1.2-.5 1.9 0 1 .7 2.5 2.1 3.5 3.2.7.8.5 1.7-.2 2.2-.4.3-1 .6-1.6.8-.2 1.5-.4 2.8-.9 4-.9 2.4-8.3 5.4-11.2 5.4-1.5 0-1.8-.5-1.8-1.7 0-1-.2-1.3-1-1.9-.9-.6-2.5-1.4-5-2.4l.3-1.1c4.1.6 7.4.9 9.6.9 2.5 0 3.3-.3 3.8-1.9.2-.5.3-1.2.4-2h-27.8c-2.1 4.6-6.5 7.9-16 9.1 3.6 1.1 7.8 1.7 12.6 2.1 11.6 1 34.9.6 50.6-1.7l.3 1.1c-2.3 1.7-2.6 2.5-2.6 3.8 0 2.5-1.4 2.7-4.5 2.9-13.7.8-33.1.3-43.7-1.1zm-41.4-54c7 .8 13 3 14.8 4.6 2.3 2.1 2.5 6 1.2 7.5-1 1.2-2.9 1-4.2-.6-2.7-3.3-7.2-7.4-12.3-10.3l.5-1.2zm4-15c7 .9 13.2 3 14.9 4.8 1.9 2 2.4 5.8 1 7.3-1 1.1-2.7.8-3.9-.6a57.2 57.2 0 0 0-12.5-10.3l.5-1.2zm23.1 24.4 1.3-.2c.5 1.3.9 2.8 1.1 4.3h23.3v-1.3c0-1.8-.1-2.4-.2-2.9h-13.7v.1c0 1.7-3 2.7-4.8 2.7-.8 0-1.1-.3-1.1-1.2v-17.4c0-4.6-.3-5.7-.3-6.5 0-.6.3-.9 1-.9 1.3 0 4.5 1.4 6.2 2.8h9.5c1-2.2 1.7-4.3 2-6 .1-.6.4-.8 1-.7 1.7.3 7 1.8 7 3.1 0 .5-.8.8-2.1.9-1.3 1.1-3.2 2-5.2 2.7h20.9c.9-1.1 2.1-2.4 2.9-3 .5-.4 1.2-.5 1.9 0 1 .7 2.5 2.1 3.5 3.2.7.8.5 1.7-.2 2.2-.3.2-.7.4-1.1.6v14.5c0 2.3-2.7 5.7-4.4 5.7-1 0-2.2-1.4-2.9-2.8h-16.1c1.5.6 2.9 1.4 2.9 2 0 .5-.7 1-1.4 1.4v.8h23.7c1.2-1.4 2.3-2.5 3.2-3.2.5-.4 1.2-.4 1.7 0 1.3 1 2.8 2.3 3.6 3.2.6.7.4 1.6-.2 1.9-.6.4-1.5.7-2.4.9l-4.7 4.7-.9-.4 1-4.6h-18.8c1 .5 1.8 1.1 1.8 1.6 0 .4-.4.9-1.2 1.4v.7c0 1.3.2 1.4 5.5 1.4 5.4 0 6.5-.2 7-1.2.5-.9.8-1.8 1.2-3.3h.8c.1 1.2.4 2.4.6 3.1.2.6.4.9 1 1 .6.2.9.5.9 1 0 .6-.7 1.5-2.5 2.2-1.5.6-3.1 1-10.8 1-6.3 0-8.4-1-8.4-4.8v-1.9c0-1.3-.1-1.9-.1-2.2h-10.3c1 .5 1.9 1.1 1.9 1.6 0 .6-.8 1-2.3 1.3-4.8 5.9-11.6 6.7-22.6 6.7l-.1-1.3c10.2-1.7 16-3.2 18.1-8.3h-15.1c0 .9-.1 1.8-.3 2.7-.6 2.8-2.4 4.6-5 4.6s-2.8-3.7-.9-5.2c2.4-1.9 3.6-3.5 3.6-8.7zm46.9-14.5v-3.5h-33.6c-.3.5-.8 1.1-1.5 1.8v1.7h35.1zm0 5.9v-3.5h-35.1v3.5h35.1zm-1.1 6c.8 0 1.1-.4 1.1-1.4v-2.2h-35.1v3.6h34z"/><path class="st0" d="M472.2 222.72v-7.7c0-7.5-.4-9.6-.4-10.1 0-.9.4-1.2 1.2-1.2 2.3 0 8.8 2.4 8.8 4 0 .9-1.2 2-2.6 3.2v14.2c0 24.9-.7 35.9-19.8 50.8l-1.3-1.3c13.8-17 14.1-26.5 14.1-51.9zm31.1-14.5c2.1 0 8.5 2.2 8.5 4 0 .8-.9 1.8-2.4 3.1v49.5c0 1.9-3.6 2.9-5.6 2.9-1 0-1.3-.4-1.3-1.4v-48.5c0-6.3-.3-7.6-.3-8.5 0-.7.4-1.1 1.1-1.1zm31.7-5.5c2.1 0 8.6 2.3 8.6 4.1 0 .9-.9 1.9-2.4 3.2v61.5c0 2.1-3.7 3.1-5.7 3.1-1.1 0-1.4-.4-1.4-1.4v-60.3c0-6.8-.3-8.1-.3-9 0-.8.4-1.2 1.2-1.2z"/><path class="st2" d="M568.99 250.33c.1-1.1.4-1.4 1.3-1.3 1.8.1 6.8 1.5 6.8 2.9 0 .7-.8 1.4-2.5 2-2.2 7-5.5 13.4-11.9 19.2l-1.1-.9c4.6-8.2 6.8-14.8 7.4-21.9zm-6-32.4c2.4.8 4.6 1.7 6.5 2.6 3.7-5.7 6.3-11.7 7.8-17.4.3-1.1.7-1.2 1.4-1.1 1.6.2 7.1 2.2 7.1 3.6 0 .9-1.3 1.4-3 1.8a47.6 47.6 0 0 1-11.6 14.1c2.3 1.3 3.9 2.5 4.6 3.5.9 1.4 1.2 3.2 1 4.6 4.7-5.9 8.7-12 11.2-17.5.5-1.1.7-1.2 1.6-1 1.9.4 6.5 2.5 6.5 3.7 0 .9-1.2 1.3-3.2 1.6-5.8 8.3-13 16.3-20.6 22.1 5.8-.5 11.8-1.2 17.4-1.9-1.2-2.6-2.7-5.2-4.5-7.9l.9-.9c5.3 3.4 9.8 8.2 10.6 10.3.2.4.3.9.4 1.4 2.6-.6 5.1-1.3 7.6-2-.1-3-.3-3.9-.3-4.5v-.3c-2.4.8-5 1.4-7.7 1.8l-.4-1.2c6.9-3 12.6-6.8 15.9-10.7.5-.6.8-.7 1.4-.4 1.6.8 5.1 3 4.9 4.1-.1.7-1.2.9-2.9.9a37.4 37.4 0 0 1-9.7 5c1.8.3 5 1.9 6.1 3.2 3.6-1.1 7.1-2.3 10.3-3.6v-6.5c0-3.2-.2-4.5-.3-5.2h-1.6c-6.7 0-10.2.3-12.5.7-.6.1-.9 0-1.2-.5-.4-.7-.7-2-.7-2.8 0-.5.3-.7.9-.6 2.5.4 6.8.5 13.5.5h13.9c1.2-1.4 2.6-2.9 3.5-3.6.6-.5 1.4-.5 2 0 .8.6 2.5 2.2 3.3 3.2.4.5.5 1.3-.2 1.8-.8.6-2.7 1.3-3.9 1.3h-12.6c1.6.8 3 1.7 3 2.5 0 .6-.6 1.2-1.7 1.8v5.2c5.8-2.6 10.7-5.3 14.4-8.1.8-.6 1-.7 1.6-.4 1.6.8 4.8 3.2 4.7 4.2-.1.8-1.3.9-3.4.8-6.4 3.8-14.2 7.1-22.6 9.8h16.1a27 27 0 0 1 3.3-3.4c.6-.5 1.4-.5 2.1 0 1.1.8 3 2.5 4 3.6.7.8.5 1.7-.2 2.2-.4.3-.9.6-1.5.8v18.8c0 2.4-2.6 6.1-4.3 6.1-1.1 0-2.2-1.4-2.8-2.9h-28.7v.8c0 1.7-2.8 2.7-4.6 2.7-.8 0-1.1-.3-1.1-1.1v-23.2c-2.5.5-5 .9-7.4 1.2-.1 1.9-.7 3.5-1.7 4-1.1.5-2.3 0-2.9-1.7-.6-1.8-1.3-3.5-2.1-5.3-2.2.8-4.6 1.5-7.1 2.2 1.8.8 3.4 2 3.4 2.8 0 .6-.7 1.3-2 2.1v27.6c0 1.7-3 2.7-4.8 2.7-.8 0-1.1-.3-1.1-1.2v-27.7c0-2.6-.1-4.1-.2-5-3.6 1-7.1 1.8-10.4 2.6-.6 1.5-1.3 2.4-2.1 2.4-1.4 0-3-5.4-3.1-7 0-.6.2-.8 1-.9l4.4-.3c2-2.1 4-4.2 5.9-6.5-.7 0-1.4-.6-2-1.6-2.6-4.5-5.7-8.1-10.2-11.7l.7-1.1zm25.7 30.3c5.3 3.3 9.6 7.7 10.5 10.4.8 2.5.5 6.5-1.4 7.7-1.2.7-2.6.2-3.1-1.6-1.5-5.3-3.7-10.5-7-15.6l1-.9zm27.2 15c.7-.6.9-.7 1.7-.3 1.8.9 5.1 3.5 4.9 4.6-.1.7-1.3 1-3.9.9-5.1 3.1-14.8 6.2-24.5 7l-.3-1.5c9.5-3 17.7-6.9 22.1-10.7zm-13.8-58.2 1.6-.2c.5 1.5.8 3 1 4.5h17.1v-1.3c0-3.9-.3-5.1-.3-5.9 0-.6.3-1 1.1-1 1.9 0 7.7 2.1 7.7 3.8 0 .7-.8 1.7-2.2 2.9v1.5h17c1.2-1.4 2.9-2.8 3.7-3.4.6-.5 1.6-.5 2.2 0 1.2 1 2.7 2.7 3.5 3.8.7.9.4 1.8-.3 2.2-.7.4-1.7.7-2.6 1l-5.8 8-1.4-.6 1.5-8.2h-41c0 1.9-.3 3.7-.8 5.2-1.2 3.4-4.3 5.5-6.5 5-2.7-.6-2.5-4.4-.2-6 3-2.1 4.7-6.7 4.7-11.3zm38.3 38.3v-4.7h-27.7c-.7.2-1.5.4-2.3.5v4.2h30zm0 7.4v-4.7h-30v4.7h30zm-1.1 7.6c.8 0 1.1-.4 1.1-1.5v-3.4h-30v4.9h28.9zm-10.7 5.6c9.4.3 18.3 2.4 20.7 3.9 3.1 1.9 4.3 5.3 3.9 6.7-.4 1.3-2 1.3-3.7.2-4.6-3-13.5-7-21.2-9.5l.3-1.3z"/><path class="st0" d="M678.47 208.52c1.9 0 6.7 2 8.4 3.9h50.9c1.3-1.5 3.1-3.4 4.1-4.2.7-.6 1.7-.7 2.6-.1a30 30 0 0 1 4.9 4.4c.7.8.5 2-.2 2.6-.5.4-1.2.8-2 1.2v46.1c0 3.3-3.4 9.2-5.8 9.2-1.7 0-3.3-3.5-3.9-6.1h-52.6v2.7c0 2.2-3.8 3.4-5.8 3.4-1.1 0-1.4-.4-1.4-1.4v-51.5c0-6.8-.3-8.1-.3-9 0-.8.4-1.2 1.1-1.2zm59.7 54.1c1.3 0 1.7-.6 1.7-2.4v-44.9h-53.1c-.5.6-1.1 1.2-1.9 1.9v45.4h53.3zM364.91 146.57c0-20.1 15.7-35.2 35.8-35.2 20.2 0 35.8 15.1 35.8 35.2s-15.6 35.3-35.8 35.3-35.8-15.2-35.8-35.3zm35.8 30.2c17 0 30-13 30-30.2s-13-30.1-30-30.1-30 12.9-30 30.1c0 17.2 13 30.2 30 30.2z"/><path class="st2" d="M492 160.78h-10.4c-12.2 0-16.7.3-19 .7-.6.1-.9 0-1.2-.5-.4-.7-.7-1.9-.7-2.7 0-.5.3-.7.9-.6 2.5.4 7.8.5 20 .5h14.2c2.4-1.8 4.4-3.9 6.2-6.2.6-.8.8-.9 1.5-.7 1.4.6 3.6 1.9 4.7 3.1 3.9-2 7.4-4.4 9.7-7.3-4.8.1-7.7.3-9.7.7-.6.1-.9 0-1.2-.5-.4-.7-.7-1.6-.7-2.4 0-.5.3-.7.9-.6 2.5.4 6.7.5 12.6.5 0-3-.2-3.9-.2-4.6 0-.5.2-.8.8-.8 1.4 0 6 1.6 6 2.8 0 .6-.5 1.3-1.5 2.2v.4h6.5c1.2-1.4 2.4-2.6 3.3-3.3.6-.5 1.3-.5 2 0 .8.6 2 1.6 2.8 2.6.4.5.4 1.2-.2 1.7-.7.6-2.5 1.3-3.5 1.3h-10.9v1.5c4.8.3 9.2 1.1 10.7 2 1.9 1.2 2.2 4.2 1.5 5.2-.5.7-1.6.9-2.7-.1-2.5-2.3-5.9-4.3-9.5-5.8v4.8c0 1.3-2.5 2.3-4.1 2.3-.8 0-1-.3-1-1.1v-5.1c-3 2.6-6.6 4.1-10.8 5-.2.6-2 .9-3.4.9l-1.7 1.5h33.6c1.7-2 3.4-3.8 4.5-4.6.8-.6 1.6-.6 2.3-.1 1.2.9 3.1 2.8 3.9 3.8.6.7.6 1.6-.2 2.2-.9.7-2.6 1.3-3.7 1.3H513c11.1 4 24.3 5.5 38.2 5l.2.9c-2 1.2-2.3 1.6-2.3 2.9 0 1.2-1 1.6-3 1.6-5.1 0-11.5-.9-18.1-2.6 1.1 1.1 2.4 2.6 2.1 3.3-.2.5-1.1.4-2.4.2-3.5 1.1-10 1.5-14.9 1.5l-.2-1c4.9-1.3 10-3 12.7-4.7a78.1 78.1 0 0 1-17.1-7.1h-7.6c-10.8 7.7-24.5 10.9-42.5 11.5l-.2-1.5c14-2 25.5-4.9 34.1-10zm-27.1-28.6 1.4-.2c.4 1.4.7 2.8.9 4.2h2.8v-17.3c0-3.8-.2-4.8-.2-5.5 0-.5.2-.8.8-.8 1.1 0 4.4 1.5 5.7 2.9 2.7-1.1 5.3-2.7 7.1-4.2.6-.5 1-.4 1.4-.1 1 .8 3.7 4 3.3 4.9-.3.6-1.5.5-2.8.1-2.5.7-5.6 1-8.8 1.1-.3.4-.7.9-1.3 1.5v3.3h5.6c.8-.9 1.9-1.9 2.7-2.5.4-.3 1.1-.4 1.6 0 .7.5 1.9 1.7 2.4 2.4.4.5.3 1.2-.2 1.6-.7.5-1.9.9-2.9.9h-9.2v4.6h5.6c.8-.9 1.9-1.9 2.7-2.5.4-.3 1.1-.4 1.6 0 .7.5 1.9 1.7 2.4 2.4.4.5.3 1.2-.2 1.6-.7.5-1.9.9-2.9.9h-9.2v4.7h14.7v-17.9c0-3.7-.2-4.7-.2-5.3 0-.5.2-.8.7-.8 1.1 0 4.2 1.39 5.4 2.7h16.5c.9-1.11 2.1-2.4 2.9-3.01.5-.4 1.2-.5 1.9 0 1 .7 2.5 2.1 3.5 3.2.7.8.5 1.7-.2 2.2-.4.3-.8.5-1.3.7v18.2h15.2v-4.8h-5.8c-4.4 0-4.9.4-5.5.4-.7 0-1.2-2-1.2-2.7 0-.3.1-.5.5-.5s1.8.4 6.2.4h5.8v-4.7h-5.8c-4.4 0-4.9.4-5.5.4-.7 0-1.2-2-1.2-2.7 0-.3.1-.5.5-.5s1.8.4 6.2.4h5.8v-4.8l-5.8.1c-4.4 0-4.8.5-5.4.5-.7 0-1.3-2-1.3-2.8 0-.3.1-.5.5-.5s1.8.4 6.2.4h4.6c.9-1.1 2.1-2.4 2.9-3 .5-.4 1.2-.5 1.9 0 1 .7 2.5 2.1 3.5 3.2.7.8.5 1.6-.2 2.1-.5.3-1 .6-1.6.8v18.3h2.2c1.1-1.2 2.1-2.2 3-2.9.8-.7 1.6-.7 2.4-.1 1.3.9 3 2.4 3.9 3.4.6.7.6 1.5 0 2s-1.6.9-2.6 1.2l-6.8 8.7-1-.5 2.1-9.2h-75.3c.1 1.8 0 3.4-.4 4.9-.9 3.6-3.8 6.2-6.6 5.6-2.3-.5-2.5-4.3-.3-6 3.3-2.6 4.7-6.2 4.7-11.1zm30.2 43.2c5-2.5 7.1-5.3 7.4-10.1.1-1.4-.1-1.7-.1-2.2 0-.4.3-.7.8-.7 1.9 0 7 1.9 7 3.1 0 .6-.9 1.2-2.1 1.8-.6 3.1-1.6 5.6-3.6 7.6 15.5.1 30.8 1.2 34.6 2.5 4.4 1.5 5.3 4.1 5 5.5-.2 1-1.6 1.1-2.9.7-10.8-2.9-24.8-5.4-38.4-7.2a25.1 25.1 0 0 1-5.7 3c-7.5 2.8-21.6 4.6-33.8 4.6l-.1-1.4c12.2-1.1 25.5-4 31.9-7.2zm-13.4-28.3c-4.7.1-7.5.4-9.5.7-.6.1-.9 0-1.2-.5-.4-.7-.7-1.6-.7-2.4 0-.5.3-.7.9-.6 2.5.4 6.7.5 12.7.5 0-3.1-.2-4-.2-4.6 0-.5.2-.8.8-.8 1.4 0 5.9 1.5 5.9 2.8 0 .6-.5 1.2-1.5 2.1v.5h5.8c1.2-1.4 2.4-2.6 3.3-3.3.6-.5 1.3-.5 2 0 .8.6 2 1.6 2.8 2.6.4.5.4 1.2-.2 1.7-.7.6-2.5 1.3-3.5 1.3h-10.2v1.5c3.5.1 6.8.7 8.1 1.5 1.5.9 2.1 3.6 1.3 4.7-.5.7-1.5.6-2.4-.2-1.6-1.5-4.1-3.2-7-4.7v4.8c0 1.3-2.4 2.3-4 2.3-.8 0-1-.3-1-1v-5.3a42.4 42.4 0 0 1-17.6 6l-.3-1.1c5.1-1.6 11.3-4.7 15.7-8.5zm-1.3 24.2c3.4.2 9.5-.6 13.8-3l.7.9c-2.4 2.6-6.4 4.9-9.7 5.9-3.2 1-6.9 1.2-7.7 0-1.1-1.7.6-3.9 2.9-3.8zm33.6-35.1v-18.9h-18.3c-.2.3-.5.6-.8 1v17.9H514zm-17.4-15.9c.3 0 1.1.2 4.1.2h6.2c.8-.9 2.3-2.2 2.9-2.2.7 0 3 2.1 3 2.8 0 .6-1.4 1.4-2.2 1.4h-8.9c-3.8 0-3.9.3-4.5.3-.6 0-1-1.5-1-2.1 0-.3.2-.4.4-.4zm2.1 3.7c.7 0 2.5.9 3.4 1.7h4.4c.8-.9 1.8-2 2.4-2 .7 0 2.8 2.3 2.8 2.8 0 .4-.4.7-.9 1.1v4.1c0 1.2-1.6 2.8-2.5 2.8-.6 0-1.3-.8-1.7-1.7h-5v.2c0 1-1.7 1.5-2.8 1.5-.5 0-.7-.2-.7-.7v-6.9c0-1.3-.1-1.9-.1-2.3s.2-.6.7-.6zm7.7 6.9c.6 0 .8-.2.8-.9v-2.4h-5l-.6.6v2.7h4.8z"/><path class="st0" d="M576.09 130.77v-7.7c0-7.5-.4-9.6-.4-10.1 0-.9.4-1.2 1.2-1.2 2.3 0 8.8 2.4 8.8 4 0 .9-1.2 2-2.6 3.2v14.2c0 24.9-.7 35.9-19.8 50.8l-1.3-1.3c13.8-17 14.1-26.5 14.1-51.9zm31.1-14.5c2.1 0 8.5 2.2 8.5 4 0 .8-.9 1.8-2.4 3.1v49.5c0 1.9-3.6 2.9-5.6 2.9-1 0-1.3-.4-1.3-1.4v-48.5c0-6.3-.3-7.6-.3-8.5 0-.7.4-1.1 1.1-1.1zm31.7-5.5c2.1 0 8.6 2.3 8.6 4.1 0 .9-.9 1.9-2.4 3.2v61.5c0 2.1-3.7 3.1-5.7 3.1-1.1 0-1.4-.4-1.4-1.4v-60.3c0-6.8-.3-8.1-.3-9 0-.8.4-1.2 1.2-1.2z"/><path class="st2" d="M667.07 177.48c2.5.4 7.8.5 20.6.5h21.1v-10c0-2.9-.1-4.4-.2-5.3h-15.8c1.8.7 3.6 1.8 3.6 2.5 0 .6-.9 1.2-2.9 1.4l-1.4 1.5c5 .2 9.4 1.3 10.8 2.4 2.1 1.7 2.5 4.5 1.9 5.6-.6 1.1-2.1 1.2-3.6-.2-2.7-2.5-6.4-4.7-10.7-6.4-3.9 3.4-9 6-15.6 8l-.5-1.1c6.7-4.2 11.7-8.5 14.5-13.6l.1-.1c-9.4.1-13.1.3-15.2.7-.6.1-.9 0-1.2-.5-.4-.7-.7-2-.7-2.8 0-.5.3-.7.9-.6 2.5.4 7.6.5 19.2.5h49.9c.9-1.1 1.9-2.1 2.7-2.9-.6-.6-1.2-1.6-1.6-2.5h-9.4v.6c0 1.6-2.7 2.6-4.3 2.6-.8 0-1.1-.3-1.1-1.1v-9.2c0-3.6-.3-4.7-.3-5.3 0-.6.3-.9.9-.9 1.2 0 4.4 1.4 5.7 2.7h8.6c.9-1.1 2.1-2.4 2.9-3 .5-.4 1.2-.5 1.9 0 1 .7 2.5 2.1 3.5 3.2.7.8.5 1.7-.2 2.2-.4.3-.9.5-1.4.8v4.8c0 1-.5 2.2-1.2 3.3l.1.1c1.2.9 3.1 2.8 3.9 3.8.6.7.6 1.6-.2 2.2-.9.7-2.6 1.3-3.7 1.3h-14c1.8.7 3.5 1.8 3.5 2.5 0 .6-.9 1.2-3 1.4l-1.3 1.4c5 .3 9.4 1.4 10.8 2.5 2.1 1.7 2.5 4.6 1.9 5.7-.6 1.1-2.1 1.2-3.6-.2-2.6-2.5-6.4-4.7-10.7-6.5-3.7 3.3-8.4 5.9-15.1 7.8l-.5-1.1c6.9-4.2 11.3-8.5 13.8-13.4l.1-.1h-15.7c1.1.7 2 1.5 2 2.1 0 .7-.7 1.3-1.9 2.1v11.1h31.4c1.8-2 3.6-3.8 5.1-4.9.8-.6 1.7-.6 2.4-.1 1.2.9 3.5 3.1 4.4 4.1.6.7.7 1.7-.1 2.3-1 .8-2.6 1.4-3.9 1.4h-66.6c-12.8 0-17.3.3-19.6.7-.6.1-.9 0-1.2-.5-.4-.7-.7-2.1-.7-2.9 0-.5.3-.7.9-.6zm7.5-60.4 1.4-.1c.4 1.6.6 3.3.7 4.8h32.3c0-2.6-.2-3.8-.3-4.6h-11.3c-10 0-14.1.3-16.4.7-.6.1-.9 0-1.2-.5-.4-.7-.7-2-.7-2.8 0-.5.3-.7.9-.6 2.5.4 7.4.5 17.4.5h36.7c1.8-2 3.6-3.9 5.1-5 .8-.61 1.7-.61 2.4-.11 1.2.9 3.6 3.1 4.4 4.1.6.7.7 1.7-.1 2.3-1 .8-2.6 1.4-3.9 1.4h-27.7c1.4.7 2.5 1.6 2.5 2.3 0 .6-.7 1.2-1.8 1.9v.4h33c1.1-1.4 2.6-3 3.5-3.8.8-.7 1.6-.7 2.5-.1 1.2.8 3.2 2.7 4.2 4 .6.8.4 1.8-.5 2.3-.5.3-1.3.6-2.3.8l-6.6 8.1-1.2-.6 1.4-8h-34v13.6c0 1.8-3 2.8-4.8 2.8-.9 0-1.2-.3-1.2-1.2v-15.2h-32.4c-.1 1.2-.3 2.3-.6 3.2-1 3-2.9 4.8-5.3 5.4-2 .5-3.7-.3-4.1-2-.5-2 .7-3.8 2.5-4.9 3.7-2.3 5-4.8 5.5-9.1zm1.1 24.2c1.2 0 4.4 1.4 5.7 2.7h8.2c.9-1.1 2.1-2.4 2.9-3 .5-.4 1.2-.5 1.9 0 1 .7 2.5 2.1 3.5 3.2.7.8.5 1.7-.2 2.2-.4.3-.8.5-1.3.7v4.9c0 2.1-2.3 5.5-3.9 5.5-1 0-2.1-1.5-2.7-2.9h-9.3v.6c0 1.6-2.7 2.6-4.3 2.6-.8 0-1.1-.3-1.1-1.1v-9.2c0-3.6-.3-4.7-.3-5.3 0-.6.3-.9.9-.9zm3.2-5.4c2.5.4 6.6.5 12.1.5h4.4c1.2-1.5 2.6-3.1 3.5-3.8.6-.5 1.4-.5 2 0 .8.6 2.5 2.2 3.3 3.2.4.5.5 1.3-.2 1.8-.8.6-2.7 1.3-3.9 1.3h-9.1c-5.5 0-8.8.3-11.1.7-.6.1-.9 0-1.2-.5-.4-.7-.7-1.8-.7-2.6 0-.5.3-.7.9-.6zm.9-7.2c2.5.4 6.6.5 12 .5h3.6c1.2-1.5 2.6-3.1 3.5-3.8.6-.5 1.4-.5 2 0 .8.6 2.5 2.2 3.3 3.2.4.5.5 1.3-.2 1.8-.8.6-2.7 1.3-3.9 1.3h-8.3c-5.4 0-8.7.3-11 .7-.6.1-.9 0-1.2-.5-.4-.7-.7-1.8-.7-2.6 0-.5.3-.7.9-.6zm10.3 23.5c.7 0 .9-.3.9-1.2v-4.6h-9.5l-1 1.1v4.7h9.6zm12.1-10.9c1.2 0 4.4 1.4 5.7 2.7h8.1c.9-1.1 2.1-2.4 2.9-3 .5-.4 1.2-.5 1.9 0 1 .7 2.5 2.1 3.5 3.2.7.8.5 1.7-.2 2.2-.4.3-.8.5-1.3.7v4.9c0 2.1-2.3 5.5-3.9 5.5-1 0-2.1-1.5-2.7-2.9h-9.2v.4c0 1.6-2.7 2.6-4.3 2.6-.8 0-1.1-.3-1.1-1.1v-9c0-3.6-.3-4.7-.3-5.3 0-.6.3-.9.9-.9zm14.3 10.9c.7 0 .9-.3.9-1.2v-4.6h-9.4l-1 1.1v4.7h9.5zm4.3-23.5c2.5.4 6.6.5 12 .5h4.3c1.2-1.5 2.6-3.1 3.5-3.8.6-.5 1.4-.5 2 0 .8.6 2.5 2.2 3.3 3.2.4.5.5 1.3-.2 1.8-.8.6-2.7 1.3-3.9 1.3h-9c-5.4 0-8.7.3-11 .7-.6.1-.9 0-1.2-.5-.4-.7-.7-1.8-.7-2.6 0-.5.3-.7.9-.6zm0 7.2c2.5.4 6.7.5 12.2.5h5.1c1.2-1.5 2.6-3.1 3.5-3.8.6-.5 1.4-.5 2 0 .8.6 2.5 2.2 3.3 3.2.4.5.5 1.3-.2 1.8-.8.6-2.7 1.3-3.9 1.3h-9.8c-5.5 0-8.9.3-11.2.7-.6.1-.9 0-1.2-.5-.4-.7-.7-1.8-.7-2.6 0-.5.3-.7.9-.6zm22.5 16.3c.8 0 1-.3 1-1.2v-4.6h-9.7l-1 1.1v4.7h9.7z"/><path class="st0" d="M364.91 330.48c0-20.1 15.7-35.2 35.8-35.2 20.2 0 35.8 15.1 35.8 35.2s-15.6 35.3-35.8 35.3-35.8-15.2-35.8-35.3zm35.8 30.2c17 0 30-13 30-30.2s-13-30.1-30-30.1-30 12.9-30 30.1c0 17.2 13 30.2 30 30.2zm175.38-46v-7.7c0-7.5-.4-9.6-.4-10.1 0-.9.4-1.2 1.2-1.2 2.3 0 8.8 2.4 8.8 4 0 .9-1.2 2-2.6 3.2v14.2c0 24.9-.7 35.9-19.8 50.8l-1.3-1.3c13.8-17 14.1-26.5 14.1-51.9zm31.1-14.5c2.1 0 8.5 2.2 8.5 4 0 .8-.9 1.8-2.4 3.1v49.5c0 1.9-3.6 2.9-5.6 2.9-1 0-1.3-.4-1.3-1.4v-48.5c0-6.3-.3-7.6-.3-8.5 0-.7.4-1.1 1.1-1.1zm31.7-5.5c2.1 0 8.6 2.3 8.6 4.1 0 .9-.9 1.9-2.4 3.2v61.5c0 2.1-3.7 3.1-5.7 3.1-1.1 0-1.4-.4-1.4-1.4v-60.3c0-6.8-.3-8.1-.3-9 0-.8.4-1.2 1.2-1.2z"/><path class="st2" d="M465.5 322.28v-6.9c0-15.4-.6-16.6-.6-17.9 0-.8.4-1.2 1.3-1.2 1.5 0 5.1 1.7 6.7 3.1h23.2a27 27 0 0 1 3.3-3.4c.6-.5 1.4-.5 2.1 0 1.1.8 3 2.5 4 3.6.7.8.5 1.8-.2 2.3-.6.4-1.3.8-2.2 1.1-.7 19.3.1 38 5.2 46.6 1 1.7 2.2 3.1 3.5 4.4v-24.7c0-4.3-.3-5.4-.3-6 0-.6.3-.9.9-.9 1.1 0 4.3 1.4 5.7 2.7H536a21 21 0 0 1 2.9-3c.5-.4 1.2-.5 1.9 0 1 .7 2.5 2.1 3.5 3.2.7.8.5 1.7-.2 2.2-.4.3-.9.5-1.4.8v20.1c0 2.8-5.8 8.1-7.9 8.1-.9 0-1.5-.5-1.5-1.8 0-1.8 0-1.9-5.9-4.7l.3-1c3.1.4 5.6.6 7.1.6 1.6 0 2.4-.7 2.4-3.2v-2.3h-20v8.8c0 1.4-2 2.3-3.6 2.5 5.2 3.9 12.4 5.1 20.5 5.1 7.1 0 8.9-.8 9.7-3.2 1.2-3.6 2.2-7.6 2.9-10.9l1.6.2c-.2 4-.2 7.5-.1 9.9.1 1.7.7 2.3 1.7 2.6.9.3 1.2 1 1.2 1.5 0 1.5-2.6 3.3-4.6 4.2-1.7.8-5.6 1.6-12.7 1.6-12.5 0-24.3-3.3-30.3-14-5.6-10.1-6.8-28.4-6.1-50.2H473l-1.6 1.9v20.9c0 20.1-3.2 31.1-13.7 42.5l-1.3-1c8.2-15.4 9.1-25 9.1-44.2zm4.6 35.6c3.7-.5 7.9-1.1 12-1.8v-13.2h-3.4v2.6c0 1.2-1.9 2.1-3.4 2.1-.6 0-.8-.2-.8-.8v-22c0-3.1-.2-4-.2-4.6 0-.4.2-.6.6-.6.9 0 3.5 1.2 4.6 2.3h2.6v-3.9c0-3-.1-4.2-.2-4.8-3 .4-6.3.6-9.5.6l-.2-1.4c7.4-1.7 14.2-4.5 18.3-7.2.6-.4.9-.4 1.4 0 1.4 1.1 4.1 4 3.8 5.1-.2.7-1.4.7-3.2.4-2.2.8-4.9 1.5-7.8 2 1.4.6 2.9 1.6 2.9 2.3 0 .4-.4.8-1.1 1.2v5.7h2c.8-.9 1.8-1.9 2.5-2.4.5-.4 1.2-.5 1.9 0 .8.6 2.1 1.9 2.7 2.7.4.5.3 1.3-.3 1.7-.4.2-.7.5-1.1.7v15.9c0 1.9-1.6 5.3-3 5.3-.8 0-1.7-1.5-2.2-2.9h-2.5v12.5l6.7-1.4c-1.1-1.8-2.2-3.6-3.3-5.2l1.1-1c5.1 2.9 9.4 7.1 10.3 9.3 1.2 3 .3 6.2-1 6.9-1 .6-2.4 0-3-1.5-.7-1.9-1.8-4.2-3.1-6.6-6 2.6-13.5 5.2-19.9 7.1-.5 1.5-1.1 2.5-1.9 2.5-1.4 0-3.1-5-3.2-6.6-.1-.7.2-.9.9-1zm12-17.6v-15.8h-2.9l-.5.6v15.2h3.4zm7.7 0c.2-.1.2-.4.2-.7v-15.1h-3.5v15.8h3.3zm20.1-44.2c1.1 0 4.3 1.4 5.7 2.7h23.6a21 21 0 0 1 2.9-3c.5-.4 1.2-.5 1.9 0 1 .7 2.5 2.1 3.5 3.2.7.8.5 1.7-.2 2.2-.4.3-.9.5-1.4.8v14.5c0 2.1-2.3 5.2-3.9 5.2-1 0-2-1.1-2.6-2.3h-24.7c-.2 1.5-2.8 2.4-4.3 2.4-.8 0-1.1-.3-1.1-1.1v-17.9c0-4.1-.3-5.2-.3-5.8 0-.6.3-.9.9-.9zm14.9 11.6v-1.8c0-2.5-.1-3.7-.2-4.5h-8.8l-1.1 1.2v5.1h10.1zm0 9.1v-6.5h-10.1v6.5h10.1zm12.4 16.5v-5.6h-18.9l-1.1 1.2v4.4h20zm0 8.2v-5.6h-20v5.6h20zm-6.1-38.3c0 .5-.4 1-1.1 1.5v3h10.4v-6.3h-11.1c1 .6 1.8 1.2 1.8 1.8zm8.4 13.6c.7 0 .9-.3.9-1.1v-5.4H530v6.5h9.5zm169.27 48c-12.3-1.6-20.9-4.8-25.5-12.8-3.3 5.1-6.3 8.6-10.6 12.2-.2 1.6-.6 2.8-1.3 3-.7.2-1.3-.1-2.3-1.2-1.1-1.2-2.5-3.3-3.1-5.2-.3-.9-.2-1.4.5-1.7 4.8-1.9 8.6-4 11.9-6.8v-17.2h-.8c-5.4 0-7.7.3-10 .7-.6.1-.9 0-1.2-.5-.4-.7-.6-1.9-.6-2.8 0-.5.3-.7.9-.6 2.4.4 5.2.5 10.2.5 1.3-1.5 2.6-2.9 3.6-3.7.8-.7 1.8-.7 2.6-.1 1.2.9 3.5 3.1 4.3 4.1.7.8.5 1.9-.3 2.5-.6.4-1.3.8-2.2 1.1v13.4c2 3.2 4.7 5.4 8.3 6.9 11.4-4.1 14.3-8.3 14.8-15.2h-.4c-10.3 0-14.4.3-16.7.7-.6.1-.9 0-1.2-.5-.4-.7-.7-1.9-.7-2.7 0-.5.3-.7.9-.6 2.5.4 7.4.5 17.7.5h12.4v-2.7c0-2.2-.2-2.5-.2-3.3 0-.5.2-.9.9-.9 1.7 0 6.4 1.9 6.4 3.2 0 .6-.7 1.1-1.4 1.5v2.2h22.1c1.7-2 3.4-3.8 4.5-4.6.8-.6 1.6-.6 2.3-.1 1.2.9 3.1 2.8 3.9 3.8.6.7.6 1.6-.2 2.2-.9.7-2.6 1.3-3.7 1.3h-41c1.1.5 1.9 1.1 1.9 1.6 0 .6-.8 1.2-2.1 1.8l-.3 1.3h26.1c.9-1.1 2.1-2.4 2.9-3 .5-.4 1.2-.5 1.9 0 1 .7 2.5 2.1 3.5 3.2.7.8.5 1.7-.2 2.2-.4.3-1 .6-1.6.8-.2 1.5-.4 2.8-.9 4-.9 2.4-8.3 5.4-11.2 5.4-1.5 0-1.8-.5-1.8-1.7 0-1-.2-1.3-1-1.9-.9-.6-2.5-1.4-5-2.4l.3-1.1c4.1.6 7.4.9 9.6.9 2.5 0 3.3-.3 3.8-1.9.2-.5.3-1.2.4-2h-27.8c-2.1 4.6-6.5 7.9-16 9.1 3.6 1.1 7.8 1.7 12.6 2.1 11.6 1 34.9.6 50.6-1.7l.3 1.1c-2.3 1.7-2.6 2.5-2.6 3.8 0 2.5-1.4 2.7-4.5 2.9-13.7.8-33.1.3-43.7-1.1zm-41.4-54c7 .8 13 3 14.8 4.6 2.3 2.1 2.5 6 1.2 7.5-1 1.2-2.9 1-4.2-.6-2.7-3.3-7.2-7.4-12.3-10.3l.5-1.2zm4-15c7 .9 13.2 3 14.9 4.8 1.9 2 2.4 5.8 1 7.3-1 1.1-2.7.8-3.9-.6a57.2 57.2 0 0 0-12.5-10.3l.5-1.2zm23.1 24.4 1.3-.2c.5 1.3.9 2.8 1.1 4.3h23.3v-1.3c0-1.8-.1-2.4-.2-2.9h-13.7v.1c0 1.7-3 2.7-4.8 2.7-.8 0-1.1-.3-1.1-1.2v-17.4c0-4.6-.3-5.7-.3-6.5 0-.6.3-.9 1-.9 1.3 0 4.5 1.4 6.2 2.8h9.5c1-2.2 1.7-4.3 2-6 .1-.6.4-.8 1-.7 1.7.3 7 1.8 7 3.1 0 .5-.8.8-2.1.9-1.3 1.1-3.2 2-5.2 2.7h20.9c.9-1.1 2.1-2.4 2.9-3 .5-.4 1.2-.5 1.9 0 1 .7 2.5 2.1 3.5 3.2.7.8.5 1.7-.2 2.2-.3.2-.7.4-1.1.6v14.5c0 2.3-2.7 5.7-4.4 5.7-1 0-2.2-1.4-2.9-2.8h-16.1c1.5.6 2.9 1.4 2.9 2 0 .5-.7 1-1.4 1.4v.8h23.7c1.2-1.4 2.3-2.5 3.2-3.2.5-.4 1.2-.4 1.7 0 1.3 1 2.8 2.3 3.6 3.2.6.7.4 1.6-.2 1.9-.6.4-1.5.7-2.4.9l-4.7 4.7-.9-.4 1-4.6h-18.8c1 .5 1.8 1.1 1.8 1.6 0 .4-.4.9-1.2 1.4v.7c0 1.3.2 1.4 5.5 1.4 5.4 0 6.5-.2 7-1.2.5-.9.8-1.8 1.2-3.3h.8c.1 1.2.4 2.4.6 3.1.2.6.4.9 1 1 .6.2.9.5.9 1 0 .6-.7 1.5-2.5 2.2-1.5.6-3.1 1-10.8 1-6.3 0-8.4-1-8.4-4.8v-1.9c0-1.3-.1-1.9-.1-2.2h-10.3c1 .5 1.9 1.1 1.9 1.6 0 .6-.8 1-2.3 1.3-4.8 5.9-11.6 6.7-22.6 6.7l-.1-1.3c10.2-1.7 16-3.2 18.1-8.3h-15.1c0 .9-.1 1.8-.3 2.7-.6 2.8-2.4 4.6-5 4.6s-2.8-3.7-.9-5.2c2.4-1.9 3.6-3.5 3.6-8.7zm46.9-14.5v-3.5h-33.6c-.3.5-.8 1.1-1.5 1.8v1.7h35.1zm0 5.9v-3.5h-35.1v3.5h35.1zm-1.1 6c.8 0 1.1-.4 1.1-1.4v-2.2h-35.1v3.6h34z"/><path class="st0" d="M43.52 448.55c2.5.4 7.8.5 20.4.5h54.1c2.3-2.5 4.6-4.7 6.4-6.1.9-.7 1.9-.7 2.9 0 1.7 1.2 4.2 3.5 5.5 5 .7.8.7 1.9 0 2.5-.9.8-2.7 1.5-4.3 1.5h-64.6c-12.6 0-17.1.3-19.4.7-.6.1-.9 0-1.2-.5-.4-.7-.7-2.2-.7-3 0-.5.3-.7.9-.6zm7.3-53.1c2.5.4 7.5.5 18.5.5h41.2c2.3-2.5 4.6-4.7 6.4-6.1.9-.7 1.9-.7 2.9 0 1.7 1.2 4.2 3.5 5.5 5 .7.8.7 1.9 0 2.5-.9.8-2.7 1.5-4.3 1.5h-51.7c-11 0-15.2.3-17.5.7-.6.1-.9 0-1.2-.5-.4-.7-.7-2.2-.7-3 0-.5.3-.7.9-.6zm8.8 25.4c2.5.4 7.2.5 16.2.5h27c2.1-2.3 4.5-4.7 5.9-5.8.9-.7 1.9-.7 2.9 0 1.3.9 3.9 3.3 5 4.6.7.8.7 1.9 0 2.5-.9.8-2.7 1.5-4.3 1.5h-36.5c-9 0-12.9.3-15.2.7-.6.1-.9 0-1.2-.5-.4-.7-.7-2.1-.7-2.9 0-.5.3-.7.9-.6z"/><path class="st2" d="M190.41 406.64c.7-.7 1-.9 1.8-.6 1.7.6 5.3 2.6 5.3 3.7 0 .7-1.1 1.1-3.1 1.2l-.2.2c11.6 7.9 26.4 12.3 44.3 13.3l.1 1.1c-2.7 1.3-3.1 1.8-3.4 3.1-.2 1.6-1.5 1.9-4.8 1.3-2.9-.5-6-1.2-9.2-2.2.1.5-.2 1-.6 1.3-.4.2-.8.5-1.2.7v10.1c0 .9-.5 2-1.2 2.9 1.4-.9 2.7-1.8 3.9-2.7.9-.7 1.1-.8 1.7-.5 1.3.8 4.2 3.4 4.1 4.4-.1.8-1.3.9-3.1.7-4.5 2.5-11.3 4.6-18.4 5.6 8.2 2.3 17.4 3.2 28.7 3.3l.1 1c-2.7 1.5-3 2.1-3.2 3.5-.2 1.6-1.8 1.8-5.4 1.5-13.5-1.1-27.3-5.2-40.8-16.5h-16.9v9.1c8.5-.6 17.5-1.3 25.3-2.2l.4 1.4c-10 2.7-23.5 5.2-34 6.9-.6 1.5-1.3 2.5-2.1 2.5-1.5.1-3.4-5.6-3.5-7.1 0-.7.3-.9 1-.9l7-.3v-21.1c0-1.8 0-3.1-.1-4-5.7 1.7-11.9 3-18.3 3.7l-.3-1.6c20.8-5.1 36.7-13.4 46.1-22.8zm-30.6-12.8c.5-1 .7-1.2 1.5-1 1.8.4 6 2.2 6 3.3 0 .7-1 1.3-2.9 1.6l-1.2 1.8h7v-7.6c0-4-.3-5.2-.3-5.9 0-.6.3-1 1.1-1 1.8 0 7.5 2 7.5 3.7 0 .7-.8 1.6-2.2 2.8v.6h7.7c1.7-1.9 3.4-3.6 4.5-4.4.8-.6 1.6-.6 2.3-.1 1.2.9 3.1 2.8 3.9 3.8.6.7.6 1.5-.2 2.1-.9.7-2.6 1.3-3.7 1.3h-14.5v4.7h6c.9-1.1 2.1-2.4 2.9-3 .5-.4 1.2-.5 1.9 0 1 .7 2.5 2.1 3.5 3.2.7.8.5 1.7-.2 2.2s-1.6.9-2.6 1.2c-8.4 9.3-21.5 16.4-39.9 18.7l-.3-1.5c7.2-1.9 13.5-4.4 18.9-7.2-.4-.1-.8-.3-1.1-.6-2.4-2.4-5.2-4.6-9-6.5-2.5 1.8-5.4 3.4-8.7 4.7l-.6-1.1c6.5-5.6 10.5-10.9 12.7-15.8zm7.3 13.5c1.2 1.1 1.9 3.3 1.3 4.7 5.3-3 9.5-6.4 12.7-9.8h-20.2c-.9.9-1.9 1.8-3 2.6 4.6.4 7.9 1.4 9.2 2.5zm2.9 19.3h42.5l1.2-1.4c-7.5-2.9-15.2-6.9-21.6-12.3-3.2 2.6-7.1 5.2-11.6 7.5 1.2.1 2.8.2 5.7.2h6.3c1.2-1.3 2.3-2.3 3.1-2.9.6-.5 1-.5 1.6-.1.9.6 2.2 1.6 3.1 2.5.6.6.6 1.3 0 1.8-.9.7-2.1 1.2-3.6 1.2h-10c-3.7 0-4.5.1-6.1.4-.9.2-1.2.1-1.5-.5-.2-.4-.4-1.1-.5-1.7-3.1 1.5-6.6 3-10.2 4.3.6.3 1.1.6 1.6 1zm43.7 6.8v-4.1h-43.8c-.3.2-.6.5-1 .7v3.4h44.8zm-.8 6.9c.6 0 .8-.3.8-1.1v-3.2h-44.8v4.3h44zm-10.1 8.7c4.4-1.2 8.5-2.7 12.2-4.6-.7-.2-1.3-.7-1.8-1.4h-22.9c4.1 2.5 8.2 4.5 12.5 6zm-5.1-57.8c2.5.4 6.3.5 13.7.5h12.3a27 27 0 0 1 3.3-3.4c.6-.5 1.4-.5 2.1 0 1.1.8 3 2.5 4 3.6.7.8.5 1.8-.2 2.3-.9.6-2 1.1-3.3 1.4-2.3 3.5-5.1 6.5-8.6 9.1 3.9 1.7 6.9 3.3 8.2 4.4 3.2 2.7 4.3 6.6 3.5 8.3-.5 1-2.2 1.3-4.1-.4-3.1-2.7-7.6-5.9-12.8-9a51.5 51.5 0 0 1-15.8 5.2l-.5-1.4c4.7-1.9 8.8-3.9 12.3-6.1-4.2-2.3-8.6-4.4-12.9-6.2l.6-1.4c5.6 1 11.5 2.7 16.5 4.6 3-2.4 5.5-5.1 7.5-8.2h-12.1c-7.4 0-10.4.3-12.7.7-.6.1-.9 0-1.2-.5-.4-.7-.7-2.1-.7-2.9 0-.5.3-.7.9-.6z"/><path class="st0" d="M259.7 422.54c0-20.1 15.7-35.2 35.8-35.2 20.2 0 35.8 15.1 35.8 35.2s-15.6 35.3-35.8 35.3-35.8-15.2-35.8-35.3zm35.8 30.2c17 0 30-13 30-30.2s-13-30.1-30-30.1-30 12.9-30 30.1c0 17.2 13 30.2 30 30.2z"/><path class="st2" d="M75.13 528.7h-10.4c-12.2 0-16.7.3-19 .7-.6.1-.9 0-1.2-.5-.4-.7-.7-1.9-.7-2.7 0-.5.3-.7.9-.6 2.5.4 7.8.5 20 .5h14.2c2.4-1.8 4.4-3.9 6.2-6.2.6-.8.8-.9 1.5-.7 1.4.6 3.6 1.9 4.7 3.1 3.9-2 7.4-4.4 9.7-7.3-4.8.1-7.7.3-9.7.7-.6.1-.9 0-1.2-.5-.4-.7-.7-1.6-.7-2.4 0-.5.3-.7.9-.6 2.5.4 6.7.5 12.6.5 0-3-.2-3.9-.2-4.6 0-.5.2-.8.8-.8 1.4 0 6 1.6 6 2.8 0 .6-.5 1.3-1.5 2.2v.4h6.5c1.2-1.4 2.4-2.6 3.3-3.3.6-.5 1.3-.5 2 0 .8.6 2 1.6 2.8 2.6.4.5.4 1.2-.2 1.7-.7.6-2.5 1.3-3.5 1.3h-10.9v1.5c4.8.3 9.2 1.1 10.7 2 1.9 1.2 2.2 4.2 1.5 5.2-.5.7-1.6.9-2.7-.1-2.5-2.3-5.9-4.3-9.5-5.8v4.8c0 1.3-2.5 2.3-4.1 2.3-.8 0-1-.3-1-1.1v-5.1c-3 2.6-6.6 4.1-10.8 5-.2.6-2 .9-3.4.9l-1.7 1.5h33.6c1.7-2 3.4-3.8 4.5-4.6.8-.6 1.6-.6 2.3-.1 1.2.9 3.1 2.8 3.9 3.8.6.7.6 1.6-.2 2.2-.9.7-2.6 1.3-3.7 1.3h-31.3c11.1 4 24.3 5.5 38.2 5l.2.9c-2 1.2-2.3 1.6-2.3 2.9 0 1.2-1 1.6-3 1.6-5.1 0-11.5-.9-18.1-2.6 1.1 1.1 2.4 2.6 2.1 3.3-.2.5-1.1.4-2.4.2-3.5 1.1-10 1.5-14.9 1.5l-.2-1c4.9-1.3 10-3 12.7-4.7a78.1 78.1 0 0 1-17.1-7.1h-7.6c-10.8 7.7-24.5 10.9-42.5 11.5l-.2-1.5c14-2 25.5-4.9 34.1-10zm-27.1-28.6 1.4-.2c.4 1.4.7 2.8.9 4.2h2.8v-17.3c0-3.8-.2-4.8-.2-5.5 0-.5.2-.8.8-.8 1.1 0 4.4 1.5 5.7 2.9 2.7-1.1 5.3-2.7 7.1-4.2.6-.5 1-.4 1.4-.1 1 .8 3.7 4 3.3 4.9-.3.6-1.5.5-2.8.1-2.5.7-5.6 1-8.8 1.1-.3.4-.7.9-1.3 1.5v3.3h5.6c.8-.9 1.9-1.9 2.7-2.5.4-.3 1.1-.4 1.6 0 .7.5 1.9 1.7 2.4 2.4.4.5.3 1.2-.2 1.6-.7.5-1.9.9-2.9.9h-9.2v4.6h5.6c.8-.9 1.9-1.9 2.7-2.5.4-.3 1.1-.4 1.6 0 .7.5 1.9 1.7 2.4 2.4.4.5.3 1.2-.2 1.6-.7.5-1.9.9-2.9.9h-9.2v4.7h14.7v-17.9c0-3.7-.2-4.7-.2-5.3 0-.5.2-.8.7-.8 1.1 0 4.2 1.4 5.4 2.7h16.5c.9-1.1 2.1-2.4 2.9-3 .5-.4 1.2-.5 1.9 0 1 .7 2.5 2.1 3.5 3.2.7.8.5 1.7-.2 2.2-.4.3-.8.5-1.3.7v18.2h15.2v-4.8h-5.8c-4.4 0-4.9.4-5.5.4-.7 0-1.2-2-1.2-2.7 0-.3.1-.5.5-.5s1.8.4 6.2.4h5.8v-4.7h-5.8c-4.4 0-4.9.4-5.5.4-.7 0-1.2-2-1.2-2.7 0-.3.1-.5.5-.5s1.8.4 6.2.4h5.8V485l-5.8.1c-4.4 0-4.8.5-5.4.5-.7 0-1.3-2-1.3-2.8 0-.3.1-.5.5-.5s1.8.4 6.2.4h4.6c.9-1.1 2.1-2.4 2.9-3 .5-.4 1.2-.5 1.9 0 1 .7 2.5 2.1 3.5 3.2.7.8.5 1.6-.2 2.1-.5.3-1 .6-1.6.8v18.3h2.2c1.1-1.2 2.1-2.2 3-2.9.8-.7 1.6-.7 2.4-.1 1.3.9 3 2.4 3.9 3.4.6.7.6 1.5 0 2s-1.6.9-2.6 1.2l-6.8 8.7-1-.5 2.1-9.2h-75.3c.1 1.8 0 3.4-.4 4.9-.9 3.6-3.8 6.2-6.6 5.6-2.3-.5-2.5-4.3-.3-6 3.3-2.6 4.7-6.2 4.7-11.1zm30.2 43.2c5-2.5 7.1-5.3 7.4-10.1.1-1.4-.1-1.7-.1-2.2 0-.4.3-.7.8-.7 1.9 0 7 1.9 7 3.1 0 .6-.9 1.2-2.1 1.8-.6 3.1-1.6 5.6-3.6 7.6 15.5.1 30.8 1.2 34.6 2.5 4.4 1.5 5.3 4.1 5 5.5-.2 1-1.6 1.1-2.9.7-10.8-2.9-24.8-5.4-38.4-7.2a25.1 25.1 0 0 1-5.7 3c-7.5 2.8-21.6 4.6-33.8 4.6l-.1-1.4c12.2-1.1 25.5-4 31.9-7.2zM64.82 515c-4.7.1-7.5.4-9.5.7-.6.1-.9 0-1.2-.5-.4-.7-.7-1.6-.7-2.4 0-.5.3-.7.9-.6 2.5.4 6.7.5 12.7.5 0-3.1-.2-4-.2-4.6 0-.5.2-.8.8-.8 1.4 0 5.9 1.5 5.9 2.8 0 .6-.5 1.2-1.5 2.1v.5h5.8c1.2-1.4 2.4-2.6 3.3-3.3.6-.5 1.3-.5 2 0 .8.6 2 1.6 2.8 2.6.4.5.4 1.2-.2 1.7-.7.6-2.5 1.3-3.5 1.3h-10.2v1.5c3.5.1 6.8.7 8.1 1.5 1.5.9 2.1 3.6 1.3 4.7-.5.7-1.5.6-2.4-.2-1.6-1.5-4.1-3.2-7-4.7v4.8c0 1.3-2.4 2.3-4 2.3-.8 0-1-.3-1-1v-5.3a42.4 42.4 0 0 1-17.6 6l-.3-1.1c5.1-1.6 11.3-4.7 15.7-8.5zm-1.3 24.2c3.4.2 9.5-.6 13.8-3l.7.9c-2.4 2.6-6.4 4.9-9.7 5.9-3.2 1-6.9 1.2-7.7 0-1.1-1.7.6-3.9 2.9-3.8zm33.6-35.1v-18.9h-18.3c-.2.3-.5.6-.8 1v17.9h19.1zm-17.4-15.9c.3 0 1.1.2 4.1.2h6.2c.8-.9 2.3-2.2 2.9-2.2.7 0 3 2.1 3 2.8 0 .6-1.4 1.4-2.2 1.4h-8.9c-3.8 0-3.9.3-4.5.3-.6 0-1-1.5-1-2.1 0-.3.2-.4.4-.4zm2.1 3.7c.7 0 2.5.9 3.4 1.7h4.4c.8-.9 1.8-2 2.4-2 .7 0 2.8 2.3 2.8 2.8 0 .4-.4.7-.9 1.1v4.1c0 1.2-1.6 2.8-2.5 2.8-.6 0-1.3-.8-1.7-1.7h-5v.2c0 1-1.7 1.5-2.8 1.5-.5 0-.7-.2-.7-.7v-6.9c0-1.3-.1-1.9-.1-2.3s.2-.6.7-.6zm7.7 6.9c.6 0 .8-.2.8-.9v-2.4h-5l-.6.6v2.7h4.8z"/><path class="st0" d="M147.41 540.5c2.5.4 7.8.5 20.4.5h54.1c2.3-2.5 4.6-4.7 6.4-6.1.9-.7 1.9-.7 2.9 0 1.7 1.2 4.2 3.5 5.5 5 .7.8.7 1.9 0 2.5-.9.8-2.7 1.5-4.3 1.5h-64.6c-12.6 0-17.1.3-19.4.7-.6.1-.9 0-1.2-.5-.4-.7-.7-2.2-.7-3 0-.5.3-.7.9-.6zm7.3-53.1c2.5.4 7.5.5 18.5.5h41.2c2.3-2.5 4.6-4.7 6.4-6.1.9-.7 1.9-.7 2.9 0 1.7 1.2 4.2 3.5 5.5 5 .7.8.7 1.9 0 2.5-.9.8-2.7 1.5-4.3 1.5h-51.7c-11 0-15.2.3-17.5.7-.6.1-.9 0-1.2-.5-.4-.7-.7-2.2-.7-3 0-.5.3-.7.9-.6zm8.8 25.4c2.5.4 7.2.5 16.2.5h27c2.1-2.3 4.5-4.7 5.9-5.8.9-.7 1.9-.7 2.9 0 1.3.9 3.9 3.3 5 4.6.7.8.7 1.9 0 2.5-.9.8-2.7 1.5-4.3 1.5h-36.5c-9 0-12.9.3-15.2.7-.6.1-.9 0-1.2-.5-.4-.7-.7-2.1-.7-2.9 0-.5.3-.7.9-.6z"/><path class="st2" d="M250.2 545.4c2.5.4 7.8.5 20.6.5h21.1v-10c0-2.9-.1-4.4-.2-5.3h-15.8c1.8.7 3.6 1.8 3.6 2.5 0 .6-.9 1.2-2.9 1.4l-1.4 1.5c5 .2 9.4 1.3 10.8 2.4 2.1 1.7 2.5 4.5 1.9 5.6-.6 1.1-2.1 1.2-3.6-.2-2.7-2.5-6.4-4.7-10.7-6.4-3.9 3.4-9 6-15.6 8l-.5-1.1c6.7-4.2 11.7-8.5 14.5-13.6l.1-.1c-9.4.1-13.1.3-15.2.7-.6.1-.9 0-1.2-.5-.4-.7-.7-2-.7-2.8 0-.5.3-.7.9-.6 2.5.4 7.6.5 19.2.5H325c.9-1.1 1.9-2.1 2.7-2.9-.6-.6-1.2-1.6-1.6-2.5h-9.4v.6c0 1.6-2.7 2.6-4.3 2.6-.8 0-1.1-.3-1.1-1.1v-9.2c0-3.6-.3-4.7-.3-5.3 0-.6.3-.9.9-.9 1.2 0 4.4 1.4 5.7 2.7h8.6c.9-1.1 2.1-2.4 2.9-3 .5-.4 1.2-.5 1.9 0 1 .7 2.5 2.1 3.5 3.2.7.8.5 1.7-.2 2.2-.4.3-.9.5-1.4.8v4.8c0 1-.5 2.2-1.2 3.3l.1.1c1.2.9 3.1 2.8 3.9 3.8.6.7.6 1.6-.2 2.2-.9.7-2.6 1.3-3.7 1.3h-14c1.8.7 3.5 1.8 3.5 2.5 0 .6-.9 1.2-3 1.4l-1.3 1.4c5 .3 9.4 1.4 10.8 2.5 2.1 1.7 2.5 4.6 1.9 5.7-.6 1.1-2.1 1.2-3.6-.2-2.6-2.5-6.4-4.7-10.7-6.5-3.7 3.3-8.4 5.9-15.1 7.8l-.5-1.1c6.9-4.2 11.3-8.5 13.8-13.4l.1-.1H298c1.1.7 2 1.5 2 2.1 0 .7-.7 1.3-1.9 2.1v11.1h31.4c1.8-2 3.6-3.8 5.1-4.9.8-.6 1.7-.6 2.4-.1 1.2.9 3.5 3.1 4.4 4.1.6.7.7 1.7-.1 2.3-1 .8-2.6 1.4-3.9 1.4h-66.6c-12.8 0-17.3.3-19.6.7-.6.1-.9 0-1.2-.5-.4-.7-.7-2.1-.7-2.9 0-.5.3-.7.9-.6zm7.5-60.4 1.4-.1c.4 1.6.6 3.3.7 4.8h32.3c0-2.6-.2-3.8-.3-4.6h-11.3c-10 0-14.1.3-16.4.7-.6.1-.9 0-1.2-.5-.4-.7-.7-2-.7-2.8 0-.5.3-.7.9-.6 2.5.4 7.4.5 17.4.5h36.7c1.8-2 3.6-3.9 5.1-5 .8-.6 1.7-.6 2.4-.1 1.2.9 3.6 3.1 4.4 4.1.6.7.7 1.7-.1 2.3-1 .8-2.6 1.4-3.9 1.4h-27.7c1.4.7 2.5 1.6 2.5 2.3 0 .6-.7 1.2-1.8 1.9v.4h33c1.1-1.4 2.6-3 3.5-3.8.8-.7 1.6-.7 2.5-.1 1.2.8 3.2 2.7 4.2 4 .6.8.4 1.8-.5 2.3-.5.3-1.3.6-2.3.8l-6.6 8.1-1.2-.6 1.4-8h-34V506c0 1.8-3 2.8-4.8 2.8-.9 0-1.2-.3-1.2-1.2v-15.2h-32.4c-.1 1.2-.3 2.3-.6 3.2-1 3-2.9 4.8-5.3 5.4-2 .5-3.7-.3-4.1-2-.5-2 .7-3.8 2.5-4.9 3.7-2.3 5-4.8 5.5-9.1zm1.1 24.2c1.2 0 4.4 1.4 5.7 2.7h8.2c.9-1.1 2.1-2.4 2.9-3 .5-.4 1.2-.5 1.9 0 1 .7 2.5 2.1 3.5 3.2.7.8.5 1.7-.2 2.2-.4.3-.8.5-1.3.7v4.9c0 2.1-2.3 5.5-3.9 5.5-1 0-2.1-1.5-2.7-2.9h-9.3v.6c0 1.6-2.7 2.6-4.3 2.6-.8 0-1.1-.3-1.1-1.1v-9.2c0-3.6-.3-4.7-.3-5.3 0-.6.3-.9.9-.9zm3.2-5.4c2.5.4 6.6.5 12.1.5h4.4c1.2-1.5 2.6-3.1 3.5-3.8.6-.5 1.4-.5 2 0 .8.6 2.5 2.2 3.3 3.2.4.5.5 1.3-.2 1.8-.8.6-2.7 1.3-3.9 1.3h-9.1c-5.5 0-8.8.3-11.1.7-.6.1-.9 0-1.2-.5-.4-.7-.7-1.8-.7-2.6 0-.5.3-.7.9-.6zm.9-7.2c2.5.4 6.6.5 12 .5h3.6c1.2-1.5 2.6-3.1 3.5-3.8.6-.5 1.4-.5 2 0 .8.6 2.5 2.2 3.3 3.2.4.5.5 1.3-.2 1.8-.8.6-2.7 1.3-3.9 1.3h-8.3c-5.4 0-8.7.3-11 .7-.6.1-.9 0-1.2-.5-.4-.7-.7-1.8-.7-2.6 0-.5.3-.7.9-.6zm10.3 23.5c.7 0 .9-.3.9-1.2v-4.6h-9.5l-1 1.1v4.7h9.6zm12.1-10.9c1.2 0 4.4 1.4 5.7 2.7h8.1c.9-1.1 2.1-2.4 2.9-3 .5-.4 1.2-.5 1.9 0 1 .7 2.5 2.1 3.5 3.2.7.8.5 1.7-.2 2.2-.4.3-.8.5-1.3.7v4.9c0 2.1-2.3 5.5-3.9 5.5-1 0-2.1-1.5-2.7-2.9h-9.2v.4c0 1.6-2.7 2.6-4.3 2.6-.8 0-1.1-.3-1.1-1.1v-9c0-3.6-.3-4.7-.3-5.3 0-.6.3-.9.9-.9zm14.3 10.9c.7 0 .9-.3.9-1.2v-4.6h-9.4l-1 1.1v4.7h9.5zm4.3-23.5c2.5.4 6.6.5 12 .5h4.3c1.2-1.5 2.6-3.1 3.5-3.8.6-.5 1.4-.5 2 0 .8.6 2.5 2.2 3.3 3.2.4.5.5 1.3-.2 1.8-.8.6-2.7 1.3-3.9 1.3h-9c-5.4 0-8.7.3-11 .7-.6.1-.9 0-1.2-.5-.4-.7-.7-1.8-.7-2.6 0-.5.3-.7.9-.6zm0 7.2c2.5.4 6.7.5 12.2.5h5.1c1.2-1.5 2.6-3.1 3.5-3.8.6-.5 1.4-.5 2 0 .8.6 2.5 2.2 3.3 3.2.4.5.5 1.3-.2 1.8-.8.6-2.7 1.3-3.9 1.3h-9.8c-5.5 0-8.9.3-11.2.7-.6.1-.9 0-1.2-.5-.4-.7-.7-1.8-.7-2.6 0-.5.3-.7.9-.6zm22.5 16.3c.8 0 1-.3 1-1.2v-4.6h-9.7l-1 1.1v4.7h9.7zm28.61-110.36c1.9.3 5.1.4 10.2.5v-15.6c0-4.4-.3-5.6-.3-6.3 0-.7.3-1 1-1 1.2 0 4.7 1.5 6.3 3h22.8c1.2-1.4 2.6-2.9 3.5-3.6.6-.5 1.4-.5 2 0 .8.6 2.5 2.2 3.3 3.2.4.5.5 1.3-.2 1.8-.8.6-2.7 1.3-3.9 1.3h-27.3l-1.2 1.3v2.7h22c1.2-1.3 2.4-2.4 3.3-3.1.5-.4 1.2-.4 1.7 0 .8.6 2.2 1.8 3 2.8.4.5.4 1.2-.3 1.7-.8.6-2.7 1.2-3.9 1.2h-25.8v4h22c1.2-1.3 2.4-2.4 3.3-3.1.5-.4 1.1-.4 1.6 0 .8.6 2.2 1.8 3 2.8.4.5.5 1.2-.2 1.7-.8.6-2.7 1.2-3.9 1.2h-25.8v4h25.8c1.2-1.4 2.6-2.9 3.5-3.6.6-.5 1.4-.5 2 0 .8.6 2.5 2.2 3.3 3.2.4.5.5 1.3-.2 1.8-.8.6-2.7 1.3-3.9 1.3h-25.5c1.2.7 2.1 1.5 2.1 2 0 .7-1 .9-2.3 1-1.9 1.3-4.2 2.5-7 3.5 8.1-.2 16.7-.6 24.6-1.1-1.6-1.3-3.4-2.6-5.1-3.8l.4-.9c5.4.8 10.9 2.6 12.3 4.1 1.8 2 2 5.2.5 6.3-.8.6-2.1.5-3.1-.7-.8-1-1.9-2.2-3.2-3.4a410 410 0 0 1-32 4.5c-.6 1.3-1.3 2.1-2 2.1-1.3 0-2.7-5-2.7-6.3 0-.5.2-.7.9-.7h5.8c2.4-2.3 4.4-4.6 5.6-6.6h-.6c-8.3 0-12.1.3-14.4.7-.6.1-.9 0-1.2-.5-.4-.7-.7-2-.7-2.8 0-.5.3-.7.9-.6zm-.1 37.3c2.6.2 7.9-.2 20.8-1.3l18.2-1.6v-5.7l-12 1c-10.5.9-14.7 1.6-16.9 2.2-.6.1-.9.1-1.3-.4-.4-.7-.8-2-.9-2.8 0-.5.2-.8.8-.7 2.6.2 7.5-.2 18.1-1.1l12.2-1.1v-.1c0-2.6-.1-4-.2-4.9-9.8.8-19.6 1.2-27.9 1.1l-.1-1.9c22.9-1.7 48.9-5.2 64.9-10.5.9-.3 1.3-.3 1.9.3 1.1 1.1 4.4 4.9 3.6 6.2-.5.8-2.7.3-4.6-.4-8.9 1.9-20.5 3.5-32.2 4.7 1.4.7 2.5 1.6 2.5 2.3 0 .6-.7 1.2-1.7 1.9v.8l26.1-2.3c1.1-1.4 2.4-3 3.2-3.8.6-.5 1.4-.6 2-.2.9.6 2.7 2 3.6 2.9.4.5.6 1.3-.1 1.9-.7.6-2.5 1.5-3.7 1.6l-31.1 2.7v5.7l36.5-3.2c1.5-1.9 3.1-3.8 4.1-4.7.7-.7 1.5-.8 2.3-.3 1.3.8 3.3 2.5 4.2 3.4.7.7.7 1.6 0 2.2-.8.8-2.5 1.5-3.6 1.6l-3.1.3c.3 2.6.6 5.1.8 6.1.2.9.5 1.2 1.3 1.4 1 .3 1.6.8 1.6 1.5 0 1.3-2 3-3.9 3.9-2.1 1-4.4 1.4-10.6 1.7-6 .3-14.4.3-21.6 0-10.8-.5-14.2-2.7-14.2-10.1v-.4l-17.9 1.6c-12.9 1.1-17.5 1.8-19.7 2.4-.6.1-.9.1-1.3-.4-.4-.7-.8-2-.9-2.8 0-.5.2-.8.8-.7zm53.2 4.9c6.2.3 16.8.3 22.2 0 4.9-.3 6.5-1 7.2-2.9.4-1.2 1-3.4 1.6-6.1l-39 3.5v.6c0 3.7 1 4.6 8 4.9zm24.2-66.1c.7-.5 1.2-.6 1.8-.1 1.4 1.2 4.4 4.5 3.7 5.6-.4.6-1.7.5-3.3.1a86.3 86.3 0 0 1-29.1 7.1l-.2-1.4c11.9-3 20.8-6.8 27.1-11.3zm8.3 20.7c1-.5 1.3-.6 1.9-.1 1.4 1.2 4 4.6 3.4 5.8-.3.6-1.9.3-3.3-.1-9.2 3.3-23.7 5.3-36.8 4.9l-.1-1.4c13.9-1.7 25.4-4.4 34.9-9.1zm-4.4-10.5c.9-.6 1.3-.7 2-.1 1.4 1.2 4.2 4.4 3.6 5.4-.3.5-1.6.6-3.2.2-8.8 3.5-19.5 5.6-30.7 5.8l-.2-1.4c12.1-2.3 22.1-5.7 28.5-9.9z"/><path class="st0" d="M472.2 406.74v-7.7c0-7.5-.4-9.6-.4-10.1 0-.9.4-1.2 1.2-1.2 2.3 0 8.8 2.4 8.8 4 0 .9-1.2 2-2.6 3.2v14.2c0 24.9-.7 35.9-19.8 50.8l-1.3-1.3c13.8-17 14.1-26.5 14.1-51.9zm31.1-14.5c2.1 0 8.5 2.2 8.5 4 0 .8-.9 1.8-2.4 3.1v49.5c0 1.9-3.6 2.9-5.6 2.9-1 0-1.3-.4-1.3-1.4v-48.5c0-6.3-.3-7.6-.3-8.5 0-.7.4-1.1 1.1-1.1zm31.7-5.5c2.1 0 8.6 2.3 8.6 4.1 0 .9-.9 1.9-2.4 3.2v61.5c0 2.1-3.7 3.1-5.7 3.1-1.1 0-1.4-.4-1.4-1.4v-60.3c0-6.8-.3-8.1-.3-9 0-.8.4-1.2 1.2-1.2z"/><path class="st2" d="M595.89 436.75h-10.4c-12.2 0-16.7.3-19 .7-.6.1-.9 0-1.2-.5-.4-.7-.7-1.9-.7-2.7 0-.5.3-.7.9-.6 2.5.4 7.8.5 20 .5h14.2c2.4-1.8 4.4-3.9 6.2-6.2.6-.8.8-.9 1.5-.7 1.4.6 3.6 1.9 4.7 3.1 3.9-2 7.4-4.4 9.7-7.3-4.8.1-7.7.3-9.7.7-.6.1-.9 0-1.2-.5-.4-.7-.7-1.6-.7-2.4 0-.5.3-.7.9-.6 2.5.4 6.7.5 12.6.5 0-3-.2-3.9-.2-4.6 0-.5.2-.8.8-.8 1.4 0 6 1.6 6 2.8 0 .6-.5 1.3-1.5 2.2v.4h6.5c1.2-1.4 2.4-2.6 3.3-3.3.6-.5 1.3-.5 2 0 .8.6 2 1.6 2.8 2.6.4.5.4 1.2-.2 1.7-.7.6-2.5 1.3-3.5 1.3h-10.9v1.5c4.8.3 9.2 1.1 10.7 2 1.9 1.2 2.2 4.2 1.5 5.2-.5.7-1.6.9-2.7-.1-2.5-2.3-5.9-4.3-9.5-5.8v4.8c0 1.3-2.5 2.3-4.1 2.3-.8 0-1-.3-1-1.1v-5.1c-3 2.6-6.6 4.1-10.8 5-.2.6-2 .9-3.4.9l-1.7 1.5h33.6c1.7-2 3.4-3.8 4.5-4.6.8-.6 1.6-.6 2.3-.1 1.2.9 3.1 2.8 3.9 3.8.6.7.6 1.6-.2 2.2-.9.7-2.6 1.3-3.7 1.3h-31.3c11.1 4 24.3 5.5 38.2 5l.2.9c-2 1.2-2.3 1.6-2.3 2.9 0 1.2-1 1.6-3 1.6-5.1 0-11.5-.9-18.1-2.6 1.1 1.1 2.4 2.6 2.1 3.3-.2.5-1.1.4-2.4.2-3.5 1.1-10 1.5-14.9 1.5l-.2-1c4.9-1.3 10-3 12.7-4.7a78.1 78.1 0 0 1-17.1-7.1h-7.6c-10.8 7.7-24.5 10.9-42.5 11.5l-.2-1.5c14-2 25.5-4.9 34.1-10zm-27.1-28.6 1.4-.2c.4 1.4.7 2.8.9 4.2h2.8v-17.3c0-3.8-.2-4.8-.2-5.5 0-.5.2-.8.8-.8 1.1 0 4.4 1.5 5.7 2.9 2.7-1.1 5.3-2.7 7.1-4.2.6-.5 1-.4 1.4-.1 1 .8 3.7 4 3.3 4.9-.3.6-1.5.5-2.8.1-2.5.7-5.6 1-8.8 1.1-.3.4-.7.9-1.3 1.5v3.3h5.6c.8-.9 1.9-1.9 2.7-2.5.4-.3 1.1-.4 1.6 0 .7.5 1.9 1.7 2.4 2.4.4.5.3 1.2-.2 1.6-.7.5-1.9.9-2.9.9h-9.2v4.6h5.6c.8-.9 1.9-1.9 2.7-2.5.4-.3 1.1-.4 1.6 0 .7.5 1.9 1.7 2.4 2.4.4.5.3 1.2-.2 1.6-.7.5-1.9.9-2.9.9h-9.2v4.7h14.7v-17.9c0-3.7-.2-4.7-.2-5.3 0-.5.2-.8.7-.8 1.1 0 4.2 1.4 5.4 2.7h16.5c.9-1.1 2.1-2.4 2.9-3 .5-.4 1.2-.5 1.9 0 1 .7 2.5 2.1 3.5 3.2.7.8.5 1.7-.2 2.2-.4.3-.8.5-1.3.7v18.2h15.2v-4.8h-5.8c-4.4 0-4.9.4-5.5.4-.7 0-1.2-2-1.2-2.7 0-.3.1-.5.5-.5s1.8.4 6.2.4h5.8v-4.7h-5.8c-4.4 0-4.9.39-5.5.39-.7 0-1.2-2-1.2-2.7 0-.3.1-.5.5-.5s1.8.4 6.2.4h5.8v-4.8l-5.8.1c-4.4 0-4.8.5-5.4.5-.7 0-1.3-2-1.3-2.8 0-.3.1-.5.5-.5s1.8.4 6.2.4h4.6c.9-1.1 2.1-2.4 2.9-3 .5-.4 1.2-.5 1.9 0 1 .7 2.5 2.1 3.5 3.2.7.8.5 1.6-.2 2.1-.5.3-1 .6-1.6.8v18.3h2.2c1.1-1.2 2.1-2.2 3-2.9.8-.7 1.6-.7 2.4-.1 1.3.9 3 2.4 3.9 3.4.6.7.6 1.5 0 2s-1.6.9-2.6 1.2l-6.8 8.7-1-.5 2.1-9.2h-75.3c.1 1.8 0 3.4-.4 4.9-.9 3.6-3.8 6.2-6.6 5.6-2.3-.5-2.5-4.3-.3-6 3.3-2.6 4.7-6.2 4.7-11.1zm30.2 43.2c5-2.5 7.1-5.3 7.4-10.1.1-1.4-.1-1.7-.1-2.2 0-.4.3-.7.8-.7 1.9 0 7 1.9 7 3.1 0 .6-.9 1.2-2.1 1.8-.6 3.1-1.6 5.6-3.6 7.6 15.5.1 30.8 1.2 34.6 2.5 4.4 1.5 5.3 4.1 5 5.5-.2 1-1.6 1.1-2.9.7-10.8-2.9-24.8-5.4-38.4-7.2a25.1 25.1 0 0 1-5.7 3c-7.5 2.8-21.6 4.6-33.8 4.6l-.1-1.4c12.2-1.1 25.5-4 31.9-7.2zm-13.4-28.3c-4.7.1-7.5.4-9.5.7-.6.1-.9 0-1.2-.5-.4-.7-.7-1.6-.7-2.4 0-.5.3-.7.9-.6 2.5.4 6.7.5 12.7.5 0-3.1-.2-4-.2-4.6 0-.5.2-.8.8-.8 1.4 0 5.9 1.5 5.9 2.8 0 .6-.5 1.2-1.5 2.1v.5h5.8c1.2-1.4 2.4-2.6 3.3-3.3.6-.5 1.3-.5 2 0 .8.6 2 1.6 2.8 2.6.4.5.4 1.2-.2 1.7-.7.6-2.5 1.3-3.5 1.3h-10.2v1.5c3.5.1 6.8.7 8.1 1.5 1.5.9 2.1 3.6 1.3 4.7-.5.7-1.5.6-2.4-.2-1.6-1.5-4.1-3.2-7-4.7v4.8c0 1.3-2.4 2.3-4 2.3-.8 0-1-.3-1-1v-5.3a42.4 42.4 0 0 1-17.6 6l-.3-1.1c5.1-1.6 11.3-4.7 15.7-8.5zm-1.3 24.2c3.4.2 9.5-.6 13.8-3l.7.9c-2.4 2.6-6.4 4.9-9.7 5.9-3.2 1-6.9 1.2-7.7 0-1.1-1.7.6-3.9 2.9-3.8zm33.6-35.1v-18.9h-18.3c-.2.3-.5.6-.8 1v17.9h19.1zm-17.4-15.9c.3 0 1.1.2 4.1.2h6.2c.8-.9 2.3-2.2 2.9-2.2.7 0 3 2.1 3 2.8 0 .6-1.4 1.4-2.2 1.4h-8.9c-3.8 0-3.9.3-4.5.3-.6 0-1-1.5-1-2.1 0-.3.2-.4.4-.4zm2.1 3.7c.7 0 2.5.9 3.4 1.7h4.4c.8-.9 1.8-2 2.4-2 .7 0 2.8 2.3 2.8 2.8 0 .4-.4.7-.9 1.1v4.1c0 1.2-1.6 2.8-2.5 2.8-.6 0-1.3-.8-1.7-1.7h-5v.2c0 1-1.7 1.5-2.8 1.5-.5 0-.7-.2-.7-.7v-6.9c0-1.3-.1-1.9-.1-2.3s.2-.6.7-.6zm7.7 6.9c.6 0 .8-.2.8-.9v-2.4h-5l-.6.6v2.7h4.8z"/><path class="st0" d="M678.47 392.54c1.9 0 6.7 2 8.4 3.9h50.9c1.3-1.5 3.1-3.4 4.1-4.2.7-.6 1.7-.7 2.6-.1a30 30 0 0 1 4.9 4.4c.7.8.5 2-.2 2.6-.5.4-1.2.8-2 1.2v46.1c0 3.3-3.4 9.2-5.8 9.2-1.7 0-3.3-3.5-3.9-6.1h-52.6v2.7c0 2.2-3.8 3.4-5.8 3.4-1.1 0-1.4-.4-1.4-1.4v-51.5c0-6.8-.3-8.1-.3-9 0-.8.4-1.2 1.1-1.2zm59.7 54.1c1.3 0 1.7-.6 1.7-2.4v-44.9h-53.1c-.5.6-1.1 1.2-1.9 1.9v45.4h53.3zM364.91 514.5c0-20.1 15.7-35.2 35.8-35.2 20.2 0 35.8 15.1 35.8 35.2s-15.6 35.3-35.8 35.3-35.8-15.2-35.8-35.3zm35.8 30.2c17 0 30-13 30-30.2s-13-30.1-30-30.1-30 12.9-30 30.1c0 17.2 13 30.2 30 30.2z"/><path class="st2" d="M503.4 498.6c.7-.7 1-.9 1.8-.6 1.7.6 5.3 2.6 5.3 3.7 0 .7-1.1 1.1-3.1 1.2l-.2.2c11.6 7.9 26.4 12.3 44.3 13.3l.1 1.1c-2.7 1.3-3.1 1.8-3.4 3.1-.2 1.6-1.5 1.9-4.8 1.3-2.9-.5-6-1.2-9.2-2.2.1.5-.2 1-.6 1.3-.4.2-.8.5-1.2.7v10.1c0 .9-.5 2-1.2 2.9 1.4-.9 2.7-1.8 3.9-2.7.9-.7 1.1-.8 1.7-.5 1.3.8 4.2 3.4 4.1 4.4-.1.8-1.3.9-3.1.7-4.5 2.5-11.3 4.6-18.4 5.6 8.2 2.3 17.4 3.2 28.7 3.3l.1 1c-2.7 1.5-3 2.1-3.2 3.5-.2 1.6-1.8 1.8-5.4 1.5-13.5-1.1-27.3-5.2-40.8-16.5h-16.9v9.1c8.5-.6 17.5-1.3 25.3-2.2l.4 1.4c-10 2.7-23.5 5.2-34 6.9-.6 1.5-1.3 2.5-2.1 2.5-1.5.1-3.4-5.6-3.5-7.1 0-.7.3-.9 1-.9l7-.3v-21.1c0-1.8 0-3.1-.1-4-5.7 1.7-11.9 3-18.3 3.7l-.3-1.6c20.8-5.1 36.7-13.4 46.1-22.8zm-30.6-12.8c.5-1 .7-1.2 1.5-1 1.8.4 6 2.2 6 3.3 0 .7-1 1.3-2.9 1.6l-1.2 1.8h7v-7.6c0-4-.3-5.2-.3-5.9 0-.6.3-1 1.1-1 1.8 0 7.5 2 7.5 3.7 0 .7-.8 1.6-2.2 2.8v.6h7.7c1.7-1.9 3.4-3.6 4.5-4.4.8-.6 1.6-.6 2.3-.1 1.2.9 3.1 2.8 3.9 3.8.6.7.6 1.5-.2 2.1-.9.7-2.6 1.3-3.7 1.3h-14.5v4.7h6c.9-1.1 2.1-2.4 2.9-3 .5-.4 1.2-.5 1.9 0 1 .7 2.5 2.1 3.5 3.2.7.8.5 1.7-.2 2.2s-1.6.9-2.6 1.2c-8.4 9.3-21.5 16.4-39.9 18.7l-.3-1.5c7.2-1.9 13.5-4.4 18.9-7.2-.4-.1-.8-.3-1.1-.6-2.4-2.4-5.2-4.6-9-6.5-2.5 1.8-5.4 3.4-8.7 4.7l-.6-1.1c6.5-5.6 10.5-10.9 12.7-15.8zm7.3 13.5c1.2 1.1 1.9 3.3 1.3 4.7 5.3-3 9.5-6.4 12.7-9.8h-20.2c-.9.9-1.9 1.8-3 2.6 4.6.4 7.9 1.4 9.2 2.5zm2.9 19.3h42.5l1.2-1.4c-7.5-2.9-15.2-6.9-21.6-12.3-3.2 2.6-7.1 5.2-11.6 7.5 1.2.1 2.8.2 5.7.2h6.3c1.2-1.3 2.3-2.3 3.1-2.9.6-.5 1-.5 1.6-.1.9.6 2.2 1.6 3.1 2.5.6.6.6 1.3 0 1.8-.9.7-2.1 1.2-3.6 1.2h-10c-3.7 0-4.5.1-6.1.4-.9.2-1.2.1-1.5-.5-.2-.4-.4-1.1-.5-1.7-3.1 1.5-6.6 3-10.2 4.3.6.3 1.1.6 1.6 1zm43.7 6.8v-4.1h-43.8c-.3.2-.6.5-1 .7v3.4h44.8zm-.8 6.9c.6 0 .8-.3.8-1.1V528h-44.8v4.3h44zm-10.1 8.7c4.4-1.2 8.5-2.7 12.2-4.6-.7-.2-1.3-.7-1.8-1.4h-22.9c4.1 2.5 8.2 4.5 12.5 6zm-5.1-57.8c2.5.4 6.3.5 13.7.5h12.3a27 27 0 0 1 3.3-3.4c.6-.5 1.4-.5 2.1 0 1.1.8 3 2.5 4 3.6.7.8.5 1.8-.2 2.3-.9.6-2 1.1-3.3 1.4-2.3 3.5-5.1 6.5-8.6 9.1 3.9 1.7 6.9 3.3 8.2 4.4 3.2 2.7 4.3 6.6 3.5 8.3-.5 1-2.2 1.3-4.1-.4-3.1-2.7-7.6-5.9-12.8-9a51.5 51.5 0 0 1-15.8 5.2l-.5-1.4c4.7-1.9 8.8-3.9 12.3-6.1-4.2-2.3-8.6-4.4-12.9-6.2l.6-1.4c5.6 1 11.5 2.7 16.5 4.6 3-2.4 5.5-5.1 7.5-8.2h-12.1c-7.4 0-10.4.3-12.7.7-.6.1-.9 0-1.2-.5-.4-.7-.7-2.1-.7-2.9 0-.5.3-.7.9-.6z"/><path class="st0" d="M576.09 498.7V491c0-7.5-.4-9.6-.4-10.1 0-.9.4-1.2 1.2-1.2 2.3 0 8.8 2.4 8.8 4 0 .9-1.2 2-2.6 3.2v14.2c0 24.9-.7 35.9-19.8 50.8l-1.3-1.3c13.8-17 14.1-26.5 14.1-51.9zm31.1-14.5c2.1 0 8.5 2.2 8.5 4 0 .8-.9 1.8-2.4 3.1v49.5c0 1.9-3.6 2.9-5.6 2.9-1 0-1.3-.4-1.3-1.4v-48.5c0-6.3-.3-7.6-.3-8.5 0-.7.4-1.1 1.1-1.1zm31.7-5.5c2.1 0 8.6 2.3 8.6 4.1 0 .9-.9 1.9-2.4 3.2v61.5c0 2.1-3.7 3.1-5.7 3.1-1.1 0-1.4-.4-1.4-1.4v-60.3c0-6.8-.3-8.1-.3-9 0-.8.4-1.2 1.2-1.2z"/><path class="st2" d="M666.67 501.7c1.9.3 5.1.4 10.2.5v-15.6c0-4.4-.3-5.6-.3-6.3 0-.7.3-1 1-1 1.2 0 4.7 1.5 6.3 3h22.8c1.2-1.4 2.6-2.9 3.5-3.6.6-.5 1.4-.5 2 0 .8.6 2.5 2.2 3.3 3.2.4.5.5 1.3-.2 1.8-.8.6-2.7 1.3-3.9 1.3h-27.3l-1.2 1.3v2.7h22c1.2-1.3 2.4-2.4 3.3-3.1.5-.4 1.2-.4 1.7 0 .8.6 2.2 1.8 3 2.8.4.5.4 1.2-.3 1.7-.8.6-2.7 1.2-3.9 1.2h-25.8v4h22c1.2-1.3 2.4-2.4 3.3-3.1.5-.4 1.1-.4 1.6 0 .8.6 2.2 1.8 3 2.8.4.5.5 1.2-.2 1.7-.8.6-2.7 1.2-3.9 1.2h-25.8v4h25.8c1.2-1.4 2.6-2.9 3.5-3.6.6-.5 1.4-.5 2 0 .8.6 2.5 2.2 3.3 3.2.4.5.5 1.3-.2 1.8-.8.6-2.7 1.3-3.9 1.3h-25.5c1.2.7 2.1 1.5 2.1 2 0 .7-1 .9-2.3 1-1.9 1.3-4.2 2.5-7 3.5 8.1-.2 16.7-.6 24.6-1.1-1.6-1.3-3.4-2.6-5.1-3.8l.4-.9c5.4.8 10.9 2.6 12.3 4.1 1.8 2 2 5.2.5 6.3-.8.6-2.1.5-3.1-.7-.8-1-1.9-2.2-3.2-3.4a410 410 0 0 1-32 4.5c-.6 1.3-1.3 2.1-2 2.1-1.3 0-2.7-5-2.7-6.3 0-.5.2-.7.9-.7h5.8c2.4-2.3 4.4-4.6 5.6-6.6h-.6c-8.3 0-12.1.3-14.4.7-.6.1-.9 0-1.2-.5-.4-.7-.7-2-.7-2.8 0-.5.3-.7.9-.6zm-.1 37.3c2.6.2 7.9-.2 20.8-1.3l18.2-1.6v-5.7l-12 1c-10.5.9-14.7 1.6-16.9 2.2-.6.1-.9.1-1.3-.4-.4-.7-.8-2-.9-2.8 0-.5.2-.8.8-.7 2.6.2 7.5-.2 18.1-1.1l12.2-1.1v-.1c0-2.6-.1-4-.2-4.9-9.8.8-19.6 1.2-27.9 1.1l-.1-1.9c22.9-1.7 48.9-5.2 64.9-10.5.9-.3 1.3-.3 1.9.3 1.1 1.1 4.4 4.9 3.6 6.2-.5.8-2.7.3-4.6-.4-8.9 1.9-20.5 3.5-32.2 4.7 1.4.7 2.5 1.6 2.5 2.3 0 .6-.7 1.2-1.7 1.9v.8l26.1-2.3c1.1-1.4 2.4-3 3.2-3.8.6-.5 1.4-.6 2-.2.9.6 2.7 2 3.6 2.9.4.5.6 1.3-.1 1.9-.7.6-2.5 1.5-3.7 1.6l-31.1 2.7v5.7l36.5-3.2c1.5-1.9 3.1-3.8 4.1-4.7.7-.7 1.5-.8 2.3-.3 1.3.8 3.3 2.5 4.2 3.4.7.7.7 1.6 0 2.2-.8.8-2.5 1.5-3.6 1.6l-3.1.3c.3 2.6.6 5.1.8 6.1.2.9.5 1.2 1.3 1.4 1 .3 1.6.8 1.6 1.5 0 1.3-2 3-3.9 3.9-2.1 1-4.4 1.4-10.6 1.7-6 .3-14.4.3-21.6 0-10.8-.5-14.2-2.7-14.2-10.1v-.4l-17.9 1.6c-12.9 1.1-17.5 1.8-19.7 2.4-.6.1-.9.1-1.3-.4-.4-.7-.8-2-.9-2.8 0-.5.2-.8.8-.7zm53.2 4.9c6.2.3 16.8.3 22.2 0 4.9-.3 6.5-1 7.2-2.9.4-1.2 1-3.4 1.6-6.1l-39 3.5v.6c0 3.7 1 4.6 8 4.9zm24.2-66.1c.7-.5 1.2-.6 1.8-.1 1.4 1.2 4.4 4.5 3.7 5.6-.4.6-1.7.5-3.3.1a86.3 86.3 0 0 1-29.1 7.1l-.2-1.4c11.9-3 20.8-6.8 27.1-11.3zm8.3 20.7c1-.5 1.3-.6 1.9-.1 1.4 1.2 4 4.6 3.4 5.8-.3.6-1.9.3-3.3-.1-9.2 3.3-23.7 5.3-36.8 4.9l-.1-1.4c13.9-1.7 25.4-4.4 34.9-9.1zm-4.4-10.5c.9-.6 1.3-.7 2-.1 1.4 1.2 4.2 4.4 3.6 5.4-.3.5-1.6.6-3.2.2-8.8 3.5-19.5 5.6-30.7 5.8l-.2-1.4c12.1-2.3 22.1-5.7 28.5-9.9z"/><path class="st0" d="M384.89 574.1h-1.32c-.13 0-.14-.46-.01-.46.8 0 1.75-.35 2.36-.96.07-.07.3.01.3.08v5.59c0 1.33.28 1.61 1.53 1.61.09 0 .13.06.13.2 0 .16-.04.25-.13.25-.14 0-.94-.03-2.04-.03s-1.9.03-2.04.03c-.1 0-.14-.09-.14-.25 0-.14.04-.2.14-.2 1.27 0 1.5-.28 1.5-1.61v-3.96c0-.26-.03-.28-.28-.28zm4.56 2.48c0-2.4 1.32-3.95 3.2-3.95 1.87 0 3.16 1.45 3.16 3.86 0 2.43-1.34 4.03-3.25 4.03-1.83 0-3.11-1.51-3.11-3.94zm3.17 3.37c1.23 0 1.89-1.17 1.89-3.45 0-2.26-.65-3.3-1.9-3.3-1.23 0-1.88 1.04-1.88 3.3 0 2.28.65 3.45 1.89 3.45zm4.94-3.37c0-2.4 1.32-3.95 3.21-3.95 1.87 0 3.16 1.45 3.16 3.86 0 2.43-1.35 4.03-3.25 4.03-1.84 0-3.12-1.51-3.12-3.94zm3.17 3.37c1.24 0 1.9-1.17 1.9-3.45 0-2.26-.66-3.3-1.9-3.3-1.23 0-1.89 1.04-1.89 3.3 0 2.28.66 3.45 1.9 3.45zm4.6 2.57c.6 0 .75-.08.75-1.23v-4.62c0-.8-.2-.97-.73-1.04-.07-.01-.09-.07-.09-.18 0-.1.02-.14.08-.15.57-.1 1.1-.28 1.55-.6.07-.03.23.02.23.1v.75a2.84 2.84 0 0 1 2.02-.84c1.49 0 2.7.92 2.7 2.64 0 1.9-1.52 3.2-3.23 3.2-.64 0-1.11-.2-1.49-.46v1.2c0 1.15.11 1.23.94 1.23.1 0 .12.06.12.2s-.03.22-.12.22c-.13 0-.63-.04-1.4-.04-.72 0-1.19.04-1.33.04-.08 0-.1-.08-.1-.22s.02-.2.1-.2zm3.45-2.45c.99 0 1.89-.73 1.89-2.32 0-1.49-.8-2.43-1.9-2.43-.6 0-1.2.31-1.65.79v2.67c.28.79.9 1.3 1.66 1.3zm5.6-6.45c.04-.12.33-.07.33.04v1.22h2.05c.18 0-.03.53-.23.53h-1.82v3.3c0 .82.42 1.11.92 1.11.26 0 .64-.1.93-.24.11-.05.26.21.17.3-.4.35-1.21.67-1.75.67-.73 0-1.31-.56-1.31-1.56v-3.58h-.77c-.1 0-.15-.3-.05-.34a2.6 2.6 0 0 0 1.53-1.46z"/></svg>