<?xml version="1.0" encoding="UTF-8"?>
<svg id="Layer_1" data-name="Layer 1" xmlns="http://www.w3.org/2000/svg" viewBox="0 0 40 40">
  <g id="fiction_main">
    <path d="m23.96,24.3v2.81c0,4.64-2.34,6.62-7.27,6.62-1.58,0-2.95-.07-4.14-.25l-.4-5.44c-1.84,1.91-4.14,3.35-6.88,4.32l-3.1-5.69c3.56-1.12,6.08-2.95,7.52-5.47H2.83v-5.08h13.46v5.08c-.86,2.45-2.05,4.5-3.56,6.23.97.14,1.73.18,2.52.18,1.58,0,2.2-.47,2.2-1.98v-10.69H5.78v-4.97h18.18v6.26l1.08,1.19c2.66-1.91,5.11-4.18,7.31-6.66l4.9,4.07c-2.27,2.34-4.9,4.57-7.92,6.66,2.52,2.16,5.29,4.14,8.49,6.05l-3.85,5.22c-3.96-2.48-7.23-5.33-10.01-8.46ZM10.71,6.27h18.61v2.74H10.71v-2.74Z"/>
  </g>
</svg>