<?xml version="1.0" encoding="UTF-8"?>
<svg id="Layer_1" data-name="Layer 1" xmlns="http://www.w3.org/2000/svg" viewBox="0 0 40 40">
  <path d="m8.08,24.17c1.27-1.24,2.1-2.39,2.48-3.47l1.37,2.12h-5.72v-5.94h10.12v4.97c-.41,2.02-1.25,4.09-2.54,6.23-1.28,2.14-3.08,4.2-5.38,6.19l-5.11-6.73c1.92-1.01,3.52-2.13,4.79-3.37Zm5.76,11.14l-.76-6.55c.6.12,1.36.18,2.27.18.67,0,1.13-.12,1.37-.36.24-.24.36-.67.36-1.3v-11.12h-6.26v-6.41h13.68v19.33c0,1.61-.23,2.87-.68,3.8-.46.92-1.23,1.6-2.32,2.02-1.09.42-2.61.63-4.55.63-.82,0-1.85-.07-3.1-.22Zm6.28-25.67c-1.86-.6-3.57-1.07-5.13-1.4l2.34-4.72c1.58.34,3.31.79,5.18,1.37,1.87.58,3.56,1.19,5.08,1.84l-2.34,4.79c-1.56-.65-3.27-1.27-5.13-1.87Zm4.95,17.14c-1.82-2.83-3.2-5.83-4.14-9l3.2-3.85c1.32,2.86,2.98,5.3,4.97,7.34,1.99,2.04,4.51,3.65,7.56,4.82l-5.18,7.92c-2.45-1.99-4.58-4.4-6.41-7.24Zm4.1-15.59l5.29,5.83c-2.57,2.11-5.21,3.84-7.92,5.18l-3.38-4.36c2.18-1.97,4.19-4.19,6.01-6.66Z"/>
</svg>