<?xml version="1.0" encoding="UTF-8"?>
<svg id="Layer_1" data-name="Layer 1" xmlns="http://www.w3.org/2000/svg" viewBox="0 0 40 40">
  <g id="jinhua_main">
    <path d="m13.5,20.27h-4.61c-2.48,0-3.53.11-4.36.25-.22.04-.32,0-.43-.18-.14-.25-.22-.72-.22-1.04,0-.18.11-.25.32-.22.9.14,2.2.18,4.68.18h4.61c.47-.54.94-1.04,1.3-1.33.29-.25.65-.25.94-.04.43.32,1.26,1.12,1.55,1.48.25.29.18.68-.11.9-.22.14-.47.29-.79.4-2.74,5.33-7.16,9.11-12.96,10.91l-.25-.54c4.79-2.77,8.75-6.73,10.33-10.76Zm-6.3-11.73c.9.14,2.66.18,6.44.18h13.71c.76-.83,1.62-1.69,2.12-2.09.32-.25.68-.25,1.04,0,.47.32,1.4,1.19,1.8,1.66.25.29.25.68,0,.9-.32.29-.97.54-1.55.54H13.65c-3.78,0-5.26.11-6.08.25-.22.04-.32,0-.43-.18-.14-.25-.25-.76-.25-1.04,0-.18.11-.25.32-.22Zm14.58,9.18v12.24c0,1.3-2.74,3.6-3.78,3.6-.43,0-.68-.25-.68-.76,0-1.08-.11-1.12-3.2-2.56l.14-.43c1.84.22,3.17.32,3.92.32s1.15-.32,1.15-1.44v-14h-5.47c-2.56,0-3.6.11-4.43.25-.22.04-.32,0-.43-.18-.14-.25-.22-.72-.22-1.04,0-.18.11-.25.32-.22.9.14,2.2.18,4.75.18h4.9c.47-.54.94-1.04,1.3-1.33.29-.25.65-.25.94-.04.43.32,1.26,1.12,1.55,1.48.25.29.18.68-.11.9-.18.14-.4.25-.65.36v.18c.79,2.05,1.84,3.89,3.06,5.51,2.88-2.09,5.29-4.25,7.13-6.7.22-.29.4-.32.76-.14.94.47,2.48,1.66,2.38,2.23-.07.36-.79.4-1.44.4-2.45,1.84-5.29,3.6-8.31,4.82,2.84,3.42,6.73,5.83,11.48,7.31l-.04.47c-1.33.29-1.55.54-1.87,1.19-.36.72-1.08.79-2.99-.22-4.25-2.27-8.06-6.95-10.15-12.38Z"/>
  </g>
</svg>