<?xml version="1.0" encoding="UTF-8"?>
<svg id="Layer_1" data-name="Layer 1" xmlns="http://www.w3.org/2000/svg" viewBox="0 0 40 40">
  <path d="m12.08,29.23c-2.27,1.58-4.75,1.51-8.82.65l-.04-.29c4.28-2.38,7.74-5.29,9.18-7.24l-.11-.14-4.61.87-1.58-4.03,9.18-1.62.54,1.4,1.37.83v-3.2l-.25-.25-4.64.79-1.62-4.14,8.71-1.44c-1.98-1.51-3.64-3.28-4.68-4.93l.11-.29,10.62,1.15-1.62,6.7c-1.33-.58-2.66-1.33-3.89-2.23l.36,1.12,3.42,2.48-1.3,2.23v.61l.79.65,3.24-4.79.5-2.27,7.02,4.97-.07.36-8.75,3.17c3.42,2.41,7.45,4.64,11.63,6.52l-.04.43-9.5,3.02c-1.33-2.27-2.99-4.5-4.82-6.62v9.93l-.22.18c-3.35-.29-7.31-2.23-10.11-4.57Zm5.11-2.88v-3.46c-1.55,2.59-2.88,4.39-4.18,5.58,3.17-.04,4.18-.25,4.18-2.12Z"/>
</svg>