<?xml version="1.0" encoding="UTF-8"?>
<svg id="Layer_1" data-name="Layer 1" xmlns="http://www.w3.org/2000/svg" viewBox="0 0 40 40">
  <g id="tptq_main">
    <path d="m12.62,20.54H4.16v-2.59h11.48v2.41c-1.37,4.46-4.86,9.65-10.29,13.57l-1.8-2.2c4.39-3.17,7.85-7.56,9.07-11.19Zm.79,15.55l-.22-2.77c.86.11,1.8.14,2.52.14,2.56,0,3.17-.47,3.17-2.52V13.77h-10.76v-2.7h13.64v20.19c0,3.64-1.48,4.97-5.83,4.97-.94,0-1.76-.04-2.52-.14Zm.83-32.32c3.71.79,8.93,2.2,12.35,3.31l-.9,2.66c-3.78-1.26-8.53-2.52-12.27-3.38l.83-2.59Zm19.55,8.24l1.66,2.2c-2.56,1.94-5.4,3.82-8.28,5.33,1.66,4.18,5.04,8.82,9.29,11.99l-2.05,2.38c-4.72-3.64-8.96-9.94-10.69-15.51,3.67-1.8,7.2-4.03,10.08-6.37Z"/>
  </g>
</svg>