<?xml version="1.0" encoding="UTF-8"?>
<svg id="Layer_1" data-name="Layer 1" xmlns="http://www.w3.org/2000/svg" viewBox="0 0 40 40">
  <g id="yebai_main">
    <path d="m7.64,21.79c0-.1.06-.16.18-.2s.38-.08.79-.13c.43-.02.94-.08,1.53-.18.59-.1,1.03-.2,1.31-.32l.68-.25c.19-.07.47-.11.83-.11.29,0,.48.02.58.07.1.05.14.16.14.32,0,.29-.03.52-.09.68-.06.17-.22.52-.49,1.04-.29.67-.53,1.1-.72,1.3-.19.29-.41.64-.67,1.06s-.47.81-.67,1.17c-.02.07-.17.32-.43.76-.19.19-.56.72-1.12,1.58-.38.55-.55.86-.5.94l.07.07c.07,0,.2-.1.4-.29.19-.19.36-.29.5-.29.17-.05.31-.11.43-.18.24-.17.36-.19.36-.07,0,.05-.26.32-.77.81-.52.49-.89.82-1.13.99-.24.17-.42.25-.54.25s-.24-.06-.36-.18c-.1-.1-.14-.22-.14-.36,0-.22.11-.48.32-.79.91-1.44,1.51-2.33,1.8-2.66.14-.14.22-.24.22-.29.02-.1.08-.22.18-.36.1-.14.18-.29.25-.43.34-.48.54-.83.61-1.04.14-.43.4-.89.76-1.37.14-.22.31-.53.49-.95.18-.42.27-.68.27-.77-.02-.07-.05-.11-.09-.13-.04-.01-.09-.02-.16-.02-.6.05-1.03.14-1.3.29-.19.12-.42.2-.68.25-.29.05-.6.13-.94.25-.24.07-.46.11-.65.11-.24,0-.52-.05-.83-.14-.12-.05-.21-.09-.27-.13-.06-.04-.1-.09-.13-.16l-.04-.14Zm3.24,6.35s.04.05.04.13c0,.1-.04.14-.11.14-.05,0-.08-.03-.09-.09-.01-.06,0-.1.05-.12.05-.05.08-.07.11-.05Zm6.8,4.05c-.62-.34-1.02-.59-1.19-.76-.22-.19-.44-.44-.67-.74-.23-.3-.33-.46-.31-.49l.04-.04c.07,0,.41.13,1.01.4.77.36,1.25.49,1.44.4.05-.02.08-.07.09-.14.01-.07,0-.18-.02-.32-.12-1.2-.19-2.66-.22-4.39-.05-.98-.09-1.61-.13-1.89-.04-.28-.13-.47-.27-.59-.07-.07-.11-.14-.11-.22,0-.12.07-.29.22-.5.19-.21.29-.48.29-.79,0-.07-.05-.11-.14-.11-.12,0-.26.05-.43.16-.17.11-.28.22-.32.34-.02.05-.05.1-.09.14-.04.05-.07.07-.09.07-.05,0-.17.07-.36.22-.07.1-.14.16-.2.18-.06.02-.11.01-.16-.04-.02-.02-.04-.06-.04-.11s.08-.19.25-.43c.29-.36.61-.7.97-1.01.36-.34.57-.57.63-.7.06-.13.14-.5.23-1.1.07-.55.11-1.38.11-2.48,0-.55-.01-.88-.04-.97-.07-.36-.11-.73-.11-1.12-.02-.29-.05-.49-.07-.59-.02-.11-.07-.17-.14-.2-.14,0-.3.05-.47.14-.17.12-.3.18-.4.18-.02,0-.24.13-.65.4-.43.26-.67.41-.72.43l-.86.54c-.17.12-.34.23-.5.34-.17.11-.31.2-.43.27l-1.58.97c-.34.19-.58.36-.72.5-.38.31-.58.3-.58-.04,0-.19.13-.41.4-.65.26-.24.61-.47,1.04-.68.43-.24.91-.54,1.44-.9.26-.19.52-.37.77-.52s.4-.25.45-.27l.36-.22c.24-.17.84-.52,1.8-1.04.26-.14.47-.24.61-.29.14-.05.3-.07.47-.07.22.02.38.1.5.22.07.1.11.21.13.34s.02.33.02.59c0,.58.04,1.1.11,1.58.05.29.07.61.07.97l-.11,1.04c-.05.7-.08,1.09-.11,1.19,0,.17.02.3.07.4.05.05.08.07.11.07s.14-.07.36-.22c.29-.19.43-.3.43-.32l.4-.32c.17-.1.49-.32.97-.68l.83-.65.58-.4c.14-.14.36-.3.65-.47.29-.19.48-.34.58-.43.1-.1.29-.22.58-.36.12-.07.27-.16.45-.25.18-.1.37-.2.56-.32.41-.22.7-.32.86-.32.14,0,.26.04.36.11.1.07.14.18.14.32,0,.17-.06.36-.18.58-.12.22-.28.41-.47.58-.7.6-1.15,1.01-1.37,1.22l-.61.5c-.58.5-.89.79-.94.86l-.4.29-1.44,1.15-1.8,1.44c-.65.43-.97.76-.97.97,0,.12.07.18.22.18l.47-.07c.38-.1.86-.14,1.44-.14.48,0,.83.04,1.04.11.19.05.58.07,1.15.07.84,0,2,.11,3.49.32l.97.14,2.05.29,1.04.11.72.14.65.11c1.32.26,2.23.47,2.74.61.41.1.89.19,1.46.29.56.1,1.04.17,1.42.22.24.02.5.09.79.2.29.11.44.21.47.31.05.02.02.08-.07.18-.05.05-.13.08-.23.09-.11.01-.25.02-.41.02-.31-.02-.83-.09-1.55-.2-.72-.11-1.27-.21-1.66-.31-.6-.19-1.45-.37-2.56-.54-.6-.07-1.1-.16-1.51-.25l-.83-.14-1.15-.18c-1.51-.22-2.56-.35-3.13-.4l-1.69-.22c-.29-.05-1.15-.07-2.59-.07-.65,0-1.15,0-1.49.02-.35.01-.59.04-.74.09-.22.1-.36.19-.43.29-.05.07-.07.55-.07,1.44,0,1.44.05,2.64.14,3.6.19,1.13.36,1.85.5,2.16.1.19.14.31.14.36,0,.07-.09.21-.27.41-.18.2-.31.31-.38.31-.12,0-.49-.17-1.12-.5Zm-5.98-5.04c.14,0,.24.03.29.07v.04c0,.07-.07.17-.22.29-.14.12-.26.18-.36.18-.29,0-.32-.12-.11-.36.14-.14.28-.22.4-.22Zm7.06-18.63c.07-.18.2-.32.4-.41.19-.07.34-.11.43-.11.17,0,.25.07.25.22l-.14.58c-.07.26-.1.5-.07.72.05.19.12.34.22.45.1.11.24.21.43.31.22.1.35.19.41.27.06.08.07.17.02.27-.02.05-.08.08-.16.09-.08.01-.19.02-.31.02-.19,0-.34-.02-.43-.05-.1-.04-.23-.1-.4-.2-.5-.34-.76-.8-.76-1.4,0-.31.04-.56.11-.74Zm.41,13.19c.25-.1.53-.29.85-.58.14-.14.4-.36.76-.65.77-.6,1.51-1.25,2.23-1.94l1.22-1.19.5-.5c.05-.14.05-.22,0-.22-.19.02-.38.12-.58.29-.14.14-.26.22-.36.22-.14.05-.3.16-.47.32-.19.19-.31.29-.36.29s-.18.11-.4.32c-.22.22-.46.37-.72.47-.17.1-.34.23-.5.4-.1.14-.19.25-.29.32-.1.07-.24.16-.43.25-.14.05-.28.13-.4.25,0,.05-.11.13-.32.25-.17.1-.29.2-.36.32l-.25.36c-.1.07-.2.22-.32.43-.12.22-.18.37-.18.47,0,.17.13.2.38.11Z"/>
  </g>
</svg>