<?xml version="1.0" encoding="UTF-8"?>
<svg id="Layer_1" data-name="Layer 1" xmlns="http://www.w3.org/2000/svg" viewBox="0 0 40 40">
  <g id="zhen_main">
    <path d="m8.12,27.67c1.1-1.01,2.04-2.17,2.81-3.47.77-1.31,1.48-2.91,2.12-4.81-.65.17-1.48.51-2.48,1.03-1.01.52-1.67.99-1.98,1.42-.58-.07-1.08-.19-1.51-.34-.43-.16-.92-.37-1.48-.63.05-.29.08-.44.11-.47.91.05,1.79-.04,2.63-.25.74-.22,1.61-.5,2.59-.86.98-.36,1.63-.67,1.94-.94.07-.22.13-.47.18-.76.46.05.94.18,1.44.4.58.24,1.02.38,1.33.43-.07.38-.17.77-.29,1.15l-.83.04c-.65,1.18-1.38,2.72-2.2,4.64-.46,1.08-.98,1.98-1.57,2.7-.59.72-1.4,1.41-2.43,2.07-1.03.66-2.46,1.39-4.28,2.18-.1-.1-.19-.26-.29-.5,1.68-1.01,3.07-2.02,4.18-3.02Zm5.92,5.42c-1.02-1.28-1.96-2.71-2.83-4.27.07-.1.25-.23.54-.4.84,1.15,1.62,2.07,2.34,2.75.72.68,1.57,1.4,2.56,2.14-.17-.94-.26-2.84-.29-5.72-.02-.82-.04-2.2-.04-4.14,0-4.44.14-8.38.43-11.81-.65.17-1.45.5-2.39.99-.95.49-1.58.95-1.89,1.39-.58-.07-1.08-.19-1.51-.34-.43-.16-.92-.37-1.48-.63.05-.29.08-.44.11-.47.91.05,1.79-.04,2.63-.25.77-.22,1.61-.49,2.52-.83.91-.34,1.52-.64,1.84-.9.07-.22.13-.47.18-.76.46.05.94.18,1.44.4.58.24,1.02.38,1.33.43-.07.38-.17.77-.29,1.15l-.83.04c-.38,1.92-.65,3.84-.79,5.76,2.59-1.39,4.69-2.9,6.3-4.54.29-.31.49-.55.61-.72.12-.17.18-.34.18-.5,0-.26-.22-.59-.65-.97.12-.22.19-.36.22-.43.46.19,1.04.56,1.76,1.12.05.05.25.2.61.47.36.26.77.48,1.22.65-.1.38-.28.76-.54,1.12-.29-.05-.67-.05-1.15,0-1.25.94-2.52,1.76-3.82,2.47-1.3.71-2.8,1.42-4.5,2.14.65.41,1.38.94,2.2,1.6.82.66,1.62,1.33,2.41,2,1.51,1.27,2.78,2.3,3.8,3.1,1.02.79,2.08,1.48,3.19,2.05,1.34.1,2.8.24,4.36.43.58.24,1.32.61,2.23,1.12l-.14.58c-.41-.07-1.03-.11-1.87-.11l-2.92.04c-1.08,0-1.91-.04-2.48-.11-1.13-.7-2.21-1.52-3.26-2.47-1.04-.95-2.3-2.17-3.76-3.65-.26-.26-.84-.83-1.73-1.71-.89-.88-1.68-1.58-2.38-2.11-.05.72-.07,1.74-.07,3.06,0,1.82.06,3.55.18,5.18.17,2.35.38,4.07.65,5.17s.7,2.05,1.3,2.86c-.53.7-1.2,1.24-2.02,1.62-1.32-1.37-2.49-2.69-3.51-3.98Zm.74-29.9c.1-.1.17-.18.22-.25.65.22,1.31.51,2,.88.68.37,1.27.75,1.75,1.13.05.65-.05,1.4-.29,2.27-.29.07-.5.11-.65.11-1.15-1.85-2.21-3.17-3.17-3.96,0-.02.05-.08.14-.18Z"/>
  </g>
</svg>