<?xml version="1.0" encoding="UTF-8"?>
<svg id="Layer_1" data-name="Layer 1" xmlns="http://www.w3.org/2000/svg" viewBox="0 0 40 40">
  <g id="zhonghu_main">
    <path d="m10.61,16.97c2.3,0,4.46-.18,5.79-.4.07,1.33.11,2.66.04,4.07-.07,1.26-.36,2.09-1.22,3.2-1.58,2.09-4,4.68-6.12,6.55-.86.72-1.37.72-2.3.18-1.51-.94-2.77-2.05-4-3.46,1.3-.32,2.3-.76,3.49-1.44,1.55-.86,3.13-2.05,4.64-3.49.68-.61.94-.97,1.19-1.4-1.58.07-2.99.25-4.64.58-.79.18-1.26.04-1.58-.61-.58-1.12-.97-2.34-1.22-4.1,1.69.18,3.6.32,5.94.32Zm5.83-6.01c3.38,0,5.33-.18,6.88-.47-.5,2.56-.68,4.82-.68,8.17,0,3.56.07,6.01.25,8.64.07,1.08-.04,1.98-.54,2.7-1.04,1.51-2.59,3.31-4.03,4.5-.86.68-1.58.83-2.63.18-1.4-.9-2.81-2.05-4-3.24,1.58-.5,3.17-1.37,4.72-2.52.97-.72,1.19-1.3,1.26-2.48.22-3.71.22-7.7,0-11.16-2.05-.07-3.71.04-5.69.32-.79.11-1.19-.11-1.44-.72-.54-1.3-.94-2.7-1.19-4.36,1.84.25,3.64.43,7.09.43Zm3.56-5.69c3.02,0,4.86-.11,6.55-.36-.22,1.62-.54,2.95-1.01,4.07-.29.72-.76.9-1.58.79-1.19-.14-2.56-.25-3.96-.25s-2.81.07-4.03.25c-.79.11-1.26-.07-1.55-.79-.43-1.08-.79-2.41-1.08-4.07,1.76.25,3.67.36,6.66.36Zm7.34,8.85c1.66-1.19,2.66-2.38,3.13-3.56,1.3,1.04,2.45,2.16,3.31,3.31.61.79.47,1.48-.5,2.02-2.92,1.73-5.98,3.17-9.79,4.93-.76-.86-1.4-1.62-2.52-2.66,2.27-1.19,4.25-2.52,6.37-4.03Zm6.01,11.05c1.22.68,2.52,1.19,3.85,1.55-1.15,1.33-2.63,2.66-3.96,3.56-1.01.68-1.73.68-2.63-.07-3.24-2.59-5.87-5.04-8.75-8.14l-.11-2.3,2.81-.29c3.17,2.3,5.98,4.1,8.78,5.69Z"/>
  </g>
</svg>