<svg xmlns="http://www.w3.org/2000/svg" viewBox="0 0 64 64"><path d="M0 0v64h64V0H0zm14.96 50.28c-.21.87-.54 1.52-.97 1.52-.81 0-1.95-2.76-2.16-3.79-.05-.43.11-.6.6-.71 1.13-.32 2.33-.65 3.57-1.03v-9.3c-3.57 0-5.46.16-6.71.38-.34.05-.5 0-.66-.27-.22-.37-.38-1.08-.38-1.51 0-.27.16-.38.49-.32 1.35.21 3.68.27 7.25.27v-3.3c0-2.49-.11-3.24-.16-3.73-1.73.05-2.87.16-3.73.32-.32.05-.49 0-.65-.27-.21-.38-.38-.97-.38-1.46-1.06 1.11-2.2 2.14-3.41 3.08L7 29.57c3.95-5.41 6.81-11.79 7.9-17.14.11-.54.21-.71.76-.65 1.13.11 4.49 1.03 4.49 1.84 0 .54-.87 1.03-1.57 1.24-.54 1.57-1.19 3.08-1.95 4.54h5.25c1.08-1.19 2.21-2.33 2.97-2.92.43-.32.97-.32 1.35-.05.81.6 2.16 1.89 2.6 2.44.38.43.38.97-.05 1.29-.54.38-1.41.76-2.27.76H15.82c-1.24 2.11-2.71 4-4.38 5.79h.11c1.35.21 3.63.27 6.87.27h2.81c.97-1.08 1.95-2.11 2.76-2.71.43-.32.92-.32 1.29-.05.65.49 1.95 1.68 2.38 2.21.32.38.38.92-.05 1.24-.54.43-1.41.76-2.11.76h-6.98c1.08.49 2.16 1.19 2.16 1.73 0 .38-.49.76-1.24 1.24v4.11h3.03c.97-1.08 1.95-2.11 2.76-2.71.43-.32.92-.32 1.29-.05.65.49 1.95 1.68 2.38 2.21.32.38.38.92-.05 1.24-.54.43-1.41.76-2.11.76h-7.3v8.22c3.24-1.03 6.49-2.21 9.36-3.41l.38.65c-3.84 2.73-9.36 5.65-14.22 7.86zm41.69-13.62c-.21.16-.49.32-.81.43v8.28c0 1.57-3.41 4.6-4.65 4.6-.54 0-.87-.27-.87-1.03 0-1.08-.05-1.13-3.46-2.81l.16-.54c1.84.21 3.24.32 4.05.32.87 0 1.35-.38 1.35-1.79v-7.29h-7.9v13.85c0 1.03-1.73 1.57-2.76 1.57-.49 0-.65-.16-.65-.71V36.82h-7.04c-.16.21-.38.49-.71.81v10.54c0 .97-1.73 1.57-2.71 1.57-.49 0-.65-.16-.65-.65V37.9c0-2.65-.16-3.3-.16-3.73 0-.38.16-.54.54-.54.76 0 2.87.87 3.68 1.73h7.04v-1.57c0-2.16-.11-3.03-.11-3.52h-6.38v.49c0 .97-1.73 1.57-2.71 1.57-.49 0-.65-.16-.65-.65V20.53c0-2.65-.16-3.3-.16-3.73 0-.38.16-.54.54-.54.76 0 2.87.87 3.68 1.73h4.44c.81-2.11 1.08-4.05 1.08-5.46 0-.54.21-.71.76-.65 1.24.11 4.33.92 4.33 1.68 0 .54-.92.87-1.57 1.03-.76 1.19-1.84 2.33-3.19 3.41h8.82c.6-.71 1.24-1.41 1.79-1.84.32-.27.76-.27 1.13 0 .6.43 1.62 1.35 2.16 1.95.38.43.27.92-.11 1.19-.21.16-.43.27-.71.38v8.93c0 1.41-1.35 3.68-2.21 3.68-.76 0-1.63-1.08-2.05-2h-5.79c.87.43 1.57.97 1.57 1.41 0 .38-.49.81-1.24 1.24v2.44h7.14c.6-.71 1.24-1.41 1.79-1.84.32-.27.76-.27 1.13 0 .6.43 1.63 1.35 2.16 1.95.4.41.3.89-.09 1.17zm-6.48-7.85H34.64v-4.05h16.22v3.08c.01.7-.15.97-.69.97zm.7-5.52H34.64v-3.03c.33-.32.54-.6.71-.81h15.52v3.84z" style="fill:#01061d"/></svg>