<?xml version="1.0" encoding="UTF-8"?>
<svg id="Layer_1" data-name="Layer 1" xmlns="http://www.w3.org/2000/svg" viewBox="0 0 566.93 566.93">
  <defs>
    <style>
      .cls-1 {
        fill: #1d1d1b;
      }
    </style>
  </defs>
  <polygon class="cls-1" points="14.85 101.31 16.75 120.45 64.67 116.52 63.04 97.24 14.85 101.31"/>
  <path class="cls-1" d="m31.18,63.4c-4.85,4.7-10.38,9.05-16.6,13.06l3.39,18.46,42.35-2.58-.68-18.33-14.65.95c8.62-6.87,15.44-16.83,20.49-29.86h24.84v29.59h-6.65v-24.16h-19.28v43.03h25.25v5.43c0,7.87,2.17,13.69,6.52,17.44,4.34,3.75,11.18,5.63,20.5,5.63,7.15,0,15.52-.59,25.11-1.77l-1.36-20.09c-8.51,1.09-14.93,1.63-19.28,1.63-2.81,0-4.82-.34-6.04-1.02-1.22-.68-1.83-1.88-1.83-3.6v-3.67h26.34v-43.17h-19.55v24.3h-6.92v-29.59h28.64v-19.14h-28.24v-7.74h-23.76v7.74h-28.1v17.3l-13.58-3.86c-1.19,3.01-2.73,5.99-4.58,8.96l-6.76.27c7.21-7.45,12.62-16.45,16.23-27.02l-22.53-2.99c-1.81,5.97-4.19,11.25-7.13,15.82-2.94,4.57-6.72,8.71-11.33,12.42l3.39,17.38,15.79-.85Z"/>
  <path class="cls-1" d="m238.43,89.64h35.43v-21.72h-35.43v-3.04c13.48-.26,24.79-.51,33.94-.77l-1.36-10.72c-34.03,1.09-63.22,1.81-87.56,2.17l1.09,10.18c11.54-.16,22.21-.32,32.04-.48v2.65h-33.12v21.72h33.12v2.72h-35.57v30.14h20.09v-19.95h15.48v3.62l-12.76.72.41,8.82,35.49-1.98.76,7.69c6.33.63,12.67.95,19.01.95s11.2-.93,14.05-2.78c2.85-1.86,4.28-5,4.28-9.43v-17.78h-39.37v-2.72Zm16.43-13.03v3.67h-16.43v-3.67h16.43Zm-52.4,3.67v-3.67h14.12v3.67h-14.12Zm40.44,22.26l.63,3.37-5.77-.06v-3.32h5.14Zm14.54,5.97c0,1.45-.39,2.47-1.15,3.05-.77.59-2.06.88-3.87.88s-3.45-.04-5.12-.11l7.97-1.66-1.5-8.14h3.67v5.97Z"/>
  <path class="cls-1" d="m178.91,80.34c.79-8.71,1.32-18.24,1.6-28.58h94.58v-30.27h-119.46v7.06c0,19.73-.59,36.61-1.76,50.64-1.18,14.03-3.08,27.56-5.7,40.59l24.57,2.04c2.9-14.12,4.96-27.94,6.18-41.47Zm71.61-41.07h-69.8c0-1.34.02-2.7.02-4.07h69.78v4.07Z"/>
  <polygon class="cls-1" points="320.97 102.94 337.94 97.24 331.02 78.1 314.05 83.8 320.97 102.94"/>
  <polygon class="cls-1" points="389.94 96.97 406.77 103.08 414.1 84.21 397.13 78.1 389.94 96.97"/>
  <path class="cls-1" d="m313.44,83.32c1.09-10.99,1.69-23.32,1.81-36.99h75.1l-1.09,8.96,23.35,1.36,2.04-18.06v-8.42h-56.2v-2.85h42.35v-7.47h-42.35v-2.85h-27.69v13.17h-40.73v6.24c0,17.65-.59,32.85-1.77,45.61-1.18,12.76-3.08,25.16-5.7,37.2l24.71,2.04c2.9-12.94,4.95-25.59,6.18-37.94Z"/>
  <path class="cls-1" d="m330.75,48.23v3.65l-12.9.56.27,11.68,12.62-.53v.12c0,5.43,2.26,9.46,6.79,12.08,4.52,2.63,11.72,3.94,21.58,3.94,9.23,0,18.28-.38,27.15-1.15,8.87-.77,16.88-1.83,24.03-3.19l-2.17-15.07c-14.3,3.26-28.33,4.89-42.08,4.89-4.8,0-8.17-.18-10.11-.54-1.95-.36-2.92-.99-2.92-1.9v-.09l33.67-1.4-.27-11.81-33.39,1.45v-2.68h-22.26Z"/>
  <polygon class="cls-1" points="338.89 81.35 338.89 103.75 314.59 103.75 314.59 120.72 412.47 120.72 412.47 103.75 388.85 103.75 388.85 81.35 367.67 81.35 367.67 103.75 359.93 103.75 359.93 81.35 338.89 81.35"/>
  <path class="cls-1" d="m430.53,102.8c2.91-6.89,5.31-13.63,7.22-20.24l-1.65,38.97h23.76l-1.71-47.89,7,18.84,7.54-3.2,4.54,11.08,32.6-5.06,1.89,5.33,13.36-5.5c-.26,2.62-1.27,4.59-3.05,5.9-2.08,1.54-5.57,2.31-10.45,2.31-5.16,0-10.68-.5-16.56-1.49l2.31,19.28c7.6,1.09,14.39,1.63,20.36,1.63,10.13,0,17.72-2.22,22.74-6.65,5.02-4.43,7.53-11.45,7.53-21.04V30.58h-40.27c1.75-3.59,3.11-7.43,4.02-11.54l-22.4-1.22c-2.35,8.06-7.74,13.76-16.16,17.1l2.72,20.63c2.63-.46,5.16-1.16,7.59-2.08-1.01,5.41-2.54,10.23-4.6,14.44-.75,1.54-1.61,3.07-2.56,4.59l-6.13-15.58-12.18,4.54.05-9.7h12.95v-19.41h-12.22v-13.17h-22.67v13.17h-14.53v19.41h11.48c-3.75,13.64-8.97,25.6-15.68,35.84l13.17,15.2Zm62.85-22.56c2.19-2.67,4.23-5.57,6.11-8.74.41-.69.8-1.39,1.18-2.1l3.39,9.6-10.69,1.23Zm-2.71-30.39h34.48v34.06l-7.19-20.76-17.08,5.87c2.05-3.87,3.67-8,4.86-12.39l-19.7-4.26c1.59-.74,3.14-1.58,4.64-2.53Z"/>
  <path class="cls-1" d="m322.07,285.94h4.75v-50.29h-33.39l1.96-4.53-15.79-.66-2.2,5.19h-13.29v50.29h57.97Zm-7.82-23.61h-37.57v-4.09h37.57v4.09Zm0-12.28h-37.57v-4.02h37.57v4.02Zm-37.57,24.49v-4.02h37.57v4.02h-37.57Z"/>
  <path class="cls-1" d="m386.32,286.31c3.7-.39,6.68-1.12,8.92-2.19,2.24-1.07,3.93-2.59,5.08-4.57,1.14-1.97,1.89-4.54,2.23-7.71l.44-4.24-13.82-1.24-.37,2.27c-.29,1.66-.85,2.85-1.68,3.58-.83.73-2.39,1.22-4.68,1.46-2.68.24-6.9.37-12.65.37s-9.43-.12-11.77-.37c-2.24-.19-3.8-.68-4.68-1.46-.88-.78-1.34-1.97-1.39-3.58l-.08-6.14h45.84v-29.68h-61.84v11.4h47.44v7.02h-45.83v18.64c0,5.36,1.21,9.3,3.62,11.81,2.41,2.51,6.47,4.03,12.17,4.57,5.6.49,11.43.73,17.47.73s11.28-.22,15.57-.66Z"/>
  <path class="cls-1" d="m417.57,281.45c1.83,1.63,4.03,2.45,6.62,2.45s4.78-.82,6.58-2.45c1.8-1.63,2.7-3.62,2.7-5.96s-.9-4.41-2.7-6.07c-1.8-1.66-4-2.49-6.58-2.49s-4.79.83-6.62,2.49c-1.83,1.66-2.74,3.68-2.74,6.07s.91,4.33,2.74,5.96Z"/>
  <path class="cls-1" d="m424.19,257.58c2.53,0,4.69-.83,6.47-2.49,1.78-1.66,2.67-3.7,2.67-6.14,0-2.29-.89-4.25-2.67-5.89-1.78-1.63-3.94-2.45-6.47-2.45s-4.76.82-6.54,2.45c-1.78,1.63-2.67,3.59-2.67,5.89,0,2.44.89,4.48,2.67,6.14,1.78,1.66,3.96,2.49,6.54,2.49Z"/>
  <path class="cls-1" d="m488.73,232.29h-5.19v3.8c0,10.53-.32,19.54-.95,27.05-.63,7.5-1.66,14.77-3.07,21.78l13.6,1.1c1.51-7.6,2.59-15.02,3.25-22.26.37-4.09.63-8.52.8-13.27h50.78v-18.2h-59.21Zm45.91,10.45h-37.3c0-.77.01-1.55.01-2.34h37.29v2.34Z"/>
  <path class="cls-1" d="m549.18,278.05c-2.43-.13-4.59-.32-6.5-.56l4.17-3.54-6.47-2.12h7.78v-8.11h-8.85v-2.78h7.89v-6.94h-7.89v-2.41h-11.84v2.41h-9.06v-2.41h-11.84v2.41h-8.33v6.94h8.33v2.78h-9.43v8.11h4.02v3.95c0,.78-.27,1.35-.8,1.72-.54.37-1.46.62-2.78.77l1.17,8.11,21.12-2.34-1.02-8.26-5.77.51.04-4.46h4.79c1.93,4.48,4.98,7.95,9.13,10.42,4.73,2.8,11.18,4.47,19.37,5.01l2.78-9.21Zm-30.77-17.1h9.06v2.78h-9.06v-2.78Zm11.2,10.89h7.69l-3.83,3.31c-.53-.27-1.03-.55-1.47-.86-.96-.68-1.75-1.5-2.39-2.45Z"/>
  <rect class="cls-1" x="196.3" y="320.51" width="10.38" height="3.04"/>
  <path class="cls-1" d="m204.48,329.52h4.11v-5.01h-13.6v-4.84c4.49-.14,9.03-.31,13.67-.53l-.66-7.1c-11.97.64-24.13.99-36.46,1.07l.6,6.98c4.33-.01,8.76-.08,13.25-.17v4.59h-13.31v5.01h3.82c-1.65,1.37-3.41,2.55-5.27,3.56l-.16-1.71-2.98.34v-5.05h3.88v-8.29h-3.88v-6.62h-9.37v6.62h-4.71v8.29h4.71v6.11l-5.61.63.9,9.01,4.71-.6v3.76c0,.76-.16,1.3-.48,1.64-.32.34-.88.51-1.67.51-.24,0-1.01-.06-2.33-.18l.48,9.31c2.15.16,3.7.24,4.65.24,3.02,0,5.23-.72,6.62-2.15,1.39-1.43,2.09-3.72,2.09-6.86v-7.45l3.82-.48-.43-4.51,1.56,1.59v19.21h35.74v-19.46l2.74-2.98c-2.33-1.22-4.48-2.72-6.44-4.48Zm-23.45,12.41h4.83v1.97h-4.83v-1.97Zm13.43,0h5.07v1.97h-5.07v-1.97Zm5.07-5.61h-19.49c2.02-1.81,3.81-3.73,5.35-5.78v4.88h9.61v-5.11c1.55,2.12,3.39,4.12,5.51,6.01h-.97Zm-18.5,11.7h4.83v2.03h-4.83v-2.03Zm13.43,2.03v-2.03h5.07v2.03h-5.07Z"/>
  <rect class="cls-1" x="173.68" y="320.86" width="10.38" height="2.69"/>
  <rect class="cls-1" x="230.61" y="310.66" width="19.87" height="3.16"/>
  <path class="cls-1" d="m212.83,314.96v11.69h9.01c-2.08.72-4.22,1.35-6.44,1.85l3.4,6.68c1.92-.61,3.81-1.3,5.69-2.04,1.48.56,3.05,1.11,4.71,1.67-5.62.76-11.26,1.28-16.9,1.56l1.55,8.71c1.71-.29,3.42-.61,5.13-.93v12.27h44.46v-12.88c1.65.23,3.32.45,5.01.65l1.49-8.12c-5.42-.15-10.74-.55-15.96-1.21,3.39-1.01,6.47-2.08,9.22-3.21l-.13-5.01h5.98v-9.85h0v-1.85h-56.21Zm28.14,24.05c3.78,1.03,7.7,1.94,11.73,2.74h-22.4c3.57-.84,7.13-1.75,10.67-2.74Zm-.01-6.67c-2.79-.7-5.33-1.44-7.62-2.22h17.14c-3.4.92-6.57,1.65-9.51,2.22Zm-3.26-7.65l-1.82-1.97h22.78v1.97h-20.96Zm-14.48-1.97h7.34c-2.33,1.32-4.78,2.47-7.34,3.44v-3.44Zm6.33,26.91v-2.03h23.27v2.03h-23.27Z"/>
  <path class="cls-1" d="m187.11,389.9v-6.5h-7.4v-2.63h6.92v-15.81h-31.15v4.18c0,8.47-.27,15.73-.81,21.78-.54,6.05-1.42,11.66-2.66,16.83l9.79,1.07c1.19-5.24,2.06-10.56,2.63-15.95v15.77h22.2v-16.11h-6.92v-2.62h7.4Zm-16.17-6.5h-5.78c.04-.86.08-1.73.11-2.63h5.67v2.63Zm6.21-9.37h-11.72c0-.78.01-1.58.02-2.39h11.7v2.39Zm-4.53,27.81v-3.4h5.79v3.4h-5.79Zm-1.67-9.31h-6.47c.04-.43.1-.85.14-1.28.04-.44.08-.89.12-1.34h6.21v2.62Z"/>
  <rect class="cls-1" x="188.6" y="367.94" width="8.23" height="29.12"/>
  <path class="cls-1" d="m197.61,409.72c3.86,0,6.67-.92,8.44-2.77,1.77-1.85,2.66-4.8,2.66-8.86v-33.95h-9.73v33.12c0,1.15-.28,1.98-.84,2.48-.56.5-1.51.75-2.86.75-1.83,0-3.86-.12-6.09-.36l.77,9.19c2.27.28,4.81.42,7.64.42Z"/>
  <path class="cls-1" d="m268.32,399.21v-19.93l-15.89.1,13.21-6.43v-8.18h-31.45v7.88l16.84-.05-16.96,7.51v6.56h3.94c-1.32,2.37-3.56,4.33-6.75,5.85l4.54,7.1c3.18-1.87,5.7-4.04,7.55-6.5,1.38-1.85,2.47-3.99,3.27-6.44h2.06c-.74,2.93-2.03,5.59-3.86,8-2.43,3.18-5.63,5.67-9.61,7.46l5.61,8.06c3.93-2.56,7.1-5.28,9.52-8.16l.81,7.03c2.23.28,4.34.42,6.33.42,3.62,0,6.33-.82,8.15-2.45,1.81-1.63,2.71-4.24,2.71-7.82Zm-10.02-1.49c0,1-.24,1.72-.72,2.18-.48.46-1.29.69-2.45.69-1.05,0-2.23-.07-3.53-.19.25-.34.5-.68.73-1.03,2.24-3.42,3.83-7.64,4.78-12.68h1.19v11.04Z"/>
  <polygon class="cls-1" points="233.23 404.05 231.8 394.62 228.52 395.25 228.52 383.46 233.29 383.46 233.29 374.63 228.52 374.63 228.52 364.13 218.44 364.13 218.44 374.63 212.89 374.63 212.89 383.46 218.44 383.46 218.44 397.18 212.47 398.32 213.9 407.92 233.23 404.05"/>
  <polygon class="cls-1" points="15.23 330.29 44.57 334.27 47.63 315.29 18.15 311.44 15.23 330.29"/>
  <path class="cls-1" d="m39.8,401.06c5.04,2.74,11.73,4.96,20.05,6.64,8.32,1.68,17.53,2.52,27.62,2.52,14.43,0,30.62-.49,48.59-1.46l3.85-19.78c-22.22,1.42-38.95,2.12-50.19,2.12-10.09,0-18.77-.75-26.02-2.26-3.08-.64-5.87-1.4-8.39-2.26h7.19s63.2,0,63.2,0h0s7.83,0,7.83,0v-50.05h-35.86l1.34-3.58h39.3v-15.14h-15.42l2.67-6.11-23.37-.93-3.21,7.04h-11.1l-3.21-7.04-23.37.93,2.67,6.11h-14.62v15.14h24.96l-1.34,3.58h-19.77v49.29c-2.53-.99-4.75-2.1-6.64-3.35v-44.08H12.98v19.65h11.95v23.77l-14.34,6.64,10.62,22.44,18.59-9.82Zm75.01-30.93v3.05h-42.49v-3.05h42.49Zm-42.49-8.36v-2.66h42.49v2.66h-42.49Zm42.49-11.02h-42.49v-2.79h42.49v2.79Z"/>
  <path class="cls-1" d="m16.55,146.13v25.66h32v-25.66h-6.41s-10.62,0-10.62,0l1-2.31-8.06-.34-1.12,2.65h-.37s-6.41,0-6.41,0Zm6.41,11.52h19.17v2.09h-19.17v-2.09Zm0,8.32v-2.05h19.17v2.05h-19.17Zm19.17-12.49h-19.17v-2.05h19.17v2.05Z"/>
  <path class="cls-1" d="m84.72,144.67h-31.55v5.82h24.2v3.58h-23.38v9.51c0,2.74.62,4.74,1.85,6.02,1.23,1.28,3.3,2.06,6.21,2.33,2.86.25,5.83.37,8.91.37s5.76-.11,7.94-.33c1.89-.2,3.41-.57,4.55-1.12,1.14-.55,2.01-1.32,2.59-2.33.58-1.01.96-2.32,1.14-3.93l.22-2.16-7.05-.63-.19,1.16c-.15.85-.44,1.46-.86,1.83-.42.37-1.22.62-2.39.75-1.37.12-3.52.19-6.45.19s-4.81-.06-6-.19c-1.14-.1-1.94-.35-2.39-.75-.45-.4-.68-1.01-.71-1.83l-.04-3.13h23.39v-15.14Z"/>
  <rect class="cls-1" x="142.09" y="143.1" width="12.53" height="2.05"/>
  <path class="cls-1" d="m166.15,162.24v-4.1h-10.2l-.2-1.19h-8.76l.22,1.19h-7.94v4.1h2.79c-.46,2.99-1.24,6.01-2.38,9.06l6.53.6c.57-1.77,1.04-3.55,1.43-5.33h11.11v.19c0,.35-.14.59-.41.73-.27.14-.79.21-1.57.21-1.37,0-3.44-.12-6.23-.37l.48,4.07c2.24.3,4.54.45,6.9.45s4.05-.38,5.05-1.14c1.01-.76,1.51-2.01,1.51-3.75v-3.69h-16.26c.05-.34.09-.67.13-1.01h17.8Z"/>
  <path class="cls-1" d="m134.78,145.86h-2.68v1.83c0,5.07-.16,9.42-.49,13.03-.32,3.62-.85,7.13-1.57,10.54l6.75.56c.77-3.68,1.32-7.27,1.66-10.76.14-1.5.25-3.11.33-4.79h26.2v-10.41h-30.21Zm23.2,6.08h-19.05c0-.47.01-.97.01-1.46h19.03v1.46Z"/>
  <path class="cls-1" d="m187.96,166.3h5.74v-15.48h-16.74v15.48h11Zm-5.29-4.36v-1.9h5.29v1.9h-5.29Zm5.29-6.97v1.83h-5.29v-1.83h5.29Z"/>
  <rect class="cls-1" x="168.31" y="144.48" width="7.12" height="2.72"/>
  <path class="cls-1" d="m176.59,149.56h18.65v15.4c0,.92-.22,1.56-.67,1.92-.45.36-1.18.54-2.2.54-1.14,0-2.76-.12-4.85-.37l.56,5c1.79.27,3.78.41,5.97.41,2.91,0,5.02-.59,6.34-1.77,1.32-1.18,1.98-3.2,1.98-6.06v-20.14h-25.77v5.07Z"/>
  <rect class="cls-1" x="168.31" y="148.25" width="7.12" height="23.68"/>
  <rect class="cls-1" x="249.58" y="143.74" width="9.36" height="3.06"/>
  <path class="cls-1" d="m281.17,145.68h-10.01c.14-.57.26-1.17.35-1.79l-6.08-.6c-.3,1.32-.78,2.46-1.45,3.41-.56.8-1.27,1.52-2.13,2.17v-1.14h-16v5.11h3.04c-.54,6.36-1.65,12.62-3.33,18.8l6.49.52c.93-3.84,1.62-7.8,2.13-11.86h2.31v5.56c0,.55-.32.82-.97.82-.2,0-.72-.05-1.57-.15l.26,5.3c.95.12,1.96.19,3.06.19,1.59,0,2.75-.34,3.47-1.03.72-.68,1.08-1.83,1.08-3.45v-12.34h-7.13c.06-.78.13-1.56.18-2.35h6.99v-2.91l2.71,3.47-1.33.22.07,14.14c0,1.64.33,2.8.99,3.47.66.67,1.73,1.01,3.23,1.01,1.19,0,2.56-.12,4.1-.37l.41-5.67c-.8.12-1.47.19-2.01.19-.37,0-.64-.09-.8-.26-.16-.17-.24-.48-.24-.93v-7.2l1.69-.37c.32,4.19,1.22,7.53,2.73,10.01,1.58,2.6,3.9,4.34,6.96,5.24l1.38-6c-1.65-.77-2.91-1.81-3.83-3.1l3.53-2.04-1.01-4.92-4.3,2.44c-.16-.85-.26-1.77-.31-2.75l4.35-.96-.41-4.62h1.41v-5.22Zm-15.14,7.48c.96-.53,1.82-1.3,2.59-2.25h10.9l-13.5,2.25Z"/>
  <path class="cls-1" d="m283.63,157.46l.78,6.34c1.17-.11,2.29-.33,3.36-.64v9.04h6.38v-12.8c.58-.58,1.13-1.2,1.62-1.89.67-.95,1.22-1.98,1.66-3.09v4.96h11v4.4c0,.92-.2,1.55-.6,1.9-.4.35-1.11.52-2.13.52-1.22,0-2.8-.15-4.74-.45l.45,5.86c2.09.35,4.24.52,6.45.52,2.49,0,4.31-.55,5.48-1.66,1.17-1.11,1.75-2.87,1.75-5.28v-5.82h3.88v-5.89h-21.24c.25-.78.47-1.57.62-2.42l-5.45-.72c.43-.42.84-.86,1.22-1.34,1.13-1.45,1.85-3.05,2.14-4.79l-6.23-.56c-.45,1.17-1.21,2.16-2.29,2.98-1.08.82-2.39,1.39-3.93,1.72l1.01,5.74c1.79-.12,3.51-.64,5.15-1.55.54-.3,1.03-.63,1.51-.99-.53,1.36-1.33,2.5-2.41,3.43-1.42,1.22-3.23,2.05-5.45,2.5Z"/>
  <rect class="cls-1" x="299.15" y="144.45" width="18.27" height="5.56"/>
  <rect class="cls-1" x="386.43" y="150.68" width="8.73" height="3.21"/>
  <path class="cls-1" d="m393.1,163.21h-27.78v8.62h27.78v-8.62Zm-6.27,4.59h-15.25v-1.12h15.25v1.12Z"/>
  <path class="cls-1" d="m389.06,155.56c-2.4-.44-4.64-1.01-6.74-1.69l.27-.29h-.02c1.23-.71,2.29-1.63,3.15-2.82.2-.28.37-.58.54-.88h9.79v-4.62h-8.13c.06-.36.14-.71.18-1.08l-6.38-.34c-.25,1.12-.69,2.12-1.32,3-.51.7-1.12,1.3-1.85,1.79v-3.37h-7.61c.06-.37.14-.73.19-1.12l-6.38-.26c-.2,1.17-.62,2.2-1.25,3.1s-1.45,1.63-2.44,2.2l2.01,5.74c2.29-.75,4.13-2.05,5.52-3.92.26-.35.49-.74.71-1.12h9.11l1.48,3.11-2.1-.45v-1.88h-8.5v3.21h4.14c-3.41,1.38-7.52,2.39-12.35,3.02l.97,5.67c2.6-.45,4.92-.97,7.01-1.55v1.36h19.73v-1.35c2.36.57,4.8,1,7.31,1.27l1.04-5.78c-2.71-.15-5.41-.47-8.11-.97Zm-14.63,3.62c1.33-.56,2.64-1.2,3.92-1.91,1.45.71,2.93,1.34,4.44,1.91h-8.36Z"/>
  <polygon class="cls-1" points="420.85 144.07 410.97 144.07 411.19 145.42 399.74 145.42 399.74 150.71 406.38 150.71 406.38 149.74 426.45 149.74 426.45 150.71 433.08 150.71 433.08 145.42 421.07 145.42 420.85 144.07"/>
  <path class="cls-1" d="m433.83,161.57h-14.32v-1.23h-6.27v1.23h-14.25v3.88h11.59c-3.63.93-7.52,1.6-11.7,1.98l1.64,4.7c4.48-.53,8.72-1.81,12.72-3.83v3.61h6.27v-3.7c4.01,2.07,8.29,3.39,12.87,3.92l1.64-4.7c-4.34-.41-8.22-1.08-11.66-1.98h11.47v-3.88Z"/>
  <path class="cls-1" d="m417.46,150.34l-6.64-.26-1.22,1.16h-10.34v3.65h6.21l-1.63,1.34,4.42.81c-2.37.15-5.15.28-8.37.38l2.69,4.03c5.89-.5,11.04-1.28,15.45-2.33l12.48,2.29,2.5-4.33-7.3-.58c1.07-.48,2.12-1.03,3.18-1.62h4.68v-3.65h-17.16l1.05-.89Zm-.36,5.41l-5.34-.37.82-.63h8.38c-1.13.37-2.43.7-3.86,1.01Z"/>
  <path class="cls-1" d="m481.13,144.07c-.17,1.96-.67,3.6-1.49,4.9-.82,1.31-2.03,2.46-3.62,3.45l3.54,6.19c.71-.42,1.36-.88,1.98-1.36v4.91h10.89v3.92h-14.21v5.71h34.42v-5.71h-13.09v-3.92h11.04v-5.52h-11.04v-3.92h11.86v-5.41h-11.86v-3.36h-7.12v3.36h-5.03c.16-.83.29-1.68.36-2.57l-6.64-.67Zm11.3,8.65v3.92h-10.18c1.28-1.14,2.36-2.44,3.2-3.92h6.98Z"/>
  <path class="cls-1" d="m547.51,149.56l-1.34-5.33c-3.13.87-6.17,1.57-9.1,2.11s-6,.96-9.21,1.29l1.27,5.37c3.36-.32,6.49-.76,9.42-1.31,2.92-.55,5.91-1.26,8.97-2.13Z"/>
  <path class="cls-1" d="m549.15,154.33h-22.9v-10.03h-7.35v10.03h-4.59v5.67h4.59v4.66c0,.57-.15,1-.45,1.29-.3.29-.83.49-1.6.62l.86,5.63,14.4-2.09-.78-5.45-5.07.67v-5.33h4.52c1.35,3.07,3.13,5.55,5.34,7.4,2.75,2.3,6.43,3.87,11.06,4.72l1.98-6.19c-5.26-.97-8.82-2.95-10.7-5.93h10.7v-5.67Z"/>
  <path class="cls-1" d="m21.51,210.25c.77-3.88,1.32-7.66,1.66-11.36.19-2.08.32-4.35.4-6.77h25.91v-9.29H16.62v1.94c0,5.37-.16,9.97-.48,13.8-.32,3.83-.85,7.53-1.57,11.11l6.94.56Zm21.18-22.08h-19.04c0-.4,0-.79.01-1.19h19.03v1.19Z"/>
  <path class="cls-1" d="m34.15,203.01c.99,2.29,2.54,4.06,4.66,5.31,2.41,1.43,5.71,2.28,9.88,2.55l1.42-4.7c-1.24-.07-2.34-.16-3.32-.29l2.12-1.8-3.3-1.08h3.97v-4.14h-4.51v-1.42h4.03v-3.54h-4.03v-1.23h-6.04v1.23h-4.62v-1.23h-6.04v1.23h-4.25v3.54h4.25v1.42h-4.81v4.14h2.05v2.01c0,.4-.14.69-.41.88-.27.19-.75.32-1.42.39l.6,4.14,10.78-1.19-.52-4.21-2.95.26.02-2.28h2.44Zm7.95,1.69c-.27-.14-.53-.28-.75-.44-.49-.35-.89-.77-1.22-1.25h3.92l-1.95,1.69Zm-7.69-7.25h4.62v1.42h-4.62v-1.42Z"/>
  <polygon class="cls-1" points="85.99 189.85 77.04 189.07 76.45 193.43 85.43 194.25 85.99 189.85"/>
  <polygon class="cls-1" points="54.85 204.13 61.82 204.13 61.82 199.85 77.79 199.85 77.79 204.06 84.76 204.06 84.76 194.85 54.85 194.85 54.85 204.13"/>
  <rect class="cls-1" x="53.58" y="183.17" width="6.19" height="10.74"/>
  <path class="cls-1" d="m53.88,210.96c.55.02,1.37.04,2.46.04,2.76,0,5.05-.14,6.86-.41,2.98-.42,5.36-1.42,7.12-3,.13-.12.24-.24.36-.36.8,2.44,3.1,3.66,6.91,3.66,3.06,0,6.25-.29,9.58-.86l-.6-5.71c-2.59.65-5.18.97-7.8.97-.89,0-1.54-.11-1.92-.32-.39-.21-.58-.55-.58-1.03v-.52h-3.48c.11-.53.16-1.07.16-1.64v-1.16h-7.31v1.64c0,.77-.32,1.39-.95,1.86-.63.47-1.63.8-3,.97-1.42.17-2.96.26-4.62.26-.62,0-1.55-.02-2.8-.08l-1.31-.04.9,5.71Z"/>
  <path class="cls-1" d="m87.3,183.81h-9.42c.07-.41.15-.81.2-1.23l-6.53-.26c-.15,1.52-.6,2.83-1.34,3.95-.53.8-1.19,1.47-1.98,2.02v-5.75h-6.3v11.37h6.3v-3.75l3.13,3.87c1.81-.99,3.31-2.49,4.48-4.48.2-.35.38-.72.55-1.08h10.89v-4.66Z"/>
  <path class="cls-1" d="m158.24,210.81c2.41,0,4.17-.58,5.28-1.73s1.66-3,1.66-5.54v-21.22h-6.08v20.7c0,.72-.18,1.24-.52,1.55-.35.31-.95.47-1.79.47-1.14,0-2.41-.07-3.8-.22l.48,5.74c1.42.17,3.01.26,4.77.26Z"/>
  <rect class="cls-1" x="152.61" y="184.7" width="5.15" height="18.2"/>
  <path class="cls-1" d="m135.86,210.25c.75-3.27,1.29-6.6,1.64-9.97v9.85h13.87v-10.07h-4.33v-1.64h4.63v-4.06h-4.63v-1.64h4.33v-9.88h-19.47v2.61c0,5.3-.17,9.83-.5,13.61-.34,3.78-.89,7.29-1.66,10.52l6.12.67Zm6.75-4.36v-2.13h3.62v2.13h-3.62Zm-1.04-5.82h-4.04c.03-.27.06-.53.09-.8.03-.27.05-.56.07-.84h3.88v1.64Zm0-5.71h-3.61c.03-.54.05-1.08.07-1.64h3.54v1.64Zm3.88-5.86h-7.32c0-.49,0-.99.01-1.49h7.31v1.49Z"/>
  <path class="cls-1" d="m200.76,187.84v-5.11h-19.65v4.92l10.52-.03-10.6,4.69v4.1h2.47c-.83,1.48-2.23,2.7-4.22,3.65l2.83,4.44c1.99-1.17,3.56-2.52,4.72-4.07.86-1.15,1.55-2.5,2.04-4.03h1.28c-.46,1.83-1.27,3.49-2.41,5-1.52,1.99-3.52,3.54-6,4.66l3.51,5.03c2.46-1.6,4.44-3.3,5.95-5.1l.5,4.39c1.39.17,2.71.26,3.95.26,2.26,0,3.96-.51,5.09-1.53,1.13-1.02,1.7-2.65,1.7-4.89v-12.46l-9.93.06,8.25-4.02Zm-4.59,15.48c0,.62-.15,1.07-.45,1.36-.3.29-.81.43-1.53.43-.65,0-1.4-.05-2.2-.13.15-.21.31-.42.45-.63,1.4-2.14,2.4-4.78,2.99-7.93h.74v6.9Z"/>
  <polygon class="cls-1" points="167.53 203.69 168.42 209.69 180.51 207.27 179.61 201.37 177.56 201.77 177.56 194.4 180.54 194.4 180.54 188.88 177.56 188.88 177.56 182.32 171.26 182.32 171.26 188.88 167.79 188.88 167.79 194.4 171.26 194.4 171.26 202.97 167.53 203.69"/>
  <rect class="cls-1" x="258.8" y="187.91" width="6.49" height="1.68"/>
  <rect class="cls-1" x="272.93" y="187.69" width="6.49" height="1.9"/>
  <path class="cls-1" d="m278.04,193.32h2.57v-3.13h-8.5v-3.03c2.81-.09,5.64-.19,8.54-.33l-.41-4.44c-7.48.4-15.08.62-22.79.67l.37,4.36c2.71,0,5.48-.05,8.28-.11v2.87h-8.32v3.13h2.39c-1.03.86-2.13,1.59-3.29,2.23l-.1-1.07-1.86.21v-3.16h2.42v-5.18h-2.42v-4.14h-5.85v4.14h-2.95v5.18h2.95v3.82l-3.51.4.56,5.63,2.95-.37v2.35c0,.47-.1.81-.3,1.03-.2.21-.55.32-1.04.32-.15,0-.63-.04-1.45-.11l.3,5.82c1.34.1,2.31.15,2.91.15,1.89,0,3.27-.45,4.14-1.34.87-.9,1.31-2.32,1.31-4.29v-4.66l2.39-.3-.27-2.82.98,1v12h22.34v-12.16l1.72-1.86c-1.46-.76-2.8-1.7-4.03-2.8Zm-14.66,7.76h3.02v1.23h-3.02v-1.23Zm8.39,0h3.17v1.23h-3.17v-1.23Zm3.17-3.51h0s-11.56,0-11.56,0h0s-.65,0-.65,0c1.27-1.13,2.4-2.34,3.37-3.62v3.06h6v-3.2c.97,1.33,2.14,2.58,3.47,3.76h-.63Zm-11.56,7.31h3.02v1.27h-3.02v-1.27Zm8.39,1.27v-1.27h3.17v1.27h-3.17Z"/>
  <rect class="cls-1" x="294.38" y="181.53" width="12.42" height="1.98"/>
  <path class="cls-1" d="m282.93,197.61l.97,5.45c1.07-.18,2.14-.39,3.21-.6v7.68h2.72s22.04,0,22.04,0h0s3.02,0,3.02,0v-8.07c1.04.15,2.07.3,3.13.43l.93-5.07c-3.39-.09-6.71-.34-9.98-.75,2.12-.63,4.04-1.3,5.76-2.01l-.08-3.13h3.73v-2.46h0v-4.85h-35.13v7.31h5.63c-1.3.45-2.64.84-4.02,1.16l2.13,4.18c1.2-.38,2.38-.81,3.55-1.27.93.35,1.91.7,2.95,1.05-3.52.47-7.04.8-10.57.97Zm23.86-3.92c-2.12.57-4.09,1.03-5.93,1.38-1.74-.44-3.33-.9-4.76-1.38h10.69Zm-13.09,10.93h14.54v1.27h-14.54v-1.27Zm.46-3.65c2.25-.53,4.48-1.12,6.7-1.74,2.37.65,4.81,1.24,7.34,1.74h-14.04Zm17.74-10.67h-13.1l-1.14-1.23h14.24v1.23Zm-22.15-1.23h4.59c-1.46.83-2.99,1.55-4.59,2.15v-2.15Z"/>
  <rect class="cls-1" x="489.07" y="181.53" width="12.53" height="2.09"/>
  <path class="cls-1" d="m511.79,196.23v-4.36h-10.59v-1.45h-7.2v7.65h-7.61v12.08h24.69v-12.08h-9.88v-1.83h10.59Zm-7.05,9.06h-12.01v-2.91h12.01v2.91Z"/>
  <path class="cls-1" d="m476.58,209.69l7.12.56c.77-3.36,1.32-6.66,1.64-9.92.29-2.97.45-6.5.48-10.59h26.6v-5.41h-33.79l.04,3.62c0,4.75-.16,8.75-.49,12.01-.32,3.26-.86,6.5-1.6,9.73Z"/>
  <path class="cls-1" d="m517.53,182.32c-.17,1.49-.63,2.81-1.38,3.95-.75,1.14-1.74,2.1-2.98,2.87l1.94,2.28v3.87h2.61v2.01h-3.36v4.66h3.36v2.16c0,.5-.12.85-.37,1.06-.25.21-.7.36-1.34.43l.56,5.03,10.26-1.23-.45-5.03-2.87.3v-2.72h3.36v-4.66h-3.36v-2.01h3.36v-4.33h-6.74c.5-.57.98-1.17,1.39-1.83h5.61v-4.7h-3.7c.13-.61.24-1.22.31-1.86l-6.19-.26Z"/>
  <path class="cls-1" d="m549.56,189.18v-4.66h-1.83l-.67-1.98-4.66.26.56,1.72h-2.09v-2.2h-5.03v2.2h-8.13v4.66h8.13v1.38h-4.92s-3.21,0-3.21,0v19.88h5.37v-5.82h2.76v5.22h5.03v-5.22h2.87v.48c0,.27-.06.47-.19.6-.12.13-.32.19-.6.19-.25,0-.62-.02-1.12-.07l.34,4.81c.6.1,1.17.15,1.72.15,1.81,0,3.14-.41,3.99-1.21.84-.81,1.27-2.07,1.27-3.79v-15.22h-8.28v-1.38h8.69Zm-16.48,5.74h2.76v1.57h-2.76v-1.57Zm0,6.38v-1.49h2.76v1.49h-2.76Zm7.79,0v-1.49h2.87v1.49h-2.87Zm2.87-6.38v1.57h-2.87v-1.57h2.87Z"/>
  <path class="cls-1" d="m396.65,202.01l-.22-5.52-14.58.57v-1.65l12.53-.45-.26-4.96-12.27.44v-1.76c4.34-.27,8.69-.59,13.05-1.03l-.9-5.3c-5.69.57-11.01.99-15.94,1.27-4.94.27-10.06.41-15.38.41l.75,5.3c3.8-.03,7.62-.14,11.44-.3v1.66s-10.99.39-10.99.39l.26,4.96,10.72-.38v1.67s-13.03.51-13.03.51l.22,5.67,12.79-.48v.29c0,1.77.32,3.17.97,4.21.65,1.04,1.68,1.81,3.09,2.29,1.42.48,3.32.73,5.71.73,3.68,0,7.53-.41,11.56-1.23l-.52-6.08c-4.28.87-7.79,1.31-10.55,1.31-1.22,0-2.06-.13-2.54-.39s-.71-.71-.71-1.36v-.21l14.81-.58Z"/>
  <rect class="cls-1" x="409.92" y="181.53" width="12.42" height="2.76"/>
  <path class="cls-1" d="m433.57,196.04l-4.55-4.18c-1.75,1.94-3.65,3.49-5.66,4.7-1.15-1.69-2.05-3.58-2.7-5.67h12.8v-5.63h-34.16v5.63h11.31c-.92.8-1.95,1.51-3.11,2.13-2.29,1.22-5.22,2.15-8.8,2.8l1.38,6.3c1.8-.31,3.51-.73,5.11-1.24v2.21c0,.6-.16,1.04-.48,1.32-.32.29-.9.49-1.71.62l.97,5.59,14.36-2.13-.82-5.71-5.41.78v-5.95c1.21-.79,2.33-1.68,3.36-2.66,1.22,3.51,3.04,6.54,5.48,9.07,2.93,3.05,6.53,5.18,10.78,6.4l2.65-5.93c-2.64-.82-4.94-2.01-6.92-3.58,2.02-1.23,4.07-2.86,6.14-4.89Z"/>
  <path class="cls-1" d="m55.71,251.52c-.88,1.09-1.86,1.93-2.94,2.53l15.12-2.53h-12.18Z"/>
  <rect class="cls-1" x="133.05" y="261.75" width="5.93" height="2.13"/>
  <rect class="cls-1" x="133.05" y="256.07" width="5.93" height="2.05"/>
  <path class="cls-1" d="m174.16,260.1c0-16.35-13.25-29.6-29.6-29.6H41.61c-16.35,0-29.6,13.25-29.6,29.6s13.25,29.6,29.6,29.6h102.95c16.35,0,29.6-13.25,29.6-29.6Zm-83.05-15.81h20.47v6.22h-20.47v-6.22Zm-56.77-.79h10.48v3.43h-10.48v-3.43Zm34.46,32.62c-3.43-1-6.02-2.96-7.79-5.87-1.69-2.78-2.7-6.52-3.06-11.21l-1.89.42v8.06c0,.5.09.85.27,1.04.18.2.48.29.9.29.61,0,1.36-.07,2.26-.21l-.46,6.35c-1.73.28-3.26.42-4.59.42-1.67,0-2.88-.38-3.61-1.13-.74-.75-1.11-2.05-1.11-3.88l-.08-15.83,1.49-.25-3.04-3.89v3.26h-7.82c-.05.88-.11,1.76-.18,2.63h7.96v13.83c0,1.81-.4,3.1-1.21,3.86-.81.77-2.1,1.15-3.88,1.15-1.23,0-2.37-.07-3.43-.21l-.29-5.93c.95.11,1.53.17,1.75.17.72,0,1.09-.31,1.09-.92v-6.22h-2.56c-.57,4.55-1.37,8.98-2.41,13.28l-7.27-.59c1.88-6.91,3.12-13.93,3.73-21.05h-3.4v-5.72h17.92v1.28c.95-.73,1.75-1.53,2.38-2.43.75-1.07,1.29-2.35,1.63-3.82l6.81.67c-.1.7-.24,1.36-.4,2.01h11.21v5.85h-1.58l.46,5.18-4.89,1.08c.06,1.11.18,2.13.35,3.08l4.83-2.74,1.13,5.51-3.97,2.3c1.03,1.44,2.46,2.6,4.3,3.47l-1.55,6.72Zm44.53-15.12h-4.34v6.52c0,2.7-.66,4.67-1.96,5.91-1.31,1.24-3.36,1.86-6.14,1.86-2.48,0-4.89-.19-7.23-.58l-.5-6.56c2.17.33,3.94.5,5.3.5,1.14,0,1.94-.19,2.38-.58.45-.39.67-1.1.67-2.13v-4.93h-12.32v-5.55c-.49,1.24-1.11,2.4-1.86,3.46-.55.77-1.17,1.47-1.82,2.12v14.34h-7.14v-10.12c-1.2.36-2.45.6-3.76.72l-.88-7.1c2.48-.5,4.51-1.43,6.1-2.8,1.21-1.04,2.1-2.32,2.7-3.84-.54.4-1.1.77-1.7,1.1-1.84,1.02-3.76,1.59-5.76,1.73l-1.13-6.43c1.73-.36,3.2-1,4.41-1.92,1.21-.92,2.07-2.03,2.57-3.34l6.98.63c-.33,1.95-1.14,3.74-2.4,5.37-.42.54-.88,1.03-1.37,1.51l6.11.81c-.16.95-.41,1.85-.69,2.71h23.79v6.6Zm11.61,14.08h-7.98v-26.52h7.98v26.52Zm0-27.69h-7.98v-3.05h7.98v3.05Zm3.72,21.39h-2v-17.33h2s14.95,0,14.95,0h0s1.8,0,1.8,0v17.33h-16.75Zm9.82.84c2.34.28,4.15.42,5.43.42,1.14,0,1.96-.2,2.46-.6.5-.4.75-1.12.75-2.15v-17.25h-20.88v-5.68h28.86v22.56c0,3.2-.74,5.47-2.21,6.79-1.48,1.32-3.84,1.98-7.1,1.98-2.45,0-4.68-.15-6.68-.46l-.63-5.6Z"/>
  <path class="cls-1" d="m210.28,230.5c-16.35,0-29.6,13.25-29.6,29.6s13.25,29.6,29.6,29.6h9.62c16.35,0,29.6-13.25,29.6-29.6s-13.25-29.6-29.6-29.6h-9.62Zm33.26,29.6c0,13.03-10.6,23.64-23.64,23.64h-9.62c-13.03,0-23.64-10.6-23.64-23.64s10.6-23.64,23.64-23.64h9.62c13.03,0,23.64,10.6,23.64,23.64Z"/>
  <polygon class="cls-1" points="225.84 266.06 222.24 255.15 215.77 256.53 219.32 267.43 225.84 266.06"/>
  <path class="cls-1" d="m209.25,243.79l-7.44-.38-1.64,4.47h-3.66v26.36h17.46v-26.36h-6.2l1.48-4.09Zm-1.59,10.11v4.34h-4.59v-4.34h4.59Zm-4.59,14.2v-4.76h4.59v4.76h-4.59Z"/>
  <path class="cls-1" d="m219.61,243.21c-.7,2.4-2.24,4.07-4.64,5.01l.88,6.39c1.3-.23,2.51-.66,3.64-1.29h8.39v12.86c0,1.03-.29,1.77-.86,2.21-.57.45-1.55.67-2.94.67-1.48,0-3.36-.15-5.64-.46l.71,6.31c2.51.33,4.79.5,6.85.5,3.09,0,5.42-.67,6.98-2.01,1.56-1.34,2.34-3.44,2.34-6.31v-19.76h-10.31c.59-1.18,1.03-2.44,1.33-3.8l-6.72-.33Z"/>
  <path class="cls-1" d="m13.89,460.95l2.28,12.08c1.97-.59,3.89-1.37,5.77-2.34v15.83h12.08v-25.34c1.39-1.57,2.67-3.24,3.83-5.01,1.49-2.29,2.66-4.59,3.53-6.91h37.55v-9.8h-35.18l.61-4.3-13.49-.67-.68,4.97h-13.55v9.8h10.81c-.77,1.5-1.75,2.95-2.95,4.33-2.6,2.98-6.13,5.43-10.61,7.35Z"/>
  <polygon class="cls-1" points="63.97 467.6 77.33 467.6 77.33 457.93 63.97 457.93 63.97 451.62 51.09 451.62 51.09 457.93 37.93 457.93 37.93 467.6 51.09 467.6 51.09 474.65 36.05 474.65 36.05 484.45 79.62 484.45 79.62 474.65 63.97 474.65 63.97 467.6"/>
  <path class="cls-1" d="m85.86,439.4v46.19h57.6v-46.19h-11.55s-19.12,0-19.12,0l1.8-4.16-14.5-.6-2.02,4.77h-.66s-11.55,0-11.55,0Zm11.55,20.74h34.51v3.76h-34.51v-3.76Zm0,14.97v-3.69h34.51v3.69h-34.51Zm34.51-22.49h-34.51v-3.69h34.51v3.69Z"/>
  <path class="cls-1" d="m153.26,453.7v17.12c0,4.92,1.11,8.54,3.32,10.84,2.22,2.3,5.94,3.7,11.18,4.2,5.15.45,10.49.67,16.04.67s10.36-.2,14.3-.6c3.4-.36,6.13-1.03,8.19-2.01,2.06-.98,3.61-2.38,4.67-4.2,1.05-1.81,1.73-4.17,2.05-7.08l.4-3.89-12.69-1.14-.33,2.08c-.27,1.52-.78,2.62-1.54,3.29-.76.67-2.19,1.12-4.3,1.34-2.46.23-6.33.34-11.61.34s-8.66-.11-10.81-.34c-2.06-.18-3.49-.63-4.3-1.34-.81-.71-1.23-1.81-1.28-3.29l-.08-5.64h42.1v-27.26h-56.79v10.47h43.57v6.44h-42.09Z"/>
  <path class="cls-1" d="m231.63,466.29c.26-2.7.46-5.59.61-8.63h47.15v-18.73h-59.21v3.29c0,9.13-.29,16.95-.87,23.46-.58,6.51-1.52,12.83-2.82,18.96l12.15,1.01c1.39-6.62,2.38-13.08,2.99-19.37Zm35.14-16.41h-34.28c.01-.86.03-1.73.03-2.62h34.25v2.62Z"/>
  <rect class="cls-1" x="238.18" y="433.96" width="22.56" height="3.69"/>
  <path class="cls-1" d="m262.75,458.87h-15.77l.4,2.15h-14.29v7.38h5.05c-.84,5.39-2.27,10.82-4.31,16.31l11.75,1.07c1.03-3.19,1.88-6.39,2.57-9.6h19.99v.34c0,.63-.25,1.06-.74,1.31-.49.25-1.43.37-2.82.37-2.46,0-6.2-.22-11.21-.67l.87,7.32c4.03.54,8.17.8,12.42.8s7.28-.68,9.1-2.05c1.81-1.36,2.72-3.61,2.72-6.75v-6.65h-29.25c.09-.6.18-1.21.25-1.81h32.02v-7.38h-18.36l-.37-2.15Z"/>
  <path class="cls-1" d="m331.09,475.72v-27.86h-30.14v27.86h30.14Zm-10.34-20.41v3.29h-9.53v-3.29h9.53Zm-9.53,12.55v-3.42h9.53v3.42h-9.53Z"/>
  <path class="cls-1" d="m331.69,486.8c5.24,0,9.04-1.06,11.41-3.19,2.37-2.13,3.56-5.76,3.56-10.91v-36.25h-46.39v9.13h33.56v27.72c0,1.66-.4,2.81-1.21,3.46-.81.65-2.13.97-3.96.97-2.06,0-4.97-.22-8.73-.67l1.01,8.99c3.22.49,6.8.74,10.74.74Z"/>
  <rect class="cls-1" x="285.37" y="436.45" width="12.82" height="4.9"/>
  <rect class="cls-1" x="285.37" y="443.23" width="12.82" height="42.63"/>
  <path class="cls-1" d="m414.8,476.46h-25.64v-2.82h21.08v-7.32h-21.08v-2.75h22.89v-27.39h-57.87v27.39h22.83v2.75h-20.81v7.32h20.81v2.82h-25.38v9.13h63.17v-9.13Zm-25.64-20.54v-2.95h11.21v2.95h-11.21Zm11.21-11.88v2.89h-11.21v-2.89h11.21Zm-23.36,0v2.89h-11.08v-2.89h11.08Zm-11.08,11.88v-2.95h11.08v2.95h-11.08Z"/>
  <path class="cls-1" d="m476.09,471.15l6.38-3.69-1.81-8.86-7.76,4.4c-.29-1.53-.48-3.18-.57-4.96l7.86-1.73-.73-8.32h2.54v-9.4h-18.02c.26-1.03.47-2.1.64-3.22l-10.94-1.07c-.54,2.37-1.41,4.42-2.62,6.14-1.01,1.44-2.29,2.73-3.83,3.9v-2.06h-28.8v9.2h5.46c-.98,11.45-2.97,22.72-6,33.83l11.68.94c1.68-6.92,2.96-14.04,3.87-21.35h4.12v10c0,.98-.58,1.48-1.74,1.48-.36,0-1.3-.09-2.82-.27l.47,9.53c1.7.22,3.54.34,5.5.34,2.86,0,4.94-.62,6.24-1.85,1.3-1.23,1.95-3.3,1.95-6.21v-22.22h-12.79c.11-1.4.21-2.81.29-4.23h12.56v-5.24l4.88,6.25-2.4.4.13,25.44c0,2.95.59,5.03,1.78,6.24,1.19,1.21,3.12,1.81,5.81,1.81,2.15,0,4.61-.22,7.38-.67l.74-10.2c-1.43.22-2.64.34-3.63.34-.67,0-1.15-.16-1.44-.47-.29-.31-.44-.87-.44-1.68v-12.96l3.04-.67c.57,7.54,2.2,13.56,4.91,18.02,2.84,4.68,7.02,7.82,12.52,9.43l2.48-10.81c-2.96-1.39-5.26-3.25-6.91-5.57Zm-21.35-19.1c1.74-.96,3.31-2.31,4.72-4.06h19.58l-24.3,4.06Z"/>
  <rect class="cls-1" x="425.14" y="435.11" width="16.85" height="5.5"/>
  <path class="cls-1" d="m512.94,448.26l-9.81-1.3c.78-.76,1.52-1.55,2.2-2.42,2.04-2.62,3.32-5.49,3.86-8.63l-11.21-1.01c-.81,2.1-2.18,3.89-4.13,5.37-1.95,1.48-4.31,2.51-7.08,3.09l1.81,10.34c3.22-.22,6.31-1.15,9.26-2.79.97-.53,1.86-1.14,2.73-1.78-.96,2.45-2.4,4.51-4.34,6.18-2.55,2.19-5.82,3.69-9.8,4.5l1.41,11.41c2.1-.2,4.12-.59,6.04-1.16v16.26h11.48v-22.99c1.06-1.06,2.03-2.21,2.92-3.46,1.21-1.7,2.2-3.55,2.99-5.55v8.9h19.8v7.92c0,1.66-.36,2.8-1.07,3.42-.72.63-1.99.94-3.83.94-2.19,0-5.03-.27-8.52-.81l.81,10.54c3.76.63,7.63.94,11.61.94,4.47,0,7.76-1,9.87-2.99,2.1-1.99,3.15-5.16,3.15-9.5v-10.47h6.98v-10.61h-38.2c.45-1.39.81-2.84,1.07-4.36Z"/>
  <rect class="cls-1" x="514.35" y="436.38" width="32.89" height="10"/>
  <path class="cls-1" d="m64.98,497.36h-11.75v3.83h-13.9v8.56l-6.71-1.91c-.59,1.49-1.35,2.96-2.27,4.43l-3.34.13c3.57-3.68,6.24-8.14,8.02-13.36l-11.14-1.48c-.9,2.95-2.07,5.56-3.52,7.82-1.45,2.26-3.32,4.31-5.6,6.14l1.68,8.59,7.8-.42c-2.4,2.32-5.13,4.48-8.21,6.46l1.68,9.13,20.94-1.28-.34-9.06-7.3.47c4.28-3.4,7.68-8.31,10.18-14.77h12.29v14.63h-3.29v-11.95h-9.53v21.28h12.49v2.69c0,3.89,1.07,6.77,3.22,8.63,2.15,1.86,5.53,2.79,10.14,2.79,3.53,0,7.67-.29,12.42-.87l-.67-9.93c-4.21.54-7.39.81-9.53.81-1.39,0-2.38-.17-2.99-.5-.6-.33-.91-.93-.91-1.78v-1.81h13.02v-21.35h-9.67v12.02h-3.42v-14.63h14.16v-9.47h-13.96v-3.83Z"/>
  <polygon class="cls-1" points="16.18 538.44 17.12 547.91 40.81 545.96 40.01 536.43 16.18 538.44"/>
  <path class="cls-1" d="m144.87,513.94v-14.97h-59.07v3.49c0,9.76-.29,18.1-.87,25.04-.58,6.94-1.52,13.63-2.82,20.07l12.15,1.01c1.43-6.98,2.45-13.82,3.05-20.51.39-4.3.65-9.02.79-14.13h46.77Zm-12.15-6.18h-34.52c0-.66,0-1.34,0-2.01h34.51v2.01Z"/>
  <path class="cls-1" d="m126.74,532.67h17.52v-10.74h-17.52v-1.5c6.66-.13,12.26-.25,16.78-.38l-.67-5.3c-16.83.54-31.26.9-43.3,1.07l.54,5.03c5.71-.08,10.98-.16,15.84-.24v1.31h-16.38v10.74h16.38v1.34h-17.59v14.9h9.94v-9.87h7.65v1.79l-6.31.36.2,4.36,17.55-.98.38,3.8c3.13.31,6.27.47,9.4.47s5.54-.46,6.95-1.38c1.41-.92,2.12-2.47,2.12-4.67v-8.79h-19.47v-1.34Zm8.12-6.44v1.81h-8.12v-1.81h8.12Zm-25.91,1.81v-1.81h6.98v1.81h-6.98Zm19.99,11.01l.31,1.67-2.85-.03v-1.64h2.54Zm7.19,2.95c0,.72-.19,1.22-.57,1.51-.38.29-1.02.44-1.91.44s-1.71-.02-2.53-.05l3.94-.82-.74-4.03h1.82v2.95Z"/>
  <path class="cls-1" d="m210.22,523.04c1.81-4.27,3.12-8.54,3.93-12.79v-9.87h-30.48l.04,6.1-8.84-5.32c.39-.58.77-1.18,1.15-1.79l-12.15-1.68c-3.27,4.92-8.15,8.91-14.63,11.95l2.15,10.34c2.2-.86,4.26-1.8,6.18-2.81v3.48h6.85v2.35h-12.69v8.73h3.11l-6.26,11.01,7.79,4.09,2.94-5.36.35,7.51c2.28.36,4.54.54,6.78.54,2.46,0,4.4-.7,5.81-2.11,1.41-1.41,2.11-3.34,2.11-5.81v-9.87h10.81v-8.73h-10.81v-2.35h7.38v-5.85l3.45-4.62h17.27c-.98,4.88-2.4,9.16-4.26,12.85-1.63-3.27-2.91-7.08-3.83-11.44l-10.94,2.55c1.72,6.75,4.19,12.57,7.4,17.45-1.6,1.8-3.55,3.68-5.84,5.62l-2.7-5.08-7.92,3.63,5.24,10.81,5.11-2.55,2.81,5.78c2.55-2.01,4.84-4.03,6.88-6.04,1.24-1.22,2.43-2.53,3.59-3.9,3.43,3.75,7.63,7.12,12.62,10.08l4.56-11.14c-3.67-2.04-6.83-4.39-9.51-7.02,1.73-2.71,3.26-5.62,4.58-8.72Zm-45.82,15.88c0,.67-.16,1.15-.47,1.44-.31.29-.85.44-1.61.44-.46,0-1.31-.11-2.5-.3l3.37-6.14-6.36-2.62h7.57v7.18Zm1.04-26.92c1.22-1.01,2.41-2.15,3.58-3.38l6.7,4.32h-11.47c.4-.31.81-.62,1.19-.94Z"/>
  <path class="cls-1" d="m261.87,497.76l-11.08-.6c-1.17,3.98-3.83,6.8-7.99,8.46l1.34,10.2c1.3-.23,2.54-.58,3.74-1.04-.5,2.68-1.25,5.07-2.27,7.15-.37.76-.81,1.51-1.27,2.25l-3.03-7.69-6.02,2.25.02-4.8h6.4v-9.6h-6.04v-6.51h-11.21v6.51h-7.18v9.6h5.67c-1.86,6.75-4.44,12.66-7.76,17.72l6.51,7.52c1.44-3.41,2.62-6.74,3.57-10.01l-.82,19.27h11.75l-.84-23.68,3.46,9.31,3.73-1.58,2.25,5.48,16.12-2.5.93,2.64,6.59-2.71c-.13,1.28-.61,2.27-1.48,2.91-1.03.76-2.75,1.14-5.17,1.14-2.55,0-5.28-.25-8.19-.74l1.14,9.53c3.76.54,7.12.81,10.07.81,5.01,0,8.76-1.1,11.25-3.29,2.48-2.19,3.73-5.66,3.73-10.41v-31.89h-19.91c.87-1.78,1.54-3.67,1.99-5.71Zm-9.06,30.27c1.08-1.32,2.09-2.75,3.02-4.32.2-.34.39-.7.58-1.06l1.68,4.77-5.29.61Zm15.71,1.81l-3.56-10.26-8.46,2.91c1.01-1.92,1.83-3.95,2.42-6.13l-9.76-2.11c.79-.37,1.56-.78,2.3-1.25h17.06v16.84Z"/>
  <polygon class="cls-1" points="303.29 516.96 285.64 512.8 282.95 522.4 300.68 526.69 303.29 516.96"/>
  <polygon class="cls-1" points="291.75 527.9 283.36 545.96 295.71 549.52 304.03 531.39 291.75 527.9"/>
  <path class="cls-1" d="m337.29,537.28c3.72-2.82,6.85-5.97,9.37-9.45v-8.32h-41.35l.07,8.86h27.63c-1.94,1.85-4.3,3.53-7.07,5.04-2.92-1.29-5.37-2.7-7.34-4.23l-14.23,1.34c2.87,2.67,6.14,5.11,9.8,7.32-3.19.67-6.97,1.27-11.35,1.81l3.62,9.8c4.43-.85,8.41-1.85,11.95-2.99,2.39-.77,4.75-1.66,7.08-2.65,2.22.95,4.62,1.84,7.25,2.65,4,1.23,8.2,2.23,12.59,2.99l3.02-10.41c-3.22-.31-6.08-.72-8.56-1.21-.83-.16-1.66-.35-2.49-.55Z"/>
  <path class="cls-1" d="m331.76,516.46c1.66,1.32,4,1.98,7.05,1.98,2.73,0,5.41-.25,8.06-.74l.47-9.47c-1.34.31-2.53.47-3.56.47-1.12,0-1.92-.19-2.42-.57-.49-.38-.74-1.04-.74-1.98v-6.78h-32.63v4.36c0,4.48-1.72,8.44-5.17,11.88l12.08,2.95c2.82-2.55,4.41-5.57,4.77-9.06l.07-.67h9.53v1.54c0,2.73.83,4.76,2.48,6.08Z"/>
  <polygon class="cls-1" points="305.44 503 288.79 498.9 286.18 508.3 302.82 512.53 305.44 503"/>
  <path class="cls-1" d="m379.69,497.96l-13.56-.67-.58,4.16h-13.58v9.13h10.6c-.75,1.17-1.65,2.31-2.71,3.42-2.57,2.69-5.7,4.81-9.37,6.38l2.89,11.82c2.45-1.29,4.75-2.7,6.92-4.24v21.22h12.08v-10.67h27.19c0,.72-.27,1.24-.81,1.58-.54.34-1.39.5-2.55.5-2.46,0-5.64-.22-9.53-.67l1.14,8.53c3.36.54,7.36.81,12.02.81,4.03,0,6.97-.8,8.83-2.38,1.86-1.59,2.79-4.06,2.79-7.42v-26.05h-37.11c.58-.94,1.1-1.88,1.58-2.82h39.03v-9.13h-35.75l.5-3.49Zm-7.32,33.97v-2.15h27.19v2.15h-27.19Zm27.19-8.73h-27.19v-2.22h27.19v2.22Z"/>
  <rect class="cls-1" x="463.54" y="510.25" width="15.71" height="5.77"/>
  <path class="cls-1" d="m456.13,516l.45-.47c2.22-1.27,4.12-2.97,5.68-5.11.37-.5.7-1.04,1.03-1.58h17.57v-8.32h-14.59c.11-.64.21-1.28.29-1.95l-11.48-.6c-.45,2.01-1.24,3.82-2.38,5.4-.91,1.27-2.02,2.34-3.32,3.22v-6.07h-13.65c.11-.66.22-1.33.29-2.01l-11.48-.47c-.36,2.1-1.11,3.96-2.25,5.57-1.14,1.61-2.61,2.93-4.4,3.96l3.63,10.34c4.12-1.34,7.43-3.69,9.93-7.05.48-.64.91-1.32,1.32-2.01h16.37l2.67,5.6-3.77-.82v-3.38h-15.31v5.77h7.46c-6.14,2.49-13.54,4.31-22.23,5.44l1.75,10.2c4.67-.8,8.87-1.73,12.62-2.77v2.43h35.51v-2.42c4.26,1.03,8.64,1.8,13.16,2.29l1.88-10.41c-4.88-.27-9.75-.85-14.6-1.75-4.33-.8-8.36-1.82-12.13-3.04Zm-14.2,9.55c2.39-1.02,4.74-2.16,7.05-3.44,2.61,1.27,5.27,2.42,8,3.44h-15.05Z"/>
  <path class="cls-1" d="m425.54,548.31h50.01v-15.51h-50.01v15.51Zm11.28-9.26h27.46v2.01h-27.46v-2.01Z"/>
  <path class="cls-1" d="m548.86,536.83v-6.98h-25.78v-2.21h-11.28v2.21h-25.64v6.98h20.98c-6.56,1.68-13.62,2.87-21.18,3.56l2.95,8.46c8.07-.96,15.7-3.26,22.89-6.9v6.5h11.28v-6.66c7.21,3.73,14.93,6.1,23.16,7.07l2.95-8.46c-7.81-.75-14.8-1.94-20.98-3.56h20.65Z"/>
  <path class="cls-1" d="m486.63,517.83h11.18l-2.93,2.42,7.97,1.47c-4.25.28-9.28.5-15.08.68l4.83,7.25c10.61-.9,19.88-2.3,27.81-4.19l22.47,4.12,4.5-7.79-13.13-1.05c1.92-.87,3.82-1.85,5.71-2.91h8.42v-6.58h-30.89l1.89-1.61-11.95-.47-2.2,2.08h-18.61v6.58Zm39.05-.27c-2.04.67-4.33,1.27-6.89,1.82l-9.67-.68,1.48-1.14h15.08Z"/>
  <polygon class="cls-1" points="487.5 510.31 499.45 510.31 499.45 508.57 535.57 508.57 535.57 510.31 547.52 510.31 547.52 500.78 525.89 500.78 525.5 498.36 507.71 498.36 508.1 500.78 487.5 500.78 487.5 510.31"/>
  <path class="cls-1" d="m297.76,318.18l.03-.29h4.13v.67c0,1.18.36,2.06,1.08,2.63.72.57,1.73.86,3.05.86,1.18,0,2.35-.11,3.49-.32l.2-4.1c-.58.14-1.1.2-1.54.2-.48,0-.83-.08-1.05-.25-.21-.16-.32-.45-.32-.86v-2.94h-14.14v1.89c0,1.94-.75,3.66-2.24,5.15l5.24,1.28c1.22-1.11,1.91-2.41,2.06-3.93Z"/>
  <polygon class="cls-1" points="291.59 315.36 284.38 313.59 283.25 317.66 290.46 319.49 291.59 315.36"/>
  <polygon class="cls-1" points="290.98 327.67 285.66 326.15 282.02 333.98 287.38 335.52 290.98 327.67"/>
  <path class="cls-1" d="m292.03,335.49c1.92-.37,3.65-.8,5.18-1.29,1.03-.33,2.05-.73,3.05-1.16.96.42,2.01.8,3.16,1.16,1.73.53,3.55.96,5.45,1.29l1.31-4.51c-1.4-.14-2.63-.31-3.71-.52-.36-.07-.72-.16-1.07-.25,1.61-1.22,2.96-2.58,4.06-4.09v-3.61h-17.92l.03,3.84h11.97c-.84.8-1.87,1.52-3.07,2.18-1.26-.56-2.32-1.17-3.17-1.83l-6.17.58c1.24,1.16,2.66,2.21,4.25,3.17-1.38.29-3.02.55-4.92.78l1.57,4.25Z"/>
  <polygon class="cls-1" points="290.66 321.41 283.01 319.61 281.85 323.77 289.53 325.63 290.66 321.41"/>
  <path class="cls-1" d="m311.11,322.9l1.25,5.12c1.06-.56,2.05-1.19,3-1.86v9.22h5.24v-4.63h11.78c0,.31-.12.54-.35.68-.23.15-.6.22-1.11.22-1.07,0-2.44-.1-4.13-.29l.49,3.69c1.46.23,3.19.35,5.21.35,1.75,0,3.02-.34,3.83-1.03.8-.69,1.21-1.76,1.21-3.21v-11.29h-16.08c.25-.41.48-.81.68-1.22h16.91v-3.96h-15.49l.22-1.51-5.88-.29-.25,1.8h-5.89v3.96h4.58c-.32.51-.7,1-1.16,1.48-1.12,1.16-2.47,2.08-4.06,2.76Zm9.48,5v-.93h11.78v.93h-11.78Zm11.78-3.78h-11.78v-.96h11.78v.96Z"/>
  <rect class="cls-1" x="360.1" y="318.5" width="6.81" height="2.5"/>
  <path class="cls-1" d="m365.31,328.28h-21.67v6.72h21.67v-6.72Zm-4.89,3.58h-11.9v-.87h11.9v.87Z"/>
  <path class="cls-1" d="m368.48,323.07c-2.11-.12-4.22-.37-6.33-.76-1.88-.35-3.62-.79-5.26-1.32l.21-.22h-.01c.96-.55,1.78-1.27,2.46-2.2.16-.22.29-.45.43-.68h7.63v-3.61h-6.34c.05-.28.11-.55.14-.84l-4.97-.26c-.19.87-.54,1.65-1.03,2.34-.39.54-.89.98-1.44,1.36v-2.6h-5.93c.05-.29.11-.57.15-.87l-4.98-.2c-.16.91-.48,1.72-.97,2.41-.49.7-1.13,1.27-1.91,1.72l1.57,4.48c1.78-.58,3.22-1.6,4.31-3.05.21-.28.38-.57.56-.87h7.11l1.16,2.43-1.63-.35v-1.46h-6.63v2.5h3.23c-2.66,1.08-5.87,1.87-9.63,2.36l.76,4.42c2.03-.35,3.84-.75,5.47-1.21v1.06h15.39v-1.05c1.84.45,3.74.78,5.7.99l.81-4.51Zm-17.74,2.07c1.04-.44,2.06-.94,3.06-1.49,1.13.55,2.29,1.05,3.47,1.49h-6.53Z"/>
  <path class="cls-1" d="m397.22,331.56c-3.37-.32-6.37-.84-9.04-1.54h8.9v-3.03h-11.17v-.96h-4.89v.96h-11.11v3.03h9.04c-2.83.72-5.86,1.25-9.12,1.54l1.28,3.67c3.5-.41,6.8-1.41,9.92-2.99v2.82h4.89v-2.89c3.12,1.62,6.47,2.64,10.04,3.06l1.28-3.67Z"/>
  <polygon class="cls-1" points="370.49 318.53 375.67 318.53 375.67 317.78 391.32 317.78 391.32 318.53 396.49 318.53 396.49 314.4 387.12 314.4 386.95 313.35 379.24 313.35 379.41 314.4 370.49 314.4 370.49 318.53"/>
  <path class="cls-1" d="m396.87,321.79v-2.85h-13.39l.82-.7-5.18-.2-.95.9h-8.07v2.85h4.85l-1.27,1.05,3.45.64c-1.84.12-4.01.22-6.53.3l2.1,3.14c4.6-.39,8.61-1,12.05-1.82l9.74,1.79,1.95-3.38-5.74-.46c.83-.38,1.66-.8,2.49-1.26h3.69Zm-12.85.67l-4.17-.29.64-.49h6.53c-.88.29-1.9.55-3.01.79Z"/>
  <path class="cls-1" d="m403.11,333.89c-.65.48-1.41.9-2.28,1.25l1.57,2.12c1.92-.76,3.46-1.75,4.62-2.98,1.16-1.23,1.75-2.54,1.75-3.94,0-1.07-.38-1.96-1.13-2.69-.76-.73-1.69-1.09-2.79-1.09s-2.01.33-2.76,1c-.76.67-1.13,1.49-1.13,2.46,0,.81.32,1.5.96,2.06.62.55,1.38.82,2.26.84-.3.33-.64.66-1.05.97Z"/>
  <polygon class="cls-1" points="446.24 326.44 439.69 325.66 439.17 329.15 445.68 330.08 446.24 326.44"/>
  <path class="cls-1" d="m444.99,313.24l-.9,2.01h-5.04l-.9-2.01-5.76.26.76,1.75h-3.82v9.95h24.52v-9.95h-3.88l.76-1.75-5.76-.26Zm3.64,7.91h-14.05v-2.12h14.05v2.12Z"/>
  <path class="cls-1" d="m448.88,327.14l.66,1.59-2.95-.29-.15.81c-.12.62-.32,1.07-.6,1.35-.28.28-.81.47-1.59.57-.6.06-1.2.09-1.8.09s-1.19-.03-1.83-.09c-.76-.08-1.29-.26-1.61-.54-.32-.28-.48-.72-.48-1.32l-.03-3.26h-4.92v1.26s-4.48-.91-4.48-.91l-1.75,6.66,4.63,1.02,1.62-5.93v1.54c.03,1.86.47,3.23,1.32,4.12.85.88,2.29,1.42,4.31,1.61.91.08,1.91.12,3,.12,1.24,0,2.27-.05,3.08-.15,1.84-.17,3.19-.65,4.03-1.44.62-.58,1.07-1.4,1.35-2.45l1.11,2.69,4.33-1.51-2.82-6.92-4.42,1.37Z"/>
  <polygon class="cls-1" points="484.64 330.23 477.86 330.23 477.86 327.17 483.65 327.17 483.65 322.98 477.86 322.98 477.86 320.25 472.27 320.25 472.27 322.98 466.57 322.98 466.57 327.17 472.27 327.17 472.27 330.23 465.76 330.23 465.76 334.47 484.64 334.47 484.64 330.23"/>
  <path class="cls-1" d="m456.16,324.29l.99,5.24c.85-.25,1.69-.6,2.5-1.02v6.87h5.24v-10.99c.6-.68,1.16-1.39,1.66-2.16.65-.99,1.14-1.99,1.52-3h16.28v-4.25h-15.24l.26-1.86-5.85-.29-.3,2.15h-5.87v4.25h4.68c-.33.65-.75,1.28-1.27,1.88-1.13,1.29-2.66,2.35-4.6,3.18Z"/>
  <path class="cls-1" d="m498.13,313.27v2.62h-3.92c.13-.64.23-1.31.29-2.01l-5.18-.52c-.14,1.53-.52,2.81-1.16,3.83-.64,1.02-1.58,1.92-2.82,2.69l2.76,4.83c.55-.32,1.06-.68,1.54-1.06v3.83h8.5v3.06h-11.08v4.45h26.85v-4.45h-10.21v-3.06h8.61v-4.3h-8.61v-3.05h9.25v-4.22h-9.25v-2.62h-5.56Zm0,9.89h-7.94c1-.89,1.84-1.9,2.5-3.05h5.45v3.05Z"/>
  <path class="cls-1" d="m524.52,313.53h-5.73v7.83h-3.58v4.42h3.58v3.64c0,.45-.12.78-.35,1-.23.22-.65.38-1.25.48l.67,4.39,11.23-1.63-.61-4.25-3.96.52v-4.16h3.53c1.05,2.4,2.44,4.33,4.17,5.77,2.14,1.79,5.02,3.02,8.62,3.68l1.54-4.83c-4.1-.75-6.86-2.3-8.32-4.63h8.32v-4.42h-17.86v-7.83Z"/>
  <path class="cls-1" d="m541.1,317.63l-1.05-4.16c-2.44.68-4.81,1.23-7.1,1.64-2.29.42-4.68.75-7.19,1l.99,4.19c2.62-.25,5.07-.59,7.34-1.02,2.28-.43,4.61-.98,7-1.66Z"/>
  <path class="cls-1" d="m555.63,327.93c-.48-.81-1.12-1.46-1.94-1.93-.81-.47-1.71-.71-2.68-.71s-1.87.24-2.69.71c-.82.48-1.47,1.12-1.95,1.93-.48.82-.71,1.71-.71,2.68s.24,1.87.71,2.69c.48.82,1.12,1.47,1.95,1.95.82.48,1.72.71,2.69.71s1.86-.24,2.68-.71c.82-.48,1.46-1.12,1.94-1.95.48-.82.71-1.72.71-2.69s-.24-1.86-.71-2.68Zm-3.11,4.2c-.42.42-.92.63-1.5.63s-1.11-.21-1.53-.63c-.42-.42-.63-.93-.63-1.53s.21-1.08.63-1.5c.42-.42.93-.63,1.53-.63s1.08.21,1.5.63c.42.42.63.92.63,1.5s-.21,1.11-.63,1.53Z"/>
  <path class="cls-1" d="m302.12,351.59c-.76,2.56-1.14,5.18-1.14,7.87s.38,5.31,1.14,7.87c.76,2.56,1.88,4.92,3.37,7.09h7.39c-1.32-2.26-2.31-4.67-2.96-7.22-.66-2.55-.99-5.13-.99-7.74s.33-5.18.99-7.72c.66-2.54,1.65-4.93,2.96-7.2h-7.39c-1.49,2.14-2.62,4.49-3.37,7.05Z"/>
  <path class="cls-1" d="m358.08,363.23v-4.1h-10.2l-.2-1.19h-8.76l.22,1.19h-7.94v4.1h2.79c-.47,2.99-1.24,6.01-2.38,9.06l6.53.6c.57-1.77,1.04-3.55,1.43-5.33h11.11v.19c0,.35-.14.59-.41.73-.27.14-.8.21-1.57.21-1.37,0-3.44-.12-6.23-.37l.48,4.06c2.24.3,4.54.45,6.9.45s4.05-.38,5.05-1.14c1.01-.76,1.51-2.01,1.51-3.75v-3.69h-16.26c.05-.34.09-.67.13-1.01h17.8Z"/>
  <rect class="cls-1" x="334.03" y="344.1" width="12.53" height="2.05"/>
  <path class="cls-1" d="m356.92,357.26v-10.41h-32.89v1.83c0,5.07-.16,9.42-.48,13.04-.32,3.62-.85,7.13-1.57,10.54l6.75.56c.77-3.68,1.32-7.27,1.66-10.76.14-1.5.25-3.11.33-4.79h26.2Zm-7.01-4.33h-19.05c0-.47.01-.97.01-1.46h19.03v1.46Z"/>
  <path class="cls-1" d="m370.69,351.81h0s-1.79,0-1.79,0v15.48h16.75v-15.48h-1.6s-13.35,0-13.35,0Zm9.21,4.14v1.83h-5.3v-1.83h5.3Zm-5.3,6.97v-1.9h5.3v1.9h-5.3Z"/>
  <rect class="cls-1" x="360.24" y="349.24" width="7.12" height="23.68"/>
  <rect class="cls-1" x="360.24" y="345.48" width="7.12" height="2.72"/>
  <path class="cls-1" d="m394.29,365.61v-20.14h-25.77v5.07h18.65v15.4c0,.92-.22,1.56-.67,1.92-.45.36-1.18.54-2.2.54-1.14,0-2.76-.12-4.85-.37l.56,5c1.79.27,3.78.41,5.97.41,2.91,0,5.02-.59,6.34-1.77,1.32-1.18,1.98-3.2,1.98-6.06Z"/>
  <path class="cls-1" d="m432.15,367.7h-14.25v-1.57h11.71v-4.07h-11.71v-1.53h12.72v-15.22h-3.65s-9.06,0-9.06,0h-15.7s-3.73,0-3.73,0v15.22h12.68v1.53h-11.56v4.07h11.56v1.57h-14.1v5.07h35.1v-5.07Zm-14.25-11.41v-1.64h6.23v1.64h-6.23Zm6.23-6.6v1.6h-6.23v-1.6h6.23Zm-12.98,1.6h-6.15v-1.6h6.15v1.6Zm-6.15,5v-1.64h6.15v1.64h-6.15Z"/>
  <rect class="cls-1" x="437.89" y="344.73" width="9.36" height="3.06"/>
  <path class="cls-1" d="m452.29,347.69c-.56.8-1.27,1.52-2.13,2.17v-1.14h-16v5.11h3.04c-.54,6.36-1.65,12.62-3.33,18.8l6.49.52c.93-3.84,1.62-7.8,2.13-11.86h2.31v5.56c0,.55-.32.82-.97.82-.2,0-.72-.05-1.57-.15l.26,5.3c.94.12,1.96.19,3.06.19,1.59,0,2.75-.34,3.47-1.03.72-.68,1.08-1.83,1.08-3.45v-12.34h-7.13c.06-.78.13-1.56.18-2.35h6.99v-2.91l2.71,3.47-1.33.22.07,14.14c0,1.64.33,2.8.99,3.47.66.67,1.73,1.01,3.23,1.01,1.19,0,2.56-.12,4.1-.37l.41-5.67c-.8.12-1.47.19-2.01.19-.37,0-.64-.09-.8-.26-.16-.17-.24-.48-.24-.93v-7.2l1.69-.37c.32,4.19,1.22,7.53,2.73,10.01,1.58,2.6,3.9,4.34,6.96,5.24l1.38-6c-1.65-.77-2.91-1.81-3.83-3.1l3.53-2.04-1.01-4.92-4.3,2.44c-.16-.85-.26-1.77-.31-2.75l4.35-.96-.41-4.62h1.42v-5.22h-10.01c.14-.57.26-1.17.35-1.79l-6.08-.6c-.3,1.32-.78,2.46-1.45,3.41Zm2.05,6.45c.96-.53,1.82-1.3,2.59-2.25h10.9l-13.5,2.25Z"/>
  <rect class="cls-1" x="487.46" y="345.44" width="18.27" height="5.56"/>
  <path class="cls-1" d="m507.3,354.46h-21.24c.25-.78.47-1.57.62-2.42l-5.45-.72c.43-.42.84-.86,1.22-1.34,1.13-1.45,1.85-3.05,2.14-4.79l-6.23-.56c-.45,1.17-1.21,2.16-2.29,2.98-1.08.82-2.39,1.39-3.93,1.72l1.01,5.74c1.79-.12,3.51-.64,5.15-1.55.54-.3,1.03-.63,1.52-.99-.53,1.36-1.33,2.5-2.41,3.43-1.42,1.22-3.23,2.05-5.45,2.5l.78,6.34c1.17-.11,2.29-.33,3.36-.64v9.04h6.38v-12.8c.58-.58,1.13-1.2,1.62-1.89.67-.95,1.22-1.98,1.66-3.09v4.96h11v4.4c0,.92-.2,1.55-.6,1.9-.4.35-1.11.52-2.13.52-1.22,0-2.8-.15-4.74-.45l.45,5.86c2.09.35,4.24.52,6.45.52,2.49,0,4.31-.55,5.48-1.66,1.17-1.11,1.75-2.87,1.75-5.28v-5.82h3.88v-5.89Z"/>
  <path class="cls-1" d="m515.32,374.42h7.38c1.49-2.19,2.62-4.56,3.39-7.1s1.16-5.16,1.16-7.85-.39-5.27-1.16-7.83c-.77-2.56-1.9-4.92-3.39-7.09h-7.38c1.32,2.29,2.31,4.7,2.98,7.24.67,2.54,1.01,5.1,1.01,7.68s-.34,5.18-1.01,7.72c-.67,2.54-1.67,4.95-2.98,7.23Z"/>
  <path class="cls-1" d="m288.14,386.17c-1.01,1.23-1.51,2.56-1.51,3.99,0,1.01.34,1.85,1.02,2.53.68.68,1.53,1.02,2.53,1.02s1.77-.29,2.42-.86c.65-.57.97-1.29.97-2.16,0-.76-.3-1.4-.91-1.93-.55-.48-1.21-.72-1.98-.77.8-1.06,1.88-1.93,3.25-2.6l-1.78-2.25c-1.68.78-3.02,1.79-4.03,3.02Z"/>
  <path class="cls-1" d="m296.09,386.17c-1.01,1.23-1.51,2.56-1.51,3.99,0,1.01.34,1.85,1.02,2.53.68.68,1.53,1.02,2.53,1.02s1.77-.29,2.42-.86c.65-.57.97-1.29.97-2.16,0-.76-.3-1.4-.91-1.93-.54-.47-1.21-.72-1.99-.77.3-.4.64-.8,1.07-1.18.62-.55,1.35-1.02,2.2-1.43l-1.78-2.25c-1.68.78-3.02,1.79-4.03,3.02Z"/>
  <polygon class="cls-1" points="305.73 404.16 306.2 408.89 318.05 407.92 317.64 403.15 305.73 404.16"/>
  <path class="cls-1" d="m337.11,390.26v-4.73h-6.98v-1.91h-5.87v1.91h-6.95v4.28l-3.36-.96c-.3.74-.68,1.48-1.14,2.22l-1.71.07c1.79-1.85,3.16-4.06,4.06-6.68l-5.57-.74c-.45,1.48-1.04,2.78-1.76,3.91-.73,1.13-1.66,2.15-2.8,3.07l.84,4.3,3.9-.21c-1.2,1.16-2.57,2.24-4.1,3.23l.84,4.56,10.47-.64-.17-4.53-3.65.24c2.14-1.7,3.84-4.15,5.09-7.39h6.14v7.32h-1.64v-5.97h-4.77v10.64h6.24v1.34c0,1.95.54,3.38,1.61,4.31,1.07.93,2.76,1.39,5.07,1.39,1.77,0,3.84-.15,6.21-.44l-.34-4.97c-2.1.27-3.69.4-4.77.4-.69,0-1.19-.08-1.49-.25-.3-.17-.45-.46-.45-.89v-.91h6.51v-10.67h-4.83v6.01h-1.71v-7.32h7.08Z"/>
  <path class="cls-1" d="m352.01,406.64c.58.94,1.51,1.63,2.79,2.06s2.99.65,5.14.65c3.31,0,6.78-.37,10.41-1.11l-.47-5.47c-3.85.78-7.02,1.17-9.5,1.17-1.1,0-1.86-.12-2.28-.35-.43-.23-.64-.64-.64-1.22v-.19l13.33-.52-.2-4.97-13.12.51v-1.48l11.28-.4-.24-4.46-11.04.4v-1.59c3.91-.24,7.82-.53,11.75-.92l-.81-4.77c-5.12.52-9.91.9-14.35,1.14-4.44.25-9.06.37-13.85.37l.67,4.77c3.42-.02,6.86-.13,10.3-.27v1.49s-9.9.35-9.9.35l.23,4.46,9.65-.34v1.5s-11.73.45-11.73.45l.2,5.1,11.51-.43v.26c0,1.59.29,2.85.87,3.79Z"/>
  <path class="cls-1" d="m374.17,391.81l1.78,2.25c1.68-.78,3.02-1.79,4.03-3.02,1.01-1.23,1.51-2.56,1.51-4,0-1.01-.34-1.85-1.02-2.53-.68-.68-1.53-1.02-2.53-1.02s-1.77.28-2.42.86c-.65.57-.97,1.29-.97,2.16,0,.76.3,1.4.91,1.93.54.47,1.21.72,1.99.77-.3.4-.64.8-1.07,1.18-.62.55-1.35,1.02-2.2,1.43Z"/>
  <path class="cls-1" d="m382.12,391.81l1.78,2.25c1.68-.78,3.02-1.79,4.03-3.02,1.01-1.23,1.51-2.56,1.51-4,0-1.01-.34-1.85-1.02-2.53-.68-.68-1.53-1.02-2.53-1.02s-1.77.28-2.42.86c-.65.57-.97,1.29-.97,2.16,0,.76.3,1.4.91,1.93.55.48,1.21.73,1.98.77-.8,1.06-1.88,1.94-3.25,2.6Z"/>
  <path class="cls-1" d="m419.15,406.64c.58.94,1.51,1.63,2.79,2.06,1.28.44,2.99.65,5.14.65,3.31,0,6.78-.37,10.41-1.11l-.47-5.47c-3.85.78-7.02,1.17-9.5,1.17-1.1,0-1.86-.12-2.28-.35-.42-.23-.64-.64-.64-1.22v-.19l13.33-.52-.2-4.97-13.12.51v-1.48l11.28-.4-.24-4.46-11.04.4v-1.59c3.91-.24,7.82-.53,11.75-.92l-.81-4.77c-5.12.52-9.91.9-14.35,1.14-4.44.25-9.06.37-13.85.37l.67,4.77c3.42-.02,6.86-.13,10.3-.27v1.49s-9.89.35-9.89.35l.23,4.46,9.65-.34v1.5s-11.73.45-11.73.45l.2,5.1,11.51-.43v.26c0,1.59.29,2.85.87,3.79Z"/>
  <path class="cls-1" d="m454.83,395.34c1.1,3.16,2.74,5.88,4.93,8.17,2.64,2.74,5.87,4.66,9.7,5.76l2.38-5.34c-2.38-.74-4.45-1.82-6.24-3.22,1.82-1.11,3.67-2.57,5.53-4.4l-4.1-3.76c-1.58,1.75-3.28,3.14-5.1,4.23-1.03-1.52-1.84-3.22-2.43-5.1h11.52v-5.07h-30.75v5.07h10.18c-.83.72-1.76,1.36-2.79,1.91-2.06,1.1-4.7,1.94-7.92,2.52l1.24,5.67c1.62-.28,3.16-.65,4.6-1.12v1.99c0,.54-.15.93-.44,1.19-.29.26-.81.44-1.54.55l.87,5.03,12.92-1.91-.74-5.14-4.87.7v-5.35c1.09-.71,2.09-1.51,3.02-2.39Z"/>
  <rect class="cls-1" x="449.86" y="383.25" width="11.18" height="2.48"/>
  <path class="cls-1" d="m490.68,402.58c.89,2.06,2.29,3.65,4.19,4.78,2.17,1.29,5.14,2.05,8.9,2.3l1.28-4.23c-1.12-.06-2.1-.15-2.99-.26l1.91-1.62-2.97-.97h3.57v-3.73h-4.06v-1.28h3.62v-3.19h-3.62v-1.11h-5.44v1.11h-4.16v-1.11h-5.44v1.11h-3.83v3.19h3.83v1.28h-4.33v3.73h1.85v1.81c0,.36-.12.62-.37.79-.25.17-.67.29-1.27.35l.54,3.73,9.7-1.07-.47-3.79-2.65.23.02-2.05h2.2Zm7.15,1.52c-.24-.12-.47-.25-.67-.4-.44-.31-.8-.69-1.1-1.12h3.53l-1.76,1.52Zm-6.92-6.52h4.16v1.28h-4.16v-1.28Z"/>
  <path class="cls-1" d="m504.47,392.78v-8.36h-29.57v1.75c0,4.83-.15,8.97-.44,12.42-.29,3.45-.76,6.78-1.41,10l6.24.5c.69-3.49,1.19-6.9,1.49-10.22.17-1.87.29-3.92.36-6.09h23.32Zm-6.11-3.56h-17.13c0-.36,0-.71,0-1.07h17.12v1.07Z"/>
  <polygon class="cls-1" points="506.75 403.19 507.56 408.59 518.43 406.41 517.63 401.1 515.78 401.46 515.78 394.83 518.47 394.83 518.47 389.86 515.78 389.86 515.78 383.95 510.11 383.95 510.11 389.86 506.99 389.86 506.99 394.83 510.11 394.83 510.11 402.54 506.75 403.19"/>
  <path class="cls-1" d="m536.66,384.32h-17.69v4.43l9.47-.03-9.54,4.22v3.69h2.22c-.74,1.33-2,2.43-3.8,3.29l2.55,3.99c1.79-1.05,3.21-2.27,4.25-3.66.78-1.04,1.39-2.25,1.84-3.63h1.16c-.42,1.65-1.14,3.15-2.17,4.5-1.36,1.79-3.17,3.19-5.4,4.2l3.15,4.53c2.21-1.44,4-2.97,5.35-4.59l.45,3.95c1.25.16,2.44.24,3.56.24,2.04,0,3.56-.46,4.58-1.38,1.02-.92,1.53-2.38,1.53-4.4v-11.21l-8.94.06,7.43-3.61v-4.6Zm-4.13,18.53c0,.56-.13.97-.4,1.22-.27.26-.73.39-1.38.39-.58,0-1.26-.05-1.98-.12.14-.19.28-.38.4-.57,1.26-1.92,2.13-4.31,2.66-7.13h.69v6.21Z"/>
</svg>