<?xml version="1.0" encoding="UTF-8"?>
<svg id="Layer_1" data-name="Layer 1" xmlns="http://www.w3.org/2000/svg" viewBox="0 0 566.93 566.93">
  <defs>
    <style>
      .cls-1 {
        fill: #010101;
      }
    </style>
  </defs>
  <g>
    <path class="cls-1" d="m33.95,91.33v-8.57c-7.02,2.34-14.03,4.05-21.04,5.14l-.78-1.56c14.96-11.69,27.59-25.25,32.89-34.45l.31-2.03c-8.89,4.21-18.55,7.17-28.68,9.04l-.94-1.71c12.94-10.91,23.54-24.01,28.06-32.42l.94-5.92,30.08,8.57.16,1.25c-7.33,7.79-15.59,13.87-24.63,18.71l25.1,7.79.16,1.25c-7.64,8.42-16.68,14.96-26.5,19.95l10.29,3.27-2.65,6.7v19.02c14.03-9.51,24.01-18.39,29.77-25.88v-.94l-13.41,2.96-2.81-9.04-3.74-4.83,44.27-34.76,1.25-4.36-32.89,25.56-5.61-9.82-5.3-5.3,24.63-19.33,2.49-5.46,22.6,8.57v1.09l-4.68,3.59,22.14,8.89v1.25l-15.59,10.91,23.07,9.98-11.07,21.67c-3.27-2.34-6.39-5.61-8.89-9.51l-29.46,6.55,9.2,3.12,19.33-3.43,1.87,5.3,9.98,7.17c-4.68,6.24-8.73,11.69-12.47,16.21,10.91,4.21,23.23,7.79,37.57,10.91v1.56l-38.5,14.96c-3.9-4.05-8.26-8.11-13.09-12.31-13.25,11.38-24.16,10.76-47.7,5.46v-1.4c12.63-4.83,23.23-10.6,31.8-16.68-1.56-1.25-3.27-2.34-4.83-3.43-8.26,7.01-15.59,7.17-29.93,4.99v22.29l-.93.62-25.1-10.44c2.49-8.89,3.27-15.74,3.27-30.71Zm69.52,6.55c2.18-2.34,4.05-4.52,5.46-6.7l-.31-.47-11.22,2.34-.93,1.25,7.01,3.58Zm13.09-40.06c-.62-1.87-1.25-3.9-1.71-5.77l-13.72,9.66,15.43-3.9Z"/>
    <path class="cls-1" d="m12.6,201.08l30.24-3.43v-.47c0-12-.62-17.15-2.65-24.63l.62-.94,29.31,7.17-3.74,8.26v7.79l8.42-.94v-8.42c0-10.6-.62-14.96-2.34-21.36l.62-.78,25.88,6.39-3.43,7.79v13.87l6.86-.78v-12.47c0-11.22-.62-16.37-2.49-23.54l.78-1.09,27.28,6.86-3.59,8.42v19.33l26.97-3.12.47,7.64,4.68,13.09-32.11,3.59v8.26l4.37-.47,3.27,16.21-36.48,3.59v3.74l-.78.78-21.98-8.57c1.56-4.52,2.03-7.79,2.03-13.72v-4.36l-8.42.93v28.53l69.21-4.83,4.36,20.11-73.58,4.83v7.79l-.78.93-24.94-9.35c1.56-5.3,2.18-9.51,2.18-18.24v-27.12l-22.45,2.49-7.79-19.8Zm89.79,19.17v-8.42l-6.86.62v8.57l6.86-.78Z"/>
    <path class="cls-1" d="m44.55,375.98v-.93c-9.82,8.73-19.02,8.26-33.36,5.14v-.62c15.74-13.87,30.09-29.15,35.85-38.04l-.47-.47-20.89,6.39-6.55-17.15,30.87-7.79c-5.92-6.86-10.6-15.43-13.25-24.16l.31-.31,35.23,10.29-7.17,12.78,1.25,3.27,7.64,4.21,11.69-9.2.93.16.93,6.24,9.2-1.4v-9.82c0-12.63,0-16.21-2.96-21.2l.62-.78,27.44,6.7-3.27,9.35v12l19.17-3.12,2.65,6.86,17.3,11.69-22.91,43.49-1.09.16-7.95-6.7-7.17.62v41.46l-.93.31-23.85-9.66c1.87-7.95,2.96-14.81,2.96-29.31v-.78l-7.95.78-3.27,4.21h-.93l-6.55-11.69-4.52,8.73-.78.16c-3.59-2.34-6.55-4.99-9.04-7.95v39.75l-.62.47-21.51-8.57c2.03-6.86,2.96-13.41,2.96-25.56Zm26.19-19.8l-5.46-9.67-3.9,6.7,9.35,2.96Zm19.64-12l6.39-.93v-5.14l-7.17,1.09.78,4.99Zm2.81,17.93l3.58-.47v-7.48l-4.83.62,1.25,7.33Zm33.05-22.76l.94-5.3-.62-.62-7.95,1.25v5.77l7.64-1.09Zm-3.58,19.8l1.56-8.26-5.61.78v7.79l4.05-.31Z"/>
    <path class="cls-1" d="m85.08,527.19l.16-24.47c0-7.17,0-11.54-.62-14.81l-66.56,8.57-5.46-14.81,26.66-3.43-1.87-1.87v-.62l7.48-4.21-10.29,1.56-5.3-14.5,25.41-3.58c-4.21-5.61-7.79-12.32-9.98-18.86l.31-.47,31.96,8.11-5.14,8.73,13.09-1.87,3.74,14.5-9.2,1.4,2.81,1.09.16.62-7.01,5.3,11.22-1.4,2.96,12,3.9,1.09,22.6-2.81.78-2.49-.31-.31-24.63,3.27-3.27-12.63,3.12-.47v-16.06c0-10.44-.31-14.19-2.18-18.39l.47-.78,22.91,5.61-2.81,8.11v1.4l30.24-4.37.31,5.14,3.27,9.66-33.83,4.83v2.49l19.49-2.65,1.25,3.74,10.44,6.55-8.89,12.31,1.25,5.46-28.99,3.27v2.03l26.34-2.65,2.34,9.35-28.68,2.65v1.87l26.03-2.18,2.34,9.2-28.53,2.34v2.03l26.34-1.87,1.72,6.7c0-.31.16-.62.16-.94,1.25-6.39,2.03-14.5,2.18-22.76l1.4-.31,21.2,43.02c-10.29,3.9-28.06,6.24-47.39,5.46-15.28-.62-25.25-4.21-25.1-22.91Zm-49.26-13.09v-11.54l-2.18-5.61,41.46-5.14,1.09,3.43,8.26,6.55-3.12,7.48v42.87l-.47.62c-9.51-.93-20.58-6.86-27.9-14.5v13.72l-.62.47-20.26-8.26c2.34-7.01,3.74-13.25,3.74-30.08Zm28.06-5.77v-2.03l-.47-.47-10.44,1.25v2.34l10.91-1.09Zm0,12.31v-2.49l-10.91,1.09v2.34l10.91-.93Zm0,9.98v-.16l-10.91.94v3.43c9.2,0,10.91-.31,10.91-4.21Zm-2.03-55.34l1.09-6.39-4.36.62c-.16,2.18-.78,4.37-1.4,6.39l4.68-.62Zm48.95,56.9c13.09,0,18.39-.47,20.58-3.74l-26.34,1.71c.62,1.56,2.18,2.03,5.77,2.03Z"/>
  </g>
  <g>
    <path class="cls-1" d="m272.3,53.19v-.32c-3.37,3-6.53,2.84-11.45,1.77v-.21c5.4-4.76,10.33-10.01,12.31-13.06l-.16-.16-7.17,2.19-2.25-5.89,10.59-2.68c-2.03-2.35-3.64-5.3-4.55-8.29l.11-.11,12.09,3.53-2.46,4.39.43,1.12,2.62,1.44,4.01-3.16.32.05.32,2.14,3.16-.48v-3.37c0-4.33,0-5.57-1.02-7.28l.21-.27,9.42,2.3-1.12,3.21v4.12l6.58-1.07.91,2.35,5.94,4.01-7.87,14.93-.37.05-2.73-2.3-2.46.21v14.23l-.32.11-8.19-3.32c.64-2.73,1.02-5.08,1.02-10.06v-.27l-2.73.27-1.12,1.44h-.32l-2.25-4.01-1.55,3-.27.05c-1.23-.8-2.25-1.71-3.1-2.73v13.64l-.21.16-7.38-2.94c.7-2.35,1.02-4.6,1.02-8.78Zm8.99-6.8l-1.87-3.32-1.34,2.3,3.21,1.02Zm6.74-4.12l2.19-.32v-1.77l-2.46.37.27,1.71Zm.96,6.15l1.23-.16v-2.57l-1.66.21.43,2.51Zm11.34-7.81l.32-1.82-.21-.21-2.73.43v1.98l2.62-.37Zm-1.23,6.8l.53-2.84-1.93.27v2.68l1.39-.11Z"/>
    <path class="cls-1" d="m263.89,103.17l.11-.21,2.73.43,9.31-1.71v-1.66l-7.33,1.28-1.98-5.99,9.31-1.61v-2.41l-7.7,1.39-.21-.48,9.95-7.6,1.71-2.41,5.94,5.19c-.05-.96-.16-1.98-.21-3.05-.21-3.16-.59-4.55-1.71-6.21l.21-.43,9.95,2.14-.86,2.62v.53l11.29,1.87-1.87,4.92.05,1.12,1.55,4.28-4.76.8,6.21,3.48c-2.46,3-4.6,5.4-6.53,7.33,2.19,2.19,4.28,2.14,8.67-4.01l.48.11c0,6.96-1.5,12.95-4.39,17.28l-.32.11c-4.92-1.87-8.51-4.71-11.13-8.56-2.89,1.28-5.56,1.07-8.72-.21v6.58l-.27.21c-4.23-.43-10.27-3.69-13.81-7.17l-1.93,1.07-3.75-9.04Zm12.15,4.92v-.48l-5.14,2.84c3.85,0,5.14-.21,5.14-2.35Zm10.17-16.21c-.11-.75-.16-1.61-.27-2.41l-2.3.43v2.46l2.57-.48Zm1.28,7.65l-.32-1.39-3.53.59v1.5l3.85-.7Zm1.71,5.89c-.37-1.07-.75-2.14-1.07-3.32l-4.5,2.57v3.69c1.87-.75,3.75-1.71,5.57-2.94Zm4.28-14.77l3.96-.7c-1.71-1.39-3.16-3-4.28-4.71.05,1.87.16,3.69.32,5.4Zm1.87,9.47c.86-.86,1.66-1.77,2.52-2.78l.32-1.12-3.75.64c.27,1.18.59,2.25.91,3.26Z"/>
    <path class="cls-1" d="m261.49,146.14l16.21-1.98-.54-.43v-.21l2.09-1.28-6.21.8-1.66-4.44,12.36-1.61c-1.34-1.61-2.57-3.42-3.48-5.24l.16-.21,11.34,1.71-1.34,2.89,9.74-1.28,1.02,4.66-5.08.64.64.21.05.21-1.93,1.44,14.66-1.82.05,1.82,1.07,3.53-30.12,3.59.21.75,16.05-1.87.64,1.87,4.28,2.89-5.03,6.15,9.15.11-.91,8.67c-3.58-1.07-7.28-3.59-9.79-6.8l-.8.96h-.32l-1.93-1.55-.43.64,10.38,8.88v.27c-3.05,1.82-7.39,2.78-11.61,2.78-5.57,0-11.08-1.71-13.49-5.3l.16-4.6c-1.5,3.48-3.96,6.1-7.44,7.92l-3.26-9.26.21-.21,2.03.48,8.72-2.09-5.14-5.83,5.78-4.55-14.61,1.71-1.93-5.03Zm16.48,14.34l-.16.54c.91,2.14,2.68,3.42,4.76,4.12l-1.07-5.51h-.11l-1.77,2.41h-.32l-1.34-1.55Zm3.58-7.01l9.15-.91.11-.54-.16-.16-9.2,1.02.11.59Zm.7,2.89l7.97-.8.16-.7-8.29.86.16.64Zm.75,3.91l8.08-.8-.86-.64-8.13.75.91.7Zm5.19-17.44l.32-1.71-2.73.32c-.05.59-.21,1.18-.32,1.77l2.73-.37Zm-.75,23.06c2.14,0,3.69-.43,3.59-1.77-.05-.64-.16-1.28-.32-1.98-1.34,1.44-3.1,2.73-5.03,3.64.59.11,1.18.11,1.77.11Z"/>
    <path class="cls-1" d="m271.92,197.46l-1.77-4.66,14.93-2.03c-1.93-1.66-3.48-3.59-4.5-5.46l.16-.32,12.15.91-.96,3.96,8.99-1.23,1.61,5.89-9.69,1.28,5.51.43-.11,1.07,4.65-.59.11,1.55.96,2.94-6.21.8-.16,1.66,1.34-.16.91,3.64-11.45,1.28v1.02l8.88-.91.59,1.55,3.32,2.73c-1.77,1.77-3.32,3.26-4.76,4.66,4.6,1.39,9.79,2.57,15.46,3.53l.05.75-15.41,5.24c-1.93-1.44-4.07-2.94-6.31-4.44-5.99,4.07-10.43,3.85-19.26,2.19l-.11-.59c5.56-1.77,10.01-3.53,13.48-5.35-2.62-1.61-5.35-3.1-7.92-4.39l-.05-.37,5.4-2.94c.8.53,1.66,1.02,2.57,1.5l-1.12-2.62,3.42-.37-5.14-2.25c.37-1.07.48-1.82.48-3.21v-.16l-3.58.43c-2.73,14.93-5.83,17.07-16.21,20.12l-.27-.48c5.57-8.19,9.2-18.67,10.01-26.59Zm10.06,1.93c-.05-.91-.21-1.5-.48-2.09l-1.98.21c-.11.8-.21,1.5-.37,2.25l2.84-.37Zm6.42-1.93v1.12l3.16-.43c-.05-.96-.16-1.5-.48-2.14l-7.87,1.02,5.19.43Zm1.66,17.77c.8-.64,1.5-1.23,2.09-1.87l-.16-.21-5.35.59c1.07.54,2.25,1.02,3.42,1.5Zm1.5-10.86v-1.61l-3.16.43v1.55l3.16-.37Z"/>
    <path class="cls-1" d="m263.31,269.11l44.52-3.48.11,3,1.71,5.24-43.45,2.89-2.89-7.65Zm9.36-22.21l24.24-3.32,1.82,7.87-23.22,2.78-2.84-7.33Zm1.71,10.49l20.76-2.14,1.77,7.49-19.64,1.87-2.89-7.22Z"/>
    <path class="cls-1" d="m263.31,311.28l18.19-2.03c0-1.71-.11-3.26-.43-4.71-3.32.43-6.58.7-9.42.8l-.16-.53c4.6-2.62,9.69-6.21,13.48-9.58l1.5-2.57,10.7,8.03-.11.53c-2.89.91-6.15,1.71-9.47,2.3l4.07,1.71-1.07,2.51v.43l16.37-1.82.16,2.52,1.66,4.76-18.19,1.93v18.51l-.43.16-10.17-4.17c1.02-3.42,1.5-6.26,1.5-11.34v-2.19l-15.46,1.61-2.73-6.85Z"/>
    <path class="cls-1" d="m270.26,368.22l-4.98.64-2.3-5.83,9.52-1.28c0-1.82-.05-3-.27-4.01-2.41.21-4.82.32-7.22.27l-.11-.64c4.55-2.19,8.72-5.08,10.86-7.28l1.02-1.98,8.45,6.37-.05.48c-2.62.96-5.4,1.71-8.29,2.19l3.69,1.18-.75,1.87v.59l2.35-.32,1.66,6.05-4.01.53v.64l5.62,1.18-2.73-9.52.27-.21,2.57.8,5.46-1.61v-2.73c0-4.76-.11-6.85-.91-8.72l.27-.32,10.27,2.89-1.61,3.53v4.28l11.72.7-1.77,10.54c-1.28-.59-2.62-1.39-3.85-2.35-8.35,20.01-10.01,20.65-24.29,20.65l-.16-.43c6.05-4.71,10.59-9.85,13.75-14.93l-4.44-2.41c.75-2.14,1.02-4.17,1.02-7.38v-.16c-.8,3.21-2.35,6.1-4.55,8.35l-1.71,6.47c-2.14-1.44-3.75-3.26-4.92-5.24v14.07l-.37.21-8.03-3.53c.8-2.19,1.07-3.96,1.07-7.22v-.48c-2.14,4.33-4.71,4.6-11.18,5.03l-.11-.37c3.48-3.21,6.53-6.69,9.04-10.54Zm34.03-2.73c-2.09-1.77-3.96-3.85-5.24-5.99v4.49l5.24,1.5Z"/>
    <path class="cls-1" d="m228.3,49.07l-2.78.27c6.42,3.16,13.97,5.99,20.33,7.71v.7l-13.16,5.94c-2.62-2.73-5.62-5.51-8.94-8.08v11.5l-.32.16-8.72-3.53c.64-2.19,1.02-4.17,1.12-7.44-5.19,6.63-10.11,7.12-20.33,6.1v-.43c5.78-2.57,11.93-6.63,17.28-11.45l-1.6.16-1.28,1.34h-.37l-7.12-9.1,6.85-5.62-3.48.54-1.98-5.19,12.09-1.93v-.37c0-3.05,0-4.39-.86-6.1l.21-.32,9.69,2.35-1.12,3.21,11.02-1.77.11,1.98,1.23,3.64-12.41,1.82v1.12l9.52-1.44.7,2.3,5.46,4.49-8.13,9.63h-.32l-2.68-2.19Zm-17.12-10.92l4.71-.7v-1.12l-4.92.75.21,1.07Zm.75,4.55l3.96-.48v-1.07l-4.12.59.16.96Zm.75,4.07l3.21-.32v-1.18l-3.42.37.21,1.12Zm15.68-6.15l.21-1.02-.21-.16-4.6.64v1.12l4.6-.59Zm-1.07,4.66l.27-1.28-3.8.43v1.23l3.53-.37Z"/>
    <path class="cls-1" d="m223.75,102.26v17.76l-.43.16-9.42-3.8c.86-3.21,1.34-5.99,1.34-10.65v-.96c-4.92,8.4-10.43,9.74-19.8,8.51l-.05-.43c6.31-3.8,12.63-9.47,17.18-16.05l-6.9.91-2.62-6.74,12.2-1.66v-.91c0-5.89,0-8.13-1.12-10.01l.32-.37,11.08,3-1.77,3.69v3.42l11.99-1.66.16,2.41,1.5,4.76-12.47,1.61c6.26,5.3,14.02,10.11,20.76,13.59v.48l-15.04,4.07c-2.03-3.8-4.33-7.54-6.9-11.13Z"/>
    <path class="cls-1" d="m232.48,138.01l-15.79,3.1v1.07l12.95-2.41.91,3.8-13.86,2.3v.91l12.57-1.98.96,3.8-13.54,1.93v.8l24.24-2.78.11,2.25,1.07,3.48-8.67.96,3.53,2.19-.05.32-8.4,2.14c5.62,2.19,11.45,4.07,16.64,5.35v.7l-14.02,5.89c-2.46-2.51-5.24-5.03-8.24-7.38-3.8,3.64-9.15,7.17-15.2,9.69l-.27-.05-1.12-5.67-1.55-2.73,2.78-.53v-6.9l-10.01,1.12-2.14-5.62,13.22-1.5v-11.45c0-3.16,0-4.6-.96-6.31l.27-.32,7.81,1.82,15.41-3.1,1.34,5.14Zm-12.04,24.56c-1.5-1.12-3.05-2.19-4.6-3.21v4.12l4.6-.91Zm4.87-4.01l1.93-2.57-6.15.7c1.39.64,2.78,1.28,4.23,1.87Z"/>
    <path class="cls-1" d="m216.42,208.75l-1.82.48v1.34l7.81.91-2.3,7.17c-1.98-.96-4.01-2.73-5.51-4.92v10.38l-.21.27c-3.1-.53-7.17-2.68-10.33-5.4-1.23,1.02-2.62,1.87-4.12,2.62l-2.14-8.35.21-.21,1.77.75,8.35-2.19v-.7l-4.44,1.12-1.12-3.37-1.44-1.77,12.57-12.04.48-1.66-12.68,12.04-1.98-3.37-1.77-1.5,11.5-11.08.59-1.98,7.01,3.16v.16l-2.3,2.19,6.53,3.16v.27l-6.05,5.35,3.05,1.18c3.53-5.24,5.83-10.43,6.8-14.23l-.43-2.09.11-.16,9.1,1.66c-1.5,3.75-2.78,6.8-3.91,9.2l8.24-1.61.7,2.3,5.08,3.59-1.87,3.26c-.96,8.62-3.05,16.48-6.26,21.35-5.24-1.18-10.65-4.87-13.86-9.26l.16-.37c7.44.59,8.4.37,9.47-1.66,1.18-2.25,2.46-7.92,2.68-11.93l-.32-.32-8.13,1.34c-.27.27-.48.48-.75.7l7.54,2.19-4.07,8.03c-3.21-1.93-5.4-5.35-6.53-8.88-.21.05-.43.05-.64.05l-2.78,4.71c-.7-.53-1.39-1.18-1.98-1.87Zm-8.29,7.38v-1.66c-.7,1.18-1.61,2.25-2.68,3.26,2.03-.05,2.68-.37,2.68-1.61Zm5.73-11.08l-.8-1.77-3.21,2.89,4.01-1.12Z"/>
    <path class="cls-1" d="m202.03,259.64c0-9.85,7.7-17.39,18.14-17.39s18.14,7.54,18.14,17.39-7.33,17.28-18.14,17.28-18.14-7.44-18.14-17.28Zm27.02-.21c0-4.92-3.48-8.83-8.99-8.83s-8.99,3.91-8.99,8.83,3.48,8.99,8.99,8.99,8.99-3.96,8.99-8.99Z"/>
    <path class="cls-1" d="m201.92,312.99l1.87-.27-6.21-9.47,6.74-7.28.27.05.48,2.19,13.22-2.68,1.02,2.41,4.71,2.89-4.82,10.01.7,3.26-5.94.91v.86l4.82-.75.11.27c-1.34,1.82-2.94,3.26-5.14,4.44l2.46.86,6.1-7.97h.37l.64,1.87,1.12-.16v-14.93c0-3-.11-4.28-.86-5.99l.21-.32,9.52,2.3-1.12,3.32v3.26l9.1-1.44.16,2.35,1.34,4.44-10.59,1.55v4.71l5.51-.59.8,2.68,5.03,3.64-8.94,13.32h-.37l-2.51-2.73-6.37.48-1.44,2.35h-.37l-5.24-7.92-2.09,3.48c-.86-.86-1.66-1.98-2.35-3.26l-3.53,5.57c-1.02-1.23-1.98-2.68-2.78-4.33l-4.28,6.58c-2.78-2.78-5.03-7.44-5.94-12.04l.27-.21,4.49,2.09-1.87-5.94.27-.16,1.87.96,5.35-.8v-.86l-4.39.64-1.39-3.64Zm4.98,12.04c-.32-.75-.59-1.55-.8-2.35-.86.21-1.77.48-2.78.7l3.58,1.66Zm.8-12.9v-1.18l-2.03.32-1.02,1.34,3.05-.48Zm-1.39-8.51l2.41-.43v-1.18l-2.68.53.27,1.07Zm.8,3.75l1.61-.27v-1.34l-1.87.32.27,1.28Zm6.1,16.37c-.43-.96-.8-2.03-1.12-3.1-1.02.48-2.19.91-3.53,1.34l4.66,1.77Zm2.09-21.72l.16-1.12-.16-.16-2.41.48v1.23l2.41-.43Zm-.48,4.12l.16-1.44-2.09.37v1.39l1.93-.32Zm2.94,4.55l-1.23-1.12-2.57.43v1.23l3.8-.53Zm8.94,13.59l3.69-.32,1.39-4.23-.21-.11-6.26.59,1.39,4.07Z"/>
    <path class="cls-1" d="m199.57,364.47l38.1-3.21.11,3.21,1.77,5.56-36.92,2.73-3.05-8.29Z"/>
  </g>
  <g>
    <path class="cls-1" d="m338.95,507.85c-2.09,2.26-4.86,4.27-7.87,5.7.92.17,1.84.17,2.76.17,3.35,0,5.78-.67,5.61-2.76-.08-1.01-.25-2.01-.5-3.1Z"/>
    <polygon class="cls-1" points="325.46 503.83 326.88 504.92 339.53 503.66 338.19 502.66 325.46 503.83"/>
    <polygon class="cls-1" points="338.95 492.86 339.11 492.02 338.86 491.77 324.46 493.36 324.62 494.28 338.95 492.86"/>
    <path class="cls-1" d="m321.11,507.68l-2.09-2.43-.25.84c1.42,3.35,4.19,5.36,7.46,6.45l-1.68-8.63h-.17l-2.76,3.77h-.5Z"/>
    <polygon class="cls-1" points="338.44 496.46 325.46 497.8 325.71 498.81 338.19 497.55 338.44 496.46"/>
    <polygon class="cls-1" points="228.63 507.01 229.39 510.62 232.4 510.36 233.16 506.85 232.99 506.6 228.63 507.01"/>
    <polygon class="cls-1" points="226.96 499.48 227.29 500.98 238.77 499.39 238.27 497.88 226.96 499.48"/>
    <polygon class="cls-1" points="241.03 502.16 245.3 504.92 251.08 500.56 240.95 501.57 241.03 502.16"/>
    <polygon class="cls-1" points="262.39 512.21 263.48 508.69 263.14 508.44 256.44 509.02 257.2 512.46 262.39 512.21"/>
    <polygon class="cls-1" points="260.72 486.91 259.63 490.43 263.9 489.93 265.07 486.66 264.74 486.41 260.72 486.91"/>
    <path class="cls-1" d="m330.74,478.2l4.27-.59.5-2.68-4.27.5c-.08.92-.33,1.84-.5,2.76Z"/>
    <path class="cls-1" d="m509.57,491.35l5.53-.59v-4.27l-5.44.67c0,1.42,0,2.85-.08,4.19Z"/>
    <path class="cls-1" d="m504.12,510.87c9.05,0,10.97-.33,10.97-6.2v-4.69l-6.7.59c-.92,4.19-2.35,7.62-4.27,10.3Z"/>
    <path class="cls-1" d="m190.74,434.43v115.73h364.99v-115.73H190.74Zm64.11,67.39l19.35-2.01,1.09,3.35,6.2,4.52-12.48,16.42h-.59l-4.44-3.85-7.96.33-2.76,3.85h-.59l-9.21-12.56-5.36,7.79h-.59l-3.35-2.76-5.03.42-2.76,3.6h-.5l-10.47-12.4,10.3-8.88-4.44.59-2.09-5.53,21.19-2.93.17.67,7.62-.84,1.09-3.18-5.11.67-2.09-5.7-30.99,4.44-2.76-7.29,23.45-3.35c-3.52-3.77-6.62-8.96-8.54-14.07l.25-.33,18.68,4.52-5.11,9.13,7.62-1.09,1.26,4.94,6.28-.92.92-2.68-6.62.92-3.1-8.71,32.25-4.86,2.18,9.05-13.15,1.93-.92,2.76,8.12-1.17,1.01,2.34,7.04,4.19-3.43,5.44,9.63-1.01.08,3.18,1.84,5.95-33.51,3.52.34,1.59Zm-34.85-14.07l20.86-2.93,1.09,5.53-19.85,2.76-2.09-5.36Zm103.36.92l25.13-2.93,1.01,2.93,6.7,4.52-7.87,9.63,14.32.17-1.42,13.57c-5.61-1.68-11.39-5.61-15.33-10.64l-1.26,1.51h-.5l-3.01-2.43-.67,1.01,16.25,13.9v.42c-4.77,2.85-11.56,4.36-18.18,4.36-8.71,0-17.34-2.68-21.11-8.29l.25-7.2c-2.34,5.44-6.2,9.55-11.64,12.4l-5.11-14.49.33-.34,3.18.75,13.65-3.27-8.04-9.13,9.05-7.12-22.87,2.68-3.02-7.87,25.38-3.1-.84-.67v-.34l3.27-2.01-9.72,1.26-2.6-6.95,19.35-2.51c-2.09-2.51-4.02-5.36-5.44-8.21l.25-.34,17.76,2.68-2.09,4.52,15.25-2.01,1.59,7.29-7.96,1.01,1.01.33.08.34-3.01,2.26,22.95-2.85.08,2.85,1.68,5.53-47.16,5.61.33,1.17Zm66.84,20.69l-13.4-16.42.25-.5,4.44-.17,16.75-11.06.5.17c.34,9.72-1.76,19.52-8.54,27.98Zm56.37,1.76c-4.69,3.18-12.31,4.94-20.19,4.94-9.72,0-19.77-3.69-24.88-10.55l-.92-19.27,1.76-.25c2.43,10.05,7.2,14.57,15.83,14.57,3.94,0,5.11-1.68,4.44-5.36-.5-2.68-1.59-6.37-3.02-10.22-2.76,3.43-5.95,6.53-9.46,8.8l-7.12-18.01.34-.5,4.86,1.68,17.42-3.6.33.42c-1.17,3.18-2.93,6.53-5.19,9.55l25.8,27.39v.42Zm.75-17c-8.04-4.1-16.33-12.73-19.77-20.44l.25-.42,24.12,2.6-4.61,18.26Zm80.91-16.67v46.66l-.5.42c-8.04-.92-18.01-6.11-24.88-11.98-5.53,6.28-14.24,8.46-25.8,9.72l-.17-.5c7.54-5.11,13.07-9.8,16.67-16-3.02-.5-6.11-1.68-8.96-3.27l-4.1.42v8.13l-.42.25-11.98-4.86c1.01-4.02,1.68-7.37,1.68-13.9v-16l-1.51-4.02,21.44-3.69,1.01,2.68,6.03,5.03-1.93,4.19v22.53c2.43-5.36,3.6-11.81,3.6-20.35v-7.45l-2.93-8.13,27.47-4.69,1.01,3.27,7.45,6.28-3.18,5.28Z"/>
    <polygon class="cls-1" points="480.5 479.29 480.5 482.89 484.94 482.22 484.94 479.04 484.44 478.62 480.5 479.29"/>
    <polygon class="cls-1" points="509.65 474.26 509.65 478.54 515.09 477.78 515.09 474.26 514.42 473.51 509.65 474.26"/>
    <polygon class="cls-1" points="480.5 494.2 484.94 493.7 484.94 489.76 480.5 490.35 480.5 494.2"/>
  </g>
  <polygon class="cls-1" points="414.75 293.57 414.49 293.37 411.82 293.76 411.82 295.91 413.97 295.65 414.75 293.57"/>
  <polygon class="cls-1" points="403.41 290.7 403.41 289.01 399.31 289.72 399.7 291.35 403.41 290.7"/>
  <path class="cls-1" d="m403.28,306.66c-3.58,5.47-6.25,5.47-13.36,4.63l-.07-.46c4.5-2.8,8.08-5.6,11.27-9.25l-1.95.26-1.24,1.5h-.2l-5.28-6.52-4.24,4.11,3.97,3-5.86,7.82c6.52,1.24,13.88,2.22,21.5,2.8l-5.67-2.34c.59-1.89.91-3.45,1.11-5.54Z"/>
  <polygon class="cls-1" points="403.41 297.02 403.41 295.06 400.74 295.46 401.2 297.28 403.41 297.02"/>
  <polygon class="cls-1" points="512.78 56.05 514.8 46.6 514.47 45.95 509.91 46.53 508.09 51.75 512.13 51.1 512.78 56.05"/>
  <path class="cls-1" d="m406.02,356.24c-1.89,6.12-3.71,10.62-5.67,13.94,7.75.39,8.73-.07,9.77-2.08,1.5-2.8,3-7.88,3.58-12.38l-.39-.39-7.3.91Z"/>
  <polygon class="cls-1" points="419.44 240.47 417.1 240.8 417.1 244.06 418.79 243.93 419.44 240.47"/>
  <polygon class="cls-1" points="420.68 233.44 420.42 233.18 417.1 233.7 417.1 236.11 420.29 235.65 420.68 233.44"/>
  <polygon class="cls-1" points="406.48 245.16 407.97 244.97 407.97 241.84 405.95 242.1 406.48 245.16"/>
  <polygon class="cls-1" points="394.81 238.65 393.18 241.45 397.09 242.69 394.81 238.65"/>
  <polygon class="cls-1" points="407.97 237.28 407.97 235.13 404.98 235.59 405.3 237.67 407.97 237.28"/>
  <polygon class="cls-1" points="504.31 169.14 508.15 168.68 508.15 166.73 504.31 167.25 504.31 169.14"/>
  <path class="cls-1" d="m489.72,61.19l.26.91,21.96-2.41.46-1.82-9.71,1.37-1.24-3.32-1.56-1.37,1.69-6.91-8.21,1.11,6.45.78c-2.61,9.38-3.71,10.88-10.1,11.66Z"/>
  <path class="cls-1" d="m504.31,161.65l3.84-.52c-.06-1.17-.2-1.82-.59-2.61l-9.58,1.24,6.32.52v1.37Z"/>
  <path class="cls-1" d="m495.91,160.08l-2.41.26c-.13.98-.26,1.82-.46,2.74l3.45-.46c-.06-1.11-.26-1.82-.59-2.54Z"/>
  <path class="cls-1" d="m506.33,181.91c.98-.78,1.82-1.5,2.54-2.28l-.2-.26-6.51.72c1.3.65,2.74,1.24,4.17,1.82Z"/>
  <path class="cls-1" d="m491.48,50.57l-.46-1.5-4.17.52,2.08,8.34c1.43-3.13,2.28-5.6,2.54-7.36Z"/>
  <g>
    <polygon class="cls-1" points="504.25 114.48 506.85 114.29 506.13 112.2 504.25 112.4 504.25 114.48"/>
    <path class="cls-1" d="m350.77,19.11v376.8h204.96V19.11h-204.96Zm36.22,217.26l-8.73,2.67-2.74-7.17,12.9-3.26c-2.48-2.87-4.43-6.45-5.54-10.1l.13-.13,14.72,4.3-3,5.34.52,1.37,3.19,1.76,4.89-3.84.39.07.39,2.61,3.84-.59v-4.1c0-5.28,0-6.78-1.24-8.86l.26-.33,11.47,2.8-1.37,3.91v5.02l8.01-1.3,1.11,2.87,7.23,4.89-9.58,18.18-.46.07-3.32-2.8-3,.26v17.33l-.39.13-9.97-4.04c.78-3.32,1.24-6.19,1.24-12.25v-.33l-3.32.33-1.37,1.76h-.39l-2.74-4.89-1.89,3.65-.33.07c-1.5-.98-2.74-2.08-3.78-3.32v16.61l-.26.2-8.99-3.58c.85-2.87,1.24-5.6,1.24-10.68v-.39c-4.1,3.65-7.95,3.45-13.94,2.15v-.26c6.58-5.8,12.57-12.18,14.98-15.9l-.2-.2Zm37.53,120.78c-1.56,10.29-4.1,19.09-8.99,25.87-5.93-1.95-12.18-6.52-15.96-11.6-4.95,7.43-11.47,8.14-24.89,9.19l-.13-.78c10.95-7.43,16.03-13.03,19.55-22.02l-10.36,1.37-3.52-9.12,16.94-2.15c.2-.85.46-1.76.65-2.67,1.3-5.34,1.3-7.56.52-9.71l.33-.46,13.1,1.17c-.98,3.71-1.95,7.1-2.8,10.16l9.51-1.17,1.5,3.39,6.91,4.43-2.35,4.11Zm-8.47-30.1c-12.12-4.23-27.04-7.75-42.02-8.99l-.2-.46,5.54-7.36c.98.26,1.95.46,2.93.72l1.3-4.37-2.54.98-1.5-3.39,4.11-4.5-.2-.2-5.34,1.82-3.19-7.04,12.64-3.45c-3.97-3-6.91-7.3-8.67-11.66l.26-.39,13.68,2.8-3.71,9.64.46,1.37,2.48,2.34,5.8-5.02-2.67.46-2.21-5.93,10.42-1.82v-.91c0-3.26-.07-4.69-.91-6.65l.26-.39,10.42,2.54-1.37,3v.98l9.71-1.69.13,2.08,1.37,4.24-11.21,1.82v1.69l9.12-1.5.72,2.48,4.37,3.84-7.49,7.88h-.33l-2.87-2.15-3.52.46v1.63l14.98,1.82-3.13,10.29c-4.95-1.82-9.06-5.34-11.86-9.06v9.77c7.49.46,15.05.52,21.96.06l.2.85-17.92,11.34Zm34.3-122.45h-92.61V26.08h92.61v178.52Zm32.85-167.19l.59.07,1.04,4.23,36.22-5.41,1.56,4.95,8.08,6.25-11.79,25.8-.65.07-5.15-5.08-25.21,2.48-2.41,3.52h-.72l-12.31-22.93,10.75-13.94Zm-6.12,55.37l42.09-5.47.98,2.87,6.38,5.08-2.02,4.5v36.29l-.59.46c-3.91-.72-8.27-2.74-11.86-5.34l-23.72.98v3.39l-.46.26-10.29-4.17c.85-4.04,1.24-7.49,1.24-15.96v-18.31l-1.76-4.56Zm7.17,67.49l-2.15-5.67,18.18-2.48c-2.35-2.02-4.24-4.37-5.47-6.65l.2-.39,14.79,1.11-1.17,4.82,10.95-1.5,1.95,7.17-11.79,1.56,6.71.52-.13,1.3,5.67-.72.13,1.89,1.17,3.58-7.56.98-.2,2.02,1.63-.2,1.11,4.43-13.94,1.56v1.24l10.82-1.11.72,1.89,4.04,3.32c-2.15,2.15-4.04,3.97-5.8,5.67,5.6,1.69,11.92,3.13,18.83,4.3l.06.91-18.76,6.39c-2.34-1.76-4.95-3.58-7.69-5.41-7.3,4.95-12.7,4.69-23.45,2.67l-.13-.72c6.78-2.15,12.18-4.3,16.42-6.52-3.19-1.95-6.52-3.78-9.64-5.34l-.06-.46,6.58-3.58c.98.65,2.02,1.24,3.13,1.82l-1.37-3.19,4.17-.46-6.25-2.74c.46-1.3.59-2.22.59-3.91v-.2l-4.37.52c-3.32,18.18-7.1,20.78-19.74,24.5l-.33-.59c6.78-9.97,11.21-22.74,12.18-32.38Zm64.52,228.66h-92.61v-178.52h92.61v178.52Z"/>
    <polygon class="cls-1" points="513.89 121.98 513.89 113.9 511.54 117.55 512.13 120.28 491.15 121.72 488.93 115.66 496.23 115.07 496.23 113.18 492.71 113.51 490.76 108.03 496.23 107.45 496.23 105.82 492.06 106.27 490.04 100.54 510.5 98.13 511.8 104.06 504.25 104.91 504.25 106.6 509.33 106.08 510.3 110.9 513.89 112.2 513.89 97.02 513.24 96.37 488.28 99.43 488.35 123.47 513.89 121.98"/>
  </g>
  <path class="cls-1" d="m376.91,105.51l10.49,5.08.33-.2v-17l1.37,4.56,2.67-.2c-.26,3.32-1.04,5.86-3.26,9.25l.19.33c8.86-1.76,9.84-3.65,9.84-10.16l2.54-.2v.65c0,3.58-.26,5.47-1.04,7.75l8.01,3.39.26-.13v-5.6c4.3,4.5,9.97,7.88,14.79,8.6l.39-.33v-37.66l2.41-4.82-5.73-4.69-.78-2.48-19.74,2.61,1.43,3.39v6.91c0,2.48-.2,3.91-.59,5.8l6.25,1.95-17.72,1.76,1.76,5.34,1.04-.13v1.95l-4.1.33v-8.73l5.34-.65c1.89.33,3.84.46,5.8.39l.2-.2v-8.6l1.56-3.19-4.3-3.71-.85-2.35-18.37,2.48,1.17,2.93v22.41c0,6.12-.39,9.64-1.37,13.16Zm32.84-36.55l3.52-.46.2.2v1.43l-3.71.39v-1.56Zm0,5.21l3.71-.39v1.76l-3.71.39v-1.76Zm-1.43,13.62l2.54-.26-1.11-4.89v-2.21l3.71-.39v15.05l-1.24-5.6-3.91.33v-2.02Zm0,8.67l5.15-.46c-.07,4.43-.78,4.82-5.15,4.76v-4.3Zm-9.77-7.75l2.54-.26v2.02l-2.54.2v-1.95Zm-10.82-17.2l3.32-.46.2.2v1.43l-3.52.46v-1.63Zm0,5.15l3.52-.46v1.76l-3.52.39v-1.69Z"/>
  <path class="cls-1" d="m376.46,156.39l9.32,3.78.33-.2v-6.32l3.19-.33c2.21,1.24,4.63,2.15,6.97,2.54-2.8,4.82-7.1,8.47-12.96,12.44l.13.39c8.99-.98,15.77-2.67,20.07-7.56,5.34,4.56,13.1,8.6,19.35,9.32l.39-.33v-36.29l2.48-4.1-5.8-4.89-.78-2.54-21.37,3.65,2.28,6.32v5.8c0,6.65-.91,11.66-2.8,15.83v-17.53l1.5-3.26-4.69-3.91-.78-2.08-16.68,2.87,1.17,3.13v12.44c0,5.08-.52,7.69-1.3,10.82Zm32.32-25.02l3.71-.59.52.59v2.74l-4.24.59v-3.32Zm0,10.03l4.24-.52v3.32l-4.3.46c.07-1.04.07-2.15.07-3.26Zm-.98,10.42l5.21-.46v3.65c0,4.56-1.5,4.82-8.54,4.82,1.5-2.08,2.61-4.76,3.32-8.01Zm-21.7-16.55l3.06-.52.39.33v2.48l-3.45.52v-2.8Zm0,8.6l3.45-.46v3.06l-3.45.39v-3Z"/>
  <polygon class="cls-1" points="515.46 258.57 513.24 248.99 483.73 253.03 487.18 261.95 515.46 258.57"/>
  <polygon class="cls-1" points="528.75 285.86 526.66 279.48 526.53 275.83 472.33 280.07 475.85 289.38 528.75 285.86"/>
  <polygon class="cls-1" points="489.33 274.59 513.24 272.31 511.09 263.19 485.81 265.8 489.33 274.59"/>
  <path class="cls-1" d="m482.56,330.49v11.34c0,3.65-.26,5.41-.91,7.62l10.42,3.91.33-.39v-3.26l30.75-2.02-1.82-8.4-28.93,2.02v-11.92l3.52-.39v1.82c0,2.48-.19,3.84-.85,5.73l9.19,3.58.33-.33v-1.56l15.25-1.5-1.37-6.78-1.82.2v-3.45l13.42-1.5-1.95-5.47-.2-3.19-11.27,1.3v-8.08l1.5-3.52-11.4-2.87-.33.46c.78,3,1.04,5.15,1.04,9.84v5.21l-2.87.33v-5.8l1.43-3.26-10.81-2.67-.26.33c.72,2.67.98,4.5.98,8.93v3.52l-3.52.39v-3.26l1.56-3.45-12.25-3-.26.39c.85,3.13,1.11,5.28,1.11,10.29v.2l-12.64,1.43,3.26,8.27,9.38-1.04Zm22.02-2.48l2.87-.26v3.52l-2.87.33v-3.58Z"/>
</svg>