<?xml version="1.0" encoding="UTF-8"?>
<svg id="Layer_1" data-name="Layer 1" xmlns="http://www.w3.org/2000/svg" viewBox="0 0 566.93 566.93">
  <defs>
    <style>
      .cls-1 {
        fill: #fff;
      }

      .cls-2 {
        fill: #1d1d1b;
      }
    </style>
  </defs>
  <g>
    <rect class="cls-1" x="222.84" y="258.98" width="230.68" height="83.46"/>
    <path class="cls-2" d="m446.98,265.53v70.38h-217.59v-70.38h217.59m6.54-6.54h-230.68v83.46h230.68v-83.46h0Z"/>
  </g>
  <polygon class="cls-1" points="548.63 454.99 431.84 454.99 431.84 528.76 460.79 538.53 559.19 538.53 559.19 498.02 548.63 454.99"/>
  <rect class="cls-2" x="431.84" y="454.99" width="116.8" height="73.77"/>
  <g>
    <rect class="cls-1" x="186.92" y="455.73" width="222.79" height="103.85" rx="13.25" ry="13.25"/>
    <path class="cls-2" d="m396.46,560.67h-196.29c-7.91,0-14.34-6.43-14.34-14.34v-77.35c0-7.91,6.43-14.34,14.34-14.34h196.29c7.91,0,14.34,6.43,14.34,14.34v77.35c0,7.91-6.43,14.34-14.34,14.34Zm-196.29-103.84c-6.7,0-12.16,5.45-12.16,12.16v77.35c0,6.7,5.45,12.16,12.16,12.16h196.29c6.7,0,12.16-5.45,12.16-12.16v-77.35c0-6.7-5.45-12.16-12.16-12.16h-196.29Z"/>
  </g>
  <polygon class="cls-2" points="320.48 96.08 299.66 96.08 284.93 110.8 284.93 131.63 299.66 146.35 320.48 146.35 335.21 131.63 335.21 110.8 320.48 96.08"/>
  <path class="cls-1" d="m319.51,144.01h-18.89l-13.35-13.35v-18.89l13.35-13.35h18.89l13.35,13.35v18.89l-13.35,13.35Zm-18.43-1.09h17.98l12.72-12.72v-17.98l-12.72-12.72h-17.98l-12.72,12.72v17.98l12.72,12.72Z"/>
  <g>
    <rect class="cls-1" x="477.85" y="96.91" width="64.46" height="241.81"/>
    <path class="cls-2" d="m544.49,340.9h-68.82V94.73h68.82v246.18Zm-64.46-4.36h60.1V99.09h-60.1v237.45Z"/>
  </g>
  <g>
    <polygon class="cls-1" points="559.64 45.29 516.11 6.03 516.11 17.74 223.79 17.74 223.79 71.48 516.11 71.48 516.11 84.54 559.64 45.29"/>
    <path class="cls-2" d="m515.81,85.22v-13.44H223.49V17.43h292.32V5.35l.5.46,43.78,39.48-.25.22-44.04,39.71Zm-291.71-14.04h292.32v12.68l42.78-38.58-42.78-38.58v11.33H224.09v53.14Z"/>
  </g>
  <g>
    <path class="cls-1" d="m445.82,496.95l.99-1.5c1.95,1.08,4.09,2.43,5.83,3.79l-1.02,1.41c-1.77-1.32-4.03-2.77-5.8-3.7Zm5.11,6.94l1.71.63c-1.02,3.22-2.71,7.15-4.48,10.31l-1.65-.9c1.77-3.07,3.34-6.76,4.42-10.04Zm-3.79-14.46l1.08-1.44c1.77,1.02,3.88,2.46,5.47,3.7l-1.08,1.47c-1.65-1.35-3.76-2.74-5.47-3.73Zm6.64,22.63h8.42v-4.99h-7.15v-1.59h7.15v-3.49h1.8v3.49h7.3v1.59h-7.3v4.99h8.69v1.62h-18.91v-1.62Zm1.56-23.11h15.51v12.26h-15.51v-12.26Zm13.74,5.26v-3.64h-11.99v3.64h11.99Zm0,5.38v-3.82h-11.99v3.82h11.99Z"/>
    <path class="cls-1" d="m494.33,500.58c-1.23-.51-2.49-1.02-3.79-1.5l.66-1.26c1.59.6,3.25,1.23,4.87,1.92,1.44-.81,2.65-1.8,3.52-2.94l-9.44-.06v-1.35h11.42v1.14c-.84,1.41-2.16,2.77-3.94,3.91,1.59.69,3.13,1.41,4.6,2.16l-.72,1.41c-1.65-.9-3.49-1.8-5.44-2.67-1.68.9-3.67,1.62-5.92,2.1v2.19h11.87v1.47h-10.4c2.55,2.34,6.16,3.97,10.91,5.14l-.63,1.59c-4.99-1.29-9.17-3.49-11.75-6.25v7.33h-1.71v-7.24c-2.25,2.56-6.34,4.81-11.78,6.22l-.6-1.59c4.75-1.11,8.48-2.86,10.88-5.2h-10.34v-1.47h11.84v-2.43h1.65l-.39-1.23c1.68-.33,3.25-.78,4.63-1.38Zm-18.06-4.72h2.19v-5.95h3.61c.57-.78,1.05-1.56,1.35-2.25l1.44.39c-.3.57-.66,1.23-1.08,1.86h4.6v10.31c0,2.25-.51,3.31-3.22,3.31-.57,0-1.11-.06-1.59-.15l-.09-1.44c.45.06.96.12,1.5.12,1.44,0,1.8-.3,1.8-1.95v-2.89h-6.7c-.06,2.55-.54,4.6-2.16,6.82l-1.41-.93c1.47-1.92,1.89-3.52,1.95-5.89h-2.19v-1.35Zm10.52,0v-4.57h-6.7v4.57h6.7Zm-5.35,2.94l.75-.93c.96.57,2.28,1.53,3.19,2.38l-.75.96c-.96-.84-2.19-1.77-3.19-2.41Zm.12-5.83l.78-.96c.96.6,2.13,1.47,2.95,2.22l-.78.93c-.84-.75-2.01-1.62-2.95-2.19Zm10.4-2.19v-1.77h7.48v2.49c0,1.29.3,1.47,1.8,1.47h1.02v1.5h-1.05c-2.46,0-3.34-.66-3.34-2.64v-1.41h-4.42v.54c0,1.89-.84,3.1-3.25,3.88l-.57-1.35c1.8-.63,2.31-1.23,2.31-2.71Z"/>
    <path class="cls-1" d="m506.2,496.2h3.22v-8.42h1.83v8.42h2.95v1.62h-2.95v10.52c1.08-.36,2.13-.72,3.13-1.08l.27,1.62c-2.19.84-5.5,1.92-8.42,2.74l-.36-1.68c1.05-.27,2.28-.63,3.55-1.02v-11.09h-3.22v-1.62Zm9.23,4.69v-8.06h8.84c-.06-1.77-.12-3.52-.12-5.08l1.68-.03c0,1.62.06,3.34.15,5.11h6.49v1.59h-6.4c.27,4.15.72,8.3,1.26,11.24,1.41-2.64,2.41-5.53,3.07-8.48l1.62.45c-.81,3.49-2.13,7.09-4.18,10.4.75,3.13,1.62,4.99,2.43,4.99.66,0,1.02-1.62,1.02-5.38l1.62.57c0,4.75-1.02,6.73-2.64,6.73-1.53,0-2.77-1.92-3.7-5.02-1.23,1.68-2.64,3.22-4.27,4.6l-1.17-1.26c1.95-1.59,3.58-3.4,4.9-5.41l-.18-.78c-.69-3.37-1.23-8.12-1.5-12.65h-7.24v4.57h5.5l-.24,9.02c-.06,2.55-.6,3.52-3.04,3.52-.45,0-.99-.03-1.38-.12l-.21-1.62c.48.09.9.15,1.38.15,1.32,0,1.56-.39,1.62-2.1l.21-7.27h-3.85v.33c0,5.26-.39,9.2-2.86,13.98l-1.56-.93c2.25-4.21,2.74-7.57,2.74-13.05Zm11.75-12.08l1.14-1.05c1.08.81,2.41,2.07,3.46,3.22l-1.11,1.08c-1.02-1.14-2.34-2.37-3.49-3.25Z"/>
  </g>
  <g>
    <path class="cls-2" d="m6.97,471.51l4.14-7.23c3.54,1.47,8.18,3.74,11.52,5.66l-3.89,7.43c-3.54-2.02-8.39-4.4-11.77-5.86Zm7.22,6.21l8.24,2.48c-1.42,6.11-3.74,14.25-6.26,19.7l-8.49-3.38c2.63-5.71,5.15-13.24,6.52-18.79Zm-4.95-18.09l3.99-7.07c3.59,1.36,7.93,3.49,11.17,5.36l-4.09,7.28c-3.44-1.92-7.73-4.19-11.06-5.56Zm14.1,8.08h3.08v-12.07h8.08v12.07h2.73v-15.71h8.24v4.34h8.13v7.38h-8.13v3.99h9.9v7.93h-3.38l2.88,6.77c-2.38,1.31-5.91,2.78-10,4.04,3.64,1.41,7.83,3.54,10.96,5.25l-3.49,8.34c-4.45-2.53-9.4-5.15-13.29-6.77-3.99,2.32-9.3,5.05-14,6.92l-3.54-8.24c3.94-1.46,8.34-3.54,12.07-5.56-3.79-1.52-7.58-2.98-10.31-3.99l3.13-6.77h-3.08v-7.93Zm15.31,12.08l-2.98,6.82,3.54,6.26,2.93-6.01-2.53-6.97c4.14-1.21,7.93-2.78,11.17-4.24h-22.53c2.98,1.11,6.57,2.53,10.41,4.14Z"/>
    <path class="cls-2" d="m78.66,462.01h7.12c4.8,4.9,12.02,9.9,20.36,12.83l-3.28,8.13c-1.11-.45-2.17-.86-3.18-1.36v17.88h-9.04v-1.97h-17.03v1.97h-8.94v-17.83c-1.01.46-2.07.86-3.13,1.31l-3.13-8.03c8.39-3.03,15.91-7.98,20.26-12.93Zm-4.8-10.21l5.76,6.47c-3.69,3.69-9.4,7.58-15.31,10.66l-4.45-7.68c5.36-2.63,10.56-6.11,13.99-9.45Zm18.59,26.12c-3.99-2.38-7.38-4.95-10.16-7.58-2.78,2.68-6.21,5.2-10.26,7.58h20.41Zm-1.82,11.67v-4.29h-17.03v4.29h17.03Zm-5.91-31.17l5.66-6.67c3.99,2.48,9.85,6.57,14.25,10.16l-5.1,7.12c-4.45-3.64-10.46-7.93-14.8-10.61Z"/>
    <path class="cls-2" d="m110.53,482.93l3.69.76c-.05,4.5-.46,9.75-1.16,13.94l-4.24-1.46c.96-4.4,1.57-9.04,1.72-13.24Zm.35-29.3h19.1v7.17h-3.49v1.67h3.08v4.7h-3.08v1.72h3.08v4.7h-3.08v1.82h4.14l-.35,16.72c1.42-5.66,1.82-10.86,1.82-18.84v-19.3h22.03v23.29h-4.8c1.36,6.06,3.54,10.51,8.03,15.46l-6.37,6.92c-4.75-6.11-7.58-12.83-9.25-22.38h-2.17c-.2,8.99-1.11,15.06-3.33,21.93l-6.21-4.19c-.66,2.83-2.38,4.04-6.52,4.04-.61,0-1.21-.05-1.72-.15l-.76-3.79-1.72.66c-.3-4.24-.91-9.04-1.46-12.18l2.32-.61c.4,2.42.91,5.71,1.26,8.84h.5c.76,0,1.82-.2,1.82-1.11v-.61l-1.72.86c-.35-2.53-.76-5.56-1.16-7.53l1.92-.61c.35,1.52.66,3.44.96,5.3l.05-6.01h-12.93v-28.49Zm3.59,30.16l2.78-.56c.5,3.59,1.01,8.69,1.21,13.03l-3.44.96c0-4.45-.25-9.95-.56-13.44Zm6.52-21.32v-1.67h-2.73v1.67h2.73Zm0,6.42v-1.72h-2.73v1.72h2.73Zm0,6.52v-1.82h-2.73v1.82h2.73Zm25.92-6.16v-7.22h-7.33v7.22h7.33Z"/>
  </g>
  <g>
    <path class="cls-1" d="m454.41,479.02h-1.46l-5.78-9.28v9.28h-1.46v-11.89h1.46l5.78,9.21v-9.21h1.46v11.89Z"/>
    <path class="cls-1" d="m457.09,467.13h1.56v1.72h-1.56v-1.72Zm.05,3.46h1.46v8.43h-1.46v-8.43Z"/>
    <path class="cls-1" d="m461.09,470.6h1.46v1.26c.58-.87,1.45-1.48,2.63-1.48v1.4c-.11-.02-.22-.03-.35-.03-1.15,0-2.24,1.1-2.28,2.55v4.72h-1.46v-8.43Z"/>
    <path class="cls-1" d="m470.74,479.02h-1.7l-3.2-8.43h1.59l2.47,6.93,2.54-6.93h1.51l-3.21,8.43Z"/>
    <path class="cls-1" d="m480.01,479.02v-.91c-.55.77-1.42,1.15-2.52,1.15-1.94,0-2.82-.9-2.82-2.42,0-1.89,1.21-2.65,3.61-2.65h1.73v-.28c0-1.4-.33-2.24-2.2-2.24-1.1,0-1.83.27-2.66,1.02v-1.43c.66-.53,1.35-.88,2.93-.88,2.63,0,3.4,1.04,3.4,3.45v5.2h-1.46Zm-3.92-11.43h4.17v1.07h-4.17v-1.07Zm3.92,8.43v-.58h-1.81c-1.56,0-2.06.28-2.06,1.35,0,.82.5,1.23,1.53,1.23s2.28-.47,2.35-2Z"/>
    <path class="cls-1" d="m483.89,470.6h1.46v1.05c.58-.79,1.46-1.28,2.65-1.28,2.13,0,3.09,1.31,3.09,3.51v5.13h-1.46v-5.02c0-1.61-.96-2.25-1.98-2.25-1.15,0-2.24.8-2.28,2.24v5.04h-1.46v-8.43Z"/>
    <path class="cls-1" d="m498.26,479.02v-.91c-.55.77-1.42,1.15-2.52,1.15-1.94,0-2.82-.9-2.82-2.42,0-1.89,1.21-2.65,3.61-2.65h1.73v-.28c0-1.4-.33-2.24-2.21-2.24-1.1,0-1.83.27-2.66,1.02v-1.43c.66-.53,1.35-.88,2.93-.88,2.63,0,3.4,1.04,3.4,3.45v5.2h-1.46Zm0-3.59h-1.81c-1.56,0-2.06.28-2.06,1.35,0,.82.5,1.23,1.53,1.23s2.35-.5,2.35-2.13v-.46Z"/>
    <path class="cls-1" d="m502.14,470.6h1.46v1.1c.55-.79,1.42-1.32,2.6-1.32,2.28,0,3.43,1.7,3.43,3.92v1.04c0,2.39-1.18,3.92-3.43,3.92-1.21,0-2.05-.63-2.6-1.48v4.74h-1.46v-11.92Zm1.46,3.31v1.51c0,1.26,1.05,2.55,2.39,2.55s2.17-.94,2.17-2.55v-1.2c0-1.61-.85-2.55-2.21-2.55-1.13,0-2.2.99-2.36,2.24Z"/>
    <path class="cls-1" d="m518.76,479.02h-1.46v-.98c-.54.74-1.34,1.2-2.47,1.2-2.13,0-3.18-1.31-3.18-3.51v-5.13h1.46v5.18c0,1.61.96,2.09,1.98,2.09,1.18,0,2.2-.83,2.2-2.35v-4.93h1.46v8.43Z"/>
    <path class="cls-1" d="m521.25,470.6h1.46v1.26c.58-.87,1.45-1.48,2.63-1.48v1.4c-.11-.02-.22-.03-.35-.03-1.15,0-2.24,1.1-2.28,2.55v4.72h-1.46v-8.43Z"/>
    <path class="cls-1" d="m531.6,479.02v-.91c-.55.77-1.42,1.15-2.52,1.15-1.94,0-2.82-.9-2.82-2.42,0-1.89,1.21-2.65,3.61-2.65h1.73v-.28c0-1.4-.33-2.24-2.21-2.24-1.1,0-1.83.27-2.66,1.02v-1.43c.66-.53,1.35-.88,2.93-.88,2.63,0,3.4,1.04,3.4,3.45v5.2h-1.46Zm0-3.59h-1.81c-1.56,0-2.06.28-2.06,1.35,0,.82.5,1.23,1.53,1.23s2.35-.5,2.35-2.13v-.46Z"/>
  </g>
  <g>
    <path class="cls-2" d="m9.66,553.13c1.32.84,2.96,1.24,4.41,1.24,1.22,0,1.78-.28,1.78-1.18,0-.78-.44-1.05-1.43-1.19l-1.86-.26c-2.32-.33-3.19-1.72-3.19-3.78,0-3.22,2.53-4.3,5.26-4.3,1.13,0,3.22.19,4.18.87v3.15c-1.1-.77-2.7-1.15-3.96-1.15-1.38,0-2.06.33-2.06,1.13,0,.75.52,1.12,1.34,1.22l1.67.23c2.58.35,3.49,2.04,3.49,3.92,0,3.19-2.63,4.2-5.46,4.2-1.39,0-2.91-.24-4.18-.94v-3.15Z"/>
    <path class="cls-2" d="m20.95,543.87h3.36v4.77c.59-.94,1.46-1.53,2.94-1.53,2.06,0,3.22,1.27,3.22,3.71v6.2h-3.36v-4.84c0-1.43-.26-2.12-1.39-2.12s-1.39.66-1.41,2.02v4.95h-3.36v-13.16Z"/>
    <path class="cls-2" d="m32.47,543.47h3.36v2.7h-3.36v-2.7Zm0,3.89h3.36v9.67h-3.36v-9.67Z"/>
    <path class="cls-2" d="m37.89,543.87h3.36v4.41c.52-.73,1.32-1.17,2.53-1.17,2.53,0,3.89,1.36,3.89,4.34v1.5c0,3.17-1.39,4.34-3.89,4.34-1.22,0-2-.44-2.53-1.19v.92h-3.36v-13.16Zm3.36,7.48v1.86c.03,1.1.5,1.6,1.43,1.6s1.45-.52,1.45-1.78v-1.67c0-1.25-.56-1.78-1.48-1.78-.84,0-1.39.4-1.39,1.76Z"/>
    <path class="cls-2" d="m58.86,557.03h-3.36v-1.25c-.59.92-1.48,1.52-2.95,1.52-2.06,0-3.22-1.27-3.22-3.71v-6.22h3.36v4.86c0,1.43.26,2.13,1.39,2.13,1.06,0,1.38-.66,1.41-2v-4.98h3.36v9.67Z"/>
    <path class="cls-2" d="m67.15,557.03l-1.27,3.87h-3.31l1.22-3.38-3.92-10.16h3.5l1.93,6.2,1.76-6.2h3.48l-3.4,9.67Z"/>
    <path class="cls-2" d="m76.72,557.03v-1.06c-.51.91-1.29,1.32-2.58,1.32-1.95,0-3.24-1.17-3.24-2.89,0-2.04,1.22-3.07,3.87-3.07h1.93c-.09-.92-.42-1.22-1.74-1.22-1.18,0-2.28.23-3.54.96v-2.91c1.13-.7,2.58-1.05,4.18-1.05,2.84,0,4.48,1.08,4.48,3.73v6.19h-3.36Zm0-3.61v-.19h-1.13c-1.19,0-1.48.31-1.48.96,0,.58.38.85,1.15.85.84,0,1.41-.3,1.46-1.62Z"/>
    <path class="cls-2" d="m85.87,553.13c1.32.84,2.96,1.24,4.41,1.24,1.22,0,1.78-.28,1.78-1.18,0-.78-.44-1.05-1.43-1.19l-1.86-.26c-2.32-.33-3.19-1.72-3.19-3.78,0-3.22,2.53-4.3,5.26-4.3,1.13,0,3.22.19,4.18.87v3.15c-1.1-.77-2.7-1.15-3.96-1.15-1.38,0-2.06.33-2.06,1.13,0,.75.52,1.12,1.34,1.22l1.67.23c2.58.35,3.49,2.04,3.49,3.92,0,3.19-2.63,4.2-5.46,4.2-1.39,0-2.91-.24-4.18-.94v-3.15Z"/>
    <path class="cls-2" d="m96.45,547.36h1.32v-2.54h3.36v2.54h2.09v2.47h-2.09v3.68c0,.92.47,1.04,1.13,1.04.35,0,.56-.03.98-.1v2.63c-.54.14-1.5.21-2.02.21-2.04,0-3.45-1.03-3.45-3.1v-4.36h-1.32v-2.47Z"/>
    <path class="cls-2" d="m110.22,557.03v-1.06c-.51.91-1.29,1.32-2.58,1.32-1.95,0-3.24-1.17-3.24-2.89,0-2.04,1.22-3.07,3.87-3.07h1.93c-.09-.92-.42-1.22-1.74-1.22-1.18,0-2.28.23-3.54.96v-2.91c1.13-.7,2.58-1.05,4.18-1.05,2.84,0,4.48,1.08,4.48,3.73v6.19h-3.36Zm0-3.61v-.19h-1.13c-1.19,0-1.48.31-1.48.96,0,.58.38.85,1.15.85.84,0,1.41-.3,1.46-1.62Z"/>
    <path class="cls-2" d="m114.77,547.36h1.32v-2.54h3.36v2.54h2.09v2.47h-2.09v3.68c0,.92.47,1.04,1.13,1.04.35,0,.56-.03.98-.1v2.63c-.54.14-1.5.21-2.02.21-2.04,0-3.45-1.03-3.45-3.1v-4.36h-1.32v-2.47Z"/>
    <path class="cls-2" d="m123.17,543.47h3.36v2.7h-3.36v-2.7Zm0,3.89h3.36v9.67h-3.36v-9.67Z"/>
    <path class="cls-2" d="m128.21,551.63c0-3.17,2.09-4.51,4.91-4.51s4.95,1.34,4.95,4.51v1.15c0,3.17-2.13,4.51-4.95,4.51s-4.91-1.34-4.91-4.51v-1.15Zm3.52,1.06c0,1.6.42,2.13,1.39,2.13s1.43-.52,1.43-2.13v-.98c0-1.6-.45-2.13-1.43-2.13s-1.39.52-1.39,2.13v.98Z"/>
    <path class="cls-2" d="m139.75,547.36h3.36v1.29c.59-.94,1.46-1.53,2.94-1.53,2.06,0,3.22,1.27,3.22,3.71v6.2h-3.36v-4.84c0-1.43-.26-2.12-1.39-2.12s-1.39.66-1.41,2.02v4.95h-3.36v-9.67Z"/>
  </g>
  <g>
    <path class="cls-2" d="m18.34,531.59c-5.4,0-7.75-2.45-7.75-8.05,0-4.47.29-8.93.34-13.4l4.81.22c-.25,3.93-.54,8.56-.54,13.23,0,2.48,1.18,3.53,3.61,3.53,1.82,0,4.78-1.42,7.07-5.32l3.34,3.14c-3.29,4.81-7.09,6.65-10.87,6.65Z"/>
    <path class="cls-2" d="m32.84,520.18l4,.88c-.54,3.93-1.4,6.87-3.39,9.54l-3.75-2.43c1.89-2.85,2.55-5.2,3.14-8Zm7.09,6.92c1.01,0,1.55-.52,1.55-1.3,0-1.01-.47-1.64-1.84-2.9-1.28-1.18-1.99-2.6-1.99-3.97,0-1.28.74-3.04,2.21-4.1-1.33-.22-3.04-.34-5.1-.47l.47-4.15c6.23.39,9.67.93,13.18,1.74l-.69,4.22c-3.73-.32-5.94.83-5.94,2.43,0,1.06.81,1.69,2.08,2.8,1.35,1.15,2.53,2.53,2.53,4.76,0,3.09-2.18,5.1-5.59,5.1-1.52,0-3.19-.29-4.98-1.1l.66-4.15c1.13.52,2.5,1.08,3.46,1.08Zm9.23-7.8c2.18,2.4,3.53,5.1,4.12,8.29l-4.1,1.77c-.56-3.24-1.74-5.89-3.68-8.2l3.66-1.86Zm-.2-9.47c1.18.96,1.84,1.72,2.53,2.7l-1.59,1.23c-.59-.98-1.35-1.84-2.33-2.75l1.4-1.18Zm1.82-1.42c1.32.91,1.99,1.64,2.72,2.58l-1.59,1.28c-.69-.91-1.33-1.62-2.5-2.67l1.37-1.18Z"/>
    <path class="cls-2" d="m70.19,521.55c1.84,0,2.67-.96,2.67-2.26,0-1.18-.76-1.77-1.94-1.77-2.08,0-4.24.71-6.33,1.55,1.08,3.71,2.26,7.8,3.36,11.48l-4.51,1.33c-.88-3.26-1.99-7.31-3.04-11.07-1.91.76-3.41,1.35-5.18,2.18l-1.37-4.07c1.84-.64,3.29-1.2,5.45-2.01-.61-2.13-1.2-4.02-1.69-5.45l4.37-1.28c.42,1.37.96,3.14,1.55,5.15,1.23-.42,2.67-.88,4.05-1.23-.74-.88-1.89-1.99-3.04-3.07l3.41-2.45c1.15,1.03,2.63,2.6,3.61,3.93l-1.99,1.15c.64-.1,1.23-.17,1.74-.17,4.25,0,6.28,2.21,6.28,5.67,0,4.15-2.65,6.43-6.89,6.43-1.72,0-2.94-.25-3.88-.61l.22-3.93c.91.25,2.01.49,3.17.49Z"/>
    <path class="cls-2" d="m95.66,515.2l.88,2.18c-1.35,1.2-2.92,2.6-4.74,4.15.15-.02.29-.02.44-.02,1.94,0,2.58.91,2.58,2.23,0,.34-.05.83-.1,1.35-.05.54-.1,1.1-.1,1.52,0,.49.22.79,1.03.79,1.74,0,4.24-.27,5.86-.54v4.37c-1.74.22-4.54.42-6.75.42-2.94,0-4.32-1.01-4.32-2.87,0-.59.05-1.2.1-1.79.05-.54.1-1.05.1-1.52,0-.51-.12-.79-.66-.79-.64,0-1.33.47-2.77,1.79-1.74,1.57-3.53,3.39-5.42,5.33l-3.19-3.04c3.21-2.94,6.6-5.82,10.23-9.2-2.41.56-4.91.93-7.34,1.28l-.51-4.12c4.37-.39,8.39-.96,12.37-1.6-3.12-.27-6.23-.98-8.61-1.91l1.28-4.12c3.09,1.2,7.53,1.96,11.41,2.16l-.34,3.95c-.47.02-.93.02-1.42.02Z"/>
    <path class="cls-2" d="m116.93,515.71l.37.74c1.96-.34,3.83-.81,5.89-1.4l.32,3.66c-1.5.52-2.9.91-4.34,1.23.93,1.62,2.04,3.31,3.31,5.1l-3.24,2.58c-1.52-1.59-4.29-2.89-7.61-2.89-1.52,0-2.4.54-2.4,1.3,0,1.42,2.87,1.74,9.3,1.52l-.59,3.95c-9.27.49-13.25-1.3-13.25-5.28,0-3.34,2.94-4.81,6.45-4.81,2.77,0,4.24.39,5.5.86l.02-.02c-.34-.34-.79-.96-1.25-1.74-2.99.32-6.43.37-11.11.29l-.25-3.83c3.83.22,6.82.2,9.42-.02l-.37-.76c-2.82.2-5.59.12-8.93-.02l-.2-3.8c2.75.27,5.08.37,7.46.22-.44-.98-.81-1.87-1.05-2.55l4.07-.56c.25.79.54,1.69.93,2.7,2.01-.29,4.17-.74,6.7-1.35l.39,3.61c-2.04.59-3.83,1.01-5.54,1.3Z"/>
  </g>
  <g>
    <path class="cls-2" d="m245.12,43.3h4.12l6.41-9.3h1.05l-6.78,9.61,6.41,9.4h2.02v5.02h-.84v-4.2h-1.65l-6.62-9.74h-4.12v9.74h-.87v-19.83h.87v9.3Z"/>
    <path class="cls-2" d="m259.93,45.87c0-4.25,2.02-6.38,5.49-6.38s5.49,2.13,5.49,6.38v1.89c0,4.25-2.02,6.35-5.49,6.35s-5.49-2.1-5.49-6.35v-1.89Zm.84,2.02c0,3.6,1.68,5.44,4.65,5.44s4.65-1.89,4.65-5.44v-2.15c0-3.7-1.79-5.51-4.65-5.51s-4.65,1.84-4.65,5.51v2.15Z"/>
    <path class="cls-2" d="m275.03,39.78h.84v2.78c.79-1.76,2.52-3.07,4.78-3.07,3.6,0,5.28,2.84,5.28,6.54v1.55c0,3.99-1.73,6.54-5.23,6.54-2.31,0-3.99-1.29-4.83-3.15v8.69h-.84v-19.88Zm.84,4.75v4.52c.24,2.07,2.02,4.31,4.75,4.31,2.07,0,4.46-1.18,4.46-5.65v-1.81c0-2.68-1.13-5.65-4.49-5.65-2.71,0-4.49,2.13-4.73,4.28Z"/>
    <path class="cls-2" d="m296.69,47.29h-5.15v6.54h-.84v-6.54h-2.36v-.73h2.36v-6.78h8.64v.74h-7.8v6.04h5.15v.73Z"/>
    <path class="cls-2" d="m310.27,53.83v-2.34c-.92,1.76-2.76,2.63-4.94,2.63-2.57,0-4.25-1.44-4.25-3.89,0-2.71,1.81-4.02,5.49-4.02h3.7v-1.47c0-2.76-1-4.49-4.07-4.49-1.6,0-3.12.31-4.52,1.52v-.92c1.1-.89,2.47-1.37,4.62-1.37,3.49,0,4.81,1.79,4.81,5.2v9.14h-.84Zm0-3.7v-3.18h-3.65c-3.49,0-4.7,1.21-4.7,3.26s1.5,3.18,3.49,3.18,4.2-.89,4.86-3.26Z"/>
    <path class="cls-2" d="m324.77,40.44v.92c-1.31-.95-2.84-1.1-3.94-1.1-2.29,0-4.91,1-4.91,5.57v2c0,2.68,1.23,5.54,4.94,5.54,1.23,0,2.52-.29,3.89-1.16v.81c-.97.68-2.39,1.1-3.97,1.1-3.73,0-5.7-2.68-5.7-6.43v-1.73c0-3.94,1.89-6.46,5.72-6.46,1.31,0,2.81.29,3.97.95Z"/>
    <path class="cls-2" d="m335.85,32.88h.76l-9.09,25.24h-.79l9.11-25.24Z"/>
    <path class="cls-2" d="m366.49,49.76c0,2.94-1.18,4.07-3.62,4.07-2.02,0-3.02-.6-3.33-1.73-.39,1.1-1.47,1.73-3.49,1.73-1.92,0-2.73-.29-3.07-.87-.05,4.81-2.07,6.75-7.46,6.75s-7.12-1.89-7.12-6.35c0-2.99,1.1-5.09,1.1-5.09h.76s-1.1,2.44-1.1,5.09c0,3.97,1.65,5.49,6.38,5.49,4.96,0,6.7-1.63,6.7-5.96-.03-1.26-.26-3.12-.76-5.7h.76c.34,1.73.55,3.12.68,4.18.18,1.37,1.08,1.6,3.15,1.6,2.23,0,3.18-.68,3.18-2.63v-3.15h.71v3.15c0,1.94.71,2.63,2.92,2.63s2.89-.79,2.89-3.15c0-1.68-.58-3.57-.58-3.57h.74c.03.1.58,1.65.58,3.52Z"/>
    <path class="cls-2" d="m375.08,53.83c-3.39,0-4.67-1.02-4.67-4.54v-14.1h.76v13.97c0,3.1,1,3.81,3.91,3.81l.45.08v.71l-.45.08Z"/>
    <path class="cls-2" d="m387,52.07v.84c-3.28.71-6.07.92-11.92.92l-.45-.08v-.71l.45-.08c1.39,0,2.63,0,3.49-.03-1.05-.6-1.97-1.89-1.97-4.15,0-3.47,1.92-5.38,5.07-5.38,1.97,0,3.52,1.02,3.52,1.02v.87s-1.63-1-3.52-1c-2.65,0-4.36,1.6-4.36,4.49,0,2.49,1.29,4.1,4.33,4.02,1.68-.03,3.86-.42,5.36-.74Z"/>
    <path class="cls-2" d="m388.71,60.11c-1.63,0-2.34-.5-2.34-.5v-.84c.29.16,1.1.47,2.31.47,2.76,0,4.81-2.76,4.81-7.04,0-1.94-.29-3.36-.68-4.96h.74c.37,1.39.66,2.81.66,4.96,0,4.6-2.23,7.9-5.49,7.9Z"/>
    <path class="cls-2" d="m408.3,53.12v.63l-.45.08h-2.02c-.47,3.86-2.52,6.28-6.22,6.28-2.21,0-3.2-.79-3.2-.79v-.84c.63.39,1.87.76,3.18.76,3.39,0,5.15-2.1,5.57-5.44h-3.89c-2.94,0-4.15-1.16-4.15-3.57,0-2.94,1.89-5.04,4.41-5.04,2.84,0,4.41,2.52,4.41,6.15v.63c0,.34,0,.68-.03,1h1.94l.45.16Zm-3.07-.13c.03-.16.03-.34.03-.5v-1.18c0-2.97-1.29-5.25-3.75-5.25-2.13,0-3.68,1.71-3.68,4.15,0,1.89.87,2.78,3.49,2.78h3.91Z"/>
    <path class="cls-2" d="m417.2,46.69v1.26c0,4.57-1.47,5.88-6.59,5.88h-2.76l-.45-.08v-.71l.45-.08h2.73c4.7,0,5.93-1,5.93-4.73v-.47c-.53.97-1.84,1.5-3.75,1.5-2.76,0-3.91-1.08-3.91-3.47,0-2.81,1.79-4.81,4.17-4.81,2.71,0,4.18,2.34,4.18,5.7Zm-.68.39v-.47c0-2.73-1.18-4.73-3.52-4.73-1.97,0-3.47,1.6-3.47,3.89,0,1.84.84,2.68,3.28,2.68,2.31,0,3.28-.66,3.7-1.37Zm-4.83-9.06l-.87-.87.87-.84.89.84-.89.87Zm2.65,0l-.89-.87.89-.84.87.84-.87.87Z"/>
    <path class="cls-2" d="m428.39,32.88h.76l-9.09,25.24h-.79l9.11-25.24Z"/>
    <path class="cls-2" d="m453.52,44.88h-8.88v2.52h8.3v.6h-8.3v2.55h8.3v.6h-8.3v2.78h9.51v.66h-19.14v1.34h-.71v-9.61c-.89.95-1.86,1.84-2.84,2.57l-.39-.55c2.52-1.89,4.67-4.49,5.51-6.22l.58.29c-.26.55-.66,1.18-1.13,1.84h8.43c-.58-.63-1.23-1.21-1.79-1.63l.55-.39c.66.5,1.5,1.29,2.18,2.02h8.11v.63Zm-20.19-11.71h19.49v.66h-9.4v2.13h10.27v.03h.26v4.86h-.74v-4.23h-9.79v5.23h-.76v-5.23h-9.74v4.23h-.74v-4.86h.18v-.03h10.29v-2.13h-9.32v-.66Zm1.47,5.44h6.01v.6h-6.01v-.6Zm0,2.52h6.01v.6h-6.01v-.6Zm9.14,6.28v-2.52h-8.38l-.55.66v1.86h8.93Zm0,3.15v-2.55h-8.93v2.55h8.93Zm0,3.39v-2.78h-8.93v2.78h8.93Zm1.23-15.34h6.09v.6h-6.09v-.6Zm0,2.52h6.09v.6h-6.09v-.6Z"/>
    <path class="cls-2" d="m464.34,31.69l.74.24c-.45,1.21-.97,2.42-1.63,3.65h16.41v.66c-.87,1.84-2.23,3.99-3.52,5.59l-.66-.39c1.21-1.5,2.44-3.44,3.28-5.12h-15.91c-1.18,2.07-2.63,4.1-4.36,5.91l-.6-.55c2.89-3.07,5.07-6.75,6.25-9.98Zm-5.59,20.9l-.63-.52c2.26-2.68,4.28-6.12,5.23-8.85l.79.26c-1.05,2.78-3.1,6.41-5.38,9.11Zm11.34-12.97v12.47c0,2.78-.66,3.86-3.86,3.86-.71,0-1.55-.05-2.28-.13l-.05-.76c.66.08,1.5.13,2.21.13,2.65,0,3.18-.66,3.18-3.12v-12.45h.81Zm4.41,4.07l.68-.39c1.73,2.31,3.94,5.91,5.44,8.82l-.71.39c-1.47-2.94-3.65-6.51-5.41-8.82Z"/>
    <path class="cls-2" d="m495.96,46.43h11v.68h-10.35c2.05,2.39,6.04,5.12,10.74,6.93l-.29.71c-4.7-1.81-9.09-4.86-11.11-7.35v8.51h-.76v-8.51c-1.89,2.44-6.33,5.54-11.08,7.38l-.32-.71c4.7-1.84,8.75-4.52,10.74-6.96h-10.32v-.68h10.98v-3.41h-8.56v-9.77h17.91v9.77h-8.59v3.41Zm-.76-8.74v-3.76h-7.8v3.76h7.8Zm0,4.65v-3.99h-7.8v3.99h7.8Zm8.59-4.65v-3.76h-7.83v3.76h7.83Zm0,4.65v-3.99h-7.83v3.99h7.83Z"/>
    <path class="cls-2" d="m514.32,50.47l.58.47c-1.05,1.71-2.73,3.62-4.25,4.96l-.45-.63c1.5-1.29,3.07-3.07,4.12-4.81Zm-4.07-1.84h2.36v-12.66h-2.05v-.68h2.05v-3.2h.76v3.2h5.88v-3.2h.76v3.2h1.92v.68h-1.92v12.66h2.28v.66h-12.05v-.66Zm9.01-8.95v-3.7h-5.88v3.7h5.88Zm0,4.39v-3.75h-5.88v3.75h5.88Zm0,4.57v-3.94h-5.88v3.94h5.88Zm-1.71,2.39l.5-.47c.97.89,2.34,2.36,3.2,3.49l-.55.53c-.81-1.1-2.18-2.57-3.15-3.55Zm6.7-9.98v-6.17c2.99-.39,5.86-1.08,8.09-1.79l.26.71c-2.26.74-5.17,1.39-7.62,1.73v5.88h9.14v.71h-3.36v13.81h-.76v-13.81h-5.02c-.08,5.2-.63,9.74-2.89,13.63l-.63-.39c2.44-4.23,2.78-9.14,2.78-14.31Z"/>
  </g>
  <g>
    <path class="cls-2" d="m231.43,541.31h-3.33l-13.14-21.09v21.09h-3.33v-27.04h3.33l13.14,20.95v-20.95h3.33v27.04Z"/>
    <path class="cls-2" d="m248.48,541.31v-2.08c-1.25,1.75-3.22,2.61-5.73,2.61-4.4,0-6.41-2.04-6.41-5.51,0-4.3,2.76-6.02,8.2-6.02h3.94v-.64c0-3.19-.75-5.09-5.01-5.09-2.51,0-4.15.61-6.05,2.33v-3.26c1.5-1.22,3.08-2.01,6.66-2.01,5.98,0,7.74,2.36,7.74,7.84v11.82h-3.33Zm0-8.17h-4.12c-3.54,0-4.69.64-4.69,3.08,0,1.86,1.15,2.79,3.47,2.79s5.34-1.15,5.34-4.83v-1.04Z"/>
    <path class="cls-2" d="m257.29,522.15h3.33v2.4c1.32-1.79,3.33-2.9,6.02-2.9,4.83,0,7.02,2.97,7.02,7.99v11.67h-3.33v-11.42c0-3.65-2.18-5.12-4.51-5.12-2.61,0-5.08,1.83-5.19,5.08v11.46h-3.33v-19.16Z"/>
    <path class="cls-2" d="m293.03,524.48l-11.17,13.9h11.28v2.94h-15.36v-2.47l10.99-13.75h-10.71v-2.94h14.97v2.33Z"/>
    <path class="cls-2" d="m297.5,522.15h3.33v2.4c1.32-1.79,3.33-2.9,6.02-2.9,4.83,0,7.02,2.97,7.02,7.99v11.67h-3.33v-11.42c0-3.65-2.18-5.12-4.51-5.12-2.61,0-5.08,1.83-5.19,5.08v11.46h-3.33v-19.16Z"/>
    <path class="cls-2" d="m319.24,514.27h3.55v3.9h-3.55v-3.9Zm.11,7.88h3.33v19.16h-3.33v-19.16Z"/>
    <path class="cls-2" d="m328.33,522.15h3.33v2.4c1.32-1.79,3.33-2.9,6.02-2.9,4.83,0,7.02,2.97,7.02,7.99v11.67h-3.33v-11.42c0-3.65-2.18-5.12-4.51-5.12-2.61,0-5.08,1.83-5.19,5.08v11.46h-3.33v-19.16Z"/>
    <path class="cls-2" d="m366.33,540.63c0,5.05-2.97,9.06-9.38,9.06-2.29,0-4.62-.5-6.45-1.22v-3.12c2.18.97,4.76,1.36,6.52,1.36,4.66,0,5.98-2.58,5.98-6.3v-1.93c-1.29,1.93-3.15,3.37-5.91,3.37-5.12,0-7.81-3.47-7.81-8.92v-2.36c0-5.05,2.61-8.92,7.81-8.92,2.69,0,4.62,1.22,5.91,3.01v-2.51h3.33v18.48Zm-13.72-10.24v2.72c0,3.65,1.86,5.8,4.94,5.8s5.44-2.94,5.44-5.8v-3.44c-.36-2.83-2.79-5.09-5.37-5.09-3.08,0-5.01,2.15-5.01,5.8Z"/>
    <path class="cls-2" d="m385.88,524.48l-11.17,13.9h11.28v2.94h-15.36v-2.47l10.99-13.75h-10.71v-2.94h14.97v2.33Z"/>
  </g>
  <g>
    <path class="cls-2" d="m210.22,474.16h15.4v-3.67h2.88v3.67h15.36v2.62h-15.36v3.78h13.49v17.94c0,4.23-1.12,5.69-5.43,5.69-1.01,0-2.06-.04-2.92-.19l-.34-2.62c.9.15,1.91.19,2.85.19,2.32,0,3-.49,3-3.37v-15.1h-24.16v21.24h-2.81v-23.79h13.45v-3.78h-15.4v-2.62Zm7.6,14.61h4.79c-.75-1.2-1.87-2.58-2.96-3.63l1.99-1.24c1.12,1.2,2.4,2.85,3.22,4.12l-1.46.75h5.06c1.42-1.42,3.03-3.6,3.75-5.06l2.25,1.16c-.71,1.16-1.76,2.58-3,3.9h4.83v2.25h-7.98v4.05h9.1v2.32h-9.1v6.07h-2.66v-6.07h-8.95v-2.32h8.95v-4.05h-7.83v-2.25Z"/>
    <path class="cls-2" d="m247.98,484.53h33.04v2.7h-14.53v11.2c0,4.2-1.54,5.88-7.16,5.88-1.09,0-2.17-.11-3.18-.26l-.3-2.85c1.05.19,2.29.3,3.33.3,3.37,0,4.23-.52,4.23-3.11v-11.16h-15.43v-2.7Zm.79-10.15h14.46c-.64-1.09-1.42-2.32-2.06-3.22l2.81-1.01c.79,1.09,1.72,2.66,2.47,4.23h13.52v7.72h-3.15v-5.06h-24.95v5.06h-3.11v-7.72Z"/>
    <path class="cls-2" d="m285.51,475.09h15.58c-.49-1.31-1.12-2.77-1.61-3.86l2.85-.71c.56,1.2,1.27,2.88,1.8,4.57h14.31v2.66h-15.1v5.36h11.99v11.69c0,4.12-.82,5.92-5.13,5.92-1.05,0-2.1-.11-3.11-.26l-.41-2.85c1.05.19,2.1.26,3.11.26,2.29,0,2.62-.67,2.62-3.15v-8.99h-9.1v18.99h-2.88v-18.99h-8.99v15.1h-2.92v-17.72h11.91v-5.36h-14.91v-2.66Z"/>
    <path class="cls-2" d="m329.67,486.63c0-7.72,2.47-12.96,5.77-17.23h3.6c-3.07,3.9-5.51,10-5.51,17.23s2.77,15.21,5.51,19.1h-3.6c-3.18-3.82-5.77-11.35-5.77-19.1Z"/>
    <path class="cls-2" d="m346.67,475.58c1.61.97,3.26,2.1,4.68,3.18l-2.51,1.57c-1.8-1.57-4.01-3.22-6.29-4.65,2.4-1.5,4.5-3.03,6.11-4.61l2.7,1.24c-1.31,1.05-3.03,2.29-4.68,3.26Zm13.34,28.17h-3.26c-10.83,0-12.14-.82-12.14-5.06v-9.1h26.9v7.64h-24.5v1.2c0,2.62.71,2.88,9.96,2.88h3.07c11.54,0,12.02-.22,12.02-3.18l2.36.41c0,4.98-2.36,5.21-14.42,5.21Zm-14.27-23.38h24.65v7.12h-24.65v-7.12Zm11.16,14.65v-3.22h-9.89v3.22h9.89Zm11.09-9.74v-2.7h-19.85v2.7h19.85Zm-10.53-9.7c1.61.94,3.33,2.1,4.79,3.11l-2.47,1.61c-1.83-1.57-4.16-3.22-6.44-4.57,2.4-1.54,4.5-3.07,6.11-4.65l2.74,1.24c-1.31,1.05-3.04,2.25-4.72,3.26Zm11.65,19.44v-3.22h-10v3.22h10Zm-.79-19.44c1.69.9,3.48,2.06,4.95,3.07l-2.47,1.65c-1.87-1.54-4.27-3.15-6.67-4.53,2.44-1.57,4.53-3.15,6.14-4.68l2.73,1.24c-1.31,1.05-3,2.21-4.68,3.26Z"/>
    <path class="cls-2" d="m382.74,486.63c0-7.23-2.43-13.34-5.51-17.23h3.6c3.3,4.27,5.77,9.51,5.77,17.23s-2.58,15.28-5.77,19.1h-3.6c2.73-3.9,5.51-11.84,5.51-19.1Z"/>
  </g>
  <g>
    <path class="cls-2" d="m492.65,123.99l3.33-3.91c1.97,1.17,4.82,3.18,6.58,4.64l-3.22,3.95c-1.72-1.46-4.68-3.51-6.69-4.68Zm4.31,14.22v-4.42h-3.8v-4.71h8.92v7.27c1.5,3.22,5.01,4.2,13.19,4.2h1.83c3.84,0,7.2-.18,10.01-.55l-.55,5.77c-2.23.26-5.77.4-9.28.4h-2.08c-7.6,0-12.32-1.17-14.91-4.2-1.39,1.35-2.85,2.92-4.2,4.46l-3.33-4.53c1.32-1.24,2.85-2.56,4.2-3.69Zm-3.22-21.67l3.29-3.95c2.01,1.17,4.82,3.14,6.61,4.64l-3.25,3.98c-1.68-1.46-4.64-3.51-6.65-4.68Zm10.71.51h7.64v-4.31h5.55v4.31h7.67v21.31h-20.87v-21.31Zm8.22,8.19v-3.65h-3.51v3.65h3.51Zm0,8.41v-4.17h-3.51v4.17h3.51Zm7.93-8.41v-3.65h-3.58v3.65h3.58Zm0,8.41v-4.17h-3.58v4.17h3.58Z"/>
    <path class="cls-2" d="m497.36,174.57c-.99,1.17-2.05,2.34-3.22,3.51l-2.27-5.85c4.64-4.75,7.93-10.16,9.58-15.64l5.26,1.21c-.95,3.22-2.23,6.18-3.87,9.1v23.72h-5.48v-16.04Zm21.71,15.97h-1.46c-5.41,0-7.67-1.57-7.67-7.78v-5.81c-1.5.8-3.11,1.61-4.79,2.38l-2.27-5.04c2.52-1.1,4.86-2.23,7.05-3.47v-13.63h5.56v10.12c2.92-2.05,5.52-4.24,7.82-6.47l3.36,4.2c-3.18,3-6.8,5.92-11.18,8.66v8.73c0,2.05.58,2.45,2.34,2.45h1.21c1.9,0,2.45-.84,2.34-6.98l5.26,1.28c0,9.61-2.08,11.37-7.56,11.37Z"/>
    <path class="cls-2" d="m499.08,200.38l3.33,4.28c-1.86,3.44-5.01,7.38-8.11,10.31l-1.68-6.43c2.48-2.23,4.86-5.19,6.47-8.15Zm-3.29,22.88c-.58.58-1.17,1.13-1.79,1.64l-1.28-5.92c2.85-2.48,5.45-5.63,7.46-8.73l2.23,3.65v-2.41h4.35v-3.07h-3.84v-4.31h3.84v-3.18h5.15v3.18h3.47v4.31h-3.47v3.07h3.98v4.46h-13.48v-.88c-.44.73-.95,1.46-1.46,2.19v17.21h-5.15v-11.22Zm20.83-11.66h9.79v5.48h-2.05v11.26c0,4.24-1.06,6.03-5.63,6.03-.73,0-1.68-.04-2.45-.15l-.33-3c-4.46.77-8.99,1.21-13.49,1.53l-.18-4.9,4.35-.33v-3.51h-3.76v-4.53h3.76v-2.56h5.19v2.56h3.73v4.53h-3.73v2.92c1.43-.15,2.81-.33,4.24-.55l.11,2.05c.55.07,1.1.11,1.57.11,1.02,0,1.28-.29,1.28-1.79v-9.68h-2.41v-5.48Zm.22-9.03h8.95v5.45h-8.95v-5.45Z"/>
    <path class="cls-2" d="m494.44,269.42h30.55v5.55h-30.55v-5.55Zm2.05-21.01h26.46v5.44h-26.46v-5.44Z"/>
    <path class="cls-2" d="m506.06,287.99l2.19,4.31c-1.75.73-4.97,1.57-7.75,2.16v2.3h6.98v4.39h-6.98v2.78h7.02v4.46h-7.02v3.18c2.7-.26,5.37-.55,7.56-.8l.47,5.01c-2.12.33-5.04.66-8.04.99v5.41h-5.41v-4.86c-.73.07-1.42.15-2.12.18l-.48-5.26c.8-.07,1.68-.11,2.59-.18v-21.23c4.09-.69,8.26-1.68,10.96-2.81Zm8.08,26.64c-1.57-1.86-2.81-4.02-3.62-6.43h-1.79v-4.53h1.75l-2.56-4.24c2.63-1.35,3.22-2.49,3.22-4.93v-4.82h12.61v6.18c0,1.64.22,1.97,1.83,1.97h1.13v4.75h-2.85c-3.69,0-4.97-1.46-4.97-5.41v-2.85h-2.96v1.1c0,3.91-1.46,6.25-5.15,8.26h14.65v4.2c-.69,2.52-2.01,4.82-3.76,6.83,1.68.88,3.58,1.57,5.55,2.19l-1.54,5.3c-2.85-.91-5.52-2.27-7.86-4.02-2.34,1.72-5.12,3.11-8.15,4.09l-1.79-5.19c2.3-.66,4.38-1.43,6.25-2.45Zm3.69-2.74c1.02-1.02,1.83-2.27,2.41-3.69h-4.75c.55,1.46,1.35,2.67,2.34,3.69Z"/>
  </g>
  <g>
    <path class="cls-2" d="m245.75,286.69v-1.94c-.42.33-.83.67-1.29,1l-.92-1.27c2.6-1.81,4.56-3.83,5.89-6.12l1.52.42c-.23.4-.48.79-.73,1.19h8.08v.98c-.54.79-1.37,1.75-2.23,2.58h5.6v1.39h-14.36v1.87c0,4.5-.42,7.24-2.35,10.45l-1.39-.9c1.89-3.06,2.19-5.49,2.19-9.66Zm8.28-3.16c.77-.69,1.52-1.48,2.14-2.23h-6.93c-.6.77-1.29,1.5-2.08,2.23h6.87Zm2.91,13.36h-3.14c-3.35,0-4.33-.92-4.33-3.33v-6.68h9.78v3.08c0,2.04-.58,2.83-3.21,2.83-.67,0-1.25-.04-1.77-.12l-.15-1.37c.69.08,1.27.12,1.83.12,1.5,0,1.77-.27,1.77-1.6v-1.56h-6.72v5.04c0,1.71.35,2.21,2.89,2.21h2.96c2.98,0,3.33-.38,3.33-2.77l1.5.29c0,2.91-.71,3.87-4.75,3.87Z"/>
    <path class="cls-2" d="m266.29,292.31l1.31.71c-.56,1.23-1.46,2.6-2.33,3.71l-1.19-.94c.85-1.06,1.69-2.35,2.21-3.48Zm3.79-13.99l1.33.56c-.29.42-.6.83-.96,1.25h7.58v1.19c-.44.58-1.08,1.31-1.75,1.96h4.37v7.58h-14.84v-1.35h13.4v-1.85h-12.59v-1.29h12.59v-1.77h-12.82v-.79c-.33.23-.67.46-1.02.67l-.83-1.08c2.33-1.39,4.23-3.04,5.54-5.06Zm4.27,4.95c.69-.6,1.35-1.27,1.85-1.87h-6.89c-.67.67-1.37,1.29-2.17,1.87h7.2Zm-5.74,11.05v-2.21h1.6v1.96c0,1.5.33,1.67,2.48,1.67h1.46c2.85,0,3.12-.23,3.12-2.37l1.56.29c0,2.79-.85,3.48-4.27,3.48h-2.02c-3,0-3.93-.52-3.93-2.81Zm3.29-2.19l.89-1.04c.98.67,2.04,1.52,3,2.35l-.87,1.08c-.96-.83-2.08-1.75-3.02-2.39Zm7.51.85l1.25-.85c.79,1,1.75,2.31,2.44,3.5l-1.23.92c-.71-1.19-1.62-2.54-2.46-3.56Z"/>
    <path class="cls-2" d="m285.72,279.76h6.54v16.4h-1.56v-1.48h-3.41v1.48h-1.56v-16.4Zm4.97,6.66v-5.2h-3.41v5.2h3.41Zm0,6.79v-5.37h-3.41v5.37h3.41Zm2.35-11.07h6.78v-3.7h1.58v3.7h2.35v1.48h-2.35v10.22c0,2.31-.79,3.33-3.29,3.33-.52,0-1.25-.04-1.81-.1l-.19-1.6c.6.08,1.29.12,1.89.12,1.44,0,1.81-.4,1.81-1.81v-10.16h-6.78v-1.48Zm.83,4.41l1.35-.77c.83,1.27,1.87,3.21,2.66,4.97l-1.39.71c-.69-1.58-1.71-3.5-2.62-4.91Z"/>
    <path class="cls-2" d="m306.56,297.01l-.21-1.52c.33.06.73.08,1.12.08.98,0,1.14-.21,1.14-1.42v-4.06c-.83.29-1.64.56-2.39.79l-.42-1.42c.85-.25,1.83-.56,2.81-.89v-4.58h-2.58v-1.44h2.58v-4.06h1.58v4.06h2.04v1.44h-2.04v3.98c.75-.29,1.46-.58,2.1-.87l.44,1.37c-.75.35-1.62.71-2.54,1.06v4.91c0,1.81-.58,2.64-2.6,2.64-.35,0-.73-.02-1.04-.08Zm6.01-2.14h6.18c.85-2.96,1.79-6.89,2.44-10.3l1.5.33c-.56,3.1-1.48,6.85-2.35,9.97h4.14v1.54h-11.91v-1.54Zm.35-12.76h4.95c-.35-1.12-.83-2.37-1.27-3.31l1.58-.48c.46,1.02,1.02,2.48,1.42,3.79h4.5v1.44h-11.18v-1.44Zm1.33,3.04l1.48-.46c.52,2.06,1.21,5.22,1.77,7.95l-1.5.37c-.54-2.71-1.25-5.81-1.75-7.87Z"/>
    <path class="cls-2" d="m327.27,297.05l-.21-1.6c.35.06.75.08,1.14.08,1.04,0,1.25-.21,1.25-1.44v-3.96c-.85.31-1.67.58-2.41.81l-.44-1.48c.87-.25,1.85-.56,2.85-.94v-4.52h-2.62v-1.46h2.62v-4.08h1.56v4.08h2.21v1.46h-2.21v3.93c.71-.29,1.37-.58,1.98-.85l.46,1.42c-.73.35-1.56.71-2.43,1.04v4.87c0,1.87-.56,2.71-2.66,2.71-.38,0-.75-.02-1.08-.08Zm6.72-4v-13.4h10.53v8.68h-8.97v4.52c0,2.35.62,2.64,3.48,2.64h1.33c3.02,0,3.48-.5,3.48-3.64l1.56.29c0,3.85-1.06,4.91-4.85,4.91h-1.48c-3.91,0-5.08-.73-5.08-4Zm4.47-6.08v-5.95h-2.91v5.95h2.91Zm4.52,0v-5.95h-3v5.95h3Z"/>
    <path class="cls-2" d="m349.08,284.84h7.06v-3.39c-2.48.17-5.06.27-7.45.33l-.12-1.54c5.22-.08,11.41-.52,15.71-1.08l.33,1.54c-1.94.25-4.29.46-6.78.65v3.5h6.76v1.48h-6.76v3.56h8.14v1.52h-8.14v2.54c0,2.29-.85,3.23-3.77,3.23-.71,0-1.39-.04-2.02-.1l-.19-1.62c.67.08,1.44.12,2.1.12,1.75,0,2.19-.33,2.19-1.71v-2.46h-8.49v-1.52h8.49v-3.56h-7.06v-1.48Z"/>
    <path class="cls-2" d="m372.5,296.51h-1.17v-2.56h2.43v1.66c0,1.6-.73,2.96-2.33,3.71l-.48-.83c1-.46,1.54-1.19,1.54-1.98Z"/>
    <path class="cls-2" d="m389.01,293.1l1.31-.17v-12.15h-1.04v-1.35h7.78v1.35h-.98v11.43l1.33-.17.08,1.42-1.42.19v3.66h-1.5v-3.48l-5.45.69-.12-1.42Zm5.58-9.24v-3.08h-2.79v3.08h2.79Zm0,4.37v-3.08h-2.79v3.08h2.79Zm0,4.16v-2.87h-2.79v3.23l2.79-.35Zm2.21-4.5h4.52c.02-.31.02-.62.02-.96v-2.98h-4.14v-1.37h2.91c-.58-1.19-1.23-2.21-2-3.27l1.19-.73c.77,1.08,1.39,2.16,2.02,3.41l-.92.58h2.27c.85-1.17,1.73-2.85,2.21-4.08l1.31.56c-.5,1.12-1.17,2.44-1.85,3.52h2.79v1.37h-4.25v3.08c0,.29,0,.58-.02.85h4.81v1.39h-4.64c.58,2.73,2.39,4.89,5,6.74l-.92,1.35c-2.43-1.73-4.08-3.85-4.91-6.18-.85,2.41-2.52,4.47-4.95,6.18l-.89-1.27c2.6-1.79,4.27-3.71,4.81-6.83h-4.35v-1.39Z"/>
    <path class="cls-2" d="m411.18,296.7l-.94-1.21c1.73-1.12,3.39-2.69,4.37-3.83l1.12.9c-1.08,1.35-2.83,2.96-4.56,4.14Zm7.47-10.8c-2.23.17-4.77.27-6.76.29l-.15-1.17c2.08-1.02,4.06-2.37,5.66-3.7-2.02.15-4.06.23-5.93.25l-.17-1.5c5.29-.08,11.53-.52,15.65-1.1l.27,1.37c-2.06.29-4.7.58-7.47.81-1.67,1.46-3.71,2.79-5.39,3.75,2.08-.08,4.43-.21,6.31-.37,1.27-.9,2.44-1.85,3.56-2.85l1.08,1.06c-3.52,3.04-7.01,5.16-10.59,6.72,3.08-.15,6.45-.33,9.43-.52-.69-.75-1.35-1.46-1.96-2.06l1.19-.79c1.46,1.44,3.12,3.33,4.23,4.75l-1.15.87c-.37-.5-.81-1.02-1.25-1.56-1.56.12-3.25.25-5,.33v4.06c0,1.89-.73,2.71-3.1,2.71-.56,0-1.08-.04-1.5-.1l-.12-1.54c.5.06,1.02.1,1.52.1,1.27,0,1.6-.27,1.6-1.31v-3.83c-2.44.12-4.87.23-7.08.27l-.12-1.21c2.71-1.1,5.1-2.35,7.24-3.72Zm4,6.66l1.06-1.02c1.48,1.04,3.29,2.66,4.47,3.93l-1.06,1.12c-1.23-1.33-2.98-2.93-4.47-4.04Z"/>
    <path class="cls-2" d="m243.67,319.58h8.2v-12.65h-7.24v-1.54h16.19v1.54h-7.2v12.65h8.16v1.56h-18.11v-1.56Z"/>
    <path class="cls-2" d="m267.23,310.78c-.65.94-1.37,1.85-2.14,2.71l-1.12-1.29c2.35-2.48,4.25-5.7,5.1-8.7l1.54.37c-.42,1.37-1,2.83-1.77,4.27v14.17h-1.6v-11.53Zm6.33-7.53l1.52.29c-.17.81-.42,1.69-.75,2.58h8.43v1.44h-6.7v3.89h5.83v1.37h-5.83v3.91h6.04v1.39h-6.04v4.2h-1.52v-14.78h-.77c-.67,1.58-1.54,3.14-2.48,4.37l-1.27-.98c1.79-2.33,2.98-5.25,3.54-7.7Z"/>
    <path class="cls-2" d="m293.44,306.43v-3.14h1.73v3.1c0,.33,0,.67-.02,1,.4,6.06,3.73,10.41,8.93,13.3l-1.04,1.48c-4.39-2.52-7.33-5.99-8.66-10.22-1.33,4.37-4.35,7.72-8.66,10.28l-.98-1.5c5.31-3,8.7-7.28,8.7-14.3Z"/>
    <path class="cls-2" d="m314.3,314.58v-.85h1.64v.87c0,4.54-2.89,6.64-9.43,7.62l-.44-1.58c5.68-.81,8.22-2.21,8.22-6.06Zm-6.37,3.89v-7.29h14.49v7.29h-1.64v-5.81h-11.22v5.81h-1.62Zm.77-14.38h12.95v5.31h-12.95v-5.31Zm11.32,3.87v-2.44h-9.72v2.44h9.72Zm-4.12,11.66l.65-1.46c2.23.62,5.47,1.64,7.72,2.52l-.58,1.54c-2.31-.9-5.54-1.94-7.78-2.6Z"/>
    <path class="cls-2" d="m330.52,310.17v8.82c.62-.52,1.31-1.14,1.92-1.83l.83,1.19c-.98,1.04-2.56,2.33-3.93,3.27l-.71-1.19c.33-.35.42-.62.42-1.33v-7.49h-2.62v-1.44h4.1Zm-3.02-5.58l1.25-.85c.9,1.04,2.04,2.62,2.85,3.91l-1.19.92c-.83-1.33-2-2.91-2.91-3.98Zm5.16.44h5.52v-1.58h1.44v1.58h5.54v1.29h-5.54v1.31h4.91v1.27h-4.91v1.39h5.93v1.29h-13.28v-1.29h5.91v-1.39h-4.89v-1.27h4.89v-1.31h-5.52v-1.29Zm9.18,15.73c.79,0,.94-.21.94-1.23v-.48h-7.78v3.16h-1.42v-9.45h10.66v6.85c0,1.92-.6,2.56-2.37,2.56-.54,0-1.1-.04-1.48-.08l-.17-1.44c.48.06,1.02.1,1.62.1Zm.94-5.39v-1.27h-7.78v1.27h7.78Zm0,2.48v-1.27h-7.78v1.27h7.78Z"/>
    <path class="cls-2" d="m348.23,322.16l-.21-1.54c.38.04.81.08,1.25.08.81,0,.98-.21.98-1.31v-4.18c-.79.29-1.56.56-2.25.79l-.42-1.42c.81-.23,1.73-.56,2.66-.92v-4.7h-2.44v-1.44h2.44v-4.04h1.52v4.04h1.87v1.44h-1.87v4.1c.6-.25,1.17-.5,1.69-.75l.44,1.35c-.62.31-1.35.65-2.12.96v5.06c0,1.71-.46,2.54-2.42,2.54-.37,0-.79-.02-1.12-.06Zm12.38-3.02c-1.6,1.42-3.72,2.39-6.45,3.12l-.52-1.44c2.35-.62,4.16-1.39,5.58-2.46-1.27-.67-2.58-1.33-3.85-1.89.67-1.19,1.25-2.42,1.75-3.62h-3.02v-1.39h3.56c.44-1.19.75-2.31.98-3.31l1.46.33c-.23.96-.54,1.98-.9,2.98h7.14v1.39h-2.21c-.52,2.12-1.31,3.81-2.43,5.16,1.52.83,3.14,1.79,4.66,2.79l-.83,1.35c-1.62-1.08-3.21-2.06-4.91-3.02Zm-5.89-13.28h4.83c-.19-.73-.5-1.58-.75-2.23l1.48-.33c.27.69.58,1.69.79,2.56h4.68v4.31h-1.5v-2.96h-8.05v2.96h-1.48v-4.31Zm5.64,11.47c1.06-1.17,1.79-2.6,2.29-4.47h-4c-.44,1.08-.94,2.1-1.42,2.98.92.4,1.98.92,3.12,1.5Z"/>
    <path class="cls-2" d="m369.05,322.16l-.21-1.54c.38.04.81.08,1.25.08.81,0,.98-.21.98-1.31v-4.18c-.79.29-1.56.56-2.25.79l-.42-1.42c.81-.23,1.73-.56,2.66-.92v-4.7h-2.44v-1.44h2.44v-4.04h1.52v4.04h1.87v1.44h-1.87v4.1c.6-.25,1.17-.5,1.69-.75l.44,1.35c-.62.31-1.35.65-2.12.96v5.06c0,1.71-.46,2.54-2.42,2.54-.37,0-.79-.02-1.12-.06Zm12.38-3.02c-1.6,1.42-3.73,2.39-6.45,3.12l-.52-1.44c2.35-.62,4.16-1.39,5.58-2.46-1.27-.67-2.58-1.33-3.85-1.89.67-1.19,1.25-2.42,1.75-3.62h-3.02v-1.39h3.56c.44-1.19.75-2.31.98-3.31l1.46.33c-.23.96-.54,1.98-.9,2.98h7.14v1.39h-2.21c-.52,2.12-1.31,3.81-2.43,5.16,1.52.83,3.14,1.79,4.66,2.79l-.83,1.35c-1.62-1.08-3.21-2.06-4.91-3.02Zm-5.89-13.28h4.83c-.19-.73-.5-1.58-.75-2.23l1.48-.33c.27.69.58,1.69.79,2.56h4.68v4.31h-1.5v-2.96h-8.05v2.96h-1.48v-4.31Zm5.64,11.47c1.06-1.17,1.79-2.6,2.29-4.47h-4c-.44,1.08-.94,2.1-1.42,2.98.92.4,1.98.92,3.12,1.5Z"/>
    <path class="cls-2" d="m392.09,303.47l1.5.25c-.21.77-.5,1.58-.85,2.37h3.7v1.39h-4.37c-.42.77-.87,1.52-1.39,2.27h5.27v1.33h-2.37v2.75h2.93v1.39h-2.93v4.6c.71-.44,1.54-1,2.27-1.56l.67,1.23c-1.06.85-2.79,1.92-4.27,2.64l-.58-1.19c.38-.31.46-.54.46-1.27v-4.45h-2.29v-1.39h2.29v-2.75h-1.48v-1.27c-.21.29-.42.6-.65.89l-.92-1.25c1.42-1.81,2.52-4.08,3.02-5.99Zm4.12,16.57h2.77l.44-6.72h-2.37v-1.39h2.46l.38-5.81h-2.93v-1.39h9.66l-.52,15.32h2.21v1.46h-12.07v-1.46Zm8.35,0l.23-6.72h-3.87l-.44,6.72h4.08Zm.27-8.12l.21-5.81h-3.66l-.37,5.81h3.83Z"/>
    <path class="cls-2" d="m412.33,319.6c0-1.52,1.19-2.69,2.71-2.69s2.68,1.17,2.68,2.69-1.17,2.66-2.68,2.66-2.71-1.17-2.71-2.66Zm4.18,0c0-.88-.65-1.54-1.48-1.54s-1.5.67-1.5,1.54.65,1.54,1.5,1.54,1.48-.67,1.48-1.54Z"/>
  </g>
  <rect class="cls-2" x="-26.96" y="371.98" width="620.86" height="7.65"/>
  <g>
    <g>
      <path class="cls-2" d="m449.25,408.05c1.34.86,2.79,1.44,4.52,1.44,2.01,0,3.25-1.03,3.25-2.58,0-1.68-.8-2.22-3.1-2.49l-.96-.11c-2.28-.27-3.79-1.59-3.79-4,0-2.6,2.2-4.09,4.94-4.09,1.82,0,3.04.4,4.09,1.11v1.93c-1.24-.86-2.53-1.42-4.04-1.42-2.01,0-3.1.82-3.1,2.51s.61,2.07,2.77,2.33l.96.12c2.39.29,4.13,1.28,4.13,3.98s-2.32,4.33-5.32,4.33c-1.66,0-2.97-.34-4.36-1.11v-1.93Z"/>
      <path class="cls-2" d="m461.33,396.44h1.78v5.49c.71-.96,1.78-1.55,3.21-1.55,2.58,0,3.75,1.59,3.75,4.27v6.24h-1.78v-6.1c0-1.95-1.17-2.74-2.41-2.74-1.4,0-2.72.98-2.77,2.72v6.12h-1.78v-14.45Z"/>
      <path class="cls-2" d="m481.27,406.54h-6.96c.02,1.95,1.32,3.06,3.14,3.06,1.3,0,2.26-.11,3.58-.92v1.59c-1.13.65-2.14.9-3.75.9-2.72,0-4.75-1.67-4.75-4.76v-1.26c0-2.91,1.84-4.76,4.36-4.76s4.38,1.47,4.38,4.57v1.59Zm-6.96-1.51h5.19v-.17c0-1.95-.96-2.91-2.6-2.91s-2.58,1.15-2.58,3.08Z"/>
      <path class="cls-2" d="m492.33,410.88h-1.78v-1.19c-.65.9-1.63,1.45-3,1.45-2.58,0-3.87-1.59-3.87-4.27v-6.24h1.78v6.3c0,1.95,1.17,2.54,2.41,2.54,1.44,0,2.68-1.01,2.68-2.85v-5.99h1.78v10.24Z"/>
      <path class="cls-2" d="m495.36,400.65h1.78v1.28c.71-.96,1.78-1.55,3.21-1.55,2.58,0,3.75,1.59,3.75,4.27v6.24h-1.78v-6.1c0-1.95-1.17-2.74-2.41-2.74-1.4,0-2.72.98-2.77,2.72v6.12h-1.78v-10.24Z"/>
      <path class="cls-2" d="m515.66,410.52c0,2.7-1.59,4.84-5.01,4.84-1.22,0-2.47-.27-3.44-.65v-1.67c1.17.52,2.54.73,3.48.73,2.49,0,3.2-1.38,3.2-3.37v-1.03c-.69,1.03-1.68,1.8-3.16,1.8-2.74,0-4.17-1.86-4.17-4.76v-1.26c0-2.7,1.4-4.76,4.17-4.76,1.44,0,2.47.65,3.16,1.61v-1.34h1.78v9.87Zm-7.33-5.47v1.45c0,1.95,1,3.1,2.64,3.1s2.91-1.57,2.91-3.1v-1.84c-.19-1.51-1.49-2.72-2.87-2.72-1.65,0-2.68,1.15-2.68,3.1Z"/>
      <path class="cls-2" d="m523.07,408.05c1.34.86,2.79,1.44,4.52,1.44,2.01,0,3.25-1.03,3.25-2.58,0-1.68-.8-2.22-3.1-2.49l-.96-.11c-2.28-.27-3.79-1.59-3.79-4,0-2.6,2.2-4.09,4.94-4.09,1.82,0,3.04.4,4.09,1.11v1.93c-1.24-.86-2.53-1.42-4.04-1.42-2.01,0-3.1.82-3.1,2.51s.61,2.07,2.77,2.33l.96.12c2.39.29,4.13,1.28,4.13,3.98s-2.32,4.33-5.32,4.33c-1.66,0-2.97-.34-4.36-1.11v-1.93Z"/>
      <path class="cls-2" d="m535.15,396.44h1.78v5.49c.71-.96,1.78-1.55,3.21-1.55,2.58,0,3.75,1.59,3.75,4.27v6.24h-1.78v-6.1c0-1.95-1.17-2.74-2.41-2.74-1.4,0-2.72.98-2.77,2.72v6.12h-1.78v-14.45Z"/>
      <path class="cls-2" d="m555.37,410.88h-1.78v-1.19c-.65.9-1.63,1.45-3,1.45-2.58,0-3.87-1.59-3.87-4.27v-6.24h1.78v6.3c0,1.95,1.17,2.54,2.41,2.54,1.43,0,2.68-1.01,2.68-2.85v-5.99h1.78v10.24Z"/>
      <path class="cls-2" d="m558.34,396.44h1.89v2.08h-1.89v-2.08Zm.06,4.21h1.78v10.24h-1.78v-10.24Z"/>
      <path class="cls-2" d="m486.9,432.99h6.95v-15.31h1.59v6.24h7.18v1.43h-7.18v7.63h8.27v1.45h-16.8v-1.45Z"/>
      <path class="cls-2" d="m510.56,423.65h-4.42v-1.44h5.95v1.26c-.27,2.83-1.89,6.74-5.36,9.91l-1.13-1.11c3-2.6,4.57-5.87,4.96-8.63Zm.02,11.46l-.15-1.53c.55.06,1.17.08,1.65.08,1.28,0,1.61-.25,1.61-1.3v-14.54h1.63v14.7c0,1.93-.77,2.68-3.1,2.68-.59,0-1.13-.02-1.63-.08Zm5.68-11.02c1.84-1.03,3.81-2.51,5.11-3.81l1.07,1.03c-1.09,1.07-2.95,2.49-4.42,3.39.75,2.32,2.58,5.05,5.24,7.37l-1.01,1.24c-3.08-2.81-5.24-6.31-5.99-9.22Z"/>
    </g>
    <g>
      <circle class="cls-1" cx="504.7" cy="375.64" r="10.01"/>
      <path class="cls-2" d="m504.7,386.74c-6.12,0-11.1-4.98-11.1-11.1s4.98-11.1,11.1-11.1,11.1,4.98,11.1,11.1-4.98,11.1-11.1,11.1Zm0-20.02c-4.92,0-8.92,4-8.92,8.92s4,8.92,8.92,8.92,8.92-4,8.92-8.92-4-8.92-8.92-8.92Z"/>
    </g>
  </g>
  <g>
    <g>
      <path class="cls-2" d="m368.58,404.32h-6.28v6.56h-1.88v-14.45h8.71v1.68h-6.83v4.55h6.28v1.65Z"/>
      <path class="cls-2" d="m376.79,410.88v-1.11c-.67.94-1.72,1.4-3.06,1.4-2.35,0-3.42-1.09-3.42-2.95,0-2.3,1.47-3.21,4.38-3.21h2.1v-.34c0-1.7-.4-2.72-2.68-2.72-1.34,0-2.22.33-3.23,1.24v-1.74c.8-.65,1.65-1.07,3.56-1.07,3.2,0,4.13,1.26,4.13,4.19v6.31h-1.78Zm0-4.36h-2.2c-1.89,0-2.51.34-2.51,1.65,0,1,.61,1.49,1.86,1.49s2.85-.61,2.85-2.58v-.55Z"/>
      <path class="cls-2" d="m381.5,400.65h1.78v1.28c.71-.96,1.78-1.55,3.21-1.55,2.58,0,3.75,1.59,3.75,4.27v6.24h-1.78v-6.1c0-1.95-1.17-2.74-2.41-2.74-1.4,0-2.72.98-2.77,2.72v6.12h-1.78v-10.24Z"/>
      <path class="cls-2" d="m393.1,396.44h1.78v11.56c0,1.15.19,1.59.98,1.59.42,0,.75-.08.96-.17v1.53c-.25.11-.71.23-1.17.23-2.07,0-2.54-1.05-2.54-3.06v-11.67Z"/>
      <path class="cls-2" d="m398.59,396.44h1.89v2.08h-1.89v-2.08Zm.06,4.21h1.78v10.24h-1.78v-10.24Z"/>
      <path class="cls-2" d="m403.46,400.65h1.78v1.28c.71-.96,1.78-1.55,3.21-1.55,2.58,0,3.75,1.59,3.75,4.27v6.24h-1.78v-6.1c0-1.95-1.17-2.74-2.41-2.74-1.4,0-2.72.98-2.77,2.72v6.12h-1.78v-10.24Z"/>
      <path class="cls-2" d="m423.76,410.52c0,2.7-1.59,4.84-5.01,4.84-1.22,0-2.47-.27-3.44-.65v-1.67c1.17.52,2.54.73,3.48.73,2.49,0,3.2-1.38,3.2-3.37v-1.03c-.69,1.03-1.68,1.8-3.16,1.8-2.74,0-4.17-1.86-4.17-4.76v-1.26c0-2.7,1.4-4.76,4.17-4.76,1.43,0,2.47.65,3.16,1.61v-1.34h1.78v9.87Zm-7.33-5.47v1.45c0,1.95,1,3.1,2.64,3.1s2.91-1.57,2.91-3.1v-1.84c-.19-1.51-1.49-2.72-2.87-2.72-1.65,0-2.68,1.15-2.68,3.1Z"/>
      <path class="cls-2" d="m374.21,424.28h3v-6.31h1.28v6.31h2.07v1.15h-2.07v.67c.86.86,1.8,1.93,2.6,2.93l-.84.98c-.54-.75-1.17-1.55-1.76-2.26v7.52h-1.28v-7.79c-.52,1.76-1.36,3.56-2.7,5.3l-.88-1.11c1.55-1.88,2.64-4.15,3.2-6.24h-2.62v-1.15Zm.04-4.75l1.17-.48c.55,1.28,1.11,2.87,1.45,4.13l-1.11.46c-.36-1.24-.94-2.81-1.51-4.11Zm5.82-.48l1.21.38c-.29,1.32-.84,2.91-1.4,4.17l-1.09-.48c.52-1.24,1.03-2.83,1.28-4.08Zm2.14,6.18h7.31l-.25,7.35c-.06,1.89-.57,2.6-2.68,2.6-.5,0-1.03-.04-1.43-.1l-.17-1.42c.44.06.92.1,1.36.1,1.19,0,1.47-.15,1.51-1.28l.21-5.87h-2.91c-.1,3.56-.96,6.16-3.79,8.74l-.94-1.15c2.49-2.16,3.27-4.38,3.37-7.6h-1.59v-1.38Zm1.55-7.21l1.3.34c-.48,2.6-1.7,5.17-3.56,7.44l-.9-1.05c1.65-2.05,2.7-4.4,3.16-6.74Zm2.81.34l1.34-.44c.59,2.32,1.8,4.96,3.64,7.08l-1.03,1.11c-1.97-2.37-3.33-5.3-3.94-7.75Z"/>
      <path class="cls-2" d="m396.16,422.27h1.3c1.05,1.07,2.32,2.54,3.39,3.94l-.94.8c-.98-1.28-2.09-2.62-2.93-3.52-.78,1.38-2.16,3.04-3.56,4.23l-.86-1.03c1.47-1.22,2.87-2.93,3.6-4.42Zm-1.99,9.78l.8-.82c.5.34,1.07.76,1.66,1.22.88-.84,1.68-1.74,2.22-2.56h-5.38v-1.19h6.87v1.09c-.56,1-1.59,2.24-2.79,3.39.55.44,1.09.9,1.57,1.32l-.8.84c-1.21-1.09-2.91-2.41-4.15-3.29Zm.31-13.47h1.32v1.72h4.99v-2.2h1.36v2.2h4.99v-1.72h1.36v2.97h-14.03v-2.97Zm1.24,7.75l.96-.79c.61.57,1.38,1.38,1.95,2.12l-.98.73c-.57-.71-1.32-1.49-1.93-2.07Zm7.94,6.2l.79.9c-.8.59-2.2,1.32-3.43,1.78l-.65-1.11c1.22-.42,2.51-1.03,3.29-1.57Zm-3.14-9.83h9.07v1.07h-4.06c-.12.4-.27.86-.42,1.28h3.79v7.48h-7.48v-7.48h2.37c.17-.42.34-.86.48-1.28h-3.75v-1.07Zm7.1,4.52v-1.15h-4.92v1.15h4.92Zm0,2.1v-1.11h-4.92v1.11h4.92Zm0,2.16v-1.17h-4.92v1.17h4.92Zm-2.12,2.01l.8-.94c1.09.4,2.6,1.07,3.58,1.63l-.67,1.05c-1.07-.61-2.64-1.3-3.71-1.74Z"/>
    </g>
    <g>
      <circle class="cls-1" cx="392.1" cy="375.64" r="10.01"/>
      <path class="cls-2" d="m392.1,386.74c-6.12,0-11.1-4.98-11.1-11.1s4.98-11.1,11.1-11.1,11.1,4.98,11.1,11.1-4.98,11.1-11.1,11.1Zm0-20.02c-4.92,0-8.92,4-8.92,8.92s4,8.92,8.92,8.92,8.92-4,8.92-8.92-4-8.92-8.92-8.92Z"/>
    </g>
  </g>
  <g>
    <g>
      <path class="cls-2" d="m261.9,398.18h-4.59v12.71h-1.88v-12.71h-4.78v-1.74h11.25v1.74Z"/>
      <path class="cls-2" d="m267.54,410.88v-1.11c-.67.94-1.72,1.4-3.06,1.4-2.35,0-3.42-1.09-3.42-2.95,0-2.3,1.47-3.21,4.38-3.21h2.1v-.34c0-1.7-.4-2.72-2.68-2.72-1.34,0-2.22.33-3.23,1.24v-1.74c.8-.65,1.65-1.07,3.56-1.07,3.2,0,4.13,1.26,4.13,4.19v6.31h-1.78Zm0-4.36h-2.2c-1.89,0-2.51.34-2.51,1.65,0,1,.61,1.49,1.86,1.49s2.85-.61,2.85-2.58v-.55Z"/>
      <path class="cls-2" d="m272.19,396.44h1.89v2.08h-1.89v-2.08Zm.06,4.21h1.78v10.24h-1.78v-10.24Z"/>
      <path class="cls-2" d="m294.47,410.88h-1.97l-1.67-5.53-1.61-5.8-1.65,5.8-1.72,5.53h-2.01l-3.39-14.45h2.03l2.51,11.9,3.42-11.9h1.88l3.21,11.94,2.87-11.94h1.99l-3.9,14.45Z"/>
      <path class="cls-2" d="m299.2,405.14c0-3.1,2.03-4.76,4.55-4.76s4.57,1.67,4.57,4.76v1.26c0,3.1-2.05,4.76-4.57,4.76s-4.55-1.67-4.55-4.76v-1.26Zm1.78,1.36c0,1.95,1.13,3.1,2.77,3.1s2.79-1.15,2.79-3.1v-1.45c0-1.95-1.15-3.1-2.79-3.1s-2.77,1.15-2.77,3.1v1.45Z"/>
      <path class="cls-2" d="m262.2,422.54h7.19c.02-.21.02-.42.02-.63v-4.06h1.53v4.08c0,.21,0,.4-.02.61h7.46v1.4h-7.21c.67,3.46,3.71,7.41,7.6,9.84l-.86,1.36c-3.48-2.2-6.39-5.72-7.62-9.17-1.15,3.6-3.81,6.89-7.63,9.2l-.8-1.34c4.11-2.45,6.7-6.07,7.39-9.89h-7.04v-1.4Zm6.05,9.3l1.03-.94c.94.92,2.09,2.24,2.83,3.21l-1.03.94c-.78-1.03-1.91-2.35-2.83-3.21Z"/>
      <path class="cls-2" d="m284.35,424.91h-3.21v-1.26h3.67v-3.37c-1.05.13-2.16.27-3.2.34l-.17-1.24c2.43-.19,5.15-.61,7.1-1.05l.36,1.24c-.77.17-1.68.34-2.7.5v3.58h3.18v1.26h-3.18v.65c.98.86,2.14,2.01,3.08,3.1l-.94,1c-.65-.82-1.44-1.7-2.14-2.47v8.08h-1.4v-8.02c-.52,1.8-1.47,3.66-3.08,5.53l-1.09-1.07c1.86-2.11,3.23-4.57,3.71-6.79Zm11.61,8.3h-4.48v1.7h-1.42v-15.15h7.33v15.15h-1.44v-1.7Zm0-1.32v-10.81h-4.48v10.81h4.48Z"/>
    </g>
    <g>
      <circle class="cls-1" cx="279.49" cy="375.64" r="10.01"/>
      <path class="cls-2" d="m279.49,386.74c-6.12,0-11.1-4.98-11.1-11.1s4.98-11.1,11.1-11.1,11.1,4.98,11.1,11.1-4.98,11.1-11.1,11.1Zm0-20.02c-4.92,0-8.92,4-8.92,8.92s4,8.92,8.92,8.92,8.92-4,8.92-8.92-4-8.92-8.92-8.92Z"/>
    </g>
  </g>
  <g>
    <g>
      <path class="cls-2" d="m118.8,398.18h-4.59v12.71h-1.88v-12.71h-4.78v-1.74h11.25v1.74Z"/>
      <path class="cls-2" d="m124.44,410.88v-1.11c-.67.94-1.72,1.4-3.06,1.4-2.35,0-3.42-1.09-3.42-2.95,0-2.3,1.47-3.21,4.38-3.21h2.11v-.34c0-1.7-.4-2.72-2.68-2.72-1.34,0-2.22.33-3.23,1.24v-1.74c.8-.65,1.65-1.07,3.56-1.07,3.2,0,4.13,1.26,4.13,4.19v6.31h-1.78Zm0-4.36h-2.2c-1.89,0-2.51.34-2.51,1.65,0,1,.61,1.49,1.86,1.49s2.85-.61,2.85-2.58v-.55Z"/>
      <path class="cls-2" d="m129.1,396.44h1.89v2.08h-1.89v-2.08Zm.06,4.21h1.78v10.24h-1.78v-10.24Z"/>
      <path class="cls-2" d="m143.95,405.47h-3.12v5.42h-1.88v-14.45h4.92c3.29,0,4.8,2.01,4.8,4.38,0,2.68-1.55,4.65-4.73,4.65Zm-3.12-7.35v5.7h3.02c2.3,0,2.89-1.42,2.89-2.83,0-1.95-1.01-2.87-3.1-2.87h-2.81Z"/>
      <path class="cls-2" d="m150.21,405.14c0-3.1,2.03-4.76,4.55-4.76s4.57,1.67,4.57,4.76v1.26c0,3.1-2.05,4.76-4.57,4.76s-4.55-1.67-4.55-4.76v-1.26Zm1.78,1.36c0,1.95,1.13,3.1,2.77,3.1s2.79-1.15,2.79-3.1v-1.45c0-1.95-1.15-3.1-2.79-3.1s-2.77,1.15-2.77,3.1v1.45Z"/>
      <path class="cls-2" d="m168.64,400.15v10.73h-1.78v-14.45h1.78l4.54,8.57,4.61-8.57h1.78v14.45h-1.78v-10.91l-3.87,7.27h-1.47l-3.81-7.1Z"/>
      <path class="cls-2" d="m188.68,410.88v-1.11c-.67.94-1.72,1.4-3.06,1.4-2.35,0-3.42-1.09-3.42-2.95,0-2.3,1.47-3.21,4.38-3.21h2.1v-.34c0-1.7-.4-2.72-2.68-2.72-1.34,0-2.22.33-3.23,1.24v-1.74c.8-.65,1.65-1.07,3.56-1.07,3.2,0,4.13,1.26,4.13,4.19v6.31h-1.78Zm0-4.36h-2.2c-1.89,0-2.51.34-2.51,1.65,0,1,.61,1.49,1.86,1.49s2.85-.61,2.85-2.58v-.55Z"/>
      <path class="cls-2" d="m193.39,400.65h1.78v1.53c.71-1.05,1.76-1.8,3.2-1.8v1.7c-.13-.02-.27-.04-.42-.04-1.4,0-2.72,1.34-2.77,3.1v5.74h-1.78v-10.24Z"/>
      <path class="cls-2" d="m200.31,396.44h1.78v8.29h1.55l2.79-4.08h2.01l-3.46,4.75,3.75,5.49h-2.05l-3.14-4.69h-1.45v4.69h-1.78v-14.45Z"/>
      <path class="cls-2" d="m218.38,406.54h-6.96c.02,1.95,1.32,3.06,3.14,3.06,1.3,0,2.26-.11,3.58-.92v1.59c-1.13.65-2.14.9-3.75.9-2.72,0-4.75-1.67-4.75-4.76v-1.26c0-2.91,1.84-4.76,4.36-4.76s4.38,1.47,4.38,4.57v1.59Zm-6.96-1.51h5.19v-.17c0-1.95-.96-2.91-2.6-2.91s-2.58,1.15-2.58,3.08Z"/>
      <path class="cls-2" d="m219.66,400.65h1.82v-3.16h1.78v3.16h2.68v1.51h-2.68v5.26c0,1.53.36,2.16,1.63,2.16.38,0,1.03-.06,1.32-.15v1.55c-.33.1-.84.19-1.45.19-2.35,0-3.27-1.42-3.27-3.64v-5.38h-1.82v-1.51Z"/>
      <path class="cls-2" d="m139.59,422.9h7.41v-5.05h1.55v5.05h7.62v1.42h-7.56c.44,3.67,3.81,7.14,7.94,9.45l-.86,1.36c-3.42-1.97-6.47-4.82-7.83-8.04-1.19,3.2-3.83,5.89-7.81,8.08l-.8-1.34c4.63-2.49,7.21-5.64,7.67-9.51h-7.33v-1.42Z"/>
      <path class="cls-2" d="m158.64,423.25h2.1v-5.28h1.42v5.28h1.97v1.24h-1.97v6.43c.73-.23,1.47-.46,2.16-.69l.31,1.22c-1.38.5-3.58,1.17-5.76,1.72l-.29-1.28c.65-.15,1.38-.34,2.16-.57v-6.83h-2.1v-1.24Zm13.24,11.81l-.19-1.22c.31.04.63.06.94.06.78,0,.94-.08.94-.77v-1.99h-2.95v3.6h-1.34v-3.6h-2.89v4h-1.32v-11.96h4.21v-1.78h-4.8v-1.21h4.8v-2.24h1.34v2.24h3.08c-.61-.46-1.38-1.01-1.97-1.34l.71-.88c.61.38,1.42.94,2.05,1.45l-.59.77h1.74v1.21h-5.01v1.78h4.29v9.97c0,1.44-.44,1.97-2.18,1.97-.31,0-.57-.02-.84-.06Zm-2.6-8.48v-2.22h-2.89v2.22h2.89Zm0,3.41v-2.28h-2.89v2.28h2.89Zm4.29-3.41v-2.22h-2.95v2.22h2.95Zm0,3.41v-2.28h-2.95v2.28h2.95Z"/>
      <path class="cls-2" d="m177.74,423.44h1.93v-5.19h1.34v5.19h1.8v1.19h-1.8v6.39c.69-.21,1.36-.44,2.01-.67l.19.73c.29-1.55.36-3.2.36-5.07v-5.09h4.09v-2.99h1.24v.98h4.34v1.05h-4.34v.96h5.42v1.03c-.15.69-.38,1.34-.65,2.03l-1.09-.36c.23-.52.42-1.05.56-1.55h-8.27v3.88c0,3.39-.15,6.1-1.57,9.36l-1.26-.71c.48-1,.82-1.99,1.05-3.02-1.36.5-3.27,1.11-5.09,1.61l-.29-1.22c.59-.15,1.26-.33,1.95-.54v-6.79h-1.93v-1.19Zm6.74,9.95h3.31v-1.57h-2.22v-3.69h1.09v2.74h1.13v-3.37h1.19v5.89h1.26v-5.89h1.21v3.37h1.21v-2.74h1.09v3.69h-2.3v1.57h3.04v1.13h-10.01v-1.13Zm2.85-8.32v-.04l-1.91.25-.13-1.11,2.05-.27v-1.49h1.17v1.34l3.44-.46.17,1.05-3.62.5c0,.86.17,1.01,1.51,1.01h1.15c1.43,0,1.55-.17,1.55-1.19l1.13.29c0,1.38-.46,1.99-2.58,1.99h-1.22c-2.18,0-2.7-.48-2.7-1.88Z"/>
    </g>
    <g>
      <circle class="cls-1" cx="166.88" cy="375.64" r="10.01"/>
      <path class="cls-2" d="m166.88,386.74c-6.12,0-11.1-4.98-11.1-11.1s4.98-11.1,11.1-11.1,11.1,4.98,11.1,11.1-4.98,11.1-11.1,11.1Zm0-20.02c-4.92,0-8.92,4-8.92,8.92s4,8.92,8.92,8.92,8.92-4,8.92-8.92-4-8.92-8.92-8.92Z"/>
    </g>
  </g>
  <g>
    <g>
      <path class="cls-2" d="m20.62,396.44v8.17c0,4.34-2.07,6.56-5.61,6.56s-5.59-2.22-5.59-6.56v-8.17h1.89v8.3c0,3.31,1.21,4.75,3.69,4.75s3.73-1.44,3.73-4.75v-8.3h1.88Z"/>
      <path class="cls-2" d="m23.78,400.65h1.78v1.28c.71-.96,1.78-1.55,3.21-1.55,2.58,0,3.75,1.59,3.75,4.27v6.24h-1.78v-6.1c0-1.95-1.17-2.74-2.41-2.74-1.4,0-2.72.98-2.77,2.72v6.12h-1.78v-10.24Z"/>
      <path class="cls-2" d="m35.4,396.44h1.89v2.08h-1.89v-2.08Zm.06,4.21h1.78v10.24h-1.78v-10.24Z"/>
      <path class="cls-2" d="m45.06,410.88h-2.07l-3.88-10.24h1.93l3,8.42,3.08-8.42h1.84l-3.9,10.24Z"/>
      <path class="cls-2" d="m58.86,406.54h-6.96c.02,1.95,1.32,3.06,3.14,3.06,1.3,0,2.26-.11,3.58-.92v1.59c-1.13.65-2.14.9-3.75.9-2.72,0-4.75-1.67-4.75-4.76v-1.26c0-2.91,1.84-4.76,4.36-4.76s4.38,1.47,4.38,4.57v1.59Zm-6.96-1.51h5.19v-.17c0-1.95-.96-2.91-2.6-2.91s-2.58,1.15-2.58,3.08Z"/>
      <path class="cls-2" d="m61.37,400.65h1.78v1.53c.71-1.05,1.76-1.8,3.2-1.8v1.7c-.13-.02-.27-.04-.42-.04-1.4,0-2.72,1.34-2.77,3.1v5.74h-1.78v-10.24Z"/>
      <path class="cls-2" d="m67.74,408.61c1.17.57,2.3,1,3.64,1,1.49,0,2.53-.46,2.53-1.57s-.9-1.51-2.14-1.57l-1.01-.08c-1.61-.1-3.14-.73-3.14-2.98,0-1.95,1.88-3.04,3.88-3.04,1.57,0,2.83.31,3.71.79v1.78c-1.15-.65-2.54-.96-3.52-.96-1.49,0-2.37.5-2.37,1.53,0,1.11,1.13,1.3,2.14,1.38l1.15.1c1.72.13,3.04.84,3.04,2.95,0,2.28-2.37,3.23-4.34,3.23-1.11,0-2.68-.31-3.56-.78v-1.76Z"/>
      <path class="cls-2" d="m77.96,396.44h1.89v2.08h-1.89v-2.08Zm.06,4.21h1.78v10.24h-1.78v-10.24Z"/>
      <path class="cls-2" d="m81.77,400.65h1.82v-3.16h1.78v3.16h2.68v1.51h-2.68v5.26c0,1.53.36,2.16,1.63,2.16.38,0,1.03-.06,1.32-.15v1.55c-.33.1-.84.19-1.45.19-2.35,0-3.27-1.42-3.27-3.64v-5.38h-1.82v-1.51Z"/>
      <path class="cls-2" d="m91.9,415.13l1.38-3.83-4.02-10.66h1.93l3,8.42,3.08-8.42h1.84l-3.9,10.24h-.02l-1.38,4.25h-1.91Z"/>
      <path class="cls-2" d="m35.75,422.9h7.41v-5.05h1.55v5.05h7.62v1.42h-7.56c.44,3.67,3.81,7.14,7.94,9.45l-.86,1.36c-3.42-1.97-6.47-4.82-7.83-8.04-1.19,3.2-3.83,5.89-7.81,8.08l-.8-1.34c4.63-2.49,7.21-5.64,7.67-9.51h-7.33v-1.42Z"/>
      <path class="cls-2" d="m57.45,427.67h11.86v1.11c-1.22.52-3.2,1.19-5.15,1.78v.27h7.42v1.24h-7.42v.65c0,1.72-.69,2.47-3.29,2.47-.56,0-1.11-.04-1.61-.1l-.17-1.38c.54.08,1.15.11,1.68.11,1.55,0,1.93-.27,1.93-1.19v-.57h-7.96v-1.24h7.96v-.88c.94-.23,2.28-.65,3.77-1.09h-9.03v-1.19Zm-2.54-2.6h1.11l-.15-6.12c1.55-.21,2.83-.54,3.88-.86l.29,1.13c-.88.27-1.78.46-2.79.63l.02.88h2.68v1.05h-2.64l.02,1.05h2.62v1.07h-2.58l.04,1.17h11.52l.04-1.17h-2.56v-1.07h2.58l.04-1.05h-2.62v-1.05h2.64l.02-.94h-2.72v-1.13h4.13l-.17,6.41h1.15v3.44h-1.38v-2.18h-13.78v2.18h-1.38v-3.44Zm8.34-4.67c-.63.4-1.28.76-1.88,1.09l-.78-.75c.55-.27,1.13-.59,1.7-.92-.59-.34-1.17-.67-1.67-.92l.82-.73c.54.27,1.19.63,1.84,1.01.52-.33,1-.67,1.4-1l.77.67c-.36.29-.79.59-1.21.88.54.34,1.03.67,1.45.98l-.84.75c-.48-.34-1.03-.71-1.61-1.07Zm.08,3.18c-.67.46-1.34.9-1.95,1.26l-.77-.73c.59-.34,1.22-.73,1.84-1.15-.5-.33-1-.63-1.43-.9l.82-.69c.46.27.98.59,1.51.94.42-.33.8-.63,1.15-.96l.77.69c-.33.29-.67.57-1.03.86.57.4,1.13.82,1.61,1.19l-.84.73c-.5-.4-1.07-.84-1.66-1.24Z"/>
    </g>
    <g>
      <circle class="cls-1" cx="54.27" cy="375.64" r="10.01"/>
      <path class="cls-2" d="m54.27,386.74c-6.12,0-11.1-4.98-11.1-11.1s4.98-11.1,11.1-11.1,11.1,4.98,11.1,11.1-4.98,11.1-11.1,11.1Zm0-20.02c-4.92,0-8.92,4-8.92,8.92s4,8.92,8.92,8.92,8.92-4,8.92-8.92-4-8.92-8.92-8.92Z"/>
    </g>
  </g>
  <g>
    <path class="cls-2" d="m149.65,182.33c1.3,0,1.83-1.04,1.83-2.5,0-1.26-.55-2.38-1.85-2.38s-1.83,1.12-1.83,2.46c0,1.5.63,2.42,1.85,2.42Z"/>
    <path class="cls-2" d="m149.65,175.35c1.08,0,1.64-.81,1.64-2.25,0-1.36-.55-2.13-1.64-2.13-1.2,0-1.67.87-1.67,2.11,0,1.38.57,2.27,1.67,2.27Z"/>
    <rect class="cls-2" x="73.29" y="199.48" width="5.18" height="5.45"/>
    <path class="cls-2" d="m92.72,173.26c-1.56,0-2.38,1.06-2.45,3.1h4.92c-.02-2.14-.82-3.1-2.47-3.1Z"/>
    <rect class="cls-2" x="73.29" y="207.52" width="5.18" height="5.66"/>
    <path class="cls-2" d="m69.75,150.73c1.18,0,1.94-.14,2.33-.46v-3.05c-3.38.89-4.58,1.51-4.58,2.4,0,.74.72,1.1,2.26,1.1Z"/>
    <path class="cls-2" d="m89.14,152.99h2.69v-.34c0-1.13-.62-2.74-2.59-2.74-1.49,0-2.42.84-2.42,1.92,0,.84.55,1.15,2.33,1.15Z"/>
    <path class="cls-2" d="m82.51,40.09c-1.37,0-2.26.72-2.26,1.68,0,.86.53,1.18,2.16,1.18,1.44,0,2.21-.14,2.52-.48v-.05c0-.98-.58-2.33-2.42-2.33Z"/>
    <path class="cls-2" d="m69.08,74.71c0,1.03.65,1.54,1.94,1.54,1.42,0,2.78-.62,2.78-2.9v-.31h-2.14c-2.02,0-2.59.43-2.59,1.68Z"/>
    <path class="cls-2" d="m98.26,74.71c0,1.03.65,1.54,1.94,1.54,1.42,0,2.78-.62,2.78-2.9v-.31h-2.14c-2.02,0-2.59.43-2.59,1.68Z"/>
    <path class="cls-2" d="m15.05,233.06h178.52v-106.66H15.05v106.66Zm51.22-16.15h-2.9v-2.18h-3.98v2.18h-2.88v-19.49h9.77v19.49Zm23.54.7h-3.14v-1.51h-13.37v1.51h-3.12v-20.95h19.63v20.95Zm-5.05-46.69v2.66h-3.12v5.81c0,1.61.55,2.09,1.8,2.09.48,0,1.03-.07,1.49-.17v2.78c-.58.17-1.56.26-2.3.26-2.88,0-4.44-1.58-4.44-4.42v-6.36h-2.04v-2.66h2.04v-3.74h3.46v3.74h3.12Zm8.97,10.63c1.58,0,2.9-.14,4.68-1.06v2.64c-1.61.94-3.07,1.22-5.26,1.22-4.13,0-6.38-2.14-6.38-6.1v-1.58c0-3.89,2.4-6.1,5.95-6.1s5.98,1.97,5.98,5.98v2.14h-8.4c.14,2.02,1.37,2.86,3.43,2.86Zm74.48-6.71h2.16v.98c.49-.73,1.24-1.19,2.36-1.19,1.24,0,2.03.54,2.39,1.59.51-.98,1.33-1.59,2.62-1.59,1.88,0,2.67,1.2,2.67,3.47v6.23h-2.16v-5.85c0-1.36-.47-1.9-1.36-1.9-.94,0-1.48.59-1.48,2.01v5.74h-2.18v-5.85c0-1.36-.45-1.9-1.34-1.9-.94,0-1.5.59-1.5,2.01v5.74h-2.16v-9.5Zm-8.32-3.68h2.16v7.37h.86l1.71-3.68h2.37l-2.41,4.33,2.53,5.17h-2.37l-1.83-3.98h-.86v3.98h-2.16v-13.18Zm-14.42,1.89c0-2.5,1.4-4.29,4.18-4.29s4.1,1.83,4.1,4.24c0,1.48-.53,2.62-1.46,3.31,1.12.69,1.77,1.93,1.77,3.7,0,2.68-1.52,4.57-4.45,4.57s-4.45-1.97-4.45-4.53c0-1.77.65-3.01,1.77-3.72-.96-.71-1.46-1.87-1.46-3.29Zm-7.88-2.4l3.31-1.65h1.99v15.33h-2.6v-12.33l-2.7,1.18v-2.54Zm-22.73,30.12h-9.34v2.74h7.63v7.63c0,3.05-.7,4.32-3.91,4.32-.67,0-1.27-.07-1.85-.19l-.48-2.9c.6.14,1.2.19,1.8.19,1.18,0,1.39-.36,1.39-1.75v-4.63h-4.61v11.54h-3.1v-11.54h-4.54v9.17h-3.05v-11.83h7.56v-2.74h-9.26v-2.71h9.5c-.26-.79-.58-1.63-.82-2.3l3.29-.36c.29.74.62,1.73.89,2.66h8.88v2.71Zm-1.38-24.95v8.18h-3.43v-7.15c0-2.21-.91-3.19-2.47-3.19s-2.66,1.08-2.69,3.1v7.25h-3.46v-13.08h3.46v1.68c.84-1.25,2.11-2.02,4.03-2.02,3.02,0,4.56,1.87,4.56,5.23Zm-10.1-35.66l1.94,1.87-1.94,1.92-1.94-1.92,1.94-1.87Zm-13.94,6.43c3.14,0,4.51,2.83,4.58,6.29h1.55s.03,0,.03,0c3.86,0,5.83-.29,8.16-.91,1.13-.31,2.42-.77,3.67-1.18-2.42-.82-4.15-1.75-6.7-1.75-2.21,0-3.65,1.2-3.65,1.2v-3.07s1.32-1.37,3.82-1.37c3.79,0,5.9,2.42,10.42,2.95l-.05,3.1c-2.54,1.01-5.11,2.28-7.18,3.07-3.29,1.32-5.69,1.61-8.5,1.61h-.02s-.02,0-.02,0h-1.78c-.7,3.6-2.95,5.9-6.36,5.9-2.02,0-3.19-.67-3.46-.98v-3.19c.34.19,1.61.7,3.22.7,2.4,0,4.06-.82,4.58-2.64h-3.02c-2.83,0-4.06-1.56-4.06-4.15,0-3,1.71-5.57,4.75-5.57Zm-10.08-5.45l1.51,1.49,1.49-1.49,1.75,1.75-1.75,1.78-1.49-1.51-1.51,1.51-1.75-1.78,1.75-1.75Zm-7.27,3.17v-1.49h2.54v7.32c0,2.18.48,2.74,2.49,2.74,2.09,0,2.81-.91,2.81-3.05,0-.89-.14-2.06-.38-3.29h2.54c.24,1.2.38,2.52.38,3.62,0,3.96-1.94,6.36-5.34,6.36h0s0,0,0,0c0,0,0,0,0,0h0c-3.14-.03-4.53-1.47-4.91-4.08-.38,1.2-1.32,1.94-3.07,1.94-2.79,0-3.79-1.66-3.79-4.25s1.44-4.39,6.75-5.83Zm-3.79,26.27c3.53,0,6.26,1.97,6.26,6.1v1.58c0,4.13-2.74,6.1-6.26,6.1s-6.26-1.97-6.26-6.1v-1.58c0-4.13,2.71-6.1,6.26-6.1Zm-12.33-28.72l1.94,1.87-1.94,1.92-1.94-1.92,1.94-1.87Zm-6.31,6.7h2.64s-.94,2.23-.94,4.56c0,3,1.27,4.06,4.92,4.06s4.78-1.27,4.75-4.13c-.02-1.94-.31-3.7-.91-5.93h2.71c.55,1.92.84,4.06.84,6.07,0,5.04-2.33,7.61-7.66,7.61s-7.32-2.28-7.32-7.46c0-2.81.96-4.78.96-4.78Zm-4.27,17.32h3.91l3.77,6.38,3.77-6.38h3.74l-5.52,8.81,5.81,9.31h-4.01l-3.89-6.74-4.06,6.74h-3.94l5.95-9.19-5.54-8.93Zm3.4,39.3h-3.29v-2.76h4.01v-3.02c-1.15.12-2.3.22-3.43.29l-.26-2.69c3.05-.17,6.6-.65,9.15-1.18l.58,2.69c-.89.19-1.97.36-3.12.53v3.38h3.41v2.76h-3.41v.67c1.2,1.01,2.57,2.28,3.62,3.41l-1.58,2.38c-.62-.89-1.34-1.85-2.04-2.74v8.71h-2.86v-8.81c-.67,2.14-1.7,4.3-3.12,6.22l-1.58-3.19c1.9-2.14,3.26-4.39,3.94-6.65Z"/>
    <path class="cls-2" d="m68.29,181.66c1.68,0,2.71-1.08,2.71-3.41v-1.58c0-2.33-1.03-3.41-2.71-3.41s-2.69,1.08-2.69,3.41v1.58c0,2.33.98,3.41,2.69,3.41Z"/>
    <path class="cls-2" d="m113.58,40.09c-1.37,0-2.26.72-2.26,1.68,0,.86.53,1.18,2.16,1.18,1.44,0,2.21-.14,2.52-.48v-.05c0-.98-.58-2.33-2.42-2.33Z"/>
    <path class="cls-2" d="m107.73,319.08h-5.45c-.98,1.3-2.14,2.45-3.34,3.41,3-.12,6.34-.31,9.29-.53-.67-.58-1.34-1.13-1.97-1.63l1.46-1.25Z"/>
    <rect class="cls-2" x="98.92" y="310.75" width="10.08" height="1.9"/>
    <rect class="cls-2" x="81.38" y="207.52" width="5.28" height="5.66"/>
    <path class="cls-2" d="m80.52,307.7h-1.46v3.1h-2.64v1.18h3.84v6.12h-3.84v1.42h4.37v2.21c1.44-3.29,1.8-6.7,1.8-11.38v-.07h-2.06v-2.57Z"/>
    <path class="cls-2" d="m32.49,62.9c-2.66,0-3.89,1.99-3.89,5.11v2.78c0,3.02,1.06,4.97,3.89,4.97.29,0,.53-.02.77-.05l-1.85-3.6h2.81l1.25,2.4c.67-.86.96-2.14.96-3.72v-2.78c0-3.12-1.13-5.11-3.94-5.11Z"/>
    <rect class="cls-2" x="73.56" y="307.7" width="2.86" height="1.27"/>
    <rect class="cls-2" x="76" y="314.06" width="1.82" height="1.78"/>
    <rect class="cls-2" x="98.92" y="314.59" width="10.08" height="1.99"/>
    <rect class="cls-2" x="81.38" y="199.48" width="5.28" height="5.45"/>
    <rect class="cls-2" x="59.38" y="200.23" width="3.98" height="11.69"/>
    <rect class="cls-2" x="98.92" y="306.89" width="10.08" height="1.92"/>
    <path class="cls-2" d="m15.05,329.87c0,4.52,3.67,8.19,8.19,8.19h162.14c4.52,0,8.19-3.67,8.19-8.19v-94.63H15.05v94.63Zm50.81-4.43c-3.55-.94-6.29-2.45-8.4-4.18v4.61h-2.98v-4.54c-1.87,1.61-4.51,2.98-8.14,4.15l-1.37-2.66c4.46-1.08,7.58-2.52,9.5-4.49v-1.66h-4.51v3.5h-2.83v-5.57h7.34v-1.37h-8.93v-2.38h8.93v-.98h2.45l-1.63-.86c1.51-1.63,2.66-3.7,3.26-5.5l2.83.34c-.14.43-.31.86-.5,1.32h5.86v2.3h-3.82c.55.55,1.1,1.15,1.54,1.73l-2.3,1.1c-.7-1.01-1.49-1.9-2.33-2.67l.38-.17h-.48c-.6,1.01-1.27,1.99-1.99,2.83l-.29-.14v.7h8.98v2.38h-8.98v1.37h7.68v3.22c0,2.02-1.06,2.54-3.24,2.54-.55,0-1.25-.02-1.78-.07l-.34-2.04c.41.05,1.06.07,1.58.07.7,0,.86-.17.86-.82v-.84h-4.78v1.75c1.94,1.78,4.99,3.43,9.67,4.39l-1.27,2.62Zm7.91-46.72c3.02,0,4.56,1.87,4.56,5.23v8.18h-3.43v-7.15c0-2.21-.91-3.19-2.47-3.19s-2.66,1.08-2.69,3.1v7.25h-3.46v-18.12h3.46v6.72c.84-1.25,2.11-2.02,4.03-2.02Zm16.5,42.83c-.05,2.66-.91,3.74-3.89,3.74-.41,0-.79-.05-1.18-.12l-.31-3.12c.36.07.77.12,1.13.12,1.03,0,1.3-.29,1.32-1.37l.26-10.54h-2.23v.98c-.02,5.35-.62,10.18-3.24,14.52l-2.59-1.68c.41-.65.74-1.32,1.06-1.97h-4.18v3.55h-2.9v-3.55h-4.51v-2.62h4.51v-1.42h-3.74v-6.12h3.77v-1.18h-2.64v-3.1h-1.75v-2.47h1.75v-1.51h2.66v1.51h2.86v-1.51h2.64v1.51h1.61v2.26h1.92v-3.82h3v3.82h4.97l-.29,14.07Zm-8.77-44.63v-3.19h3.53v3.19h-3.53Zm3.5,2.14v13.08h-3.46v-13.08h3.46Zm6.74,7.06v6.02h-3.46v-13.08h3.46v2.09c.82-1.44,2.16-2.42,4.03-2.42v3.46c-.24-.05-.48-.07-.7-.07-2.02,0-3.26,1.58-3.34,4.01Zm2.93-17.99l-1.49-1.49-1.49,1.49-1.75-1.78,1.75-1.75,1.49,1.46,1.49-1.46,1.73,1.75-1.73,1.78Zm.12.94l-1.58,1.58-1.58-1.58,1.58-1.56,1.58,1.56Zm73.42,14.1h2.16v.98c.49-.73,1.24-1.19,2.36-1.19,1.24,0,2.03.54,2.39,1.59.51-.98,1.33-1.59,2.62-1.59,1.88,0,2.67,1.2,2.67,3.47v6.23h-2.16v-5.85c0-1.36-.47-1.9-1.36-1.9-.94,0-1.48.59-1.48,2.01v5.74h-2.18v-5.85c0-1.36-.45-1.9-1.34-1.9-.94,0-1.5.59-1.5,2.01v5.74h-2.16v-9.5Zm-8.32-3.68h2.16v7.37h.86l1.71-3.68h2.37l-2.41,4.33,2.53,5.17h-2.37l-1.83-3.98h-.86v3.98h-2.16v-13.18Zm-13.52-2.15h8.17v1.81l-4.14,13.53h-2.6l4-12.98h-5.42v-2.36Zm-9.3,13.44l4.02-5.75c.77-1.16,1.3-2.31,1.3-3.45,0-1.5-.85-2.13-2.23-2.13-1.04,0-1.85.24-2.97.91v-2.38c1-.65,2.13-.89,3.45-.89,2.78,0,4.39,1.4,4.39,4.02,0,1.91-.97,3.66-2.07,5.22l-2.86,4.02h5.16v2.32h-8.19v-1.89Zm-21.96,25.81v2.5h-6.24c1.8,1.42,3.89,3.26,5.5,4.92l-1.94,1.94c-.48-.53-1.03-1.08-1.61-1.63-4.9.38-11.3.74-16.2.84l-.31-2.3c1.61-1.01,3.12-2.38,4.3-3.77h-5.71v-2.5h3v-12.17h16.22v12.17h3Zm-6.42-32.68v8.23h-3.46v-1.42c-.77,1.2-1.97,1.78-3.7,1.78-2.81,0-4.37-1.49-4.37-3.84,0-2.86,1.75-4.13,5.4-4.13h2.66c-.02-1.87-.46-2.76-2.88-2.76-1.66,0-2.95.36-4.46,1.44v-3.1c1.3-.89,2.81-1.39,5.11-1.39,3.96,0,5.69,1.54,5.69,5.18Zm-38.83-22.07c0-1.56-.22-3.1-.43-4.63h2.71c.07.7.17,1.58.24,2.62.14.74.79,1.2,2.42,1.2,2.23,0,3-.5,3-2.74v-2.38h2.57v2.38c0,2.23.74,2.74,2.93,2.74h.02s.02,0,.02,0c3.86,0,5.83-.29,8.16-.91,1.13-.31,2.42-.77,3.67-1.18-2.42-.82-4.15-1.75-6.7-1.75-2.21,0-3.65,1.2-3.65,1.2v-3.07s1.32-1.37,3.82-1.37c3.79,0,5.9,2.42,10.42,2.95l-.05,3.1c-2.54,1.01-5.11,2.28-7.18,3.07-3.29,1.32-5.69,1.61-8.5,1.61h-.02s-.02,0-.02,0c-2.45,0-3.82-.77-4.27-2.42-.46,1.66-1.8,2.42-4.22,2.42h0s0,0,0,0c0,0,0,0,0,0h0c-1.17,0-1.94-.34-2.47-.89-.55,3.98-2.83,6.72-5.9,6.72-1.63,0-2.33-.6-2.33-.6v-3.36c.24.1.96.34,2.04.34,2.14,0,3.72-1.73,3.72-5.04Zm-7.94-15h2.81v17.83h-2.81v-17.83Zm-10.89,35.23c0-5.45,3.22-8.38,7.87-8.38,2.16,0,3.89.5,4.82,1.13v3.19c-1.06-.86-2.81-1.42-4.63-1.42-2.83,0-4.68,1.73-4.68,5.3v2.54c0,3.74,1.94,5.16,4.73,5.16,1.39,0,3.19-.22,4.54-1.01v2.95c-1.22.65-3.05.96-4.8.96-4.61,0-7.85-2.78-7.85-8.23v-2.21Zm-2.85,21.47l2.86.36c-.14.43-.34.86-.55,1.3h5.69v2.3h-3.72c.55.55,1.08,1.18,1.49,1.73l-2.26,1.13c-.67-.98-1.44-1.9-2.26-2.64l.43-.19h-.7c-.65,1.03-1.42,2.02-2.21,2.88l-2.4-1.39c1.61-1.63,2.95-3.7,3.62-5.47Z"/>
    <path class="cls-2" d="m100.49,288.47c0,1.03.65,1.54,1.94,1.54,1.42,0,2.78-.62,2.78-2.9v-.31h-2.14c-2.02,0-2.59.43-2.59,1.68Z"/>
    <rect class="cls-2" x="72.14" y="314.06" width="1.78" height="1.78"/>
    <path class="cls-2" d="m59.83,102.68c.48.65,1.01,1.44,1.32,2.16l-2.64.7c-.34-.84-.84-1.75-1.25-2.38l2.18-.48h-5.14c.24.48.48,1.06.67,1.66h2.59v1.46h6.84c-.58-.91-1.37-1.9-2.04-2.57l2.14-.55h-4.68Z"/>
    <path class="cls-2" d="m188.68,11.86H19.93c-7.94,0-14.44,6.5-14.44,14.44v306.04c0,7.94,6.5,14.44,14.44,14.44h168.75c7.94,0,14.44-6.5,14.44-14.44V26.29c0-7.94-6.5-14.44-14.44-14.44Zm7.07,318.02c0,5.72-4.65,10.37-10.37,10.37H23.24c-5.72,0-10.37-4.65-10.37-10.37V28.75c0-5.72,4.65-10.37,10.37-10.37h162.14c5.72,0,10.37,4.65,10.37,10.37v301.12Z"/>
    <path class="cls-2" d="m51.67,103.14l2.23-.46h-6.26l2.18.48c-.53.94-1.22,1.87-2.02,2.64h6.62v-.67l-1.97.46c-.17-.82-.48-1.75-.79-2.45Z"/>
    <path class="cls-2" d="m50.22,73.34v-.31h-2.14c-2.02,0-2.59.43-2.59,1.68,0,1.03.65,1.54,1.94,1.54,1.42,0,2.78-.62,2.78-2.9Z"/>
    <path class="cls-2" d="m54.67,92.56h-5.04v2.76h2.64c-.5-.62-1.22-1.37-1.92-1.97l1.51-.77c.65.58,1.44,1.34,1.94,1.97l-1.46.77h2.33v-2.76Z"/>
    <path class="cls-2" d="m86.19,67.66c-1.68,0-2.69,1.08-2.69,3.17v2.06c0,2.09.98,3.17,2.64,3.17s2.74-1.32,2.78-3.1v-2.66c-.19-1.66-1.37-2.64-2.74-2.64Z"/>
    <path class="cls-2" d="m58.11,94.52c.72-.6,1.46-1.37,1.97-1.94l1.49.7c-.46.62-1.27,1.44-2.02,2.04h2.76v-2.76h-5.06v2.76h2.23l-1.37-.79Z"/>
    <path class="cls-2" d="m185.37,20.56H23.24c-4.52,0-8.19,3.67-8.19,8.19v95.47h178.52V28.75c0-4.52-3.67-8.19-8.19-8.19Zm-73.24,10.98l1.51,1.49,1.49-1.49,1.75,1.75-1.75,1.78-1.49-1.51-1.51,1.51-1.75-1.78,1.75-1.75Zm-9.17,1.54h2.81v11.23c0,2.06.31,2.95,2.57,2.95h3.48c3.02,0,4.2-.67,4.2-2.42v-.7c-.43.86-1.32,1.54-3.05,1.54-2.54,0-3.77-1.51-3.77-3.84,0-2.74,1.63-5.06,4.56-5.06,3.17,0,4.51,2.83,4.51,6.17v1.42c0,4.49-2.09,6.55-6.65,6.55h-3.29c-3.98,0-5.37-1.95-5.37-6.12v-11.71Zm3.47,37.07v8.23h-3.46v-1.42c-.77,1.2-1.97,1.78-3.7,1.78-2.81,0-4.37-1.49-4.37-3.84,0-2.86,1.75-4.13,5.4-4.13h2.66c-.02-1.87-.46-2.76-2.88-2.76-1.66,0-2.95.36-4.46,1.44v-3.1c1.3-.89,2.81-1.39,5.11-1.39,3.96,0,5.69,1.54,5.69,5.18Zm-8.68-22.07c0-1.9-.26-3.31-.67-4.87h2.64c.36,1.18.62,2.64.62,4.9,0,5.06-2.47,8.64-6.02,8.64-1.63,0-2.33-.6-2.33-.6v-3.36c.24.1.96.34,2.04.34,2.14,0,3.72-1.73,3.72-5.04Zm-7.94-15h2.81v17.83h-2.81v-17.83Zm-8.76-1.54l1.51,1.49,1.49-1.49,1.75,1.75-1.75,1.78-1.49-1.51-1.51,1.51-1.75-1.78,1.75-1.75Zm-9.17,1.54h2.81v11.23c0,2.06.31,2.95,2.57,2.95h3.48c3.02,0,4.2-.67,4.2-2.42v-.7c-.43.86-1.32,1.54-3.05,1.54-2.54,0-3.77-1.51-3.77-3.84,0-2.74,1.63-5.06,4.56-5.06,3.17,0,4.51,2.83,4.51,6.17v1.42c0,4.49-2.09,6.55-6.65,6.55h-3.29c-3.98,0-5.37-1.95-5.37-6.12v-11.71Zm5.37,37.07v8.23h-3.46v-1.42c-.77,1.2-1.97,1.78-3.7,1.78-2.81,0-4.37-1.49-4.37-3.84,0-2.86,1.75-4.13,5.4-4.13h2.66c-.02-1.87-.46-2.76-2.88-2.76-1.66,0-2.95.36-4.46,1.44v-3.1c1.3-.89,2.81-1.39,5.11-1.39,3.96,0,5.69,1.54,5.69,5.18Zm-15.32-34.99l1.61,1.56-1.61,1.58-1.56-1.58,1.56-1.56Zm-1.51,2.59l1.49,1.46,1.49-1.46,1.75,1.75-1.75,1.78-1.49-1.49-1.49,1.49-1.73-1.78,1.73-1.75Zm-20.43,32.87c0,3.29-1.13,5.57-3,6.86l1.54,2.93h-2.83l-1.01-1.92c-.67.17-1.42.24-2.21.24-4.44,0-7.49-2.66-7.49-8.11v-2.45c0-5.45,3.05-8.26,7.49-8.26s7.51,2.81,7.51,8.26v2.45Zm2.33-26.49h2.64s-.94,2.23-.94,4.56c0,3,1.27,4.06,4.92,4.06s4.82-1.27,4.82-4.13c-.02-1.85-.26-3.34-.65-5.66h2.69c.12.67.31,1.97.43,2.83.19,1.18.65,1.46,2.21,1.46s2.18-.48,2.18-1.92v-2.38h2.57v2.4c0,1.42.46,1.9,1.8,1.9,1.27,0,1.73-.5,1.73-1.87,0-1.25-.48-3.1-.48-3.1h2.54c.17.38.53,1.82.53,3.43,0,3.53-1.68,5.18-4.3,5.18-1.75,0-2.81-.62-3.26-1.92-.46,1.22-1.58,1.92-3.38,1.92-1.01,0-1.68-.19-2.11-.58-.46,4.01-2.83,6.05-7.58,6.05-5.18,0-7.32-2.23-7.32-7.37,0-2.86.96-4.87.96-4.87Zm22.02,20.83v3.46c-.24-.05-.48-.07-.7-.07-2.02,0-3.26,1.58-3.34,4.01v6.02h-3.46v-13.08h3.46v2.09c.82-1.44,2.16-2.42,4.03-2.42Zm-22.2,9.94c0-2.86,1.75-4.13,5.4-4.13h2.66c-.02-1.87-.46-2.76-2.88-2.76-1.66,0-2.95.36-4.46,1.44v-3.1c1.3-.89,2.81-1.39,5.11-1.39,3.96,0,5.69,1.54,5.69,5.18v8.23h-3.46v-1.42c-.77,1.2-1.97,1.78-3.7,1.78-2.81,0-4.37-1.49-4.37-3.84Zm23.05,30.9v1.82h-7.63v1.27h8.93v2.28h-21.07v-2.28h9v-1.27h-7.66v-1.82h.46l-2.23-.72c.89-.74,1.61-1.61,2.14-2.4h-1.9v-1.92h9.22v-1.1h-8.02v-1.73h8.02v-1.06h-7.68v-6.19h18.43v6.19h-7.75v1.06h8.09v1.73h-8.09v1.1h9.29v1.92h-1.66c.7.67,1.46,1.56,2.02,2.33l-2.42.79h.53Zm25.36,5.18h-21.19v-2.95h8.95v-6.22h-7.13v-2.86h7.11v-4.78h-8.26v-2.93h19.87v2.93h-8.28v4.78h7.13v2.86h-7.13v6.22h8.93v2.95Zm-2.11-4.66l-2.33,1.54c-.86-1.25-1.99-2.76-2.93-3.89l2.3-1.46c.98,1.1,2.11,2.57,2.95,3.82Zm3.9-22.62h-3.43v-6.91c-.79,1.18-1.97,1.94-3.72,1.94-3.43,0-5.28-1.97-5.28-5.98v-1.82c0-3.74,1.8-5.98,5.28-5.98,1.73,0,2.93.7,3.72,1.78v-1.44h3.43v18.41Zm22.74,21.61h-6.24c1.8,1.42,3.89,3.26,5.5,4.92l-1.94,1.94c-.48-.53-1.03-1.08-1.61-1.63-4.9.38-11.3.74-16.2.84l-.31-2.3c1.61-1.01,3.12-2.38,4.3-3.77h-5.71v-2.5h3v-12.17h16.22v12.17h3v2.5Zm-.95-26.63c-1.54,0-3.62-.34-4.9-1.01v-2.86c1.44.72,3.14,1.2,4.99,1.2,1.49,0,2.52-.43,2.52-1.42s-.72-1.27-1.99-1.37l-1.75-.19c-2.04-.19-3.98-1.08-3.98-3.89,0-3,2.83-4.22,5.52-4.22,1.8,0,3.72.36,4.83,1.01v3.02c-1.39-.82-3.19-1.32-4.71-1.32s-2.45.5-2.45,1.37c0,.94.84,1.15,2.06,1.27l1.63.14c2.47.22,4.1,1.25,4.1,3.86,0,3.29-3.1,4.39-5.88,4.39Zm20.52-.31h-3.43v-7.15c0-2.21-.91-3.19-2.47-3.19s-2.66,1.08-2.69,3.1v7.25h-3.46v-18.12h3.46v6.72c.84-1.25,2.11-2.02,4.03-2.02,3.02,0,4.56,1.87,4.56,5.23v8.18Zm20.83-.43c-.87,0-1.52-.12-2.34-.45v-2.17c.69.35,1.3.45,1.91.45,1.46,0,1.87-1,1.87-2.4,0-1.81-.57-2.5-1.85-2.5h-.67v-1.95h.65c1.26,0,1.73-1.02,1.73-2.38s-.59-2.11-1.67-2.11c-.55,0-1.14.04-1.85.51v-2.11c.81-.47,1.52-.59,2.4-.59,2.36,0,3.47,1.48,3.47,3.88,0,1.67-.55,2.88-1.54,3.55,1.3.63,1.79,2.17,1.79,3.74,0,2.13-.96,4.53-3.9,4.53Zm12.42-.18l-1.41-3.98h-.52v3.98h-1.94v-13.18h1.94v7.37h.51l1.33-3.68h2.04l-1.85,4.26,1.94,5.24h-2.02Zm12.69,0h-1.94v-6.42c0-1.1-.31-1.5-.94-1.5s-1.01.33-1.05,1.41v6.51h-1.94v-6.42c0-1.1-.31-1.5-.94-1.5-.66,0-1.05.37-1.05,1.59v6.34h-1.94v-9.5h1.94v.77c.4-.59,1-.93,1.85-.93,1,0,1.57.44,1.85,1.31.4-.82,1.06-1.31,2.08-1.31,1.54,0,2.08,1.03,2.08,3.14v6.51Z"/>
    <rect class="cls-2" x="98.92" y="93.13" width="10.08" height="1.92"/>
    <rect class="cls-2" x="98.92" y="97" width="10.08" height="1.9"/>
    <rect class="cls-2" x="98.92" y="100.84" width="10.08" height="1.99"/>
    <path class="cls-2" d="m107.73,105.32h-5.45c-.98,1.3-2.14,2.45-3.34,3.41,3-.12,6.34-.31,9.29-.53-.67-.58-1.34-1.13-1.97-1.63l1.46-1.25Z"/>
  </g>
  <path class="cls-2" d="m223.37,96.69v49.01h51.08v-49.01h-51.08Zm42.22,43.57h-7.19v-1.75h-26.67v-15.3h7.12v8.94h5.96v-11.33h-12.28v-14.67h7.04v8.51h5.25v-11.81h7.47v11.81h5.41v-8.51h7.12v14.67h-12.52v11.33h6.12v-8.94h7.19v17.05Z"/>
  <g>
    <path class="cls-2" d="m250.95,220.79l-.18.34c.63,1.06,1.41,1.95,2.4,2.74.97-.9,1.62-1.9,2.13-3.09h-4.35Z"/>
    <rect class="cls-2" x="384.84" y="207.35" width="9.91" height="1.19"/>
    <rect class="cls-2" x="243.42" y="178.38" width="4.76" height="1.06"/>
    <rect class="cls-2" x="250.63" y="229.13" width="4.71" height="3.27"/>
    <rect class="cls-2" x="243.42" y="180.35" width="2.4" height="1.25"/>
    <rect class="cls-2" x="384.84" y="205.24" width="9.91" height="1.14"/>
    <path class="cls-2" d="m361.42,230.55c-.87,0-1.52.67-1.52,1.53s.65,1.55,1.52,1.55,1.5-.67,1.5-1.55-.65-1.53-1.5-1.53Z"/>
    <path class="cls-2" d="m365.44,209.57c.6-.14,1.19-.31,1.79-.47v-2.96h-1.79v3.43Z"/>
    <rect class="cls-2" x="384.84" y="203.14" width="9.91" height="1.14"/>
    <rect class="cls-2" x="279.51" y="177.27" width="2.27" height="4.57"/>
    <rect class="cls-2" x="243.42" y="176.38" width="2.4" height="1.12"/>
    <rect class="cls-2" x="322.86" y="203.23" width="3.03" height="3.54"/>
    <rect class="cls-2" x="318.56" y="203.23" width="3" height="3.54"/>
    <rect class="cls-2" x="318.56" y="198.59" width="3" height="3.5"/>
    <path class="cls-2" d="m302.52,188.01c0,.85.65,1.26,1.86,1.26,1.32,0,1.88-.51,1.88-1.7v-.6c-.51-.14-1.21-.25-1.88-.25-1.37,0-1.86.52-1.86,1.28Z"/>
    <rect class="cls-2" x="322.86" y="198.59" width="3.03" height="3.5"/>
    <path class="cls-2" d="m269.95,177.46h-5.97c-.58.58-1.19,1.12-1.88,1.62h6.25c.6-.52,1.17-1.1,1.61-1.62Z"/>
    <path class="cls-2" d="m253.79,179.49c.99-.83,1.61-1.79,1.95-2.87h-3.83c.34,1.08.92,2.04,1.88,2.87Z"/>
    <rect class="cls-2" x="365.44" y="202.24" width="1.79" height="2.89"/>
    <rect class="cls-2" x="279.51" y="183.02" width="2.27" height="4.73"/>
    <rect class="cls-2" x="385.51" y="198.34" width="8.56" height="1.5"/>
    <rect class="cls-2" x="424.52" y="201.03" width="2.94" height="1.48"/>
    <rect class="cls-2" x="365.44" y="198.5" width="1.79" height="2.73"/>
    <rect class="cls-2" x="371" y="205.83" width="2.33" height="1.73"/>
    <rect class="cls-2" x="424.52" y="203.52" width="2.94" height="1.53"/>
    <rect class="cls-2" x="428.67" y="201.03" width="2.96" height="1.48"/>
    <rect class="cls-2" x="428.67" y="203.52" width="2.96" height="1.53"/>
    <path class="cls-2" d="m223.36,162.96v83.46h229.44v-83.46h-229.44Zm202.95,16.13c-2.24.25-4.39.23-6.93.07l-.11-1.5c2.4.16,4.37.18,6.34.02-.4-.85-.76-1.61-1.05-2.26l1.41-.45,1.17,2.53c1.52-.22,3.1-.54,4.98-1.01l.23,1.44c-1.68.43-3.16.74-4.57.96.29.6.59,1.21.96,1.9,1.43-.23,2.8-.56,4.17-.97l.18,1.37c-1.19.42-2.4.74-3.65.96.65,1.23,1.46,2.71,2.51,4.57l-1.23.94c-1.26-1.14-3.79-2.09-5.97-2.09-1.79,0-2.94.69-2.94,1.75,0,1.52,2.22,2.18,7.15,2l-.2,1.44c-5.94.27-8.61-.92-8.61-3.39,0-2,1.93-3.03,4.44-3.03,1.9,0,3.7.36,5.13,1.12-.54-.92-1.14-1.97-1.73-3.07-2.53.31-5.31.34-8.72.2l-.09-1.48c3.09.2,5.69.16,8.09-.11l-.96-1.9Zm-7.13,17.86c.92.88,2.08,2.13,2.83,3.05l-.9.85c-.79-.99-1.95-2.26-2.83-3.09l.9-.81Zm-6.28-22h1.5v16.25h-1.5v-16.25Zm2.18,24.45l-.02,1.59c-2.89-.32-5.4-.14-8.39.49l-.18-1.57c3-.63,5.74-.79,8.59-.51Zm-32.11-20.35l.11-1.46c1.21.05,2.91.05,4.73-.02.34-.81.58-1.62.76-2.42l1.55.2c-.2.78-.42,1.5-.69,2.15,1.97-.13,3.99-.33,5.72-.65l.11,1.34c-1.91.34-4.22.58-6.46.72-.56,1.06-1.16,1.84-1.64,2.33l.02.04c.43-.29,1.32-.76,2.73-.76s2.04.61,2.29,2.31c1.44-.58,3.05-1.14,4.75-1.75l.4,1.39c-1.91.67-3.61,1.25-5.04,1.81.02.88,0,1.97-.04,3.27h-1.52c.04-1.06.07-1.95.07-2.67-2,.9-3.18,1.75-3.18,2.8,0,1.23,1.16,1.59,3.32,1.59,1.48,0,2.6-.11,4.77-.36l.07,1.53c-1.91.23-3.16.34-4.77.34-2.38,0-4.93-.38-4.93-2.87,0-1.93,1.88-3.27,4.67-4.5-.11-1.41-.5-1.71-1.53-1.71-1.39,0-2.58.88-5.76,3.95l-1.1-1.19c2.33-1.93,3.79-3.72,4.75-5.47-1.53.07-2.98.09-4.17.07Zm13.07,23.01v7.6h-12.49v-7.6h12.49Zm-11.82-1.16v-3.66h11.16v3.66h-11.16Zm-14.87-2.49h2.18v-1.64h1.16v1.64h2.22v1.1h-5.56v-1.1Zm-2.11-21.17h1.61c0,6.86-.61,9.73-4.3,12.56l-1.16-1.25c3.11-2.24,3.94-4.84,3.84-11.32Zm-7.56-1.66c.81.92,1.23,1.52,1.73,2.29l-.98.67c-.47-.76-.88-1.34-1.68-2.26l.92-.7Zm-1.59.88c.85.94,1.26,1.55,1.73,2.36l-.97.61c-.43-.76-.85-1.34-1.66-2.27l.9-.7Zm-7.22-1.03h1.71v5.34c2.56.52,5.6,1.5,7.78,2.82l-.74,1.44c-2.15-1.32-4.75-2.26-7.04-2.71v8.48h-1.71v-15.38Zm-5.41,2.53l1.57.63c-2.31,6.91-7.44,10.47-13.66,11.93l-.65-1.55c5.92-1.28,10.71-4.73,12.74-11.01Zm-8.27,32.86c2.17,0,4.26-1.21,5.98-4.17l1.23,1.1c-2.04,3.3-4.5,4.68-7.37,4.68-4.04,0-4.89-2.35-4.89-5.42s.29-6.55.36-9.53l1.73.09c-.14,2.8-.42,6.12-.42,9.46,0,2.04.47,3.79,3.38,3.79Zm-4.51-33.8c1.75.88,3.34,1.86,4.98,3l-.97,1.52c-1.64-1.23-3.2-2.17-4.87-3.1l.87-1.41Zm-7.43-.02c.29,5.4,1.64,8.66,4.58,11.77l-1.44,1.19c-2.89-3.18-4.64-7.11-4.84-12.74l1.7-.22Zm-2.4,30.95v5.07h-1.3v-5.07h-3v1.25h-1.26v-11.81h9.89v11.81h-1.3v-1.25h-3.03Zm-11.44-.52l-.38-1.25c.74-.22,1.61-.52,2.46-.87v-3.88h-2.24v-1.26h2.24v-3.57h1.34v3.57h1.66v1.26h-1.66v3.32c.52-.22,1.03-.45,1.48-.67l.38,1.21c-.54.29-1.19.58-1.86.85v4.28c0,1.59-.47,2.31-2.24,2.31-.31,0-.63-.02-.92-.05l-.18-1.37c.31.05.65.07.99.07.85,0,1.01-.18,1.01-1.21v-3.48c-.72.27-1.44.52-2.08.74Zm9.24,14.13c-.52-.72-1.01-1.25-1.93-2.09l.83-.81c.96.85,1.44,1.41,2,2.17l-.9.74Zm1.07,2.56l-.02,1.43c-2.51-.11-4.69-.05-7.02.27l-.18-1.43c2.51-.36,4.77-.45,7.22-.27Zm-3.81-47.12l1.7.22c-.18,5.63-1.59,9.57-4.82,12.74l-1.46-1.19c3.12-3.07,4.3-6.37,4.58-11.77Zm-11.74,3.83c-1.71.16-3.47.25-5.07.25v-1.55c1.64,0,3.36-.07,5.04-.2l-.16-3.86h1.62l.05,3.72c1.28-.14,2.53-.33,3.63-.52l.05,1.5c-1.08.2-2.35.38-3.65.52.02,1.79.05,3.57.09,5.22,1.41.52,3.1,1.52,4.3,2.8l-.9,1.21c-1.1-1.16-2.11-1.9-3.36-2.47v.04c0,2.22-.96,3.12-3.43,3.12-2.02,0-3.3-.87-3.3-2.6,0-1.62,1.14-2.6,3.3-2.6.76,0,1.46.11,1.89.2-.02-1.55-.05-3.14-.11-4.77Zm-8.67-4.98l1.66.34c-1.14,5.31-1.21,9.04-.27,14.26l-1.61.33c-1.1-5.22-.63-10.52.22-14.93Zm-19.33.18h4.95v14.22h-1.33v-1.28h-2.27v1.28h-1.34v-14.22Zm-.67,22.65c1.75.88,3.34,1.86,4.98,3l-.97,1.52c-1.64-1.23-3.2-2.17-4.87-3.1l.87-1.41Zm-12.86-23.89l1.16.49c-.25.36-.52.72-.83,1.08h6.57v1.03c-.38.51-.94,1.14-1.52,1.7h3.79v6.57h-12.87v-1.17h11.62v-1.61h-10.92v-1.12h10.92v-1.53h-11.12v-.69c-.29.2-.58.4-.88.58l-.72-.94c2.02-1.21,3.66-2.64,4.8-4.39Zm2.26,15.11h1.26c2.47,0,2.71-.2,2.71-2.06l1.35.25c0,2.42-.74,3.01-3.7,3.01h-1.75c-2.6,0-3.41-.45-3.41-2.44v-1.91h1.39v1.7c0,1.3.29,1.44,2.15,1.44Zm-.69-3.12l.78-.9c.85.58,1.77,1.32,2.6,2.04l-.76.94c-.83-.72-1.8-1.52-2.62-2.08Zm-15.45-10.16h-.88v-1.01h7.04v.92c-.31,1.25-.99,2.51-2.26,3.65.81.54,1.82,1.03,3.07,1.5l-.54.99c-1.35-.51-2.49-1.12-3.39-1.79-.92.67-2.08,1.28-3.52,1.79l-.51-.99c1.26-.45,2.31-.96,3.14-1.52-1.16-1.08-1.86-2.29-2.15-3.54Zm-.36,33.39c0,1.82-.76,2.4-2.54,2.4-.45,0-.81,0-1.62-.11l-.38-1.59c.87.14,1.14.16,1.7.16.81,0,1.19-.18,1.19-1.1v-7.24h-6.34v-1.5h6.34v-3.83h1.64v3.83h6.39v1.5h-6.39v4.78l.02,2.69Zm-8.2-19.85c1.46-.54,2.89-1.3,3.74-1.88l.79.81c-.94.63-2.42,1.46-3.9,2.08l-.63-1.01Zm12.35,14.16c.47,2.17,1.71,3.9,3.18,5.05l-1.28.92c-1.57-1.37-2.76-3.18-3.25-5.54l1.35-.43Zm1.64-4.57c-.52-.72-1.01-1.25-1.93-2.09l.83-.81c.96.85,1.44,1.41,2,2.17l-.9.74Zm-3.68-10.68l.7-.87c1.28.52,2.82,1.34,3.83,1.95l-.72.94c-1.05-.67-2.53-1.44-3.81-2.02Zm-9.01-4.87l.7-.78c.49.2.97.4,1.46.61.88-.52,1.66-1.08,2.22-1.53h-5.6v-7.06h7.08v.94h-2.46v1.12h2.29v2.85h-2.29v1.25h2.51v.9h-1.44l.88.7c-.58.47-1.28.92-1.99,1.35.67.29,1.3.58,1.86.87,1.35-.83,2.58-1.73,3.72-2.67l.87.78c-1.57,1.3-3.14,2.29-4.75,3.09l5.58-.22c-.51-.43-1.01-.83-1.48-1.17l.7-.67c1.21.88,2.54,2.06,3.47,2.94l-.74.65c-.25-.25-.54-.52-.83-.78l-5.02.22v3.65h-1.28v-3.59c-2.22.09-4.5.16-6.71.23l-.07-1.08c1.41-.04,2.85-.07,4.3-.13.42-.2.81-.42,1.21-.65-1.21-.58-2.73-1.26-4.19-1.82Zm1.05,20.14l1.43.42c-.43,2.38-1.73,4.19-3.32,5.43l-1.21-.83c1.48-1.21,2.76-2.83,3.1-5.02Zm-1.8,29.49l-1.1-.34c.52-1.44.92-3.05,1.12-4.4l1.1.22c-.18,1.35-.6,3.1-1.12,4.53Zm3.16.76h-1.26v-6.79c-.96.07-1.91.14-2.83.2l-.05-1.1,1.21-.05c.4-.52.81-1.08,1.21-1.66-.76-1.08-1.57-2.18-2.31-3.05l.7-.81.5.61c.65-1.16,1.23-2.56,1.66-3.85l1.16.51c-.56,1.57-1.28,3.18-2.04,4.35.33.42.63.85.94,1.28.78-1.26,1.48-2.62,1.97-3.92l1.12.6c-.78,1.91-2,4.04-3.32,5.81.81-.05,1.62-.14,2.38-.22-.23-.58-.49-1.12-.72-1.57l.96-.49c.52.99,1.16,2.51,1.53,3.75l-.99.47c-.11-.38-.25-.78-.4-1.16l-1.41.16v6.91Zm1.77-1.81c-.27-1.14-.61-2.38-.94-3.38l1.05-.42c.32.92.7,2.15.97,3.36l-1.08.43Zm8.9,1.82h-1.25v-1.01h-4.71v1.01h-1.21v-6.62h7.17v6.62Zm.88-6.9c-1.68-.69-3.09-1.48-4.24-2.36-1.08.87-2.47,1.68-4.31,2.42l-.52-1.16c1.66-.63,2.92-1.3,3.92-2.02-.87-.78-1.55-1.59-2.11-2.44-.42.63-.88,1.23-1.41,1.75l-.78-.88c1.28-1.32,2.26-3.12,2.67-4.93l1.16.22c-.11.45-.25.92-.42,1.37h5.11v1.03c-.45,1.34-1.16,2.64-2.42,3.86,1.07.72,2.33,1.35,3.84,2l-.49,1.14Zm.22-29.06c-.56-.7-1.03-1.23-1.93-2.06l.83-.81c.92.83,1.41,1.37,2,2.09l-.9.78Zm3.68-11.73l1.14.61c-.49,1.06-1.26,2.26-2.02,3.21l-1.03-.81c.74-.92,1.46-2.04,1.91-3.01Zm-.7,24.07c3.36-.76,5.99-2.09,7.94-3.97-1.08-.92-2.47-1.82-3.83-2.53l.9-1.23c1.37.72,2.87,1.71,4.03,2.56,1.19-1.48,2.06-3.23,2.62-5.22h-6.26c-1.43,2.11-3.29,3.95-5.27,5.22l-1.08-1.21c2.64-1.79,5.36-4.73,6.55-8.12l1.73.36c-.29.79-.63,1.57-1.05,2.33h6.3l1.06.69c-1.44,6.35-5.49,10.87-12.92,12.53l-.72-1.41Zm6.57,23.1c-4.04,0-4.89-2.35-4.89-5.42s.29-6.55.36-9.53l1.73.09c-.14,2.8-.42,6.12-.42,9.46,0,2.04.47,3.79,3.38,3.79,2.17,0,4.26-1.21,5.98-4.17l1.23,1.1c-2.04,3.3-4.5,4.68-7.37,4.68Zm7.64-43.49c-.61-1.03-1.41-2.2-2.13-3.09l1.08-.74c.69.87,1.52,2,2.11,3.03l-1.07.79Zm14.56,41.75l-.29,1.59c-4.3-.38-7.65-2.38-7.65-5.61,0-2.76,2.18-4.95,4.84-6.19v-.02c-3.2.38-6.55.85-10.11,1.23l-.18-1.61c5.09-.47,10.04-.99,15.05-1.43l.14,1.59c-5.54,1.03-8.03,3.66-8.03,6.26,0,2.35,2.31,3.75,6.23,4.19Zm-11.23-20.17l-.65-1.55c5.92-1.28,10.71-4.73,12.74-11.01l1.57.63c-2.31,6.91-7.44,10.47-13.66,11.93Zm6.79-25.62l1.07-.69c.6.69,1.32,1.7,1.9,2.6l-1.01.74c-.61-.99-1.34-2-1.95-2.65Zm8.57-1.19h-1.86v3.23c0,1.62-.45,2.6-2.54,2.6-.47,0-.94-.04-1.37-.09l-.18-1.32c.47.05.99.09,1.48.09,1.08,0,1.26-.25,1.26-1.32v-3.19h-6.53v-1.19h6.53v-1.86h1.35v1.86h1.86v1.19Zm.18-3.68h-10.13v-1.19h4.33v-2.47h-3.68v-1.16h3.68v-1.99h1.37v1.99h3.68v1.16h-3.68v2.47h4.42v1.19Zm.86,19.02l.11-1.46c1.21.05,2.91.05,4.73-.02.34-.81.58-1.62.76-2.42l1.55.2c-.2.78-.42,1.5-.69,2.15,1.97-.13,3.99-.33,5.72-.65l.11,1.34c-1.91.34-4.22.58-6.46.72-.56,1.06-1.16,1.84-1.64,2.33l.02.04c.43-.29,1.32-.76,2.73-.76s2.04.61,2.29,2.31c1.44-.58,3.05-1.14,4.75-1.75l.4,1.39c-1.91.67-3.61,1.25-5.04,1.81.02.88,0,1.97-.04,3.27h-1.52c.04-1.06.07-1.95.07-2.67-2,.9-3.18,1.75-3.18,2.8,0,1.23,1.16,1.59,3.32,1.59,1.48,0,2.6-.11,4.77-.36l.07,1.53c-1.91.23-3.16.34-4.77.34-2.38,0-4.93-.38-4.93-2.87,0-1.93,1.88-3.27,4.67-4.5-.11-1.41-.5-1.71-1.53-1.71-1.39,0-2.58.88-5.76,3.95l-1.1-1.19c2.33-1.93,3.79-3.72,4.75-5.47-1.53.07-2.98.09-4.17.07Zm8.32,33.62c-1.82-1.93-4.55-4.15-6.39-5.43-1.32-.9-2.06-1.44-2.06-2.51,0-.83.47-1.44,1.62-2.27,1.68-1.19,5.14-3.86,6.54-5.51l1.33,1.08c-1.77,1.77-5.07,4.24-6.55,5.31-.72.51-.99.85-.99,1.32,0,.51.31.83,1.1,1.37,1.59,1.14,4.55,3.3,6.7,5.42l-1.3,1.23Zm5.46-.47l-1.61-.51c1.3-3.29,2.49-7,3.34-10.18-1.33.11-2.63.18-3.84.22l-.07-1.57c1.39,0,2.85-.07,4.3-.2.27-1.14.49-2.17.61-3.03l1.66.11c-.16.87-.36,1.79-.6,2.78,1.23-.13,2.42-.27,3.5-.43l.14,1.44c-1.25.22-2.64.4-4.03.54-.87,3.32-2.04,7.13-3.41,10.83Zm13.41-.54c-1.07.14-2.47.23-3.81.23-2.15,0-4.06-.6-4.95-2.71l1.12-.87c.69,1.25,1.97,2.06,3.83,2.06,1.3,0,2.58-.13,3.81-.29v1.57Zm.34-12.85c-.56-.7-1.03-1.23-1.93-2.06l.83-.81c.92.83,1.41,1.37,2,2.09l-.9.78Zm16.29,8.48l-1.01,1.05c-2.42-1.48-4.12-2.11-6.05-2.11-2.15,0-3.3.92-3.3,2.22,0,1.88,2.58,2.78,7.54,2.51l-.22,1.48c-5.94.29-9.08-1.14-9.08-3.92,0-2.42,2.13-3.59,4.82-3.59,1.64,0,2.91.18,4.77,1.19l.04-.02c-.9-1.26-1.88-2.71-2.83-4.28-2.46.25-5.2.34-8.14.11l.04-1.52c2.54.23,5,.2,7.27,0-.6-1.06-1.16-2.18-1.68-3.34l1.48-.51c.56,1.23,1.19,2.47,1.86,3.66,1.91-.22,3.68-.52,5.25-.83l.2,1.46c-1.34.27-2.91.56-4.64.78,1.23,2.08,2.53,4.01,3.68,5.65Zm8.15,4.62c-2.96,0-4.31-4.24-4.31-9.66,0-1.16.07-2.58.2-3.83l1.71.07c-.14,1.41-.23,2.94-.23,4.17,0,3.83,1.05,7.44,2.56,7.44,1.08,0,1.88-1.84,2.18-3.54l1.43.97c-.51,2.02-1.57,4.37-3.54,4.37Zm9.01-4.75c-.61-2.91-2.08-4.96-3.74-6.64l1.3-1.08c1.91,1.73,3.41,3.95,4.03,6.88l-1.59.85Zm-4.3-22.14c0-2.76,2.18-4.95,4.84-6.19v-.02c-3.2.38-6.55.85-10.11,1.23l-.18-1.61c5.09-.47,10.04-.99,15.05-1.43l.14,1.59c-5.54,1.03-8.03,3.66-8.03,6.26,0,2.35,2.31,3.75,6.23,4.19l-.29,1.59c-4.3-.38-7.65-2.38-7.65-5.61Zm10.12,27.79c-1.33,0-2.38-1.03-2.38-2.35s1.05-2.38,2.38-2.38,2.37,1.03,2.37,2.38-1.01,2.35-2.37,2.35Zm6.97-24.6v3h-1.16v-2.65c-1.25.36-2.55.69-3.63.92l-.18-1.12c.27-.05.56-.13.85-.18v-11.34h-.65v-1.14h5.33v1.14h-.56v10.25c.29-.07.56-.16.81-.25l.14,1.05-.96.32Zm2.62,2.56h-1.12v-7.65h4.57v6.77h-3.45v.88Zm7.49.27c-.76,0-1.44-.6-1.9-1.91-.47.72-.97,1.43-1.55,2.13l-.76-.7c.76-.92,1.41-1.82,1.97-2.76-.02-.14-.05-.29-.07-.45-.23-1.62-.4-3.45-.49-5.49h-6.68v-1.12h1.44c-.16-.78-.38-1.68-.6-2.36l.96-.27c.2.69.45,1.68.67,2.64h1.19c.23-.87.43-1.84.56-2.64l.99.18c-.16.81-.36,1.73-.56,2.46h1.99c-.05-1.75-.07-3.65-.07-5.69h1.19c0,2.13.02,4.01.07,5.69h2.89v1.12h-2.85c.07,1.59.18,2.98.31,4.21.6-1.23,1.05-2.47,1.39-3.72l.94.31c-.47,1.68-1.14,3.38-2.08,5.05.27,1.19.67,1.9,1.06,1.9s.6-.72.6-2.94l1.03.32c0,2.92-.51,4.06-1.64,4.06Zm-1.43-15.04l.94-.45c.49.92,1.08,2.22,1.5,3.29l-1.01.43c-.38-1.1-.96-2.4-1.43-3.27Zm-4.5-8.37l-.99-.69v-12.62h1.61v11.12c2.29-1.25,4.28-2.98,5.81-5.83l1.25,1.08c-2,3.61-4.66,5.61-7.67,6.93Zm9.63,23.69l-.34-1.12c2.09-.45,4.33-1.17,5.92-1.86l.54,1.03c-1.55.69-4.04,1.46-6.12,1.95Zm15.11-.02c-1.77-.65-4.3-1.44-6.17-1.91l.54-1.06c1.82.45,4.44,1.26,6.1,1.9l-.47,1.08Zm5.88-.87l-1.64.25c-1.03-5.05-.72-10.45.22-14.71l1.7.2c-1.23,5.47-1.17,9.21-.27,14.26Zm-.31-21.24l-.09-1.37c.7.07,1.41.14,2.29.14,1.99,0,2.22-.52,2.29-1.95l.13-2.56h-6.44l.67-5.43h5.63v-2.69h-6.08v-1.3h7.53v5.27h-5.78l-.36,2.87h6.32l-.16,3.83c-.11,2.46-.7,3.34-3.65,3.34-.94,0-1.55-.05-2.29-.14Zm8.18,20.35c-2.54,0-4.6-.76-4.95-3.43l1.34-.61c.32,1.62,1.37,2.45,3.45,2.45,1.8,0,3.39-.14,4.66-.38l.02,1.57c-1.15.27-2.51.4-4.51.4Zm22.85.94c-.97.11-2.58.18-4.73.18h-.81c-4.82,0-6.72-.76-7.73-2.82-.6.88-1.23,1.9-1.75,2.76l-1.06-.74c.7-1.05,1.53-2.24,2.26-3.23v-4.73h-2.15v-1.19h3.38v5.78c.72,2.24,2.17,2.92,7.09,2.92h.72c2.18,0,3.77-.11,4.89-.25l-.11,1.32Zm.11-3.5h-5.38v1.81h-1.14v-1.81h-5.29v-1.1h5.29v-1.48h-4.13v-6.08h4.13v-1.25h-5.11v-1.08h5.11v-1.23h1.14v1.23h5v1.08h-5v1.25h4.15v6.08h-4.15v1.48h5.38v1.1Zm3.98-17.68c-.81-1.32-1.97-2.44-3-3.32l.92-1.05c1.12.79,2.33,1.95,3.23,3.27l-1.16,1.1Z"/>
    <rect class="cls-2" x="371" y="208.52" width="2.33" height="1.97"/>
  </g>
  <g>
    <circle class="cls-1" cx="370.44" cy="121.39" r="24.15"/>
    <path class="cls-2" d="m370.44,146.64c-13.92,0-25.24-11.32-25.24-25.24s11.32-25.24,25.24-25.24,25.24,11.32,25.24,25.24-11.32,25.24-25.24,25.24Zm0-48.31c-12.72,0-23.06,10.35-23.06,23.06s10.35,23.06,23.06,23.06,23.06-10.35,23.06-23.06-10.35-23.06-23.06-23.06Z"/>
  </g>
  <g>
    <circle class="cls-1" cx="429.36" cy="121.39" r="24.15"/>
    <path class="cls-2" d="m429.37,147.73c-14.52,0-26.33-11.81-26.33-26.33s11.81-26.33,26.33-26.33,26.33,11.81,26.33,26.33-11.81,26.33-26.33,26.33Zm0-48.31c-12.12,0-21.97,9.86-21.97,21.97s9.86,21.97,21.97,21.97,21.97-9.86,21.97-21.97-9.86-21.97-21.97-21.97Z"/>
  </g>
  <path class="cls-1" d="m298.5,119.56c-.73,1.1-1.5,2.14-2.32,3.15l-1.5-3.02c2.87-3.48,5.19-8.15,6.23-12.43l3.02.52c-.52,2.08-1.34,4.27-2.38,6.44v20.73h-3.05v-15.39Zm4.79,1.89h20.18v5.1h-2.63v1.65h-5.68v3.02c0,2.72-.82,3.73-4.24,3.73-.82,0-1.53-.06-2.29-.18l-.4-2.63c.67.12,1.37.18,2.11.18,1.5,0,1.77-.21,1.77-1.74v-2.38h-6.38v-1.62h-2.44v-5.13Zm.28-12.03h8.49c-.21-.76-.49-1.56-.7-2.17l3.05-.34c.24.67.52,1.59.76,2.5h8.09v2.53h-19.69v-2.53Zm2.01,4.21h15.66v6.05h-15.66v-6.05Zm14.96,12.24v-2.08h-14.41v2.08h14.41Zm-2.2-8.21v-2.02h-9.95v2.02h9.95Z"/>
  <path class="cls-2" d="m360.45,115.2h-4.44v-1.58h4.87v-6.36h1.77v6.36h4.19v1.58h-4.19v1.86c1.4,1.65,3.04,3.82,4.38,5.77l-1.24,1.15c-.93-1.52-2.08-3.2-3.13-4.62v16.05h-1.74v-16.33c-.75,3.32-2.14,6.8-4.28,10.18l-1.4-1.27c2.79-4.25,4.59-8.85,5.21-12.79Zm12.26-2.45h-6.18v-1.65h8.41c-.5-1.18-1.15-2.54-1.68-3.6l1.77-.53c.59,1.09,1.3,2.67,1.86,4.13h7.17v1.65h-9.34c-1.12,2.17-2.64,4.34-4.59,6.52,2.17-.09,4.41-.22,6.64-.4,1.02-1.4,1.89-2.89,2.67-4.44l1.55.78c-2.54,5.31-6.55,9.78-13.59,13.75l-.96-1.49c3.91-2.14,6.77-4.41,8.97-6.92-2.51.19-5.28.37-7.7.43l-.19-1.3c2.3-2.36,3.97-4.66,5.18-6.92Zm9.34,7.36l1.52.87c-1.4,2.42-3.13,4.72-5.37,6.92,2.11,1.86,4.56,4.31,6.14,6.08l-1.3,1.3c-1.71-1.89-4.16-4.38-6.15-6.18-2.48,2.23-5.52,4.35-9.25,6.33l-.96-1.55c7.67-4,12.26-8.44,15.36-13.78Z"/>
  <path class="cls-2" d="m415.85,114.46h2.64v-1.92h-2.95v-4.62h13.9v3.88c1.46-1.24,2.95-3.26,3.82-5.09l4.72.93c-.96,1.77-2.2,3.23-3.45,4.38,1.02-.06,2.17-.16,3.38-.25-.34-.4-.71-.78-1.02-1.09l3.01-2.33c1.49,1.4,3.63,3.85,4.78,5.49l-2.95,2.67c-.25-.34-.53-.71-.81-1.12l-1.12.09c1.52,1.02,3.44,2.51,4.59,3.48l-2.39,2.79h.78v3.44c-.47,1.74-1.27,3.32-2.39,4.72,1.27.5,2.76.87,4.44,1.18l-1.71,4.66c-2.42-.53-4.59-1.37-6.46-2.51-1.86,1.18-4.04,2.08-6.42,2.61l-1.33-3.17v3.17h-3.51v-1.43h-5.74v1.43h-3.82v-21.38Zm9.56,11.05v-.78c-1.83-.03-2.58-.84-2.58-2.73v-3.51h-.62v1.15c0,1.89-.09,3.76-1.02,5.49l-1.52-.81v1.18h5.74Zm-5.03-5.93v-1.09h-.71v5.12c.56-1.15.71-2.3.71-4.03Zm5.03,10.52v-1.3h-5.74v1.3h5.74Zm-2.39-15.64v-1.92h-1.15v1.92h1.15Zm2.39,8.01v-3.97h-.71v2.92c0,.78.06,1.02.71,1.06Zm3.51-8.01v4.28c1.27-.74,2.61-1.71,3.79-2.73-1.18.09-2.3.15-3.26.22l-.4-3.69h-2.58v1.92h2.45Zm4.04,6.18c-.84.65-1.68,1.24-2.48,1.77l-1.55-2.51v5.09c1.61-1.24,3.07-2.73,4.04-4.35Zm.19,9.4c-.47-.62-.87-1.27-1.24-1.96-.62.53-1.27.99-1.92,1.43l-1.06-2.02v3.69c1.58-.28,3.01-.68,4.22-1.15Zm2.98-12.14c-.43.43-.93.9-1.52,1.4l3.13.59c-.22.62-.5,1.24-.81,1.86h4.53c-1.3-1.21-3.26-2.76-4.66-3.82l2.17-2.39-4.81.37,1.96,1.99Zm.68,9.81c.65-.68,1.15-1.46,1.52-2.36h-3.17c.4.9.93,1.68,1.65,2.36Z"/>
</svg>