<?xml version="1.0" encoding="UTF-8"?>
<svg id="Layer_1" data-name="Layer 1" xmlns="http://www.w3.org/2000/svg" viewBox="0 0 566.93 566.93">
  <defs>
    <style>
      .cls-1 {
        fill: #1d1d1b;
      }
    </style>
  </defs>
  <path class="cls-1" d="m37.88,144.76v27.35h16.02v-36.64c1.39,4.59,2.67,9.61,3.63,13.99l9.29-4.59c-2.14-6.73-4.59-12.93-7.05-17.95l-5.88.43v-3.42h8.55v-13.35h-8.55v-4.06l6.62.11c1.92-4.49,3.85-9.93,5.56-15.81l.21,2.35h15.17v2.78h-14.1l1.07,9.4h13.03v2.88h-17.63l1.07,11.54h52.34v-11.54h-18.48v-2.88h14.85v-9.4h-14.85v-2.78h17.09v-10.36h-17.09v-3.42l-17.3-1.28v4.7h-16.24l.43,3.63-7.9-3.2c-.96,6.09-2.46,13.25-3.85,19.23v-22.54l-16.02-1.28v22.54c-1.39-5.87-3.1-11.22-4.7-15.7l-7.9.43c1.5,6.62,3.2,15.81,4.27,23.29l8.33-3.42v4.81h-12.82l1.5,13.35h7.9c-2.88,10.58-7.48,22.22-13.57,31.94l9.4,2.78c2.56-4.17,5.13-8.87,7.58-13.89Z"/>
  <path class="cls-1" d="m67.36,172.11h15.7v-15.6h14.21v.11c0,2.35-.96,2.99-3.1,2.99s-4.7-.21-6.41-.53l2.46,12.61c2.24.21,5.23.43,8.65.43,11.75,0,14.96-4.27,14.96-13.03v-36.43h-46.47v49.46Zm15.7-38.67h14.21v2.88h-14.21v-2.88Zm0,11.54h14.21v2.88h-14.21v-2.88Z"/>
  <path class="cls-1" d="m225.13,160.04c.53-3.2.85-6.3.96-9.08l-14.85-4.17c0,1.92,0,4.49-.43,7.05-.32,2.24-.64,2.99-4.49,2.99-4.49,0-4.59-.75-4.59-3.42v-9.4h18.69v-36.96h-15.17v22.86h-3.53v-26.39h20.08v-14.53h-20.08v-9.72l-16.98-1.07v10.79h-18.91l.96,14.53h17.95v26.39h-3.63v-22.86h-10.79l-12.39-10.15c-1.28,2.46-2.78,5.02-4.49,7.69-2.03.32-4.06.53-6.09.75,5.56-5.98,11.11-13.57,15.49-21.36l-17.2-5.77c-3.85,8.97-9.93,20.51-16.45,28.31l3.74,15.38c3.1-.43,6.3-.96,9.51-1.6-3.42,4.38-7.16,8.55-10.9,12.07l3.95,15.6c10.04-2.03,20.94-5.45,29.06-8.12l.75-13.67c-3.95.96-8.55,2.14-13.25,3.1,5.34-5.23,10.68-11.43,15.28-17.84v32.15c-11.22,3.95-25.85,7.9-37.6,9.83l4.7,17.73c11.86-3.1,24.78-8.12,34.29-12.39l.11-14.74h15.92v11c0,13.99,2.46,17.09,20.62,17.09,15.92,0,18.37-3.52,19.76-12.07Z"/>
  <path class="cls-1" d="m252.47,77.36c-.96,4.91-2.03,9.93-3.42,14.96h-9.08v78.09h16.88v-5.77h25v-39.95c5.45,5.02,11.64,13.03,16.45,19.33l11.86-11.22c-.43,6.62-.96,12.82-1.82,17.63-.43,2.56-1.28,3.2-3.95,3.2-4.17,0-9.72-.21-13.57-.53l3.2,17.95c3.95.21,9.51.32,15.81.32,11.54,0,14.42-4.59,16.56-18.48,2.46-16.24,2.78-44.01,2.78-61.32h-21.58c1.6-3.53,2.88-7.26,3.84-11l-18.27-4.17c-1.5,8.23-5.56,18.37-11.32,26.17v-10.25h-14.95c1.5-4.06,2.67-8.12,3.63-12.18l-18.05-2.78Zm29.38,31.83l9.29,5.23c2.88-2.46,5.88-5.66,8.65-9.4h11.22c-.11,8.87-.32,18.27-.75,26.71-5.02-5.34-10.25-10.47-14.96-13.99l-13.46,6.2v-14.74Zm-16.24,39.63h-8.76v-14.53h8.76v14.53Zm0-28.74h-8.76v-13.14h8.76v13.14Z"/>
  <path class="cls-1" d="m347.43,96.48h29.91l-.64,2.88h-21.36v40.81h-11.64l1.07,13.03h24.57c-6.94,1.92-15.6,3.63-23.71,4.59l6.94,14.42c13.25-2.67,25.32-6.52,34.5-10.58l-7.37-8.44h22.33l-7.05,8.33c10.04,2.78,23.71,7.26,33.76,11.22l8.12-13.67c-7.48-2.24-15.17-4.27-22.33-5.88h24.04v-13.03h-11.86v-40.81h-30.34l.53-2.88h39.1v-12.82h-36.43l1.07-5.45-19.55-.85-1.28,6.3h-33.44l1.07,12.82Zm61.1,43.69h-35.04v-3.53h35.04v3.53Zm0-9.83h-35.04v-3.42h35.04v3.42Zm0-9.72h-35.04v-3.42h35.04v3.42Zm0-13.14v3.42h-35.04v-3.42h35.04Z"/>
  <path class="cls-1" d="m542.37,129.59v-49.78h-55.23v49.78h18.05v6.09h-17.63l1.07,12.82h16.56v6.2h-21.36l-.21-14.42-6.62,2.35v-17.63h6.52v-14.31h-6.52v-16.24h7.05v-14.21h-31.83l1.07,14.21h7.37v16.24h-7.58l1.07,14.31h6.52v22.54c-3.63.96-7.26,1.71-10.58,2.35l4.81,17.09c10.15-3.31,20.94-7.8,28.84-11.11l.96,13.14h60.35v-14.31h-21.9v-6.2h18.8v-12.82h-18.8v-6.09h19.23Zm-21.26-36.85h5.66v7.05h-5.66v-7.05Zm-13.89,24.36h-5.45v-6.62h5.45v6.62Zm0-17.31h-5.45v-7.05h5.45v7.05Zm13.89,17.31v-6.62h5.66v6.62h-5.66Z"/>
  <path class="cls-1" d="m57.38,482.07h13.35c-.18,9.85-1.79,18.46-14.78,26.79l2.42,2.33c13.8-8.87,15.5-19.62,15.77-29.12h16.75c-.09,6.72-.36,13.98-.81,19.17-.36,4.48-1.61,5.46-6.09,5.46-2.33,0-5.11-.09-7.26-.18l.72,3.14c1.7.09,4.03.18,6.54.18,6.9,0,8.69-2.33,9.32-8.33.72-7.26.9-15.23.9-22.85h-37l.18,3.4Z"/>
  <path class="cls-1" d="m26.83,546.13h3.4v-5.38h19.98v-61.1h-23.38v66.48Zm3.4-63.25h16.66v25.08h-16.66v-25.08Zm0,28.31h16.66v26.34h-16.66v-26.34Z"/>
  <path class="cls-1" d="m59.98,551.41h3.31v-4.21h26.61v4.21h3.4v-32.88h-33.33v32.88Zm3.31-29.56h26.61v21.95h-26.61v-21.95Z"/>
  <path class="cls-1" d="m122.34,510.74h55.64v-32.79h-55.64v32.79Zm3.31-29.56h48.83v11.47h-48.83v-11.47Zm0,14.6h48.83v11.74h-48.83v-11.74Z"/>
  <path class="cls-1" d="m114.82,519.97c4.3,5.37,9.32,12.99,12.9,19.35l2.87-1.79c-4.12-7.08-8.51-13.62-12.54-18.72l-3.23,1.16Z"/>
  <polygon class="cls-1" points="161.67 515.58 158.18 515.4 158.18 545.86 141.69 545.86 141.69 515.58 138.2 515.4 138.2 545.86 110.87 545.86 111.23 549.35 189.71 549.35 189.71 545.86 161.67 545.86 161.67 515.58"/>
  <path class="cls-1" d="m172.15,539.32c5.02-5.55,10.03-12.9,13.53-20.34l-3.49-1.16c-2.51,6.09-7.17,13.71-13.08,19.71l3.05,1.79Z"/>
  <path class="cls-1" d="m242.58,483.15h30.19v-3.49h-64.77l.36,3.49h30.55v25.26h-37.09l.36,3.49h36.73v30.91c0,5.11-1.52,6.45-6.09,6.45s-9.41-.36-12.81-.72l.72,3.76c3.23.27,7.53.45,12.54.45,7.26,0,9.32-3.31,9.32-9.85v-31h35.57v-3.49h-35.57v-25.26Z"/>
  <path class="cls-1" d="m330.83,503.3h35.12v-3.49h-35.39c.36-3.85.45-7.79.45-11.65v-12l-3.4-.18v11.92c0,3.94-.09,7.88-.54,11.92h-33.77l.36,3.49h33.06c-2.33,16.3-10.21,32.52-35.3,46.05l2.6,3.05c24.19-14.07,32.61-29.39,35.57-44.79,1.17,3.94,2.51,7.88,4.12,11.74,6.54,12.36,17.29,24.46,31.27,33.06l2.51-3.05c-20.16-12.99-30.46-27.41-36.64-46.05Z"/>
  <path class="cls-1" d="m456.17,532.69l-.18-3.32-37.81,2.33v-11.56l32.7-1.88-.18-3.14-32.52,1.88v-10.21c8.96-.81,18.1-1.88,26.52-3.4l-.72-3.14c-15.23,3.05-37.27,4.66-55.99,5.29l.99,3.14c7.44-.36,16.4-.81,25.62-1.61v10.12l-29.21,1.7.54,3.14,28.67-1.7v11.56l-32.79,2.06.45,3.31,32.34-1.97v4.75c0,10.03,2.6,11.83,20.87,11.83,16.66,0,19.17-1.43,20.16-8.96.09-.9.27-2.6.27-3.94l-3.32-.9c0,1.08,0,2.42-.18,3.67-.72,5.91-2.06,6.9-16.75,6.9-16.13,0-17.47-1.25-17.47-8.6v-5.02l37.99-2.33Z"/>
  <path class="cls-1" d="m455.9,483.77h-25.44c1.34-2.78,2.42-5.73,3.13-8.51l-3.23-.81c-1.52,6.36-5.82,15.23-12.54,22.58l2.96,1.61c2.87-3.31,5.73-7.35,8.06-11.74h27.06v-3.14Z"/>
  <path class="cls-1" d="m404.66,500.17l2.6-1.7c-2.15-3.49-4.3-6.54-6.45-9.05l-3.05.81c2.6,2.96,5.11,6.72,6.9,9.94Z"/>
  <path class="cls-1" d="m442.46,499l2.6-1.61c-1.97-3.14-4.03-5.82-6-8.06l-3.05.54c2.33,2.78,4.66,6.18,6.45,9.14Z"/>
  <path class="cls-1" d="m392.83,486.91h26.52v-3.14h-24.82c1.43-2.78,2.51-5.55,3.32-8.33l-3.32-.9c-1.7,6.27-6.45,15.41-13.98,22.76l3.23,1.88c3.23-3.49,6.45-7.7,9.05-12.27Z"/>
  <path class="cls-1" d="m515.13,506.53c8.06,5.73,16.93,13.26,23.56,19.8l2.15-2.87c-7.53-7.17-15.77-13.8-22.58-18.63l-3.14,1.7Z"/>
  <polygon class="cls-1" points="471.5 481.53 471.76 484.94 505.27 484.94 505.27 552.31 508.94 552.31 508.94 484.94 546.03 484.94 546.03 481.53 471.5 481.53"/>
  <path class="cls-1" d="m41.38,253.95h2.78v-26.44h28.63c-.07,4.1-.26,8.2-.79,12.16-.66,5.49-1.85,6.54-7.27,6.54-2.91,0-6.41-.13-8.66-.33l.53,2.65c2.18.13,5.16.2,8.53.2,7.27,0,8.93-2.51,9.65-8.73.6-4.96.86-10.05.86-14.94h-12.03l1.26-19.77h-20.69v-9.78l-2.78-.26v10.05h-15.93l.2,2.38h15.73v17.39h-18.84l.2,2.45h18.64v26.44Zm2.78-46.28h17.85l-1.12,17.39h-16.73v-17.39Z"/>
  <path class="cls-1" d="m64.06,197.56c4.23,3.44,9.39,8.99,12.69,13.36l1.78-1.98c-3.97-4.89-8.4-9.32-12.17-12.43l-2.31,1.06Z"/>
  <path class="cls-1" d="m105.37,230.41l-1.92-1.85c-3.37,7.47-8.33,16.73-13.75,23.47l2.51,1.52c5.29-7.54,9.85-16.26,13.16-23.14Z"/>
  <path class="cls-1" d="m123.49,196.03v9.78h-14.88l.2,2.38h14.68v15.67h-16.86l.2,2.38h15.8c-3.9,7.73-9.45,15.8-15.34,22.21l.79,2.71c10.51-1.26,21.68-3.11,30.54-4.76,1.45,2.38,2.84,4.76,4.03,7.01l2.12-1.59c-4.1-7.27-8.53-14.02-12.36-19.04l-2.45.66c2.25,3.04,4.83,6.81,7.27,10.64-8.07,1.59-17.59,3.11-26.45,4.03,5.49-6.21,10.38-13.29,14.68-21.88h19.04v-2.38h-18.51v-15.67h16.59v-2.38h-16.59v-9.65l-2.51-.13Z"/>
  <path class="cls-1" d="m93.81,197.89l-1.65,1.78c3.7,1.85,8.13,4.56,11.83,7.27l1.39-2.05c-4.1-2.97-8.13-5.29-11.57-7.01Z"/>
  <path class="cls-1" d="m89.31,213.89l-1.39,2.12c4.03,1.39,8.93,3.5,13.09,5.62l1.12-2.51c-4.56-2.18-8.86-3.77-12.83-5.22Z"/>
  <path class="cls-1" d="m164.01,198.41v21.02h37.09v-21.02h-37.09Zm34.58,18.71h-32.13v-7.21h32.13v7.21Zm0-9.39h-32.13v-7.07h32.13v7.07Z"/>
  <path class="cls-1" d="m211.48,227.84v-2.31h-57.72l.26,2.31h27.77v19.97c-6.28-1.98-10.97-5.42-15.14-10.64.26-1.59.33-3.11.33-4.69l-2.64-.2c-.07,6.48-.99,13.09-10.97,19.5l2.05,1.72c6.55-4.36,9.52-9.12,10.78-14.02,1.59,1.98,3.17,3.7,4.83,5.36,5.29,4.56,13.29,7.47,25.98,7.47,4.17,0,8.73-.2,13.69-.86l.4-2.58c-5.09.6-9.45.86-14.08.86s-8.93-.4-12.56-1.26v-10.18h21.95v-2.25h-21.95v-8.2h27.04Z"/>
  <path class="cls-1" d="m232.83,196.03v7.54h-11.44l.2,2.18h11.24v10.71h-12.96l.26,2.25h14.94v24.4c-3.17-2.31-5.88-5.36-8.46-9.06.2-2.58.33-5.02.33-7.47l-2.38-.26c0,7.67-.4,16.33-4.96,24.73l1.98,1.52c2.78-5.09,4.16-10.64,4.83-16.2,1.39,2.25,2.78,4.23,4.17,5.88,6.02,6.15,15.07,9.98,29.22,9.98,4.96,0,10.45-.2,16.33-.93l.4-2.38c-6.02.6-11.7.93-16.73.93-9.45,0-16.53-1.59-22.28-5.09v-12.63h9.19v-2.25h-9.19v-11.17h8.79v-2.25h-11.04v-10.71h10.25v-2.18h-10.25v-7.27l-2.45-.26Z"/>
  <path class="cls-1" d="m251.21,241.59h21.95v-18.25h-21.95v18.25Zm2.38-16h17.12v13.62h-17.12v-13.62Z"/>
  <path class="cls-1" d="m248.43,216.79l1.59,1.65c9.06-5.22,10.31-11.5,10.51-17.06h10.64c-.07,3.31-.2,6.68-.46,9.52-.33,3.37-1.32,4.56-4.5,4.56-1.72,0-3.7-.07-5.29-.13l.46,2.31c1.26.07,2.98.13,4.83.13,4.83,0,6.21-1.92,6.74-6.68.4-3.77.53-7.93.53-11.97h-23.73l.13,2.25h8.4c-.2,5.55-1.39,10.58-9.85,15.4Z"/>
  <path class="cls-1" d="m320.55,195.77c-2.31,5.55-7.21,13.55-13.75,19.44l1.65,1.39c3.64-3.24,7.14-7.54,9.98-12.16h15.34c-1.92,2.98-4.3,6.15-7.34,9.39h-14.94v30.41c0,7.21,1.92,8.73,15.47,8.73,12.36,0,14.21-1.32,14.94-6.61.2-1.26.33-3.24.33-5.29l-2.25-.66c0,1.59-.07,3.5-.33,5.49-.46,3.97-1.52,4.76-12.56,4.76-12.23,0-13.22-1.12-13.22-6.41v-11.04h25.59v-19.37h-10.25c2.78-3.3,5.29-6.48,7.34-9.85v-1.65h-16.79c1.12-1.98,2.12-3.97,2.97-5.88l-2.18-.66Zm3.7,35.24h-10.38v-15.07h10.38v15.07Zm12.83-15.07v15.07h-10.51v-15.07h10.51Z"/>
  <path class="cls-1" d="m299.13,196.03c-3.04,6.88-7.87,15.27-13.09,21.42l.66,2.31c4.56-.73,9.45-1.72,13.55-2.58-3.77,5.88-8.33,11.77-13.22,16.59l.73,2.25c6.41-1.52,13.22-3.77,18.51-5.69l.13-2.38c-4.69,1.78-10.45,3.7-15.67,4.96,5.42-5.42,11.44-13.75,16-22.41l-1.92-1.32c-.93,1.78-1.92,3.64-3.04,5.49-3.9.93-8.46,1.85-12.69,2.38,4.5-5.55,8.46-12.43,12.23-20.23l-2.18-.79Z"/>
  <path class="cls-1" d="m286.37,251.5c7.27-2.38,14.88-5.49,20.83-8.46l.07-2.51c-6.48,3.44-14.68,6.54-21.62,8.66l.73,2.31Z"/>
  <path class="cls-1" d="m378.99,195.9l-2.38.6c2.11,3.04,4.23,7.34,5.88,11.44l2.31-1.32c-1.78-3.9-3.9-7.87-5.82-10.71Z"/>
  <path class="cls-1" d="m408.67,247.87c-5.22.66-10.05.99-14.35.99-11.44,0-19.7-2.78-25.98-9.59,19.77-8,28.3-16.73,35.96-28.76v-1.92h-46.81l.2,2.51h43.24c-7.54,11.5-18.58,20.43-34.25,26.11-.99-1.26-1.92-2.58-2.78-4.1l-2.18-.46c-1.59,5.49-4.43,12.23-8.79,17.78l2.38,1.26c3.77-5.36,6.35-11.11,7.93-16.33,1.32,2.38,2.71,4.5,4.03,6.35,5.42,6.02,15.27,9.85,27.04,9.85,4.23,0,8.99-.2,14.02-.99l.33-2.71Z"/>
  <path class="cls-1" d="m452.04,211.04l1.52,1.98c6.94-3.57,13.49-9.32,17.52-15.4l-2.12-1.65c-3.57,5.42-9.32,11.11-16.92,15.07Z"/>
  <path class="cls-1" d="m426.65,221.09h-8.26l.26,2.51h7.93c-.33,10.38-1.85,19.57-7.8,28.49l2.45,1.39c5.88-9.92,7.47-19.17,7.93-29.88h11.37v29.68h2.58v-29.68h7.47v-2.51h-7.47v-19.17h6.68v-2.38h-29.75l.26,2.38h6.41v13.09c0,2.05,0,4.1-.07,6.08Zm2.64-6.08l.07-13.09h11.17v19.17h-11.3c.07-1.98.07-3.97.07-6.08Z"/>
  <path class="cls-1" d="m452.43,229.36l1.59,2.12c7.87-4.23,15.27-11.11,19.83-18.25l-2.05-1.52c-4.03,6.28-10.71,13.09-19.37,17.65Z"/>
  <path class="cls-1" d="m452.9,253.09c8.99-5.09,17.65-13.68,22.94-22.41l-2.31-1.52c-4.96,8.53-12.36,16.26-22.54,21.82l1.92,2.12Z"/>
  <path class="cls-1" d="m487.33,249.78c3.04-5.35,5.42-10.97,7.01-16.07l-2.38-.46c-1.52,4.56-4.03,10.31-6.94,15.07l2.31,1.45Z"/>
  <path class="cls-1" d="m485.15,223.54l1.59,2.25c7.67-2.45,13.29-5.02,17.26-7.6,4.23,2.38,8.86,5.62,12.17,8.26l1.52-2.18c-3.9-2.91-7.93-5.35-11.64-7.47,4.17-3.11,6.28-6.21,7.34-9.19.79,1.32,1.72,2.64,2.78,4.03,5.35,5.88,12.76,10.64,23.73,14.15l1.59-2.25c-13.75-4.1-22.08-10.45-26.97-16.99h25.98v-2.38h-26.25c.27-1.92.27-3.83.27-5.62v-1.72l-2.45-.33v1.98c0,1.92,0,3.77-.33,5.69h-25.65l.33,2.38h24.73c-1.85,6.02-7.73,11.83-25.98,16.99Z"/>
  <path class="cls-1" d="m499.43,230.88v14.48c0,7.01,1.72,8.26,13.69,8.26s13.95-1.19,14.88-7.34c.33-1.98.53-4.3.59-6.68l-2.58-.79c-.07,1.98-.13,4.43-.46,6.74-.59,4.5-1.52,5.55-11.9,5.55s-11.64-.66-11.64-5.49v-14.61l-2.58-.13Z"/>
  <path class="cls-1" d="m520.46,238.74c-3.64-4.1-7.6-7.87-10.84-10.64l-1.92,1.32c3.7,3.04,7.54,7.01,11.17,11.11l1.59-1.79Z"/>
  <path class="cls-1" d="m541.68,248.06c-2.84-5.95-5.82-11.5-8.53-15.54l-2.45.66c2.97,4.43,6.41,10.84,8.79,16.46l2.18-1.59Z"/>
  <path class="cls-1" d="m41,313.11c-9.65,0-14.07,5.59-14.07,17.77,0,3.7.9,12.99,2.62,22.01l12.27-3.61c-1.98-6.4-4.06-15.25-4.06-19.12,0-3.34,1.62-3.97,5.41-3.97,1.89,0,5.68.45,9.47,1.08l7.22-7.58c.63-3.34.9-5.68.9-7.49,0-10.55-6.13-17.59-15.34-17.59-4.33,0-8.03,2.53-12,6.13v10.37c3.16-2.89,6.5-4.69,9.47-4.69,3.97,0,6.59,2.71,6.59,6.68,0,.36,0,.72-.09,1.08-3.79-.81-6.5-1.08-8.39-1.08Z"/>
  <path class="cls-1" d="m160.35,326.19h6.49c11.28,0,17.14-6.5,17.14-18.85v-36.17l-12.18,1.8v34.37c0,4.33-1.8,5.77-6.04,5.77h-8.39c3.16-3.97,4.87-7.67,4.87-11.1,0-7.31-6.5-11.82-14.88-11.82-5.05,0-9.02.9-15.25,3.79l-2.17,11.55c2.07,2.89,3.97,5.41,5.95,7.58h-10.19c-4.42,0-5.77-1.08-5.77-4.87v-37.08l-12.18,1.8.63,35.27c0,1.44.09,2.71.27,3.97-2.44.72-4.51.9-7.13.9h-4.33c-1.35-12.45-7.04-19.31-14.61-19.31s-14.61,9.83-14.61,18.31c0,8.03,7.13,12.09,16.51,13.53-3.34,2.89-9.38,4.87-18.76,6.31l5.14,12.27c12.54-1.8,21.2-8.21,24.81-18.04h5.86s0,0,0,0c3.97,0,8.3-1.26,11.54-3.43,2.71,2.35,6.77,3.43,12.63,3.43h8.93c3.25,0,7.85-1.08,12.18-3.52,4.6,2.53,9.56,3.52,13.53,3.52Zm-83.35-15.79c0-2.26,1.71-4.87,3.61-4.87,3.25,0,5.5,4.24,6.5,8.3-7.31-.27-10.1-1.44-10.1-3.43Zm63.14-6.77c2.26-.63,4.33-.9,6.5-.9,1.98,0,4.06.27,6.59.9-.99,2.89-3.34,5.77-6.41,8.03-2.62-2.26-4.87-4.87-6.68-8.03Z"/>
  <polygon class="cls-1" points="203.82 271.16 191.65 272.97 192.55 327.1 203.82 326.19 203.82 271.16"/>
  <polygon class="cls-1" points="269.95 284.61 278.34 292.36 286 283.7 278.16 276.04 269.95 284.61"/>
  <path class="cls-1" d="m314.24,307.7c0-11.82-8.39-17.5-16.51-17.5-7.04,0-13.35,3.43-29.77,20.84-.27-.09-.54-.18-.81-.18-.54-2.8-1.26-5.86-2.07-9.38l-11.64,3.7c2.26,7.13,3.43,12.18,3.43,14.88,0,5.86-4.6,9.74-11.55,9.74-6.5,0-11.01-2.71-11.01-9.47,0-1.98.36-6.4.99-9.47l-11.1,1.8c-.63,2.62-.99,6.04-.99,9.29,0,14.07,8.12,21.38,22.01,21.38,12.36,0,21.02-7.76,22.64-19.76,7.67,1.89,13.89,2.62,20.3,2.62,17.5,0,26.07-7.4,26.07-18.49Zm-25.26,5.41c-3.7,0-7.13-.18-10.55-.54,10.37-8.48,14.61-10.1,18.31-10.1s6.22,2.17,6.22,5.32c0,3.52-3.07,5.32-13.98,5.32Z"/>
  <path class="cls-1" d="m348.88,313.11h-9.92c-4.42,0-5.77-1.08-5.77-4.87v-37.08l-12.18,1.8.63,35.27c.27,12.81,4.51,17.95,17.32,17.95h7.4c11.19,0,17.77-6.22,17.77-16.69,0-3.52-1.08-9.56-3.07-17.59l-11.64,3.7c2.26,7.13,3.43,12.09,3.43,14.43,0,1.98-1.35,3.07-3.97,3.07Z"/>
  <polygon class="cls-1" points="359.25 347.48 366.92 338.82 359.07 331.15 353.03 337.47 347.61 332.15 339.4 340.72 347.79 348.48 353.48 342.07 359.25 347.48"/>
  <path class="cls-1" d="m395.33,319.52c0-6.86-2.53-15.16-7.49-24.18l-10.19,7.76c4.24,7.76,6.41,13.35,6.41,16.42,0,5.59-6.41,10.46-19.03,12.45l5.14,12.27c15.25-2.17,25.17-12.9,25.17-24.72Z"/>
  <polygon class="cls-1" points="485.27 287.94 492.94 279.28 485.09 271.62 476.88 280.19 485.27 287.94"/>
  <path class="cls-1" d="m517.57,305.72c-5.32-1.89-9.2-4.24-12.63-6.4,3.88-3.07,5.86-8.3,5.86-15.43v-15.88l-12.18,1.8v17.95c0,4.33-1.8,5.77-6.95,5.77h-.9c-2.89,0-6.31.63-8.48,1.62l-2.71,11.64c2.62-.72,5.23-1.08,8.39-1.08,3.61,0,6.59,1.71,11.37,4.33-4.15,1.71-7.58,3.07-12.27,3.07h-10.73c-2.44,0-4.87-.18-7.13-.54.45-1.53.63-3.16.63-4.87,0-11.82-8.39-17.5-16.51-17.5-5.05,0-9.74,1.71-18.04,9.11.72-4.96,1.08-9.56,1.08-13.62v-14.52l-12.18,1.8.63,36.72c-.72.81-1.53,1.62-2.35,2.44-2.71-.27-5.5-.54-8.21-.9v12.45c10.65,1.62,20.75,2.53,29.5,2.53,7.58,0,13.44-1.35,17.68-3.88,3.79,2.62,8.93,3.88,14.88,3.88h0s11.46,0,11.46,0c10.37-.27,13.89-6.4,26.7-8.84l3.07-11.64Zm-72.98,7.4c-3.61,0-7.22-.09-10.92-.27,10.65-8.75,14.88-10.37,18.67-10.37s6.22,2.17,6.22,5.32c0,3.52-3.07,5.32-13.98,5.32Z"/>
  <polygon class="cls-1" points="536.06 271.16 523.88 272.97 524.78 327.1 536.06 326.19 536.06 271.16"/>
  <path class="cls-1" d="m38.41,47.13c0-2.77-1.81-7.08-5.55-13.87l-1.7,1.59c3.62,6.23,5.32,10.14,5.32,12.29,0,1.92-1.87,2.94-5.55,2.94-2.15,0-4.93-.23-7.7-.79v2.04c2.49.62,5.1.91,7.76.91,4.64,0,7.42-1.87,7.42-5.1Z"/>
  <path class="cls-1" d="m43.11,60.49l1.13,1.98c10.25-1.3,13.08-6.57,13.87-10.82h7.64c4.19,0,6.23-1.76,6.23-5.32,0-2.21-.79-7.19-1.98-12.63l-2.09.74c1.3,5.55,2.15,10.25,2.15,11.89,0,2.32-1.08,3.17-3.85,3.17h-7.87c.06-.51.06-.96.06-1.36-.06-7.98-2.83-13.08-7.53-13.08-3.51,0-7.08,4.42-7.08,8.95,0,5.27,5.49,7.42,12.34,7.64-.79,3.51-3.51,7.7-13.02,8.83Zm2.6-16.48c0-3.45,2.6-6.74,5.04-6.74,3.17,0,5.66,4.02,5.66,10.99v1.25c-6.74-.17-10.7-2.43-10.7-5.49Z"/>
  <polygon class="cls-1" points="68.13 61.85 70.23 59.42 68.08 57.32 65.75 59.76 68.13 61.85"/>
  <polygon class="cls-1" points="127.7 34.22 129.79 31.78 127.64 29.69 125.32 32.07 127.7 34.22"/>
  <polygon class="cls-1" points="126.17 26.46 124.07 24.42 121.87 26.69 124.13 28.73 126.17 26.46"/>
  <path class="cls-1" d="m100.07,62.42c7.3,0,12.17-3.91,12.17-10.82,0-.28,0-.62-.06-1.08,1.76.74,3.45,1.13,5.49,1.13,3.11,0,5.21-.79,6.34-2.38l1.25,1.58c1.3.51,2.6.79,4.19.79,3.06,0,5.1-.79,6.29-2.38l1.25,1.58c1.3.51,3.11.79,5.37.79,0,0,0,0,0,0h3.68c4.19,0,6.23-1.76,6.23-5.32,0-2.21-.79-7.19-1.98-12.63l-2.09.74c1.3,5.55,2.15,10.25,2.15,11.89,0,2.32-1.08,3.17-3.85,3.17h-4.13c-2.66,0-4.59-.34-6.11-1.13.23-.51.34-1.08.45-1.7l1.25-8.89-2.32.57-1.13,8.27c-.28,1.93-2.1,2.89-5.15,2.89-1.81,0-3.4-.34-4.81-1.13.23-.51.4-1.08.45-1.7l1.02-7.19-2.32.57-.91,6.57c-.28,1.93-2.04,2.89-5.15,2.89-2.49,0-4.13-.34-5.72-1.25-.28-2.38-.85-5.55-1.59-8.89l-2.15.79c1.3,5.55,2.15,10.25,2.15,11.83,0,5.38-4.42,8.27-10.14,8.27-6.34,0-9.63-2.77-9.63-8.1,0-1.53.4-4.08,1.08-7.36l-2.1.62c-.74,2.49-1.13,4.98-1.13,7.19,0,6.4,4.02,9.8,11.66,9.8Z"/>
  <polygon class="cls-1" points="122.6 31.84 120.39 29.69 118.07 32.12 120.45 34.22 122.6 31.84"/>
  <polygon class="cls-1" points="150.51 25.84 148.36 23.74 146.04 26.12 148.42 28.27 150.51 25.84"/>
  <polygon class="cls-1" points="159.23 20.57 159.23 52.22 161.44 51.66 161.44 19.95 159.23 20.57"/>
  <path class="cls-1" d="m157.93,15.87c1.93,1.13,3.4,1.59,4.93,1.59,1.76,0,3.4-.4,4.7-1.19l-.57-1.42c-1.19.62-2.49.85-3.74.85-3.06,0-3.79-1.53-5.27-1.53-1.08,0-2.43.79-3.85,2.21l.91,1.25c1.08-.96,1.87-1.47,2.89-1.76Z"/>
  <path class="cls-1" d="m187.54,51.66h14.84c7.47,0,11.32-2.72,11.32-7.76,0-6.74-9.57-10.59-15.17-13.02,5.66-4.64,8.72-6.85,16.31-12.4v-2.72c-7.87,5.72-11.95,8.66-17.67,13.59l-.45,2.94c5.1,2.38,15.01,6.06,15.01,11.61,0,3.68-3.11,5.61-9.23,5.61h-14.67c-4.81,0-7.59-2.21-7.59-6.06,0-1.59.23-3.06.91-6.23l-2.04.62c-.62,2.04-1.02,4.47-1.02,6.23,0,4.87,3.45,7.59,9.46,7.59Z"/>
  <path class="cls-1" d="m215.62,60.49l1.19,1.98c6.51-1.19,10.98-5.83,11.32-11.61,1.68.5,3.47.78,5.54.79,0,0,0,0,.01,0,3.11,0,7.53.06,10.48-1.02,2.15.91,5.04,1.59,7.98,1.59,5.83,0,7.59-.96,7.59-3.91,0-7.36-5.89-13.65-14.89-15.91l-.62,1.93h-.11c-4.36,0-7.31,4.19-7.31,7.93,0,2.66,1.7,5.15,4.64,7.02-2.25.22-5.27.23-7.7.23-1.7,0-3.68-.28-5.66-.79-.23-2.32-1.08-5.95-4.3-13.19l-1.76,1.53c3.74,8.21,4.19,10.98,4.19,13.08,0,5.15-4.19,9.29-10.59,10.36Zm42.18-12.17c.06.4,0,.79,0,1.13-1.36.45-3.34.62-5.78.62-2.15,0-4.08-.23-5.61-.57,2.89-1.81,4.76-4.42,4.76-7.25,0-3.11-1.64-5.55-3.74-6.85,6.34,2.55,10.25,7.47,10.36,12.91Zm-18.97-6.06c0-2.66,1.93-6,5.32-6,2.95,0,5.1,2.6,5.1,6,0,2.6-1.98,5.1-5.04,6.46-3.51-1.64-5.38-4.02-5.38-6.46Z"/>
  <polygon class="cls-1" points="289.9 35.24 287.75 33.14 285.43 35.58 287.81 37.67 289.9 35.24"/>
  <polygon class="cls-1" points="297.15 35.01 295 32.86 292.67 35.29 295.05 37.45 297.15 35.01"/>
  <path class="cls-1" d="m285.03,51.66h10.76c4.47,0,7.02-.79,8.27-2.38l1.25,1.58c1.3.51,3.17.79,6.28.79h0s0,0,0,0c0,0,0,0,0,0,0,0,0,0,0,0,3.51,0,5.77-.79,6.96-2.38l1.25,1.58c1.42.57,2.78.79,5.32.79,3.11,0,5.21-.79,6.34-2.38l1.25,1.58c1.3.51,2.6.79,4.19.79,3.06,0,5.1-.79,6.28-2.38l1.25,1.58c1.3.51,3.11.79,5.37.79,0,0,0,0,0,0,0,0,0,0,0,0,0,0,0,0,0,0h0c4.58,0,7.07-.79,8.37-2.38l1.25,1.58c1.3.51,3.17.79,6.28.79h6.23c4.25,0,6.29-1.76,6.29-5.32,0-2.21-.79-7.19-1.98-12.63l-2.15.74c1.3,5.55,2.15,10.25,2.15,11.89,0,2.32-1.08,3.17-3.79,3.17h-6.74c-3.28,0-5.38-.34-6.96-1.13.23-.51.4-1.08.45-1.7l1.25-8.89-2.27.62-1.19,8.21c-.28,1.93-2.09,2.89-7.19,2.89-2.66,0-4.58-.34-6.11-1.13.23-.51.34-1.08.45-1.7l1.25-8.89-2.32.57-1.13,8.27c-.28,1.93-2.1,2.89-5.15,2.89-1.81,0-3.4-.34-4.81-1.13.23-.51.4-1.08.45-1.7l1.02-7.19-2.32.57-.91,6.57c-.28,1.93-2.04,2.89-5.15,2.89-2.77,0-4.53-.34-6-1.13.23-.51.34-1.08.45-1.7l.85-6.06-2.26.62-.79,5.38c-.28,1.93-2.09,2.89-5.72,2.89-3.28,0-5.38-.34-6.96-1.13.23-.51.4-1.08.45-1.7l1.25-8.89-2.26.62-1.19,8.21c-.28,1.93-2.09,2.89-7.19,2.89h-10.36c-4.81,0-7.59-2.27-7.59-6.06,0-1.59.23-3.06.91-6.23l-2.04.62c-.62,2.04-1.02,4.47-1.02,6.23,0,4.87,3.45,7.59,9.46,7.59Z"/>
  <polygon class="cls-1" points="354.21 57.83 351.89 60.27 354.27 62.36 356.37 59.98 354.21 57.83"/>
  <polygon class="cls-1" points="361.46 57.49 359.14 59.93 361.52 62.02 363.61 59.59 361.46 57.49"/>
  <polygon class="cls-1" points="375.73 57.49 373.41 59.93 375.79 62.02 377.88 59.59 375.73 57.49"/>
  <polygon class="cls-1" points="368.48 57.83 366.16 60.27 368.54 62.36 370.63 59.98 368.48 57.83"/>
  <polygon class="cls-1" points="387.33 17.12 385.13 17.74 385.13 52.22 387.33 51.66 387.33 17.12"/>
  <path class="cls-1" d="m389.2,60.49l1.19,1.98c6.8-1.25,11.33-6.23,11.33-12.34,0-2.21-.34-5.66-4.36-14.61l-1.76,1.53c3.74,8.21,4.19,10.98,4.19,13.08,0,5.15-4.19,9.29-10.59,10.36Z"/>
  <path class="cls-1" d="m414.96,51.66h7.42c4.02,0,7.3-1.42,11.33-3.45,3.62,2.66,7.53,3.45,13.08,3.45,0,0,0,0,0,0h3.68c4.19,0,6.23-1.76,6.23-5.32,0-2.21-.79-7.19-1.98-12.63l-2.09.74c1.3,5.55,2.15,10.25,2.15,11.89,0,2.32-1.08,3.17-3.85,3.17h-4.13c-4.7,0-8.1-.57-11.27-2.27,1.42-.74,2.89-1.53,4.47-2.32l.68-2.1c-7.76-3.17-11.38-8.27-15.97-8.27-1.53,0-2.94.45-4.76,1.42l-.34,1.87c2.32-.91,3.28-1.13,4.7-1.13,3.85,0,5.72,3.11,13.53,7.13-6.4,3.23-10.76,5.66-15.46,5.66h-7.36c-3.11,0-4.13-1.02-4.13-4.08v-28.31l-2.21.62v27.69c0,4.42,1.76,6.23,6.29,6.23Z"/>
  <polygon class="cls-1" points="436.08 29.35 433.93 27.25 431.61 29.63 433.99 31.78 436.08 29.35"/>
  <polygon class="cls-1" points="454.93 59.42 452.78 57.32 450.46 59.76 452.84 61.85 454.93 59.42"/>
  <path class="cls-1" d="m484.77,62.42c7.3,0,12.17-3.91,12.17-10.82,0-.28,0-.62-.06-1.08,1.76.74,3.45,1.13,5.49,1.13,3.11,0,5.21-.79,6.34-2.38l1.25,1.58c1.3.51,2.6.79,4.19.79,3.06,0,5.1-.79,6.29-2.38l1.25,1.58c1.3.51,3.11.79,5.37.79,0,0,0,0,0,0h6.23c4.25,0,6.29-1.76,6.29-5.32,0-2.21-.79-7.19-1.98-12.63l-2.15.74c1.3,5.55,2.15,10.25,2.15,11.89,0,2.32-1.08,3.17-3.79,3.17h-6.73c-2.66,0-4.59-.34-6.12-1.13.23-.51.34-1.08.45-1.7l1.25-8.89-2.32.57-1.13,8.27c-.28,1.93-2.1,2.89-5.15,2.89-1.81,0-3.4-.34-4.81-1.13.23-.51.4-1.08.45-1.7l1.02-7.19-2.32.57-.91,6.57c-.28,1.93-2.04,2.89-5.15,2.89-2.49,0-4.13-.34-5.72-1.25-.28-2.38-.85-5.55-1.58-8.89l-2.15.79c1.3,5.55,2.15,10.25,2.15,11.83,0,5.38-4.42,8.27-10.14,8.27-6.34,0-9.63-2.77-9.63-8.1,0-1.53.4-4.08,1.08-7.36l-2.1.62c-.74,2.49-1.13,4.98-1.13,7.19,0,6.4,4.02,9.8,11.66,9.8Z"/>
  <polygon class="cls-1" points="531.42 65.02 533.69 67.06 535.72 64.8 533.63 62.76 531.42 65.02"/>
  <polygon class="cls-1" points="527.52 59.93 529.89 62.08 531.99 59.64 529.84 57.55 527.52 59.93"/>
  <polygon class="cls-1" points="539.24 59.59 537.08 57.49 534.76 59.93 537.14 62.02 539.24 59.59"/>
  <polygon class="cls-1" points="28.4 453.38 36.62 453.38 40.65 430.75 48.07 430.75 49.18 424.39 26.12 424.39 25.01 430.75 32.43 430.75 28.4 453.38"/>
  <polygon class="cls-1" points="66.41 442.09 64.39 453.38 72.61 453.38 77.75 424.39 69.53 424.39 67.57 435.41 58.46 435.41 60.42 424.39 52.2 424.39 47.06 453.38 55.28 453.38 57.29 442.09 66.41 442.09"/>
  <polygon class="cls-1" points="77.54 453.38 97.94 453.38 99.06 447.02 86.87 447.02 87.82 441.77 97.94 441.77 99 435.68 88.88 435.68 89.78 430.75 101.44 430.75 102.56 424.39 82.68 424.39 77.54 453.38"/>
  <path class="cls-1" d="m119.41,440.98c.42-2.23.69-4.88.79-7.42l3.02,13.99h6.41l7.84-13.99c-.69,2.54-1.38,5.19-1.8,7.42l-2.17,12.4h8.22l5.14-28.99h-11.08l-7.69,13.67-2.91-13.67h-10.49l-5.14,28.99h7.69l2.17-12.4Z"/>
  <polygon class="cls-1" points="170.56 430.75 171.67 424.39 151.8 424.39 146.66 453.38 167.06 453.38 168.18 447.02 155.98 447.02 156.94 441.77 167.06 441.77 168.12 435.68 158 435.68 158.9 430.75 170.56 430.75"/>
  <path class="cls-1" d="m182.75,424.39l-14.2,28.99h8.32l2.49-5.41h9.28l.58,5.41h8l-3.92-28.99h-10.55Zm-.64,17.76l4.72-10.23,1.11,10.23h-5.83Z"/>
  <path class="cls-1" d="m229.98,435.25c0-6.78-4.51-10.87-12.72-10.87h-12.19l-5.14,28.99h12.08c11.08,0,17.97-7.63,17.97-18.13Zm-17.81-4.51h3.98c3.55,0,5.19,2.17,5.19,5.67,0,5.72-3.5,10.6-8.43,10.6h-3.66l2.92-16.27Z"/>
  <path class="cls-1" d="m244.61,454.02c10.6,0,17.75-8.43,17.75-18.55,0-7.21-4.88-11.71-12.93-11.71-10.6,0-17.76,8.43-17.76,18.5,0,7.21,4.82,11.77,12.93,11.77Zm3.97-23.9c3.44,0,5.14,2.33,5.14,6.04,0,6.25-3.6,11.5-8.27,11.5-3.45,0-5.14-2.33-5.14-6.04,0-6.25,3.71-11.5,8.27-11.5Z"/>
  <polygon class="cls-1" points="309.75 424.39 301.75 424.39 293.37 444.85 291.84 426.35 283.25 426.35 275.25 444.9 274.13 424.39 266.02 424.39 268.36 453.38 278.53 453.38 285.63 436.9 286.85 453.38 297.14 453.38 309.75 424.39"/>
  <path class="cls-1" d="m329.21,454.02c10.6,0,17.75-8.43,17.75-18.55,0-7.21-4.88-11.71-12.93-11.71-10.6,0-17.76,8.43-17.76,18.5,0,7.21,4.82,11.77,12.93,11.77Zm3.98-23.9c3.44,0,5.14,2.33,5.14,6.04,0,6.25-3.6,11.5-8.27,11.5-3.45,0-5.14-2.33-5.14-6.04,0-6.25,3.71-11.5,8.27-11.5Z"/>
  <polygon class="cls-1" points="347.7 453.38 355.92 453.38 357.77 442.99 367.21 442.99 368.32 436.63 358.89 436.63 359.95 430.75 370.92 430.75 372.03 424.39 352.85 424.39 347.7 453.38"/>
  <path class="cls-1" d="m399.75,443.79c0-3.76-1.96-6.25-5.99-8.11l-1.48-.69c-2.65-1.22-3.6-1.8-3.6-2.97,0-1.27,1.32-1.91,3.82-1.91s4.82.69,6.36,1.8l1.22-6.63c-1.48-.95-4.45-1.54-7.1-1.54-8.32,0-12.35,4.29-12.35,9.96,0,4.45,2.86,6.41,6.25,7.95l1.54.69c2.33,1.06,3.29,1.75,3.29,2.97,0,1.48-1.27,2.33-3.76,2.33-2.76,0-5.19-1.11-6.94-2.7l-2.44,7c2.54,1.38,5.56,2.07,8.53,2.07,8.21,0,12.67-4.29,12.67-10.23Z"/>
  <path class="cls-1" d="m419.52,430.11c2.17,0,4.08.64,5.62,1.75l1.22-6.63c-1.59-.95-3.82-1.48-6.1-1.48-10.65,0-17.6,6.89-17.6,18.02,0,7.47,4.03,12.24,12.19,12.24,2.7,0,4.98-.53,6.78-1.33l1.64-6.63c-1.86.9-3.98,1.48-5.99,1.48-3.92,0-5.88-2.39-5.88-6.63,0-6.41,3.34-10.81,8.11-10.81Z"/>
  <polygon class="cls-1" points="430.6 424.39 425.46 453.38 433.68 453.38 438.82 424.39 430.6 424.39"/>
  <polygon class="cls-1" points="462.51 430.75 463.62 424.39 443.75 424.39 438.61 453.38 459.01 453.38 460.13 447.02 447.93 447.02 448.89 441.77 459.01 441.77 460.07 435.68 449.95 435.68 450.85 430.75 462.51 430.75"/>
  <path class="cls-1" d="m473.01,433.77c.58,2.23,1.22,3.98,1.75,5.3l5.67,14.31h8.64l5.14-28.99h-7.42l-1.91,10.87c-.37,2.12-.58,4.45-.64,6.73-.58-2.07-1.27-4.13-1.75-5.41l-4.82-12.19h-9.86l-5.14,28.99h7.42l2.28-12.93c.37-2.07.58-4.4.64-6.68Z"/>
  <path class="cls-1" d="m511.91,430.11c2.17,0,4.08.64,5.62,1.75l1.22-6.63c-1.59-.95-3.82-1.48-6.1-1.48-10.65,0-17.6,6.89-17.6,18.02,0,7.47,4.03,12.24,12.19,12.24,2.7,0,4.98-.53,6.78-1.33l1.64-6.63c-1.86.9-3.98,1.48-5.99,1.48-3.92,0-5.88-2.39-5.88-6.63,0-6.41,3.34-10.81,8.11-10.81Z"/>
  <polygon class="cls-1" points="541.75 430.75 542.87 424.39 522.99 424.39 517.85 453.38 538.25 453.38 539.37 447.02 527.18 447.02 528.13 441.77 538.25 441.77 539.31 435.68 529.19 435.68 530.09 430.75 541.75 430.75"/>
  <path class="cls-1" d="m66.52,368.57v-3.86H26.86l.33,3.86h11.62c-.05,11.34-.71,20.75-12.56,29.92l3.86,3.15c7.57-6.68,10.87-13.27,12.28-20.28h14.25c-.14,5.13-.56,9.79-1.27,13.13-.47,2.59-1.36,3.25-4.05,3.25-1.88,0-4.47-.09-6.21-.24l.75,4.28c1.51.09,3.62.14,5.98.14,5.5,0,7.15-2.02,7.95-7.01.94-5.65,1.36-11.62,1.36-17.31h-18.21c.33-2.92.42-5.93.47-9.03h23.1Z"/>
  <path class="cls-1" d="m91.68,370.26h22.82v-3.76h-21.22c.56-1.51.99-3.01,1.27-4.42l-4.66-.42c-.28,1.55-.75,3.2-1.41,4.85h-15.53l.38,3.76h13.41c-2.87,5.32-7.76,10.63-15.43,14.73l3.48,3.29c2.92-1.93,5.46-3.95,7.67-5.97v20.42h4.33v-8.75h17.74v2.4c0,2.07-.75,2.63-2.4,2.63-2.07,0-4.42-.19-6.02-.47l.85,3.95c1.6.14,3.76.23,6.26.23,4.42,0,5.65-2.07,5.65-6.21v-21.41h-20.09c1.13-1.65,2.12-3.25,2.92-4.85Zm12.84,20.51h-17.74v-4.52h17.74v4.52Zm0-12.28v4.56h-17.74v-4.56h17.74Z"/>
  <path class="cls-1" d="m143.89,379.24l-3.48,1.6c2.78,2.35,6.12,6.21,8.56,9.27l2.87-2.96c-2.59-3.06-5.5-5.88-7.95-7.9Z"/>
  <path class="cls-1" d="m128.27,362.07c-.47,2.3-1.08,4.66-1.79,6.96h-4.19v32.84h4.09v-2.4h11.95v-30.44h-7.53c.8-2.16,1.41-4.28,1.88-6.4l-4.42-.56Zm6.02,33.5h-7.9v-10.49h7.9v10.49Zm0-22.82v8.7h-7.9v-8.7h7.9Z"/>
  <path class="cls-1" d="m150.1,402.58c5.08,0,7.2-2.16,8-7.43,1.08-7.15,1.27-19.19,1.27-26.82h-11.67c.94-1.83,1.69-3.72,2.21-5.6l-4.28-1.03c-1.08,4.23-3.25,8.99-7.1,13.13l3.25,2.02c1.41-1.46,2.73-3.1,3.9-4.89h9.41c-.09,7.95-.42,17.55-1.22,22.49-.47,3.15-1.41,3.95-4.38,3.95-1.88,0-4.47-.09-6.26-.23l.89,4.28c1.51.09,3.62.14,5.98.14Z"/>
  <path class="cls-1" d="m202.74,390.35v-14.87h6.02v-4h-6.02v-9.22l-4.23-.38v9.6h-9.27v-9.22l-4.24-.38v9.6h-7.9v-7.57l-4.42-.38v7.95h-5.74l.33,4h5.41v25.92h34.25v-4.14h-29.83v-21.78h7.9v14.87h17.74Zm-13.5-14.87h9.27v10.91h-9.27v-10.91Z"/>
  <path class="cls-1" d="m216.42,400.74l3.53,2.73c9.03-4.99,9.27-10.07,9.27-13.93v-1.13l-4.19-.28v1.13c0,4.33-.71,7.43-8.61,11.48Z"/>
  <path class="cls-1" d="m234.86,381.13c4.66,5.03,11.24,8.23,19.19,10.49l2.45-3.81c-7.53-1.6-13.03-4.19-16.56-6.68h11.1v-17.97h-32.41v17.97h10.82c-3.39,2.49-8.75,5.08-16.09,6.68l2.49,3.81c7.48-2.16,14.07-5.6,18.54-10.49h.47Zm1.88-14.72h10.02v4.33h-10.02v-4.33Zm0,7.15h10.02v4.37h-10.02v-4.37Zm-4.28,4.37h-9.69v-4.37h9.69v4.37Zm0-7.2h-9.69v-4.33h9.69v4.33Z"/>
  <polygon class="cls-1" points="244.69 402.96 244.69 388.32 240.22 388 240.22 402.96 244.69 402.96"/>
  <path class="cls-1" d="m279.45,385.08h19.48v-12.89h-19.48v12.89Zm3.67-10.3h12.04v2.59h-12.04v-2.59Zm0,4.89h12.04v2.73h-12.04v-2.73Z"/>
  <path class="cls-1" d="m302.6,401.73v-3.62h-2.4v-10.96h-21.73v10.96h-2.49l.33,3.62h26.3Zm-9.03-11.57h3.1v7.95h-3.1v-7.95Zm-5.74,0h2.92v7.95h-2.92v-7.95Zm-5.83,0h3.01v7.95h-3.01v-7.95Z"/>
  <polygon class="cls-1" points="272.3 361.89 272.3 364.85 262.05 364.85 262.38 368.28 272.3 368.28 272.3 371.25 276.54 371.25 276.54 368.28 287.22 368.28 287.22 371.11 291.45 371.11 291.45 368.28 301.71 368.28 301.71 364.85 291.45 364.85 291.45 362.12 287.22 361.89 287.22 364.85 276.54 364.85 276.54 362.12 272.3 361.89"/>
  <path class="cls-1" d="m262.28,384.61c2.16-.24,4.47-.52,6.59-.85-2.07,2.26-4.42,4.47-6.77,6.21l.99,3.29c4.42-.71,9.08-1.98,12.65-2.96l.19-3.34c-2.49.71-5.32,1.41-8.28,2.02,3.39-2.73,7.01-6.54,9.69-10.4l-2.92-2.07c-.75,1.22-1.69,2.49-2.68,3.81-1.79.28-3.72.52-5.65.75,2.59-2.4,4.99-5.41,7.2-8.56l-3.67-1.41c-1.88,3.34-4.99,7.53-8.33,10.35l.99,3.15Z"/>
  <path class="cls-1" d="m276.35,393.36c-4.42,2.02-10.4,3.91-15.24,5.03l1.13,3.76c4.89-1.36,10.12-3.25,14.02-4.99l.09-3.81Z"/>
  <path class="cls-1" d="m350.63,372.61c-9.46-2.54-15.67-5.79-19.62-8.94l1.13-1.36-3.25-1.74c-3.58,4.28-10.87,9.36-21.59,12.19l2.3,3.9c9.22-2.92,15.52-7.15,19.81-11.34.24.61.47,1.22.75,1.88,4,3.58,10.49,6.87,18.11,9.46l2.35-4.05Z"/>
  <path class="cls-1" d="m313.08,403.1h4.28v-2.21h23.05v2.21h4.42v-14.16h-13.74c6.4-2.12,10.96-5.55,12.94-8.47v-2.87h-30.39l.42,3.48h24.18c-2.49,2.07-6.54,4.19-13.27,5.55l2.26,2.31h-14.16v14.16Zm4.28-10.77h23.05v5.03h-23.05v-5.03Z"/>
  <path class="cls-1" d="m333.22,374.96c-1.79-1.88-3.76-3.58-5.55-4.85l-3.34,1.69c1.98,1.46,4.47,3.81,5.93,5.65l2.96-2.49Z"/>
  <path class="cls-1" d="m378.66,382.49h17.59v-3.86h-17.59v-11.01h14.72v-3.86h-34.44l.33,3.86h14.82v11.01h-18.44l.33,3.86h18.11v13.93c0,2.07-.75,2.59-2.4,2.59-2.3,0-4.94-.19-6.73-.42l.8,4.23c1.74.14,4.09.24,6.82.24,4.75,0,6.07-2.02,6.07-6.02v-14.54Z"/>
  <path class="cls-1" d="m444,381.69h-19.05v-2.45h16.84v-2.59h-16.84v-2.31h15.1v-11.48h-34.3v11.48h14.91v2.31h-16.61l.28,2.59h16.33v2.45h-18.73l.38,2.92h41.68v-2.92Zm-23.19-10.11h-11.1v-5.93h11.1v5.93Zm4-5.93h11.15v5.93h-11.15v-5.93Z"/>
  <path class="cls-1" d="m418.4,385.69l-3.76.14c.8,1.36,1.46,3.06,2.02,4.75l4-.85c-.61-1.51-1.46-2.92-2.26-4.05Z"/>
  <path class="cls-1" d="m427.01,369.55l1.83,1.74c1.88-1.03,3.53-2.35,4.99-3.91l-2.35-1.6c-1.13,1.27-2.77,2.73-4.47,3.76Z"/>
  <path class="cls-1" d="m411.2,386.07l-3.76-.61c-.94,1.46-2.92,3.48-5.13,4.99l3.67,1.79c2.4-2.07,4.14-4.28,5.22-6.16Z"/>
  <polygon class="cls-1" points="443.29 398.58 424.94 398.58 424.94 395.52 440.61 395.52 440.61 392.61 424.94 392.61 424.94 390.02 420.61 389.88 420.61 392.61 405.28 392.61 405.51 395.52 420.61 395.52 420.61 398.58 402.64 398.58 402.93 401.92 443.29 401.92 443.29 398.58"/>
  <path class="cls-1" d="m418.54,369.46c-1.32-1.18-2.73-2.4-4.38-3.43l-2.4,1.27c1.65,1.22,3.39,2.73,4.66,4.04l2.12-1.88Z"/>
  <path class="cls-1" d="m443.1,389.69c-1.79-1.65-3.72-3.39-5.5-4.61l-3.44,1.08c1.88,1.55,4.28,3.95,5.79,5.93l3.15-2.4Z"/>
  <path class="cls-1" d="m428.19,390.82l3.72-1.32c-1.27-1.51-2.59-3.01-4-4.14l-3.43.71c1.36,1.27,2.82,3.2,3.72,4.75Z"/>
  <path class="cls-1" d="m461.96,386.77l-2.96-2.73c-2.07,5.22-5.41,12-8.94,16.7l4.09,2.4c3.2-5.36,5.93-11.57,7.81-16.37Z"/>
  <path class="cls-1" d="m476.97,402.72c10.21,0,12.04-1.08,12.84-5.36.19-1.08.28-2.63.33-3.9l-4.09-1.18c0,1.03-.05,2.54-.23,3.76-.33,2.16-.47,2.78-8.84,2.78s-8.28-.66-8.28-2.87v-18.07l5.46-1.03v15.81h4v-16.61l6.12-1.18c0,3.1-.05,6.35-.28,8.75-.14,1.69-.75,2.21-2.07,2.21-.85,0-1.98-.05-2.68-.14l.75,3.72c.71.1,1.6.14,2.59.14,4,0,5.03-1.65,5.32-5.32.28-3.62.38-7.25.38-10.96v-3.01l-10.12,1.93v-9.74l-4-.28v10.82l-5.46,1.03v-6.77l-3.95-.28v7.81l-3.2.61.56,3.76,2.63-.52v17.55c0,5.46,1.88,6.54,12.23,6.54Z"/>
  <path class="cls-1" d="m448.79,376.85c2.82,1.03,6.49,2.63,9.46,4.23l1.69-3.95c-3.29-1.41-6.35-2.49-9.13-3.34l-2.02,3.06Z"/>
  <path class="cls-1" d="m462.57,367.15c-2.96-1.93-5.88-3.48-8.28-4.56l-2.35,2.63c2.59,1.32,5.88,3.29,8.52,5.32l2.12-3.39Z"/>
  <path class="cls-1" d="m519.02,403.1v-13.97h16.32v-19.67h-16.32v-7.9l-4.38-.23v8.14h-15.81v19.67h15.81v13.97h4.38Zm0-30.01h11.95v12.23h-11.95v-12.23Zm-15.9,12.23v-12.23h11.53v12.23h-11.53Z"/>
</svg>