<svg width="347" height="479" viewBox="0 0 347 479" fill="none" xmlns="http://www.w3.org/2000/svg">
<path d="M178.5 152.5C189 99 175.5 66 158.5 37.5" stroke="black"/>
<path d="M149.697 323C139.197 376.5 152.697 409.5 169.697 438" stroke="black"/>
<path d="M0.976 8.136V9.256H7.008C6.176 13.192 4.064 16.008 0.656 17.688L1.376 18.648C4.784 16.872 6.992 14.04 7.984 10.152C9.184 13.768 11.392 16.552 14.608 18.536L15.328 17.608C12.048 15.656 9.84 12.872 8.72 9.256H15.024V8.136H8.384C8.512 7.144 8.592 6.104 8.592 4.984V3.944H7.408V5.24C7.392 6.248 7.328 7.208 7.2 8.136H0.976ZM30.176 6.68H26.368V3.896H25.216V6.68H22.736V3.896H21.584V6.68H17.824V18.568H18.928V17.752H29.072V18.568H30.176V6.68ZM18.928 16.648V12.568H21.584V16.648H18.928ZM22.736 12.568H25.216V16.648H22.736V12.568ZM26.368 12.568H29.072V16.648H26.368V12.568ZM18.928 11.48V7.8H21.584V11.48H18.928ZM22.736 7.8H25.216V11.48H22.736V7.8ZM26.368 7.8H29.072V11.48H26.368V7.8ZM41.648 4.648V18.584H42.768V5.72H45.6C45.072 7.432 44.544 8.92 44 10.168C45.232 11.784 45.856 13.096 45.856 14.088C45.856 14.584 45.76 14.92 45.6 15.096C45.44 15.256 45.056 15.352 44.464 15.384C44.176 15.384 43.824 15.352 43.408 15.304L43.744 16.472C45.056 16.472 45.92 16.28 46.352 15.928C46.768 15.576 46.976 14.968 46.976 14.088C46.96 13.064 46.368 11.768 45.184 10.168C45.776 8.728 46.32 7.176 46.816 5.512V4.648H41.648ZM33.76 5.8V6.824H36.064V8.872H33.024V9.928H36.72C35.552 11.016 34.176 11.896 32.576 12.584L33.184 13.48C33.632 13.272 34.08 13.048 34.528 12.824V18.6H35.632V17.896H39.04V18.584H40.144V11.48H36.576C37.168 11 37.728 10.488 38.256 9.928H40.896V8.872H39.136C39.92 7.816 40.576 6.6 41.088 5.256L40.112 4.824C39.52 6.344 38.72 7.688 37.728 8.872H37.184V6.824H38.896V5.8H37.184V3.96H36.064V5.8H33.76ZM35.632 15.176H39.04V16.872H35.632V15.176ZM39.04 14.184H35.632V12.472H39.04V14.184ZM48.912 5.768V6.872H55.408V8.968H50.416V16.344H51.552V10.072H55.408V18.568H56.592V10.072H60.64V14.52C60.64 14.968 60.416 15.192 59.968 15.192L58.448 15.128L58.736 16.232H60.336C61.296 16.232 61.792 15.736 61.792 14.776V8.968H56.592V6.872H63.088V5.768H56.544C56.288 5.032 56.032 4.36 55.776 3.768L54.544 3.96C54.832 4.504 55.12 5.096 55.376 5.768H48.912ZM66.944 4.328L66.064 4.952C66.928 5.848 67.648 6.696 68.208 7.496L69.104 6.872C68.592 6.136 67.872 5.288 66.944 4.328ZM72.576 11.08L71.648 11.656C72.736 12.904 73.584 14.056 74.224 15.08L75.232 14.376C74.608 13.448 73.728 12.344 72.576 11.08ZM70.576 3.928V5.832C70.56 6.536 70.528 7.208 70.48 7.88H65.376V9H70.352C70.144 10.6 69.792 11.992 69.296 13.176C68.464 14.984 66.96 16.424 64.816 17.512L65.472 18.536C67.648 17.464 69.2 15.976 70.144 14.072C70.8 12.696 71.248 11.016 71.504 9H77.04C77.04 11.048 76.976 12.952 76.848 14.696C76.72 16.424 76.192 17.336 75.296 17.4C74.624 17.4 73.888 17.368 73.072 17.304L73.376 18.424C73.92 18.456 74.576 18.488 75.36 18.488C76.432 18.488 77.184 17.864 77.6 16.616C78 15.368 78.208 12.456 78.208 7.88H71.616C71.664 7.224 71.696 6.536 71.712 5.832V3.928H70.576ZM86.5761 5.352V17H87.8401V5.352H86.5761ZM93.7818 8.504C92.5338 8.504 91.5578 8.92 90.8218 9.784C90.1178 10.6 89.7658 11.624 89.7658 12.872C89.7658 14.104 90.1178 15.128 90.8218 15.928C91.5578 16.792 92.5338 17.224 93.7818 17.224C95.0138 17.224 96.0058 16.792 96.7578 15.928C97.4458 15.128 97.7978 14.104 97.7978 12.872C97.7978 11.624 97.4458 10.6 96.7418 9.784C96.0058 8.92 95.0138 8.504 93.7818 8.504ZM93.7818 9.576C94.6458 9.576 95.3338 9.912 95.8458 10.584C96.2778 11.192 96.5018 11.944 96.5018 12.872C96.5018 13.768 96.2778 14.536 95.8458 15.144C95.3338 15.816 94.6458 16.152 93.7818 16.152C92.9018 16.152 92.2138 15.816 91.7338 15.144C91.2858 14.536 91.0778 13.784 91.0778 12.872C91.0778 11.944 91.2858 11.192 91.7338 10.584C92.2138 9.912 92.9018 9.576 93.7818 9.576ZM102.869 8.504C101.717 8.504 100.805 8.904 100.133 9.72C99.4608 10.488 99.1408 11.464 99.1408 12.68C99.1408 13.88 99.4608 14.856 100.133 15.624C100.805 16.408 101.717 16.808 102.869 16.808C104.117 16.808 105.045 16.248 105.653 15.144V16.6C105.653 18.424 104.821 19.352 103.157 19.352C102.405 19.352 101.845 19.208 101.477 18.936C101.109 18.68 100.869 18.264 100.773 17.704H99.4928C99.6368 18.6 100.005 19.272 100.597 19.72C101.173 20.168 102.037 20.392 103.157 20.392C105.669 20.392 106.933 19.064 106.933 16.424V8.728H105.653V10.152C105.045 9.048 104.117 8.504 102.869 8.504ZM103.061 9.56C103.877 9.56 104.517 9.848 104.997 10.456C105.445 11 105.669 11.752 105.669 12.68C105.669 13.576 105.445 14.312 104.997 14.872C104.517 15.448 103.877 15.736 103.045 15.736C102.149 15.736 101.493 15.416 101.045 14.808C100.645 14.264 100.453 13.544 100.453 12.68C100.453 11.752 100.677 11 101.125 10.456C101.589 9.848 102.229 9.56 103.061 9.56ZM112.61 8.504C111.362 8.504 110.386 8.92 109.65 9.784C108.946 10.6 108.594 11.624 108.594 12.872C108.594 14.104 108.946 15.128 109.65 15.928C110.386 16.792 111.362 17.224 112.61 17.224C113.842 17.224 114.834 16.792 115.586 15.928C116.274 15.128 116.626 14.104 116.626 12.872C116.626 11.624 116.274 10.6 115.57 9.784C114.834 8.92 113.842 8.504 112.61 8.504ZM112.61 9.576C113.474 9.576 114.162 9.912 114.674 10.584C115.106 11.192 115.33 11.944 115.33 12.872C115.33 13.768 115.106 14.536 114.674 15.144C114.162 15.816 113.474 16.152 112.61 16.152C111.73 16.152 111.042 15.816 110.562 15.144C110.114 14.536 109.906 13.784 109.906 12.872C109.906 11.944 110.114 11.192 110.562 10.584C111.042 9.912 111.73 9.576 112.61 9.576ZM128.577 15.368C127.057 15.976 125.297 16.456 123.297 16.824L123.441 17.944C125.361 17.56 127.073 17.08 128.577 16.472V15.368ZM125.873 3.928C125.297 5.832 124.609 7.512 123.809 8.984C123.665 9.208 123.489 9.352 123.297 9.432L123.601 10.52C124.449 10.36 125.297 10.2 126.129 10.024C125.313 11.56 124.625 12.632 124.049 13.272C123.905 13.4 123.729 13.512 123.537 13.608L123.841 14.648C125.281 14.44 126.769 14.04 128.321 13.464V12.424C127.265 12.824 126.225 13.144 125.185 13.384C126.081 12.216 127.233 10.264 128.609 7.512L127.553 7.128C127.249 7.768 126.945 8.392 126.657 8.984C125.985 9.128 125.313 9.256 124.641 9.352C125.409 8.104 126.177 6.44 126.945 4.344L125.873 3.928ZM132.801 4.024C131.777 5.96 130.337 7.528 128.481 8.728L129.105 9.704C130.801 8.6 132.193 7.048 133.313 5.048C134.209 6.872 135.585 8.392 137.425 9.64L138.049 8.664C136.065 7.32 134.657 5.784 133.825 4.024H132.801ZM135.681 14.248L134.673 14.584C134.993 15.128 135.313 15.736 135.633 16.408C134.065 16.776 132.449 17.032 130.785 17.16C131.617 16.104 132.321 14.824 132.913 13.352H137.729V12.248H128.929V13.352H131.729C131.073 14.952 130.289 16.296 129.377 17.352L129.681 18.232C131.857 18.072 133.985 17.768 136.049 17.32C136.241 17.752 136.417 18.216 136.609 18.712L137.649 18.248C137.073 16.824 136.417 15.496 135.681 14.248ZM130.353 9.112V10.184H136.209V9.112H130.353ZM141.121 7.032H143.361V9.096H139.489V10.168H143.361V11.848H140.209V17.608H141.329V12.92H143.361V18.616H144.513V12.92H146.529V15.832C146.529 16.248 146.289 16.456 145.841 16.456L145.057 16.408L145.345 17.496H146.193C147.153 17.496 147.633 17.016 147.633 16.072V11.848H144.513V10.168H147.969V9.096H144.513V7.032H147.505V5.96H144.513V3.976H143.361V5.96H141.505C141.633 5.528 141.729 5.064 141.809 4.552L140.721 4.376C140.497 5.896 139.985 7.08 139.185 7.944L140.113 8.616C140.497 8.2 140.833 7.672 141.121 7.032ZM148.913 5.416V15.304H150.033V5.416H148.913ZM151.841 18.456C152.817 18.456 153.313 17.944 153.313 16.952V3.976H152.177V16.664C152.177 17.176 151.921 17.432 151.441 17.432C150.737 17.432 150.001 17.4 149.233 17.352L149.489 18.456H151.841ZM162.289 9.256V16.776C162.289 17.176 162.065 17.384 161.633 17.384C160.737 17.384 159.889 17.352 159.105 17.288L159.425 18.408C160.145 18.44 160.993 18.472 161.953 18.472C162.945 18.472 163.457 17.976 163.457 16.984V9.832C165.329 8.616 167.009 7.336 168.497 5.992V4.872H156.401V5.992H166.929C165.457 7.24 163.921 8.328 162.289 9.256ZM177.089 6.504V7.608H185.537V6.504H181.921C181.697 5.544 181.441 4.68 181.169 3.928L180.001 4.12C180.289 4.856 180.561 5.64 180.785 6.504H177.089ZM176.673 16.808V17.928H185.905V16.808H182.769C183.505 14.504 184.129 11.88 184.641 8.936L183.537 8.648C182.977 11.912 182.337 14.632 181.601 16.808H176.673ZM178.929 8.824L177.873 9.16C178.401 11.368 178.849 13.656 179.201 16.024L180.273 15.752C179.889 13.144 179.441 10.84 178.929 8.824ZM176.705 10.248C176.097 10.584 175.489 10.904 174.865 11.192V7.976H176.641V6.872H174.865V3.976H173.697V6.872H171.505V7.976H173.697V11.672C172.913 11.96 172.097 12.216 171.265 12.424L171.553 13.576C172.273 13.352 172.993 13.096 173.697 12.824V16.744C173.697 17.192 173.473 17.416 173.041 17.416C172.625 17.416 172.193 17.384 171.745 17.352L172.001 18.472H173.441C174.385 18.472 174.865 17.992 174.865 17.032V12.328C175.489 12.04 176.097 11.736 176.705 11.416V10.248ZM187.745 5.08V6.184H194.177V16.568C194.177 17.128 193.889 17.416 193.345 17.416C192.577 17.416 191.793 17.384 190.961 17.352L191.201 18.456H193.729C194.801 18.456 195.345 17.912 195.345 16.856V6.184H201.521V5.08H187.745ZM217.409 5.576H211.377C211.169 4.92 210.945 4.328 210.721 3.8L209.409 4.024C209.665 4.488 209.905 5 210.129 5.576H203.841V9.144H204.993V6.68H216.257V9.144H217.409V5.576ZM206.305 8.408V9.48H213.169C212.513 9.896 211.537 10.456 210.241 11.128V12.696H203.553V13.816H210.241V16.808C210.241 17.272 210.033 17.512 209.617 17.512C208.945 17.512 208.337 17.496 207.777 17.48L208.049 18.536H210.017C210.945 18.536 211.409 18.088 211.409 17.208V13.816H217.713V12.696H211.409V11.624C212.689 10.92 213.857 10.216 214.897 9.48V8.408H206.305ZM221.825 6.52H222.977C223.393 7.128 223.745 7.768 224.049 8.44L225.121 8.04C224.881 7.56 224.577 7.064 224.209 6.52H226.449V5.464H222.337C222.529 5.016 222.721 4.552 222.881 4.056L221.777 3.816C221.265 5.384 220.433 6.824 219.313 8.136L220.305 8.76C220.881 8.088 221.377 7.336 221.825 6.52ZM228.481 6.52H229.905C230.305 7.144 230.657 7.784 230.961 8.456L232.017 8.056C231.793 7.576 231.489 7.064 231.137 6.52H233.585V5.464H228.913C229.089 5.016 229.249 4.536 229.393 4.024L228.273 3.784C227.857 5.352 227.169 6.792 226.241 8.088L227.217 8.712C227.681 8.056 228.097 7.32 228.481 6.52ZM222.657 8.216C221.969 10.024 220.881 11.624 219.377 13.032L219.729 14.232C220.417 13.624 221.041 12.952 221.601 12.248V18.52H222.737V10.584C223.073 9.976 223.377 9.352 223.633 8.68L222.657 8.216ZM223.985 10.6V11.72H230.529V16.664C230.529 17.176 230.273 17.448 229.761 17.448C229.057 17.448 228.305 17.416 227.521 17.368L227.777 18.472H230.177C231.169 18.472 231.665 17.96 231.665 16.952V11.72H233.713V10.6H231.665V8.92H230.529V10.6H223.985ZM226.017 12.632L225.121 13.176C226.113 14.296 226.913 15.304 227.489 16.232L228.385 15.608C227.841 14.76 227.041 13.768 226.017 12.632ZM237.601 15.096C237.281 15.096 237.041 15.176 236.849 15.368C236.657 15.544 236.561 15.784 236.561 16.088C236.561 16.36 236.657 16.6 236.849 16.792C237.041 16.984 237.265 17.08 237.537 17.08C237.697 17.08 237.825 17.048 237.889 17.016C237.889 17.4 237.777 17.752 237.537 18.088C237.281 18.408 236.945 18.648 236.529 18.792V19.576C237.201 19.4 237.761 19.048 238.177 18.536C238.593 17.992 238.801 17.368 238.801 16.664C238.801 16.2 238.689 15.832 238.481 15.544C238.257 15.24 237.953 15.096 237.601 15.096ZM257.121 15.4C255.521 16.008 253.665 16.472 251.521 16.824L251.665 17.944C253.713 17.576 255.521 17.096 257.121 16.488V15.4ZM254.161 3.912C253.521 5.816 252.753 7.512 251.889 8.984C251.745 9.192 251.585 9.336 251.409 9.4L251.681 10.456C252.577 10.328 253.457 10.168 254.337 10.008C253.505 11.512 252.801 12.584 252.225 13.224C252.097 13.352 251.921 13.464 251.713 13.544L252.017 14.6C253.553 14.376 255.153 13.992 256.817 13.416V12.376C255.665 12.792 254.513 13.112 253.361 13.352C254.289 12.2 255.425 10.264 256.801 7.56L255.777 7.16C255.473 7.784 255.185 8.376 254.897 8.952C254.193 9.096 253.489 9.208 252.785 9.304C253.617 8.056 254.449 6.408 255.249 4.328L254.161 3.912ZM264.641 12.024H258.049V18.408H259.153V17.528H263.505V18.408H264.641V12.024ZM259.153 16.424V13.112H263.505V16.424H259.153ZM260.801 4.024C259.697 6.04 258.289 7.704 256.561 9L257.233 9.944C258.817 8.728 260.193 7.112 261.345 5.096C262.369 7.08 263.729 8.664 265.425 9.88L266.097 8.904C264.241 7.624 262.833 5.992 261.889 4.024H260.801ZM258.721 8.952V10.024H263.873V8.952H258.721ZM267.681 5.352V6.424H271.329V7.816H272.513V6.424H276.737V7.816H277.921V6.424H281.569V5.352H277.921V3.976H276.737V5.352H272.513V3.976H271.329V5.352H267.681ZM275.281 13.112C276.433 14.776 278.417 16.296 281.201 17.64L281.953 16.68C279.329 15.624 277.457 14.44 276.337 13.112H280.817V12.024H275.185V10.088H281.329V9.016H275.185V7.64H274.065V9.016H267.969V10.088H274.065V12.024H268.609V13.112H272.929C271.745 14.52 269.873 15.688 267.313 16.616L267.921 17.64C270.737 16.456 272.753 14.936 274.001 13.112H274.065V18.616H275.185V13.112H275.281ZM283.681 5.144V6.184H287.329V7.384H288.513V6.184H292.737V7.48H293.921V6.184H297.569V5.144H293.921V3.864H292.737V5.144H288.513V3.864H287.329V5.144H283.681ZM290.209 7.608C288.545 8.104 286.481 8.424 284.033 8.568L284.385 9.592C285.313 9.528 286.209 9.448 287.089 9.336V10.872H283.937V11.976H286.961C286.209 13.288 284.993 14.472 283.329 15.512L283.793 16.68C285.169 15.672 286.257 14.536 287.089 13.272V18.6H288.193V13.656C288.865 14.168 289.665 14.856 290.609 15.736L291.249 14.76C290.225 13.96 289.201 13.24 288.193 12.632V11.976H290.961V10.872H288.193V9.16C289.073 9 289.921 8.792 290.753 8.552L290.209 7.608ZM292.353 8.696V15.96H293.457V8.696H292.353ZM295.201 18.632C296.193 18.632 296.689 18.104 296.689 17.064V7.72H295.585V16.776C295.585 17.336 295.329 17.624 294.817 17.624C294.241 17.624 293.617 17.592 292.977 17.544L293.217 18.632H295.201ZM300.609 4.28L299.793 5.064C300.945 5.864 301.857 6.632 302.529 7.352L303.329 6.552C302.593 5.8 301.681 5.048 300.609 4.28ZM300.209 8.088L299.393 8.872C300.545 9.704 301.441 10.488 302.081 11.224L302.881 10.44C302.177 9.656 301.281 8.872 300.209 8.088ZM301.985 12.344C301.313 14.296 300.513 16.216 299.585 18.088L300.641 18.536C301.505 16.728 302.273 14.792 302.977 12.728L301.985 12.344ZM312.577 5.064L307.329 5.64C307.185 5.112 307.057 4.536 306.945 3.896L305.809 4.024C305.937 4.632 306.065 5.208 306.225 5.752L303.873 6.008L304.033 7.032L306.529 6.76C306.785 7.528 307.057 8.152 307.345 8.632C307.457 8.808 307.585 8.984 307.729 9.16C306.609 9.672 305.313 10.104 303.857 10.44L304.289 11.4C305.825 11.032 307.217 10.552 308.433 9.96C308.721 10.248 309.025 10.488 309.377 10.712C310.113 11.176 310.817 11.416 311.489 11.416C312.193 11.416 312.833 10.68 313.393 9.208L312.497 8.632C312.145 9.752 311.761 10.312 311.377 10.344C310.945 10.344 310.417 10.152 309.809 9.768C309.665 9.672 309.537 9.56 309.409 9.432C310.337 8.872 311.153 8.232 311.841 7.512L311.041 6.904C310.401 7.56 309.617 8.152 308.705 8.664C308.529 8.44 308.369 8.2 308.209 7.944C308.001 7.592 307.809 7.144 307.633 6.632L312.737 6.072L312.577 5.064ZM311.953 18.488C312.529 18.488 312.945 18.36 313.201 18.104C313.489 17.816 313.697 17 313.809 15.656L312.801 15.336C312.737 16.36 312.609 16.968 312.449 17.176C312.321 17.336 312.081 17.432 311.745 17.432H310.961C310.609 17.432 310.433 17.224 310.433 16.824V13.224H313.441V12.12H303.761V13.224H306.401V13.448C306.369 14.552 306.081 15.448 305.569 16.136C305.009 16.792 304.033 17.32 302.625 17.72L303.233 18.696C304.705 18.248 305.761 17.64 306.417 16.856C307.073 15.992 307.425 14.856 307.473 13.448V13.224H309.329V17.064C309.329 18.008 309.761 18.488 310.641 18.488H311.953ZM315.713 7.992V9.112H319.777C318.945 12.088 317.441 14.392 315.249 16.008L315.985 16.952C318.449 15.128 320.081 12.44 320.913 8.904V7.992H315.713ZM328.097 6.456C327.041 7.832 325.873 9.064 324.577 10.136C324.097 9.24 323.681 8.28 323.345 7.256V3.864H322.161V16.744C322.161 17.224 321.937 17.48 321.521 17.48C320.913 17.48 320.257 17.448 319.585 17.4L319.825 18.536H321.921C322.865 18.536 323.345 18.024 323.345 17.032V9.752C324.529 12.536 326.529 15 329.313 17.144L330.017 16.104C328.001 14.76 326.353 13.08 325.105 11.048C326.465 9.992 327.777 8.68 329.025 7.144L328.097 6.456ZM334.625 14.728C334.049 14.728 333.553 14.92 333.153 15.304C332.737 15.688 332.545 16.168 332.545 16.744C332.545 17.32 332.737 17.8 333.153 18.184C333.553 18.552 334.049 18.744 334.625 18.744C335.201 18.744 335.681 18.552 336.097 18.168C336.497 17.784 336.705 17.304 336.705 16.744C336.705 16.168 336.497 15.688 336.097 15.304C335.681 14.92 335.201 14.728 334.625 14.728ZM334.625 15.56C334.945 15.56 335.233 15.672 335.473 15.912C335.713 16.136 335.841 16.408 335.841 16.744C335.841 17.064 335.713 17.336 335.473 17.56C335.233 17.784 334.945 17.912 334.625 17.912C334.289 17.912 334.001 17.784 333.777 17.56C333.521 17.336 333.409 17.064 333.409 16.744C333.409 16.408 333.521 16.136 333.777 15.912C334.001 15.672 334.289 15.56 334.625 15.56Z" fill="black"/>
<path d="M20.1523 205.707V178.042C20.1523 175.208 19.6125 174.803 15.1591 173.858V172.104H25.5504C25.6854 173.723 26.0902 175.208 26.9 176.827L39.1806 203.818L50.5167 178.042C51.5963 175.478 52.1361 173.588 52.406 171.969H63.3372V173.723C58.8837 174.668 58.3439 175.073 58.3439 177.907V205.707C58.3439 208.541 58.8837 208.946 63.3372 209.89V211.645H49.3021V209.89C53.7555 208.946 54.2953 208.541 54.2953 205.707V176.017L43.904 199.769C42.1496 203.683 40.6651 207.596 39.1806 211.645H37.4263C36.0767 207.731 34.4573 203.683 32.7029 199.769L22.7164 177.637V205.707C22.7164 208.541 23.2562 208.946 27.7097 209.89V211.645H15.1591V209.89C19.7475 208.946 20.1523 208.406 20.1523 205.707Z" fill="#231815"/>
<path d="M83.9849 208.676V207.731C81.1509 209.486 77.2373 211.645 75.7528 211.915C71.1644 211.915 68.6003 209.216 68.6003 204.897C68.6003 201.253 70.4897 198.959 77.2373 197.745L83.9849 196.665V192.212C83.9849 188.838 82.0956 187.218 79.3966 187.218C76.6975 187.218 74.5383 188.703 74.5383 190.997C74.5383 191.132 74.5383 191.402 74.5383 191.807C73.4586 192.347 72.2441 192.616 71.5693 192.616C70.6246 192.616 70.3547 192.077 70.3547 191.132C70.3547 188.703 71.5693 187.218 74.2684 186.139L79.1267 184.114C79.6665 184.114 80.2063 183.979 80.6111 183.979C85.1995 183.979 87.7636 186.679 87.7636 191.267V206.787C87.7636 207.866 88.1685 208.406 89.518 208.406C90.3277 208.406 91.4073 208.406 92.7569 208.271V210.43L86.2791 212.185C84.6597 211.78 83.9849 210.97 83.9849 208.676ZM76.2926 208.001C78.182 208.001 80.6111 207.191 83.9849 205.302V198.959L78.8567 199.904C73.7285 200.849 72.6489 201.928 72.6489 204.222C72.6489 206.652 73.8635 208.001 76.2926 208.001Z" fill="#231815"/>
<path d="M104.228 169H104.633C104.363 171.429 104.228 173.858 104.228 177.637V205.707C104.228 208.541 104.633 208.946 108.412 209.891V211.645H98.5601V210.565C100.045 209.216 100.449 208.271 100.449 206.787V177.502C100.449 174.533 99.3699 173.588 95.8611 172.644L96.131 171.024L104.228 169Z" fill="#231815"/>
<path d="M121.232 169H121.637C121.367 171.429 121.232 173.858 121.232 177.637V205.707C121.232 208.541 121.637 208.946 125.416 209.891V211.645H115.564V210.565C117.049 209.216 117.454 208.271 117.454 206.787V177.502C117.454 174.533 116.374 173.588 112.865 172.644L113.135 171.024L121.232 169Z" fill="#231815"/>
<path d="M130.004 186.139L138.101 184.114H138.506C138.236 186.544 138.101 188.973 138.101 192.751V205.707C138.101 208.541 138.506 208.946 142.285 209.89V211.645H132.433V210.565C133.918 209.216 134.323 208.271 134.323 206.786V192.616C134.323 189.647 133.243 188.703 129.734 187.758L130.004 186.139ZM133.108 174.803C133.108 173.183 134.592 171.699 136.212 171.699C137.831 171.699 139.316 173.183 139.316 174.803C139.316 176.422 137.831 177.907 136.212 177.907C134.592 177.907 133.108 176.422 133.108 174.803Z" fill="#231815"/>
<path d="M176.293 209.891V211.645C174.808 211.78 173.864 211.78 172.919 211.78C169.68 211.78 167.251 210.565 163.607 205.572L157.669 197.745L155.105 200.039V205.707C155.105 208.541 155.51 208.946 159.289 209.891V211.645H149.437V210.565C150.922 209.216 151.326 208.271 151.326 206.787V177.502C151.326 174.533 150.247 173.588 146.738 172.644L147.008 171.024L155.105 169H155.51C155.24 171.429 155.105 173.858 155.105 177.637V197.07L162.123 190.457C164.417 188.298 164.552 186.814 162.393 186.409V184.655H173.998V186.409C170.625 187.489 166.981 189.378 163.877 192.077L160.368 195.316L166.441 202.873C170.085 207.462 172.784 209.216 176.293 209.891Z" fill="#231815"/>
<path d="M194.916 208.676V207.731C192.082 209.486 188.169 211.645 186.684 211.915C182.096 211.915 179.532 209.216 179.532 204.897C179.532 201.254 181.421 198.959 188.169 197.745L194.916 196.665V192.212C194.916 188.838 193.027 187.219 190.328 187.219C187.629 187.219 185.47 188.703 185.47 190.997C185.47 191.132 185.47 191.402 185.47 191.807C184.39 192.347 183.175 192.617 182.501 192.617C181.556 192.617 181.286 192.077 181.286 191.132C181.286 188.703 182.501 187.219 185.2 186.139L190.058 184.115C190.598 184.115 191.138 183.98 191.543 183.98C196.131 183.98 198.695 186.679 198.695 191.267V206.787C198.695 207.866 199.1 208.406 200.449 208.406C201.259 208.406 202.339 208.406 203.688 208.271V210.43L197.211 212.185C195.726 211.78 194.916 210.97 194.916 208.676ZM183.041 174.533C188.034 174.803 192.892 174.803 197.885 174.533L197.345 178.447C192.352 178.177 187.494 178.177 182.501 178.447L183.041 174.533ZM187.224 208.001C189.113 208.001 191.543 207.192 194.916 205.302V198.959L189.788 199.904C184.66 200.849 183.58 201.928 183.58 204.223C183.715 206.652 184.93 208.001 187.224 208.001Z" fill="#231815"/>
<path d="M211.38 205.842V188.298H205.847L206.117 186.544C209.356 185.059 212.325 181.955 213.54 178.581L215.159 178.312V184.654H224.066L223.391 188.298H215.159V204.222C215.159 207.326 216.239 208.541 219.343 208.541C220.557 208.541 222.042 208.406 224.336 208.001V210.16L218.398 212.185C213.405 212.05 211.38 210.025 211.38 205.842Z" fill="#231815"/>
<path d="M228.52 221.632L228.654 220.147C234.322 219.877 237.561 217.448 240.395 211.915L232.163 193.427C230.409 189.378 229.059 187.759 226.765 186.544V184.79H237.831V186.409C234.323 187.354 234.188 188.433 235.942 192.617L242.285 206.922L247.548 192.617C249.032 188.433 248.897 187.219 245.524 186.409V184.79H255.915V186.544C253.351 187.759 251.327 190.053 249.842 193.966L242.959 211.915C239.721 220.417 237.426 222.981 233.243 224.331L228.52 221.632Z" fill="#231815"/>
<path d="M262.932 217.583V192.617C262.932 189.648 261.853 188.703 258.344 187.758V186.139L266.711 184.115H267.116C266.981 184.924 266.981 185.869 266.846 186.814C268.6 185.869 270.625 184.789 272.244 184.249C272.649 184.249 273.054 184.249 273.459 184.249C281.421 184.249 284.795 189.648 284.795 196.935C284.795 205.437 279.532 212.185 269.95 212.185C268.87 212.185 267.791 212.05 266.711 211.915V217.583C266.711 220.417 267.116 220.822 270.895 221.766V223.521H258.884V221.766C262.528 220.822 262.932 220.417 262.932 217.583ZM272.109 209.081C278.047 209.081 280.611 205.302 280.611 198.419C280.611 191.267 277.507 187.623 272.514 187.623C270.625 187.623 268.465 188.298 266.711 189.378C266.711 190.322 266.711 191.537 266.711 192.751V208.001C268.331 208.811 270.22 209.081 272.109 209.081Z" fill="#231815"/>
<path d="M313 194.236C313 194.776 313 195.451 313 195.991H295.051C295.051 196.396 295.051 196.665 295.051 197.07C295.051 204.088 299.235 208.406 305.983 208.406C308.277 208.406 310.706 207.866 312.73 207.192V209.486L305.983 212.05C305.038 212.185 304.093 212.185 303.418 212.185C296.536 212.185 291.273 207.597 291.273 199.095C291.273 191.267 295.591 184.25 303.688 184.25C309.761 184.25 313 188.568 313 194.236ZM307.062 193.292C308.277 193.292 308.682 192.752 308.682 191.402C308.682 188.838 306.657 186.544 303.284 186.544C299.64 186.544 296.536 189.243 295.456 193.561L307.062 193.292Z" fill="#231815"/>
<path d="M38.9109 271.969V291.537C38.3711 291.942 36.3468 292.347 35.2672 292.212V272.644C30.6788 280.066 21.9069 286.274 13.6748 288.838L13 287.354C20.8273 283.305 28.9244 276.423 32.5681 269.81H30.139C25.5506 269.81 22.8515 269.81 20.4224 270.08L19.8826 267.651H35.2672V261.713H28.5196C23.3914 261.713 20.6923 261.713 17.8583 261.983L17.3185 259.419H35.2672V253.481C36.7517 253.616 39.0459 254.29 40.6653 254.83V255.64C39.4507 256.45 39.0459 256.855 39.0459 258.744V259.284H46.8731C49.977 259.284 50.9217 258.339 52.4062 256.585C54.0256 257.664 56.0499 259.149 57.5344 260.363L56.9946 261.578H38.9109V267.516H44.309C47.413 267.516 48.2227 266.706 49.8421 264.952C51.3266 265.896 53.3509 267.381 54.8354 268.595L54.4305 269.675H40.1255C44.9838 276.423 52.5412 282.226 61.448 284.925L61.3131 286.004C58.8839 286.139 56.9946 286.949 55.915 288.029C50.112 285.599 42.8246 278.447 38.9109 271.969ZM28.2497 248.892V242.415C29.7341 242.55 32.0283 243.224 33.6478 243.764V244.574C32.4332 245.518 31.8934 245.788 31.8934 247.678V248.892H42.4197V242.415C43.9042 242.55 46.1984 243.224 47.8178 243.764V244.574C46.6032 245.518 46.0634 245.788 46.0634 247.678V248.892H49.3023C52.4062 248.892 53.3509 247.948 54.9703 246.193C56.5897 247.273 58.614 248.757 60.0985 249.972L59.5587 251.186H46.0634V256.18C45.5236 256.585 43.4993 256.989 42.4197 256.854V251.186H31.8934V256.18C31.3536 256.585 29.3293 256.989 28.2497 256.854V251.186H25.9555C20.8273 251.186 18.1282 251.186 15.2942 251.456L14.8893 248.892H28.2497Z" fill="#231815"/>
<path d="M87.6288 273.184V291.537C87.089 291.942 85.0647 292.347 83.9851 292.212V274.263C80.8812 279.661 75.8879 284.52 70.4898 287.354L69.5452 286.139C75.2132 281.416 80.4763 274.803 82.7705 268.46H81.8259C77.6423 268.46 75.4831 268.46 73.3238 268.73L72.784 266.301H83.9851V260.498C80.8812 261.173 77.3724 261.578 73.9986 261.578L73.8636 260.093C80.7462 259.149 87.7638 256.989 92.0823 254.02C93.0269 254.83 94.6464 256.585 95.591 257.799L95.0512 258.609C93.4318 258.204 92.6221 258.069 90.8677 258.744C89.6531 259.149 88.1686 259.688 86.6842 259.958C87.6288 260.228 88.5735 260.633 89.3832 260.903V261.713C88.1686 262.522 87.6288 262.792 87.6288 264.817V266.301H88.0337C90.7327 266.301 91.6774 265.491 93.1619 264.007C94.6464 264.952 96.5357 266.436 97.8852 267.516L97.4804 268.595H87.6288V270.89C91.0026 272.779 94.3765 275.208 95.591 277.097C96.5357 278.582 96.6707 280.606 95.9959 281.416C95.4561 282.091 94.3765 282.091 93.5668 280.876C92.0823 278.177 89.923 275.478 87.6288 273.184ZM84.9298 248.757V242.28C86.4142 242.414 88.7084 243.089 90.3279 243.629V244.439C89.1133 245.383 88.5735 245.653 88.5735 247.543V248.757H98.8299V242.28C100.314 242.414 102.609 243.089 104.228 243.629V244.439C103.013 245.383 102.474 245.653 102.474 247.543V248.757H106.117C109.221 248.757 110.166 247.813 111.785 246.058C113.405 247.138 115.429 248.622 116.914 249.837L116.374 251.051H102.474V254.965C101.934 255.37 99.9095 255.775 98.8299 255.64V251.051H88.5735V254.29C88.0337 254.695 86.0094 255.1 84.9298 254.965V251.051H82.7705C77.6423 251.051 74.9433 251.051 72.1093 251.321L71.5695 248.757H84.9298V248.757ZM98.695 287.624H103.418C107.062 287.624 108.277 287.084 108.277 283.845V254.29C109.761 254.425 112.19 255.1 113.81 255.64V256.45C112.595 257.259 112.055 257.664 112.055 259.553V284.79C112.055 288.568 110.436 290.997 107.872 292.077C106.387 290.863 103.283 289.783 98.56 289.108L98.695 287.624ZM99.7746 259.149C101.259 259.284 103.418 259.958 105.038 260.498V261.308C103.823 262.118 103.418 262.522 103.418 264.682V280.201C102.878 280.606 100.989 281.011 99.7746 280.876V259.149V259.149Z" fill="#231815"/>
<path d="M149.032 270.484C147.953 268.595 146.333 266.841 144.174 265.356L145.254 263.872C147.143 264.816 148.627 265.761 149.977 266.976L155.78 260.363H146.468C142.824 260.363 140.935 260.363 138.911 260.633L138.371 258.069H152.946C156.32 258.069 156.86 257.529 158.209 256.044C159.559 256.854 161.718 258.339 162.932 259.418L162.663 260.498C160.098 260.903 159.289 261.712 151.731 268.73C152.136 269.27 152.541 269.81 152.811 270.349H161.718C165.092 270.349 166.036 269.405 167.926 267.38C169.545 268.46 171.839 270.079 173.324 271.429L172.784 272.644H153.891C154.7 274.803 155.105 277.232 155.105 279.526C155.105 283.035 154.295 285.869 152.811 288.028C151.327 290.053 149.167 291.672 147.548 292.077C146.333 290.862 144.039 290.053 139.721 289.513L139.856 287.893H142.824C149.707 287.893 151.327 283.71 151.327 278.851C151.327 276.692 151.057 274.533 150.247 272.644H139.586C134.188 272.644 131.354 272.644 128.385 272.914L127.845 270.349H149.032V270.484ZM129.194 258.069C129.194 257.124 129.734 256.314 130.814 255.235C132.973 253.345 134.457 250.916 134.997 247.407H136.752C136.887 248.352 136.887 249.297 136.887 250.241H151.057C149.572 247.947 147.143 245.383 144.444 243.494L145.254 242.144C148.223 242.819 151.866 244.708 153.081 246.328C154.026 247.677 154.295 249.297 153.756 250.376H161.718C164.822 250.376 165.766 249.702 167.116 247.947C168.6 248.757 170.76 250.376 172.109 251.456L171.839 252.536C169.68 252.941 169.005 253.75 164.147 259.013L162.663 258.069L165.362 252.671H136.482C135.672 256.719 133.513 260.093 130.814 260.093C129.734 260.093 129.194 259.013 129.194 258.069Z" fill="#231815"/>
<path d="M207.062 245.114C208.276 245.923 210.436 247.408 211.65 248.488L211.38 249.567H203.418C204.498 249.837 205.577 250.242 206.387 250.647V251.322C205.308 252.131 204.903 252.401 204.903 254.426V258.474C206.387 258.339 207.062 257.529 208.007 256.45C209.356 257.26 211.245 258.609 212.46 259.689L212.055 260.768H204.768V270.08C206.252 270.35 208.142 270.89 209.491 271.43V272.239C208.277 273.184 207.737 273.454 207.737 275.748V278.177H210.841C213.81 278.177 214.754 277.232 216.374 275.478C217.993 276.558 220.017 278.042 221.502 279.257L221.097 280.336H207.737V287.759H217.048C220.152 287.759 221.097 286.814 222.851 284.79C224.606 285.869 226.9 287.489 228.384 288.838L227.845 290.053H194.781C189.653 290.053 186.954 290.053 184.12 290.323L183.58 287.759H203.823V280.336H200.584C195.996 280.336 193.297 280.336 190.868 280.606L190.328 278.177H203.823V271.295C203.013 271.564 201.934 271.699 201.124 271.699V260.903H196.131C195.591 266.841 193.027 271.16 184.12 275.343L183.175 273.859C189.788 269.675 191.947 265.896 192.487 260.903C188.843 260.903 186.819 261.038 184.66 261.173L184.12 258.879H192.622C192.622 258.339 192.622 257.934 192.622 257.394C192.622 253.346 192.622 251.322 192.487 249.837C189.788 249.837 188.034 249.972 186.279 250.107L185.739 247.813H201.394C204.903 247.408 205.577 246.733 207.062 245.114ZM198.155 250.647V251.322C197.075 252.131 196.671 252.536 196.671 254.426V257.664C196.671 257.934 196.671 258.204 196.671 258.339H201.529V249.297H195.051C196.131 249.837 197.21 250.242 198.155 250.647ZM212.325 269.27H216.779C220.287 269.27 221.367 268.73 221.367 265.627V243.359C222.986 243.494 225.146 244.169 226.63 244.709V245.519C225.415 246.463 224.876 246.868 224.876 249.162V266.571C224.876 270.215 223.256 272.509 220.962 273.589C219.343 272.509 216.509 271.564 212.055 270.89L212.325 269.27ZM213.54 247.273C215.024 247.408 217.183 247.948 218.533 248.623V249.432C217.453 250.242 216.913 250.647 216.913 252.671V264.952C216.374 265.357 214.619 265.627 213.54 265.627V247.273Z" fill="#231815"/>
<path d="M51.152 462.576V474H52.464V469.088H55.92C56.64 469.088 57.184 469.216 57.568 469.504C57.984 469.792 58.224 470.288 58.288 470.96L58.432 472.48C58.48 473.12 58.64 473.616 58.896 474H60.32C59.984 473.584 59.776 473.024 59.712 472.32L59.536 470.56C59.408 469.408 58.8 468.72 57.712 468.48V468.448C58.368 468.288 58.88 467.968 59.264 467.456C59.616 466.96 59.792 466.4 59.792 465.76C59.792 464.704 59.44 463.904 58.768 463.36C58.112 462.832 57.216 462.576 56.08 462.576H51.152ZM52.464 463.712H55.92C56.8 463.712 57.456 463.888 57.872 464.24C58.256 464.576 58.464 465.104 58.464 465.808C58.464 466.48 58.256 466.992 57.856 467.36C57.408 467.744 56.752 467.952 55.92 467.952H52.464V463.712ZM62.8605 462.608C62.5885 462.608 62.3645 462.688 62.1725 462.88C61.9805 463.04 61.9005 463.264 61.9005 463.552C61.9005 463.824 61.9805 464.048 62.1725 464.24C62.3645 464.416 62.5885 464.512 62.8605 464.512C63.1325 464.512 63.3565 464.416 63.5485 464.24C63.7405 464.048 63.8365 463.824 63.8365 463.552C63.8365 463.264 63.7405 463.04 63.5485 462.88C63.3565 462.688 63.1325 462.608 62.8605 462.608ZM62.2205 465.728V474H63.5005V465.728H62.2205ZM69.4663 465.504C68.2343 465.504 67.2582 465.936 66.5543 466.816C65.8983 467.616 65.5783 468.64 65.5783 469.904C65.5783 471.168 65.8983 472.192 66.5543 472.976C67.2423 473.808 68.2023 474.224 69.4503 474.224C70.4743 474.224 71.2903 473.952 71.9143 473.424C72.5543 472.88 72.9543 472.064 73.1463 471.008H71.8663C71.6743 472.432 70.8583 473.152 69.4503 473.152C68.6183 473.152 67.9783 472.848 67.5463 472.272C67.0983 471.696 66.8903 470.896 66.8903 469.888C66.8903 468.88 67.1143 468.08 67.5623 467.488C68.0263 466.88 68.6663 466.576 69.4663 466.576C70.1223 466.576 70.6503 466.72 71.0663 467.04C71.4663 467.36 71.7223 467.84 71.8343 468.48H73.0983C72.9543 467.472 72.5703 466.72 71.9303 466.224C71.3063 465.744 70.4903 465.504 69.4663 465.504ZM74.6483 462.352V474H75.9283V469.28C75.9283 468.512 76.1363 467.856 76.5683 467.344C76.9843 466.832 77.5123 466.576 78.1523 466.576C78.8403 466.576 79.3683 466.784 79.7523 467.2C80.1043 467.616 80.2963 468.208 80.2963 468.976V474H81.5763V468.784C81.5763 467.728 81.3203 466.912 80.8083 466.352C80.2963 465.776 79.5443 465.504 78.5843 465.504C78.0243 465.504 77.5283 465.632 77.0803 465.888C76.6003 466.16 76.2163 466.56 75.9283 467.088V462.352H74.6483ZM87.2349 465.504C85.9869 465.504 85.0109 465.92 84.2749 466.784C83.5709 467.6 83.2189 468.624 83.2189 469.872C83.2189 471.104 83.5709 472.128 84.2749 472.928C85.0109 473.792 85.9869 474.224 87.2349 474.224C88.4669 474.224 89.4589 473.792 90.2109 472.928C90.8989 472.128 91.2509 471.104 91.2509 469.872C91.2509 468.624 90.8989 467.6 90.1949 466.784C89.4589 465.92 88.4669 465.504 87.2349 465.504ZM87.2349 466.576C88.0989 466.576 88.7869 466.912 89.2989 467.584C89.7309 468.192 89.9549 468.944 89.9549 469.872C89.9549 470.768 89.7309 471.536 89.2989 472.144C88.7869 472.816 88.0989 473.152 87.2349 473.152C86.3549 473.152 85.6669 472.816 85.1869 472.144C84.7389 471.536 84.5309 470.784 84.5309 469.872C84.5309 468.944 84.7389 468.192 85.1869 467.584C85.6669 466.912 86.3549 466.576 87.2349 466.576ZM96.5459 465.504C95.9699 465.504 95.4739 465.68 95.0419 466.032C94.6899 466.304 94.4019 466.688 94.1779 467.168V465.728H92.9139V474H94.1779V469.616C94.1779 468.848 94.3859 468.192 94.8339 467.648C95.2659 467.072 95.8099 466.8 96.4499 466.8C96.8499 466.8 97.2659 466.848 97.6819 466.976V465.696C97.3779 465.568 96.9939 465.504 96.5459 465.504ZM105.67 461.232L104.87 461.984C105.958 462.832 106.806 463.632 107.43 464.4L108.214 463.6C107.526 462.816 106.678 462.032 105.67 461.232ZM103.814 465.856V466.96H106.038V473.296C106.038 473.552 105.91 473.792 105.686 474.016L106.134 475.04C107.254 474.304 108.326 473.472 109.334 472.528L109.014 471.312C108.358 471.936 107.734 472.48 107.158 472.96V465.856H103.814ZM109.494 467.728V468.848H110.374C110.822 470.24 111.638 471.488 112.854 472.608C111.654 473.456 110.166 474.144 108.39 474.672L109.03 475.648C110.902 475.072 112.486 474.32 113.766 473.36C114.886 474.224 116.294 474.976 117.958 475.648L118.582 474.656C117.014 474.08 115.686 473.424 114.598 472.672C115.766 471.584 116.598 470.288 117.11 468.784V467.728H109.494ZM111.462 468.848H115.974C115.462 470.032 114.694 471.056 113.67 471.952C112.614 471.04 111.878 470 111.462 468.848ZM110.726 461.552V463.328C110.726 464.592 110.022 465.568 108.63 466.256L109.398 467.136C111.03 466.208 111.862 464.896 111.862 463.2V462.64H114.966V465.248C114.966 466.192 115.446 466.672 116.438 466.672H118.198V465.616H116.726C116.31 465.616 116.102 465.408 116.102 465.008V461.552H110.726ZM124.822 465.728V466.88H129.158V475.632H130.342V466.88H134.454V465.728H130.342V460.912H129.158V465.728H124.822ZM121.686 461.088L120.886 461.872C122.038 462.736 122.966 463.568 123.638 464.352L124.422 463.552C123.686 462.72 122.774 461.904 121.686 461.088ZM119.814 465.824V466.928H122.166V473.312C122.166 473.568 122.038 473.792 121.798 473.984L122.246 475.024C123.382 474.272 124.454 473.424 125.446 472.464L125.158 471.28C124.486 471.92 123.846 472.464 123.27 472.944V465.824H119.814ZM142.758 466.256V473.776C142.758 474.176 142.534 474.384 142.102 474.384C141.206 474.384 140.358 474.352 139.574 474.288L139.894 475.408C140.614 475.44 141.462 475.472 142.422 475.472C143.414 475.472 143.926 474.976 143.926 473.984V466.832C145.798 465.616 147.478 464.336 148.966 462.992V461.872H136.87V462.992H147.398C145.926 464.24 144.39 465.328 142.758 466.256ZM165.75 462.4H159.702C159.446 461.792 159.19 461.232 158.902 460.736L157.654 460.928C157.974 461.376 158.278 461.872 158.534 462.4H152.438V465.664H153.622V463.52H164.566V465.68H165.75V462.4ZM163.478 465.104H154.646V475.616H155.798V474.96H163.062V475.6H164.214V470.752H155.798V469.088H163.478V465.104ZM155.798 473.952V471.76H163.062V473.952H155.798ZM155.798 468.08V466.128H162.342V468.08H155.798ZM174.63 471.968L175.398 471.2C174.758 470.208 174.118 469.296 173.51 468.464C173.926 467.104 174.262 465.6 174.518 463.952L173.462 463.76C173.27 465.04 173.014 466.256 172.71 467.376C172.038 466.48 171.398 465.728 170.806 465.104L170.086 465.792C170.822 466.64 171.574 467.568 172.342 468.592C171.798 470.208 171.11 471.616 170.278 472.8L171.014 473.696C171.83 472.576 172.534 471.232 173.11 469.664C173.606 470.384 174.118 471.152 174.63 471.968ZM179.318 472.704L180.102 471.936C179.414 470.784 178.758 469.744 178.15 468.816C178.63 467.376 179.014 465.776 179.302 464L178.214 463.808C177.99 465.184 177.718 466.48 177.366 467.68C176.694 466.72 176.054 465.92 175.478 465.264L174.758 465.952C175.494 466.848 176.214 467.84 176.95 468.928C176.358 470.56 175.606 471.984 174.71 473.2L175.446 474.08C176.31 472.96 177.062 471.616 177.702 470.048C178.23 470.88 178.774 471.76 179.318 472.704ZM180.054 475.504C180.998 475.504 181.478 475.008 181.478 474.032V461.584H168.71V475.568H169.846V462.688H180.342V473.776C180.342 474.208 180.118 474.432 179.67 474.432L178.134 474.384L178.438 475.504H180.054ZM186.07 472.096C185.75 472.096 185.51 472.176 185.318 472.368C185.126 472.544 185.03 472.784 185.03 473.088C185.03 473.36 185.126 473.6 185.318 473.792C185.51 473.984 185.734 474.08 186.006 474.08C186.166 474.08 186.294 474.048 186.358 474.016C186.358 474.4 186.246 474.752 186.006 475.088C185.75 475.408 185.414 475.648 184.998 475.792V476.576C185.67 476.4 186.23 476.048 186.646 475.536C187.062 474.992 187.27 474.368 187.27 473.664C187.27 473.2 187.158 472.832 186.95 472.544C186.726 472.24 186.422 472.096 186.07 472.096ZM205.59 472.4C203.99 473.008 202.134 473.472 199.99 473.824L200.134 474.944C202.182 474.576 203.99 474.096 205.59 473.488V472.4ZM202.63 460.912C201.99 462.816 201.222 464.512 200.358 465.984C200.214 466.192 200.054 466.336 199.878 466.4L200.15 467.456C201.046 467.328 201.926 467.168 202.806 467.008C201.974 468.512 201.27 469.584 200.694 470.224C200.566 470.352 200.39 470.464 200.182 470.544L200.486 471.6C202.022 471.376 203.622 470.992 205.286 470.416V469.376C204.134 469.792 202.982 470.112 201.83 470.352C202.758 469.2 203.894 467.264 205.27 464.56L204.246 464.16C203.942 464.784 203.654 465.376 203.366 465.952C202.662 466.096 201.958 466.208 201.254 466.304C202.086 465.056 202.918 463.408 203.718 461.328L202.63 460.912ZM213.11 469.024H206.518V475.408H207.622V474.528H211.974V475.408H213.11V469.024ZM207.622 473.424V470.112H211.974V473.424H207.622ZM209.27 461.024C208.166 463.04 206.758 464.704 205.03 466L205.702 466.944C207.286 465.728 208.662 464.112 209.814 462.096C210.838 464.08 212.198 465.664 213.894 466.88L214.566 465.904C212.71 464.624 211.302 462.992 210.358 461.024H209.27ZM207.19 465.952V467.024H212.342V465.952H207.19ZM216.15 462.352V463.424H219.798V464.816H220.982V463.424H225.206V464.816H226.39V463.424H230.038V462.352H226.39V460.976H225.206V462.352H220.982V460.976H219.798V462.352H216.15ZM223.75 470.112C224.902 471.776 226.886 473.296 229.67 474.64L230.422 473.68C227.798 472.624 225.926 471.44 224.806 470.112H229.286V469.024H223.654V467.088H229.798V466.016H223.654V464.64H222.534V466.016H216.438V467.088H222.534V469.024H217.078V470.112H221.398C220.214 471.52 218.342 472.688 215.782 473.616L216.39 474.64C219.206 473.456 221.222 471.936 222.47 470.112H222.534V475.616H223.654V470.112H223.75ZM232.15 462.144V463.184H235.798V464.384H236.982V463.184H241.206V464.48H242.39V463.184H246.038V462.144H242.39V460.864H241.206V462.144H236.982V460.864H235.798V462.144H232.15ZM238.678 464.608C237.014 465.104 234.95 465.424 232.502 465.568L232.854 466.592C233.782 466.528 234.678 466.448 235.558 466.336V467.872H232.406V468.976H235.43C234.678 470.288 233.462 471.472 231.798 472.512L232.262 473.68C233.638 472.672 234.726 471.536 235.558 470.272V475.6H236.662V470.656C237.334 471.168 238.134 471.856 239.078 472.736L239.718 471.76C238.694 470.96 237.67 470.24 236.662 469.632V468.976H239.43V467.872H236.662V466.16C237.542 466 238.39 465.792 239.222 465.552L238.678 464.608ZM240.822 465.696V472.96H241.926V465.696H240.822ZM243.67 475.632C244.662 475.632 245.158 475.104 245.158 474.064V464.72H244.054V473.776C244.054 474.336 243.798 474.624 243.286 474.624C242.71 474.624 242.086 474.592 241.446 474.544L241.686 475.632H243.67ZM249.19 466.176V467.296H254.502V473.92H247.974V475.056H262.214V473.92H255.686V467.296H260.966V466.176H255.686V460.992H254.502V466.176H249.19ZM263.926 465.2V466.288H265.494V471.888C264.918 472.08 264.342 472.256 263.766 472.4L264.038 473.504C265.574 473.008 267.03 472.4 268.374 471.68V470.592C267.798 470.912 267.206 471.2 266.598 471.456V466.288H268.15V465.2H266.598V460.992H265.494V465.2H263.926ZM268.598 462.016V462.96H278.134V462.016H273.894C273.734 461.552 273.574 461.136 273.398 460.752L272.246 460.944C272.438 461.264 272.614 461.632 272.774 462.016H268.598ZM273.958 463.712V466.112H274.71V466.928H272.054V466.128H272.79V463.696H269.35V466.128H271.03V466.928H268.998V467.744H271.03V468.64H269.35V469.44H271.03V470.336H268.71V471.168H272.022C271.158 471.952 269.846 472.592 268.054 473.104L268.598 474C269.334 473.728 270.022 473.424 270.646 473.104V474.432C270.646 474.592 270.502 474.72 270.214 474.816L270.598 475.648C271.83 475.312 273.046 474.896 274.23 474.416L274.038 473.504C273.238 473.856 272.438 474.16 271.638 474.416V472.512C272.214 472.096 272.71 471.648 273.11 471.168H273.862C274.726 473.344 276.086 474.8 277.942 475.568L278.502 474.672C277.702 474.368 276.998 473.936 276.406 473.392C276.966 473.088 277.478 472.672 277.958 472.144L277.206 471.536C276.806 472.048 276.342 472.448 275.798 472.768C275.414 472.32 275.078 471.776 274.806 471.168H278.166V470.336H275.734V469.44H277.494V468.64H275.734V467.744H277.926V466.928H275.734V466.112H277.366V463.712H273.958ZM272.054 470.336V469.44H274.71V470.336H272.054ZM276.454 465.424H274.838V464.4H276.454V465.424ZM274.71 468.64H272.054V467.744H274.71V468.64ZM271.91 465.392H270.262V464.416H271.91V465.392ZM283.094 471.728C282.518 471.728 282.022 471.92 281.622 472.304C281.206 472.688 281.014 473.168 281.014 473.744C281.014 474.32 281.206 474.8 281.622 475.184C282.022 475.552 282.518 475.744 283.094 475.744C283.67 475.744 284.15 475.552 284.566 475.168C284.966 474.784 285.174 474.304 285.174 473.744C285.174 473.168 284.966 472.688 284.566 472.304C284.15 471.92 283.67 471.728 283.094 471.728ZM283.094 472.56C283.414 472.56 283.702 472.672 283.942 472.912C284.182 473.136 284.31 473.408 284.31 473.744C284.31 474.064 284.182 474.336 283.942 474.56C283.702 474.784 283.414 474.912 283.094 474.912C282.758 474.912 282.47 474.784 282.246 474.56C281.99 474.336 281.878 474.064 281.878 473.744C281.878 473.408 281.99 473.136 282.246 472.912C282.47 472.672 282.758 472.56 283.094 472.56Z" fill="black"/>
</svg>
