<?xml version="1.0" encoding="UTF-8"?>
<svg id="Layer_1" data-name="Layer 1" xmlns="http://www.w3.org/2000/svg" viewBox="0 0 94.04 94.04">
  <defs>
    <style>
      .cls-1 {
        fill: #c6e5e7;
      }

      .cls-2 {
        fill: #241916;
      }
    </style>
  </defs>
  <rect class="cls-1" width="94.04" height="94.04"/>
  <path class="cls-2" d="m50,54.39v30.25c-.92.64-3.96,1.2-5.71,1.1v-30.21c-7.16,11.35-20.7,20.98-33.32,24.88l-1.01-2.21c12.1-6.3,24.58-16.82,30.1-27.15h-3.68c-7.18,0-11.14.09-15,.37l-.83-3.77h23.75v-9.2h-10.4c-7.82,0-12.15.09-16.38.46l-.83-3.96h27.61v-9.2c2.39.28,5.89,1.2,8.28,2.12v1.29c-1.93,1.2-2.58,1.84-2.58,4.88v.92h12.06c4.69,0,6.17-1.38,8.56-4.14,2.49,1.56,5.71,3.96,7.92,5.8l-.74,1.84h-27.8v9.2h8.38c4.88,0,5.98-1.2,8.47-3.96,2.3,1.47,5.43,3.77,7.64,5.62l-.64,1.75h-22.02c7.56,10.48,19.18,19.36,32.79,23.47l-.18,1.75c-3.77.28-6.63,1.47-8.38,3.13-8.83-3.97-20.09-14.86-26.05-25.01Zm-16.47-35.55v-10.03c2.39.28,5.8,1.2,8.28,2.12v1.2c-1.93,1.38-2.67,1.93-2.67,4.79v1.93h16.2v-10.03c2.39.28,5.8,1.2,8.28,2.12v1.2c-1.93,1.38-2.67,1.93-2.67,4.79v1.93h4.97c4.88,0,6.26-1.38,8.74-4.14,2.48,1.57,5.71,3.96,7.92,5.8l-.74,1.84h-20.89v7.73c-.92.64-3.87,1.2-5.61,1.1v-8.83h-16.2v7.73c-.92.64-3.87,1.2-5.61,1.1v-8.83h-3.5c-7.82,0-12.15.09-16.38.46l-.83-3.96h20.71Z"/>
</svg>