<?xml version="1.0" encoding="UTF-8"?>
<svg id="Layer_1" data-name="Layer 1" xmlns="http://www.w3.org/2000/svg" viewBox="0 0 299.98 242.81">
  <defs>
    <style>
      .cls-1 {
        fill: none;
        stroke: #1d1d1b;
        stroke-width: .65px;
      }
    </style>
  </defs>
  <path class="cls-1" d="m3.39,145.46c8.02,1.28,25.02,1.6,66.39,1.6h69.27v-4.17c0-14.75-.96-18.92-.96-21.81,0-2.57,1.28-3.85,3.85-3.85,2.89,0,8.98,1.6,14.43,3.85,15.07-8.98,29.19-20.53,39.13-31.43h-82.42c-27.26,0-38.16.96-45.54,2.25-1.92.32-2.89,0-3.85-1.6-1.28-2.25-1.92-6.41-1.92-9.3,0-1.6.96-2.25,2.89-1.92,8.02,1.28,21.17,1.6,48.43,1.6h85.63c4.49-4.81,10.26-10.58,14.11-13.47,2.57-1.92,5.77-2.24,8.66-.32,4.81,3.21,12.51,10.26,15.71,14.11,2.25,2.57,2.57,6.09-.32,8.34-2.25,1.6-5.13,2.89-9.3,3.53-17.96,12.19-38.17,22.45-63.82,31.75,3.53,1.92,5.77,4.17,5.77,6.09,0,2.57-2.89,5.77-7.38,9.62v6.74h88.2c7.38-8.02,14.75-15.07,20.53-19.56,2.89-2.25,6.09-2.25,9.3,0,5.45,3.85,13.47,11.22,17.64,16.04,2.25,2.57,2.25,6.09,0,8.02-2.89,2.57-8.66,4.81-13.79,4.81h-121.87v54.2c0,11.87-25.66,31.75-35.6,31.75-3.85,0-6.09-1.92-6.09-6.73,0-8.66-.96-9.3-30.47-22.13l.96-3.85c17.64,2.25,30.15,3.21,37.52,3.21,6.73,0,10.58-3.21,10.58-12.83v-43.62h-69.27c-41.37,0-55.8.96-63.18,2.24-1.92.32-2.89,0-3.85-1.6-1.28-2.24-2.25-7.06-2.25-9.62,0-1.6.96-2.25,2.89-1.92ZM39.95,18.14l5.13-.32c1.28,6.09,2.25,12.19,2.89,17.64h90.44v-10.58c0-15.07-1.28-17.96-1.28-20.85,0-2.57,1.28-3.53,3.85-3.53,7.06,0,27.58,6.73,27.58,12.19,0,3.21-3.85,6.41-8.02,9.3v13.47h91.4c4.81-5.45,10.9-11.55,14.11-14.11,2.24-1.92,5.45-1.92,7.7-.32,4.49,3.21,13.47,10.9,17,15.39,1.92,2.57,1.28,5.77-1.28,7.38s-5.77,2.25-8.98,2.89l-33.35,34.96-3.85-2.57,11.87-34.32H48.61c0,6.09-.64,11.55-1.92,16.04-3.53,12.51-12.51,21.17-22.77,22.77-6.73.96-11.55-1.6-13.15-7.7-1.6-6.41,1.6-13.47,8.34-17.64,11.55-7.06,19.56-23.41,20.85-40.09Z"/>
</svg>