<?xml version="1.0" encoding="utf-8"?>
<!-- Generator: Adobe Illustrator 27.1.0, SVG Export Plug-In . SVG Version: 6.00 Build 0)  -->
<svg version="1.1" id="图层_1" xmlns="http://www.w3.org/2000/svg" xmlns:xlink="http://www.w3.org/1999/xlink" x="0px" y="0px"
	 viewBox="0 0 222.3 91.3" style="enable-background:new 0 0 222.3 91.3;" xml:space="preserve">
<style type="text/css">
	.st0{fill:#231815;}
</style>
<g>
	<path class="st0" d="M5.3,27.2V6.7c0-2.1-0.4-2.4-3.7-3.1V2.3h7.7c0.1,1.2,0.4,2.3,1,3.5l9.1,20l8.4-19.1c0.8-1.9,1.2-3.3,1.4-4.5
		h8.1v1.3c-3.3,0.7-3.7,1-3.7,3.1v20.6c0,2.1,0.4,2.4,3.7,3.1v1.3H26.9v-1.3c3.3-0.7,3.7-1,3.7-3.1v-22l-7.7,17.6
		c-1.3,2.9-2.4,5.8-3.5,8.8h-1.3c-1-2.9-2.2-5.9-3.5-8.8L7.2,6.4v20.8c0,2.1,0.4,2.4,3.7,3.1v1.3H1.6v-1.3C5,29.6,5.3,29.2,5.3,27.2
		z"/>
	<path class="st0" d="M52.6,29.4v-0.7c-2.1,1.3-5,2.9-6.1,3.1c-3.4,0-5.3-2-5.3-5.2c0-2.7,1.4-4.4,6.4-5.3l5-0.8v-3.3
		c0-2.5-1.4-3.7-3.4-3.7s-3.6,1.1-3.6,2.8c0,0.1,0,0.3,0,0.6c-0.8,0.4-1.7,0.6-2.2,0.6c-0.7,0-0.9-0.4-0.9-1.1
		c0-1.8,0.9-2.9,2.9-3.7l3.6-1.5c0.4,0,0.8-0.1,1.1-0.1c3.4,0,5.3,2,5.3,5.4V28c0,0.8,0.3,1.2,1.3,1.2c0.6,0,1.4,0,2.4-0.1v1.6
		L54.3,32C53.1,31.7,52.6,31.1,52.6,29.4z M46.9,28.9c1.4,0,3.2-0.6,5.7-2v-4.7l-3.8,0.7c-3.8,0.7-4.6,1.5-4.6,3.2
		C44.2,27.9,45.1,28.9,46.9,28.9z"/>
	<path class="st0" d="M67.6,0h0.3c-0.2,1.8-0.3,3.6-0.3,6.4v20.8c0,2.1,0.3,2.4,3.1,3.1v1.3h-7.3v-0.8c1.1-1,1.4-1.7,1.4-2.8V6.3
		c0-2.2-0.8-2.9-3.4-3.6l0.2-1.2L67.6,0z"/>
	<path class="st0" d="M80.2,0h0.3c-0.2,1.8-0.3,3.6-0.3,6.4v20.8c0,2.1,0.3,2.4,3.1,3.1v1.3H76v-0.8c1.1-1,1.4-1.7,1.4-2.8V6.3
		c0-2.2-0.8-2.9-3.4-3.6l0.2-1.2L80.2,0z"/>
	<path class="st0" d="M86.7,12.7l6-1.5H93c-0.2,1.8-0.3,3.6-0.3,6.4v9.6c0,2.1,0.3,2.4,3.1,3.1v1.3h-7.3v-0.8c1.1-1,1.4-1.7,1.4-2.8
		V17.5c0-2.2-0.8-2.9-3.4-3.6L86.7,12.7z M89,4.3C89,3.1,90.1,2,91.3,2s2.3,1.1,2.3,2.3s-1.1,2.3-2.3,2.3S89,5.5,89,4.3z"/>
	<path class="st0" d="M121,30.3v1.3c-1.1,0.1-1.8,0.1-2.5,0.1c-2.4,0-4.2-0.9-6.9-4.6l-4.4-5.8l-1.9,1.7v4.2c0,2.1,0.3,2.4,3.1,3.1
		v1.3h-7.3v-0.8c1.1-1,1.4-1.7,1.4-2.8V6.3c0-2.2-0.8-2.9-3.4-3.6l0.2-1.2l6-1.5h0.3c-0.2,1.8-0.3,3.6-0.3,6.4v14.4l5.2-4.9
		c1.7-1.6,1.8-2.7,0.2-3v-1.3h8.6v1.3c-2.5,0.8-5.2,2.2-7.5,4.2l-2.6,2.4l4.5,5.6C116.4,28.5,118.4,29.8,121,30.3z"/>
	<path class="st0" d="M134.8,29.4v-0.7c-2.1,1.3-5,2.9-6.1,3.1c-3.4,0-5.3-2-5.3-5.2c0-2.7,1.4-4.4,6.4-5.3l5-0.8v-3.3
		c0-2.5-1.4-3.7-3.4-3.7s-3.6,1.1-3.6,2.8c0,0.1,0,0.3,0,0.6c-0.8,0.4-1.7,0.6-2.2,0.6c-0.7,0-0.9-0.4-0.9-1.1
		c0-1.8,0.9-2.9,2.9-3.7l3.6-1.5c0.4,0,0.8-0.1,1.1-0.1c3.4,0,5.3,2,5.3,5.4V28c0,0.8,0.3,1.2,1.3,1.2c0.6,0,1.4,0,2.4-0.1v1.6
		l-4.8,1.3C135.4,31.7,134.8,31.1,134.8,29.4z M126,4.1c3.7,0.2,7.3,0.2,11,0L136.6,7c-3.7-0.2-7.3-0.2-11,0L126,4.1z M129.1,28.9
		c1.4,0,3.2-0.6,5.7-2v-4.7l-3.8,0.7c-3.8,0.7-4.6,1.5-4.6,3.2C126.5,27.9,127.4,28.9,129.1,28.9z"/>
	<path class="st0" d="M147,27.3v-13h-4.1l0.2-1.3c2.4-1.1,4.6-3.4,5.5-5.9l1.2-0.2v4.7h6.6l-0.5,2.7h-6.1v11.8
		c0,2.3,0.8,3.2,3.1,3.2c0.9,0,2-0.1,3.7-0.4v1.6l-4.4,1.5C148.5,31.9,147,30.4,147,27.3z"/>
	<path class="st0" d="M159.7,39l0.1-1.1c4.2-0.2,6.6-2,8.7-6.1l-6.1-13.7c-1.3-3-2.3-4.2-4-5.1v-1.3h8.2v1.2
		c-2.6,0.7-2.7,1.5-1.4,4.6l4.7,10.6l3.9-10.6c1.1-3.1,1-4-1.5-4.6v-1.2h7.7V13c-1.9,0.9-3.4,2.6-4.5,5.5l-5.1,13.3
		c-2.4,6.3-4.1,8.2-7.2,9.2L159.7,39z"/>
	<path class="st0" d="M185.2,36V17.5c0-2.2-0.8-2.9-3.4-3.6v-1.2l6.2-1.5h0.3c-0.1,0.6-0.1,1.3-0.2,2c1.3-0.7,2.8-1.5,4-1.9
		c0.3,0,0.6,0,0.9,0c5.9,0,8.4,4,8.4,9.4c0,6.3-3.9,11.3-11,11.3c-0.8,0-1.6-0.1-2.4-0.2V36c0,2.1,0.3,2.4,3.1,3.1v1.3h-8.9v-1.3
		C184.9,38.4,185.2,38.1,185.2,36z M192,29.7c4.4,0,6.3-2.8,6.3-7.9c0-5.3-2.3-8-6-8c-1.4,0-3,0.5-4.3,1.3c0,0.7,0,1.6,0,2.5v11.3
		C189.2,29.5,190.6,29.7,192,29.7z"/>
	<path class="st0" d="M222.3,18.7c0,0.4,0,0.9,0,1.3H209c0,0.3,0,0.5,0,0.8c0,5.2,3.1,8.4,8.1,8.4c1.7,0,3.5-0.4,5-0.9V30l-5,1.9
		c-0.7,0.1-1.4,0.1-1.9,0.1c-5.1,0-9-3.4-9-9.7c0-5.8,3.2-11,9.2-11C219.9,11.3,222.3,14.5,222.3,18.7z M217.9,18
		c0.9,0,1.2-0.4,1.2-1.4c0-1.9-1.5-3.6-4-3.6c-2.7,0-5,2-5.8,5.2L217.9,18z"/>
	<path class="st0" d="M19.2,76.3v14.5c-0.4,0.3-1.9,0.6-2.7,0.5V76.8c-3.4,5.5-9.9,10.1-16,12L0,87.7c5.8-3,11.8-8.1,14.5-13h-1.8
		c-3.4,0-5.4,0-7.2,0.2l-0.4-1.8h11.4v-4.4h-5c-3.8,0-5.8,0-7.9,0.2L3.2,67h13.3v-4.4c1.1,0.1,2.8,0.6,4,1v0.6
		c-0.9,0.6-1.2,0.9-1.2,2.3v0.4h5.8c2.3,0,3-0.7,4.1-2c1.2,0.8,2.7,1.9,3.8,2.8l-0.4,0.9H19.2V73h4c2.3,0,2.9-0.6,4.1-1.9
		c1.1,0.7,2.6,1.8,3.7,2.7l-0.3,0.8H20.1c3.6,5,9.2,9.3,15.8,11.3l-0.1,0.8c-1.8,0.1-3.2,0.7-4,1.5C27.5,86.4,22.1,81.1,19.2,76.3z
		 M11.3,59.2v-4.8c1.1,0.1,2.8,0.6,4,1V56c-0.9,0.7-1.3,0.9-1.3,2.3v0.9h7.8v-4.8c1.1,0.1,2.8,0.6,4,1V56c-0.9,0.7-1.3,0.9-1.3,2.3
		v0.9h2.4c2.3,0,3-0.7,4.2-2c1.2,0.8,2.7,1.9,3.8,2.8l-0.4,0.9h-10v3.7c-0.4,0.3-1.9,0.6-2.7,0.5v-4.2H14v3.7
		c-0.4,0.3-1.9,0.6-2.7,0.5v-4.2H9.6c-3.8,0-5.8,0-7.9,0.2l-0.3-1.9H11.3z"/>
	<path class="st0" d="M55.3,77.2v13.6c-0.4,0.3-1.9,0.6-2.7,0.5V78c-2.3,4-6,7.6-10,9.7l-0.7-0.9c4.2-3.5,8.1-8.4,9.8-13.1H51
		c-3.1,0-4.7,0-6.3,0.2l-0.4-1.8h8.3v-4.3c-2.3,0.5-4.9,0.8-7.4,0.8l-0.1-1.1c5.1-0.7,10.3-2.3,13.5-4.5c0.7,0.6,1.9,1.9,2.6,2.8
		l-0.4,0.6c-1.2-0.3-1.8-0.4-3.1,0.1c-0.9,0.3-2,0.7-3.1,0.9c0.7,0.2,1.4,0.5,2,0.7v0.6c-0.9,0.6-1.3,0.8-1.3,2.3v1.1h0.3
		c2,0,2.7-0.6,3.8-1.7c1.1,0.7,2.5,1.8,3.5,2.6l-0.3,0.8h-7.3v1.7c2.5,1.4,5,3.2,5.9,4.6c0.7,1.1,0.8,2.6,0.3,3.2
		c-0.4,0.5-1.2,0.5-1.8-0.4C58.6,80.9,57,78.9,55.3,77.2z M53.3,59.1v-4.8c1.1,0.1,2.8,0.6,4,1v0.6c-0.9,0.7-1.3,0.9-1.3,2.3v0.9
		h7.6v-4.8c1.1,0.1,2.8,0.6,4,1v0.6c-0.9,0.7-1.3,0.9-1.3,2.3v0.9H69c2.3,0,3-0.7,4.2-2c1.2,0.8,2.7,1.9,3.8,2.8l-0.4,0.9H66.3v2.9
		c-0.4,0.3-1.9,0.6-2.7,0.5v-3.4H56v2.4c-0.4,0.3-1.9,0.6-2.7,0.5v-2.9h-1.6c-3.8,0-5.8,0-7.9,0.2l-0.4-1.9
		C43.4,59.1,53.3,59.1,53.3,59.1z M63.5,87.9H67c2.7,0,3.6-0.4,3.6-2.8V63.2c1.1,0.1,2.9,0.6,4.1,1v0.6c-0.9,0.6-1.3,0.9-1.3,2.3
		v18.7c0,2.8-1.2,4.6-3.1,5.4c-1.1-0.9-3.4-1.7-6.9-2.2L63.5,87.9z M64.3,66.8c1.1,0.1,2.7,0.6,3.9,1v0.6C67.3,69,67,69.3,67,70.9
		v11.5c-0.4,0.3-1.8,0.6-2.7,0.5V66.8z"/>
	<path class="st0" d="M100.8,75.2c-0.8-1.4-2-2.7-3.6-3.8l0.8-1.1c1.4,0.7,2.5,1.4,3.5,2.3l4.3-4.9h-6.9c-2.7,0-4.1,0-5.6,0.2
		L92.9,66h10.8c2.5,0,2.9-0.4,3.9-1.5c1,0.6,2.6,1.7,3.5,2.5l-0.2,0.8c-1.9,0.3-2.5,0.9-8.1,6.1c0.3,0.4,0.6,0.8,0.8,1.2h6.6
		c2.5,0,3.2-0.7,4.6-2.2c1.2,0.8,2.9,2,4,3l-0.4,0.9h-14c0.6,1.6,0.9,3.4,0.9,5.1c0,2.6-0.6,4.7-1.7,6.3c-1.1,1.5-2.7,2.7-3.9,3
		c-0.9-0.9-2.6-1.5-5.8-1.9l0.1-1.2h2.2c5.1,0,6.3-3.1,6.3-6.7c0-1.6-0.2-3.2-0.8-4.6h-7.9c-4,0-6.1,0-8.3,0.2l-0.4-1.9L100.8,75.2
		L100.8,75.2z M86.1,66c0-0.7,0.4-1.3,1.2-2.1c1.6-1.4,2.7-3.2,3.1-5.8h1.3c0.1,0.7,0.1,1.4,0.1,2.1h10.5c-1.1-1.7-2.9-3.6-4.9-5
		l0.6-1c2.2,0.5,4.9,1.9,5.8,3.1c0.7,1,0.9,2.2,0.5,3h5.9c2.3,0,3-0.5,4-1.8c1.1,0.6,2.7,1.8,3.7,2.6l-0.2,0.8
		c-1.6,0.3-2.1,0.9-5.7,4.8l-1.1-0.7l2-4H91.5c-0.6,3-2.2,5.5-4.2,5.5C86.5,67.5,86.1,66.7,86.1,66z"/>
	<path class="st0" d="M143.8,56.4c0.9,0.6,2.5,1.7,3.4,2.5l-0.2,0.8h-5.9c0.8,0.2,1.6,0.5,2.2,0.8V61c-0.8,0.6-1.1,0.8-1.1,2.3v3
		c1.1-0.1,1.6-0.7,2.3-1.5c1,0.6,2.4,1.6,3.3,2.4l-0.3,0.8h-5.4v6.9c1.1,0.2,2.5,0.6,3.5,1v0.6c-0.9,0.7-1.3,0.9-1.3,2.6v1.8h2.3
		c2.2,0,2.9-0.7,4.1-2c1.2,0.8,2.7,1.9,3.8,2.8l-0.3,0.8h-9.9V88h6.9c2.3,0,3-0.7,4.3-2.2c1.3,0.8,3,2,4.1,3l-0.4,0.9h-24.5
		c-3.8,0-5.8,0-7.9,0.2l-0.4-1.9h15v-5.5H139c-3.4,0-5.4,0-7.2,0.2l-0.4-1.8h10v-5.1c-0.6,0.2-1.4,0.3-2,0.3v-8h-3.7
		c-0.4,4.4-2.3,7.6-8.9,10.7l-0.7-1.1c4.9-3.1,6.5-5.9,6.9-9.6c-2.7,0-4.2,0.1-5.8,0.2l-0.4-1.7h6.3c0-0.4,0-0.7,0-1.1
		c0-3,0-4.5-0.1-5.6c-2,0-3.3,0.1-4.6,0.2l-0.4-1.7h11.6C142.2,58.1,142.7,57.6,143.8,56.4z M137.2,60.5V61
		c-0.8,0.6-1.1,0.9-1.1,2.3v2.4c0,0.2,0,0.4,0,0.5h3.6v-6.7h-4.8C135.7,59.9,136.5,60.2,137.2,60.5z M147.7,74.3h3.3
		c2.6,0,3.4-0.4,3.4-2.7V55.1c1.2,0.1,2.8,0.6,3.9,1v0.6c-0.9,0.7-1.3,1-1.3,2.7v12.9c0,2.7-1.2,4.4-2.9,5.2c-1.2-0.8-3.3-1.5-6.6-2
		L147.7,74.3z M148.6,58c1.1,0.1,2.7,0.5,3.7,1v0.6c-0.8,0.6-1.2,0.9-1.2,2.4v9.1c-0.4,0.3-1.7,0.5-2.5,0.5V58z"/>
</g>
</svg>
