<svg width="240" height="240" viewBox="0 0 240 240" fill="none" xmlns="http://www.w3.org/2000/svg">
<g clip-path="url(#clip0_405_356)">
<path d="M5.77651 100.303V78.1612C5.77651 75.9211 5.39279 75.5841 1.81488 74.8218V73.4373H10.1219C10.267 74.7285 10.5989 75.8693 11.2212 77.2538L21.0526 98.8768L30.1633 78.2545C31.0708 76.2478 31.4493 74.7233 31.6412 73.4321H40.4252V74.8166C36.8473 75.5789 36.4636 75.9159 36.4636 78.156V100.303C36.4636 102.548 36.8473 102.88 40.4252 103.642V105.027H29.2092V103.642C32.7871 102.88 33.1709 102.543 33.1709 100.303V76.5848L24.8172 95.5789C23.4379 98.7005 22.1779 101.864 21.0837 105.027H19.7044C18.5999 101.869 17.288 98.6331 15.8932 95.527L7.87659 77.8812V100.303C7.87659 102.548 8.2603 102.88 11.8382 103.642V105.027H1.81488V103.642C5.39279 102.88 5.77651 102.543 5.77651 100.303Z" fill="#241916"/>
<path d="M56.7539 102.693V101.899C54.519 103.294 51.3507 104.995 50.2151 105.27C46.5906 105.27 44.4905 103.077 44.4905 99.6386C44.4905 96.7296 46.0202 94.8681 51.413 93.9606L56.7591 93.0635V89.4753C56.7591 86.7996 55.2812 85.467 53.0826 85.467C50.884 85.467 49.2144 86.6596 49.2144 88.5212C49.2144 88.6663 49.2144 88.853 49.261 89.1434C48.4003 89.5271 47.4461 89.7656 46.8758 89.7656C46.1602 89.7656 45.875 89.3353 45.875 88.573C45.875 86.6181 46.8758 85.4255 49.0225 84.5647L52.8908 82.9884C53.3212 82.9417 53.6997 82.895 54.0834 82.895C57.708 82.895 59.7614 85.0884 59.7614 88.7649V101.22C59.7614 102.128 60.0466 102.506 61.1926 102.506C61.8148 102.506 62.7223 102.459 63.7697 102.361V104.077L58.6154 105.462C57.3761 105.177 56.7539 104.601 56.7539 102.693ZM50.5989 102.169C52.113 102.169 54.1042 101.511 56.7539 100.064V94.9925L52.6471 95.7755C48.5403 96.5377 47.7313 97.3519 47.7313 99.2134C47.7313 101.075 48.7321 102.174 50.5937 102.174L50.5989 102.169Z" fill="#241916"/>
<path d="M72.9842 70.9998H73.316C73.0775 72.9547 72.9842 74.9148 72.9842 77.9223V100.308C72.9842 102.553 73.3161 102.885 76.2769 103.647V105.031H68.4522V104.124C69.6448 103.025 69.9819 102.262 69.9819 101.07V77.8238C69.9819 75.4852 69.1211 74.7229 66.3054 73.9088L66.4973 72.571L72.9894 70.9946L72.9842 70.9998Z" fill="#241916"/>
<path d="M86.5388 70.9998H86.8706C86.6321 72.9547 86.5388 74.9148 86.5388 77.9223V100.308C86.5388 102.553 86.8706 102.885 89.8315 103.647V105.031H82.0067V104.124C83.1994 103.025 83.5364 102.262 83.5364 101.07V77.8238C83.5364 75.4852 82.6756 74.7229 79.86 73.9088L80.0518 72.571L86.5439 70.9946L86.5388 70.9998Z" fill="#241916"/>
<path d="M93.6064 84.648L100.099 83.0716H100.43C100.192 85.0265 100.099 86.9866 100.099 89.9941V100.303C100.099 102.548 100.43 102.88 103.391 103.642V105.026H95.5665V104.119C96.7591 103.02 97.091 102.257 97.091 101.065V89.8956C97.091 87.5569 96.2302 86.7947 93.4146 85.9806L93.6064 84.6428V84.648ZM96.085 75.6254C96.085 74.2876 97.231 73.1416 98.5688 73.1416C99.9066 73.1416 101.053 74.2876 101.053 75.6254C101.053 76.9632 99.9066 78.1092 98.5688 78.1092C97.231 78.1092 96.085 76.9632 96.085 75.6254Z" fill="#241916"/>
<path d="M130.594 103.647V105.031C129.354 105.125 128.686 105.177 127.923 105.177C125.299 105.177 123.391 104.176 120.43 100.261L115.701 94.0384L113.653 95.8793V100.302C113.653 102.548 113.985 102.88 116.946 103.642V105.026H109.121V104.119C110.314 103.02 110.651 102.257 110.651 101.065V77.8238C110.651 75.4852 109.79 74.7229 106.974 73.9088L107.166 72.571L113.658 70.9946H113.99C113.752 72.9495 113.658 74.9096 113.658 77.9171V93.4214L119.29 88.179C121.151 86.4159 121.25 85.27 119.528 84.9329V83.5484H128.789V84.9329C126.114 85.747 123.158 87.3182 120.721 89.5168L117.89 92.0628L122.769 98.1556C125.683 101.78 127.83 103.118 130.594 103.642V103.647Z" fill="#241916"/>
<path d="M145.538 102.693V101.899C143.303 103.294 140.135 104.995 138.999 105.27C135.375 105.27 133.275 103.077 133.275 99.6386C133.275 96.7296 134.799 94.8681 140.192 93.9606L145.538 93.0636V89.4753C145.538 86.7996 144.06 85.467 141.862 85.467C139.663 85.467 137.998 86.6596 137.998 88.5212C137.998 88.6664 137.998 88.853 138.045 89.1434C137.184 89.5271 136.23 89.7657 135.66 89.7657C134.944 89.7657 134.659 89.3353 134.659 88.573C134.659 86.6181 135.66 85.4255 137.807 84.5647L141.675 82.9884C142.105 82.9417 142.489 82.895 142.867 82.895C146.492 82.895 148.545 85.0885 148.545 88.7649V101.22C148.545 102.128 148.831 102.506 149.977 102.506C150.599 102.506 151.501 102.459 152.554 102.361V104.077L147.4 105.462C146.16 105.177 145.538 104.601 145.538 102.693ZM136.038 75.4385C140 75.677 143.91 75.677 147.877 75.4385L147.493 78.5912C143.531 78.3527 139.616 78.3527 135.655 78.5912L136.038 75.4385ZM139.378 102.164C140.892 102.164 142.883 101.505 145.533 100.059V94.9873L141.426 95.7703C137.319 96.5326 136.51 97.3467 136.51 99.2082C136.51 101.07 137.511 102.169 139.373 102.169L139.378 102.164Z" fill="#241916"/>
<path d="M158.714 100.495V86.4162H154.322L154.514 85.0317C157.091 83.8857 159.43 81.402 160.477 78.6381L161.716 78.4463V83.5539H168.826L168.302 86.4162H161.716V99.1619C161.716 101.692 162.525 102.646 165.102 102.646C166.057 102.646 167.296 102.501 169.064 102.169V103.886L164.34 105.462C160.285 105.462 158.709 103.839 158.709 100.5L158.714 100.495Z" fill="#241916"/>
<path d="M172.414 113.048L172.507 111.809C177.091 111.633 179.678 109.626 181.908 105.234L175.369 90.4295C173.938 87.1835 172.891 85.8456 171.076 84.9382V83.5537H179.907V84.8915C177.091 85.6071 176.946 86.5612 178.429 89.9006L183.5 101.324L187.737 89.9006C188.976 86.5146 188.836 85.6071 186.114 84.8915V83.5537H194.415V84.9382C192.362 85.939 190.791 87.7539 189.598 90.8547L184.107 105.172C181.483 111.949 179.668 114.002 176.375 115.05L172.414 113.043V113.048Z" fill="#241916"/>
<path d="M199.907 109.849V89.9009C199.907 87.5623 199.046 86.8001 196.23 85.986V84.6481L202.914 83.0718H203.246C203.163 83.7718 203.096 84.4718 203.044 85.2237C204.413 84.477 206.114 83.6577 207.353 83.1703C207.685 83.1236 208.022 83.1236 208.307 83.1236C214.654 83.1236 217.324 87.4171 217.324 93.287C217.324 100.111 213.078 105.504 205.486 105.504C204.584 105.504 203.739 105.416 202.909 105.26V109.849C202.909 112.089 203.241 112.426 206.202 113.188V114.573H196.609V113.188C199.57 112.426 199.901 112.089 199.901 109.849H199.907ZM207.306 103.072C212.03 103.072 214.083 100.018 214.083 94.5781C214.083 89.1387 211.553 85.8926 207.591 85.8926C206.057 85.8926 204.314 86.4786 202.945 87.329C202.925 88.1275 202.914 89.0038 202.914 89.9943V102.164C204.252 102.813 205.756 103.072 207.306 103.072Z" fill="#241916"/>
<path d="M240 91.1865C240 91.5702 240 92.1873 239.953 92.571H225.616C225.6 92.851 225.59 93.1362 225.59 93.4318C225.59 99.0631 228.929 102.454 234.322 102.454C236.137 102.454 238.092 102.071 239.761 101.5V103.362L234.415 105.369C233.7 105.462 232.938 105.514 232.315 105.514C226.829 105.514 222.577 101.837 222.577 95.0133C222.577 88.7131 226.015 83.1284 232.455 83.1284C237.371 83.1284 239.995 86.6597 239.995 91.1969L240 91.1865ZM235.178 90.3724C236.132 90.3257 236.464 89.8953 236.464 88.8946C236.464 86.8411 234.794 85.0263 232.118 85.0263C229.168 85.0263 226.741 87.1471 225.901 90.6213L235.172 90.3724H235.178Z" fill="#241916"/>
<path d="M20.7622 153.302V168.988C20.2852 169.32 18.7088 169.61 17.8014 169.559V153.894C14.0887 159.779 7.06767 164.772 0.523723 166.795L0 165.649C6.27431 162.382 12.7457 156.927 15.608 151.571H13.6998C9.97667 151.571 7.92326 151.617 5.9217 151.762L5.49131 149.807H17.8066V145.037H12.4138C8.35883 145.037 6.11356 145.084 3.92014 145.275L3.48976 143.222H17.8066V138.452C19.0459 138.597 20.8608 139.074 22.1001 139.551V140.22C21.0993 140.842 20.7622 141.174 20.7622 142.75V143.227H27.0158C29.4478 143.227 30.2152 142.512 31.4545 141.08C32.7457 141.889 34.4153 143.134 35.5613 144.088L35.1776 145.042H20.7622V149.813H25.1076C27.6381 149.813 28.2085 149.19 29.4996 147.759C30.6922 148.522 32.3153 149.714 33.4612 150.673L33.1294 151.581H21.7112C25.6313 157.015 31.6567 161.62 38.714 163.751L38.6207 164.658C36.6658 164.804 35.1828 165.421 34.2753 166.281C29.6967 164.223 23.8579 158.576 20.7674 153.313L20.7622 153.302ZM12.2219 134.868V129.667C13.4612 129.813 15.2295 130.29 16.5154 130.767V131.389C15.5146 132.105 15.1309 132.39 15.1309 133.873V134.874H23.5312V129.673C24.7705 129.818 26.5388 130.295 27.8247 130.772V131.394C26.824 132.11 26.4402 132.395 26.4402 133.878V134.879H29.0174C31.5478 134.879 32.2634 134.163 33.5494 132.732C34.8354 133.546 36.5102 134.785 37.6562 135.74L37.2725 136.694H26.4402V140.702C25.9632 141.034 24.4335 141.324 23.5312 141.272V136.694H15.1309V140.702C14.6539 141.034 13.1242 141.324 12.2219 141.272V136.694H10.4071C6.35209 136.694 4.10682 136.74 1.9134 136.932L1.48302 134.879H12.2219V134.868Z" fill="#241916"/>
<path d="M59.7096 154.319V168.988C59.2326 169.32 57.7029 169.61 56.8006 169.558V155.252C54.3324 159.571 50.376 163.481 46.0151 165.695L45.2528 164.695C49.8004 160.94 53.985 155.672 55.7947 150.518H55.0843C51.7916 150.518 50.0234 150.564 48.2603 150.71L47.8299 148.801H56.8006V144.166C54.2702 144.653 51.4753 144.98 48.8307 145.032L48.6855 143.792C54.2235 143.03 59.7563 141.308 63.2409 138.97C64.0031 139.639 65.341 141.07 66.0099 141.977L65.6262 142.6C64.2883 142.314 63.7179 142.169 62.2868 142.693C61.3067 143.056 60.1608 143.398 58.9059 143.709C59.6733 143.937 60.4408 144.217 61.0941 144.508V145.13C60.0934 145.752 59.7096 146.038 59.7096 147.661V148.807H59.9948C62.1416 148.807 62.9038 148.184 64.0498 146.945C65.2424 147.707 66.7721 148.853 67.8196 149.714L67.5344 150.528H59.7096V152.405C62.4579 153.904 65.1128 155.864 66.0565 157.399C66.8188 158.638 66.8655 160.214 66.3417 160.883C65.9114 161.454 65.0039 161.454 64.4335 160.453C63.215 158.327 61.5401 156.108 59.7096 154.324V154.319ZM57.5629 134.816V129.662C58.8022 129.807 60.5704 130.284 61.8564 130.761V131.384C60.8556 132.099 60.4719 132.384 60.4719 133.867V134.822H68.6803V129.667C69.9196 129.812 71.6879 130.29 72.9738 130.767V131.389C71.9731 132.104 71.5893 132.39 71.5893 133.873V134.827H74.4517C76.9355 134.827 77.6977 134.111 78.9837 132.68C80.2697 133.489 81.9445 134.733 83.0905 135.688L82.7068 136.642H71.5842V139.742C71.1071 140.074 69.5774 140.365 68.6752 140.313V136.636H60.4667V139.214C59.9897 139.545 58.46 139.836 57.5577 139.784V136.631H55.8414C51.7864 136.631 49.5411 136.678 47.3477 136.87L46.9173 134.816H57.5577H57.5629ZM68.5403 165.84H72.3101C75.271 165.84 76.2251 165.457 76.2251 162.786V139.162C77.4644 139.307 79.3259 139.784 80.6638 140.261V140.93C79.663 141.599 79.2326 141.931 79.2326 143.46V163.694C79.2326 166.748 77.9466 168.656 75.9399 169.564C74.7939 168.563 72.2634 167.702 68.447 167.178L68.5403 165.84ZM69.4478 143.123C70.6871 143.263 72.4086 143.746 73.6479 144.223V144.845C72.6938 145.514 72.3101 145.799 72.3101 147.515V159.971C71.8331 160.303 70.3552 160.593 69.4478 160.541V143.123Z" fill="#241916"/>
<path d="M108.784 152.141C107.877 150.622 106.585 149.268 104.869 148.086L105.73 146.893C107.213 147.609 108.447 148.454 109.463 149.393L114.083 144.124H106.684C103.822 144.124 102.245 144.171 100.622 144.316L100.192 142.31H111.838C114.514 142.31 114.991 141.879 116.038 140.733C117.138 141.355 118.854 142.595 119.808 143.455L119.57 144.316C117.558 144.69 116.92 145.25 110.817 150.855C111.149 151.275 111.444 151.705 111.709 152.146H118.854C121.576 152.146 122.339 151.384 123.77 149.808C125.108 150.668 126.871 152.006 128.115 153.054L127.737 154.008H112.626C113.321 155.771 113.606 157.653 113.606 159.546C113.606 162.315 112.984 164.607 111.791 166.323C110.646 167.946 108.831 169.185 107.591 169.569C106.591 168.568 104.822 167.899 101.291 167.469L101.384 166.131H103.723C109.214 166.131 110.5 162.838 110.5 158.923C110.5 157.15 110.241 155.511 109.681 154.008H101.146C96.8524 154.008 94.5086 154.054 92.2219 154.246L91.7915 152.146H108.784V152.141ZM92.9375 142.211C92.9375 141.495 93.3679 140.78 94.2753 139.971C95.9917 138.446 97.1376 136.533 97.6613 133.671L99.0458 133.717C99.1444 134.454 99.1703 135.211 99.134 135.957H110.448C109.303 134.096 107.348 132.042 105.149 130.565L105.771 129.465C108.157 130.036 111.071 131.519 112.025 132.758C112.818 133.79 112.953 135.185 112.616 135.957H119.041C121.571 135.957 122.24 135.387 123.386 134.003C124.532 134.671 126.347 135.957 127.348 136.818L127.109 137.679C125.346 138.011 124.817 138.633 120.954 142.833L119.808 142.118L122.002 137.824H98.9214C98.3199 141.075 96.5828 143.793 94.4153 143.793C93.3627 143.793 92.9375 142.978 92.9375 142.216V142.211Z" fill="#241916"/>
<path d="M155.271 131.861C156.272 132.483 157.993 133.722 158.994 134.583L158.755 135.397H152.357C153.186 135.641 154.042 135.963 154.747 136.305V136.875C153.886 137.497 153.555 137.783 153.555 139.359V142.558C154.758 142.398 155.286 141.843 156.085 140.889C157.138 141.511 158.662 142.605 159.663 143.466L159.378 144.275H153.555V151.711C154.773 151.913 156.272 152.322 157.324 152.768V153.391C156.318 154.106 155.94 154.391 155.94 156.206V158.115H158.47C160.856 158.115 161.571 157.352 162.862 155.916C164.148 156.73 165.823 157.969 167.016 158.97L166.684 159.878H155.945V165.794H163.438C165.968 165.794 166.637 165.032 168.115 163.409C169.5 164.27 171.314 165.607 172.507 166.655L172.123 167.609H145.636C141.582 167.609 139.336 167.656 137.143 167.847L136.712 165.794H152.937V159.878H150.36C146.637 159.878 144.584 159.924 142.582 160.069L142.152 158.115H152.937V152.608C152.294 152.81 151.387 152.945 150.744 152.908V144.27H146.793C146.383 149.009 144.356 152.504 137.143 155.817L136.427 154.671C141.69 151.28 143.417 148.273 143.873 144.27C140.97 144.27 139.3 144.321 137.667 144.461L137.236 142.6H143.993C144.008 142.211 144.013 141.817 144.013 141.407C144.013 138.13 143.977 136.523 143.863 135.397C141.701 135.413 140.285 135.465 138.906 135.584L138.475 133.722H150.977C153.555 133.722 154.078 133.152 155.276 131.861H155.271ZM148.063 136.3V136.87C147.202 137.539 146.871 137.824 146.871 139.4V142.024C146.871 142.216 146.871 142.408 146.871 142.595H150.739V135.387H145.585C146.471 135.631 147.358 135.952 148.063 136.294V136.3ZM159.419 151.14H162.997C165.813 151.14 166.674 150.71 166.674 148.179V130.378C167.96 130.523 169.728 131 170.92 131.477V132.099C169.966 132.815 169.536 133.152 169.536 134.962V148.848C169.536 151.711 168.245 153.572 166.435 154.48C165.196 153.619 162.857 152.81 159.326 152.333L159.419 151.14ZM160.373 133.577C161.566 133.722 163.236 134.148 164.382 134.63V135.252C163.474 135.921 163.09 136.206 163.09 137.876V147.707C162.613 147.993 161.229 148.283 160.373 148.231V133.577Z" fill="#241916"/>
</g>
<defs>
<clipPath id="clip0_405_356">
<rect width="240" height="98.5688" fill="white" transform="translate(0 71)"/>
</clipPath>
</defs>
</svg>
