<svg width="240" height="240" viewBox="0 0 240 240" fill="none" xmlns="http://www.w3.org/2000/svg">
<g clip-path="url(#clip0_405_335)">
<path d="M154.143 43.5725H166.136L166.489 42.6132C165.285 41.6049 163.578 40.3459 162.326 39.5393C160.972 41.049 160.37 41.7085 157.715 41.7085H153.152V36.667H168.288L168.689 35.6587C167.486 34.6504 165.73 33.3424 164.375 32.4812C163.069 33.9964 162.272 34.7485 159.714 34.7485H153.146V34.2471C153.146 32.5848 153.498 32.2305 154.55 31.5765V30.8679C153.244 30.3665 151.341 29.8596 150.035 29.707V34.7485H134.997L135.447 36.9177C137.75 36.7161 140.107 36.667 144.367 36.667H150.03V41.7085H137.099L137.549 43.7741C139.657 43.6215 141.809 43.5725 145.722 43.5725H147.727C144.724 49.2299 137.923 54.9908 131.333 58.4462L131.886 59.6562C138.758 57.5251 146.133 52.2493 150.03 46.0305V62.5775C150.984 62.6266 152.637 62.3268 153.141 61.9726V45.4038C156.387 50.963 162.516 56.9256 167.329 59.1003C168.282 58.1955 169.832 57.536 171.892 57.3889L171.989 56.4296C164.575 54.1787 158.251 49.3116 154.132 43.5725H154.143Z" fill="#241916"/>
<path d="M142.275 27.843H144.177V32.6828C145.131 32.7319 146.735 32.4321 147.234 32.0779V27.843H156.056V32.6828C157.01 32.7319 158.614 32.4321 159.113 32.0779V27.843H170.493L170.894 26.8347C169.691 25.8264 167.935 24.5184 166.586 23.6572C165.231 25.1669 164.478 25.9245 161.822 25.9245H159.118V24.8672C159.118 23.3029 159.519 23.0032 160.571 22.2456V21.5916C159.216 21.0901 157.362 20.5833 156.062 20.4307V25.9245H147.239V24.8672C147.239 23.3029 147.64 23.0032 148.691 22.2456V21.5916C147.337 21.0901 145.483 20.5833 144.177 20.4307V25.9245H132.899L133.349 28.0937C135.652 27.8921 138.01 27.843 142.269 27.843H142.275Z" fill="#241916"/>
<path d="M159.568 92.7012C159.568 90.8862 159.969 90.5865 160.972 89.8779V89.2239C159.666 88.7225 157.866 88.2156 156.56 88.063V106.463C157.514 106.512 159.064 106.212 159.568 105.858V92.7012Z" fill="#241916"/>
<path d="M155.509 113.472C159.519 114.028 162.175 114.933 163.378 115.99C165.48 115.031 166.835 113.014 166.835 109.787V88.4116C166.835 86.7983 167.285 86.444 168.342 85.7409V85.0379C166.938 84.5364 164.982 84.0296 163.681 83.877V108.834C163.681 111.657 162.679 112.06 159.573 112.06H155.612L155.514 113.472H155.509Z" fill="#241916"/>
<path d="M148.588 75.6582V75.0042C147.234 74.5027 145.38 73.9959 144.074 73.8433V79.2881H132.894L133.344 81.4573C135.647 81.2556 138.004 81.2066 142.264 81.2066H144.069V84.5312C145.023 84.5803 146.627 84.2805 147.125 83.9262V81.2066H155.747V85.0871C156.701 85.1362 158.305 84.8364 158.804 84.4822V81.2066H170.483L170.884 80.1983C169.681 79.19 167.925 77.8819 166.575 77.0208C165.22 78.5359 164.418 79.2881 161.812 79.2881H158.804V78.2798C158.804 76.7155 159.205 76.4158 160.256 75.6582V75.0042C158.901 74.5027 157.048 73.9959 155.742 73.8433V79.2881H147.12V78.2798C147.12 76.7155 147.521 76.4158 148.572 75.6582H148.588Z" fill="#241916"/>
<path d="M143.278 100.876V115.99C144.231 116.039 145.835 115.739 146.334 115.385V99.8844C148.258 101.77 150.014 104.114 151.298 106.359C151.9 107.417 152.853 107.417 153.303 106.812C153.856 106.109 153.802 104.441 153.005 103.133C152.008 101.514 149.223 99.4429 146.339 97.8569V95.873H154.561L154.859 95.0173C153.759 94.1071 152.154 92.8971 150.897 92.0905C149.694 93.404 148.892 94.058 146.637 94.058H146.334V92.8481C146.334 91.1312 146.735 90.8315 147.786 90.1774V89.5234C147.098 89.2128 146.291 88.9184 145.483 88.6786C146.8 88.3571 148.009 87.9919 149.038 87.6104C150.545 87.0545 151.141 87.2071 152.545 87.5068L152.946 86.8528C152.247 85.8935 150.843 84.3838 150.035 83.6753C146.377 86.1443 140.562 87.9592 134.747 88.7658L134.899 90.0793C137.679 90.0248 140.611 89.6815 143.272 89.1637V94.0635H133.848L134.298 96.0801C136.151 95.9275 138.004 95.8784 141.467 95.8784H142.21C140.313 101.323 135.918 106.888 131.138 110.85L131.94 111.908C136.52 109.569 140.682 105.438 143.267 100.876H143.278Z" fill="#241916"/>
<path d="M163.427 141.17C167.486 136.733 168.038 136.079 169.892 135.725L170.141 134.815C169.09 133.905 167.182 132.548 165.979 131.839C164.776 133.3 164.077 133.905 161.416 133.905H154.669C155.021 133.093 154.88 131.616 154.046 130.526C153.043 129.212 149.987 127.653 147.477 127.048L146.827 128.209C149.13 129.773 151.19 131.937 152.393 133.905H140.508C140.546 133.114 140.514 132.313 140.411 131.534L138.958 131.485C138.405 134.51 137.202 136.526 135.398 138.14C134.444 138.995 133.994 139.753 133.994 140.51C133.994 141.317 134.444 142.173 135.549 142.173C137.826 142.173 139.647 139.306 140.281 135.872H164.521L162.218 140.412L163.421 141.17H163.427Z" fill="#241916"/>
<path d="M161.221 151.002H153.715C153.439 150.533 153.124 150.081 152.778 149.64C159.189 143.721 159.855 143.132 161.969 142.734L162.218 141.824C161.216 140.914 159.411 139.606 158.257 138.952C157.151 140.162 156.652 140.614 153.845 140.614H141.614L142.064 142.729C143.771 142.576 145.424 142.527 148.431 142.527H156.203L151.352 148.092C150.285 147.1 148.989 146.211 147.429 145.454L146.524 146.713C148.334 147.961 149.683 149.389 150.637 150.997H132.786L133.235 153.215C135.642 153.013 138.097 152.964 142.611 152.964H151.574C152.165 154.55 152.436 156.283 152.436 158.158C152.436 162.29 151.081 165.772 145.321 165.772H142.866L142.763 167.184C146.469 167.636 148.328 168.345 149.38 169.402C150.686 168.999 152.588 167.691 153.791 165.974C155.043 164.159 155.699 161.739 155.699 158.818C155.699 156.823 155.395 154.834 154.669 152.97H170.537L170.938 151.961C169.632 150.855 167.778 149.443 166.375 148.533C164.868 150.196 164.072 151.002 161.21 151.002H161.221Z" fill="#241916"/>
<path d="M156.81 204.617C160.522 205.118 162.977 205.979 164.277 206.884C166.18 205.925 167.534 203.957 167.534 200.932V186.26C167.534 184.347 167.984 183.993 168.987 183.235V182.581C167.735 182.074 165.882 181.573 164.527 181.42V200.224C164.527 202.894 163.622 203.352 160.668 203.352H156.907L156.804 204.611L156.81 204.617Z" fill="#241916"/>
<path d="M161.123 218.831H153.254V212.579H164.532L164.884 211.62C163.633 210.563 161.877 209.249 160.522 208.393C159.167 209.903 158.414 210.71 155.91 210.71H153.254V208.693C153.254 206.78 153.656 206.475 154.707 205.717V205.063C153.601 204.595 152.024 204.159 150.745 203.946V196.092H156.864L157.162 195.237C156.11 194.326 154.506 193.171 153.401 192.511C152.566 193.52 152.008 194.108 150.745 194.277V190.898C150.745 189.236 151.098 188.931 151.997 188.277V187.672C151.255 187.312 150.355 186.974 149.488 186.712H156.208L156.457 185.857C155.406 184.946 153.601 183.638 152.55 182.984C151.298 184.347 150.745 184.952 148.041 184.952H134.91L135.36 186.919C136.812 186.8 138.297 186.74 140.568 186.723C140.682 187.906 140.725 189.606 140.725 193.067C140.725 193.498 140.72 193.918 140.703 194.326H133.609L134.059 196.294C135.772 196.152 137.533 196.098 140.579 196.092C140.096 200.322 138.281 203.499 132.759 207.08L133.512 208.29C141.088 204.785 143.218 201.096 143.646 196.092H147.797V205.216C148.475 205.254 149.428 205.107 150.1 204.9V210.715H138.774L139.224 212.781C141.327 212.628 143.483 212.579 147.396 212.579H150.106V218.831H133.062L133.512 221C135.815 220.798 138.172 220.749 142.432 220.749H170.255L170.656 219.741C169.404 218.629 167.497 217.223 166.044 216.313C164.489 218.03 163.79 218.831 161.129 218.831H161.123ZM147.792 194.332H143.727C143.727 194.13 143.727 193.928 143.727 193.727V190.953C143.727 189.29 144.08 188.985 144.979 188.282V187.677C144.237 187.317 143.305 186.979 142.372 186.718H147.786V194.332H147.792Z" fill="#241916"/>
<path d="M160.771 189.339C160.771 187.574 161.172 187.274 162.126 186.565V185.911C160.923 185.41 159.167 184.952 157.915 184.799V200.278C158.82 200.327 160.273 200.027 160.771 199.722V189.339Z" fill="#241916"/>
<path d="M97.6899 64.9265H97.6845C96.644 64.9265 95.4789 64.9701 94.3625 65.0682V64.7575C95.0995 64.6049 95.804 64.2506 96.3676 63.7438C96.6982 62.4629 96.8716 61.0622 96.8716 59.7378C96.8716 58.4134 96.6928 57.0127 96.3676 55.7319C95.804 55.225 95.0995 54.8707 94.3625 54.7181V54.462C95.0995 54.3039 95.804 53.9442 96.3676 53.4319C96.6928 52.6089 96.8662 51.6878 96.8608 50.7994C96.8608 49.911 96.6765 48.9954 96.3514 48.1778C95.7823 47.6709 95.0832 47.3221 94.3408 47.1804V46.9243C95.0778 46.7608 95.7769 46.3956 96.3405 45.8833C96.6549 44.2645 96.8228 42.4987 96.812 40.8472C96.8012 39.1958 96.6115 37.4408 96.2701 35.8275C95.701 35.3316 94.9965 34.9882 94.2541 34.8519V34.5958C94.9911 34.4268 95.6902 34.0562 96.2484 33.533C96.5681 32.6936 96.7307 31.7617 96.7199 30.8678C96.709 29.974 96.5248 29.0529 96.1888 28.2299C95.6198 27.7339 94.9098 27.396 94.1728 27.2652V27.009C96.2213 26.5076 98.3674 26.0389 100.302 25.6683C101.885 25.3631 103.592 25.0578 105.179 24.8071C105.207 26.6275 105.228 28.5787 105.25 30.3882C105.272 32.3939 106.339 33.5439 108.296 33.6801C110.024 32.9553 111.759 32.2249 113.487 31.4946L113.227 30.5299C112.436 30.737 111.58 30.8242 110.772 30.7697C109.791 30.7043 109.26 30.1266 109.249 29.1237C109.222 27.0363 109.195 24.7799 109.163 22.6761C106.589 23.2538 103.727 23.8043 100.996 24.2512C100.026 23.0467 99.3591 21.5588 99.0936 20L98.091 20.0763C96.8933 23.3628 92.8884 25.7119 86.6562 26.791C84.1524 27.227 81.6541 27.6576 79.1504 28.0882L79.1612 29.0965C83.3233 29.2218 87.4853 29.3472 91.6474 29.478C92.2706 29.4998 92.6337 29.8377 92.6771 30.4427C92.7041 30.8242 92.7258 31.233 92.7258 31.6036C92.7367 32.7536 92.6337 33.9963 92.4223 35.1572C88.0327 35.8875 83.6376 36.6178 79.2479 37.3373L79.2588 38.3456C83.4262 38.5036 87.5937 38.6671 91.7666 38.8306C92.3952 38.8579 92.7475 39.2013 92.78 39.8171C92.8017 40.2041 92.8125 40.6183 92.818 40.9944C92.8288 42.4006 92.7096 43.9212 92.482 45.3437C88.0977 46.0359 83.708 46.7226 79.3238 47.4039V48.4122C83.4967 48.6084 87.6696 48.8046 91.8425 49.0063C92.4711 49.039 92.8234 49.3823 92.8505 50.0037C92.8613 50.3089 92.8721 50.6304 92.8721 50.9248C92.8721 52.2165 92.7583 53.6172 92.5416 54.9252C86.5044 55.6174 80.1313 56.9854 74.338 58.8276V59.8305C75.8175 60.1302 77.2211 60.8388 78.3483 61.8416C82.3695 59.5471 87.0084 57.9011 91.5932 57.138C92.2543 57.029 92.65 57.3288 92.7258 57.9937C92.8288 58.9421 92.8884 59.9395 92.8884 60.8497C92.8884 62.2885 92.7529 63.8419 92.5036 65.2862C87.6804 65.9184 82.196 67.4499 76.8309 69.6736V70.6765C78.3104 70.9272 79.7086 71.5867 80.8358 72.5514C84.0874 70.1097 87.8159 68.3928 91.4902 67.6516C92.0701 68.2784 92.3844 69.0632 92.379 69.8916C92.3682 72.3225 89.9565 73.6033 85.491 73.5488C85.1225 73.5488 84.7215 73.5324 84.3421 73.5106C83.2095 74.5571 81.8004 75.3037 80.321 75.6526V76.6609C90.7532 76.3611 96.3785 73.6905 96.3947 69.036C96.3947 68.4037 96.2809 67.7606 96.0533 67.1938H96.1021C102.491 67.2319 105.922 69.363 105.9 73.2817C105.884 76.1649 103.342 77.909 98.6437 78.2687C91.9129 78.7865 85.1388 79.4677 79.2804 80.2035L79.2696 81.2118C83.4262 81.5225 87.5829 81.8386 91.7395 82.1547C92.3519 82.2038 92.7042 82.5471 92.7475 83.1412C92.7692 83.4846 92.78 83.8443 92.78 84.1768C92.7692 85.3813 92.5795 86.6512 92.2435 87.8012C91.4685 90.4282 89.6585 91.8017 87.0626 91.7308L77.6438 91.4747C73.6389 91.3657 72.089 92.3194 69.8779 96.2545C69.6015 96.7451 69.3251 97.2356 69.0487 97.7261L69.0325 98.7235C71.081 98.3147 73.0048 98.3801 74.5168 98.9088C74.6577 98.4128 74.7986 97.9169 74.945 97.4209C75.85 94.2379 76.8797 93.464 80.0879 93.5567L89.4254 93.8292C92.5253 93.9218 94.861 92.1995 96.1021 88.9185C96.5302 87.7794 96.7687 86.5095 96.7849 85.2886C96.7958 83.9315 96.6332 82.6507 96.3189 81.6315C95.7607 81.1137 95.0616 80.7431 94.3245 80.5741V80.318C104.437 80.0509 109.894 77.1786 109.921 72.1153C109.943 67.4826 105.673 64.9701 97.7279 64.9428L97.6899 64.9265Z" fill="#241916"/>
<path d="M105.342 42.0901C105.353 43.9105 105.364 45.8617 105.375 47.6711C102.616 47.3387 99.706 46.9081 97.056 46.4339C96.9964 46.8918 96.9259 47.415 96.8555 47.9273C100.974 48.2979 105.364 48.8975 109.396 49.6441C109.39 47.5567 109.374 45.3003 109.363 43.1965C109.358 42.1882 109.878 41.5941 110.854 41.4906C111.656 41.4034 112.517 41.4579 113.309 41.6323L113.552 40.6567C111.807 39.9917 110.068 39.3323 108.323 38.6782C106.372 38.8908 105.326 40.0844 105.342 42.0846V42.0901Z" fill="#241916"/>
<path d="M99.0556 109.019C96.3839 108.872 94.8069 107.444 94.5576 104.953L93.555 104.986C93.3762 107.569 91.875 109.177 89.2683 109.575C82.337 110.638 78.6301 113.085 78.6681 116.568C78.7114 120.421 81.4861 122.438 86.5966 122.339C92.8884 122.22 96.2538 119.767 96.205 115.341C96.1888 114.001 96.0696 112.545 95.8636 111.183C102.253 111.619 105.721 114.104 105.765 118.284C105.803 122.165 102.79 124.476 97.1426 124.879C93.1702 125.163 89.0569 125.811 85.388 126.727C81.6541 127.659 77.763 128.863 74.2676 130.177V131.18C75.7525 131.398 77.1615 132.025 78.2941 132.967C81.5782 130.902 85.3664 129.207 89.1111 128.117C89.7994 127.915 90.5743 127.724 91.3222 127.561C91.9942 127.414 92.3952 127.708 92.4711 128.395C92.7042 130.515 92.8342 132.777 92.8396 134.859C92.8505 137.148 92.715 139.628 92.4549 141.944C89.5013 142.309 86.3473 142.909 83.4371 143.672C83.3124 142.713 83.2474 141.693 83.2474 140.756C83.2474 139.072 83.242 137.251 83.2311 135.562C80.9713 136.303 78.7168 137.039 76.457 137.769L76.5491 138.772C78.1803 138.761 79.1341 139.639 79.2804 141.274C79.378 142.391 79.4864 143.623 79.5893 144.8L79.7628 146.817C83.4804 145.607 87.6316 144.658 91.6311 144.113C92.2923 144.021 92.6825 144.326 92.7583 144.974C92.8288 145.59 92.8613 146.244 92.8613 146.838C92.8613 147.917 92.7421 149.078 92.5253 150.163C86.4827 151.073 80.0988 152.659 74.2946 154.703V155.706C75.7741 155.957 77.1723 156.616 78.2995 157.581C82.3315 155.15 86.9759 153.341 91.5661 152.409C92.2381 152.272 92.6391 152.567 92.7096 153.253C92.8017 154.169 92.8505 155.139 92.8505 156.017C92.8451 157.423 92.7096 158.943 92.4657 160.36C86.4286 161.216 80.05 162.742 74.2459 164.732L74.235 165.734C75.7145 166.001 77.1127 166.672 78.2291 167.647C82.2611 165.26 86.9 163.494 91.4848 162.6C92.1568 162.47 92.5578 162.769 92.6229 163.456C92.7312 164.623 92.7854 165.86 92.7746 166.982C92.7583 168.901 92.5632 170.95 92.2164 172.836C91.7287 175.474 90.0649 176.853 87.4582 176.777L77.5733 176.493C73.5685 176.379 72.0185 177.333 69.8074 181.268C69.5473 181.731 69.2872 182.194 69.0216 182.657L69.0054 183.655C71.0485 183.251 72.9615 183.317 74.4681 183.846C74.609 183.35 74.7499 182.854 74.8691 182.434C75.7795 179.246 76.8038 178.477 80.0121 178.575L90.3305 178.891C93.5929 178.995 95.6469 177.262 96.2105 173.953C96.5573 171.899 96.7578 169.664 96.7741 167.571C96.7903 165.478 96.6332 163.238 96.3243 161.167C95.7607 160.649 95.0616 160.279 94.3245 160.115V159.859C95.067 159.717 95.7715 159.368 96.3351 158.862C96.6711 157.597 96.8499 156.213 96.8554 154.899C96.8554 153.591 96.6874 152.201 96.3676 150.931C95.804 150.419 95.1049 150.054 94.3625 149.901V149.645C95.0995 149.493 95.804 149.138 96.3676 148.631C96.6928 147.705 96.8716 146.675 96.8716 145.688C96.8716 144.702 96.6982 143.672 96.3676 142.745C95.804 142.238 95.0995 141.879 94.3625 141.726V141.47C95.0995 141.312 95.804 140.952 96.3676 140.44C96.6928 138.499 96.8608 136.396 96.8499 134.423C96.8391 132.455 96.6549 130.351 96.3189 128.416C95.7715 127.828 95.067 127.392 94.3029 127.168V127.016C94.8069 126.95 95.3434 126.885 95.8419 126.836C104.946 125.986 109.818 122.525 109.759 116.949C109.705 112.164 105.96 109.379 99.0556 109.003V109.019ZM87.7509 119.631C84.4776 119.702 82.7 118.181 82.6675 115.276C82.6404 112.976 85.5831 111.548 91.0784 111.194C91.7666 111.15 92.146 111.488 92.1568 112.169C92.1731 113.259 92.1839 114.409 92.1947 115.445C92.2272 118.099 90.6719 119.565 87.7509 119.625V119.631Z" fill="#241916"/>
</g>
<defs>
<clipPath id="clip0_405_335">
<rect width="103" height="201" fill="white" transform="translate(69 20)"/>
</clipPath>
</defs>
</svg>
