<?xml version="1.0" encoding="UTF-8"?>
<svg id="Layer_1" data-name="Layer 1" xmlns="http://www.w3.org/2000/svg" viewBox="0 0 240 240">
  <defs>
    <style>
      .cls-1 {
        fill: #231815;
      }
    </style>
  </defs>
  <g>
    <path class="cls-1" d="m26.17,76.83h6.58c1.75,0,2.33-.58,3.08-1.67,1.25.25,3.17,1,4.5,1.58v.58c-.75.58-1,.92-1,2.42v10.5c-.58.33-2.42.58-3.5.58v-1.17h-9.67v1.17c-.5.33-2.42.58-3.5.58v-15.5c1,.08,2.42.58,3.5.92Zm9.67,11.08v-9.33h-9.67v9.33h9.67Zm14.25,6.17v.58c-.83.58-1.08.83-1.08,2v3.33c.42.33.83.67,1.17,1l-.25.83-16.42.08v4.5c0,.25.25.42.58.42h10.08c2.08,0,2.83-.67,4-1.83,1.17.83,2.67,1.92,3.75,2.83l-.25.83h-17.5c-2.58,0-4.08-.5-4.08-2.08v-6.75c.58.08,1.33.17,2.08.33h11.5c1,0,1.58-.17,2.08-.5v-3.92h-9.75c-2.83,0-4.17.08-5.92.25l-.5-2.08h13.67c1.25,0,1.58-.42,2.33-1.33,1.25.25,3.25.92,4.5,1.5Zm.33-21.67v.58c-1,.58-1.33.92-1.33,2.5v7.08h.67c1.5,0,2.17-.83,3.42-2.25,1.33.92,3,2.25,4.17,3.17l-.25.83h-7.92v6.5c-.5.42-2.42.75-3.5.67v-20.42c1.33.17,3.42.75,4.75,1.33Z"/>
    <path class="cls-1" d="m89.25,71.58c1.42.17,3.5.75,4.83,1.33v.58c-1,.58-1.33.92-1.33,2.5v32.92c-.5.42-2.42.75-3.5.67v-13c-6.75,2.5-14.17,3.83-18.92,3.92-3.17.08-4.58-.58-4.58-3.5v-9.5c.67.08,1.67.25,2.5.5h10.58v-6.83h-7.83c-2.42,0-3.5.08-5.08.25l-.42-2.08h10.33c1.67,0,2.25-.58,3.08-1.67,1.25.25,3.17.92,4.33,1.58v.58c-.67.58-1,.92-1,2.42v7.83c-.58.33-2.42.58-3.42.58v-.92h-9.58v7.75c0,.5.17.83,1.25.75,4.67-.17,12.25-1.33,18.75-3.5v-23.17h0Z"/>
    <path class="cls-1" d="m119.58,78.33c1.17.25,3.08.92,4.33,1.58v.58c-.67.58-.92,1.17-1.08,1.75-2.08,8.75-11.5,17.33-17.75,20l-.83-1.17c4.17-2.58,8.92-6.75,12-12.08-3.58.83-7.17,1.5-9.83,2.42-.75-.67-2-2.25-2.5-3l.42-.58c1.33.25,1.92.33,3.25.42,2,0,6.08-.42,9.67-1.08.83-1.67,1.5-3.5,1.92-5.42h-8.25c-2.42,0-3.5.08-5.08.25l-.42-2.08h10.67c2,0,2.58-.5,3.5-1.58Zm14.08-5.42v.58c-1,.58-1.33.92-1.33,2.5v14.42h1.17c1.5,0,2.17-.83,3.42-2.25,1.33.92,3,2.25,4.17,3.17l-.25.83h-8.42v16.75c-.5.42-2.42.75-3.5.67v-38c1.33.17,3.42.75,4.75,1.33Z"/>
    <path class="cls-1" d="m176,72.92v.58c-1,.58-1.33.92-1.33,2.5v14.08h1.17c1.5,0,2.17-.83,3.42-2.25,1.33.92,3,2.25,4.17,3.17l-.25.83h-8.58v17c-.5.42-2.42.75-3.5.67v-13.25c-6.58,2.42-13.75,3.67-18.33,3.75-3.17.08-4.58-.58-4.58-3.5v-17.92c1,.08,2.5.58,3.58,1h7c1.75,0,2.5-.67,3.5-1.75,1.17.75,2.67,1.92,3.67,2.75l-.25.83h-13.92v6.75h6.25c1.75,0,2.5-.67,3.5-1.75,1.17.75,2.67,1.92,3.67,2.75l-.25.83h-13.17v7c0,.5.17.83,1.17.75,4.67-.17,11.83-1.25,18.17-3.25v-22.92c1.5.17,3.5.75,4.92,1.33Z"/>
    <path class="cls-1" d="m198.5,75.42c5.33,0,9.33,2.83,9.33,8s-4,8-9.33,8-9.33-2.92-9.33-8,4-8,9.33-8Zm0,1.83c-3.42,0-5.67,2.67-5.67,6.08s2.25,6.17,5.67,6.17,5.75-2.67,5.75-6.17c-.08-3.42-2.33-6.08-5.75-6.08Zm21.33,17.33v.58c-.92.58-1.25.83-1.25,2.42v11.5c-.58.33-2.42.58-3.5.58v-1.92h-12.92v1.33c-.58.33-2.42.58-3.5.58v-15.5c1.33.17,3.33.75,4.67,1.33v.58c-.92.58-1.25.83-1.25,2.42v1.42h12.92v-6.67c1.5.17,3.5.75,4.83,1.33Zm-4.67,11.25v-4.17h-12.92v4.17h12.92Zm4.83-33.42v.58c-1,.58-1.33.92-1.33,2.5v15.67c-.5.42-2.42.75-3.5.67v-20.75c1.42.17,3.5.75,4.83,1.33Z"/>
  </g>
  <g>
    <path class="cls-1" d="m40.42,152.83v15.5c-.5.33-2,.58-2.92.58v-15.42c-3.67,5.83-10.58,10.75-17,12.75l-.5-1.25c6.17-3.25,12.58-8.58,15.42-13.83h-1.92c-3.67,0-5.67.08-7.67.17l-.42-1.92h12.17v-4.67h-5.33c-4,0-6.17.08-8.33.25l-.42-2h14.08v-4.67c1.25.17,3,.58,4.25,1.08v.67c-1,.58-1.33.92-1.33,2.5v.5h6.17c2.42,0,3.17-.67,4.33-2.08,1.25.83,2.92,2,4.08,3l-.42.92h-14.25v4.67h4.25c2.5,0,3.08-.58,4.33-2,1.17.75,2.75,1.92,3.92,2.83l-.33.92h-11.17c3.83,5.33,9.83,9.92,16.75,12l-.08.92c-1.92.17-3.42.75-4.25,1.58-4.58-2.25-10.33-7.75-13.42-13Zm-4.17-22.17v.58c-1,.67-1.33,1-1.33,2.42v1h8.25v-5.17c1.25.17,3,.58,4.25,1.08v.58c-1,.67-1.33,1-1.33,2.42v1h2.5c2.5,0,3.17-.67,4.5-2.08,1.25.83,2.92,2,4.08,3l-.42.92h-10.67v3.92c-.5.33-2,.58-2.83.58v-4.5h-8.25v3.92c-.5.33-2,.58-2.83.58v-4.5h-1.75c-4,0-6.17.08-8.33.25l-.42-2h10.58v-5.17c1,.25,2.75.67,4,1.17Z"/>
    <path class="cls-1" d="m81.08,153.83v14.5c-.5.33-2,.58-2.83.58v-14.08c-2.42,4.25-6.33,8.08-10.67,10.25l-.75-1c4.5-3.67,8.58-8.92,10.42-14h-.67c-3.25,0-5,.08-6.75.17l-.42-1.92h8.83v-4.58c-2.5.5-5.25.83-7.83.83l-.17-1.25c5.42-.75,10.92-2.42,14.33-4.75.75.67,2.08,2.08,2.75,3l-.42.58c-1.33-.25-1.92-.42-3.25.08-1,.33-2.08.67-3.33,1,.75.25,1.5.5,2.17.75v.58c-1,.58-1.33.92-1.33,2.5v1.17h.25c2.08,0,2.83-.58,4-1.83,1.17.75,2.67,1.92,3.75,2.75l-.25.83h-7.75v1.83c2.67,1.5,5.33,3.42,6.25,4.92.75,1.25.83,2.75.25,3.42-.42.58-1.33.58-1.92-.42-1.25-1.92-2.83-4.08-4.67-5.92Zm2.08-23.17v.58c-1,.67-1.33,1-1.33,2.42v.92h8.08v-5.08c1.25.17,3,.58,4.25,1.08v.58c-1,.67-1.33,1-1.33,2.42v.92h2.83c2.42,0,3.17-.67,4.5-2.08,1.25.83,2.92,2,4.08,3l-.42.92h-11.08v3.08c-.5.33-2,.58-2.83.58v-3.58h-8.08v2.5c-.5.33-2,.58-2.83.58v-3.08h-1.67c-4,0-6.17.08-8.33.25l-.42-2h10.5v-5.08c1.08.17,2.83.58,4.08,1.08Zm6.58,34.58h3.75c2.92,0,3.83-.42,3.83-3v-23.25c1.25.17,3.08.58,4.33,1.08v.67c-1,.67-1.42,1-1.42,2.5v19.92c0,3-1.25,4.92-3.25,5.75-1.17-1-3.58-1.83-7.42-2.33l.17-1.33Zm5.08-21.33v.58c-.92.67-1.33.92-1.33,2.67v12.25c-.5.33-1.92.58-2.83.58v-17.17c1.25.17,2.92.58,4.17,1.08Z"/>
    <path class="cls-1" d="m129.17,146.58c1.5.67,2.67,1.5,3.67,2.5l4.58-5.17h-7.25c-2.83,0-4.33.08-6,.17l-.42-2h11.5c2.67,0,3.08-.42,4.17-1.58,1.08.58,2.75,1.83,3.75,2.67l-.25.83c-2,.33-2.58.92-8.58,6.42.33.42.58.83.92,1.25h7c2.67,0,3.42-.75,4.83-2.33,1.33.83,3.08,2.17,4.25,3.17l-.42.92h-14.92c.67,1.75,1,3.58,1,5.42,0,2.75-.58,5-1.75,6.67-1.17,1.58-2.92,2.83-4.17,3.17-1-1-2.75-1.67-6.17-2.08l.08-1.33h2.33c5.42,0,6.67-3.25,6.67-7.08,0-1.75-.25-3.33-.83-4.83h-8.58c-4.25,0-6.5.08-8.83.25l-.42-2.08h16.75c-.92-1.5-2.17-2.83-3.83-4l.92-.92h0Zm-12.67-4.67c0-.67.42-1.42,1.33-2.25,1.67-1.5,2.83-3.42,3.33-6.17l1.33.08c.08.75.08,1.5.08,2.25h11.17c-1.17-1.83-3.08-3.83-5.25-5.33l.58-1.08c2.33.58,5.25,2,6.17,3.25.75,1,.92,2.42.58,3.17h6.33c2.5,0,3.17-.58,4.25-1.92,1.17.67,2.92,1.92,3.92,2.75l-.25.83c-1.75.33-2.25.92-6.08,5.08l-1.17-.67,2.17-4.25h-22.75c-.58,3.17-2.33,5.92-4.42,5.92-.83-.08-1.33-.92-1.33-1.67Z"/>
    <path class="cls-1" d="m180.92,131.75c1,.58,2.67,1.83,3.67,2.67l-.25.83h-6.33c.83.25,1.67.58,2.33.92v.58c-.83.58-1.17.92-1.17,2.42v3.17c1.17-.17,1.75-.67,2.5-1.67,1,.58,2.5,1.67,3.5,2.5l-.25.83h-5.75v7.33c1.17.17,2.67.58,3.75,1.08v.58c-1,.67-1.33,1-1.33,2.75v1.92h2.5c2.33,0,3.08-.75,4.33-2.17,1.25.83,2.92,2,4.08,3l-.33.92h-10.58v5.83h7.42c2.5,0,3.17-.75,4.58-2.33,1.33.83,3.17,2.17,4.33,3.17l-.42.92h-26.08c-4,0-6.17.08-8.33.25l-.42-2h16v-5.83h-2.5c-3.67,0-5.67.08-7.67.17l-.42-1.92h10.67v-5.42c-.67.17-1.5.33-2.17.33v-8.5h-3.92c-.42,4.67-2.42,8.08-9.5,11.42l-.67-1.17c5.17-3.33,6.92-6.33,7.33-10.25-2.83,0-4.5.08-6.08.17l-.42-1.83h6.67v-1.17c0-3.25,0-4.83-.17-5.92-2.17,0-3.5.08-4.92.17l-.42-1.83h12.33c2.42-.08,2.92-.67,4.08-1.92Zm-7.08,4.33v.58c-.83.67-1.17.92-1.17,2.5v3.17h3.83v-7.08h-5.08c.83.25,1.75.5,2.42.83Zm11.25,14.67h3.5c2.75,0,3.58-.42,3.58-2.92v-17.5c1.25.17,3,.58,4.17,1.08v.58c-.92.67-1.33,1-1.33,2.83v13.67c0,2.83-1.25,4.67-3.08,5.58-1.25-.83-3.5-1.67-7-2.08l.17-1.25Zm4.83-16.25v.58c-.92.67-1.25.92-1.25,2.58v9.67c-.5.25-1.83.58-2.67.5v-14.42c1.17.17,2.83.58,3.92,1.08Z"/>
  </g>
</svg>