<svg width="240" height="240" viewBox="0 0 240 240" fill="none" xmlns="http://www.w3.org/2000/svg">
<g clip-path="url(#clip0_405_334)">
<path d="M28.5675 78.3004L19.3795 99.0544L9.47396 77.2931C8.84999 75.9015 8.512 74.7488 8.36641 73.4507H0V74.8422C3.60863 75.6107 3.99341 75.9482 3.99341 78.2069V100.493C3.99341 102.751 3.60863 103.084 0 103.852V105.244H10.0979V103.852C6.4893 103.084 6.10451 102.746 6.10451 100.493V77.9265L14.1849 95.6897C15.5889 98.8156 16.9096 102.066 18.0224 105.249H19.4159C20.5182 102.061 21.787 98.8779 23.1805 95.7417L31.5989 76.618V100.488C31.5989 102.746 31.2141 103.079 27.6055 103.847V105.239H38.9098V103.847C35.3012 103.079 34.9164 102.741 34.9164 100.488V78.2069C34.9164 75.9482 35.3012 75.6107 38.9098 74.8422V73.4507H30.0598C29.8674 74.7488 29.4826 76.2857 28.5675 78.3004Z" fill="#241916"/>
<path d="M58.3881 101.401V88.867C58.3881 85.17 56.3186 82.958 52.6632 82.958C52.2784 82.958 51.8936 83.0047 51.462 83.0567L47.5674 84.6403C45.4043 85.5075 44.3956 86.7069 44.3956 88.6748C44.3956 89.4433 44.6815 89.8743 45.4043 89.8743C45.9815 89.8743 46.9434 89.6354 47.8066 89.2512C47.7598 88.9656 47.7598 88.7735 47.7598 88.6281C47.7598 86.7537 49.4445 85.5542 51.6544 85.5542C53.8643 85.5542 55.3566 86.899 55.3566 89.5887V93.2026L49.9697 94.1061C44.536 95.02 42.9968 96.8944 42.9968 99.8229C42.9968 103.281 45.1131 105.488 48.7686 105.488C49.9125 105.213 53.1052 103.504 55.3566 102.097V102.892C55.3566 104.813 55.9806 105.389 57.2338 105.675L62.4283 104.283V102.554C61.3676 102.648 60.4576 102.7 59.8284 102.7C58.6741 102.7 58.3881 102.315 58.3881 101.401ZM55.3566 100.244C52.6892 101.697 50.6769 102.362 49.1533 102.362C47.2762 102.362 46.2675 101.303 46.2675 99.3868C46.2675 97.4708 47.0838 96.6971 51.2228 95.9286L55.3618 95.1394V100.244H55.3566Z" fill="#241916"/>
<path d="M71.7099 100.488V77.963C71.7099 74.9358 71.8087 72.9679 72.0479 71H71.7099L65.1686 72.5837L64.9762 73.9285C67.8153 74.7437 68.6784 75.5122 68.6784 77.8644V101.256C68.6784 102.456 68.3404 103.224 67.1393 104.33V105.244H75.0273V103.852C72.0427 103.084 71.7099 102.746 71.7099 100.493V100.488Z" fill="#241916"/>
<path d="M82.3433 77.8695V101.261C82.3433 102.461 82.0054 103.229 80.8042 104.335V105.249H88.6922V103.858C85.7076 103.089 85.3748 102.752 85.3748 100.498V77.963C85.3748 74.9358 85.4684 72.9679 85.7128 71H85.3748L78.8335 72.5837L78.6411 73.9285C81.4802 74.7437 82.3433 75.5122 82.3433 77.8644V77.8695Z" fill="#241916"/>
<path d="M96.0031 90.0198V101.261C96.0031 102.461 95.6651 103.229 94.464 104.335V105.249H102.352V103.858C99.3674 103.089 99.0346 102.752 99.0346 100.498V90.1237C99.0346 87.0965 99.1282 85.1286 99.3726 83.1606H99.0346L92.4933 84.7443L92.3009 86.0892C95.14 86.9044 96.0031 87.6728 96.0031 90.025V90.0198Z" fill="#241916"/>
<path d="M97.4902 78.1552C98.837 78.1552 99.9913 77.0025 99.9913 75.6577C99.9913 74.3129 98.837 73.1602 97.4902 73.1602C96.1435 73.1602 94.9891 74.3129 94.9891 75.6577C94.9891 77.0025 96.1435 78.1552 97.4902 78.1552Z" fill="#241916"/>
<path d="M109.663 77.8695V101.261C109.663 102.461 109.325 103.229 108.124 104.335V105.249H116.012V103.858C113.027 103.089 112.694 102.752 112.694 100.498V96.043L114.759 94.1893L119.527 100.451C122.511 104.387 124.43 105.4 127.077 105.4C127.846 105.4 128.517 105.353 129.77 105.254V103.863C126.978 103.333 124.815 101.988 121.882 98.338L116.963 92.211L119.813 89.6459C122.267 87.4392 125.247 85.8503 127.94 85.0351V83.6435H118.606V85.0351C120.338 85.3726 120.244 86.5253 118.367 88.3011L112.689 93.5766V77.963C112.689 74.9358 112.783 72.9679 113.027 71H112.689L106.148 72.5837L105.955 73.9285C108.795 74.7437 109.658 75.5122 109.658 77.8644L109.663 77.8695Z" fill="#241916"/>
<path d="M146.789 78.6381L147.174 75.4707C143.18 75.7096 139.239 75.7096 135.246 75.4707L134.861 78.6381C138.854 78.3992 142.796 78.3992 146.789 78.6381Z" fill="#241916"/>
<path d="M147.85 101.401V88.867C147.85 85.17 145.78 82.958 142.125 82.958C141.74 82.958 141.355 83.0047 140.924 83.0567L137.029 84.6403C134.866 85.5075 133.857 86.7069 133.857 88.6748C133.857 89.4433 134.143 89.8743 134.866 89.8743C135.443 89.8743 136.405 89.6354 137.268 89.2512C137.222 88.9656 137.222 88.7735 137.222 88.6281C137.222 86.7537 138.906 85.5542 141.116 85.5542C143.326 85.5542 144.818 86.899 144.818 89.5887V93.2026L139.431 94.1061C133.998 95.02 132.459 96.8944 132.459 99.8229C132.459 103.281 134.575 105.488 138.23 105.488C139.374 105.213 142.567 103.504 144.818 102.097V102.892C144.818 104.813 145.442 105.389 146.696 105.675L151.89 104.283V102.554C150.829 102.648 149.919 102.7 149.29 102.7C148.136 102.7 147.85 102.315 147.85 101.401ZM144.818 100.244C142.151 101.697 140.139 102.362 138.615 102.362C136.738 102.362 135.729 101.303 135.729 99.3868C135.729 97.4708 136.546 96.6971 140.685 95.9286L144.824 95.1394V100.244H144.818Z" fill="#241916"/>
<path d="M168.529 104.091V102.362C166.751 102.699 165.498 102.84 164.536 102.84C161.936 102.84 161.12 101.879 161.12 99.3348V86.5096H167.755L168.285 83.6278H161.12V78.4873L159.867 78.6794C158.806 81.4626 156.45 83.9601 153.856 85.118L153.663 86.5096H158.088V100.68C158.088 104.044 159.674 105.675 163.766 105.675L168.529 104.091Z" fill="#241916"/>
<path d="M174.878 90.5496L181.466 105.447C179.215 109.865 176.61 111.89 171.992 112.067L171.894 113.318L175.887 115.333C179.204 114.274 181.035 112.212 183.681 105.389L189.214 90.9806C190.415 87.8599 192.006 86.0322 194.071 85.0249V83.6333H185.704V84.9781C188.444 85.6999 188.59 86.6137 187.337 90.02L183.068 101.516L177.956 90.02C176.464 86.6605 176.61 85.6999 179.449 84.9781V83.6333H170.552V85.0249C172.382 85.9387 173.438 87.2836 174.883 90.5496H174.878Z" fill="#241916"/>
<path d="M199.598 90.0198V110.094C199.598 112.352 199.26 112.69 196.28 113.458V114.85H205.947V113.458C202.962 112.69 202.629 112.352 202.629 110.094V105.478C203.466 105.633 204.319 105.722 205.229 105.722C212.878 105.722 217.157 100.296 217.157 93.426C217.157 87.517 214.464 83.1969 208.068 83.1969C207.782 83.1969 207.444 83.1969 207.106 83.2437C205.858 83.737 204.142 84.5625 202.765 85.3103C202.817 84.5574 202.884 83.8512 202.967 83.145H202.629L195.896 84.7287V86.0735C198.735 86.8887 199.598 87.6572 199.598 90.0094V90.0198ZM202.629 90.1184C202.629 89.1215 202.64 88.2388 202.661 87.4339C204.044 86.5772 205.796 85.9853 207.34 85.9853C211.334 85.9853 213.882 89.0124 213.882 94.7241C213.882 100.436 211.812 103.271 207.054 103.271C205.494 103.271 203.976 103.011 202.629 102.357V90.108V90.1184Z" fill="#241916"/>
<path d="M239.953 92.7094C240 92.3252 240 91.7021 240 91.3179C240 86.7538 237.353 83.2021 232.398 83.2021C225.903 83.2021 222.44 88.8203 222.44 95.1603C222.44 102.03 226.72 105.727 232.252 105.727C232.876 105.727 233.646 105.68 234.369 105.581L239.756 103.567V101.692C238.071 102.269 236.1 102.653 234.275 102.653C228.841 102.653 225.472 99.2415 225.472 93.5766C225.472 93.2806 225.482 92.995 225.498 92.7094H239.948H239.953ZM232.065 85.1233C234.759 85.1233 236.443 86.9459 236.443 89.0124C236.443 90.0198 236.105 90.4507 235.143 90.5027L225.799 90.7571C226.652 87.2574 229.096 85.1233 232.065 85.1233Z" fill="#241916"/>
<path d="M112.393 128.329V128.48C116.079 127.327 118.211 127.27 121.414 126.403L122.012 124.601L121.955 124.523C118.83 125.344 116.677 125.489 113.708 126.336L112.393 128.324V128.329Z" fill="#241916"/>
<path d="M121.674 116.621C120.874 118.838 119.849 119.575 118.877 119.575C118.648 119.575 118.425 119.534 118.206 119.466C118.378 118.791 118.482 118.017 118.508 117.14L118.367 117.026L117.447 117.493C117.161 119.99 115.856 120.91 114.863 120.92C114.052 120.925 113.599 120.328 113.599 119.388C113.599 119.087 113.646 118.749 113.745 118.381L113.604 118.267L112.684 118.734C112.476 119.456 112.377 120.11 112.377 120.681C112.377 122.322 113.178 123.308 114.494 123.308C115.445 123.308 116.495 122.774 117.291 121.605C117.671 121.829 118.071 121.969 118.57 121.969C119.922 121.969 121.96 120.863 122.023 116.719L121.674 116.621Z" fill="#241916"/>
<path d="M147.694 144.052L147.637 143.979C144.512 144.799 142.359 144.945 139.39 145.791L138.074 147.78V147.93C141.761 146.778 143.893 146.721 147.096 145.853L147.694 144.052Z" fill="#241916"/>
<path d="M144.792 152.484C142.926 152.484 140.674 153.653 138.766 156.55C136.265 160.34 132.121 165.933 126.921 165.933C126.921 165.933 126.91 165.933 126.905 165.933H126.427C122.891 165.933 121.154 164.172 120.712 159.588C119.475 146.653 119.35 140.069 118.981 130.879H118.669L116.001 134.602C116.542 143.501 116.958 149.052 117.743 159.858C117.863 161.483 118.159 162.916 118.627 164.141C116.173 165.445 113.75 165.953 111.363 165.974C111.306 165.948 111.238 165.933 111.176 165.933H111.036C104.011 165.933 101.79 163.612 93.7204 156.591C87.5067 151.191 85.068 149.125 81.6882 146.664L107.016 133.049L108.035 128.677V128.319L79.3951 144.613C79.1507 138.21 78.5891 134.399 78.0224 130.868H77.6844L75.3965 134.451C76.0985 139.83 76.6288 143.408 76.6288 151.955C76.6288 166.244 79.6499 169.287 85.9676 169.287H86.108C86.1184 169.287 86.134 169.282 86.1444 169.282C90.481 169.282 94.5264 166.094 94.5264 163.014C94.5264 162.511 94.4276 161.893 94.256 161.202C100.309 166.613 104.125 169.287 111.036 169.287H111.176C111.176 169.287 111.181 169.287 111.186 169.287C114.426 169.287 117.447 168.539 120.265 166.909C121.654 168.467 123.572 169.292 125.943 169.292H126.9C126.9 169.292 126.91 169.292 126.916 169.292C131.393 169.292 133.816 167.023 136.15 163.84C139.665 166.047 144.304 167.854 147.33 167.854L149.483 165.876C149.665 164.276 149.81 162.563 149.919 160.392C150.148 155.761 147.917 152.479 144.798 152.479L144.792 152.484ZM86.1496 165.933V165.943C86.1496 165.943 86.1236 165.938 86.1132 165.938H85.9728C82.0938 165.938 79.5251 163.83 79.5251 151.986C79.5251 150.792 79.5147 149.67 79.4991 148.6C83.1597 151.352 85.2604 153.097 87.9071 155.46C90.4342 158.03 91.7393 160.205 92.6545 163.233C91.1725 164.806 88.6351 165.933 86.1496 165.927V165.933ZM147.678 164.759C143.877 163.918 141.054 162.833 138.028 161.135C138.75 160.076 139.509 158.959 140.362 157.838C141.293 156.612 142.447 155.984 143.576 155.984C145.739 155.984 147.777 158.305 147.777 163.139C147.777 163.679 147.746 164.224 147.684 164.759H147.678Z" fill="#241916"/>
<path d="M225.893 145.231L222.451 143.73H222.066L220.714 147.095L224.536 148.751L225.893 145.231Z" fill="#241916"/>
<path d="M212.561 152.464C210.356 152.464 209.062 153.658 207.881 156.052L208.245 156.55H215.66C219.258 157.194 222.851 158.689 226.824 159.811C219.295 161.332 215.899 165.938 204.117 165.938C204.117 165.938 204.106 165.938 204.101 165.938H203.623C199.468 165.938 196.083 165.725 192.932 165.216C194.294 164.567 195.495 163.83 196.52 163.004C197.305 161.857 198.475 159.016 198.475 158.362C198.475 156.238 195.927 152.495 191.606 152.495C188.314 152.495 184.742 154.494 179.184 159.473L179.672 151.944C179.47 147.427 179.132 143.102 178.607 138.413C179.09 138.013 179.506 137.593 179.922 137.136L179.896 136.481C179.054 135.625 178.487 134.892 178.071 134.036C177.936 133.008 177.795 131.954 177.645 130.874H177.14C175.611 132.208 174.603 133.361 174.603 134.586C174.603 135.235 174.863 135.905 175.346 136.616C176.755 145.096 176.984 152.9 177.078 161.405C175.741 162.667 174.301 164.074 172.736 165.647C169.164 165.844 165.108 165.933 160.439 165.933L160.293 166.545C162.399 167.48 166.481 169.297 166.819 169.297C174.696 169.297 181.747 168.664 187.342 167.194C192.199 168.705 196.837 169.292 203.617 169.292H204.096H204.106C221.775 169.297 221.057 161.176 235.762 161.176H238.014L238.711 158.082V157.718H237.837C227.172 157.718 217.194 152.464 212.556 152.464H212.561ZM175.622 165.46C182.21 159.489 186.838 155.968 190.431 155.968C192.693 155.968 194.7 157.339 196.156 159.826C191.128 162.983 185.319 164.707 175.622 165.46Z" fill="#241916"/>
</g>
<defs>
<clipPath id="clip0_405_334">
<rect width="240" height="98.3026" fill="white" transform="translate(0 71)"/>
</clipPath>
</defs>
</svg>
