<?xml version="1.0" encoding="utf-8"?>
<!-- Svg Vector Icons : http://www.onlinewebfonts.com/icon -->
<!DOCTYPE svg PUBLIC "-//W3C//DTD SVG 1.1//EN" "http://www.w3.org/Graphics/SVG/1.1/DTD/svg11.dtd">
<svg version="1.1" xmlns="http://www.w3.org/2000/svg" xmlns:xlink="http://www.w3.org/1999/xlink" x="0px" y="0px" viewBox="0 0 1000 1000" enable-background="new 0 0 1000 1000" xml:space="preserve">
<metadata> Svg Vector Icons : http://www.onlinewebfonts.com/icon </metadata>
<g><path d="M376.8,504.8c-91.9,17.9-154.3,94.4-139.4,171S338.8,800,430.7,782.1s154.3-94.4,139.4-171C555.2,534.6,468.7,487,376.8,504.8z M368.6,706.3c-28.3,13.2-59.2,6.7-69.1-14.5c-9.9-21.2,5-49.1,33.3-62.3c28.3-13.2,59.2-6.7,69.1,14.5C411.7,665.2,396.8,693,368.6,706.3z M433.7,641.8c-15.6,0-28.2-12.7-28.2-28.2c0-15.6,12.7-28.2,28.2-28.2c15.6,0,28.2,12.6,28.2,28.2C461.9,629.2,449.3,641.8,433.7,641.8z"/><path d="M962,265.2c-13.2-30.6-31.1-57.7-54.3-80.5c-22.2-21.9-48.3-39-77.3-51.9c-51.7-22.9-104.2-29.9-145.8-28.7c-2.1,0.1-2.1,0.1-2.8,0.1c-16.9,1-29.8,15.4-28.8,32.3c1,16.8,15.4,29.8,32.3,28.8c-0.1,0-0.1,0,1.2-0.1c33.2-1,77.2,4.9,119.1,23.5c22.5,10,42.4,23,59,39.4c17.2,17,30.8,37.7,41.1,61.4c18.1,41.6,23.8,85.2,22.9,118.1c-0.1,1.1-0.1,1.1-0.1,1.1c-0.9,16.9,12.1,31.3,29,32.2c16.9,0.9,31.3-12.1,32.2-29c0.1-0.6,0.1-0.6,0.2-2.6C991,368.4,984.2,316.5,962,265.2z"/><path d="M718.7,473.2c0-8.5,82.2-85.1,0-132.7c-82.2-47.6-232.5,24.8-228,17c64.7-111.2-27.7-146.3-74.8-146.3C303.6,211.2,10,457.6,10,613.5S206,896,447.8,896c241.8,0,436-126.5,436-282.5C883.8,481.8,718.7,481.8,718.7,473.2z M459.3,809.5C304.7,831.2,168.1,767.4,154,667c-14.1-100.4,99.7-199.4,254.1-221.1c154.5-21.7,291.1,42.1,305.3,142.5C727.5,688.8,613.8,787.8,459.3,809.5z"/><path d="M741.1,298.5c13.1,5.4,23.8,12.6,31.4,21.6c6.7,8,12.6,17.6,17.5,28.4c6.2,13.8,10.7,29,13.5,44.2c1.7,9.1,2.4,15.9,2.6,19.3c0.9,16.9,15.3,29.9,32.2,29s29.9-15.3,29-32.2c-1.2-22.1-7-53.5-21.5-85.6c-7.2-15.8-15.9-30.1-26.6-42.7c-14.5-17.1-33.3-29.8-54.9-38.7c-28.4-11.6-56.2-15.3-77.2-15.1c-0.2,0-0.2,0-0.4,0c-16.9,0.3-30.4,14.3-30.1,31.2c0.3,16.9,14.3,30.4,31.2,30.1c-0.1,0-0.1,0-0.1,0C701.2,287.8,721.7,290.5,741.1,298.5z"/></g>
</svg>